<?xml version="1.0" encoding="UTF-8" standalone="no"?><svg xmlns="http://www.w3.org/2000/svg" xmlns:xlink="http://www.w3.org/1999/xlink" contentScriptType="application/ecmascript" contentStyleType="text/css" height="715px" preserveAspectRatio="none" style="width:836px;height:715px;" version="1.1" viewBox="0 0 836 715" width="836px" zoomAndPan="magnify"><defs><filter height="300%" id="ftinoj24n3d5s" width="300%" x="-1" y="-1"><feGaussianBlur result="blurOut" stdDeviation="2.0"/><feColorMatrix in="blurOut" result="blurOut2" type="matrix" values="0 0 0 0 0 0 0 0 0 0 0 0 0 0 0 0 0 0 .4 0"/><feOffset dx="4.0" dy="4.0" in="blurOut2" result="blurOut3"/><feBlend in="SourceGraphic" in2="blurOut3" mode="normal"/></filter></defs><g><!--MD5=[c095b4bd47589cb38faffce783e15390]
class RegistarColaboradorUI--><rect codeLine="3" fill="#FEFECE" filter="url(#ftinoj24n3d5s)" height="48" id="RegistarColaboradorUI" style="stroke:#A80036;stroke-width:1.5;" width="160" x="240.5" y="7"/><ellipse cx="255.5" cy="23" fill="#ADD1B2" rx="11" ry="11" style="stroke:#A80036;stroke-width:1.0;"/><path d="M258.2656,18.875 Q258.4219,18.6563 258.6094,18.5469 Q258.7969,18.4375 259.0156,18.4375 Q259.3906,18.4375 259.625,18.7031 Q259.8594,18.9531 259.8594,19.5625 L259.8594,21.0156 Q259.8594,21.625 259.625,21.8906 Q259.3906,22.1563 259.0156,22.1563 Q258.6719,22.1563 258.4688,21.9531 Q258.2656,21.7656 258.1563,21.25 Q258.1094,20.8906 257.9219,20.7031 Q257.5938,20.3281 256.9844,20.1094 Q256.375,19.8906 255.75,19.8906 Q254.9844,19.8906 254.3438,20.2188 Q253.7188,20.5469 253.2188,21.2969 Q252.7344,22.0469 252.7344,23.0781 L252.7344,24.1719 Q252.7344,25.4063 253.625,26.2344 Q254.5156,27.0469 256.1094,27.0469 Q257.0469,27.0469 257.7031,26.7969 Q258.0938,26.6406 258.5156,26.2031 Q258.7813,25.9375 258.9219,25.8594 Q259.0781,25.7813 259.2813,25.7813 Q259.6094,25.7813 259.8594,26.0469 Q260.125,26.2969 260.125,26.6406 Q260.125,26.9844 259.7813,27.3906 Q259.2813,27.9688 258.4844,28.2969 Q257.4063,28.75 256.1094,28.75 Q254.5938,28.75 253.3906,28.125 Q252.4063,27.625 251.7188,26.5625 Q251.0313,25.4844 251.0313,24.2031 L251.0313,23.0469 Q251.0313,21.7188 251.6406,20.5781 Q252.2656,19.4219 253.3594,18.8125 Q254.4531,18.1875 255.6875,18.1875 Q256.4219,18.1875 257.0625,18.3594 Q257.7188,18.5156 258.2656,18.875 Z " fill="#000000"/><text fill="#000000" font-family="sans-serif" font-size="12" lengthAdjust="spacing" textLength="128" x="269.5" y="27.9102">RegistarColaboradorUI</text><line style="stroke:#A80036;stroke-width:1.5;" x1="241.5" x2="399.5" y1="39" y2="39"/><line style="stroke:#A80036;stroke-width:1.5;" x1="241.5" x2="399.5" y1="47" y2="47"/><!--MD5=[ed8f4734c2e7fdcc46cc7e6710787c39]
class RegistarColaboradorController--><rect codeLine="6" fill="#FEFECE" filter="url(#ftinoj24n3d5s)" height="89.5078" id="RegistarColaboradorController" style="stroke:#A80036;stroke-width:1.5;" width="288" x="176.5" y="116"/><ellipse cx="231.25" cy="132" fill="#ADD1B2" rx="11" ry="11" style="stroke:#A80036;stroke-width:1.0;"/><path d="M234.0156,127.875 Q234.1719,127.6563 234.3594,127.5469 Q234.5469,127.4375 234.7656,127.4375 Q235.1406,127.4375 235.375,127.7031 Q235.6094,127.9531 235.6094,128.5625 L235.6094,130.0156 Q235.6094,130.625 235.375,130.8906 Q235.1406,131.1563 234.7656,131.1563 Q234.4219,131.1563 234.2188,130.9531 Q234.0156,130.7656 233.9063,130.25 Q233.8594,129.8906 233.6719,129.7031 Q233.3438,129.3281 232.7344,129.1094 Q232.125,128.8906 231.5,128.8906 Q230.7344,128.8906 230.0938,129.2188 Q229.4688,129.5469 228.9688,130.2969 Q228.4844,131.0469 228.4844,132.0781 L228.4844,133.1719 Q228.4844,134.4063 229.375,135.2344 Q230.2656,136.0469 231.8594,136.0469 Q232.7969,136.0469 233.4531,135.7969 Q233.8438,135.6406 234.2656,135.2031 Q234.5313,134.9375 234.6719,134.8594 Q234.8281,134.7813 235.0313,134.7813 Q235.3594,134.7813 235.6094,135.0469 Q235.875,135.2969 235.875,135.6406 Q235.875,135.9844 235.5313,136.3906 Q235.0313,136.9688 234.2344,137.2969 Q233.1563,137.75 231.8594,137.75 Q230.3438,137.75 229.1406,137.125 Q228.1563,136.625 227.4688,135.5625 Q226.7813,134.4844 226.7813,133.2031 L226.7813,132.0469 Q226.7813,130.7188 227.3906,129.5781 Q228.0156,128.4219 229.1094,127.8125 Q230.2031,127.1875 231.4375,127.1875 Q232.1719,127.1875 232.8125,127.3594 Q233.4688,127.5156 234.0156,127.875 Z " fill="#000000"/><text fill="#000000" font-family="sans-serif" font-size="12" lengthAdjust="spacing" textLength="170" x="251.75" y="136.9102">RegistarColaboradorController</text><line style="stroke:#A80036;stroke-width:1.5;" x1="177.5" x2="463.5" y1="148" y2="148"/><text fill="#000000" font-family="sans-serif" font-size="11" lengthAdjust="spacing" textLength="176" x="182.5" y="163.4189">+RepositorioColaboradorDB colabDB</text><line style="stroke:#A80036;stroke-width:1.5;" x1="177.5" x2="463.5" y1="169.8359" y2="169.8359"/><text fill="#000000" font-family="sans-serif" font-size="11" lengthAdjust="spacing" textLength="276" x="182.5" y="185.2549">+Colaborador registarColaborador(nome, contacto, email)</text><text fill="#000000" font-family="sans-serif" font-size="11" lengthAdjust="spacing" textLength="196" x="182.5" y="199.0908">+getOrganizacaoByEmailUtilizador(email)</text><!--MD5=[ecaed46f78f8cfe1e9ce18477649be18]
class Plataforma--><rect codeLine="12" fill="#FEFECE" filter="url(#ftinoj24n3d5s)" height="75.6719" id="Plataforma" style="stroke:#A80036;stroke-width:1.5;" width="182" x="229.5" y="482.5"/><ellipse cx="286.25" cy="498.5" fill="#ADD1B2" rx="11" ry="11" style="stroke:#A80036;stroke-width:1.0;"/><path d="M289.0156,494.375 Q289.1719,494.1563 289.3594,494.0469 Q289.5469,493.9375 289.7656,493.9375 Q290.1406,493.9375 290.375,494.2031 Q290.6094,494.4531 290.6094,495.0625 L290.6094,496.5156 Q290.6094,497.125 290.375,497.3906 Q290.1406,497.6563 289.7656,497.6563 Q289.4219,497.6563 289.2188,497.4531 Q289.0156,497.2656 288.9063,496.75 Q288.8594,496.3906 288.6719,496.2031 Q288.3438,495.8281 287.7344,495.6094 Q287.125,495.3906 286.5,495.3906 Q285.7344,495.3906 285.0938,495.7188 Q284.4688,496.0469 283.9688,496.7969 Q283.4844,497.5469 283.4844,498.5781 L283.4844,499.6719 Q283.4844,500.9063 284.375,501.7344 Q285.2656,502.5469 286.8594,502.5469 Q287.7969,502.5469 288.4531,502.2969 Q288.8438,502.1406 289.2656,501.7031 Q289.5313,501.4375 289.6719,501.3594 Q289.8281,501.2813 290.0313,501.2813 Q290.3594,501.2813 290.6094,501.5469 Q290.875,501.7969 290.875,502.1406 Q290.875,502.4844 290.5313,502.8906 Q290.0313,503.4688 289.2344,503.7969 Q288.1563,504.25 286.8594,504.25 Q285.3438,504.25 284.1406,503.625 Q283.1563,503.125 282.4688,502.0625 Q281.7813,500.9844 281.7813,499.7031 L281.7813,498.5469 Q281.7813,497.2188 282.3906,496.0781 Q283.0156,494.9219 284.1094,494.3125 Q285.2031,493.6875 286.4375,493.6875 Q287.1719,493.6875 287.8125,493.8594 Q288.4688,494.0156 289.0156,494.375 Z " fill="#000000"/><text fill="#000000" font-family="sans-serif" font-size="12" lengthAdjust="spacing" textLength="60" x="306.75" y="503.4102">Plataforma</text><line style="stroke:#A80036;stroke-width:1.5;" x1="230.5" x2="410.5" y1="514.5" y2="514.5"/><line style="stroke:#A80036;stroke-width:1.5;" x1="230.5" x2="410.5" y1="522.5" y2="522.5"/><text fill="#000000" font-family="sans-serif" font-size="11" lengthAdjust="spacing" textLength="74" x="235.5" y="537.9189">+getUsersAPI()</text><text fill="#000000" font-family="sans-serif" font-size="11" lengthAdjust="spacing" textLength="170" x="235.5" y="551.7549">+getAlgoritmoGeradorPasswords()</text><!--MD5=[807977ceb130c090ed5febfb6de2bdea]
class Organizacao--><rect codeLine="28" fill="#FEFECE" filter="url(#ftinoj24n3d5s)" height="117.1797" id="Organizacao" style="stroke:#A80036;stroke-width:1.5;" width="101" x="54" y="462"/><ellipse cx="69" cy="478" fill="#ADD1B2" rx="11" ry="11" style="stroke:#A80036;stroke-width:1.0;"/><path d="M71.7656,473.875 Q71.9219,473.6563 72.1094,473.5469 Q72.2969,473.4375 72.5156,473.4375 Q72.8906,473.4375 73.125,473.7031 Q73.3594,473.9531 73.3594,474.5625 L73.3594,476.0156 Q73.3594,476.625 73.125,476.8906 Q72.8906,477.1563 72.5156,477.1563 Q72.1719,477.1563 71.9688,476.9531 Q71.7656,476.7656 71.6563,476.25 Q71.6094,475.8906 71.4219,475.7031 Q71.0938,475.3281 70.4844,475.1094 Q69.875,474.8906 69.25,474.8906 Q68.4844,474.8906 67.8438,475.2188 Q67.2188,475.5469 66.7188,476.2969 Q66.2344,477.0469 66.2344,478.0781 L66.2344,479.1719 Q66.2344,480.4063 67.125,481.2344 Q68.0156,482.0469 69.6094,482.0469 Q70.5469,482.0469 71.2031,481.7969 Q71.5938,481.6406 72.0156,481.2031 Q72.2813,480.9375 72.4219,480.8594 Q72.5781,480.7813 72.7813,480.7813 Q73.1094,480.7813 73.3594,481.0469 Q73.625,481.2969 73.625,481.6406 Q73.625,481.9844 73.2813,482.3906 Q72.7813,482.9688 71.9844,483.2969 Q70.9063,483.75 69.6094,483.75 Q68.0938,483.75 66.8906,483.125 Q65.9063,482.625 65.2188,481.5625 Q64.5313,480.4844 64.5313,479.2031 L64.5313,478.0469 Q64.5313,476.7188 65.1406,475.5781 Q65.7656,474.4219 66.8594,473.8125 Q67.9531,473.1875 69.1875,473.1875 Q69.9219,473.1875 70.5625,473.3594 Q71.2188,473.5156 71.7656,473.875 Z " fill="#000000"/><text fill="#000000" font-family="sans-serif" font-size="12" lengthAdjust="spacing" textLength="69" x="83" y="482.9102">Organizacao</text><line style="stroke:#A80036;stroke-width:1.5;" x1="55" x2="154" y1="494" y2="494"/><text fill="#000000" font-family="sans-serif" font-size="11" lengthAdjust="spacing" textLength="61" x="60" y="509.4189">-String nome</text><text fill="#000000" font-family="sans-serif" font-size="11" lengthAdjust="spacing" textLength="50" x="60" y="523.2549">-String NIF</text><text fill="#000000" font-family="sans-serif" font-size="11" lengthAdjust="spacing" textLength="74" x="60" y="537.0908">-String website</text><text fill="#000000" font-family="sans-serif" font-size="11" lengthAdjust="spacing" textLength="74" x="60" y="550.9268">-String telefone</text><text fill="#000000" font-family="sans-serif" font-size="11" lengthAdjust="spacing" textLength="59" x="60" y="564.7627">-String email</text><line style="stroke:#A80036;stroke-width:1.5;" x1="55" x2="154" y1="571.1797" y2="571.1797"/><!--MD5=[ac8682ea5466d223e49472789fb200d2]
class Colaborador--><rect codeLine="20" fill="#FEFECE" filter="url(#ftinoj24n3d5s)" height="117.1797" id="Colaborador" style="stroke:#A80036;stroke-width:1.5;" width="189" x="7" y="267"/><ellipse cx="62.75" cy="283" fill="#ADD1B2" rx="11" ry="11" style="stroke:#A80036;stroke-width:1.0;"/><path d="M65.5156,278.875 Q65.6719,278.6563 65.8594,278.5469 Q66.0469,278.4375 66.2656,278.4375 Q66.6406,278.4375 66.875,278.7031 Q67.1094,278.9531 67.1094,279.5625 L67.1094,281.0156 Q67.1094,281.625 66.875,281.8906 Q66.6406,282.1563 66.2656,282.1563 Q65.9219,282.1563 65.7188,281.9531 Q65.5156,281.7656 65.4063,281.25 Q65.3594,280.8906 65.1719,280.7031 Q64.8438,280.3281 64.2344,280.1094 Q63.625,279.8906 63,279.8906 Q62.2344,279.8906 61.5938,280.2188 Q60.9688,280.5469 60.4688,281.2969 Q59.9844,282.0469 59.9844,283.0781 L59.9844,284.1719 Q59.9844,285.4063 60.875,286.2344 Q61.7656,287.0469 63.3594,287.0469 Q64.2969,287.0469 64.9531,286.7969 Q65.3438,286.6406 65.7656,286.2031 Q66.0313,285.9375 66.1719,285.8594 Q66.3281,285.7813 66.5313,285.7813 Q66.8594,285.7813 67.1094,286.0469 Q67.375,286.2969 67.375,286.6406 Q67.375,286.9844 67.0313,287.3906 Q66.5313,287.9688 65.7344,288.2969 Q64.6563,288.75 63.3594,288.75 Q61.8438,288.75 60.6406,288.125 Q59.6563,287.625 58.9688,286.5625 Q58.2813,285.4844 58.2813,284.2031 L58.2813,283.0469 Q58.2813,281.7188 58.8906,280.5781 Q59.5156,279.4219 60.6094,278.8125 Q61.7031,278.1875 62.9375,278.1875 Q63.6719,278.1875 64.3125,278.3594 Q64.9688,278.5156 65.5156,278.875 Z " fill="#000000"/><text fill="#000000" font-family="sans-serif" font-size="12" lengthAdjust="spacing" textLength="69" x="83.25" y="287.9102">Colaborador</text><line style="stroke:#A80036;stroke-width:1.5;" x1="8" x2="195" y1="299" y2="299"/><text fill="#000000" font-family="sans-serif" font-size="11" lengthAdjust="spacing" textLength="61" x="13" y="314.4189">-String nome</text><text fill="#000000" font-family="sans-serif" font-size="11" lengthAdjust="spacing" textLength="69" x="13" y="328.2549">-String funcao</text><text fill="#000000" font-family="sans-serif" font-size="11" lengthAdjust="spacing" textLength="74" x="13" y="342.0908">-String telefone</text><text fill="#000000" font-family="sans-serif" font-size="11" lengthAdjust="spacing" textLength="59" x="13" y="355.9268">-String email</text><line style="stroke:#A80036;stroke-width:1.5;" x1="8" x2="195" y1="362.3438" y2="362.3438"/><text fill="#000000" font-family="sans-serif" font-size="11" lengthAdjust="spacing" textLength="177" x="13" y="377.7627">+Colaborador(nome, contacto, email)</text><!--MD5=[407421fe170650ac131a5bd0ef307540]
class UsersAPI--><rect codeLine="36" fill="#FEFECE" filter="url(#ftinoj24n3d5s)" height="75.6719" id="UsersAPI" style="stroke:#A80036;stroke-width:1.5;" width="232" x="373.5" y="287.5"/><ellipse cx="459.25" cy="303.5" fill="#ADD1B2" rx="11" ry="11" style="stroke:#A80036;stroke-width:1.0;"/><path d="M462.0156,299.375 Q462.1719,299.1563 462.3594,299.0469 Q462.5469,298.9375 462.7656,298.9375 Q463.1406,298.9375 463.375,299.2031 Q463.6094,299.4531 463.6094,300.0625 L463.6094,301.5156 Q463.6094,302.125 463.375,302.3906 Q463.1406,302.6563 462.7656,302.6563 Q462.4219,302.6563 462.2188,302.4531 Q462.0156,302.2656 461.9063,301.75 Q461.8594,301.3906 461.6719,301.2031 Q461.3438,300.8281 460.7344,300.6094 Q460.125,300.3906 459.5,300.3906 Q458.7344,300.3906 458.0938,300.7188 Q457.4688,301.0469 456.9688,301.7969 Q456.4844,302.5469 456.4844,303.5781 L456.4844,304.6719 Q456.4844,305.9063 457.375,306.7344 Q458.2656,307.5469 459.8594,307.5469 Q460.7969,307.5469 461.4531,307.2969 Q461.8438,307.1406 462.2656,306.7031 Q462.5313,306.4375 462.6719,306.3594 Q462.8281,306.2813 463.0313,306.2813 Q463.3594,306.2813 463.6094,306.5469 Q463.875,306.7969 463.875,307.1406 Q463.875,307.4844 463.5313,307.8906 Q463.0313,308.4688 462.2344,308.7969 Q461.1563,309.25 459.8594,309.25 Q458.3438,309.25 457.1406,308.625 Q456.1563,308.125 455.4688,307.0625 Q454.7813,305.9844 454.7813,304.7031 L454.7813,303.5469 Q454.7813,302.2188 455.3906,301.0781 Q456.0156,299.9219 457.1094,299.3125 Q458.2031,298.6875 459.4375,298.6875 Q460.1719,298.6875 460.8125,298.8594 Q461.4688,299.0156 462.0156,299.375 Z " fill="#000000"/><text fill="#000000" font-family="sans-serif" font-size="12" lengthAdjust="spacing" textLength="52" x="479.75" y="308.4102">UsersAPI</text><line style="stroke:#A80036;stroke-width:1.5;" x1="374.5" x2="604.5" y1="319.5" y2="319.5"/><line style="stroke:#A80036;stroke-width:1.5;" x1="374.5" x2="604.5" y1="327.5" y2="327.5"/><text fill="#000000" font-family="sans-serif" font-size="11" lengthAdjust="spacing" textLength="53" x="379.5" y="342.9189">+getEmail()</text><text fill="#000000" font-family="sans-serif" font-size="11" lengthAdjust="spacing" textLength="220" x="379.5" y="356.7549">+RegisterUserWithRoles(nome,telefone,email)</text><!--MD5=[8acff2da5771b10a391d02403f8da7e4]
class RepositorioColaboradorDB--><rect codeLine="41" fill="#FEFECE" filter="url(#ftinoj24n3d5s)" height="61.8359" id="RepositorioColaboradorDB" style="stroke:#A80036;stroke-width:1.5;" width="182" x="640.5" y="294.5"/><ellipse cx="655.5" cy="310.5" fill="#ADD1B2" rx="11" ry="11" style="stroke:#A80036;stroke-width:1.0;"/><path d="M658.2656,306.375 Q658.4219,306.1563 658.6094,306.0469 Q658.7969,305.9375 659.0156,305.9375 Q659.3906,305.9375 659.625,306.2031 Q659.8594,306.4531 659.8594,307.0625 L659.8594,308.5156 Q659.8594,309.125 659.625,309.3906 Q659.3906,309.6563 659.0156,309.6563 Q658.6719,309.6563 658.4688,309.4531 Q658.2656,309.2656 658.1563,308.75 Q658.1094,308.3906 657.9219,308.2031 Q657.5938,307.8281 656.9844,307.6094 Q656.375,307.3906 655.75,307.3906 Q654.9844,307.3906 654.3438,307.7188 Q653.7188,308.0469 653.2188,308.7969 Q652.7344,309.5469 652.7344,310.5781 L652.7344,311.6719 Q652.7344,312.9063 653.625,313.7344 Q654.5156,314.5469 656.1094,314.5469 Q657.0469,314.5469 657.7031,314.2969 Q658.0938,314.1406 658.5156,313.7031 Q658.7813,313.4375 658.9219,313.3594 Q659.0781,313.2813 659.2813,313.2813 Q659.6094,313.2813 659.8594,313.5469 Q660.125,313.7969 660.125,314.1406 Q660.125,314.4844 659.7813,314.8906 Q659.2813,315.4688 658.4844,315.7969 Q657.4063,316.25 656.1094,316.25 Q654.5938,316.25 653.3906,315.625 Q652.4063,315.125 651.7188,314.0625 Q651.0313,312.9844 651.0313,311.7031 L651.0313,310.5469 Q651.0313,309.2188 651.6406,308.0781 Q652.2656,306.9219 653.3594,306.3125 Q654.4531,305.6875 655.6875,305.6875 Q656.4219,305.6875 657.0625,305.8594 Q657.7188,306.0156 658.2656,306.375 Z " fill="#000000"/><text fill="#000000" font-family="sans-serif" font-size="12" lengthAdjust="spacing" textLength="150" x="669.5" y="315.4102">RepositorioColaboradorDB</text><line style="stroke:#A80036;stroke-width:1.5;" x1="641.5" x2="821.5" y1="326.5" y2="326.5"/><line style="stroke:#A80036;stroke-width:1.5;" x1="641.5" x2="821.5" y1="334.5" y2="334.5"/><text fill="#000000" font-family="sans-serif" font-size="11" lengthAdjust="spacing" textLength="64" x="646.5" y="349.9189">+save(colab)</text><!--MD5=[37bf6c08f758502d5d1a5531d651ab43]
class AlgoritmoGeradorPasswords--><rect codeLine="45" fill="#FEFECE" filter="url(#ftinoj24n3d5s)" height="61.8359" id="AlgoritmoGeradorPasswords" style="stroke:#A80036;stroke-width:1.5;" width="189" x="226" y="640"/><ellipse cx="241" cy="656" fill="#B4A7E5" rx="11" ry="11" style="stroke:#A80036;stroke-width:1.0;"/><path d="M241.9531,652.6406 L241.9531,659.2969 L243.6719,659.2969 Q244.2813,659.2969 244.5469,659.5313 Q244.8125,659.7656 244.8125,660.1563 Q244.8125,660.5313 244.5469,660.7656 Q244.2813,661 243.6719,661 L238.5313,661 Q237.9219,661 237.6563,660.7656 Q237.3906,660.5313 237.3906,660.1406 Q237.3906,659.7656 237.6563,659.5313 Q237.9219,659.2969 238.5313,659.2969 L240.25,659.2969 L240.25,652.6406 L238.5313,652.6406 Q237.9219,652.6406 237.6563,652.4063 Q237.3906,652.1719 237.3906,651.7813 Q237.3906,651.4063 237.6563,651.1719 Q237.9219,650.9375 238.5313,650.9375 L243.6719,650.9375 Q244.2813,650.9375 244.5469,651.1719 Q244.8125,651.4063 244.8125,651.7813 Q244.8125,652.1719 244.5469,652.4063 Q244.2813,652.6406 243.6719,652.6406 L241.9531,652.6406 Z " fill="#000000"/><text fill="#000000" font-family="sans-serif" font-size="12" font-style="italic" lengthAdjust="spacing" textLength="157" x="255" y="660.9102">AlgoritmoGeradorPasswords</text><line style="stroke:#A80036;stroke-width:1.5;" x1="227" x2="414" y1="672" y2="672"/><line style="stroke:#A80036;stroke-width:1.5;" x1="227" x2="414" y1="680" y2="680"/><text fill="#000000" font-family="sans-serif" font-size="11" lengthAdjust="spacing" textLength="86" x="232" y="695.4189">+geraPassword()</text><!--MD5=[04c5e671d80e52da0a7fc401a24181ba]
link RegistarColaboradorUI to RegistarColaboradorController--><path codeLine="50" d="M320.5,55.18 C320.5,70.59 320.5,91.42 320.5,110.45 " fill="none" id="RegistarColaboradorUI-to-RegistarColaboradorController" style="stroke:#A80036;stroke-width:1.0;stroke-dasharray:7.0,7.0;"/><polygon fill="#A80036" points="320.5,115.76,324.5,106.76,320.5,110.76,316.5,106.76,320.5,115.76" style="stroke:#A80036;stroke-width:1.0;"/><!--MD5=[dcca32e4c8e13e9d6b5a689d8221a297]
link RegistarColaboradorController to UsersAPI--><path codeLine="52" d="M366.68,206.4 C391.73,230.49 422.47,260.05 446.94,283.57 " fill="none" id="RegistarColaboradorController-to-UsersAPI" style="stroke:#A80036;stroke-width:1.0;stroke-dasharray:7.0,7.0;"/><polygon fill="#A80036" points="450.81,287.3,447.1079,278.1734,447.2108,283.8293,441.5549,283.9322,450.81,287.3" style="stroke:#A80036;stroke-width:1.0;"/><!--MD5=[1f4cbe3aa740045efa243adb794a76a1]
link RegistarColaboradorController to Plataforma--><path codeLine="53" d="M320.5,206.2 C320.5,275.56 320.5,409.11 320.5,477.25 " fill="none" id="RegistarColaboradorController-to-Plataforma" style="stroke:#A80036;stroke-width:1.0;stroke-dasharray:7.0,7.0;"/><polygon fill="#A80036" points="320.5,482.44,324.5,473.44,320.5,477.44,316.5,473.44,320.5,482.44" style="stroke:#A80036;stroke-width:1.0;"/><!--MD5=[efdc8e23801cb35ea546bbcc29827c5b]
link RegistarColaboradorController to RepositorioColaboradorDB--><path codeLine="54" d="M462.16,206.01 C513.64,223.32 571.83,244.46 623.5,267 C640.41,274.38 658.27,283.36 674.5,292.02 " fill="none" id="RegistarColaboradorController-to-RepositorioColaboradorDB" style="stroke:#A80036;stroke-width:1.0;stroke-dasharray:7.0,7.0;"/><polygon fill="#A80036" points="679.03,294.45,673.0052,286.6589,674.6286,292.0778,669.2096,293.7012,679.03,294.45" style="stroke:#A80036;stroke-width:1.0;"/><!--MD5=[e4ab4794f45b679f29c89b4508863e17]
link RegistarColaboradorController to Organizacao--><path codeLine="55" d="M302.78,206.11 C283.53,252.06 250.51,325.4 213.5,384 C197.27,409.7 176.95,436.14 158.26,458.77 " fill="none" id="RegistarColaboradorController-to-Organizacao" style="stroke:#A80036;stroke-width:1.0;stroke-dasharray:7.0,7.0;"/><polygon fill="#A80036" points="155.04,462.65,163.8554,458.258,158.224,458.7949,157.6872,453.1636,155.04,462.65" style="stroke:#A80036;stroke-width:1.0;"/><!--MD5=[d1767d24d7627ec1488cc1bf2d745e24]
link RegistarColaboradorController to Colaborador--><path codeLine="56" d="M260.95,206.19 C237.02,223.94 209.05,244.7 183.27,263.83 " fill="none" id="RegistarColaboradorController-to-Colaborador" style="stroke:#A80036;stroke-width:1.0;stroke-dasharray:7.0,7.0;"/><polygon fill="#A80036" points="179.15,266.88,188.7587,264.7184,183.162,263.896,183.9843,258.2993,179.15,266.88" style="stroke:#A80036;stroke-width:1.0;"/><!--MD5=[ca072ff1c21777b50ec7efd3532ac987]
reverse link Organizacao to Plataforma--><path codeLine="58" d="M160.39,520.5 C181.36,520.5 205.76,520.5 229.11,520.5 " fill="none" id="Organizacao-backto-Plataforma" style="stroke:#A80036;stroke-width:1.0;"/><polygon fill="#A80036" points="155.14,520.5,164.14,524.5,160.14,520.5,164.14,516.5,155.14,520.5" style="stroke:#A80036;stroke-width:1.0;"/><text fill="#000000" font-family="sans-serif" font-size="13" lengthAdjust="spacing" textLength="38" x="173.25" y="513.9951">possui</text><text fill="#000000" font-family="sans-serif" font-size="13" lengthAdjust="spacing" textLength="5" x="162.9449" y="516.8327">*</text><text fill="#000000" font-family="sans-serif" font-size="13" lengthAdjust="spacing" textLength="7" x="214.5485" y="517.3847">1</text><!--MD5=[4af63d3dea35e3291155f9f8678ce2df]
reverse link Colaborador to Organizacao--><path codeLine="60" d="M102.48,389.38 C102.84,412.69 103.25,438.99 103.6,461.82 " fill="none" id="Colaborador-backto-Organizacao" style="stroke:#A80036;stroke-width:1.0;"/><polygon fill="#A80036" points="102.4,384.14,98.529,393.1962,102.4714,389.1395,106.5282,393.0819,102.4,384.14" style="stroke:#A80036;stroke-width:1.0;"/><text fill="#000000" font-family="sans-serif" font-size="13" lengthAdjust="spacing" textLength="38" x="104.5" y="428.4951">possui</text><text fill="#000000" font-family="sans-serif" font-size="13" lengthAdjust="spacing" textLength="20" x="81.2909" y="405.7673">1..*</text><text fill="#000000" font-family="sans-serif" font-size="13" lengthAdjust="spacing" textLength="7" x="96.0638" y="451.199">1</text><!--MD5=[49996cf4319f45f78007483382b2a228]
link Plataforma to AlgoritmoGeradorPasswords--><path codeLine="61" d="M320.5,558.59 C320.5,581.91 320.5,611.82 320.5,634.78 " fill="none" id="Plataforma-to-AlgoritmoGeradorPasswords" style="stroke:#A80036;stroke-width:1.0;stroke-dasharray:7.0,7.0;"/><polygon fill="#A80036" points="320.5,639.86,324.5,630.86,320.5,634.86,316.5,630.86,320.5,639.86" style="stroke:#A80036;stroke-width:1.0;"/><!--MD5=[4aa455233846f9bf8f0e1437346270b4]
@startuml
skinparam classAttributeIconSize 0

class RegistarColaboradorUI {
}

class RegistarColaboradorController {
  +Colaborador registarColaborador(nome, contacto, email)
  +RepositorioColaboradorDB colabDB
  +getOrganizacaoByEmailUtilizador(email)
}

class Plataforma {
  +getUsersAPI()
  +getAlgoritmoGeradorPasswords()
}

class Organizacao {
}

class Colaborador {
  -String nome
  -String funcao
  -String telefone
  -String email
  +Colaborador(nome, contacto, email)
}

class Organizacao {
  -String nome
  -String NIF
  -String website
  -String telefone
  -String email
}

class UsersAPI {
  +getEmail()
  +RegisterUserWithRoles(nome,telefone,email)
}

class RepositorioColaboradorDB {
  +save(colab)
}

interface AlgoritmoGeradorPasswords{
  +geraPassword()
}


RegistarColaboradorUI ..> RegistarColaboradorController

RegistarColaboradorController ..> UsersAPI
RegistarColaboradorController ..> Plataforma
RegistarColaboradorController ..> RepositorioColaboradorDB
RegistarColaboradorController ..> Organizacao
RegistarColaboradorController ..> Colaborador

Plataforma "1" -l> "*" Organizacao : possui

Organizacao "1" - -u> "1..*" Colaborador : possui
Plataforma ..> AlgoritmoGeradorPasswords




@enduml

PlantUML version 1.2021.00(Sun Jan 10 10:25:05 WET 2021)
(GPL source distribution)
Java Runtime: Java(TM) SE Runtime Environment
JVM: Java HotSpot(TM) 64-Bit Server VM
Default Encoding: Cp1252
Language: pt
Country: PT
--></g></svg>