<?xml version="1.0" encoding="UTF-8" standalone="no"?><svg xmlns="http://www.w3.org/2000/svg" xmlns:xlink="http://www.w3.org/1999/xlink" contentScriptType="application/ecmascript" contentStyleType="text/css" height="913px" preserveAspectRatio="none" style="width:2157px;height:913px;" version="1.1" viewBox="0 0 2157 913" width="2157px" zoomAndPan="magnify"><defs><filter height="300%" id="f11b9dphs5rxg1" width="300%" x="-1" y="-1"><feGaussianBlur result="blurOut" stdDeviation="2.0"/><feColorMatrix in="blurOut" result="blurOut2" type="matrix" values="0 0 0 0 0 0 0 0 0 0 0 0 0 0 0 0 0 0 .4 0"/><feOffset dx="4.0" dy="4.0" in="blurOut2" result="blurOut3"/><feBlend in="SourceGraphic" in2="blurOut3" mode="normal"/></filter></defs><g><rect fill="#FFFFFF" filter="url(#f11b9dphs5rxg1)" height="719.5469" style="stroke:#A80036;stroke-width:1.0;" width="10" x="76.5" y="99.6094"/><rect fill="#FFFFFF" filter="url(#f11b9dphs5rxg1)" height="46.7031" style="stroke:#A80036;stroke-width:1.0;" width="10" x="508.5" y="121.9609"/><rect fill="#FFFFFF" filter="url(#f11b9dphs5rxg1)" height="211.7578" style="stroke:#A80036;stroke-width:1.0;" width="10" x="508.5" y="199.0156"/><rect fill="#FFFFFF" filter="url(#f11b9dphs5rxg1)" height="369.0313" style="stroke:#A80036;stroke-width:1.0;" width="10" x="508.5" y="441.125"/><rect fill="#FFFFFF" filter="url(#f11b9dphs5rxg1)" height="151.0547" style="stroke:#A80036;stroke-width:1.0;" width="10" x="709.5" y="229.3672"/><rect fill="#FFFFFF" filter="url(#f11b9dphs5rxg1)" height="275.625" style="stroke:#A80036;stroke-width:1.0;" width="10" x="709.5" y="471.4766"/><rect fill="#FFFFFF" filter="url(#f11b9dphs5rxg1)" height="60.3516" style="stroke:#A80036;stroke-width:1.0;" width="10" x="1067.5" y="259.7188"/><rect fill="#FFFFFF" filter="url(#f11b9dphs5rxg1)" height="60.3516" style="stroke:#A80036;stroke-width:1.0;" width="10" x="1067.5" y="562.1797"/><rect fill="#FFFFFF" filter="url(#f11b9dphs5rxg1)" height="30" style="stroke:#A80036;stroke-width:1.0;" width="10" x="1425.5" y="290.0703"/><rect fill="#FFFFFF" filter="url(#f11b9dphs5rxg1)" height="30" style="stroke:#A80036;stroke-width:1.0;" width="10" x="1425.5" y="592.5313"/><rect fill="#FFFFFF" filter="url(#f11b9dphs5rxg1)" height="30" style="stroke:#A80036;stroke-width:1.0;" width="10" x="1572" y="501.8281"/><rect fill="#FFFFFF" filter="url(#f11b9dphs5rxg1)" height="30" style="stroke:#A80036;stroke-width:1.0;" width="10" x="1876.5" y="350.4219"/><rect fill="#FFFFFF" filter="url(#f11b9dphs5rxg1)" height="30" style="stroke:#A80036;stroke-width:1.0;" width="10" x="2063" y="717.1016"/><line style="stroke:#A80036;stroke-width:1.0;stroke-dasharray:5.0,5.0;" x1="81" x2="81" y1="89.6094" y2="828.1563"/><line style="stroke:#A80036;stroke-width:1.0;stroke-dasharray:5.0,5.0;" x1="513.5" x2="513.5" y1="89.6094" y2="828.1563"/><line style="stroke:#A80036;stroke-width:1.0;stroke-dasharray:5.0,5.0;" x1="714.5" x2="714.5" y1="89.6094" y2="828.1563"/><line style="stroke:#A80036;stroke-width:1.0;stroke-dasharray:5.0,5.0;" x1="1072.5" x2="1072.5" y1="89.6094" y2="828.1563"/><line style="stroke:#A80036;stroke-width:1.0;stroke-dasharray:5.0,5.0;" x1="1430" x2="1430" y1="89.6094" y2="828.1563"/><line style="stroke:#A80036;stroke-width:1.0;stroke-dasharray:5.0,5.0;" x1="1577" x2="1577" y1="89.6094" y2="828.1563"/><line style="stroke:#A80036;stroke-width:1.0;stroke-dasharray:5.0,5.0;" x1="1734" x2="1734" y1="672.6406" y2="828.1563"/><line style="stroke:#A80036;stroke-width:1.0;stroke-dasharray:5.0,5.0;" x1="1881" x2="1881" y1="89.6094" y2="828.1563"/><line style="stroke:#A80036;stroke-width:1.0;stroke-dasharray:5.0,5.0;" x1="2068" x2="2068" y1="89.6094" y2="828.1563"/><text fill="#000000" font-family="sans-serif" font-size="14" lengthAdjust="spacing" textLength="147" x="5" y="86.5332">Gestor de Organização</text><ellipse cx="81.5" cy="15" fill="#FEFECE" filter="url(#f11b9dphs5rxg1)" rx="8" ry="8" style="stroke:#A80036;stroke-width:2.0;"/><path d="M81.5,23 L81.5,50 M68.5,31 L94.5,31 M81.5,50 L68.5,65 M81.5,50 L94.5,65 " fill="none" filter="url(#f11b9dphs5rxg1)" style="stroke:#A80036;stroke-width:2.0;"/><text fill="#000000" font-family="sans-serif" font-size="14" lengthAdjust="spacing" textLength="147" x="5" y="841.6895">Gestor de Organização</text><ellipse cx="81.5" cy="854.7656" fill="#FEFECE" filter="url(#f11b9dphs5rxg1)" rx="8" ry="8" style="stroke:#A80036;stroke-width:2.0;"/><path d="M81.5,862.7656 L81.5,889.7656 M68.5,870.7656 L94.5,870.7656 M81.5,889.7656 L68.5,904.7656 M81.5,889.7656 L94.5,904.7656 " fill="none" filter="url(#f11b9dphs5rxg1)" style="stroke:#A80036;stroke-width:2.0;"/><rect fill="#FEFECE" filter="url(#f11b9dphs5rxg1)" height="31.6094" style="stroke:#A80036;stroke-width:1.5;" width="162" x="430.5" y="53"/><text fill="#000000" font-family="sans-serif" font-size="14" lengthAdjust="spacing" textLength="148" x="437.5" y="74.5332">:RegistarColaboradorUI</text><rect fill="#FEFECE" filter="url(#f11b9dphs5rxg1)" height="31.6094" style="stroke:#A80036;stroke-width:1.5;" width="162" x="430.5" y="827.1563"/><text fill="#000000" font-family="sans-serif" font-size="14" lengthAdjust="spacing" textLength="148" x="437.5" y="848.6895">:RegistarColaboradorUI</text><rect fill="#FEFECE" filter="url(#f11b9dphs5rxg1)" height="31.6094" style="stroke:#A80036;stroke-width:1.5;" width="212" x="606.5" y="53"/><text fill="#000000" font-family="sans-serif" font-size="14" lengthAdjust="spacing" textLength="198" x="613.5" y="74.5332">:RegistarColaboradorController</text><rect fill="#FEFECE" filter="url(#f11b9dphs5rxg1)" height="31.6094" style="stroke:#A80036;stroke-width:1.5;" width="212" x="606.5" y="827.1563"/><text fill="#000000" font-family="sans-serif" font-size="14" lengthAdjust="spacing" textLength="198" x="613.5" y="848.6895">:RegistarColaboradorController</text><rect fill="#FEFECE" filter="url(#f11b9dphs5rxg1)" height="31.6094" style="stroke:#A80036;stroke-width:1.5;" width="86" x="1027.5" y="53"/><text fill="#000000" font-family="sans-serif" font-size="14" lengthAdjust="spacing" textLength="72" x="1034.5" y="74.5332">:Plataforma</text><rect fill="#FEFECE" filter="url(#f11b9dphs5rxg1)" height="31.6094" style="stroke:#A80036;stroke-width:1.5;" width="86" x="1027.5" y="827.1563"/><text fill="#000000" font-family="sans-serif" font-size="14" lengthAdjust="spacing" textLength="72" x="1034.5" y="848.6895">:Plataforma</text><rect fill="#FEFECE" filter="url(#f11b9dphs5rxg1)" height="49.2188" style="stroke:#A80036;stroke-width:1.5;" width="71" x="1393" y="35.3906"/><text fill="#000000" font-family="sans-serif" font-size="14" lengthAdjust="spacing" textLength="33" x="1412" y="56.9238">uAPI:</text><text fill="#000000" font-family="sans-serif" font-size="14" lengthAdjust="spacing" textLength="57" x="1400" y="74.5332">UsersAPI</text><rect fill="#FEFECE" filter="url(#f11b9dphs5rxg1)" height="49.2188" style="stroke:#A80036;stroke-width:1.5;" width="71" x="1393" y="827.1563"/><text fill="#000000" font-family="sans-serif" font-size="14" lengthAdjust="spacing" textLength="33" x="1412" y="848.6895">uAPI:</text><text fill="#000000" font-family="sans-serif" font-size="14" lengthAdjust="spacing" textLength="57" x="1400" y="866.2988">UsersAPI</text><rect fill="#FEFECE" filter="url(#f11b9dphs5rxg1)" height="49.2188" style="stroke:#A80036;stroke-width:1.5;" width="194" x="1478" y="35.3906"/><text fill="#000000" font-family="sans-serif" font-size="14" lengthAdjust="spacing" textLength="28" x="1561" y="56.9238">agp:</text><text fill="#000000" font-family="sans-serif" font-size="14" lengthAdjust="spacing" textLength="180" x="1485" y="74.5332">AlgoritmoGeradorPasswords</text><rect fill="#FEFECE" filter="url(#f11b9dphs5rxg1)" height="49.2188" style="stroke:#A80036;stroke-width:1.5;" width="194" x="1478" y="827.1563"/><text fill="#000000" font-family="sans-serif" font-size="14" lengthAdjust="spacing" textLength="28" x="1561" y="848.6895">agp:</text><text fill="#000000" font-family="sans-serif" font-size="14" lengthAdjust="spacing" textLength="180" x="1485" y="866.2988">AlgoritmoGeradorPasswords</text><rect fill="#FEFECE" filter="url(#f11b9dphs5rxg1)" height="49.2188" style="stroke:#A80036;stroke-width:1.5;" width="93" x="1686" y="827.1563"/><text fill="#000000" font-family="sans-serif" font-size="14" lengthAdjust="spacing" textLength="11" x="1727" y="848.6895">c:</text><text fill="#000000" font-family="sans-serif" font-size="14" lengthAdjust="spacing" textLength="79" x="1693" y="866.2988">Colaborador</text><text fill="#000000" font-family="sans-serif" font-size="14" lengthAdjust="spacing" textLength="171" x="1793" y="86.5332">RepositorioOrganizacaoDB</text><path d="M1863.5,36 C1863.5,26 1881.5,26 1881.5,26 C1881.5,26 1899.5,26 1899.5,36 L1899.5,62 C1899.5,72 1881.5,72 1881.5,72 C1881.5,72 1863.5,72 1863.5,62 L1863.5,36 " fill="#FEFECE" filter="url(#f11b9dphs5rxg1)" style="stroke:#000000;stroke-width:1.5;"/><path d="M1863.5,36 C1863.5,46 1881.5,46 1881.5,46 C1881.5,46 1899.5,46 1899.5,36 " fill="none" style="stroke:#000000;stroke-width:1.5;"/><text fill="#000000" font-family="sans-serif" font-size="14" lengthAdjust="spacing" textLength="171" x="1793" y="841.6895">RepositorioOrganizacaoDB</text><path d="M1863.5,854.7656 C1863.5,844.7656 1881.5,844.7656 1881.5,844.7656 C1881.5,844.7656 1899.5,844.7656 1899.5,854.7656 L1899.5,880.7656 C1899.5,890.7656 1881.5,890.7656 1881.5,890.7656 C1881.5,890.7656 1863.5,890.7656 1863.5,880.7656 L1863.5,854.7656 " fill="#FEFECE" filter="url(#f11b9dphs5rxg1)" style="stroke:#000000;stroke-width:1.5;"/><path d="M1863.5,854.7656 C1863.5,864.7656 1881.5,864.7656 1881.5,864.7656 C1881.5,864.7656 1899.5,864.7656 1899.5,854.7656 " fill="none" style="stroke:#000000;stroke-width:1.5;"/><text fill="#000000" font-family="sans-serif" font-size="14" lengthAdjust="spacing" textLength="170" x="1980" y="86.5332">RepositorioColaboradorDB</text><path d="M2050,36 C2050,26 2068,26 2068,26 C2068,26 2086,26 2086,36 L2086,62 C2086,72 2068,72 2068,72 C2068,72 2050,72 2050,62 L2050,36 " fill="#FEFECE" filter="url(#f11b9dphs5rxg1)" style="stroke:#000000;stroke-width:1.5;"/><path d="M2050,36 C2050,46 2068,46 2068,46 C2068,46 2086,46 2086,36 " fill="none" style="stroke:#000000;stroke-width:1.5;"/><text fill="#000000" font-family="sans-serif" font-size="14" lengthAdjust="spacing" textLength="170" x="1980" y="841.6895">RepositorioColaboradorDB</text><path d="M2050,854.7656 C2050,844.7656 2068,844.7656 2068,844.7656 C2068,844.7656 2086,844.7656 2086,854.7656 L2086,880.7656 C2086,890.7656 2068,890.7656 2068,890.7656 C2068,890.7656 2050,890.7656 2050,880.7656 L2050,854.7656 " fill="#FEFECE" filter="url(#f11b9dphs5rxg1)" style="stroke:#000000;stroke-width:1.5;"/><path d="M2050,854.7656 C2050,864.7656 2068,864.7656 2068,864.7656 C2068,864.7656 2086,864.7656 2086,854.7656 " fill="none" style="stroke:#000000;stroke-width:1.5;"/><rect fill="#FFFFFF" filter="url(#f11b9dphs5rxg1)" height="719.5469" style="stroke:#A80036;stroke-width:1.0;" width="10" x="76.5" y="99.6094"/><rect fill="#FFFFFF" filter="url(#f11b9dphs5rxg1)" height="46.7031" style="stroke:#A80036;stroke-width:1.0;" width="10" x="508.5" y="121.9609"/><rect fill="#FFFFFF" filter="url(#f11b9dphs5rxg1)" height="211.7578" style="stroke:#A80036;stroke-width:1.0;" width="10" x="508.5" y="199.0156"/><rect fill="#FFFFFF" filter="url(#f11b9dphs5rxg1)" height="369.0313" style="stroke:#A80036;stroke-width:1.0;" width="10" x="508.5" y="441.125"/><rect fill="#FFFFFF" filter="url(#f11b9dphs5rxg1)" height="151.0547" style="stroke:#A80036;stroke-width:1.0;" width="10" x="709.5" y="229.3672"/><rect fill="#FFFFFF" filter="url(#f11b9dphs5rxg1)" height="275.625" style="stroke:#A80036;stroke-width:1.0;" width="10" x="709.5" y="471.4766"/><rect fill="#FFFFFF" filter="url(#f11b9dphs5rxg1)" height="60.3516" style="stroke:#A80036;stroke-width:1.0;" width="10" x="1067.5" y="259.7188"/><rect fill="#FFFFFF" filter="url(#f11b9dphs5rxg1)" height="60.3516" style="stroke:#A80036;stroke-width:1.0;" width="10" x="1067.5" y="562.1797"/><rect fill="#FFFFFF" filter="url(#f11b9dphs5rxg1)" height="30" style="stroke:#A80036;stroke-width:1.0;" width="10" x="1425.5" y="290.0703"/><rect fill="#FFFFFF" filter="url(#f11b9dphs5rxg1)" height="30" style="stroke:#A80036;stroke-width:1.0;" width="10" x="1425.5" y="592.5313"/><rect fill="#FFFFFF" filter="url(#f11b9dphs5rxg1)" height="30" style="stroke:#A80036;stroke-width:1.0;" width="10" x="1572" y="501.8281"/><rect fill="#FFFFFF" filter="url(#f11b9dphs5rxg1)" height="30" style="stroke:#A80036;stroke-width:1.0;" width="10" x="1876.5" y="350.4219"/><rect fill="#FFFFFF" filter="url(#f11b9dphs5rxg1)" height="30" style="stroke:#A80036;stroke-width:1.0;" width="10" x="2063" y="717.1016"/><polygon fill="#A80036" points="496.5,117.9609,506.5,121.9609,496.5,125.9609,500.5,121.9609" style="stroke:#A80036;stroke-width:1.0;"/><line style="stroke:#A80036;stroke-width:1.0;" x1="86.5" x2="502.5" y1="121.9609" y2="121.9609"/><text fill="#000000" font-family="sans-serif" font-size="13" font-weight="bold" lengthAdjust="spacing" textLength="7" x="93.5" y="117.1045">1</text><text fill="#000000" font-family="sans-serif" font-size="13" lengthAdjust="spacing" textLength="286" x="104.5" y="117.1045">começa o processo de registo de um colaborador</text><polygon fill="#A80036" points="97.5,164.6641,87.5,168.6641,97.5,172.6641,93.5,168.6641" style="stroke:#A80036;stroke-width:1.0;"/><line style="stroke:#A80036;stroke-width:1.0;stroke-dasharray:2.0,2.0;" x1="91.5" x2="512.5" y1="168.6641" y2="168.6641"/><text fill="#000000" font-family="sans-serif" font-size="13" font-weight="bold" lengthAdjust="spacing" textLength="7" x="103.5" y="155.6318">2</text><text fill="#000000" font-family="sans-serif" font-size="13" lengthAdjust="spacing" textLength="256" x="114.5" y="147.4561">solicita os dados requeridos sobre o mesmo</text><text fill="#000000" font-family="sans-serif" font-size="13" lengthAdjust="spacing" textLength="183" x="118.5" y="163.8076">(nome, funcao, contacto, email)</text><polygon fill="#A80036" points="496.5,195.0156,506.5,199.0156,496.5,203.0156,500.5,199.0156" style="stroke:#A80036;stroke-width:1.0;"/><line style="stroke:#A80036;stroke-width:1.0;" x1="86.5" x2="502.5" y1="199.0156" y2="199.0156"/><text fill="#000000" font-family="sans-serif" font-size="13" font-weight="bold" lengthAdjust="spacing" textLength="7" x="93.5" y="194.1592">3</text><text fill="#000000" font-family="sans-serif" font-size="13" lengthAdjust="spacing" textLength="211" x="104.5" y="194.1592">insere os dados do novo colaborador</text><polygon fill="#A80036" points="697.5,225.3672,707.5,229.3672,697.5,233.3672,701.5,229.3672" style="stroke:#A80036;stroke-width:1.0;"/><line style="stroke:#A80036;stroke-width:1.0;" x1="518.5" x2="703.5" y1="229.3672" y2="229.3672"/><text fill="#000000" font-family="sans-serif" font-size="13" font-weight="bold" lengthAdjust="spacing" textLength="7" x="525.5" y="224.5107">4</text><text fill="#000000" font-family="sans-serif" font-size="13" lengthAdjust="spacing" textLength="129" x="536.5" y="224.5107">getOrgByColabEmail()</text><polygon fill="#A80036" points="1055.5,255.7188,1065.5,259.7188,1055.5,263.7188,1059.5,259.7188" style="stroke:#A80036;stroke-width:1.0;"/><line style="stroke:#A80036;stroke-width:1.0;" x1="719.5" x2="1061.5" y1="259.7188" y2="259.7188"/><text fill="#000000" font-family="sans-serif" font-size="13" font-weight="bold" lengthAdjust="spacing" textLength="7" x="726.5" y="254.8623">5</text><text fill="#000000" font-family="sans-serif" font-size="13" lengthAdjust="spacing" textLength="128" x="737.5" y="254.8623">email = getUsersAPI()</text><polygon fill="#A80036" points="1413.5,286.0703,1423.5,290.0703,1413.5,294.0703,1417.5,290.0703" style="stroke:#A80036;stroke-width:1.0;"/><line style="stroke:#A80036;stroke-width:1.0;" x1="1077.5" x2="1419.5" y1="290.0703" y2="290.0703"/><text fill="#000000" font-family="sans-serif" font-size="13" font-weight="bold" lengthAdjust="spacing" textLength="7" x="1084.5" y="285.2139">6</text><text fill="#000000" font-family="sans-serif" font-size="13" lengthAdjust="spacing" textLength="106" x="1095.5" y="285.2139">email = getEmail()</text><polygon fill="#A80036" points="1864.5,346.4219,1874.5,350.4219,1864.5,354.4219,1868.5,350.4219" style="stroke:#A80036;stroke-width:1.0;"/><line style="stroke:#A80036;stroke-width:1.0;" x1="719.5" x2="1870.5" y1="350.4219" y2="350.4219"/><text fill="#000000" font-family="sans-serif" font-size="13" font-weight="bold" lengthAdjust="spacing" textLength="7" x="726.5" y="345.5654">7</text><text fill="#000000" font-family="sans-serif" font-size="13" lengthAdjust="spacing" textLength="194" x="737.5" y="345.5654">org = getOrgByColabEmail(email)</text><polygon fill="#A80036" points="97.5,406.7734,87.5,410.7734,97.5,414.7734,93.5,410.7734" style="stroke:#A80036;stroke-width:1.0;"/><line style="stroke:#A80036;stroke-width:1.0;stroke-dasharray:2.0,2.0;" x1="91.5" x2="512.5" y1="410.7734" y2="410.7734"/><text fill="#000000" font-family="sans-serif" font-size="13" font-weight="bold" lengthAdjust="spacing" textLength="7" x="103.5" y="405.917">8</text><text fill="#000000" font-family="sans-serif" font-size="13" lengthAdjust="spacing" textLength="387" x="114.5" y="405.917">valida os dados introduzidos, apresenta-os e solicita a confirmação</text><polygon fill="#A80036" points="496.5,437.125,506.5,441.125,496.5,445.125,500.5,441.125" style="stroke:#A80036;stroke-width:1.0;"/><line style="stroke:#A80036;stroke-width:1.0;" x1="86.5" x2="502.5" y1="441.125" y2="441.125"/><text fill="#000000" font-family="sans-serif" font-size="13" font-weight="bold" lengthAdjust="spacing" textLength="7" x="93.5" y="436.2686">9</text><text fill="#000000" font-family="sans-serif" font-size="13" lengthAdjust="spacing" textLength="49" x="104.5" y="436.2686">confirma</text><polygon fill="#A80036" points="697.5,467.4766,707.5,471.4766,697.5,475.4766,701.5,471.4766" style="stroke:#A80036;stroke-width:1.0;"/><line style="stroke:#A80036;stroke-width:1.0;" x1="518.5" x2="703.5" y1="471.4766" y2="471.4766"/><text fill="#000000" font-family="sans-serif" font-size="13" font-weight="bold" lengthAdjust="spacing" textLength="14" x="525.5" y="466.6201">10</text><text fill="#000000" font-family="sans-serif" font-size="13" lengthAdjust="spacing" textLength="116" x="543.5" y="466.6201">registaColaborador()</text><polygon fill="#A80036" points="1560,497.8281,1570,501.8281,1560,505.8281,1564,501.8281" style="stroke:#A80036;stroke-width:1.0;"/><line style="stroke:#A80036;stroke-width:1.0;" x1="719.5" x2="1566" y1="501.8281" y2="501.8281"/><text fill="#000000" font-family="sans-serif" font-size="13" font-weight="bold" lengthAdjust="spacing" textLength="14" x="726.5" y="496.9717">11</text><text fill="#000000" font-family="sans-serif" font-size="13" lengthAdjust="spacing" textLength="161" x="744.5" y="496.9717">password = geraPassword()</text><polygon fill="#A80036" points="1055.5,558.1797,1065.5,562.1797,1055.5,566.1797,1059.5,562.1797" style="stroke:#A80036;stroke-width:1.0;"/><line style="stroke:#A80036;stroke-width:1.0;stroke-dasharray:2.0,2.0;" x1="719.5" x2="1061.5" y1="562.1797" y2="562.1797"/><text fill="#000000" font-family="sans-serif" font-size="13" font-weight="bold" lengthAdjust="spacing" textLength="14" x="726.5" y="557.3232">12</text><text fill="#000000" font-family="sans-serif" font-size="13" lengthAdjust="spacing" textLength="311" x="744.5" y="557.3232">RegisterUserWithRoles(nome,email,password,funcao)</text><polygon fill="#A80036" points="1413.5,588.5313,1423.5,592.5313,1413.5,596.5313,1417.5,592.5313" style="stroke:#A80036;stroke-width:1.0;"/><line style="stroke:#A80036;stroke-width:1.0;" x1="1077.5" x2="1419.5" y1="592.5313" y2="592.5313"/><text fill="#000000" font-family="sans-serif" font-size="13" font-weight="bold" lengthAdjust="spacing" textLength="14" x="1084.5" y="587.6748">13</text><text fill="#000000" font-family="sans-serif" font-size="13" lengthAdjust="spacing" textLength="311" x="1102.5" y="587.6748">RegisterUserWithRoles(nome,email,password,funcao)</text><polygon fill="#A80036" points="1674,648.8828,1684,652.8828,1674,656.8828,1678,652.8828" style="stroke:#A80036;stroke-width:1.0;"/><line style="stroke:#A80036;stroke-width:1.0;stroke-dasharray:2.0,2.0;" x1="719.5" x2="1680" y1="652.8828" y2="652.8828"/><text fill="#000000" font-family="sans-serif" font-size="13" font-weight="bold" lengthAdjust="spacing" textLength="14" x="726.5" y="648.0264">14</text><text fill="#000000" font-family="sans-serif" font-size="13" lengthAdjust="spacing" textLength="212" x="744.5" y="648.0264">colab = create(nome,contacto,email)</text><rect fill="#FEFECE" filter="url(#f11b9dphs5rxg1)" height="49.2188" style="stroke:#A80036;stroke-width:1.5;" width="93" x="1686" y="630.5313"/><text fill="#000000" font-family="sans-serif" font-size="14" lengthAdjust="spacing" textLength="11" x="1727" y="652.0645">c:</text><text fill="#000000" font-family="sans-serif" font-size="14" lengthAdjust="spacing" textLength="79" x="1693" y="669.6738">Colaborador</text><polygon fill="#A80036" points="2051,713.1016,2061,717.1016,2051,721.1016,2055,717.1016" style="stroke:#A80036;stroke-width:1.0;"/><line style="stroke:#A80036;stroke-width:1.0;" x1="719.5" x2="2057" y1="717.1016" y2="717.1016"/><text fill="#000000" font-family="sans-serif" font-size="13" font-weight="bold" lengthAdjust="spacing" textLength="14" x="726.5" y="712.2451">15</text><text fill="#000000" font-family="sans-serif" font-size="13" lengthAdjust="spacing" textLength="65" x="744.5" y="712.2451">save(colab)</text><polygon fill="#A80036" points="97.5,806.1563,87.5,810.1563,97.5,814.1563,93.5,810.1563" style="stroke:#A80036;stroke-width:1.0;"/><line style="stroke:#A80036;stroke-width:1.0;stroke-dasharray:2.0,2.0;" x1="91.5" x2="512.5" y1="810.1563" y2="810.1563"/><text fill="#000000" font-family="sans-serif" font-size="13" font-weight="bold" lengthAdjust="spacing" textLength="14" x="103.5" y="788.9482">16</text><text fill="#000000" font-family="sans-serif" font-size="13" lengthAdjust="spacing" textLength="327" x="121.5" y="772.5967">regista os dados do colaborador, gera-lhe uma password</text><text fill="#000000" font-family="sans-serif" font-size="13" lengthAdjust="spacing" textLength="333" x="121.5" y="788.9482">(enviando, por email, os dados de acesso ao colaborador)</text><text fill="#000000" font-family="sans-serif" font-size="13" lengthAdjust="spacing" textLength="342" x="121.5" y="805.2998">e informa o gestor de organização do sucesso da operação</text><!--MD5=[5cd1815e93e87426a0d7a8350e98d4b8]
@startuml
autonumber

actor "Gestor de Organização" as GEST
participant ":RegistarColaboradorUI" as UI
participant ":RegistarColaboradorController" as CTRL
participant ":Plataforma" as PLAT
participant "uAPI:\nUsersAPI" as UApi
participant "agp:\nAlgoritmoGeradorPasswords" as AGP
participant "c:\nColaborador" as COLAB
database RepositorioOrganizacaoDB as orgDB
database RepositorioColaboradorDB as colabDB

activate GEST
GEST -> UI : começa o processo de registo de um colaborador
activate UI

UI - -> GEST : solicita os dados requeridos sobre o mesmo\n (nome, funcao, contacto, email)
deactivate UI

GEST -> UI : insere os dados do novo colaborador
activate UI
UI -> CTRL : getOrgByColabEmail()
activate CTRL
CTRL -> PLAT : email = getUsersAPI()
activate PLAT
PLAT -> UApi : email = getEmail()
activate UApi
deactivate PLAT
deactivate UApi
CTRL -> orgDB : org = getOrgByColabEmail(email)
activate orgDB
deactivate orgDB
deactivate CTRL 

UI - -> GEST : valida os dados introduzidos, apresenta-os e solicita a confirmação
deactivate UI


deactivate PLAT
deactivate UI
deactivate CTRL
GEST -> UI : confirma
activate UI
UI -> CTRL: registaColaborador()
activate CTRL


CTRL -> AGP : password = geraPassword()
activate AGP
deactivate AGP
CTRL - -> PLAT : RegisterUserWithRoles(nome,email,password,funcao)
activate PLAT
PLAT -> UApi : RegisterUserWithRoles(nome,email,password,funcao)
activate UApi
deactivate UApi
deactivate PLAT
CTRL - -> COLAB **: colab = create(nome,contacto,email)
CTRL -> colabDB : save(colab)
activate colabDB
deactivate colabDB
deactivate CTRL
UI - -> GEST: regista os dados do colaborador, gera-lhe uma password \n(enviando, por email, os dados de acesso ao colaborador) \ne informa o gestor de organização do sucesso da operação
deactivate UI

@enduml

PlantUML version 1.2021.00(Sun Jan 10 10:25:05 WET 2021)
(GPL source distribution)
Java Runtime: Java(TM) SE Runtime Environment
JVM: Java HotSpot(TM) 64-Bit Server VM
Default Encoding: Cp1252
Language: pt
Country: PT
--></g></svg>