<?xml version="1.0" encoding="UTF-8" standalone="no"?><svg xmlns="http://www.w3.org/2000/svg" xmlns:xlink="http://www.w3.org/1999/xlink" contentScriptType="application/ecmascript" contentStyleType="text/css" height="879px" preserveAspectRatio="none" style="width:1695px;height:879px;" version="1.1" viewBox="0 0 1695 879" width="1695px" zoomAndPan="magnify"><defs><filter height="300%" id="feodw3vumpj5w" width="300%" x="-1" y="-1"><feGaussianBlur result="blurOut" stdDeviation="2.0"/><feColorMatrix in="blurOut" result="blurOut2" type="matrix" values="0 0 0 0 0 0 0 0 0 0 0 0 0 0 0 0 0 0 .4 0"/><feOffset dx="4.0" dy="4.0" in="blurOut2" result="blurOut3"/><feBlend in="SourceGraphic" in2="blurOut3" mode="normal"/></filter></defs><g><rect fill="#FFFFFF" filter="url(#feodw3vumpj5w)" height="676.6797" style="stroke:#A80036;stroke-width:1.0;" width="10" x="37.5" y="99.6094"/><rect fill="#FFFFFF" filter="url(#feodw3vumpj5w)" height="318.8125" style="stroke:#A80036;stroke-width:1.0;" width="10" x="486.5" y="121.9609"/><rect fill="#FFFFFF" filter="url(#feodw3vumpj5w)" height="137.4063" style="stroke:#A80036;stroke-width:1.0;" width="10" x="486.5" y="471.125"/><rect fill="#FFFFFF" filter="url(#feodw3vumpj5w)" height="121.0547" style="stroke:#A80036;stroke-width:1.0;" width="10" x="486.5" y="655.2344"/><rect fill="#FFFFFF" filter="url(#feodw3vumpj5w)" height="151.0547" style="stroke:#A80036;stroke-width:1.0;" width="10" x="889.5" y="152.3125"/><rect fill="#FFFFFF" filter="url(#feodw3vumpj5w)" height="60.3516" style="stroke:#A80036;stroke-width:1.0;" width="10" x="889.5" y="333.7188"/><rect fill="#FFFFFF" filter="url(#feodw3vumpj5w)" height="60.3516" style="stroke:#A80036;stroke-width:1.0;" width="10" x="889.5" y="501.4766"/><rect fill="#FFFFFF" filter="url(#feodw3vumpj5w)" height="90.7031" style="stroke:#A80036;stroke-width:1.0;" width="10" x="889.5" y="685.5859"/><rect fill="#FFFFFF" filter="url(#feodw3vumpj5w)" height="60.3516" style="stroke:#A80036;stroke-width:1.0;" width="10" x="1074.5" y="182.6641"/><rect fill="#FFFFFF" filter="url(#feodw3vumpj5w)" height="30" style="stroke:#A80036;stroke-width:1.0;" width="10" x="1220.5" y="213.0156"/><rect fill="#FFFFFF" filter="url(#feodw3vumpj5w)" height="30" style="stroke:#A80036;stroke-width:1.0;" width="10" x="1449.5" y="273.3672"/><rect fill="#FFFFFF" filter="url(#feodw3vumpj5w)" height="30" style="stroke:#A80036;stroke-width:1.0;" width="10" x="1611" y="364.0703"/><rect fill="#FFFFFF" filter="url(#feodw3vumpj5w)" height="30" style="stroke:#A80036;stroke-width:1.0;" width="10" x="1611" y="531.8281"/><rect fill="#FFFFFF" filter="url(#feodw3vumpj5w)" height="30" style="stroke:#A80036;stroke-width:1.0;" width="10" x="1611" y="715.9375"/><line style="stroke:#A80036;stroke-width:1.0;stroke-dasharray:5.0,5.0;" x1="42" x2="42" y1="89.6094" y2="794.2891"/><line style="stroke:#A80036;stroke-width:1.0;stroke-dasharray:5.0,5.0;" x1="491.5" x2="491.5" y1="89.6094" y2="794.2891"/><line style="stroke:#A80036;stroke-width:1.0;stroke-dasharray:5.0,5.0;" x1="894" x2="894" y1="89.6094" y2="794.2891"/><line style="stroke:#A80036;stroke-width:1.0;stroke-dasharray:5.0,5.0;" x1="1079.5" x2="1079.5" y1="89.6094" y2="794.2891"/><line style="stroke:#A80036;stroke-width:1.0;stroke-dasharray:5.0,5.0;" x1="1225" x2="1225" y1="89.6094" y2="794.2891"/><line style="stroke:#A80036;stroke-width:1.0;stroke-dasharray:5.0,5.0;" x1="1323" x2="1323" y1="89.6094" y2="794.2891"/><line style="stroke:#A80036;stroke-width:1.0;stroke-dasharray:5.0,5.0;" x1="1454" x2="1454" y1="89.6094" y2="794.2891"/><line style="stroke:#A80036;stroke-width:1.0;stroke-dasharray:5.0,5.0;" x1="1616" x2="1616" y1="89.6094" y2="794.2891"/><text fill="#000000" font-family="sans-serif" font-size="14" lengthAdjust="spacing" textLength="69" x="5" y="86.5332">Freelancer</text><ellipse cx="42.5" cy="15" fill="#FEFECE" filter="url(#feodw3vumpj5w)" rx="8" ry="8" style="stroke:#A80036;stroke-width:2.0;"/><path d="M42.5,23 L42.5,50 M29.5,31 L55.5,31 M42.5,50 L29.5,65 M42.5,50 L55.5,65 " fill="none" filter="url(#feodw3vumpj5w)" style="stroke:#A80036;stroke-width:2.0;"/><text fill="#000000" font-family="sans-serif" font-size="14" lengthAdjust="spacing" textLength="69" x="5" y="807.8223">Freelancer</text><ellipse cx="42.5" cy="820.8984" fill="#FEFECE" filter="url(#feodw3vumpj5w)" rx="8" ry="8" style="stroke:#A80036;stroke-width:2.0;"/><path d="M42.5,828.8984 L42.5,855.8984 M29.5,836.8984 L55.5,836.8984 M42.5,855.8984 L29.5,870.8984 M42.5,855.8984 L55.5,870.8984 " fill="none" filter="url(#feodw3vumpj5w)" style="stroke:#A80036;stroke-width:2.0;"/><rect fill="#FEFECE" filter="url(#feodw3vumpj5w)" height="31.6094" style="stroke:#A80036;stroke-width:1.5;" width="150" x="414.5" y="53"/><text fill="#000000" font-family="sans-serif" font-size="14" lengthAdjust="spacing" textLength="136" x="421.5" y="74.5332">:AlterarCandidaturaUI</text><rect fill="#FEFECE" filter="url(#feodw3vumpj5w)" height="31.6094" style="stroke:#A80036;stroke-width:1.5;" width="150" x="414.5" y="793.2891"/><text fill="#000000" font-family="sans-serif" font-size="14" lengthAdjust="spacing" textLength="136" x="421.5" y="814.8223">:AlterarCandidaturaUI</text><rect fill="#FEFECE" filter="url(#feodw3vumpj5w)" height="31.6094" style="stroke:#A80036;stroke-width:1.5;" width="211" x="787" y="53"/><text fill="#000000" font-family="sans-serif" font-size="14" lengthAdjust="spacing" textLength="197" x="794" y="74.5332">:RegistarCandidaturaController</text><rect fill="#FEFECE" filter="url(#feodw3vumpj5w)" height="31.6094" style="stroke:#A80036;stroke-width:1.5;" width="211" x="787" y="793.2891"/><text fill="#000000" font-family="sans-serif" font-size="14" lengthAdjust="spacing" textLength="197" x="794" y="814.8223">:RegistarCandidaturaController</text><rect fill="#FEFECE" filter="url(#feodw3vumpj5w)" height="31.6094" style="stroke:#A80036;stroke-width:1.5;" width="86" x="1034.5" y="53"/><text fill="#000000" font-family="sans-serif" font-size="14" lengthAdjust="spacing" textLength="72" x="1041.5" y="74.5332">:Plataforma</text><rect fill="#FEFECE" filter="url(#feodw3vumpj5w)" height="31.6094" style="stroke:#A80036;stroke-width:1.5;" width="86" x="1034.5" y="793.2891"/><text fill="#000000" font-family="sans-serif" font-size="14" lengthAdjust="spacing" textLength="72" x="1041.5" y="814.8223">:Plataforma</text><rect fill="#FEFECE" filter="url(#feodw3vumpj5w)" height="31.6094" style="stroke:#A80036;stroke-width:1.5;" width="75" x="1186" y="53"/><text fill="#000000" font-family="sans-serif" font-size="14" lengthAdjust="spacing" textLength="61" x="1193" y="74.5332">:UsersAPI</text><rect fill="#FEFECE" filter="url(#feodw3vumpj5w)" height="31.6094" style="stroke:#A80036;stroke-width:1.5;" width="75" x="1186" y="793.2891"/><text fill="#000000" font-family="sans-serif" font-size="14" lengthAdjust="spacing" textLength="61" x="1193" y="814.8223">:UsersAPI</text><rect fill="#FEFECE" filter="url(#feodw3vumpj5w)" height="49.2188" style="stroke:#A80036;stroke-width:1.5;" width="92" x="1275" y="35.3906"/><text fill="#000000" font-family="sans-serif" font-size="14" lengthAdjust="spacing" textLength="35" x="1303.5" y="56.9238">cand:</text><text fill="#000000" font-family="sans-serif" font-size="14" lengthAdjust="spacing" textLength="78" x="1282" y="74.5332">Candidatura</text><rect fill="#FEFECE" filter="url(#feodw3vumpj5w)" height="49.2188" style="stroke:#A80036;stroke-width:1.5;" width="92" x="1275" y="793.2891"/><text fill="#000000" font-family="sans-serif" font-size="14" lengthAdjust="spacing" textLength="35" x="1303.5" y="814.8223">cand:</text><text fill="#000000" font-family="sans-serif" font-size="14" lengthAdjust="spacing" textLength="78" x="1282" y="832.4316">Candidatura</text><text fill="#000000" font-family="sans-serif" font-size="14" lengthAdjust="spacing" textLength="141" x="1381" y="86.5332">RepositorioFreelancer</text><path d="M1436.5,36 C1436.5,26 1454.5,26 1454.5,26 C1454.5,26 1472.5,26 1472.5,36 L1472.5,62 C1472.5,72 1454.5,72 1454.5,72 C1454.5,72 1436.5,72 1436.5,62 L1436.5,36 " fill="#FEFECE" filter="url(#feodw3vumpj5w)" style="stroke:#000000;stroke-width:1.5;"/><path d="M1436.5,36 C1436.5,46 1454.5,46 1454.5,46 C1454.5,46 1472.5,46 1472.5,36 " fill="none" style="stroke:#000000;stroke-width:1.5;"/><text fill="#000000" font-family="sans-serif" font-size="14" lengthAdjust="spacing" textLength="141" x="1381" y="807.8223">RepositorioFreelancer</text><path d="M1436.5,820.8984 C1436.5,810.8984 1454.5,810.8984 1454.5,810.8984 C1454.5,810.8984 1472.5,810.8984 1472.5,820.8984 L1472.5,846.8984 C1472.5,856.8984 1454.5,856.8984 1454.5,856.8984 C1454.5,856.8984 1436.5,856.8984 1436.5,846.8984 L1436.5,820.8984 " fill="#FEFECE" filter="url(#feodw3vumpj5w)" style="stroke:#000000;stroke-width:1.5;"/><path d="M1436.5,820.8984 C1436.5,830.8984 1454.5,830.8984 1454.5,830.8984 C1454.5,830.8984 1472.5,830.8984 1472.5,820.8984 " fill="none" style="stroke:#000000;stroke-width:1.5;"/><text fill="#000000" font-family="sans-serif" font-size="14" lengthAdjust="spacing" textLength="150" x="1538" y="86.5332">RepositorioCandidatura</text><path d="M1598,36 C1598,26 1616,26 1616,26 C1616,26 1634,26 1634,36 L1634,62 C1634,72 1616,72 1616,72 C1616,72 1598,72 1598,62 L1598,36 " fill="#FEFECE" filter="url(#feodw3vumpj5w)" style="stroke:#000000;stroke-width:1.5;"/><path d="M1598,36 C1598,46 1616,46 1616,46 C1616,46 1634,46 1634,36 " fill="none" style="stroke:#000000;stroke-width:1.5;"/><text fill="#000000" font-family="sans-serif" font-size="14" lengthAdjust="spacing" textLength="150" x="1538" y="807.8223">RepositorioCandidatura</text><path d="M1598,820.8984 C1598,810.8984 1616,810.8984 1616,810.8984 C1616,810.8984 1634,810.8984 1634,820.8984 L1634,846.8984 C1634,856.8984 1616,856.8984 1616,856.8984 C1616,856.8984 1598,856.8984 1598,846.8984 L1598,820.8984 " fill="#FEFECE" filter="url(#feodw3vumpj5w)" style="stroke:#000000;stroke-width:1.5;"/><path d="M1598,820.8984 C1598,830.8984 1616,830.8984 1616,830.8984 C1616,830.8984 1634,830.8984 1634,820.8984 " fill="none" style="stroke:#000000;stroke-width:1.5;"/><rect fill="#FFFFFF" filter="url(#feodw3vumpj5w)" height="676.6797" style="stroke:#A80036;stroke-width:1.0;" width="10" x="37.5" y="99.6094"/><rect fill="#FFFFFF" filter="url(#feodw3vumpj5w)" height="318.8125" style="stroke:#A80036;stroke-width:1.0;" width="10" x="486.5" y="121.9609"/><rect fill="#FFFFFF" filter="url(#feodw3vumpj5w)" height="137.4063" style="stroke:#A80036;stroke-width:1.0;" width="10" x="486.5" y="471.125"/><rect fill="#FFFFFF" filter="url(#feodw3vumpj5w)" height="121.0547" style="stroke:#A80036;stroke-width:1.0;" width="10" x="486.5" y="655.2344"/><rect fill="#FFFFFF" filter="url(#feodw3vumpj5w)" height="151.0547" style="stroke:#A80036;stroke-width:1.0;" width="10" x="889.5" y="152.3125"/><rect fill="#FFFFFF" filter="url(#feodw3vumpj5w)" height="60.3516" style="stroke:#A80036;stroke-width:1.0;" width="10" x="889.5" y="333.7188"/><rect fill="#FFFFFF" filter="url(#feodw3vumpj5w)" height="60.3516" style="stroke:#A80036;stroke-width:1.0;" width="10" x="889.5" y="501.4766"/><rect fill="#FFFFFF" filter="url(#feodw3vumpj5w)" height="90.7031" style="stroke:#A80036;stroke-width:1.0;" width="10" x="889.5" y="685.5859"/><rect fill="#FFFFFF" filter="url(#feodw3vumpj5w)" height="60.3516" style="stroke:#A80036;stroke-width:1.0;" width="10" x="1074.5" y="182.6641"/><rect fill="#FFFFFF" filter="url(#feodw3vumpj5w)" height="30" style="stroke:#A80036;stroke-width:1.0;" width="10" x="1220.5" y="213.0156"/><rect fill="#FFFFFF" filter="url(#feodw3vumpj5w)" height="30" style="stroke:#A80036;stroke-width:1.0;" width="10" x="1449.5" y="273.3672"/><rect fill="#FFFFFF" filter="url(#feodw3vumpj5w)" height="30" style="stroke:#A80036;stroke-width:1.0;" width="10" x="1611" y="364.0703"/><rect fill="#FFFFFF" filter="url(#feodw3vumpj5w)" height="30" style="stroke:#A80036;stroke-width:1.0;" width="10" x="1611" y="531.8281"/><rect fill="#FFFFFF" filter="url(#feodw3vumpj5w)" height="30" style="stroke:#A80036;stroke-width:1.0;" width="10" x="1611" y="715.9375"/><polygon fill="#A80036" points="474.5,117.9609,484.5,121.9609,474.5,125.9609,478.5,121.9609" style="stroke:#A80036;stroke-width:1.0;"/><line style="stroke:#A80036;stroke-width:1.0;" x1="47.5" x2="480.5" y1="121.9609" y2="121.9609"/><text fill="#000000" font-family="sans-serif" font-size="13" font-weight="bold" lengthAdjust="spacing" textLength="7" x="54.5" y="117.1045">1</text><text fill="#000000" font-family="sans-serif" font-size="13" lengthAdjust="spacing" textLength="141" x="65.5" y="117.1045">inicia alterar candidatura</text><polygon fill="#A80036" points="877.5,148.3125,887.5,152.3125,877.5,156.3125,881.5,152.3125" style="stroke:#A80036;stroke-width:1.0;"/><line style="stroke:#A80036;stroke-width:1.0;" x1="496.5" x2="883.5" y1="152.3125" y2="152.3125"/><text fill="#000000" font-family="sans-serif" font-size="13" font-weight="bold" lengthAdjust="spacing" textLength="7" x="503.5" y="147.4561">2</text><text fill="#000000" font-family="sans-serif" font-size="13" lengthAdjust="spacing" textLength="136" x="514.5" y="147.4561">getFreelancerByEmail()</text><polygon fill="#A80036" points="1062.5,178.6641,1072.5,182.6641,1062.5,186.6641,1066.5,182.6641" style="stroke:#A80036;stroke-width:1.0;"/><line style="stroke:#A80036;stroke-width:1.0;" x1="899.5" x2="1068.5" y1="182.6641" y2="182.6641"/><text fill="#000000" font-family="sans-serif" font-size="13" font-weight="bold" lengthAdjust="spacing" textLength="7" x="906.5" y="177.8076">3</text><text fill="#000000" font-family="sans-serif" font-size="13" lengthAdjust="spacing" textLength="145" x="917.5" y="177.8076">email = getSessionEmail</text><polygon fill="#A80036" points="1208.5,209.0156,1218.5,213.0156,1208.5,217.0156,1212.5,213.0156" style="stroke:#A80036;stroke-width:1.0;"/><line style="stroke:#A80036;stroke-width:1.0;" x1="1084.5" x2="1214.5" y1="213.0156" y2="213.0156"/><text fill="#000000" font-family="sans-serif" font-size="13" font-weight="bold" lengthAdjust="spacing" textLength="7" x="1091.5" y="208.1592">4</text><text fill="#000000" font-family="sans-serif" font-size="13" lengthAdjust="spacing" textLength="106" x="1102.5" y="208.1592">email = getEmail()</text><polygon fill="#A80036" points="1437.5,269.3672,1447.5,273.3672,1437.5,277.3672,1441.5,273.3672" style="stroke:#A80036;stroke-width:1.0;"/><line style="stroke:#A80036;stroke-width:1.0;" x1="899.5" x2="1443.5" y1="273.3672" y2="273.3672"/><text fill="#000000" font-family="sans-serif" font-size="13" font-weight="bold" lengthAdjust="spacing" textLength="7" x="906.5" y="268.5107">5</text><text fill="#000000" font-family="sans-serif" font-size="13" lengthAdjust="spacing" textLength="96" x="917.5" y="268.5107">free = find(email)</text><polygon fill="#A80036" points="877.5,329.7188,887.5,333.7188,877.5,337.7188,881.5,333.7188" style="stroke:#A80036;stroke-width:1.0;"/><line style="stroke:#A80036;stroke-width:1.0;" x1="496.5" x2="883.5" y1="333.7188" y2="333.7188"/><text fill="#000000" font-family="sans-serif" font-size="13" font-weight="bold" lengthAdjust="spacing" textLength="7" x="503.5" y="328.8623">6</text><text fill="#000000" font-family="sans-serif" font-size="13" lengthAdjust="spacing" textLength="285" x="514.5" y="328.8623">lcand = getCandidaturasDispByFreelancerEmail()</text><polygon fill="#A80036" points="1599,360.0703,1609,364.0703,1599,368.0703,1603,364.0703" style="stroke:#A80036;stroke-width:1.0;"/><line style="stroke:#A80036;stroke-width:1.0;" x1="899.5" x2="1605" y1="364.0703" y2="364.0703"/><text fill="#000000" font-family="sans-serif" font-size="13" font-weight="bold" lengthAdjust="spacing" textLength="7" x="906.5" y="359.2139">7</text><text fill="#000000" font-family="sans-serif" font-size="13" lengthAdjust="spacing" textLength="305" x="917.5" y="359.2139">lcand = getAllCandidaturasByFreelancerEmail(email)</text><polygon fill="#A80036" points="58.5,436.7734,48.5,440.7734,58.5,444.7734,54.5,440.7734" style="stroke:#A80036;stroke-width:1.0;"/><line style="stroke:#A80036;stroke-width:1.0;stroke-dasharray:2.0,2.0;" x1="52.5" x2="490.5" y1="440.7734" y2="440.7734"/><text fill="#000000" font-family="sans-serif" font-size="13" font-weight="bold" lengthAdjust="spacing" textLength="7" x="64.5" y="427.7412">8</text><text fill="#000000" font-family="sans-serif" font-size="13" lengthAdjust="spacing" textLength="273" x="75.5" y="419.5654">solicita a escolha de uma das candidaturas por</text><text fill="#000000" font-family="sans-serif" font-size="13" lengthAdjust="spacing" textLength="288" x="75.5" y="435.917">si efetuadas e, ainda, em período de candidaturas</text><polygon fill="#A80036" points="474.5,467.125,484.5,471.125,474.5,475.125,478.5,471.125" style="stroke:#A80036;stroke-width:1.0;"/><line style="stroke:#A80036;stroke-width:1.0;" x1="47.5" x2="480.5" y1="471.125" y2="471.125"/><text fill="#000000" font-family="sans-serif" font-size="13" font-weight="bold" lengthAdjust="spacing" textLength="7" x="54.5" y="466.2686">9</text><text fill="#000000" font-family="sans-serif" font-size="13" lengthAdjust="spacing" textLength="127" x="65.5" y="466.2686">escolhe a candidatura</text><polygon fill="#A80036" points="877.5,497.4766,887.5,501.4766,877.5,505.4766,881.5,501.4766" style="stroke:#A80036;stroke-width:1.0;"/><line style="stroke:#A80036;stroke-width:1.0;" x1="496.5" x2="883.5" y1="501.4766" y2="501.4766"/><text fill="#000000" font-family="sans-serif" font-size="13" font-weight="bold" lengthAdjust="spacing" textLength="14" x="503.5" y="496.6201">10</text><text fill="#000000" font-family="sans-serif" font-size="13" lengthAdjust="spacing" textLength="126" x="521.5" y="496.6201">cand = getCandById()</text><polygon fill="#A80036" points="1599,527.8281,1609,531.8281,1599,535.8281,1603,531.8281" style="stroke:#A80036;stroke-width:1.0;"/><line style="stroke:#A80036;stroke-width:1.0;" x1="899.5" x2="1605" y1="531.8281" y2="531.8281"/><text fill="#000000" font-family="sans-serif" font-size="13" font-weight="bold" lengthAdjust="spacing" textLength="14" x="906.5" y="526.9717">11</text><text fill="#000000" font-family="sans-serif" font-size="13" lengthAdjust="spacing" textLength="82" x="924.5" y="526.9717">cand = find(id)</text><polygon fill="#A80036" points="58.5,604.5313,48.5,608.5313,58.5,612.5313,54.5,608.5313" style="stroke:#A80036;stroke-width:1.0;"/><line style="stroke:#A80036;stroke-width:1.0;stroke-dasharray:2.0,2.0;" x1="52.5" x2="490.5" y1="608.5313" y2="608.5313"/><text fill="#000000" font-family="sans-serif" font-size="13" font-weight="bold" lengthAdjust="spacing" textLength="14" x="64.5" y="595.499">12</text><text fill="#000000" font-family="sans-serif" font-size="13" lengthAdjust="spacing" textLength="210" x="82.5" y="587.3232">solicita a introdução de novos dados</text><text fill="#000000" font-family="sans-serif" font-size="13" lengthAdjust="spacing" textLength="342" x="82.5" y="603.6748">(i.e. os que pretende alterar, mantendo os restantes iguais)</text><polygon fill="#A80036" points="474.5,651.2344,484.5,655.2344,474.5,659.2344,478.5,655.2344" style="stroke:#A80036;stroke-width:1.0;"/><line style="stroke:#A80036;stroke-width:1.0;" x1="47.5" x2="480.5" y1="655.2344" y2="655.2344"/><text fill="#000000" font-family="sans-serif" font-size="13" font-weight="bold" lengthAdjust="spacing" textLength="14" x="54.5" y="642.2021">13</text><text fill="#000000" font-family="sans-serif" font-size="13" lengthAdjust="spacing" textLength="169" x="72.5" y="634.0264">introduz os dados solicitados</text><text fill="#000000" font-family="sans-serif" font-size="13" lengthAdjust="spacing" textLength="251" x="72.5" y="650.3779">(valor,nrDias,txtApresentacao,txtMotivacao)</text><polygon fill="#A80036" points="877.5,681.5859,887.5,685.5859,877.5,689.5859,881.5,685.5859" style="stroke:#A80036;stroke-width:1.0;"/><line style="stroke:#A80036;stroke-width:1.0;" x1="496.5" x2="883.5" y1="685.5859" y2="685.5859"/><text fill="#000000" font-family="sans-serif" font-size="13" font-weight="bold" lengthAdjust="spacing" textLength="14" x="503.5" y="680.7295">14</text><text fill="#000000" font-family="sans-serif" font-size="13" lengthAdjust="spacing" textLength="356" x="521.5" y="680.7295">alterarCandidatura(valor,nrDias,txtApresentacao,txtMotivacao)</text><polygon fill="#A80036" points="1599,711.9375,1609,715.9375,1599,719.9375,1603,715.9375" style="stroke:#A80036;stroke-width:1.0;"/><line style="stroke:#A80036;stroke-width:1.0;" x1="899.5" x2="1605" y1="715.9375" y2="715.9375"/><text fill="#000000" font-family="sans-serif" font-size="13" font-weight="bold" lengthAdjust="spacing" textLength="14" x="906.5" y="711.0811">15</text><text fill="#000000" font-family="sans-serif" font-size="13" lengthAdjust="spacing" textLength="75" x="924.5" y="711.0811">update(cand)</text><polygon fill="#A80036" points="53.5,772.2891,43.5,776.2891,53.5,780.2891,49.5,776.2891" style="stroke:#A80036;stroke-width:1.0;"/><line style="stroke:#A80036;stroke-width:1.0;stroke-dasharray:2.0,2.0;" x1="47.5" x2="490.5" y1="776.2891" y2="776.2891"/><text fill="#000000" font-family="sans-serif" font-size="13" font-weight="bold" lengthAdjust="spacing" textLength="14" x="59.5" y="771.4326">16</text><text fill="#000000" font-family="sans-serif" font-size="13" lengthAdjust="spacing" textLength="397" x="77.5" y="771.4326">valida e apresenta os dados ao Freelancer e pede a sua confirmação</text><!--MD5=[088c53d239dba9ab0ac7dd88a254ab9b]
@startuml
autonumber

actor "Freelancer" as FRL
participant ":AlterarCandidaturaUI" as UI
participant ":RegistarCandidaturaController" as CTRL
participant ":Plataforma" as PLAT
participant ":UsersAPI" as API
participant "cand:\nCandidatura" as CAND
database RepositorioFreelancer as freeDB
database RepositorioCandidatura as candDB

activate FRL
FRL -> UI : inicia alterar candidatura
activate UI
UI -> CTRL : getFreelancerByEmail()
activate CTRL
CTRL -> PLAT : email = getSessionEmail
activate PLAT
PLAT -> API : email = getEmail()
activate API
deactivate API
deactivate PLAT
CTRL -> freeDB : free = find(email)
activate freeDB
deactivate freeDB
deactivate CTRL


UI -> CTRL : lcand = getCandidaturasDispByFreelancerEmail()
activate CTRL
CTRL -> candDB : lcand = getAllCandidaturasByFreelancerEmail(email)
activate candDB
deactivate candDB
deactivate CTRL


UI - -> FRL : solicita a escolha de uma das candidaturas por \nsi efetuadas e, ainda, em período de candidaturas
deactivate UI
FRL -> UI : escolhe a candidatura
activate UI
UI -> CTRL : cand = getCandById()
activate CTRL
CTRL -> candDB : cand = find(id)
activate candDB
deactivate candDB
deactivate CTRL
UI - -> FRL : solicita a introdução de novos dados \n(i.e. os que pretende alterar, mantendo os restantes iguais)
deactivate UI

FRL -> UI : introduz os dados solicitados \n(valor,nrDias,txtApresentacao,txtMotivacao)
activate UI
UI -> CTRL : alterarCandidatura(valor,nrDias,txtApresentacao,txtMotivacao)
activate CTRL
CTRL -> candDB : update(cand)
activate candDB
deactivate candDB


UI - -> FRL : valida e apresenta os dados ao Freelancer e pede a sua confirmação
deactivate UI

deactivate CTRL
deactivate UI
deactivate FRL

@enduml

PlantUML version 1.2021.00(Sun Jan 10 10:25:05 WET 2021)
(GPL source distribution)
Java Runtime: Java(TM) SE Runtime Environment
JVM: Java HotSpot(TM) 64-Bit Server VM
Default Encoding: Cp1252
Language: pt
Country: PT
--></g></svg>