<?xml version="1.0" encoding="UTF-8" standalone="no"?><svg xmlns="http://www.w3.org/2000/svg" xmlns:xlink="http://www.w3.org/1999/xlink" contentScriptType="application/ecmascript" contentStyleType="text/css" height="345px" preserveAspectRatio="none" style="width:909px;height:345px;" version="1.1" viewBox="0 0 909 345" width="909px" zoomAndPan="magnify"><defs><filter height="300%" id="f1bm0sw7j0xqtu" width="300%" x="-1" y="-1"><feGaussianBlur result="blurOut" stdDeviation="2.0"/><feColorMatrix in="blurOut" result="blurOut2" type="matrix" values="0 0 0 0 0 0 0 0 0 0 0 0 0 0 0 0 0 0 .4 0"/><feOffset dx="4.0" dy="4.0" in="blurOut2" result="blurOut3"/><feBlend in="SourceGraphic" in2="blurOut3" mode="normal"/></filter></defs><g><!--MD5=[ecaed46f78f8cfe1e9ce18477649be18]
class Plataforma--><rect codeLine="4" fill="#FEFECE" filter="url(#f1bm0sw7j0xqtu)" height="48" id="Plataforma" style="stroke:#A80036;stroke-width:1.5;" width="94" x="7" y="23.2422"/><ellipse cx="22" cy="39.2422" fill="#ADD1B2" rx="11" ry="11" style="stroke:#A80036;stroke-width:1.0;"/><path d="M24.4731,45.3853 Q23.8921,45.6841 23.2529,45.8335 Q22.6138,45.9829 21.9082,45.9829 Q19.4014,45.9829 18.0815,44.3311 Q16.7617,42.6792 16.7617,39.5581 Q16.7617,36.4287 18.0815,34.7769 Q19.4014,33.125 21.9082,33.125 Q22.6138,33.125 23.2612,33.2744 Q23.9087,33.4238 24.4731,33.7227 L24.4731,36.4453 Q23.8423,35.8643 23.2488,35.5945 Q22.6553,35.3247 22.0244,35.3247 Q20.6797,35.3247 19.9949,36.3914 Q19.3101,37.458 19.3101,39.5581 Q19.3101,41.6499 19.9949,42.7166 Q20.6797,43.7832 22.0244,43.7832 Q22.6553,43.7832 23.2488,43.5134 Q23.8423,43.2437 24.4731,42.6626 Z " fill="#000000"/><text fill="#000000" font-family="sans-serif" font-size="12" lengthAdjust="spacing" textLength="62" x="36" y="43.7773">Plataforma</text><line style="stroke:#A80036;stroke-width:1.5;" x1="8" x2="100" y1="55.2422" y2="55.2422"/><line style="stroke:#A80036;stroke-width:1.5;" x1="8" x2="100" y1="63.2422" y2="63.2422"/><!--MD5=[6559d866213c6b3fd003379aeba85775]
class Organização--><rect codeLine="7" fill="#FEFECE" filter="url(#f1bm0sw7j0xqtu)" height="112.7754" id="Organização" style="stroke:#A80036;stroke-width:1.5;" width="104" x="262" y="46.7422"/><ellipse cx="277" cy="62.7422" fill="#ADD1B2" rx="11" ry="11" style="stroke:#A80036;stroke-width:1.0;"/><path d="M279.4731,68.8853 Q278.8921,69.1841 278.2529,69.3335 Q277.6138,69.4829 276.9082,69.4829 Q274.4014,69.4829 273.0815,67.8311 Q271.7617,66.1792 271.7617,63.0581 Q271.7617,59.9287 273.0815,58.2769 Q274.4014,56.625 276.9082,56.625 Q277.6138,56.625 278.2612,56.7744 Q278.9087,56.9238 279.4731,57.2227 L279.4731,59.9453 Q278.8423,59.3643 278.2488,59.0945 Q277.6553,58.8247 277.0244,58.8247 Q275.6797,58.8247 274.9949,59.8914 Q274.3101,60.958 274.3101,63.0581 Q274.3101,65.1499 274.9949,66.2166 Q275.6797,67.2832 277.0244,67.2832 Q277.6553,67.2832 278.2488,67.0134 Q278.8423,66.7437 279.4731,66.1626 Z " fill="#000000"/><text fill="#000000" font-family="sans-serif" font-size="12" lengthAdjust="spacing" textLength="72" x="291" y="67.2773">Organização</text><line style="stroke:#A80036;stroke-width:1.5;" x1="263" x2="365" y1="78.7422" y2="78.7422"/><rect fill="none" height="6" style="stroke:#C82930;stroke-width:1.0;" width="6" x="270" y="86.7422"/><text fill="#000000" font-family="sans-serif" font-size="11" lengthAdjust="spacing" textLength="30" x="282" y="93.377">nome</text><rect fill="none" height="6" style="stroke:#C82930;stroke-width:1.0;" width="6" x="270" y="99.6973"/><text fill="#000000" font-family="sans-serif" font-size="11" lengthAdjust="spacing" textLength="14" x="282" y="106.332">nif</text><rect fill="none" height="6" style="stroke:#C82930;stroke-width:1.0;" width="6" x="270" y="112.6523"/><text fill="#000000" font-family="sans-serif" font-size="11" lengthAdjust="spacing" textLength="40" x="282" y="119.2871">website</text><rect fill="none" height="6" style="stroke:#C82930;stroke-width:1.0;" width="6" x="270" y="125.6074"/><text fill="#000000" font-family="sans-serif" font-size="11" lengthAdjust="spacing" textLength="43" x="282" y="132.2422">telefone</text><rect fill="none" height="6" style="stroke:#C82930;stroke-width:1.0;" width="6" x="270" y="138.5625"/><text fill="#000000" font-family="sans-serif" font-size="11" lengthAdjust="spacing" textLength="28" x="282" y="145.1973">email</text><line style="stroke:#A80036;stroke-width:1.5;" x1="263" x2="365" y1="151.5176" y2="151.5176"/><!--MD5=[27c2d4bbe9f7b9d3b0ea2797cc54308a]
class Tarefa--><rect codeLine="15" fill="#FEFECE" filter="url(#f1bm0sw7j0xqtu)" height="125.7305" id="Tarefa" style="stroke:#A80036;stroke-width:1.5;" width="125" x="485.5" y="45.2422"/><ellipse cx="525.25" cy="61.2422" fill="#ADD1B2" rx="11" ry="11" style="stroke:#A80036;stroke-width:1.0;"/><path d="M527.7231,67.3853 Q527.1421,67.6841 526.5029,67.8335 Q525.8638,67.9829 525.1582,67.9829 Q522.6514,67.9829 521.3315,66.3311 Q520.0117,64.6792 520.0117,61.5581 Q520.0117,58.4287 521.3315,56.7769 Q522.6514,55.125 525.1582,55.125 Q525.8638,55.125 526.5112,55.2744 Q527.1587,55.4238 527.7231,55.7227 L527.7231,58.4453 Q527.0923,57.8643 526.4988,57.5945 Q525.9053,57.3247 525.2744,57.3247 Q523.9297,57.3247 523.2449,58.3914 Q522.5601,59.458 522.5601,61.5581 Q522.5601,63.6499 523.2449,64.7166 Q523.9297,65.7832 525.2744,65.7832 Q525.9053,65.7832 526.4988,65.5134 Q527.0923,65.2437 527.7231,64.6626 Z " fill="#000000"/><text fill="#000000" font-family="sans-serif" font-size="12" lengthAdjust="spacing" textLength="38" x="544.75" y="65.7773">Tarefa</text><line style="stroke:#A80036;stroke-width:1.5;" x1="486.5" x2="609.5" y1="77.2422" y2="77.2422"/><rect fill="none" height="6" style="stroke:#C82930;stroke-width:1.0;" width="6" x="493.5" y="85.2422"/><text fill="#000000" font-family="sans-serif" font-size="11" lengthAdjust="spacing" textLength="54" x="505.5" y="91.877">referencia</text><rect fill="none" height="6" style="stroke:#C82930;stroke-width:1.0;" width="6" x="493.5" y="98.1973"/><text fill="#000000" font-family="sans-serif" font-size="11" lengthAdjust="spacing" textLength="61" x="505.5" y="104.832">designacao</text><rect fill="none" height="6" style="stroke:#C82930;stroke-width:1.0;" width="6" x="493.5" y="111.1523"/><text fill="#000000" font-family="sans-serif" font-size="11" lengthAdjust="spacing" textLength="70" x="505.5" y="117.7871">descInformal</text><rect fill="none" height="6" style="stroke:#C82930;stroke-width:1.0;" width="6" x="493.5" y="124.1074"/><text fill="#000000" font-family="sans-serif" font-size="11" lengthAdjust="spacing" textLength="66" x="505.5" y="130.7422">descTecnica</text><rect fill="none" height="6" style="stroke:#C82930;stroke-width:1.0;" width="6" x="493.5" y="137.0625"/><text fill="#000000" font-family="sans-serif" font-size="11" lengthAdjust="spacing" textLength="99" x="505.5" y="143.6973">estimativaDuracao</text><rect fill="none" height="6" style="stroke:#C82930;stroke-width:1.0;" width="6" x="493.5" y="150.0176"/><text fill="#000000" font-family="sans-serif" font-size="11" lengthAdjust="spacing" textLength="86" x="505.5" y="156.6523">estimativaCusto</text><line style="stroke:#A80036;stroke-width:1.5;" x1="486.5" x2="609.5" y1="162.9727" y2="162.9727"/><!--MD5=[7e1ce8ab2bf669717f28e918f4971b9a]
class Categoria--><rect codeLine="24" fill="#FEFECE" filter="url(#f1bm0sw7j0xqtu)" height="60.9551" id="Categoria" style="stroke:#A80036;stroke-width:1.5;" width="87" x="799.5" y="17.7422"/><ellipse cx="814.5" cy="33.7422" fill="#ADD1B2" rx="11" ry="11" style="stroke:#A80036;stroke-width:1.0;"/><path d="M816.9731,39.8853 Q816.3921,40.1841 815.7529,40.3335 Q815.1138,40.4829 814.4082,40.4829 Q811.9014,40.4829 810.5815,38.8311 Q809.2617,37.1792 809.2617,34.0581 Q809.2617,30.9287 810.5815,29.2769 Q811.9014,27.625 814.4082,27.625 Q815.1138,27.625 815.7612,27.7744 Q816.4087,27.9238 816.9731,28.2227 L816.9731,30.9453 Q816.3423,30.3643 815.7488,30.0945 Q815.1553,29.8247 814.5244,29.8247 Q813.1797,29.8247 812.4949,30.8914 Q811.8101,31.958 811.8101,34.0581 Q811.8101,36.1499 812.4949,37.2166 Q813.1797,38.2832 814.5244,38.2832 Q815.1553,38.2832 815.7488,38.0134 Q816.3423,37.7437 816.9731,37.1626 Z " fill="#000000"/><text fill="#000000" font-family="sans-serif" font-size="12" lengthAdjust="spacing" textLength="55" x="828.5" y="38.2773">Categoria</text><line style="stroke:#A80036;stroke-width:1.5;" x1="800.5" x2="885.5" y1="49.7422" y2="49.7422"/><rect fill="none" height="6" style="stroke:#C82930;stroke-width:1.0;" width="6" x="807.5" y="57.7422"/><text fill="#000000" font-family="sans-serif" font-size="11" lengthAdjust="spacing" textLength="52" x="819.5" y="64.377">descricao</text><line style="stroke:#A80036;stroke-width:1.5;" x1="800.5" x2="885.5" y1="70.6973" y2="70.6973"/><!--MD5=[289d904b2be1998d96d5ca7118f6f33d]
class DemoApplication--><rect codeLine="28" fill="#00BFFF" filter="url(#f1bm0sw7j0xqtu)" height="125.7305" id="DemoApplication" style="stroke:#A80036;stroke-width:1.5;" width="130" x="483" y="206.2422"/><ellipse cx="498" cy="222.2422" fill="#ADD1B2" rx="11" ry="11" style="stroke:#A80036;stroke-width:1.0;"/><path d="M500.4731,228.3853 Q499.8921,228.6841 499.2529,228.8335 Q498.6138,228.9829 497.9082,228.9829 Q495.4014,228.9829 494.0815,227.3311 Q492.7617,225.6792 492.7617,222.5581 Q492.7617,219.4287 494.0815,217.7769 Q495.4014,216.125 497.9082,216.125 Q498.6138,216.125 499.2612,216.2744 Q499.9087,216.4238 500.4731,216.7227 L500.4731,219.4453 Q499.8423,218.8643 499.2488,218.5945 Q498.6553,218.3247 498.0244,218.3247 Q496.6797,218.3247 495.9949,219.3914 Q495.3101,220.458 495.3101,222.5581 Q495.3101,224.6499 495.9949,225.7166 Q496.6797,226.7832 498.0244,226.7832 Q498.6553,226.7832 499.2488,226.5134 Q499.8423,226.2437 500.4731,225.6626 Z " fill="#000000"/><text fill="#000000" font-family="sans-serif" font-size="12" lengthAdjust="spacing" textLength="98" x="512" y="226.7773">DemoApplication</text><line style="stroke:#A80036;stroke-width:1.5;" x1="484" x2="612" y1="238.2422" y2="238.2422"/><rect fill="none" height="6" style="stroke:#C82930;stroke-width:1.0;" width="6" x="491" y="246.2422"/><text fill="#000000" font-family="sans-serif" font-size="11" lengthAdjust="spacing" textLength="43" x="503" y="252.877">Context</text><rect fill="none" height="6" style="stroke:#C82930;stroke-width:1.0;" width="6" x="491" y="259.1973"/><text fill="#000000" font-family="sans-serif" font-size="11" lengthAdjust="spacing" textLength="24" x="503" y="265.832">Data</text><rect fill="none" height="6" style="stroke:#C82930;stroke-width:1.0;" width="6" x="491" y="272.1523"/><text fill="#000000" font-family="sans-serif" font-size="11" lengthAdjust="spacing" textLength="28" x="503" y="278.7871">Email</text><rect fill="none" height="6" style="stroke:#C82930;stroke-width:1.0;" width="6" x="491" y="285.1074"/><text fill="#000000" font-family="sans-serif" font-size="11" lengthAdjust="spacing" textLength="23" x="503" y="291.7422">Role</text><rect fill="none" height="6" style="stroke:#C82930;stroke-width:1.0;" width="6" x="491" y="298.0625"/><text fill="#000000" font-family="sans-serif" font-size="11" lengthAdjust="spacing" textLength="41" x="503" y="304.6973">Session</text><rect fill="none" height="6" style="stroke:#C82930;stroke-width:1.0;" width="6" x="491" y="311.0176"/><text fill="#000000" font-family="sans-serif" font-size="11" lengthAdjust="spacing" textLength="25" x="503" y="317.6523">User</text><line style="stroke:#A80036;stroke-width:1.5;" x1="484" x2="612" y1="323.9727" y2="323.9727"/><!--MD5=[ac8682ea5466d223e49472789fb200d2]
class Colaborador--><rect codeLine="37" fill="#00BFFF" filter="url(#f1bm0sw7j0xqtu)" height="48" id="Colaborador" style="stroke:#A80036;stroke-width:1.5;" width="104" x="791" y="149.2422"/><ellipse cx="806" cy="165.2422" fill="#ADD1B2" rx="11" ry="11" style="stroke:#A80036;stroke-width:1.0;"/><path d="M808.4731,171.3853 Q807.8921,171.6841 807.2529,171.8335 Q806.6138,171.9829 805.9082,171.9829 Q803.4014,171.9829 802.0815,170.3311 Q800.7617,168.6792 800.7617,165.5581 Q800.7617,162.4287 802.0815,160.7769 Q803.4014,159.125 805.9082,159.125 Q806.6138,159.125 807.2612,159.2744 Q807.9087,159.4238 808.4731,159.7227 L808.4731,162.4453 Q807.8423,161.8643 807.2488,161.5945 Q806.6553,161.3247 806.0244,161.3247 Q804.6797,161.3247 803.9949,162.3914 Q803.3101,163.458 803.3101,165.5581 Q803.3101,167.6499 803.9949,168.7166 Q804.6797,169.7832 806.0244,169.7832 Q806.6553,169.7832 807.2488,169.5134 Q807.8423,169.2437 808.4731,168.6626 Z " fill="#000000"/><text fill="#000000" font-family="sans-serif" font-size="12" lengthAdjust="spacing" textLength="72" x="820" y="169.7773">Colaborador</text><line style="stroke:#A80036;stroke-width:1.5;" x1="792" x2="894" y1="181.2422" y2="181.2422"/><line style="stroke:#A80036;stroke-width:1.5;" x1="792" x2="894" y1="189.2422" y2="189.2422"/><!--MD5=[bfccd8e890448f4cee1f17ba82daa446]
link Plataforma to Organização--><path codeLine="42" d="M101.13,57.2522 C146.35,67.0722 215.13,82.0022 261.97,92.1622 " fill="none" id="Plataforma-Organização" style="stroke:#A80036;stroke-width:1.0;"/><polygon fill="#000000" points="140.8862,56.958,132.6703,52.1674,131.4236,57.9115,140.8862,56.958" style="stroke:#000000;stroke-width:1.0;"/><text fill="#000000" font-family="sans-serif" font-size="13" lengthAdjust="spacing" textLength="86" x="145" y="60.8105">tem registada</text><text fill="#000000" font-family="sans-serif" font-size="13" lengthAdjust="spacing" textLength="8" x="108.9593" y="72.5255">1</text><text fill="#000000" font-family="sans-serif" font-size="13" lengthAdjust="spacing" textLength="6" x="247.8875" y="104.244">*</text><!--MD5=[cb8556493ec2c94f9603162dd119feba]
link Plataforma to Categoria--><path codeLine="43" d="M101.37,42.0322 C143.28,37.6022 206.68,31.6022 262,29.2422 C417.86,22.5922 457.16,20.1122 613,27.2422 C678.21,30.2222 753.53,37.9622 799.45,43.1622 " fill="none" id="Plataforma-Categoria" style="stroke:#A80036;stroke-width:1.0;"/><polygon fill="#000000" points="406,14.9056,396.9597,11.952,396.9502,17.8298,406,14.9056" style="stroke:#000000;stroke-width:1.0;"/><text fill="#000000" font-family="sans-serif" font-size="13" lengthAdjust="spacing" textLength="42" x="410" y="19.8105">possui</text><text fill="#000000" font-family="sans-serif" font-size="13" lengthAdjust="spacing" textLength="8" x="108.915" y="54.9597">1</text><text fill="#000000" font-family="sans-serif" font-size="13" lengthAdjust="spacing" textLength="6" x="785.4492" y="38.5989">*</text><!--MD5=[08db6e261ed14257d80751f737616a9d]
link Organização to Tarefa--><path codeLine="44" d="M366.2,104.3422 C401.3,105.1022 448.04,106.1122 485.21,106.9122 " fill="none" id="Organização-Tarefa" style="stroke:#A80036;stroke-width:1.0;"/><polygon fill="#000000" points="405.9988,96.0054,397.0193,92.8719,396.8924,98.7484,405.9988,96.0054" style="stroke:#000000;stroke-width:1.0;"/><text fill="#000000" font-family="sans-serif" font-size="13" lengthAdjust="spacing" textLength="42" x="410" y="100.8105">possui</text><text fill="#000000" font-family="sans-serif" font-size="13" lengthAdjust="spacing" textLength="8" x="374.1031" y="118.1576">1</text><text fill="#000000" font-family="sans-serif" font-size="13" lengthAdjust="spacing" textLength="6" x="471.603" y="120.2275">*</text><!--MD5=[cc2561a0285988b367253361d2d1973d]
link Tarefa to Categoria--><path codeLine="45" d="M610.78,95.5922 C667.36,84.0022 749.63,67.1622 799.26,56.9922 " fill="none" id="Tarefa-Categoria" style="stroke:#A80036;stroke-width:1.0;"/><polygon fill="#000000" points="652.8983,56.8943,643.4475,55.8299,644.6268,61.5882,652.8983,56.8943" style="stroke:#000000;stroke-width:1.0;"/><text fill="#000000" font-family="sans-serif" font-size="13" lengthAdjust="spacing" textLength="103" x="657" y="62.8105">enquadra-se em</text><text fill="#000000" font-family="sans-serif" font-size="13" lengthAdjust="spacing" textLength="6" x="618.3858" y="107.5986">*</text><text fill="#000000" font-family="sans-serif" font-size="13" lengthAdjust="spacing" textLength="8" x="783.3531" y="72.2814">1</text><!--MD5=[ee29501c0e16a00a984e8489c5ca8fda]
link DemoApplication to Colaborador--><path codeLine="46" d="M613.3,248.1722 C666.7,230.6822 741.64,206.1222 790.99,189.9522 " fill="none" id="DemoApplication-Colaborador" style="stroke:#00BFFF;stroke-width:1.0;"/><polygon fill="#000000" points="683.2515,191.3406,673.7409,191.3641,675.5711,196.9498,683.2515,191.3406" style="stroke:#000000;stroke-width:1.0;"/><text fill="#000000" font-family="sans-serif" font-size="13" lengthAdjust="spacing" textLength="42" x="687.5" y="197.8105">possui</text><text fill="#000000" font-family="sans-serif" font-size="13" lengthAdjust="spacing" textLength="8" x="620.8797" y="259.2881">1</text><text fill="#000000" font-family="sans-serif" font-size="13" lengthAdjust="spacing" textLength="6" x="776.9104" y="206.0992">*</text><!--MD5=[ebe0b2adceebb6ee2636cb1948c7c8a9]
link Tarefa to Colaborador--><path codeLine="47" d="M610.78,121.9522 C664.17,133.7922 740.44,150.7122 790.56,161.8322 " fill="none" id="Tarefa-Colaborador" style="stroke:#00BFFF;stroke-width:1.0;"/><polygon fill="#000000" points="652.8813,121.9803,644.6874,117.1523,643.4144,122.8906,652.8813,121.9803" style="stroke:#000000;stroke-width:1.0;"/><text fill="#000000" font-family="sans-serif" font-size="13" lengthAdjust="spacing" textLength="103" x="657" y="125.8105">especificada por</text><text fill="#000000" font-family="sans-serif" font-size="13" lengthAdjust="spacing" textLength="6" x="618.3858" y="137.0065">*</text><text fill="#000000" font-family="sans-serif" font-size="13" lengthAdjust="spacing" textLength="8" x="774.9759" y="173.896">1</text><!--MD5=[301859a4ad78dc07c28d04ae4fecbcc2]
@startuml

left to right direction

class Plataforma {
}

class Organização {
    -nome
    -nif
    -website
    -telefone
    -email
}

class Tarefa {
    -referencia
    -designacao
    -descInformal
    -descTecnica
    -estimativaDuracao
    -estimativaCusto
}

class Categoria {
    -descricao
}

class DemoApplication #DeepSkyBlue {
    -Context 
    -Data 
    -Email 
    -Role 
    -Session 
    -User 
}

class Colaborador #DeepSkyBlue{

}


    Plataforma "1" - - "*" Organização:tem registada >
    Plataforma "1" - - "*" Categoria:possui >
    Organização "1" - - "*" Tarefa: possui >
    Tarefa "*" - - "1" Categoria:enquadra-se em >
    DemoApplication "1" - - "*" Colaborador #DeepSkyBlue : possui > 
    Tarefa "*" - - "1" Colaborador #DeepSkyBlue : especificada por >

@enduml

PlantUML version 1.2021.00(Sun Jan 10 10:25:05 WET 2021)
(GPL source distribution)
Java Runtime: Java(TM) SE Runtime Environment
JVM: Java HotSpot(TM) 64-Bit Server VM
Default Encoding: UTF-8
Language: pt
Country: PT
--></g></svg>