<?xml version="1.0" encoding="UTF-8" standalone="no"?><svg xmlns="http://www.w3.org/2000/svg" xmlns:xlink="http://www.w3.org/1999/xlink" contentScriptType="application/ecmascript" contentStyleType="text/css" height="887px" preserveAspectRatio="none" style="width:1802px;height:887px;" version="1.1" viewBox="0 0 1802 887" width="1802px" zoomAndPan="magnify"><defs><filter height="300%" id="f1e1j60llnxdd4" width="300%" x="-1" y="-1"><feGaussianBlur result="blurOut" stdDeviation="2.0"/><feColorMatrix in="blurOut" result="blurOut2" type="matrix" values="0 0 0 0 0 0 0 0 0 0 0 0 0 0 0 0 0 0 .4 0"/><feOffset dx="4.0" dy="4.0" in="blurOut2" result="blurOut3"/><feBlend in="SourceGraphic" in2="blurOut3" mode="normal"/></filter></defs><g><rect fill="#FFFFFF" filter="url(#f1e1j60llnxdd4)" height="686.6992" style="stroke:#A80036;stroke-width:1.0;" width="10" x="46.5" y="98.4883"/><rect fill="#FFFFFF" filter="url(#f1e1j60llnxdd4)" height="147.2422" style="stroke:#A80036;stroke-width:1.0;" width="10" x="376.5" y="119.7988"/><rect fill="#FFFFFF" filter="url(#f1e1j60llnxdd4)" height="312.2832" style="stroke:#A80036;stroke-width:1.0;" width="10" x="376.5" y="296.3516"/><rect fill="#FFFFFF" filter="url(#f1e1j60llnxdd4)" height="147.2422" style="stroke:#A80036;stroke-width:1.0;" width="10" x="376.5" y="637.9453"/><rect fill="#FFFFFF" filter="url(#f1e1j60llnxdd4)" height="206.8633" style="stroke:#A80036;stroke-width:1.0;" width="10" x="706.5" y="371.5938"/><rect fill="#FFFFFF" filter="url(#f1e1j60llnxdd4)" height="88.6211" style="stroke:#A80036;stroke-width:1.0;" width="10" x="706.5" y="667.2559"/><rect fill="#FFFFFF" filter="url(#f1e1j60llnxdd4)" height="59.3105" style="stroke:#A80036;stroke-width:1.0;" width="10" x="918.5" y="178.4199"/><rect fill="#FFFFFF" filter="url(#f1e1j60llnxdd4)" height="59.3105" style="stroke:#A80036;stroke-width:1.0;" width="10" x="1124.5" y="474.5254"/><rect fill="#FFFFFF" filter="url(#f1e1j60llnxdd4)" height="59.3105" style="stroke:#A80036;stroke-width:1.0;" width="10" x="1382" y="696.5664"/><rect fill="#FFFFFF" filter="url(#f1e1j60llnxdd4)" height="30" style="stroke:#A80036;stroke-width:1.0;" width="10" x="1530" y="207.7305"/><rect fill="#FFFFFF" filter="url(#f1e1j60llnxdd4)" height="30" style="stroke:#A80036;stroke-width:1.0;" width="10" x="1663" y="503.8359"/><rect fill="#FFFFFF" filter="url(#f1e1j60llnxdd4)" height="30" style="stroke:#A80036;stroke-width:1.0;" width="10" x="1762.5" y="725.877"/><rect fill="#FFFFFF" filter="url(#f1e1j60llnxdd4)" height="59.6211" style="stroke:#000000;stroke-width:2.0;" width="277" x="603.5" y="386.5938"/><line style="stroke:#A80036;stroke-width:1.0;stroke-dasharray:5.0,5.0;" x1="51" x2="51" y1="88.4883" y2="803.1875"/><line style="stroke:#A80036;stroke-width:1.0;stroke-dasharray:5.0,5.0;" x1="381.5" x2="381.5" y1="88.4883" y2="803.1875"/><line style="stroke:#A80036;stroke-width:1.0;stroke-dasharray:5.0,5.0;" x1="711.5" x2="711.5" y1="88.4883" y2="803.1875"/><line style="stroke:#A80036;stroke-width:1.0;stroke-dasharray:5.0,5.0;" x1="923.5" x2="923.5" y1="88.4883" y2="803.1875"/><line style="stroke:#A80036;stroke-width:1.0;stroke-dasharray:5.0,5.0;" x1="1129.5" x2="1129.5" y1="88.4883" y2="803.1875"/><line style="stroke:#A80036;stroke-width:1.0;stroke-dasharray:5.0,5.0;" x1="1268.5" x2="1268.5" y1="574.5801" y2="803.1875"/><line style="stroke:#A80036;stroke-width:1.0;stroke-dasharray:5.0,5.0;" x1="1386.5" x2="1386.5" y1="88.4883" y2="803.1875"/><line style="stroke:#A80036;stroke-width:1.0;stroke-dasharray:5.0,5.0;" x1="1534.5" x2="1534.5" y1="88.4883" y2="803.1875"/><line style="stroke:#A80036;stroke-width:1.0;stroke-dasharray:5.0,5.0;" x1="1667.5" x2="1667.5" y1="88.4883" y2="803.1875"/><line style="stroke:#A80036;stroke-width:1.0;stroke-dasharray:5.0,5.0;" x1="1767.5" x2="1767.5" y1="88.4883" y2="803.1875"/><text fill="#000000" font-family="sans-serif" font-size="14" lengthAdjust="spacing" textLength="87" x="5" y="85.5352">Colaborador</text><ellipse cx="51.5" cy="15" fill="#FEFECE" filter="url(#f1e1j60llnxdd4)" rx="8" ry="8" style="stroke:#A80036;stroke-width:2.0;"/><path d="M51.5,23 L51.5,50 M38.5,31 L64.5,31 M51.5,50 L38.5,65 M51.5,50 L64.5,65 " fill="none" filter="url(#f1e1j60llnxdd4)" style="stroke:#A80036;stroke-width:2.0;"/><text fill="#000000" font-family="sans-serif" font-size="14" lengthAdjust="spacing" textLength="87" x="5" y="815.7227">Colaborador</text><ellipse cx="51.5" cy="828.6758" fill="#FEFECE" filter="url(#f1e1j60llnxdd4)" rx="8" ry="8" style="stroke:#A80036;stroke-width:2.0;"/><path d="M51.5,836.6758 L51.5,863.6758 M38.5,844.6758 L64.5,844.6758 M51.5,863.6758 L38.5,878.6758 M51.5,863.6758 L64.5,878.6758 " fill="none" filter="url(#f1e1j60llnxdd4)" style="stroke:#A80036;stroke-width:2.0;"/><rect fill="#FEFECE" filter="url(#f1e1j60llnxdd4)" height="30.4883" style="stroke:#A80036;stroke-width:1.5;" width="146" x="306.5" y="53"/><text fill="#000000" font-family="sans-serif" font-size="14" lengthAdjust="spacing" textLength="132" x="313.5" y="73.5352">: AdicionarTarefaUI</text><rect fill="#FEFECE" filter="url(#f1e1j60llnxdd4)" height="30.4883" style="stroke:#A80036;stroke-width:1.5;" width="146" x="306.5" y="802.1875"/><text fill="#000000" font-family="sans-serif" font-size="14" lengthAdjust="spacing" textLength="132" x="313.5" y="822.7227">: AdicionarTarefaUI</text><rect fill="#FEFECE" filter="url(#f1e1j60llnxdd4)" height="30.4883" style="stroke:#A80036;stroke-width:1.5;" width="192" x="613.5" y="53"/><text fill="#000000" font-family="sans-serif" font-size="14" lengthAdjust="spacing" textLength="178" x="620.5" y="73.5352">: RegistarTarefaController</text><rect fill="#FEFECE" filter="url(#f1e1j60llnxdd4)" height="30.4883" style="stroke:#A80036;stroke-width:1.5;" width="192" x="613.5" y="802.1875"/><text fill="#000000" font-family="sans-serif" font-size="14" lengthAdjust="spacing" textLength="178" x="620.5" y="822.7227">: RegistarTarefaController</text><rect fill="#FEFECE" filter="url(#f1e1j60llnxdd4)" height="30.4883" style="stroke:#A80036;stroke-width:1.5;" width="204" x="819.5" y="53"/><text fill="#000000" font-family="sans-serif" font-size="14" lengthAdjust="spacing" textLength="190" x="826.5" y="73.5352">RepositorioCategoriaTarefa</text><rect fill="#FEFECE" filter="url(#f1e1j60llnxdd4)" height="30.4883" style="stroke:#A80036;stroke-width:1.5;" width="204" x="819.5" y="802.1875"/><text fill="#000000" font-family="sans-serif" font-size="14" lengthAdjust="spacing" textLength="190" x="826.5" y="822.7227">RepositorioCategoriaTarefa</text><rect fill="#FEFECE" filter="url(#f1e1j60llnxdd4)" height="30.4883" style="stroke:#A80036;stroke-width:1.5;" width="180" x="1037.5" y="53"/><text fill="#000000" font-family="sans-serif" font-size="14" lengthAdjust="spacing" textLength="166" x="1044.5" y="73.5352">RepositorioColaborador</text><rect fill="#FEFECE" filter="url(#f1e1j60llnxdd4)" height="30.4883" style="stroke:#A80036;stroke-width:1.5;" width="180" x="1037.5" y="802.1875"/><text fill="#000000" font-family="sans-serif" font-size="14" lengthAdjust="spacing" textLength="166" x="1044.5" y="822.7227">RepositorioColaborador</text><rect fill="#FEFECE" filter="url(#f1e1j60llnxdd4)" height="30.4883" style="stroke:#A80036;stroke-width:1.5;" width="71" x="1231.5" y="802.1875"/><text fill="#000000" font-family="sans-serif" font-size="14" lengthAdjust="spacing" textLength="57" x="1238.5" y="822.7227">t: Tarefa</text><rect fill="#FEFECE" filter="url(#f1e1j60llnxdd4)" height="30.4883" style="stroke:#A80036;stroke-width:1.5;" width="137" x="1316.5" y="53"/><text fill="#000000" font-family="sans-serif" font-size="14" lengthAdjust="spacing" textLength="123" x="1323.5" y="73.5352">RepositorioTarefa</text><rect fill="#FEFECE" filter="url(#f1e1j60llnxdd4)" height="30.4883" style="stroke:#A80036;stroke-width:1.5;" width="137" x="1316.5" y="802.1875"/><text fill="#000000" font-family="sans-serif" font-size="14" lengthAdjust="spacing" textLength="123" x="1323.5" y="822.7227">RepositorioTarefa</text><text fill="#000000" font-family="sans-serif" font-size="14" lengthAdjust="spacing" textLength="129" x="1467.5" y="85.5352">CategoriaTarefaDB</text><path d="M1517,36 C1517,26 1535,26 1535,26 C1535,26 1553,26 1553,36 L1553,62 C1553,72 1535,72 1535,72 C1535,72 1517,72 1517,62 L1517,36 " fill="#FEFECE" filter="url(#f1e1j60llnxdd4)" style="stroke:#000000;stroke-width:1.5;"/><path d="M1517,36 C1517,46 1535,46 1535,46 C1535,46 1553,46 1553,36 " fill="none" style="stroke:#000000;stroke-width:1.5;"/><text fill="#000000" font-family="sans-serif" font-size="14" lengthAdjust="spacing" textLength="129" x="1467.5" y="815.7227">CategoriaTarefaDB</text><path d="M1517,828.6758 C1517,818.6758 1535,818.6758 1535,818.6758 C1535,818.6758 1553,818.6758 1553,828.6758 L1553,854.6758 C1553,864.6758 1535,864.6758 1535,864.6758 C1535,864.6758 1517,864.6758 1517,854.6758 L1517,828.6758 " fill="#FEFECE" filter="url(#f1e1j60llnxdd4)" style="stroke:#000000;stroke-width:1.5;"/><path d="M1517,828.6758 C1517,838.6758 1535,838.6758 1535,838.6758 C1535,838.6758 1553,838.6758 1553,828.6758 " fill="none" style="stroke:#000000;stroke-width:1.5;"/><text fill="#000000" font-family="sans-serif" font-size="14" lengthAdjust="spacing" textLength="105" x="1612.5" y="85.5352">ColaboradorDB</text><path d="M1650,36 C1650,26 1668,26 1668,26 C1668,26 1686,26 1686,36 L1686,62 C1686,72 1668,72 1668,72 C1668,72 1650,72 1650,62 L1650,36 " fill="#FEFECE" filter="url(#f1e1j60llnxdd4)" style="stroke:#000000;stroke-width:1.5;"/><path d="M1650,36 C1650,46 1668,46 1668,46 C1668,46 1686,46 1686,36 " fill="none" style="stroke:#000000;stroke-width:1.5;"/><text fill="#000000" font-family="sans-serif" font-size="14" lengthAdjust="spacing" textLength="105" x="1612.5" y="815.7227">ColaboradorDB</text><path d="M1650,828.6758 C1650,818.6758 1668,818.6758 1668,818.6758 C1668,818.6758 1686,818.6758 1686,828.6758 L1686,854.6758 C1686,864.6758 1668,864.6758 1668,864.6758 C1668,864.6758 1650,864.6758 1650,854.6758 L1650,828.6758 " fill="#FEFECE" filter="url(#f1e1j60llnxdd4)" style="stroke:#000000;stroke-width:1.5;"/><path d="M1650,828.6758 C1650,838.6758 1668,838.6758 1668,838.6758 C1668,838.6758 1686,838.6758 1686,828.6758 " fill="none" style="stroke:#000000;stroke-width:1.5;"/><text fill="#000000" font-family="sans-serif" font-size="14" lengthAdjust="spacing" textLength="62" x="1733.5" y="85.5352">TarefaDB</text><path d="M1749.5,36 C1749.5,26 1767.5,26 1767.5,26 C1767.5,26 1785.5,26 1785.5,36 L1785.5,62 C1785.5,72 1767.5,72 1767.5,72 C1767.5,72 1749.5,72 1749.5,62 L1749.5,36 " fill="#FEFECE" filter="url(#f1e1j60llnxdd4)" style="stroke:#000000;stroke-width:1.5;"/><path d="M1749.5,36 C1749.5,46 1767.5,46 1767.5,46 C1767.5,46 1785.5,46 1785.5,36 " fill="none" style="stroke:#000000;stroke-width:1.5;"/><text fill="#000000" font-family="sans-serif" font-size="14" lengthAdjust="spacing" textLength="62" x="1733.5" y="815.7227">TarefaDB</text><path d="M1749.5,828.6758 C1749.5,818.6758 1767.5,818.6758 1767.5,818.6758 C1767.5,818.6758 1785.5,818.6758 1785.5,828.6758 L1785.5,854.6758 C1785.5,864.6758 1767.5,864.6758 1767.5,864.6758 C1767.5,864.6758 1749.5,864.6758 1749.5,854.6758 L1749.5,828.6758 " fill="#FEFECE" filter="url(#f1e1j60llnxdd4)" style="stroke:#000000;stroke-width:1.5;"/><path d="M1749.5,828.6758 C1749.5,838.6758 1767.5,838.6758 1767.5,838.6758 C1767.5,838.6758 1785.5,838.6758 1785.5,828.6758 " fill="none" style="stroke:#000000;stroke-width:1.5;"/><rect fill="#FFFFFF" filter="url(#f1e1j60llnxdd4)" height="686.6992" style="stroke:#A80036;stroke-width:1.0;" width="10" x="46.5" y="98.4883"/><rect fill="#FFFFFF" filter="url(#f1e1j60llnxdd4)" height="147.2422" style="stroke:#A80036;stroke-width:1.0;" width="10" x="376.5" y="119.7988"/><rect fill="#FFFFFF" filter="url(#f1e1j60llnxdd4)" height="312.2832" style="stroke:#A80036;stroke-width:1.0;" width="10" x="376.5" y="296.3516"/><rect fill="#FFFFFF" filter="url(#f1e1j60llnxdd4)" height="147.2422" style="stroke:#A80036;stroke-width:1.0;" width="10" x="376.5" y="637.9453"/><rect fill="#FFFFFF" filter="url(#f1e1j60llnxdd4)" height="206.8633" style="stroke:#A80036;stroke-width:1.0;" width="10" x="706.5" y="371.5938"/><rect fill="#FFFFFF" filter="url(#f1e1j60llnxdd4)" height="88.6211" style="stroke:#A80036;stroke-width:1.0;" width="10" x="706.5" y="667.2559"/><rect fill="#FFFFFF" filter="url(#f1e1j60llnxdd4)" height="59.3105" style="stroke:#A80036;stroke-width:1.0;" width="10" x="918.5" y="178.4199"/><rect fill="#FFFFFF" filter="url(#f1e1j60llnxdd4)" height="59.3105" style="stroke:#A80036;stroke-width:1.0;" width="10" x="1124.5" y="474.5254"/><rect fill="#FFFFFF" filter="url(#f1e1j60llnxdd4)" height="59.3105" style="stroke:#A80036;stroke-width:1.0;" width="10" x="1382" y="696.5664"/><rect fill="#FFFFFF" filter="url(#f1e1j60llnxdd4)" height="30" style="stroke:#A80036;stroke-width:1.0;" width="10" x="1530" y="207.7305"/><rect fill="#FFFFFF" filter="url(#f1e1j60llnxdd4)" height="30" style="stroke:#A80036;stroke-width:1.0;" width="10" x="1663" y="503.8359"/><rect fill="#FFFFFF" filter="url(#f1e1j60llnxdd4)" height="30" style="stroke:#A80036;stroke-width:1.0;" width="10" x="1762.5" y="725.877"/><polygon fill="#A80036" points="364.5,115.7988,374.5,119.7988,364.5,123.7988,368.5,119.7988" style="stroke:#A80036;stroke-width:1.0;"/><line style="stroke:#A80036;stroke-width:1.0;" x1="56.5" x2="370.5" y1="119.7988" y2="119.7988"/><text fill="#000000" font-family="sans-serif" font-size="13" font-weight="bold" lengthAdjust="spacing" textLength="9" x="63.5" y="115.0566">1</text><text fill="#000000" font-family="sans-serif" font-size="13" lengthAdjust="spacing" textLength="224" x="76.5" y="115.0566">Inicia a especificação de uma tarefa</text><polygon fill="#A80036" points="699.5,145.1094,709.5,149.1094,699.5,153.1094,703.5,149.1094" style="stroke:#A80036;stroke-width:1.0;"/><line style="stroke:#A80036;stroke-width:1.0;" x1="386.5" x2="705.5" y1="149.1094" y2="149.1094"/><text fill="#000000" font-family="sans-serif" font-size="13" font-weight="bold" lengthAdjust="spacing" textLength="9" x="393.5" y="144.3672">2</text><text fill="#000000" font-family="sans-serif" font-size="13" lengthAdjust="spacing" textLength="207" x="406.5" y="144.3672">listd = getListaCatTarefaIdDesc()</text><polygon fill="#A80036" points="906.5,174.4199,916.5,178.4199,906.5,182.4199,910.5,178.4199" style="stroke:#A80036;stroke-width:1.0;"/><line style="stroke:#A80036;stroke-width:1.0;" x1="711.5" x2="912.5" y1="178.4199" y2="178.4199"/><text fill="#000000" font-family="sans-serif" font-size="13" font-weight="bold" lengthAdjust="spacing" textLength="9" x="718.5" y="173.6777">3</text><text fill="#000000" font-family="sans-serif" font-size="13" lengthAdjust="spacing" textLength="105" x="731.5" y="173.6777">getAllCatTarefa()</text><polygon fill="#A80036" points="1518,203.7305,1528,207.7305,1518,211.7305,1522,207.7305" style="stroke:#A80036;stroke-width:1.0;"/><line style="stroke:#A80036;stroke-width:1.0;" x1="928.5" x2="1524" y1="207.7305" y2="207.7305"/><text fill="#000000" font-family="sans-serif" font-size="13" font-weight="bold" lengthAdjust="spacing" textLength="9" x="935.5" y="202.9883">4</text><text fill="#000000" font-family="sans-serif" font-size="13" lengthAdjust="spacing" textLength="45" x="948.5" y="202.9883">getAll()</text><polygon fill="#A80036" points="67.5,263.041,57.5,267.041,67.5,271.041,63.5,267.041" style="stroke:#A80036;stroke-width:1.0;"/><line style="stroke:#A80036;stroke-width:1.0;stroke-dasharray:2.0,2.0;" x1="61.5" x2="380.5" y1="267.041" y2="267.041"/><text fill="#000000" font-family="sans-serif" font-size="13" font-weight="bold" lengthAdjust="spacing" textLength="9" x="73.5" y="262.2988">5</text><text fill="#000000" font-family="sans-serif" font-size="13" lengthAdjust="spacing" textLength="107" x="86.5" y="262.2988">Solicita os dados</text><polygon fill="#A80036" points="364.5,292.3516,374.5,296.3516,364.5,300.3516,368.5,296.3516" style="stroke:#A80036;stroke-width:1.0;"/><line style="stroke:#A80036;stroke-width:1.0;" x1="56.5" x2="370.5" y1="296.3516" y2="296.3516"/><text fill="#000000" font-family="sans-serif" font-size="13" font-weight="bold" lengthAdjust="spacing" textLength="9" x="63.5" y="291.6094">6</text><text fill="#000000" font-family="sans-serif" font-size="13" lengthAdjust="spacing" textLength="114" x="76.5" y="291.6094">Introduz os dados</text><polygon fill="#A80036" points="694.5,367.5938,704.5,371.5938,694.5,375.5938,698.5,371.5938" style="stroke:#A80036;stroke-width:1.0;"/><line style="stroke:#A80036;stroke-width:1.0;" x1="386.5" x2="700.5" y1="371.5938" y2="371.5938"/><text fill="#000000" font-family="sans-serif" font-size="13" font-weight="bold" lengthAdjust="spacing" textLength="9" x="393.5" y="343.8857">7</text><text fill="#000000" font-family="sans-serif" font-size="13" lengthAdjust="spacing" textLength="255" x="406.5" y="320.9199">novaTarefa(String ref, String designacao,</text><text fill="#000000" font-family="sans-serif" font-size="13" lengthAdjust="spacing" textLength="263" x="406.5" y="336.2305">String descrInformal, String descrTecnica,</text><text fill="#000000" font-family="sans-serif" font-size="13" lengthAdjust="spacing" textLength="232" x="406.5" y="351.541">Integer duracaoEst, Double custoEst,</text><text fill="#000000" font-family="sans-serif" font-size="13" lengthAdjust="spacing" textLength="288" x="406.5" y="366.8516">CategoriaTarefa catTarefa, Colaborador colab)</text><path d="M603.5,386.5938 L667.5,386.5938 L667.5,393.5938 L657.5,403.5938 L603.5,403.5938 L603.5,386.5938 " fill="#EEEEEE" style="stroke:#000000;stroke-width:1.0;"/><rect fill="none" height="59.6211" style="stroke:#000000;stroke-width:2.0;" width="277" x="603.5" y="386.5938"/><text fill="#000000" font-family="sans-serif" font-size="13" font-weight="bold" lengthAdjust="spacing" textLength="19" x="618.5" y="400.1621">ref</text><line style="stroke:#A80036;stroke-width:1.0;" x1="716.5" x2="758.5" y1="425.2148" y2="425.2148"/><line style="stroke:#A80036;stroke-width:1.0;" x1="758.5" x2="758.5" y1="425.2148" y2="438.2148"/><line style="stroke:#A80036;stroke-width:1.0;" x1="717.5" x2="758.5" y1="438.2148" y2="438.2148"/><polygon fill="#A80036" points="727.5,434.2148,717.5,438.2148,727.5,442.2148,723.5,438.2148" style="stroke:#A80036;stroke-width:1.0;"/><text fill="#000000" font-family="sans-serif" font-size="13" font-weight="bold" lengthAdjust="spacing" textLength="9" x="723.5" y="420.4727">8</text><text fill="#000000" font-family="sans-serif" font-size="13" lengthAdjust="spacing" textLength="132" x="736.5" y="420.4727">email = getMyEmail()</text><polygon fill="#A80036" points="1112.5,470.5254,1122.5,474.5254,1112.5,478.5254,1116.5,474.5254" style="stroke:#A80036;stroke-width:1.0;"/><line style="stroke:#A80036;stroke-width:1.0;" x1="716.5" x2="1118.5" y1="474.5254" y2="474.5254"/><text fill="#000000" font-family="sans-serif" font-size="13" font-weight="bold" lengthAdjust="spacing" textLength="9" x="723.5" y="469.7832">9</text><text fill="#000000" font-family="sans-serif" font-size="13" lengthAdjust="spacing" textLength="239" x="736.5" y="469.7832">colab = getColaboradorByEmail(email)</text><polygon fill="#A80036" points="1651,499.8359,1661,503.8359,1651,507.8359,1655,503.8359" style="stroke:#A80036;stroke-width:1.0;"/><line style="stroke:#A80036;stroke-width:1.0;" x1="1134.5" x2="1657" y1="503.8359" y2="503.8359"/><text fill="#000000" font-family="sans-serif" font-size="13" font-weight="bold" lengthAdjust="spacing" textLength="18" x="1141.5" y="499.0938">10</text><text fill="#000000" font-family="sans-serif" font-size="13" lengthAdjust="spacing" textLength="33" x="1163.5" y="499.0938">find()</text><polygon fill="#A80036" points="1219.5,574.457,1229.5,578.457,1219.5,582.457,1223.5,578.457" style="stroke:#A80036;stroke-width:1.0;"/><line style="stroke:#A80036;stroke-width:1.0;stroke-dasharray:2.0,2.0;" x1="711.5" x2="1225.5" y1="578.457" y2="578.457"/><text fill="#000000" font-family="sans-serif" font-size="13" font-weight="bold" lengthAdjust="spacing" textLength="18" x="718.5" y="566.0596">11</text><text fill="#000000" font-family="sans-serif" font-size="13" lengthAdjust="spacing" textLength="327" x="740.5" y="558.4043">create(ref, designacao, descrInformal, descrTecnica,</text><text fill="#000000" font-family="sans-serif" font-size="13" lengthAdjust="spacing" textLength="243" x="744.5" y="573.7148">duracaoEst, custoEst, catTarefa, colab)</text><rect fill="#FEFECE" filter="url(#f1e1j60llnxdd4)" height="30.4883" style="stroke:#A80036;stroke-width:1.5;" width="71" x="1231.5" y="541.8359"/><text fill="#000000" font-family="sans-serif" font-size="14" lengthAdjust="spacing" textLength="57" x="1238.5" y="562.3711">t: Tarefa</text><polygon fill="#A80036" points="67.5,604.6348,57.5,608.6348,67.5,612.6348,63.5,608.6348" style="stroke:#A80036;stroke-width:1.0;"/><line style="stroke:#A80036;stroke-width:1.0;stroke-dasharray:2.0,2.0;" x1="61.5" x2="380.5" y1="608.6348" y2="608.6348"/><text fill="#000000" font-family="sans-serif" font-size="13" font-weight="bold" lengthAdjust="spacing" textLength="18" x="73.5" y="603.8926">12</text><text fill="#000000" font-family="sans-serif" font-size="13" lengthAdjust="spacing" textLength="274" x="95.5" y="603.8926">Apresenta os dados e solicicta confirmação</text><polygon fill="#A80036" points="364.5,633.9453,374.5,637.9453,364.5,641.9453,368.5,637.9453" style="stroke:#A80036;stroke-width:1.0;"/><line style="stroke:#A80036;stroke-width:1.0;" x1="56.5" x2="370.5" y1="637.9453" y2="637.9453"/><text fill="#000000" font-family="sans-serif" font-size="13" font-weight="bold" lengthAdjust="spacing" textLength="18" x="63.5" y="633.2031">13</text><text fill="#000000" font-family="sans-serif" font-size="13" lengthAdjust="spacing" textLength="58" x="85.5" y="633.2031">Confirma</text><polygon fill="#A80036" points="694.5,663.2559,704.5,667.2559,694.5,671.2559,698.5,667.2559" style="stroke:#A80036;stroke-width:1.0;"/><line style="stroke:#A80036;stroke-width:1.0;" x1="386.5" x2="700.5" y1="667.2559" y2="667.2559"/><text fill="#000000" font-family="sans-serif" font-size="13" font-weight="bold" lengthAdjust="spacing" textLength="18" x="393.5" y="662.5137">14</text><text fill="#000000" font-family="sans-serif" font-size="13" lengthAdjust="spacing" textLength="77" x="415.5" y="662.5137">novaTarefa()</text><polygon fill="#A80036" points="1370,692.5664,1380,696.5664,1370,700.5664,1374,696.5664" style="stroke:#A80036;stroke-width:1.0;"/><line style="stroke:#A80036;stroke-width:1.0;" x1="716.5" x2="1376" y1="696.5664" y2="696.5664"/><text fill="#000000" font-family="sans-serif" font-size="13" font-weight="bold" lengthAdjust="spacing" textLength="18" x="723.5" y="691.8242">15</text><text fill="#000000" font-family="sans-serif" font-size="13" lengthAdjust="spacing" textLength="139" x="745.5" y="691.8242">getRepositorioTarefa()</text><polygon fill="#A80036" points="1750.5,721.877,1760.5,725.877,1750.5,729.877,1754.5,725.877" style="stroke:#A80036;stroke-width:1.0;"/><line style="stroke:#A80036;stroke-width:1.0;" x1="1392" x2="1756.5" y1="725.877" y2="725.877"/><text fill="#000000" font-family="sans-serif" font-size="13" font-weight="bold" lengthAdjust="spacing" textLength="18" x="1399" y="721.1348">16</text><text fill="#000000" font-family="sans-serif" font-size="13" lengthAdjust="spacing" textLength="41" x="1421" y="721.1348">save(t)</text><polygon fill="#A80036" points="62.5,781.1875,52.5,785.1875,62.5,789.1875,58.5,785.1875" style="stroke:#A80036;stroke-width:1.0;"/><line style="stroke:#A80036;stroke-width:1.0;stroke-dasharray:2.0,2.0;" x1="56.5" x2="380.5" y1="785.1875" y2="785.1875"/><text fill="#000000" font-family="sans-serif" font-size="13" font-weight="bold" lengthAdjust="spacing" textLength="18" x="68.5" y="780.4453">17</text><text fill="#000000" font-family="sans-serif" font-size="13" lengthAdjust="spacing" textLength="201" x="90.5" y="780.4453">Informa operação bem sucedida</text><!--MD5=[aba374d81b2dc6adeecc16233122cd34]
@startuml
autonumber
actor "Colaborador" as Colab

participant ": AdicionarTarefaUI" as UI
participant ": RegistarTarefaController" as CTRL
participant "RepositorioCategoriaTarefa" as Cat
participant "RepositorioColaborador" as RC
participant "t: Tarefa" as TAREFA
participant "RepositorioTarefa" as RT
database CategoriaTarefaDB as ctDB
database ColaboradorDB as colabDB
database TarefaDB as tafDB

activate Colab
Colab -> UI : Inicia a especificação de uma tarefa

activate UI
UI -> CTRL : listd = getListaCatTarefaIdDesc()

CTRL -> Cat : getAllCatTarefa()
activate Cat
Cat -> ctDB : getAll()
activate ctDB
deactivate ctDB
deactivate Cat

deactivate CTRL

UI - -> Colab : Solicita os dados
deactivate UI

Colab -> UI : Introduz os dados
activate UI

UI -> CTRL : novaTarefa(String ref, String designacao, \nString descrInformal, String descrTecnica, \nInteger duracaoEst, Double custoEst, \nCategoriaTarefa catTarefa, Colaborador colab)
activate CTRL

group ref
        CTRL -> CTRL : email = getMyEmail()
end

CTRL -> RC : colab = getColaboradorByEmail(email)
activate RC
RC -> colabDB : find()
activate colabDB
deactivate colabDB
deactivate RC

CTRL - -> TAREFA** : create(ref, designacao, descrInformal, descrTecnica,\n duracaoEst, custoEst, catTarefa, colab)
deactivate CTRL

UI - -> Colab : Apresenta os dados e solicicta confirmação
deactivate UI
 
Colab -> UI : Confirma
activate UI

UI -> CTRL : novaTarefa()
activate CTRL

CTRL -> RT : getRepositorioTarefa()
activate RT

RT -> tafDB : save(t)
activate tafDB
deactivate tafDB
deactivate RT
deactivate CTRL

UI - -> Colab : Informa operação bem sucedida

deactivate UI
deactivate Colab

@enduml

PlantUML version 1.2021.00(Sun Jan 10 10:25:05 WET 2021)
(GPL source distribution)
Java Runtime: Java(TM) SE Runtime Environment
JVM: Java HotSpot(TM) 64-Bit Server VM
Default Encoding: UTF-8
Language: pt
Country: PT
--></g></svg>