<?xml version="1.0" encoding="UTF-8" standalone="no"?><svg xmlns="http://www.w3.org/2000/svg" xmlns:xlink="http://www.w3.org/1999/xlink" contentScriptType="application/ecmascript" contentStyleType="text/css" height="510px" preserveAspectRatio="none" style="width:505px;height:510px;" version="1.1" viewBox="0 0 505 510" width="505px" zoomAndPan="magnify"><defs><filter height="300%" id="fezh1fwhf8qh8" width="300%" x="-1" y="-1"><feGaussianBlur result="blurOut" stdDeviation="2.0"/><feColorMatrix in="blurOut" result="blurOut2" type="matrix" values="0 0 0 0 0 0 0 0 0 0 0 0 0 0 0 0 0 0 .4 0"/><feOffset dx="4.0" dy="4.0" in="blurOut2" result="blurOut3"/><feBlend in="SourceGraphic" in2="blurOut3" mode="normal"/></filter></defs><g><!--MD5=[02456e6632d968d6f68141e5893c6991]
class AreaAtividade--><rect codeLine="2" fill="#FEFECE" filter="url(#fezh1fwhf8qh8)" height="103.3438" id="AreaAtividade" style="stroke:#A80036;stroke-width:1.5;" width="287" x="7" y="393"/><ellipse cx="109.25" cy="409" fill="#ADD1B2" rx="11" ry="11" style="stroke:#A80036;stroke-width:1.0;"/><path d="M112.0156,404.875 Q112.1719,404.6563 112.3594,404.5469 Q112.5469,404.4375 112.7656,404.4375 Q113.1406,404.4375 113.375,404.7031 Q113.6094,404.9531 113.6094,405.5625 L113.6094,407.0156 Q113.6094,407.625 113.375,407.8906 Q113.1406,408.1563 112.7656,408.1563 Q112.4219,408.1563 112.2188,407.9531 Q112.0156,407.7656 111.9063,407.25 Q111.8594,406.8906 111.6719,406.7031 Q111.3438,406.3281 110.7344,406.1094 Q110.125,405.8906 109.5,405.8906 Q108.7344,405.8906 108.0938,406.2188 Q107.4688,406.5469 106.9688,407.2969 Q106.4844,408.0469 106.4844,409.0781 L106.4844,410.1719 Q106.4844,411.4063 107.375,412.2344 Q108.2656,413.0469 109.8594,413.0469 Q110.7969,413.0469 111.4531,412.7969 Q111.8438,412.6406 112.2656,412.2031 Q112.5313,411.9375 112.6719,411.8594 Q112.8281,411.7813 113.0313,411.7813 Q113.3594,411.7813 113.6094,412.0469 Q113.875,412.2969 113.875,412.6406 Q113.875,412.9844 113.5313,413.3906 Q113.0313,413.9688 112.2344,414.2969 Q111.1563,414.75 109.8594,414.75 Q108.3438,414.75 107.1406,414.125 Q106.1563,413.625 105.4688,412.5625 Q104.7813,411.4844 104.7813,410.2031 L104.7813,409.0469 Q104.7813,407.7188 105.3906,406.5781 Q106.0156,405.4219 107.1094,404.8125 Q108.2031,404.1875 109.4375,404.1875 Q110.1719,404.1875 110.8125,404.3594 Q111.4688,404.5156 112.0156,404.875 Z " fill="#000000"/><text fill="#000000" font-family="sans-serif" font-size="12" lengthAdjust="spacing" textLength="74" x="129.75" y="413.9102">AreaAtividade</text><line style="stroke:#A80036;stroke-width:1.5;" x1="8" x2="293" y1="425" y2="425"/><text fill="#000000" font-family="sans-serif" font-size="11" lengthAdjust="spacing" textLength="67" x="13" y="440.4189">-String codigo</text><text fill="#000000" font-family="sans-serif" font-size="11" lengthAdjust="spacing" textLength="88" x="13" y="454.2549">-String descBreve</text><text fill="#000000" font-family="sans-serif" font-size="11" lengthAdjust="spacing" textLength="107" x="13" y="468.0908">-String descDetalhada</text><line style="stroke:#A80036;stroke-width:1.5;" x1="8" x2="293" y1="474.5078" y2="474.5078"/><text fill="#000000" font-family="sans-serif" font-size="11" lengthAdjust="spacing" textLength="275" x="13" y="489.9268">+AreaAtividade(String cod, String dsBreve, String dsDet)</text><!--MD5=[ecaed46f78f8cfe1e9ce18477649be18]
class Plataforma--><rect codeLine="9" fill="#FEFECE" filter="url(#fezh1fwhf8qh8)" height="48" id="Plataforma" style="stroke:#A80036;stroke-width:1.5;" width="92" x="174.5" y="260"/><ellipse cx="189.5" cy="276" fill="#ADD1B2" rx="11" ry="11" style="stroke:#A80036;stroke-width:1.0;"/><path d="M192.2656,271.875 Q192.4219,271.6563 192.6094,271.5469 Q192.7969,271.4375 193.0156,271.4375 Q193.3906,271.4375 193.625,271.7031 Q193.8594,271.9531 193.8594,272.5625 L193.8594,274.0156 Q193.8594,274.625 193.625,274.8906 Q193.3906,275.1563 193.0156,275.1563 Q192.6719,275.1563 192.4688,274.9531 Q192.2656,274.7656 192.1563,274.25 Q192.1094,273.8906 191.9219,273.7031 Q191.5938,273.3281 190.9844,273.1094 Q190.375,272.8906 189.75,272.8906 Q188.9844,272.8906 188.3438,273.2188 Q187.7188,273.5469 187.2188,274.2969 Q186.7344,275.0469 186.7344,276.0781 L186.7344,277.1719 Q186.7344,278.4063 187.625,279.2344 Q188.5156,280.0469 190.1094,280.0469 Q191.0469,280.0469 191.7031,279.7969 Q192.0938,279.6406 192.5156,279.2031 Q192.7813,278.9375 192.9219,278.8594 Q193.0781,278.7813 193.2813,278.7813 Q193.6094,278.7813 193.8594,279.0469 Q194.125,279.2969 194.125,279.6406 Q194.125,279.9844 193.7813,280.3906 Q193.2813,280.9688 192.4844,281.2969 Q191.4063,281.75 190.1094,281.75 Q188.5938,281.75 187.3906,281.125 Q186.4063,280.625 185.7188,279.5625 Q185.0313,278.4844 185.0313,277.2031 L185.0313,276.0469 Q185.0313,274.7188 185.6406,273.5781 Q186.2656,272.4219 187.3594,271.8125 Q188.4531,271.1875 189.6875,271.1875 Q190.4219,271.1875 191.0625,271.3594 Q191.7188,271.5156 192.2656,271.875 Z " fill="#000000"/><text fill="#000000" font-family="sans-serif" font-size="12" lengthAdjust="spacing" textLength="60" x="203.5" y="280.9102">Plataforma</text><line style="stroke:#A80036;stroke-width:1.5;" x1="175.5" x2="265.5" y1="292" y2="292"/><line style="stroke:#A80036;stroke-width:1.5;" x1="175.5" x2="265.5" y1="300" y2="300"/><!--MD5=[9825cd6c9f4ff7191a7e2b6972ebf931]
class RegistarAreaAtividadeController--><rect codeLine="13" fill="#FEFECE" filter="url(#fezh1fwhf8qh8)" height="75.6719" id="RegistarAreaAtividadeController" style="stroke:#A80036;stroke-width:1.5;" width="396" x="22.5" y="116"/><ellipse cx="128.75" cy="132" fill="#ADD1B2" rx="11" ry="11" style="stroke:#A80036;stroke-width:1.0;"/><path d="M131.5156,127.875 Q131.6719,127.6563 131.8594,127.5469 Q132.0469,127.4375 132.2656,127.4375 Q132.6406,127.4375 132.875,127.7031 Q133.1094,127.9531 133.1094,128.5625 L133.1094,130.0156 Q133.1094,130.625 132.875,130.8906 Q132.6406,131.1563 132.2656,131.1563 Q131.9219,131.1563 131.7188,130.9531 Q131.5156,130.7656 131.4063,130.25 Q131.3594,129.8906 131.1719,129.7031 Q130.8438,129.3281 130.2344,129.1094 Q129.625,128.8906 129,128.8906 Q128.2344,128.8906 127.5938,129.2188 Q126.9688,129.5469 126.4688,130.2969 Q125.9844,131.0469 125.9844,132.0781 L125.9844,133.1719 Q125.9844,134.4063 126.875,135.2344 Q127.7656,136.0469 129.3594,136.0469 Q130.2969,136.0469 130.9531,135.7969 Q131.3438,135.6406 131.7656,135.2031 Q132.0313,134.9375 132.1719,134.8594 Q132.3281,134.7813 132.5313,134.7813 Q132.8594,134.7813 133.1094,135.0469 Q133.375,135.2969 133.375,135.6406 Q133.375,135.9844 133.0313,136.3906 Q132.5313,136.9688 131.7344,137.2969 Q130.6563,137.75 129.3594,137.75 Q127.8438,137.75 126.6406,137.125 Q125.6563,136.625 124.9688,135.5625 Q124.2813,134.4844 124.2813,133.2031 L124.2813,132.0469 Q124.2813,130.7188 124.8906,129.5781 Q125.5156,128.4219 126.6094,127.8125 Q127.7031,127.1875 128.9375,127.1875 Q129.6719,127.1875 130.3125,127.3594 Q130.9688,127.5156 131.5156,127.875 Z " fill="#000000"/><text fill="#000000" font-family="sans-serif" font-size="12" lengthAdjust="spacing" textLength="175" x="149.25" y="136.9102">RegistarAreaAtividadeController</text><line style="stroke:#A80036;stroke-width:1.5;" x1="23.5" x2="417.5" y1="148" y2="148"/><text fill="#000000" font-family="sans-serif" font-size="11" lengthAdjust="spacing" textLength="172" x="28.5" y="163.4189">+RepositorioAreaAtividadeDB aaDB</text><line style="stroke:#A80036;stroke-width:1.5;" x1="23.5" x2="417.5" y1="169.8359" y2="169.8359"/><text fill="#000000" font-family="sans-serif" font-size="11" lengthAdjust="spacing" textLength="384" x="28.5" y="185.2549">+AreaAtividade registarAreaAtividade(String cod, String dsBreve, String dsDet)</text><!--MD5=[b2bc6be73ff598d5a42947aebb885cd7]
class RepositorioAreaAtividadeDB--><rect codeLine="18" fill="#FEFECE" filter="url(#fezh1fwhf8qh8)" height="61.8359" id="RepositorioAreaAtividadeDB" style="stroke:#A80036;stroke-width:1.5;" width="189" x="302" y="253"/><ellipse cx="317.9" cy="269" fill="#ADD1B2" rx="11" ry="11" style="stroke:#A80036;stroke-width:1.0;"/><path d="M320.6656,264.875 Q320.8219,264.6563 321.0094,264.5469 Q321.1969,264.4375 321.4156,264.4375 Q321.7906,264.4375 322.025,264.7031 Q322.2594,264.9531 322.2594,265.5625 L322.2594,267.0156 Q322.2594,267.625 322.025,267.8906 Q321.7906,268.1563 321.4156,268.1563 Q321.0719,268.1563 320.8688,267.9531 Q320.6656,267.7656 320.5563,267.25 Q320.5094,266.8906 320.3219,266.7031 Q319.9938,266.3281 319.3844,266.1094 Q318.775,265.8906 318.15,265.8906 Q317.3844,265.8906 316.7438,266.2188 Q316.1188,266.5469 315.6188,267.2969 Q315.1344,268.0469 315.1344,269.0781 L315.1344,270.1719 Q315.1344,271.4063 316.025,272.2344 Q316.9156,273.0469 318.5094,273.0469 Q319.4469,273.0469 320.1031,272.7969 Q320.4938,272.6406 320.9156,272.2031 Q321.1813,271.9375 321.3219,271.8594 Q321.4781,271.7813 321.6813,271.7813 Q322.0094,271.7813 322.2594,272.0469 Q322.525,272.2969 322.525,272.6406 Q322.525,272.9844 322.1813,273.3906 Q321.6813,273.9688 320.8844,274.2969 Q319.8063,274.75 318.5094,274.75 Q316.9938,274.75 315.7906,274.125 Q314.8063,273.625 314.1188,272.5625 Q313.4313,271.4844 313.4313,270.2031 L313.4313,269.0469 Q313.4313,267.7188 314.0406,266.5781 Q314.6656,265.4219 315.7594,264.8125 Q316.8531,264.1875 318.0875,264.1875 Q318.8219,264.1875 319.4625,264.3594 Q320.1188,264.5156 320.6656,264.875 Z " fill="#000000"/><text fill="#000000" font-family="sans-serif" font-size="12" lengthAdjust="spacing" textLength="155" x="332.1" y="273.9102">RepositorioAreaAtividadeDB</text><line style="stroke:#A80036;stroke-width:1.5;" x1="303" x2="490" y1="285" y2="285"/><line style="stroke:#A80036;stroke-width:1.5;" x1="303" x2="490" y1="293" y2="293"/><text fill="#000000" font-family="sans-serif" font-size="11" lengthAdjust="spacing" textLength="177" x="308" y="308.4189">+save(AreaAtividade areaAtividade)</text><!--MD5=[21ecdf36e5aa750178e0ef5c457ce0c7]
class RegistarAreaAtividadeUI--><rect codeLine="22" fill="#FEFECE" filter="url(#fezh1fwhf8qh8)" height="48" id="RegistarAreaAtividadeUI" style="stroke:#A80036;stroke-width:1.5;" width="165" x="138" y="7"/><ellipse cx="153" cy="23" fill="#ADD1B2" rx="11" ry="11" style="stroke:#A80036;stroke-width:1.0;"/><path d="M155.7656,18.875 Q155.9219,18.6563 156.1094,18.5469 Q156.2969,18.4375 156.5156,18.4375 Q156.8906,18.4375 157.125,18.7031 Q157.3594,18.9531 157.3594,19.5625 L157.3594,21.0156 Q157.3594,21.625 157.125,21.8906 Q156.8906,22.1563 156.5156,22.1563 Q156.1719,22.1563 155.9688,21.9531 Q155.7656,21.7656 155.6563,21.25 Q155.6094,20.8906 155.4219,20.7031 Q155.0938,20.3281 154.4844,20.1094 Q153.875,19.8906 153.25,19.8906 Q152.4844,19.8906 151.8438,20.2188 Q151.2188,20.5469 150.7188,21.2969 Q150.2344,22.0469 150.2344,23.0781 L150.2344,24.1719 Q150.2344,25.4063 151.125,26.2344 Q152.0156,27.0469 153.6094,27.0469 Q154.5469,27.0469 155.2031,26.7969 Q155.5938,26.6406 156.0156,26.2031 Q156.2813,25.9375 156.4219,25.8594 Q156.5781,25.7813 156.7813,25.7813 Q157.1094,25.7813 157.3594,26.0469 Q157.625,26.2969 157.625,26.6406 Q157.625,26.9844 157.2813,27.3906 Q156.7813,27.9688 155.9844,28.2969 Q154.9063,28.75 153.6094,28.75 Q152.0938,28.75 150.8906,28.125 Q149.9063,27.625 149.2188,26.5625 Q148.5313,25.4844 148.5313,24.2031 L148.5313,23.0469 Q148.5313,21.7188 149.1406,20.5781 Q149.7656,19.4219 150.8594,18.8125 Q151.9531,18.1875 153.1875,18.1875 Q153.9219,18.1875 154.5625,18.3594 Q155.2188,18.5156 155.7656,18.875 Z " fill="#000000"/><text fill="#000000" font-family="sans-serif" font-size="12" lengthAdjust="spacing" textLength="133" x="167" y="27.9102">RegistarAreaAtividadeUI</text><line style="stroke:#A80036;stroke-width:1.5;" x1="139" x2="302" y1="39" y2="39"/><line style="stroke:#A80036;stroke-width:1.5;" x1="139" x2="302" y1="47" y2="47"/><!--MD5=[a7e8654fe97c352b6057b6ce7bab3399]
link RegistarAreaAtividadeUI to RegistarAreaAtividadeController--><path codeLine="26" d="M220.5,55.04 C220.5,70.71 220.5,91.91 220.5,110.58 " fill="none" id="RegistarAreaAtividadeUI-to-RegistarAreaAtividadeController" style="stroke:#A80036;stroke-width:1.0;stroke-dasharray:7.0,7.0;"/><polygon fill="#A80036" points="220.5,115.77,224.5,106.77,220.5,110.77,216.5,106.77,220.5,115.77" style="stroke:#A80036;stroke-width:1.0;"/><!--MD5=[d2177e629c2aa05d1c8bba42663194d2]
link RegistarAreaAtividadeController to Plataforma--><path codeLine="27" d="M220.5,192.02 C220.5,212 220.5,236.27 220.5,254.72 " fill="none" id="RegistarAreaAtividadeController-to-Plataforma" style="stroke:#A80036;stroke-width:1.0;stroke-dasharray:7.0,7.0;"/><polygon fill="#A80036" points="220.5,259.76,224.5,250.76,220.5,254.76,216.5,250.76,220.5,259.76" style="stroke:#A80036;stroke-width:1.0;"/><!--MD5=[02a2749f94bfa7348471ec5aa7b51b8e]
link RegistarAreaAtividadeController to AreaAtividade--><path codeLine="28" d="M189.36,192.07 C176.67,209.44 163.4,231.1 156.5,253 C142.71,296.8 142.11,349.09 144.45,387.8 " fill="none" id="RegistarAreaAtividadeController-to-AreaAtividade" style="stroke:#A80036;stroke-width:1.0;stroke-dasharray:7.0,7.0;"/><polygon fill="#A80036" points="144.78,392.93,148.1795,383.6864,144.4512,387.9408,140.1968,384.2125,144.78,392.93" style="stroke:#A80036;stroke-width:1.0;"/><!--MD5=[a3dac8c968d9a4c2e0c1c308eaeaaa3a]
link RegistarAreaAtividadeController to RepositorioAreaAtividadeDB--><path codeLine="29" d="M271.41,192.02 C296.55,210.31 326.64,232.19 351.01,249.91 " fill="none" id="RegistarAreaAtividadeController-to-RepositorioAreaAtividadeDB" style="stroke:#A80036;stroke-width:1.0;stroke-dasharray:7.0,7.0;"/><polygon fill="#A80036" points="355.18,252.95,350.2576,244.4194,351.1376,250.0074,345.5496,250.8874,355.18,252.95" style="stroke:#A80036;stroke-width:1.0;"/><!--MD5=[718b46c9a1975c175f4073d63ce5ccba]
link Plataforma to AreaAtividade--><path codeLine="31" d="M210.32,308.05 C201.07,328.99 187.06,360.71 174.92,388.2 " fill="none" id="Plataforma-to-AreaAtividade" style="stroke:#A80036;stroke-width:1.0;"/><polygon fill="#A80036" points="172.84,392.92,180.1467,386.316,174.868,388.3498,172.8343,383.0711,172.84,392.92" style="stroke:#A80036;stroke-width:1.0;"/><text fill="#000000" font-family="sans-serif" font-size="13" lengthAdjust="spacing" textLength="38" x="195.5" y="359.4951">possui</text><text fill="#000000" font-family="sans-serif" font-size="13" lengthAdjust="spacing" textLength="7" x="199.9855" y="329.4002">1</text><text fill="#000000" font-family="sans-serif" font-size="13" lengthAdjust="spacing" textLength="5" x="170.63" y="382.0372">*</text><!--MD5=[5bc541bc99982d6f3214cd2d9f7cb011]
@startuml
skinparam classAttributeIconSize 0
class AreaAtividade {
  -String codigo
  -String descBreve
  -String descDetalhada
  +AreaAtividade(String cod, String dsBreve, String dsDet)
}

class Plataforma {
}


class RegistarAreaAtividadeController {
  +AreaAtividade registarAreaAtividade(String cod, String dsBreve, String dsDet)
  +RepositorioAreaAtividadeDB aaDB
}

class RepositorioAreaAtividadeDB {
  +save(AreaAtividade areaAtividade)
}

class RegistarAreaAtividadeUI {
  
}

RegistarAreaAtividadeUI ..> RegistarAreaAtividadeController
RegistarAreaAtividadeController ..> Plataforma
RegistarAreaAtividadeController ..> AreaAtividade
RegistarAreaAtividadeController ..> RepositorioAreaAtividadeDB

Plataforma "1" - -> "*" AreaAtividade : possui


@enduml

PlantUML version 1.2021.00(Sun Jan 10 10:25:05 WET 2021)
(GPL source distribution)
Java Runtime: Java(TM) SE Runtime Environment
JVM: Java HotSpot(TM) 64-Bit Server VM
Default Encoding: Cp1252
Language: pt
Country: PT
--></g></svg>