<?xml version="1.0" encoding="UTF-8" standalone="no"?><svg xmlns="http://www.w3.org/2000/svg" xmlns:xlink="http://www.w3.org/1999/xlink" contentScriptType="application/ecmascript" contentStyleType="text/css" height="995px" preserveAspectRatio="none" style="width:804px;height:995px;" version="1.1" viewBox="0 0 804 995" width="804px" zoomAndPan="magnify"><defs><filter height="300%" id="fxdy7x3pbujkz" width="300%" x="-1" y="-1"><feGaussianBlur result="blurOut" stdDeviation="2.0"/><feColorMatrix in="blurOut" result="blurOut2" type="matrix" values="0 0 0 0 0 0 0 0 0 0 0 0 0 0 0 0 0 0 .4 0"/><feOffset dx="4.0" dy="4.0" in="blurOut2" result="blurOut3"/><feBlend in="SourceGraphic" in2="blurOut3" mode="normal"/></filter></defs><g><!--MD5=[e81b4000412e1d0f5374ec53de4e5671]
class AdicionarAnuncioUI--><rect codeLine="3" fill="#FEFECE" filter="url(#fxdy7x3pbujkz)" height="48" id="AdicionarAnuncioUI" style="stroke:#A80036;stroke-width:1.5;" width="142" x="255" y="7"/><ellipse cx="270" cy="23" fill="#ADD1B2" rx="11" ry="11" style="stroke:#A80036;stroke-width:1.0;"/><path d="M272.4731,29.1431 Q271.8921,29.4419 271.2529,29.5913 Q270.6138,29.7407 269.9082,29.7407 Q267.4014,29.7407 266.0815,28.0889 Q264.7617,26.437 264.7617,23.3159 Q264.7617,20.1865 266.0815,18.5347 Q267.4014,16.8828 269.9082,16.8828 Q270.6138,16.8828 271.2612,17.0322 Q271.9087,17.1816 272.4731,17.4805 L272.4731,20.2031 Q271.8423,19.6221 271.2488,19.3523 Q270.6553,19.0825 270.0244,19.0825 Q268.6797,19.0825 267.9949,20.1492 Q267.3101,21.2158 267.3101,23.3159 Q267.3101,25.4077 267.9949,26.4744 Q268.6797,27.541 270.0244,27.541 Q270.6553,27.541 271.2488,27.2712 Q271.8423,27.0015 272.4731,26.4204 Z " fill="#000000"/><text fill="#000000" font-family="sans-serif" font-size="12" lengthAdjust="spacing" textLength="110" x="284" y="27.5352">AdicionarAnuncioUI</text><line style="stroke:#A80036;stroke-width:1.5;" x1="256" x2="396" y1="39" y2="39"/><line style="stroke:#A80036;stroke-width:1.5;" x1="256" x2="396" y1="47" y2="47"/><!--MD5=[79fd64af1cc27def8140efeb6e160a03]
class RegistarAnuncioController--><rect codeLine="7" fill="#FEFECE" filter="url(#fxdy7x3pbujkz)" height="99.8203" id="RegistarAnuncioController" style="stroke:#A80036;stroke-width:1.5;" width="638" x="7" y="116"/><ellipse cx="247.75" cy="132" fill="#ADD1B2" rx="11" ry="11" style="stroke:#A80036;stroke-width:1.0;"/><path d="M250.2231,138.1431 Q249.6421,138.4419 249.0029,138.5913 Q248.3638,138.7407 247.6582,138.7407 Q245.1514,138.7407 243.8315,137.0889 Q242.5117,135.437 242.5117,132.3159 Q242.5117,129.1865 243.8315,127.5347 Q245.1514,125.8828 247.6582,125.8828 Q248.3638,125.8828 249.0112,126.0322 Q249.6587,126.1816 250.2231,126.4805 L250.2231,129.2031 Q249.5923,128.6221 248.9988,128.3523 Q248.4053,128.0825 247.7744,128.0825 Q246.4297,128.0825 245.7449,129.1492 Q245.0601,130.2158 245.0601,132.3159 Q245.0601,134.4077 245.7449,135.4744 Q246.4297,136.541 247.7744,136.541 Q248.4053,136.541 248.9988,136.2712 Q249.5923,136.0015 250.2231,135.4204 Z " fill="#000000"/><text fill="#000000" font-family="sans-serif" font-size="12" lengthAdjust="spacing" textLength="148" x="268.25" y="136.5352">RegistarAnuncioController</text><line style="stroke:#A80036;stroke-width:1.5;" x1="8" x2="644" y1="148" y2="148"/><line style="stroke:#A80036;stroke-width:1.5;" x1="8" x2="644" y1="156" y2="156"/><text fill="#000000" font-family="sans-serif" font-size="11" lengthAdjust="spacing" textLength="263" x="13" y="170.6348">+List&lt;String&gt; getAllTipoRegimentoDesignacao()</text><text fill="#000000" font-family="sans-serif" font-size="11" lengthAdjust="spacing" textLength="176" x="13" y="183.5898">+Colaborador getColabByEmail()</text><text fill="#000000" font-family="sans-serif" font-size="11" lengthAdjust="spacing" textLength="626" x="13" y="196.5449">+RegistaAnuncio(Date dtInicioPublicitacao, Date dtFimPublicitacao, Date dtInicioCandidatura, Date dtFimCandidatura,</text><text fill="#000000" font-family="sans-serif" font-size="11" lengthAdjust="spacing" textLength="549" x="13" y="209.5">Date dtInicioSeriacao, Date dtFimSeriacao, Tarefa tarefa, Colaborador colab, TipoRegimento regimento)</text><!--MD5=[8ea2da8a469c2c2cd5037214ca447c7b]
class RepositorioTarefa--><rect codeLine="14" fill="#FEFECE" filter="url(#fxdy7x3pbujkz)" height="60.9551" id="RepositorioTarefa" style="stroke:#A80036;stroke-width:1.5;" width="308" x="482" y="420"/><ellipse cx="580.25" cy="436" fill="#ADD1B2" rx="11" ry="11" style="stroke:#A80036;stroke-width:1.0;"/><path d="M582.7231,442.1431 Q582.1421,442.4419 581.5029,442.5913 Q580.8638,442.7407 580.1582,442.7407 Q577.6514,442.7407 576.3315,441.0889 Q575.0117,439.437 575.0117,436.3159 Q575.0117,433.1865 576.3315,431.5347 Q577.6514,429.8828 580.1582,429.8828 Q580.8638,429.8828 581.5112,430.0322 Q582.1587,430.1816 582.7231,430.4805 L582.7231,433.2031 Q582.0923,432.6221 581.4988,432.3523 Q580.9053,432.0825 580.2744,432.0825 Q578.9297,432.0825 578.2449,433.1492 Q577.5601,434.2158 577.5601,436.3159 Q577.5601,438.4077 578.2449,439.4744 Q578.9297,440.541 580.2744,440.541 Q580.9053,440.541 581.4988,440.2712 Q582.0923,440.0015 582.7231,439.4204 Z " fill="#000000"/><text fill="#000000" font-family="sans-serif" font-size="12" lengthAdjust="spacing" textLength="103" x="600.75" y="440.5352">RepositorioTarefa</text><line style="stroke:#A80036;stroke-width:1.5;" x1="483" x2="789" y1="452" y2="452"/><line style="stroke:#A80036;stroke-width:1.5;" x1="483" x2="789" y1="460" y2="460"/><text fill="#000000" font-family="sans-serif" font-size="11" lengthAdjust="spacing" textLength="296" x="488" y="474.6348">+List&lt;Tarefa&gt; getListaTarefasByOrg(Organizacao org)</text><!--MD5=[27c2d4bbe9f7b9d3b0ea2797cc54308a]
class Tarefa--><rect codeLine="18" fill="#FEFECE" filter="url(#fxdy7x3pbujkz)" height="177.5508" id="Tarefa" style="stroke:#A80036;stroke-width:1.5;" width="461" x="262.5" y="804"/><ellipse cx="469.75" cy="820" fill="#ADD1B2" rx="11" ry="11" style="stroke:#A80036;stroke-width:1.0;"/><path d="M472.2231,826.1431 Q471.6421,826.4419 471.0029,826.5913 Q470.3638,826.7407 469.6582,826.7407 Q467.1514,826.7407 465.8315,825.0889 Q464.5117,823.437 464.5117,820.3159 Q464.5117,817.1865 465.8315,815.5347 Q467.1514,813.8828 469.6582,813.8828 Q470.3638,813.8828 471.0112,814.0322 Q471.6587,814.1816 472.2231,814.4805 L472.2231,817.2031 Q471.5923,816.6221 470.9988,816.3523 Q470.4053,816.0825 469.7744,816.0825 Q468.4297,816.0825 467.7449,817.1492 Q467.0601,818.2158 467.0601,820.3159 Q467.0601,822.4077 467.7449,823.4744 Q468.4297,824.541 469.7744,824.541 Q470.4053,824.541 470.9988,824.2712 Q471.5923,824.0015 472.2231,823.4204 Z " fill="#000000"/><text fill="#000000" font-family="sans-serif" font-size="12" lengthAdjust="spacing" textLength="38" x="490.25" y="824.5352">Tarefa</text><line style="stroke:#A80036;stroke-width:1.5;" x1="263.5" x2="722.5" y1="836" y2="836"/><text fill="#000000" font-family="sans-serif" font-size="11" lengthAdjust="spacing" textLength="56" x="268.5" y="850.6348">-String ref</text><text fill="#000000" font-family="sans-serif" font-size="11" lengthAdjust="spacing" textLength="102" x="268.5" y="863.5898">-String designacao</text><text fill="#000000" font-family="sans-serif" font-size="11" lengthAdjust="spacing" textLength="116" x="268.5" y="876.5449">-String descrInformal</text><text fill="#000000" font-family="sans-serif" font-size="11" lengthAdjust="spacing" textLength="112" x="268.5" y="889.5">-String descrTecnica</text><text fill="#000000" font-family="sans-serif" font-size="11" lengthAdjust="spacing" textLength="107" x="268.5" y="902.4551">-Integer duracaoEst</text><text fill="#000000" font-family="sans-serif" font-size="11" lengthAdjust="spacing" textLength="93" x="268.5" y="915.4102">-Double custoEst</text><text fill="#000000" font-family="sans-serif" font-size="11" lengthAdjust="spacing" textLength="145" x="268.5" y="928.3652">-CategoriaTarefa catTarefa</text><text fill="#000000" font-family="sans-serif" font-size="11" lengthAdjust="spacing" textLength="106" x="268.5" y="941.3203">-Colaborador colab</text><line style="stroke:#A80036;stroke-width:1.5;" x1="263.5" x2="722.5" y1="947.6406" y2="947.6406"/><text fill="#000000" font-family="sans-serif" font-size="11" lengthAdjust="spacing" textLength="430" x="268.5" y="962.2754">+Tarefa(String ref, String designacao, String descrInformal, String descrTecnica,</text><text fill="#000000" font-family="sans-serif" font-size="11" lengthAdjust="spacing" textLength="449" x="268.5" y="975.2305">Integer duracaoEst, Double custoEst, CategoriaTarefa catTarefa, Colaborador colab)</text><!--MD5=[12d426d412030883d8c8de1cb7c01f60]
class RepositorioTipoRegimento--><rect codeLine="32" fill="#FEFECE" filter="url(#fxdy7x3pbujkz)" height="60.9551" id="RepositorioTipoRegimento" style="stroke:#A80036;stroke-width:1.5;" width="184" x="13" y="420"/><ellipse cx="28" cy="436" fill="#ADD1B2" rx="11" ry="11" style="stroke:#A80036;stroke-width:1.0;"/><path d="M30.4731,442.1431 Q29.8921,442.4419 29.2529,442.5913 Q28.6138,442.7407 27.9082,442.7407 Q25.4014,442.7407 24.0815,441.0889 Q22.7617,439.437 22.7617,436.3159 Q22.7617,433.1865 24.0815,431.5347 Q25.4014,429.8828 27.9082,429.8828 Q28.6138,429.8828 29.2612,430.0322 Q29.9087,430.1816 30.4731,430.4805 L30.4731,433.2031 Q29.8423,432.6221 29.2488,432.3523 Q28.6553,432.0825 28.0244,432.0825 Q26.6797,432.0825 25.9949,433.1492 Q25.3101,434.2158 25.3101,436.3159 Q25.3101,438.4077 25.9949,439.4744 Q26.6797,440.541 28.0244,440.541 Q28.6553,440.541 29.2488,440.2712 Q29.8423,440.0015 30.4731,439.4204 Z " fill="#000000"/><text fill="#000000" font-family="sans-serif" font-size="12" lengthAdjust="spacing" textLength="152" x="42" y="440.5352">RepositorioTipoRegimento</text><line style="stroke:#A80036;stroke-width:1.5;" x1="14" x2="196" y1="452" y2="452"/><line style="stroke:#A80036;stroke-width:1.5;" x1="14" x2="196" y1="460" y2="460"/><text fill="#000000" font-family="sans-serif" font-size="11" lengthAdjust="spacing" textLength="169" x="19" y="474.6348">+List&lt;TipoRegimento&gt; getAll()</text><!--MD5=[d0e9f237fb3c72e1245c36c562ad52c4]
class TipoRegimento--><rect codeLine="36" fill="#FEFECE" filter="url(#fxdy7x3pbujkz)" height="86.8652" id="TipoRegimento" style="stroke:#A80036;stroke-width:1.5;" width="145" x="75.5" y="849.5"/><ellipse cx="102.2" cy="865.5" fill="#ADD1B2" rx="11" ry="11" style="stroke:#A80036;stroke-width:1.0;"/><path d="M104.6731,871.6431 Q104.0921,871.9419 103.4529,872.0913 Q102.8138,872.2407 102.1082,872.2407 Q99.6014,872.2407 98.2815,870.5889 Q96.9617,868.937 96.9617,865.8159 Q96.9617,862.6865 98.2815,861.0347 Q99.6014,859.3828 102.1082,859.3828 Q102.8138,859.3828 103.4612,859.5322 Q104.1087,859.6816 104.6731,859.9805 L104.6731,862.7031 Q104.0423,862.1221 103.4488,861.8523 Q102.8553,861.5825 102.2244,861.5825 Q100.8797,861.5825 100.1949,862.6492 Q99.5101,863.7158 99.5101,865.8159 Q99.5101,867.9077 100.1949,868.9744 Q100.8797,870.041 102.2244,870.041 Q102.8553,870.041 103.4488,869.7712 Q104.0423,869.5015 104.6731,868.9204 Z " fill="#000000"/><text fill="#000000" font-family="sans-serif" font-size="12" lengthAdjust="spacing" textLength="87" x="118.8" y="870.0352">TipoRegimento</text><line style="stroke:#A80036;stroke-width:1.5;" x1="76.5" x2="219.5" y1="881.5" y2="881.5"/><text fill="#000000" font-family="sans-serif" font-size="11" lengthAdjust="spacing" textLength="105" x="81.5" y="896.1348">-String designacao;</text><text fill="#000000" font-family="sans-serif" font-size="11" lengthAdjust="spacing" textLength="133" x="81.5" y="909.0898">-String descricaoRegras;</text><text fill="#000000" font-family="sans-serif" font-size="11" lengthAdjust="spacing" textLength="36" x="81.5" y="922.0449">-int id;</text><line style="stroke:#A80036;stroke-width:1.5;" x1="76.5" x2="219.5" y1="928.3652" y2="928.3652"/><!--MD5=[bf8b0a9d1d476271dd80eab455b179fd]
class RepositorioAnuncio--><rect codeLine="42" fill="#FEFECE" filter="url(#fxdy7x3pbujkz)" height="112.7754" id="RepositorioAnuncio" style="stroke:#A80036;stroke-width:1.5;" width="305" x="280.5" y="277"/><ellipse cx="373.75" cy="293" fill="#ADD1B2" rx="11" ry="11" style="stroke:#A80036;stroke-width:1.0;"/><path d="M376.2231,299.1431 Q375.6421,299.4419 375.0029,299.5913 Q374.3638,299.7407 373.6582,299.7407 Q371.1514,299.7407 369.8315,298.0889 Q368.5117,296.437 368.5117,293.3159 Q368.5117,290.1865 369.8315,288.5347 Q371.1514,286.8828 373.6582,286.8828 Q374.3638,286.8828 375.0112,287.0322 Q375.6587,287.1816 376.2231,287.4805 L376.2231,290.2031 Q375.5923,289.6221 374.9988,289.3523 Q374.4053,289.0825 373.7744,289.0825 Q372.4297,289.0825 371.7449,290.1492 Q371.0601,291.2158 371.0601,293.3159 Q371.0601,295.4077 371.7449,296.4744 Q372.4297,297.541 373.7744,297.541 Q374.4053,297.541 374.9988,297.2712 Q375.5923,297.0015 376.2231,296.4204 Z " fill="#000000"/><text fill="#000000" font-family="sans-serif" font-size="12" lengthAdjust="spacing" textLength="110" x="394.25" y="297.5352">RepositorioAnuncio</text><line style="stroke:#A80036;stroke-width:1.5;" x1="281.5" x2="584.5" y1="309" y2="309"/><line style="stroke:#A80036;stroke-width:1.5;" x1="281.5" x2="584.5" y1="317" y2="317"/><text fill="#000000" font-family="sans-serif" font-size="11" lengthAdjust="spacing" textLength="132" x="286.5" y="331.6348">+save(Anuncio anuncio)</text><text fill="#000000" font-family="sans-serif" font-size="11" lengthAdjust="spacing" textLength="175" x="286.5" y="344.5898">+Anuncio find(String referencia)</text><text fill="#000000" font-family="sans-serif" font-size="11" lengthAdjust="spacing" textLength="133" x="286.5" y="357.5449">+List&lt;Anuncio&gt; getAll()</text><text fill="#000000" font-family="sans-serif" font-size="11" lengthAdjust="spacing" textLength="293" x="286.5" y="370.5">+List&lt;Anuncio&gt; getAnunciosByOrg(Organizacao org)</text><text fill="#000000" font-family="sans-serif" font-size="11" lengthAdjust="spacing" textLength="232" x="286.5" y="383.4551">+List&lt;Anuncio&gt; getAnunciosDisponiveis()</text><!--MD5=[19db0db7353a4bf63eefc676e5ba9b80]
class Anuncio--><rect codeLine="51" fill="#FEFECE" filter="url(#fxdy7x3pbujkz)" height="216.416" id="Anuncio" style="stroke:#A80036;stroke-width:1.5;" width="337" x="219.5" y="511"/><ellipse cx="361.25" cy="527" fill="#ADD1B2" rx="11" ry="11" style="stroke:#A80036;stroke-width:1.0;"/><path d="M363.7231,533.1431 Q363.1421,533.4419 362.5029,533.5913 Q361.8638,533.7407 361.1582,533.7407 Q358.6514,533.7407 357.3315,532.0889 Q356.0117,530.437 356.0117,527.3159 Q356.0117,524.1865 357.3315,522.5347 Q358.6514,520.8828 361.1582,520.8828 Q361.8638,520.8828 362.5112,521.0322 Q363.1587,521.1816 363.7231,521.4805 L363.7231,524.2031 Q363.0923,523.6221 362.4988,523.3523 Q361.9053,523.0825 361.2744,523.0825 Q359.9297,523.0825 359.2449,524.1492 Q358.5601,525.2158 358.5601,527.3159 Q358.5601,529.4077 359.2449,530.4744 Q359.9297,531.541 361.2744,531.541 Q361.9053,531.541 362.4988,531.2712 Q363.0923,531.0015 363.7231,530.4204 Z " fill="#000000"/><text fill="#000000" font-family="sans-serif" font-size="12" lengthAdjust="spacing" textLength="45" x="381.75" y="531.5352">Anuncio</text><line style="stroke:#A80036;stroke-width:1.5;" x1="220.5" x2="555.5" y1="543" y2="543"/><text fill="#000000" font-family="sans-serif" font-size="11" lengthAdjust="spacing" textLength="137" x="225.5" y="557.6348">-Date dtInicioPublicitacao</text><text fill="#000000" font-family="sans-serif" font-size="11" lengthAdjust="spacing" textLength="127" x="225.5" y="570.5898">-Date dtFimPublicitacao</text><text fill="#000000" font-family="sans-serif" font-size="11" lengthAdjust="spacing" textLength="139" x="225.5" y="583.5449">-Date dtInicioCandidatura</text><text fill="#000000" font-family="sans-serif" font-size="11" lengthAdjust="spacing" textLength="129" x="225.5" y="596.5">-Date dtFimCandidatura</text><text fill="#000000" font-family="sans-serif" font-size="11" lengthAdjust="spacing" textLength="118" x="225.5" y="609.4551">-Date dtInicioSeriacao</text><text fill="#000000" font-family="sans-serif" font-size="11" lengthAdjust="spacing" textLength="108" x="225.5" y="622.4102">-Date dtFimSeriacao</text><text fill="#000000" font-family="sans-serif" font-size="11" lengthAdjust="spacing" textLength="74" x="225.5" y="635.3652">-Tarefa tarefa</text><text fill="#000000" font-family="sans-serif" font-size="11" lengthAdjust="spacing" textLength="143" x="225.5" y="648.3203">-Colaborador colaborador</text><text fill="#000000" font-family="sans-serif" font-size="11" lengthAdjust="spacing" textLength="145" x="225.5" y="661.2754">-TipoRegimento regimento</text><line style="stroke:#A80036;stroke-width:1.5;" x1="220.5" x2="555.5" y1="667.5957" y2="667.5957"/><text fill="#000000" font-family="sans-serif" font-size="11" lengthAdjust="spacing" textLength="322" x="225.5" y="682.2305">+Anuncio( Date dtInicioPublicitacao, Date dtFimPublicitacao,</text><text fill="#000000" font-family="sans-serif" font-size="11" lengthAdjust="spacing" textLength="265" x="225.5" y="695.1855">Date dtInicioCandidatura, Date dtFimCandidatura,</text><text fill="#000000" font-family="sans-serif" font-size="11" lengthAdjust="spacing" textLength="297" x="225.5" y="708.1406">Date dtInicioSeriacao, Date dtFimSeriacao, Tarefa tarefa,</text><text fill="#000000" font-family="sans-serif" font-size="11" lengthAdjust="spacing" textLength="286" x="225.5" y="721.0957">Colaborador colaborador, TipoRegimento regimento)</text><!--MD5=[63dc4e7532b518c243785594b1ea2468]
link AdicionarAnuncioUI to RegistarAnuncioController--><path codeLine="66" d="M326,55.17 C326,70.47 326,91.2 326,110.53 " fill="none" id="AdicionarAnuncioUI-to-RegistarAnuncioController" style="stroke:#A80036;stroke-width:1.0;stroke-dasharray:7.0,7.0;"/><polygon fill="#A80036" points="326,115.94,330,106.94,326,110.94,322,106.94,326,115.94" style="stroke:#A80036;stroke-width:1.0;"/><!--MD5=[68ede4c9c7559d23ceb216d08e566c14]
link RegistarAnuncioController to RepositorioTipoRegimento--><path codeLine="67" d="M229.86,216.12 C216.96,225.04 204.56,235.03 194,246 C147.51,294.27 123.12,370.8 112.26,414.96 " fill="none" id="RegistarAnuncioController-to-RepositorioTipoRegimento" style="stroke:#A80036;stroke-width:1.0;stroke-dasharray:7.0,7.0;"/><polygon fill="#A80036" points="111.06,419.92,117.0586,412.1087,112.2323,415.0594,109.2816,410.233,111.06,419.92" style="stroke:#A80036;stroke-width:1.0;"/><!--MD5=[ee3f7cf9e34d27b903d9380eae487b2d]
link RegistarAnuncioController to RepositorioTarefa--><path codeLine="68" d="M522.7,216.04 C553.16,231.23 581.57,251.08 603,277 C635.04,315.75 639.5,376.14 638.61,414.23 " fill="none" id="RegistarAnuncioController-to-RepositorioTarefa" style="stroke:#A80036;stroke-width:1.0;stroke-dasharray:7.0,7.0;"/><polygon fill="#A80036" points="638.44,419.68,642.7207,410.8101,638.5971,414.6825,634.7247,410.5588,638.44,419.68" style="stroke:#A80036;stroke-width:1.0;"/><!--MD5=[cacaa2c03a6caf740e8792a7e500f47f]
link RegistarAnuncioController to RepositorioAnuncio--><path codeLine="69" d="M357.81,216.21 C369.17,233.78 382.1,253.77 393.99,272.17 " fill="none" id="RegistarAnuncioController-to-RepositorioAnuncio" style="stroke:#A80036;stroke-width:1.0;stroke-dasharray:7.0,7.0;"/><polygon fill="#A80036" points="396.99,276.81,395.4645,267.08,394.2761,272.6106,388.7455,271.4222,396.99,276.81" style="stroke:#A80036;stroke-width:1.0;"/><!--MD5=[09c44961f1e24740a0be12105123bbb0]
link RegistarAnuncioController to Anuncio--><path codeLine="70" d="M274.95,216.23 C260.09,233.84 245.77,254.85 238,277 C221.38,324.39 223.59,341.89 238,390 C250.28,431 272.57,471.45 296.27,506.64 " fill="none" id="RegistarAnuncioController-to-Anuncio" style="stroke:#A80036;stroke-width:1.0;"/><polygon fill="#A80036" points="299.17,510.9,297.4444,501.2035,296.3702,506.7574,290.8163,505.6832,299.17,510.9" style="stroke:#A80036;stroke-width:1.0;"/><text fill="#000000" font-family="sans-serif" font-size="13" lengthAdjust="spacing" textLength="23" x="239" y="338.5684">cria</text><text fill="#000000" font-family="sans-serif" font-size="13" lengthAdjust="spacing" textLength="8" x="259.8967" y="236.2264">1</text><text fill="#000000" font-family="sans-serif" font-size="13" lengthAdjust="spacing" textLength="6" x="286.7132" y="500.3365">*</text><!--MD5=[e3f7be7c79f64450663a037112897b5f]
link RepositorioTipoRegimento to TipoRegimento--><path codeLine="71" d="M107.89,481.09 C115.19,555.87 134.43,752.98 143.34,844.31 " fill="none" id="RepositorioTipoRegimento-to-TipoRegimento" style="stroke:#A80036;stroke-width:1.0;"/><polygon fill="#A80036" points="143.84,849.37,146.9459,840.0237,143.3538,844.3937,138.9838,840.8016,143.84,849.37" style="stroke:#A80036;stroke-width:1.0;"/><text fill="#000000" font-family="sans-serif" font-size="13" lengthAdjust="spacing" textLength="42" x="133" y="624.0684">possui</text><text fill="#000000" font-family="sans-serif" font-size="13" lengthAdjust="spacing" textLength="8" x="99.6611" y="501.5511">1</text><text fill="#000000" font-family="sans-serif" font-size="13" lengthAdjust="spacing" textLength="6" x="136.6989" y="838.825">*</text><!--MD5=[69cf00b93cf90bd659fe01c3a950afa8]
link RepositorioTarefa to Tarefa--><path codeLine="72" d="M631.69,481.09 C623.71,532.24 604.64,640.07 574,727 C565.55,750.98 554.51,776.02 543.31,799.14 " fill="none" id="RepositorioTarefa-to-Tarefa" style="stroke:#A80036;stroke-width:1.0;"/><polygon fill="#A80036" points="541.07,803.73,548.6164,797.4014,543.2661,799.2381,541.4294,793.8877,541.07,803.73" style="stroke:#A80036;stroke-width:1.0;"/><text fill="#000000" font-family="sans-serif" font-size="13" lengthAdjust="spacing" textLength="42" x="627" y="624.0684">possui</text><text fill="#000000" font-family="sans-serif" font-size="13" lengthAdjust="spacing" textLength="8" x="621.9761" y="501.5511">1</text><text fill="#000000" font-family="sans-serif" font-size="13" lengthAdjust="spacing" textLength="6" x="538.8024" y="793.3161">*</text><!--MD5=[67e25c401021408938a42e21641ef77f]
link RepositorioAnuncio to Anuncio--><path codeLine="73" d="M424.16,390.17 C418.95,423.04 412.15,465.85 405.86,505.48 " fill="none" id="RepositorioAnuncio-to-Anuncio" style="stroke:#A80036;stroke-width:1.0;"/><polygon fill="#A80036" points="405.02,510.8,410.3833,502.5396,405.8049,505.862,402.4825,501.2836,405.02,510.8" style="stroke:#A80036;stroke-width:1.0;"/><text fill="#000000" font-family="sans-serif" font-size="13" lengthAdjust="spacing" textLength="42" x="420" y="455.5684">possui</text><text fill="#000000" font-family="sans-serif" font-size="13" lengthAdjust="spacing" textLength="8" x="414.6754" y="410.189">1</text><text fill="#000000" font-family="sans-serif" font-size="13" lengthAdjust="spacing" textLength="6" x="400.0058" y="500.2295">*</text><!--MD5=[439a6ad1de0b5aa57a973cae1bf36ce5]
link Anuncio to Tarefa--><path codeLine="74" d="M441.78,727.32 C446.13,737.26 450.28,747.26 454,757 C459.13,770.41 463.96,784.79 468.36,798.98 " fill="none" id="Anuncio-to-Tarefa" style="stroke:#A80036;stroke-width:1.0;"/><polygon fill="#A80036" points="469.83,803.79,471.0084,794.0119,468.3606,799.0108,463.3617,796.363,469.83,803.79" style="stroke:#A80036;stroke-width:1.0;"/><text fill="#000000" font-family="sans-serif" font-size="13" lengthAdjust="spacing" textLength="55" x="461" y="770.5684">publicita</text><text fill="#000000" font-family="sans-serif" font-size="13" lengthAdjust="spacing" textLength="24" x="420.7177" y="748.0282">0..1</text><text fill="#000000" font-family="sans-serif" font-size="13" lengthAdjust="spacing" textLength="8" x="459.58" y="793.381">1</text><!--MD5=[4eb4fec7757cdb084f5153b8189a0ca2]
reverse link Anuncio to Tarefa--><path codeLine="75" d="M371.89,732.45 C373.01,746.75 375.79,760.94 381,774 C385.13,784.36 390.66,794.34 397.05,803.79 " fill="none" id="Anuncio-backto-Tarefa" style="stroke:#A80036;stroke-width:1.0;"/><polygon fill="#A80036" points="371.55,727.18,368.1488,736.4229,371.8779,732.1692,376.1315,735.8983,371.55,727.18" style="stroke:#A80036;stroke-width:1.0;"/><text fill="#000000" font-family="sans-serif" font-size="13" lengthAdjust="spacing" textLength="63" x="382" y="770.5684">dá origem</text><text fill="#000000" font-family="sans-serif" font-size="13" lengthAdjust="spacing" textLength="24" x="345.5496" y="747.8784">0..1</text><text fill="#000000" font-family="sans-serif" font-size="13" lengthAdjust="spacing" textLength="8" x="380.7729" y="793.381">1</text><!--MD5=[3fb03004f687adcfc695220fdd65ad26]
link Anuncio to TipoRegimento--><path codeLine="76" d="M293.49,727.11 C257.31,768.11 217.9,812.78 189.23,845.28 " fill="none" id="Anuncio-to-TipoRegimento" style="stroke:#A80036;stroke-width:1.0;"/><polygon fill="#A80036" points="185.79,849.18,194.7434,845.0768,189.0976,845.4304,188.7441,839.7846,185.79,849.18" style="stroke:#A80036;stroke-width:1.0;"/><text fill="#000000" font-family="sans-serif" font-size="13" lengthAdjust="spacing" textLength="74" x="262" y="770.5684">rege-se por</text><text fill="#000000" font-family="sans-serif" font-size="13" lengthAdjust="spacing" textLength="6" x="280.3291" y="748.1646">*</text><text fill="#000000" font-family="sans-serif" font-size="13" lengthAdjust="spacing" textLength="8" x="183.1753" y="838.6047">1</text><!--MD5=[d80ca2a4f0201242ac614cdd7b353f81]
@startuml
skinparam classAttributeIconSize 0

class AdicionarAnuncioUI {

}

class RegistarAnuncioController {
  +List<String> getAllTipoRegimentoDesignacao()
  +Colaborador getColabByEmail()
  +RegistaAnuncio(Date dtInicioPublicitacao, Date dtFimPublicitacao, Date dtInicioCandidatura, Date dtFimCandidatura,
        Date dtInicioSeriacao, Date dtFimSeriacao, Tarefa tarefa, Colaborador colab, TipoRegimento regimento)
}

class RepositorioTarefa {  
  +List<Tarefa> getListaTarefasByOrg(Organizacao org)
}

class Tarefa {
  -String ref
  -String designacao
  -String descrInformal
  -String descrTecnica
  -Integer duracaoEst
  -Double custoEst
  -CategoriaTarefa catTarefa
  -Colaborador colab
  +Tarefa(String ref, String designacao, String descrInformal, String descrTecnica,
            Integer duracaoEst, Double custoEst, CategoriaTarefa catTarefa, Colaborador colab)
  
}

class RepositorioTipoRegimento {
  +List<TipoRegimento> getAll()
}

class TipoRegimento {
  -String designacao;
  -String descricaoRegras;
  -int id;
}

class RepositorioAnuncio {
  +save(Anuncio anuncio)
  +Anuncio find(String referencia)
  +List<Anuncio> getAll()
  +List<Anuncio> getAnunciosByOrg(Organizacao org)
  +List<Anuncio> getAnunciosDisponiveis()

}

class Anuncio {
  -Date dtInicioPublicitacao
  -Date dtFimPublicitacao
  -Date dtInicioCandidatura
  -Date dtFimCandidatura
  -Date dtInicioSeriacao
  -Date dtFimSeriacao
  -Tarefa tarefa
  -Colaborador colaborador
  -TipoRegimento regimento
  +Anuncio( Date dtInicioPublicitacao, Date dtFimPublicitacao, \nDate dtInicioCandidatura, Date dtFimCandidatura,
            Date dtInicioSeriacao, Date dtFimSeriacao, Tarefa tarefa, \nColaborador colaborador, TipoRegimento regimento)
  }


AdicionarAnuncioUI ..> RegistarAnuncioController
RegistarAnuncioController ..> RepositorioTipoRegimento
RegistarAnuncioController ..> RepositorioTarefa
RegistarAnuncioController ..> RepositorioAnuncio
RegistarAnuncioController "1" - -> "*" Anuncio : cria
RepositorioTipoRegimento "1" - -> "*" TipoRegimento : possui
RepositorioTarefa "1" - -> "*" Tarefa: possui
RepositorioAnuncio "1" - -> "*" Anuncio : possui
Anuncio "0..1" - -> "1" Tarefa: publicita
Anuncio "0..1" <- - "1" Tarefa: dá origem
Anuncio "*" - -> "1" TipoRegimento: rege-se por

@enduml

PlantUML version 1.2021.00(Sun Jan 10 10:25:05 WET 2021)
(GPL source distribution)
Java Runtime: Java(TM) SE Runtime Environment
JVM: Java HotSpot(TM) 64-Bit Server VM
Default Encoding: UTF-8
Language: pt
Country: PT
--></g></svg>