<?xml version="1.0" encoding="UTF-8" standalone="no"?><svg xmlns="http://www.w3.org/2000/svg" xmlns:xlink="http://www.w3.org/1999/xlink" contentScriptType="application/ecmascript" contentStyleType="text/css" height="475px" preserveAspectRatio="none" style="width:1537px;height:475px;" version="1.1" viewBox="0 0 1537 475" width="1537px" zoomAndPan="magnify"><defs><filter height="300%" id="f1e78duz15x3db" width="300%" x="-1" y="-1"><feGaussianBlur result="blurOut" stdDeviation="2.0"/><feColorMatrix in="blurOut" result="blurOut2" type="matrix" values="0 0 0 0 0 0 0 0 0 0 0 0 0 0 0 0 0 0 .4 0"/><feOffset dx="4.0" dy="4.0" in="blurOut2" result="blurOut3"/><feBlend in="SourceGraphic" in2="blurOut3" mode="normal"/></filter></defs><g><!--MD5=[fee16bdfb2a376ebcfb0635a13ebe140]
class AlterarCandidaturaUI--><rect codeLine="4" fill="#FEFECE" filter="url(#f1e78duz15x3db)" height="48" id="AlterarCandidaturaUI" style="stroke:#A80036;stroke-width:1.5;" width="147" x="7" y="185"/><ellipse cx="22" cy="201" fill="#ADD1B2" rx="11" ry="11" style="stroke:#A80036;stroke-width:1.0;"/><path d="M24.7656,196.875 Q24.9219,196.6563 25.1094,196.5469 Q25.2969,196.4375 25.5156,196.4375 Q25.8906,196.4375 26.125,196.7031 Q26.3594,196.9531 26.3594,197.5625 L26.3594,199.0156 Q26.3594,199.625 26.125,199.8906 Q25.8906,200.1563 25.5156,200.1563 Q25.1719,200.1563 24.9688,199.9531 Q24.7656,199.7656 24.6563,199.25 Q24.6094,198.8906 24.4219,198.7031 Q24.0938,198.3281 23.4844,198.1094 Q22.875,197.8906 22.25,197.8906 Q21.4844,197.8906 20.8438,198.2188 Q20.2188,198.5469 19.7188,199.2969 Q19.2344,200.0469 19.2344,201.0781 L19.2344,202.1719 Q19.2344,203.4063 20.125,204.2344 Q21.0156,205.0469 22.6094,205.0469 Q23.5469,205.0469 24.2031,204.7969 Q24.5938,204.6406 25.0156,204.2031 Q25.2813,203.9375 25.4219,203.8594 Q25.5781,203.7813 25.7813,203.7813 Q26.1094,203.7813 26.3594,204.0469 Q26.625,204.2969 26.625,204.6406 Q26.625,204.9844 26.2813,205.3906 Q25.7813,205.9688 24.9844,206.2969 Q23.9063,206.75 22.6094,206.75 Q21.0938,206.75 19.8906,206.125 Q18.9063,205.625 18.2188,204.5625 Q17.5313,203.4844 17.5313,202.2031 L17.5313,201.0469 Q17.5313,199.7188 18.1406,198.5781 Q18.7656,197.4219 19.8594,196.8125 Q20.9531,196.1875 22.1875,196.1875 Q22.9219,196.1875 23.5625,196.3594 Q24.2188,196.5156 24.7656,196.875 Z " fill="#000000"/><text fill="#000000" font-family="sans-serif" font-size="12" lengthAdjust="spacing" textLength="115" x="36" y="205.9102">AlterarCandidaturaUI</text><line style="stroke:#A80036;stroke-width:1.5;" x1="8" x2="153" y1="217" y2="217"/><line style="stroke:#A80036;stroke-width:1.5;" x1="8" x2="153" y1="225" y2="225"/><!--MD5=[a752d25bbf81d6aa83d02ada29d87957]
class RegistarCandidaturaController--><rect codeLine="7" fill="#FEFECE" filter="url(#f1e78duz15x3db)" height="117.1797" id="RegistarCandidaturaController" style="stroke:#A80036;stroke-width:1.5;" width="302" x="215" y="150.5"/><ellipse cx="277.25" cy="166.5" fill="#ADD1B2" rx="11" ry="11" style="stroke:#A80036;stroke-width:1.0;"/><path d="M280.0156,162.375 Q280.1719,162.1563 280.3594,162.0469 Q280.5469,161.9375 280.7656,161.9375 Q281.1406,161.9375 281.375,162.2031 Q281.6094,162.4531 281.6094,163.0625 L281.6094,164.5156 Q281.6094,165.125 281.375,165.3906 Q281.1406,165.6563 280.7656,165.6563 Q280.4219,165.6563 280.2188,165.4531 Q280.0156,165.2656 279.9063,164.75 Q279.8594,164.3906 279.6719,164.2031 Q279.3438,163.8281 278.7344,163.6094 Q278.125,163.3906 277.5,163.3906 Q276.7344,163.3906 276.0938,163.7188 Q275.4688,164.0469 274.9688,164.7969 Q274.4844,165.5469 274.4844,166.5781 L274.4844,167.6719 Q274.4844,168.9063 275.375,169.7344 Q276.2656,170.5469 277.8594,170.5469 Q278.7969,170.5469 279.4531,170.2969 Q279.8438,170.1406 280.2656,169.7031 Q280.5313,169.4375 280.6719,169.3594 Q280.8281,169.2813 281.0313,169.2813 Q281.3594,169.2813 281.6094,169.5469 Q281.875,169.7969 281.875,170.1406 Q281.875,170.4844 281.5313,170.8906 Q281.0313,171.4688 280.2344,171.7969 Q279.1563,172.25 277.8594,172.25 Q276.3438,172.25 275.1406,171.625 Q274.1563,171.125 273.4688,170.0625 Q272.7813,168.9844 272.7813,167.7031 L272.7813,166.5469 Q272.7813,165.2188 273.3906,164.0781 Q274.0156,162.9219 275.1094,162.3125 Q276.2031,161.6875 277.4375,161.6875 Q278.1719,161.6875 278.8125,161.8594 Q279.4688,162.0156 280.0156,162.375 Z " fill="#000000"/><text fill="#000000" font-family="sans-serif" font-size="12" lengthAdjust="spacing" textLength="169" x="297.75" y="171.4102">RegistarCandidaturaController</text><line style="stroke:#A80036;stroke-width:1.5;" x1="216" x2="516" y1="182.5" y2="182.5"/><line style="stroke:#A80036;stroke-width:1.5;" x1="216" x2="516" y1="190.5" y2="190.5"/><text fill="#000000" font-family="sans-serif" font-size="11" lengthAdjust="spacing" textLength="173" x="221" y="205.9189">+Freelancer getFreelancerByEmail()</text><text fill="#000000" font-family="sans-serif" font-size="11" lengthAdjust="spacing" textLength="264" x="221" y="219.7549">+Candidatura getCandidaturasDispByFreelancerEmail()</text><text fill="#000000" font-family="sans-serif" font-size="11" lengthAdjust="spacing" textLength="136" x="221" y="233.5908">+Candidatura getCandById()</text><text fill="#000000" font-family="sans-serif" font-size="11" lengthAdjust="spacing" textLength="253" x="221" y="247.4268">+void removerCandidatura(Candidatura candidatura)</text><text fill="#000000" font-family="sans-serif" font-size="11" lengthAdjust="spacing" textLength="290" x="221" y="261.2627">+List&lt;Candidatura&gt; getAllCandDispByFreelancerEmail(email)</text><!--MD5=[ecaed46f78f8cfe1e9ce18477649be18]
class Plataforma--><rect codeLine="15" fill="#FEFECE" filter="url(#f1e78duz15x3db)" height="61.8359" id="Plataforma" style="stroke:#A80036;stroke-width:1.5;" width="92" x="653.5" y="178"/><ellipse cx="668.5" cy="194" fill="#ADD1B2" rx="11" ry="11" style="stroke:#A80036;stroke-width:1.0;"/><path d="M671.2656,189.875 Q671.4219,189.6563 671.6094,189.5469 Q671.7969,189.4375 672.0156,189.4375 Q672.3906,189.4375 672.625,189.7031 Q672.8594,189.9531 672.8594,190.5625 L672.8594,192.0156 Q672.8594,192.625 672.625,192.8906 Q672.3906,193.1563 672.0156,193.1563 Q671.6719,193.1563 671.4688,192.9531 Q671.2656,192.7656 671.1563,192.25 Q671.1094,191.8906 670.9219,191.7031 Q670.5938,191.3281 669.9844,191.1094 Q669.375,190.8906 668.75,190.8906 Q667.9844,190.8906 667.3438,191.2188 Q666.7188,191.5469 666.2188,192.2969 Q665.7344,193.0469 665.7344,194.0781 L665.7344,195.1719 Q665.7344,196.4063 666.625,197.2344 Q667.5156,198.0469 669.1094,198.0469 Q670.0469,198.0469 670.7031,197.7969 Q671.0938,197.6406 671.5156,197.2031 Q671.7813,196.9375 671.9219,196.8594 Q672.0781,196.7813 672.2813,196.7813 Q672.6094,196.7813 672.8594,197.0469 Q673.125,197.2969 673.125,197.6406 Q673.125,197.9844 672.7813,198.3906 Q672.2813,198.9688 671.4844,199.2969 Q670.4063,199.75 669.1094,199.75 Q667.5938,199.75 666.3906,199.125 Q665.4063,198.625 664.7188,197.5625 Q664.0313,196.4844 664.0313,195.2031 L664.0313,194.0469 Q664.0313,192.7188 664.6406,191.5781 Q665.2656,190.4219 666.3594,189.8125 Q667.4531,189.1875 668.6875,189.1875 Q669.4219,189.1875 670.0625,189.3594 Q670.7188,189.5156 671.2656,189.875 Z " fill="#000000"/><text fill="#000000" font-family="sans-serif" font-size="12" lengthAdjust="spacing" textLength="60" x="682.5" y="198.9102">Plataforma</text><line style="stroke:#A80036;stroke-width:1.5;" x1="654.5" x2="744.5" y1="210" y2="210"/><line style="stroke:#A80036;stroke-width:1.5;" x1="654.5" x2="744.5" y1="218" y2="218"/><text fill="#000000" font-family="sans-serif" font-size="11" lengthAdjust="spacing" textLength="74" x="659.5" y="233.4189">+getUsersAPI()</text><!--MD5=[1f687b5315377fe49fca59b457947463]
class Freelancer--><rect codeLine="19" fill="#FEFECE" filter="url(#f1e78duz15x3db)" height="103.3438" id="Freelancer" style="stroke:#A80036;stroke-width:1.5;" width="91" x="1432" y="73.5"/><ellipse cx="1447" cy="89.5" fill="#ADD1B2" rx="11" ry="11" style="stroke:#A80036;stroke-width:1.0;"/><path d="M1449.7656,85.375 Q1449.9219,85.1563 1450.1094,85.0469 Q1450.2969,84.9375 1450.5156,84.9375 Q1450.8906,84.9375 1451.125,85.2031 Q1451.3594,85.4531 1451.3594,86.0625 L1451.3594,87.5156 Q1451.3594,88.125 1451.125,88.3906 Q1450.8906,88.6563 1450.5156,88.6563 Q1450.1719,88.6563 1449.9688,88.4531 Q1449.7656,88.2656 1449.6563,87.75 Q1449.6094,87.3906 1449.4219,87.2031 Q1449.0938,86.8281 1448.4844,86.6094 Q1447.875,86.3906 1447.25,86.3906 Q1446.4844,86.3906 1445.8438,86.7188 Q1445.2188,87.0469 1444.7188,87.7969 Q1444.2344,88.5469 1444.2344,89.5781 L1444.2344,90.6719 Q1444.2344,91.9063 1445.125,92.7344 Q1446.0156,93.5469 1447.6094,93.5469 Q1448.5469,93.5469 1449.2031,93.2969 Q1449.5938,93.1406 1450.0156,92.7031 Q1450.2813,92.4375 1450.4219,92.3594 Q1450.5781,92.2813 1450.7813,92.2813 Q1451.1094,92.2813 1451.3594,92.5469 Q1451.625,92.7969 1451.625,93.1406 Q1451.625,93.4844 1451.2813,93.8906 Q1450.7813,94.4688 1449.9844,94.7969 Q1448.9063,95.25 1447.6094,95.25 Q1446.0938,95.25 1444.8906,94.625 Q1443.9063,94.125 1443.2188,93.0625 Q1442.5313,91.9844 1442.5313,90.7031 L1442.5313,89.5469 Q1442.5313,88.2188 1443.1406,87.0781 Q1443.7656,85.9219 1444.8594,85.3125 Q1445.9531,84.6875 1447.1875,84.6875 Q1447.9219,84.6875 1448.5625,84.8594 Q1449.2188,85.0156 1449.7656,85.375 Z " fill="#000000"/><text fill="#000000" font-family="sans-serif" font-size="12" lengthAdjust="spacing" textLength="59" x="1461" y="94.4102">Freelancer</text><line style="stroke:#A80036;stroke-width:1.5;" x1="1433" x2="1522" y1="105.5" y2="105.5"/><text fill="#000000" font-family="sans-serif" font-size="11" lengthAdjust="spacing" textLength="61" x="1438" y="120.9189">-String nome</text><text fill="#000000" font-family="sans-serif" font-size="11" lengthAdjust="spacing" textLength="50" x="1438" y="134.7549">-String NIF</text><text fill="#000000" font-family="sans-serif" font-size="11" lengthAdjust="spacing" textLength="74" x="1438" y="148.5908">-String telefone</text><text fill="#000000" font-family="sans-serif" font-size="11" lengthAdjust="spacing" textLength="59" x="1438" y="162.4268">-String email</text><line style="stroke:#A80036;stroke-width:1.5;" x1="1433" x2="1522" y1="168.8438" y2="168.8438"/><!--MD5=[19db0db7353a4bf63eefc676e5ba9b80]
class Anuncio--><rect codeLine="26" fill="#FEFECE" filter="url(#f1e78duz15x3db)" height="131.0156" id="Anuncio" style="stroke:#A80036;stroke-width:1.5;" width="132" x="922" y="59.5"/><ellipse cx="962.2" cy="75.5" fill="#ADD1B2" rx="11" ry="11" style="stroke:#A80036;stroke-width:1.0;"/><path d="M964.9656,71.375 Q965.1219,71.1563 965.3094,71.0469 Q965.4969,70.9375 965.7156,70.9375 Q966.0906,70.9375 966.325,71.2031 Q966.5594,71.4531 966.5594,72.0625 L966.5594,73.5156 Q966.5594,74.125 966.325,74.3906 Q966.0906,74.6563 965.7156,74.6563 Q965.3719,74.6563 965.1688,74.4531 Q964.9656,74.2656 964.8563,73.75 Q964.8094,73.3906 964.6219,73.2031 Q964.2938,72.8281 963.6844,72.6094 Q963.075,72.3906 962.45,72.3906 Q961.6844,72.3906 961.0438,72.7188 Q960.4188,73.0469 959.9188,73.7969 Q959.4344,74.5469 959.4344,75.5781 L959.4344,76.6719 Q959.4344,77.9063 960.325,78.7344 Q961.2156,79.5469 962.8094,79.5469 Q963.7469,79.5469 964.4031,79.2969 Q964.7938,79.1406 965.2156,78.7031 Q965.4813,78.4375 965.6219,78.3594 Q965.7781,78.2813 965.9813,78.2813 Q966.3094,78.2813 966.5594,78.5469 Q966.825,78.7969 966.825,79.1406 Q966.825,79.4844 966.4813,79.8906 Q965.9813,80.4688 965.1844,80.7969 Q964.1063,81.25 962.8094,81.25 Q961.2938,81.25 960.0906,80.625 Q959.1063,80.125 958.4188,79.0625 Q957.7313,77.9844 957.7313,76.7031 L957.7313,75.5469 Q957.7313,74.2188 958.3406,73.0781 Q958.9656,71.9219 960.0594,71.3125 Q961.1531,70.6875 962.3875,70.6875 Q963.1219,70.6875 963.7625,70.8594 Q964.4188,71.0156 964.9656,71.375 Z " fill="#000000"/><text fill="#000000" font-family="sans-serif" font-size="12" lengthAdjust="spacing" textLength="44" x="981.8" y="80.4102">Anuncio</text><line style="stroke:#A80036;stroke-width:1.5;" x1="923" x2="1053" y1="91.5" y2="91.5"/><text fill="#000000" font-family="sans-serif" font-size="11" lengthAdjust="spacing" textLength="119" x="928" y="106.9189">-Date dtInicioPublicitacao</text><text fill="#000000" font-family="sans-serif" font-size="11" lengthAdjust="spacing" textLength="111" x="928" y="120.7549">-Date dtFimPublicitacao</text><text fill="#000000" font-family="sans-serif" font-size="11" lengthAdjust="spacing" textLength="120" x="928" y="134.5908">-Date dtInicioCandidatura</text><text fill="#000000" font-family="sans-serif" font-size="11" lengthAdjust="spacing" textLength="112" x="928" y="148.4268">-Date dtFimCandidatura</text><text fill="#000000" font-family="sans-serif" font-size="11" lengthAdjust="spacing" textLength="105" x="928" y="162.2627">-Date dtInicioSeriacao</text><text fill="#000000" font-family="sans-serif" font-size="11" lengthAdjust="spacing" textLength="97" x="928" y="176.0986">-Date dtFimSeriacao</text><line style="stroke:#A80036;stroke-width:1.5;" x1="923" x2="1053" y1="182.5156" y2="182.5156"/><!--MD5=[475c5b924ed41035684e2831311827d2]
class Candidatura--><rect codeLine="35" fill="#FEFECE" filter="url(#f1e78duz15x3db)" height="117.1797" id="Candidatura" style="stroke:#A80036;stroke-width:1.5;" width="128" x="1155" y="66.5"/><ellipse cx="1182.6" cy="82.5" fill="#ADD1B2" rx="11" ry="11" style="stroke:#A80036;stroke-width:1.0;"/><path d="M1185.3656,78.375 Q1185.5219,78.1563 1185.7094,78.0469 Q1185.8969,77.9375 1186.1156,77.9375 Q1186.4906,77.9375 1186.725,78.2031 Q1186.9594,78.4531 1186.9594,79.0625 L1186.9594,80.5156 Q1186.9594,81.125 1186.725,81.3906 Q1186.4906,81.6563 1186.1156,81.6563 Q1185.7719,81.6563 1185.5688,81.4531 Q1185.3656,81.2656 1185.2563,80.75 Q1185.2094,80.3906 1185.0219,80.2031 Q1184.6938,79.8281 1184.0844,79.6094 Q1183.475,79.3906 1182.85,79.3906 Q1182.0844,79.3906 1181.4438,79.7188 Q1180.8188,80.0469 1180.3188,80.7969 Q1179.8344,81.5469 1179.8344,82.5781 L1179.8344,83.6719 Q1179.8344,84.9063 1180.725,85.7344 Q1181.6156,86.5469 1183.2094,86.5469 Q1184.1469,86.5469 1184.8031,86.2969 Q1185.1938,86.1406 1185.6156,85.7031 Q1185.8813,85.4375 1186.0219,85.3594 Q1186.1781,85.2813 1186.3813,85.2813 Q1186.7094,85.2813 1186.9594,85.5469 Q1187.225,85.7969 1187.225,86.1406 Q1187.225,86.4844 1186.8813,86.8906 Q1186.3813,87.4688 1185.5844,87.7969 Q1184.5063,88.25 1183.2094,88.25 Q1181.6938,88.25 1180.4906,87.625 Q1179.5063,87.125 1178.8188,86.0625 Q1178.1313,84.9844 1178.1313,83.7031 L1178.1313,82.5469 Q1178.1313,81.2188 1178.7406,80.0781 Q1179.3656,78.9219 1180.4594,78.3125 Q1181.5531,77.6875 1182.7875,77.6875 Q1183.5219,77.6875 1184.1625,77.8594 Q1184.8188,78.0156 1185.3656,78.375 Z " fill="#000000"/><text fill="#000000" font-family="sans-serif" font-size="12" lengthAdjust="spacing" textLength="68" x="1199.4" y="87.4102">Candidatura</text><line style="stroke:#A80036;stroke-width:1.5;" x1="1156" x2="1282" y1="98.5" y2="98.5"/><text fill="#000000" font-family="sans-serif" font-size="11" lengthAdjust="spacing" textLength="108" x="1161" y="113.9189">-Date dataCandidatura</text><text fill="#000000" font-family="sans-serif" font-size="11" lengthAdjust="spacing" textLength="115" x="1161" y="127.7549">-Double valorPretendido</text><text fill="#000000" font-family="sans-serif" font-size="11" lengthAdjust="spacing" textLength="71" x="1161" y="141.5908">-Integer nrDias</text><text fill="#000000" font-family="sans-serif" font-size="11" lengthAdjust="spacing" textLength="116" x="1161" y="155.4268">-String txtApresentacao</text><text fill="#000000" font-family="sans-serif" font-size="11" lengthAdjust="spacing" textLength="96" x="1161" y="169.2627">-String txtMotivacao</text><line style="stroke:#A80036;stroke-width:1.5;" x1="1156" x2="1282" y1="175.6797" y2="175.6797"/><!--MD5=[407421fe170650ac131a5bd0ef307540]
class UsersAPI--><rect codeLine="43" fill="#FEFECE" filter="url(#f1e78duz15x3db)" height="61.8359" id="UsersAPI" style="stroke:#A80036;stroke-width:1.5;" width="84" x="946" y="297"/><ellipse cx="961" cy="313" fill="#ADD1B2" rx="11" ry="11" style="stroke:#A80036;stroke-width:1.0;"/><path d="M963.7656,308.875 Q963.9219,308.6563 964.1094,308.5469 Q964.2969,308.4375 964.5156,308.4375 Q964.8906,308.4375 965.125,308.7031 Q965.3594,308.9531 965.3594,309.5625 L965.3594,311.0156 Q965.3594,311.625 965.125,311.8906 Q964.8906,312.1563 964.5156,312.1563 Q964.1719,312.1563 963.9688,311.9531 Q963.7656,311.7656 963.6563,311.25 Q963.6094,310.8906 963.4219,310.7031 Q963.0938,310.3281 962.4844,310.1094 Q961.875,309.8906 961.25,309.8906 Q960.4844,309.8906 959.8438,310.2188 Q959.2188,310.5469 958.7188,311.2969 Q958.2344,312.0469 958.2344,313.0781 L958.2344,314.1719 Q958.2344,315.4063 959.125,316.2344 Q960.0156,317.0469 961.6094,317.0469 Q962.5469,317.0469 963.2031,316.7969 Q963.5938,316.6406 964.0156,316.2031 Q964.2813,315.9375 964.4219,315.8594 Q964.5781,315.7813 964.7813,315.7813 Q965.1094,315.7813 965.3594,316.0469 Q965.625,316.2969 965.625,316.6406 Q965.625,316.9844 965.2813,317.3906 Q964.7813,317.9688 963.9844,318.2969 Q962.9063,318.75 961.6094,318.75 Q960.0938,318.75 958.8906,318.125 Q957.9063,317.625 957.2188,316.5625 Q956.5313,315.4844 956.5313,314.2031 L956.5313,313.0469 Q956.5313,311.7188 957.1406,310.5781 Q957.7656,309.4219 958.8594,308.8125 Q959.9531,308.1875 961.1875,308.1875 Q961.9219,308.1875 962.5625,308.3594 Q963.2188,308.5156 963.7656,308.875 Z " fill="#000000"/><text fill="#000000" font-family="sans-serif" font-size="12" lengthAdjust="spacing" textLength="52" x="975" y="317.9102">UsersAPI</text><line style="stroke:#A80036;stroke-width:1.5;" x1="947" x2="1029" y1="329" y2="329"/><line style="stroke:#A80036;stroke-width:1.5;" x1="947" x2="1029" y1="337" y2="337"/><text fill="#000000" font-family="sans-serif" font-size="11" lengthAdjust="spacing" textLength="53" x="952" y="352.4189">+getEmail()</text><!--MD5=[66c27f2f3fc9a5ca544cfaf803420972]
class RepositorioFreelancerDB--><rect codeLine="47" fill="#FEFECE" filter="url(#f1e78duz15x3db)" height="61.8359" id="RepositorioFreelancerDB" style="stroke:#A80036;stroke-width:1.5;" width="172" x="613.5" y="275"/><ellipse cx="628.5" cy="291" fill="#ADD1B2" rx="11" ry="11" style="stroke:#A80036;stroke-width:1.0;"/><path d="M631.2656,286.875 Q631.4219,286.6563 631.6094,286.5469 Q631.7969,286.4375 632.0156,286.4375 Q632.3906,286.4375 632.625,286.7031 Q632.8594,286.9531 632.8594,287.5625 L632.8594,289.0156 Q632.8594,289.625 632.625,289.8906 Q632.3906,290.1563 632.0156,290.1563 Q631.6719,290.1563 631.4688,289.9531 Q631.2656,289.7656 631.1563,289.25 Q631.1094,288.8906 630.9219,288.7031 Q630.5938,288.3281 629.9844,288.1094 Q629.375,287.8906 628.75,287.8906 Q627.9844,287.8906 627.3438,288.2188 Q626.7188,288.5469 626.2188,289.2969 Q625.7344,290.0469 625.7344,291.0781 L625.7344,292.1719 Q625.7344,293.4063 626.625,294.2344 Q627.5156,295.0469 629.1094,295.0469 Q630.0469,295.0469 630.7031,294.7969 Q631.0938,294.6406 631.5156,294.2031 Q631.7813,293.9375 631.9219,293.8594 Q632.0781,293.7813 632.2813,293.7813 Q632.6094,293.7813 632.8594,294.0469 Q633.125,294.2969 633.125,294.6406 Q633.125,294.9844 632.7813,295.3906 Q632.2813,295.9688 631.4844,296.2969 Q630.4063,296.75 629.1094,296.75 Q627.5938,296.75 626.3906,296.125 Q625.4063,295.625 624.7188,294.5625 Q624.0313,293.4844 624.0313,292.2031 L624.0313,291.0469 Q624.0313,289.7188 624.6406,288.5781 Q625.2656,287.4219 626.3594,286.8125 Q627.4531,286.1875 628.6875,286.1875 Q629.4219,286.1875 630.0625,286.3594 Q630.7188,286.5156 631.2656,286.875 Z " fill="#000000"/><text fill="#000000" font-family="sans-serif" font-size="12" lengthAdjust="spacing" textLength="140" x="642.5" y="295.9102">RepositorioFreelancerDB</text><line style="stroke:#A80036;stroke-width:1.5;" x1="614.5" x2="784.5" y1="307" y2="307"/><line style="stroke:#A80036;stroke-width:1.5;" x1="614.5" x2="784.5" y1="315" y2="315"/><text fill="#000000" font-family="sans-serif" font-size="11" lengthAdjust="spacing" textLength="87" x="619.5" y="330.4189">+find(String email)</text><!--MD5=[a60929a1a98df3a57ce6091e636630a1]
class RepositorioCandidaturaDB--><rect codeLine="51" fill="#FEFECE" filter="url(#f1e78duz15x3db)" height="89.5078" id="RepositorioCandidaturaDB" style="stroke:#A80036;stroke-width:1.5;" width="243" x="578" y="372"/><ellipse cx="620.9" cy="388" fill="#ADD1B2" rx="11" ry="11" style="stroke:#A80036;stroke-width:1.0;"/><path d="M623.6656,383.875 Q623.8219,383.6563 624.0094,383.5469 Q624.1969,383.4375 624.4156,383.4375 Q624.7906,383.4375 625.025,383.7031 Q625.2594,383.9531 625.2594,384.5625 L625.2594,386.0156 Q625.2594,386.625 625.025,386.8906 Q624.7906,387.1563 624.4156,387.1563 Q624.0719,387.1563 623.8688,386.9531 Q623.6656,386.7656 623.5563,386.25 Q623.5094,385.8906 623.3219,385.7031 Q622.9938,385.3281 622.3844,385.1094 Q621.775,384.8906 621.15,384.8906 Q620.3844,384.8906 619.7438,385.2188 Q619.1188,385.5469 618.6188,386.2969 Q618.1344,387.0469 618.1344,388.0781 L618.1344,389.1719 Q618.1344,390.4063 619.025,391.2344 Q619.9156,392.0469 621.5094,392.0469 Q622.4469,392.0469 623.1031,391.7969 Q623.4938,391.6406 623.9156,391.2031 Q624.1813,390.9375 624.3219,390.8594 Q624.4781,390.7813 624.6813,390.7813 Q625.0094,390.7813 625.2594,391.0469 Q625.525,391.2969 625.525,391.6406 Q625.525,391.9844 625.1813,392.3906 Q624.6813,392.9688 623.8844,393.2969 Q622.8063,393.75 621.5094,393.75 Q619.9938,393.75 618.7906,393.125 Q617.8063,392.625 617.1188,391.5625 Q616.4313,390.4844 616.4313,389.2031 L616.4313,388.0469 Q616.4313,386.7188 617.0406,385.5781 Q617.6656,384.4219 618.7594,383.8125 Q619.8531,383.1875 621.0875,383.1875 Q621.8219,383.1875 622.4625,383.3594 Q623.1188,383.5156 623.6656,383.875 Z " fill="#000000"/><text fill="#000000" font-family="sans-serif" font-size="12" lengthAdjust="spacing" textLength="149" x="641.1" y="392.9102">RepositorioCandidaturaDB</text><line style="stroke:#A80036;stroke-width:1.5;" x1="579" x2="820" y1="404" y2="404"/><line style="stroke:#A80036;stroke-width:1.5;" x1="579" x2="820" y1="412" y2="412"/><text fill="#000000" font-family="sans-serif" font-size="11" lengthAdjust="spacing" textLength="231" x="584" y="427.4189">+getAllCandDispByFreelancerEmail(String email)</text><text fill="#000000" font-family="sans-serif" font-size="11" lengthAdjust="spacing" textLength="54" x="584" y="441.2549">+find(int id)</text><text fill="#000000" font-family="sans-serif" font-size="11" lengthAdjust="spacing" textLength="135" x="584" y="455.0908">+remove(Candidatura cand)</text><!--MD5=[6008daafa5c2faac58a7515230045335]
link AlterarCandidaturaUI to RegistarCandidaturaController--><path codeLine="57" d="M154.14,209 C171.24,209 190.11,209 209.32,209 " fill="none" id="AlterarCandidaturaUI-to-RegistarCandidaturaController" style="stroke:#A80036;stroke-width:1.0;stroke-dasharray:7.0,7.0;"/><polygon fill="#A80036" points="214.75,209,205.75,205,209.75,209,205.75,213,214.75,209" style="stroke:#A80036;stroke-width:1.0;"/><!--MD5=[36c49b5e3a0fe9f263844f13d3d06d8a]
link RegistarCandidaturaController to Plataforma--><path codeLine="58" d="M517.23,209 C564.42,209 613.3,209 648.39,209 " fill="none" id="RegistarCandidaturaController-to-Plataforma" style="stroke:#A80036;stroke-width:1.0;stroke-dasharray:7.0,7.0;"/><polygon fill="#A80036" points="653.47,209,644.47,205,648.47,209,644.47,213,653.47,209" style="stroke:#A80036;stroke-width:1.0;"/><!--MD5=[76b7d3b7f836e778b5e7828f7a1a63db]
link RegistarCandidaturaController to Freelancer--><path codeLine="59" d="M420.67,150.28 C481.62,90.33 587.15,6 698.5,6 C698.5,6 698.5,6 1220,6 C1298.07,6 1378.13,51.92 1427.58,86.71 " fill="none" id="RegistarCandidaturaController-to-Freelancer" style="stroke:#A80036;stroke-width:1.0;stroke-dasharray:7.0,7.0;"/><polygon fill="#A80036" points="1431.67,89.62,1426.6601,81.1406,1427.5975,86.7192,1422.0188,87.6566,1431.67,89.62" style="stroke:#A80036;stroke-width:1.0;"/><!--MD5=[e07543656bf1acbdbc8f3ce1156e6577]
link RegistarCandidaturaController to Anuncio--><path codeLine="60" d="M517.19,171.36 C537.54,167.07 558.22,163.13 578,160 C695.96,141.35 834.73,132.12 916.53,127.97 " fill="none" id="RegistarCandidaturaController-to-Anuncio" style="stroke:#A80036;stroke-width:1.0;stroke-dasharray:7.0,7.0;"/><polygon fill="#A80036" points="921.84,127.7,912.656,124.1426,916.8459,127.9433,913.0453,132.1331,921.84,127.7" style="stroke:#A80036;stroke-width:1.0;"/><!--MD5=[e9572e7b1307d95bae35e0c49c2dc578]
link RegistarCandidaturaController to RepositorioFreelancerDB--><path codeLine="61" d="M517.23,252.96 C548.32,262.06 580.15,271.37 608.29,279.6 " fill="none" id="RegistarCandidaturaController-to-RepositorioFreelancerDB" style="stroke:#A80036;stroke-width:1.0;stroke-dasharray:7.0,7.0;"/><polygon fill="#A80036" points="613.13,281.02,605.61,274.66,608.33,279.62,603.37,282.34,613.13,281.02" style="stroke:#A80036;stroke-width:1.0;"/><!--MD5=[068895286fd19e0ce705ed074b3d4ab3]
link RegistarCandidaturaController to RepositorioCandidaturaDB--><path codeLine="62" d="M447.66,267.81 C486.36,295.14 533.83,327.41 578,354 C586.6,359.18 595.67,364.38 604.82,369.44 " fill="none" id="RegistarCandidaturaController-to-RepositorioCandidaturaDB" style="stroke:#A80036;stroke-width:1.0;stroke-dasharray:7.0,7.0;"/><polygon fill="#A80036" points="609.32,371.92,603.3647,364.0756,604.9398,369.5088,599.5067,371.0839,609.32,371.92" style="stroke:#A80036;stroke-width:1.0;"/><!--MD5=[8332b1d6239e15bdcec09ce3bcdea9a3]
link Plataforma to UsersAPI--><path codeLine="63" d="M745.55,226.58 C768.24,235.52 796.15,246.67 821,257 C834.42,262.58 837.65,264.26 851,270 C880.97,282.88 914.7,297.27 941.07,308.49 " fill="none" id="Plataforma-to-UsersAPI" style="stroke:#A80036;stroke-width:1.0;stroke-dasharray:7.0,7.0;"/><polygon fill="#A80036" points="945.91,310.55,939.1944,303.3458,941.3091,308.5925,936.0624,310.7072,945.91,310.55" style="stroke:#A80036;stroke-width:1.0;"/><!--MD5=[3d9e8e0d764359bffb897b36dc4b633a]
link Plataforma to Anuncio--><path codeLine="65" d="M745.76,202.53 C785.05,196.22 843.15,185.18 892,169 C900.3,166.25 908.83,162.98 917.22,159.49 " fill="none" id="Plataforma-to-Anuncio" style="stroke:#A80036;stroke-width:1.0;"/><polygon fill="#A80036" points="921.86,157.52,912.0124,157.3628,917.2591,159.4775,915.1444,164.7242,921.86,157.52" style="stroke:#A80036;stroke-width:1.0;"/><text fill="#000000" font-family="sans-serif" font-size="13" lengthAdjust="spacing" textLength="39" x="852" y="165.4951">agrega</text><text fill="#000000" font-family="sans-serif" font-size="13" lengthAdjust="spacing" textLength="7" x="753.3795" y="197.8489">1</text><text fill="#000000" font-family="sans-serif" font-size="13" lengthAdjust="spacing" textLength="5" x="908.9235" y="175.7197">*</text><!--MD5=[39c0de7668d8063a4eb96c23050b3de2]
link Plataforma to Freelancer--><path codeLine="66" d="M745.69,214.08 C844.44,223.94 1086.34,241.36 1283,201 C1333.96,190.54 1388.88,167.77 1427.14,149.86 " fill="none" id="Plataforma-to-Freelancer" style="stroke:#A80036;stroke-width:1.0;"/><polygon fill="#A80036" points="1431.72,147.7,1421.8733,147.9084,1427.1949,149.8269,1425.2764,155.1485,1431.72,147.7" style="stroke:#A80036;stroke-width:1.0;"/><text fill="#000000" font-family="sans-serif" font-size="13" lengthAdjust="spacing" textLength="38" x="1085.5" y="219.4951">possui</text><text fill="#000000" font-family="sans-serif" font-size="13" lengthAdjust="spacing" textLength="7" x="753.6093" y="229.7008">1</text><text fill="#000000" font-family="sans-serif" font-size="13" lengthAdjust="spacing" textLength="20" x="1403.8759" y="165.5129">1..*</text><!--MD5=[27b52c98fcb5387c047ce09b42fcb62d]
link Anuncio to Candidatura--><path codeLine="67" d="M1054.01,125 C1083.88,125 1119.33,125 1149.6,125 " fill="none" id="Anuncio-to-Candidatura" style="stroke:#A80036;stroke-width:1.0;"/><polygon fill="#A80036" points="1154.8,125,1145.8,121,1149.8,125,1145.8,129,1154.8,125" style="stroke:#A80036;stroke-width:1.0;"/><text fill="#000000" font-family="sans-serif" font-size="13" lengthAdjust="spacing" textLength="39" x="1085" y="121.4951">agrega</text><text fill="#000000" font-family="sans-serif" font-size="13" lengthAdjust="spacing" textLength="7" x="1062.0471" y="139.4395">1</text><text fill="#000000" font-family="sans-serif" font-size="13" lengthAdjust="spacing" textLength="5" x="1142.0878" y="139.4301">*</text><!--MD5=[a66e767a4304f5fa76db98d7839a7a61]
link Candidatura to Freelancer--><path codeLine="69" d="M1283.08,125 C1327.32,125 1385.65,125 1426.64,125 " fill="none" id="Candidatura-to-Freelancer" style="stroke:#A80036;stroke-width:1.0;"/><polygon fill="#A80036" points="1431.8,125,1422.8,121,1426.8,125,1422.8,129,1431.8,125" style="stroke:#A80036;stroke-width:1.0;"/><polygon fill="#000000" points="1323,116.1758,1313.9549,113.2369,1313.9549,119.1147,1323,116.1758" style="stroke:#000000;stroke-width:1.0;"/><text fill="#000000" font-family="sans-serif" font-size="13" lengthAdjust="spacing" textLength="74" x="1327" y="121.4951">realizada por</text><text fill="#000000" font-family="sans-serif" font-size="13" lengthAdjust="spacing" textLength="5" x="1291.1944" y="139.4806">*</text><text fill="#000000" font-family="sans-serif" font-size="13" lengthAdjust="spacing" textLength="7" x="1416.9588" y="139.7707">1</text><!--MD5=[66c91e7bd214801c348d73cb8496e9a8]
@startuml
skinparam classAttributeIconSize 0
left to right direction

class AlterarCandidaturaUI {
}

class RegistarCandidaturaController {
  +Freelancer getFreelancerByEmail()
  +Candidatura getCandidaturasDispByFreelancerEmail()
  +Candidatura getCandById()
  +void removerCandidatura(Candidatura candidatura)
  +List<Candidatura> getAllCandDispByFreelancerEmail(email)
}

class Plataforma {
    +getUsersAPI()
}

class Freelancer {
    -String nome
    -String NIF
    -String telefone
    -String email
}

class Anuncio {
    -Date dtInicioPublicitacao
    -Date dtFimPublicitacao
    -Date dtInicioCandidatura
    -Date dtFimCandidatura
    -Date dtInicioSeriacao
    -Date dtFimSeriacao
}

class Candidatura {
    -Date dataCandidatura
    -Double valorPretendido
    -Integer nrDias
    -String txtApresentacao
    -String txtMotivacao
}

class UsersAPI {
  +getEmail()
}

class RepositorioFreelancerDB {
  +find(String email)
}

class RepositorioCandidaturaDB {
  +getAllCandDispByFreelancerEmail(String email)
  +find(int id)
  +remove(Candidatura cand)
}

AlterarCandidaturaUI ..> RegistarCandidaturaController
RegistarCandidaturaController ..> Plataforma
RegistarCandidaturaController ..> Freelancer
RegistarCandidaturaController ..> Anuncio
RegistarCandidaturaController ..>RepositorioFreelancerDB
RegistarCandidaturaController ..>RepositorioCandidaturaDB
Plataforma ..> UsersAPI

Plataforma "1" - -> "*" Anuncio : agrega
Plataforma "1" - -> "1..*" Freelancer : possui
Anuncio "1" - -> "*" Candidatura : agrega

Candidatura "*" - -> "1"  Freelancer: realizada por >


@enduml

PlantUML version 1.2021.00(Sun Jan 10 10:25:05 WET 2021)
(GPL source distribution)
Java Runtime: Java(TM) SE Runtime Environment
JVM: Java HotSpot(TM) 64-Bit Server VM
Default Encoding: Cp1252
Language: pt
Country: PT
--></g></svg>