<?xml version="1.0" encoding="UTF-8" standalone="no"?><svg xmlns="http://www.w3.org/2000/svg" xmlns:xlink="http://www.w3.org/1999/xlink" contentScriptType="application/ecmascript" contentStyleType="text/css" height="847px" preserveAspectRatio="none" style="width:1617px;height:847px;" version="1.1" viewBox="0 0 1617 847" width="1617px" zoomAndPan="magnify"><defs><filter height="300%" id="f14wkricefdcu2" width="300%" x="-1" y="-1"><feGaussianBlur result="blurOut" stdDeviation="2.0"/><feColorMatrix in="blurOut" result="blurOut2" type="matrix" values="0 0 0 0 0 0 0 0 0 0 0 0 0 0 0 0 0 0 .4 0"/><feOffset dx="4.0" dy="4.0" in="blurOut2" result="blurOut3"/><feBlend in="SourceGraphic" in2="blurOut3" mode="normal"/></filter></defs><g><rect fill="#FFFFFF" filter="url(#f14wkricefdcu2)" height="643.9766" style="stroke:#A80036;stroke-width:1.0;" width="10" x="37.5" y="99.6094"/><rect fill="#FFFFFF" filter="url(#f14wkricefdcu2)" height="318.8125" style="stroke:#A80036;stroke-width:1.0;" width="10" x="486.5" y="121.9609"/><rect fill="#FFFFFF" filter="url(#f14wkricefdcu2)" height="121.0547" style="stroke:#A80036;stroke-width:1.0;" width="10" x="486.5" y="471.125"/><rect fill="#FFFFFF" filter="url(#f14wkricefdcu2)" height="121.0547" style="stroke:#A80036;stroke-width:1.0;" width="10" x="486.5" y="622.5313"/><rect fill="#FFFFFF" filter="url(#f14wkricefdcu2)" height="151.0547" style="stroke:#A80036;stroke-width:1.0;" width="10" x="811.5" y="152.3125"/><rect fill="#FFFFFF" filter="url(#f14wkricefdcu2)" height="60.3516" style="stroke:#A80036;stroke-width:1.0;" width="10" x="811.5" y="333.7188"/><rect fill="#FFFFFF" filter="url(#f14wkricefdcu2)" height="60.3516" style="stroke:#A80036;stroke-width:1.0;" width="10" x="811.5" y="501.4766"/><rect fill="#FFFFFF" filter="url(#f14wkricefdcu2)" height="90.7031" style="stroke:#A80036;stroke-width:1.0;" width="10" x="811.5" y="652.8828"/><rect fill="#FFFFFF" filter="url(#f14wkricefdcu2)" height="60.3516" style="stroke:#A80036;stroke-width:1.0;" width="10" x="996.5" y="182.6641"/><rect fill="#FFFFFF" filter="url(#f14wkricefdcu2)" height="30" style="stroke:#A80036;stroke-width:1.0;" width="10" x="1142.5" y="213.0156"/><rect fill="#FFFFFF" filter="url(#f14wkricefdcu2)" height="30" style="stroke:#A80036;stroke-width:1.0;" width="10" x="1371.5" y="273.3672"/><rect fill="#FFFFFF" filter="url(#f14wkricefdcu2)" height="30" style="stroke:#A80036;stroke-width:1.0;" width="10" x="1533" y="364.0703"/><rect fill="#FFFFFF" filter="url(#f14wkricefdcu2)" height="30" style="stroke:#A80036;stroke-width:1.0;" width="10" x="1533" y="531.8281"/><rect fill="#FFFFFF" filter="url(#f14wkricefdcu2)" height="30" style="stroke:#A80036;stroke-width:1.0;" width="10" x="1533" y="683.2344"/><line style="stroke:#A80036;stroke-width:1.0;stroke-dasharray:5.0,5.0;" x1="42" x2="42" y1="89.6094" y2="761.5859"/><line style="stroke:#A80036;stroke-width:1.0;stroke-dasharray:5.0,5.0;" x1="491.5" x2="491.5" y1="89.6094" y2="761.5859"/><line style="stroke:#A80036;stroke-width:1.0;stroke-dasharray:5.0,5.0;" x1="816" x2="816" y1="89.6094" y2="761.5859"/><line style="stroke:#A80036;stroke-width:1.0;stroke-dasharray:5.0,5.0;" x1="1001.5" x2="1001.5" y1="89.6094" y2="761.5859"/><line style="stroke:#A80036;stroke-width:1.0;stroke-dasharray:5.0,5.0;" x1="1147" x2="1147" y1="89.6094" y2="761.5859"/><line style="stroke:#A80036;stroke-width:1.0;stroke-dasharray:5.0,5.0;" x1="1245" x2="1245" y1="89.6094" y2="761.5859"/><line style="stroke:#A80036;stroke-width:1.0;stroke-dasharray:5.0,5.0;" x1="1376" x2="1376" y1="89.6094" y2="761.5859"/><line style="stroke:#A80036;stroke-width:1.0;stroke-dasharray:5.0,5.0;" x1="1538" x2="1538" y1="89.6094" y2="761.5859"/><text fill="#000000" font-family="sans-serif" font-size="14" lengthAdjust="spacing" textLength="69" x="5" y="86.5332">Freelancer</text><ellipse cx="42.5" cy="15" fill="#FEFECE" filter="url(#f14wkricefdcu2)" rx="8" ry="8" style="stroke:#A80036;stroke-width:2.0;"/><path d="M42.5,23 L42.5,50 M29.5,31 L55.5,31 M42.5,50 L29.5,65 M42.5,50 L55.5,65 " fill="none" filter="url(#f14wkricefdcu2)" style="stroke:#A80036;stroke-width:2.0;"/><text fill="#000000" font-family="sans-serif" font-size="14" lengthAdjust="spacing" textLength="69" x="5" y="775.1191">Freelancer</text><ellipse cx="42.5" cy="788.1953" fill="#FEFECE" filter="url(#f14wkricefdcu2)" rx="8" ry="8" style="stroke:#A80036;stroke-width:2.0;"/><path d="M42.5,796.1953 L42.5,823.1953 M29.5,804.1953 L55.5,804.1953 M42.5,823.1953 L29.5,838.1953 M42.5,823.1953 L55.5,838.1953 " fill="none" filter="url(#f14wkricefdcu2)" style="stroke:#A80036;stroke-width:2.0;"/><rect fill="#FEFECE" filter="url(#f14wkricefdcu2)" height="31.6094" style="stroke:#A80036;stroke-width:1.5;" width="140" x="419.5" y="53"/><text fill="#000000" font-family="sans-serif" font-size="14" lengthAdjust="spacing" textLength="126" x="426.5" y="74.5332">:TabCandidaturasUI</text><rect fill="#FEFECE" filter="url(#f14wkricefdcu2)" height="31.6094" style="stroke:#A80036;stroke-width:1.5;" width="140" x="419.5" y="760.5859"/><text fill="#000000" font-family="sans-serif" font-size="14" lengthAdjust="spacing" textLength="126" x="426.5" y="782.1191">:TabCandidaturasUI</text><rect fill="#FEFECE" filter="url(#f14wkricefdcu2)" height="31.6094" style="stroke:#A80036;stroke-width:1.5;" width="211" x="709" y="53"/><text fill="#000000" font-family="sans-serif" font-size="14" lengthAdjust="spacing" textLength="197" x="716" y="74.5332">:RegistarCandidaturaController</text><rect fill="#FEFECE" filter="url(#f14wkricefdcu2)" height="31.6094" style="stroke:#A80036;stroke-width:1.5;" width="211" x="709" y="760.5859"/><text fill="#000000" font-family="sans-serif" font-size="14" lengthAdjust="spacing" textLength="197" x="716" y="782.1191">:RegistarCandidaturaController</text><rect fill="#FEFECE" filter="url(#f14wkricefdcu2)" height="31.6094" style="stroke:#A80036;stroke-width:1.5;" width="86" x="956.5" y="53"/><text fill="#000000" font-family="sans-serif" font-size="14" lengthAdjust="spacing" textLength="72" x="963.5" y="74.5332">:Plataforma</text><rect fill="#FEFECE" filter="url(#f14wkricefdcu2)" height="31.6094" style="stroke:#A80036;stroke-width:1.5;" width="86" x="956.5" y="760.5859"/><text fill="#000000" font-family="sans-serif" font-size="14" lengthAdjust="spacing" textLength="72" x="963.5" y="782.1191">:Plataforma</text><rect fill="#FEFECE" filter="url(#f14wkricefdcu2)" height="31.6094" style="stroke:#A80036;stroke-width:1.5;" width="75" x="1108" y="53"/><text fill="#000000" font-family="sans-serif" font-size="14" lengthAdjust="spacing" textLength="61" x="1115" y="74.5332">:UsersAPI</text><rect fill="#FEFECE" filter="url(#f14wkricefdcu2)" height="31.6094" style="stroke:#A80036;stroke-width:1.5;" width="75" x="1108" y="760.5859"/><text fill="#000000" font-family="sans-serif" font-size="14" lengthAdjust="spacing" textLength="61" x="1115" y="782.1191">:UsersAPI</text><rect fill="#FEFECE" filter="url(#f14wkricefdcu2)" height="49.2188" style="stroke:#A80036;stroke-width:1.5;" width="92" x="1197" y="35.3906"/><text fill="#000000" font-family="sans-serif" font-size="14" lengthAdjust="spacing" textLength="35" x="1225.5" y="56.9238">cand:</text><text fill="#000000" font-family="sans-serif" font-size="14" lengthAdjust="spacing" textLength="78" x="1204" y="74.5332">Candidatura</text><rect fill="#FEFECE" filter="url(#f14wkricefdcu2)" height="49.2188" style="stroke:#A80036;stroke-width:1.5;" width="92" x="1197" y="760.5859"/><text fill="#000000" font-family="sans-serif" font-size="14" lengthAdjust="spacing" textLength="35" x="1225.5" y="782.1191">cand:</text><text fill="#000000" font-family="sans-serif" font-size="14" lengthAdjust="spacing" textLength="78" x="1204" y="799.7285">Candidatura</text><text fill="#000000" font-family="sans-serif" font-size="14" lengthAdjust="spacing" textLength="141" x="1303" y="86.5332">RepositorioFreelancer</text><path d="M1358.5,36 C1358.5,26 1376.5,26 1376.5,26 C1376.5,26 1394.5,26 1394.5,36 L1394.5,62 C1394.5,72 1376.5,72 1376.5,72 C1376.5,72 1358.5,72 1358.5,62 L1358.5,36 " fill="#FEFECE" filter="url(#f14wkricefdcu2)" style="stroke:#000000;stroke-width:1.5;"/><path d="M1358.5,36 C1358.5,46 1376.5,46 1376.5,46 C1376.5,46 1394.5,46 1394.5,36 " fill="none" style="stroke:#000000;stroke-width:1.5;"/><text fill="#000000" font-family="sans-serif" font-size="14" lengthAdjust="spacing" textLength="141" x="1303" y="775.1191">RepositorioFreelancer</text><path d="M1358.5,788.1953 C1358.5,778.1953 1376.5,778.1953 1376.5,778.1953 C1376.5,778.1953 1394.5,778.1953 1394.5,788.1953 L1394.5,814.1953 C1394.5,824.1953 1376.5,824.1953 1376.5,824.1953 C1376.5,824.1953 1358.5,824.1953 1358.5,814.1953 L1358.5,788.1953 " fill="#FEFECE" filter="url(#f14wkricefdcu2)" style="stroke:#000000;stroke-width:1.5;"/><path d="M1358.5,788.1953 C1358.5,798.1953 1376.5,798.1953 1376.5,798.1953 C1376.5,798.1953 1394.5,798.1953 1394.5,788.1953 " fill="none" style="stroke:#000000;stroke-width:1.5;"/><text fill="#000000" font-family="sans-serif" font-size="14" lengthAdjust="spacing" textLength="150" x="1460" y="86.5332">RepositorioCandidatura</text><path d="M1520,36 C1520,26 1538,26 1538,26 C1538,26 1556,26 1556,36 L1556,62 C1556,72 1538,72 1538,72 C1538,72 1520,72 1520,62 L1520,36 " fill="#FEFECE" filter="url(#f14wkricefdcu2)" style="stroke:#000000;stroke-width:1.5;"/><path d="M1520,36 C1520,46 1538,46 1538,46 C1538,46 1556,46 1556,36 " fill="none" style="stroke:#000000;stroke-width:1.5;"/><text fill="#000000" font-family="sans-serif" font-size="14" lengthAdjust="spacing" textLength="150" x="1460" y="775.1191">RepositorioCandidatura</text><path d="M1520,788.1953 C1520,778.1953 1538,778.1953 1538,778.1953 C1538,778.1953 1556,778.1953 1556,788.1953 L1556,814.1953 C1556,824.1953 1538,824.1953 1538,824.1953 C1538,824.1953 1520,824.1953 1520,814.1953 L1520,788.1953 " fill="#FEFECE" filter="url(#f14wkricefdcu2)" style="stroke:#000000;stroke-width:1.5;"/><path d="M1520,788.1953 C1520,798.1953 1538,798.1953 1538,798.1953 C1538,798.1953 1556,798.1953 1556,788.1953 " fill="none" style="stroke:#000000;stroke-width:1.5;"/><rect fill="#FFFFFF" filter="url(#f14wkricefdcu2)" height="643.9766" style="stroke:#A80036;stroke-width:1.0;" width="10" x="37.5" y="99.6094"/><rect fill="#FFFFFF" filter="url(#f14wkricefdcu2)" height="318.8125" style="stroke:#A80036;stroke-width:1.0;" width="10" x="486.5" y="121.9609"/><rect fill="#FFFFFF" filter="url(#f14wkricefdcu2)" height="121.0547" style="stroke:#A80036;stroke-width:1.0;" width="10" x="486.5" y="471.125"/><rect fill="#FFFFFF" filter="url(#f14wkricefdcu2)" height="121.0547" style="stroke:#A80036;stroke-width:1.0;" width="10" x="486.5" y="622.5313"/><rect fill="#FFFFFF" filter="url(#f14wkricefdcu2)" height="151.0547" style="stroke:#A80036;stroke-width:1.0;" width="10" x="811.5" y="152.3125"/><rect fill="#FFFFFF" filter="url(#f14wkricefdcu2)" height="60.3516" style="stroke:#A80036;stroke-width:1.0;" width="10" x="811.5" y="333.7188"/><rect fill="#FFFFFF" filter="url(#f14wkricefdcu2)" height="60.3516" style="stroke:#A80036;stroke-width:1.0;" width="10" x="811.5" y="501.4766"/><rect fill="#FFFFFF" filter="url(#f14wkricefdcu2)" height="90.7031" style="stroke:#A80036;stroke-width:1.0;" width="10" x="811.5" y="652.8828"/><rect fill="#FFFFFF" filter="url(#f14wkricefdcu2)" height="60.3516" style="stroke:#A80036;stroke-width:1.0;" width="10" x="996.5" y="182.6641"/><rect fill="#FFFFFF" filter="url(#f14wkricefdcu2)" height="30" style="stroke:#A80036;stroke-width:1.0;" width="10" x="1142.5" y="213.0156"/><rect fill="#FFFFFF" filter="url(#f14wkricefdcu2)" height="30" style="stroke:#A80036;stroke-width:1.0;" width="10" x="1371.5" y="273.3672"/><rect fill="#FFFFFF" filter="url(#f14wkricefdcu2)" height="30" style="stroke:#A80036;stroke-width:1.0;" width="10" x="1533" y="364.0703"/><rect fill="#FFFFFF" filter="url(#f14wkricefdcu2)" height="30" style="stroke:#A80036;stroke-width:1.0;" width="10" x="1533" y="531.8281"/><rect fill="#FFFFFF" filter="url(#f14wkricefdcu2)" height="30" style="stroke:#A80036;stroke-width:1.0;" width="10" x="1533" y="683.2344"/><polygon fill="#A80036" points="474.5,117.9609,484.5,121.9609,474.5,125.9609,478.5,121.9609" style="stroke:#A80036;stroke-width:1.0;"/><line style="stroke:#A80036;stroke-width:1.0;" x1="47.5" x2="480.5" y1="121.9609" y2="121.9609"/><text fill="#000000" font-family="sans-serif" font-size="13" font-weight="bold" lengthAdjust="spacing" textLength="7" x="54.5" y="117.1045">1</text><text fill="#000000" font-family="sans-serif" font-size="13" lengthAdjust="spacing" textLength="150" x="65.5" y="117.1045">inicia remover candidatura</text><polygon fill="#A80036" points="799.5,148.3125,809.5,152.3125,799.5,156.3125,803.5,152.3125" style="stroke:#A80036;stroke-width:1.0;"/><line style="stroke:#A80036;stroke-width:1.0;" x1="496.5" x2="805.5" y1="152.3125" y2="152.3125"/><text fill="#000000" font-family="sans-serif" font-size="13" font-weight="bold" lengthAdjust="spacing" textLength="7" x="503.5" y="147.4561">2</text><text fill="#000000" font-family="sans-serif" font-size="13" lengthAdjust="spacing" textLength="136" x="514.5" y="147.4561">getFreelancerByEmail()</text><polygon fill="#A80036" points="984.5,178.6641,994.5,182.6641,984.5,186.6641,988.5,182.6641" style="stroke:#A80036;stroke-width:1.0;"/><line style="stroke:#A80036;stroke-width:1.0;" x1="821.5" x2="990.5" y1="182.6641" y2="182.6641"/><text fill="#000000" font-family="sans-serif" font-size="13" font-weight="bold" lengthAdjust="spacing" textLength="7" x="828.5" y="177.8076">3</text><text fill="#000000" font-family="sans-serif" font-size="13" lengthAdjust="spacing" textLength="145" x="839.5" y="177.8076">email = getSessionEmail</text><polygon fill="#A80036" points="1130.5,209.0156,1140.5,213.0156,1130.5,217.0156,1134.5,213.0156" style="stroke:#A80036;stroke-width:1.0;"/><line style="stroke:#A80036;stroke-width:1.0;" x1="1006.5" x2="1136.5" y1="213.0156" y2="213.0156"/><text fill="#000000" font-family="sans-serif" font-size="13" font-weight="bold" lengthAdjust="spacing" textLength="7" x="1013.5" y="208.1592">4</text><text fill="#000000" font-family="sans-serif" font-size="13" lengthAdjust="spacing" textLength="106" x="1024.5" y="208.1592">email = getEmail()</text><polygon fill="#A80036" points="1359.5,269.3672,1369.5,273.3672,1359.5,277.3672,1363.5,273.3672" style="stroke:#A80036;stroke-width:1.0;"/><line style="stroke:#A80036;stroke-width:1.0;" x1="821.5" x2="1365.5" y1="273.3672" y2="273.3672"/><text fill="#000000" font-family="sans-serif" font-size="13" font-weight="bold" lengthAdjust="spacing" textLength="7" x="828.5" y="268.5107">5</text><text fill="#000000" font-family="sans-serif" font-size="13" lengthAdjust="spacing" textLength="96" x="839.5" y="268.5107">free = find(email)</text><polygon fill="#A80036" points="799.5,329.7188,809.5,333.7188,799.5,337.7188,803.5,333.7188" style="stroke:#A80036;stroke-width:1.0;"/><line style="stroke:#A80036;stroke-width:1.0;" x1="496.5" x2="805.5" y1="333.7188" y2="333.7188"/><text fill="#000000" font-family="sans-serif" font-size="13" font-weight="bold" lengthAdjust="spacing" textLength="7" x="503.5" y="328.8623">6</text><text fill="#000000" font-family="sans-serif" font-size="13" lengthAdjust="spacing" textLength="285" x="514.5" y="328.8623">lcand = getCandidaturasDispByFreelancerEmail()</text><polygon fill="#A80036" points="1521,360.0703,1531,364.0703,1521,368.0703,1525,364.0703" style="stroke:#A80036;stroke-width:1.0;"/><line style="stroke:#A80036;stroke-width:1.0;" x1="821.5" x2="1527" y1="364.0703" y2="364.0703"/><text fill="#000000" font-family="sans-serif" font-size="13" font-weight="bold" lengthAdjust="spacing" textLength="7" x="828.5" y="359.2139">7</text><text fill="#000000" font-family="sans-serif" font-size="13" lengthAdjust="spacing" textLength="305" x="839.5" y="359.2139">lcand = getAllCandidaturasByFreelancerEmail(email)</text><polygon fill="#A80036" points="58.5,436.7734,48.5,440.7734,58.5,444.7734,54.5,440.7734" style="stroke:#A80036;stroke-width:1.0;"/><line style="stroke:#A80036;stroke-width:1.0;stroke-dasharray:2.0,2.0;" x1="52.5" x2="490.5" y1="440.7734" y2="440.7734"/><text fill="#000000" font-family="sans-serif" font-size="13" font-weight="bold" lengthAdjust="spacing" textLength="7" x="64.5" y="427.7412">8</text><text fill="#000000" font-family="sans-serif" font-size="13" lengthAdjust="spacing" textLength="273" x="75.5" y="419.5654">solicita a escolha de uma das candidaturas por</text><text fill="#000000" font-family="sans-serif" font-size="13" lengthAdjust="spacing" textLength="288" x="75.5" y="435.917">si efetuadas e, ainda, em período de candidaturas</text><polygon fill="#A80036" points="474.5,467.125,484.5,471.125,474.5,475.125,478.5,471.125" style="stroke:#A80036;stroke-width:1.0;"/><line style="stroke:#A80036;stroke-width:1.0;" x1="47.5" x2="480.5" y1="471.125" y2="471.125"/><text fill="#000000" font-family="sans-serif" font-size="13" font-weight="bold" lengthAdjust="spacing" textLength="7" x="54.5" y="466.2686">9</text><text fill="#000000" font-family="sans-serif" font-size="13" lengthAdjust="spacing" textLength="187" x="65.5" y="466.2686">escolhe a candidatura a remover</text><polygon fill="#A80036" points="799.5,497.4766,809.5,501.4766,799.5,505.4766,803.5,501.4766" style="stroke:#A80036;stroke-width:1.0;"/><line style="stroke:#A80036;stroke-width:1.0;" x1="496.5" x2="805.5" y1="501.4766" y2="501.4766"/><text fill="#000000" font-family="sans-serif" font-size="13" font-weight="bold" lengthAdjust="spacing" textLength="14" x="503.5" y="496.6201">10</text><text fill="#000000" font-family="sans-serif" font-size="13" lengthAdjust="spacing" textLength="126" x="521.5" y="496.6201">cand = getCandById()</text><polygon fill="#A80036" points="1521,527.8281,1531,531.8281,1521,535.8281,1525,531.8281" style="stroke:#A80036;stroke-width:1.0;"/><line style="stroke:#A80036;stroke-width:1.0;" x1="821.5" x2="1527" y1="531.8281" y2="531.8281"/><text fill="#000000" font-family="sans-serif" font-size="13" font-weight="bold" lengthAdjust="spacing" textLength="14" x="828.5" y="526.9717">11</text><text fill="#000000" font-family="sans-serif" font-size="13" lengthAdjust="spacing" textLength="82" x="846.5" y="526.9717">cand = find(id)</text><polygon fill="#A80036" points="58.5,588.1797,48.5,592.1797,58.5,596.1797,54.5,592.1797" style="stroke:#A80036;stroke-width:1.0;"/><line style="stroke:#A80036;stroke-width:1.0;stroke-dasharray:2.0,2.0;" x1="52.5" x2="490.5" y1="592.1797" y2="592.1797"/><text fill="#000000" font-family="sans-serif" font-size="13" font-weight="bold" lengthAdjust="spacing" textLength="14" x="64.5" y="587.3232">12</text><text fill="#000000" font-family="sans-serif" font-size="13" lengthAdjust="spacing" textLength="397" x="82.5" y="587.3232">valida e apresenta os dados ao Freelancer e pede a sua confirmação</text><polygon fill="#A80036" points="474.5,618.5313,484.5,622.5313,474.5,626.5313,478.5,622.5313" style="stroke:#A80036;stroke-width:1.0;"/><line style="stroke:#A80036;stroke-width:1.0;" x1="47.5" x2="480.5" y1="622.5313" y2="622.5313"/><text fill="#000000" font-family="sans-serif" font-size="13" font-weight="bold" lengthAdjust="spacing" textLength="14" x="54.5" y="617.6748">13</text><text fill="#000000" font-family="sans-serif" font-size="13" lengthAdjust="spacing" textLength="49" x="72.5" y="617.6748">confirma</text><polygon fill="#A80036" points="799.5,648.8828,809.5,652.8828,799.5,656.8828,803.5,652.8828" style="stroke:#A80036;stroke-width:1.0;"/><line style="stroke:#A80036;stroke-width:1.0;" x1="496.5" x2="805.5" y1="652.8828" y2="652.8828"/><text fill="#000000" font-family="sans-serif" font-size="13" font-weight="bold" lengthAdjust="spacing" textLength="14" x="503.5" y="648.0264">14</text><text fill="#000000" font-family="sans-serif" font-size="13" lengthAdjust="spacing" textLength="150" x="521.5" y="648.0264">removerCandidatura(cand)</text><polygon fill="#A80036" points="1521,679.2344,1531,683.2344,1521,687.2344,1525,683.2344" style="stroke:#A80036;stroke-width:1.0;"/><line style="stroke:#A80036;stroke-width:1.0;" x1="821.5" x2="1527" y1="683.2344" y2="683.2344"/><text fill="#000000" font-family="sans-serif" font-size="13" font-weight="bold" lengthAdjust="spacing" textLength="14" x="828.5" y="678.3779">15</text><text fill="#000000" font-family="sans-serif" font-size="13" lengthAdjust="spacing" textLength="77" x="846.5" y="678.3779">remove(cand)</text><polygon fill="#A80036" points="53.5,739.5859,43.5,743.5859,53.5,747.5859,49.5,743.5859" style="stroke:#A80036;stroke-width:1.0;"/><line style="stroke:#A80036;stroke-width:1.0;stroke-dasharray:2.0,2.0;" x1="47.5" x2="490.5" y1="743.5859" y2="743.5859"/><text fill="#000000" font-family="sans-serif" font-size="13" font-weight="bold" lengthAdjust="spacing" textLength="14" x="59.5" y="738.7295">16</text><text fill="#000000" font-family="sans-serif" font-size="13" lengthAdjust="spacing" textLength="368" x="77.5" y="738.7295">regista a opção e informa o Freelancer do sucesso da operação</text><!--MD5=[62290708e3bc970eecb93143c5d7943f]
@startuml
autonumber

actor "Freelancer" as FRL
participant ":TabCandidaturasUI" as UI
participant ":RegistarCandidaturaController" as CTRL
participant ":Plataforma" as PLAT
participant ":UsersAPI" as API
participant "cand:\nCandidatura" as CAND
database RepositorioFreelancer as freeDB
database RepositorioCandidatura as candDB

activate FRL
FRL -> UI : inicia remover candidatura
activate UI
UI -> CTRL : getFreelancerByEmail()
activate CTRL
CTRL -> PLAT : email = getSessionEmail
activate PLAT
PLAT -> API : email = getEmail()
activate API
deactivate API
deactivate PLAT
CTRL -> freeDB : free = find(email)
activate freeDB
deactivate freeDB
deactivate CTRL


UI -> CTRL : lcand = getCandidaturasDispByFreelancerEmail()
activate CTRL
CTRL -> candDB : lcand = getAllCandidaturasByFreelancerEmail(email)
activate candDB
deactivate candDB
deactivate CTRL


UI - -> FRL : solicita a escolha de uma das candidaturas por \nsi efetuadas e, ainda, em período de candidaturas
deactivate UI
FRL -> UI : escolhe a candidatura a remover
activate UI
UI -> CTRL : cand = getCandById()
activate CTRL
CTRL -> candDB : cand = find(id)
activate candDB
deactivate candDB
deactivate CTRL
UI - -> FRL : valida e apresenta os dados ao Freelancer e pede a sua confirmação
deactivate UI

FRL -> UI : confirma
activate UI
UI -> CTRL : removerCandidatura(cand)
activate CTRL
CTRL -> candDB : remove(cand)
activate candDB
deactivate candDB


UI - -> FRL : regista a opção e informa o Freelancer do sucesso da operação
deactivate UI

deactivate CTRL
deactivate UI
deactivate FRL

@enduml

PlantUML version 1.2021.00(Sun Jan 10 10:25:05 WET 2021)
(GPL source distribution)
Java Runtime: Java(TM) SE Runtime Environment
JVM: Java HotSpot(TM) 64-Bit Server VM
Default Encoding: Cp1252
Language: pt
Country: PT
--></g></svg>