<?xml version="1.0" encoding="UTF-8" standalone="no"?><svg xmlns="http://www.w3.org/2000/svg" xmlns:xlink="http://www.w3.org/1999/xlink" contentScriptType="application/ecmascript" contentStyleType="text/css" height="1445px" preserveAspectRatio="none" style="width:847px;height:1445px;" version="1.1" viewBox="0 0 847 1445" width="847px" zoomAndPan="magnify"><defs><filter height="300%" id="f1rco4jso36tqi" width="300%" x="-1" y="-1"><feGaussianBlur result="blurOut" stdDeviation="2.0"/><feColorMatrix in="blurOut" result="blurOut2" type="matrix" values="0 0 0 0 0 0 0 0 0 0 0 0 0 0 0 0 0 0 .4 0"/><feOffset dx="4.0" dy="4.0" in="blurOut2" result="blurOut3"/><feBlend in="SourceGraphic" in2="blurOut3" mode="normal"/></filter></defs><g><!--MD5=[807977ceb130c090ed5febfb6de2bdea]
class Organizacao--><rect codeLine="3" fill="#FEFECE" filter="url(#f1rco4jso36tqi)" height="144.8516" id="Organizacao" style="stroke:#A80036;stroke-width:1.5;" width="223" x="52" y="714"/><ellipse cx="124.75" cy="730" fill="#ADD1B2" rx="11" ry="11" style="stroke:#A80036;stroke-width:1.0;"/><path d="M127.5156,725.875 Q127.6719,725.6563 127.8594,725.5469 Q128.0469,725.4375 128.2656,725.4375 Q128.6406,725.4375 128.875,725.7031 Q129.1094,725.9531 129.1094,726.5625 L129.1094,728.0156 Q129.1094,728.625 128.875,728.8906 Q128.6406,729.1563 128.2656,729.1563 Q127.9219,729.1563 127.7188,728.9531 Q127.5156,728.7656 127.4063,728.25 Q127.3594,727.8906 127.1719,727.7031 Q126.8438,727.3281 126.2344,727.1094 Q125.625,726.8906 125,726.8906 Q124.2344,726.8906 123.5938,727.2188 Q122.9688,727.5469 122.4688,728.2969 Q121.9844,729.0469 121.9844,730.0781 L121.9844,731.1719 Q121.9844,732.4063 122.875,733.2344 Q123.7656,734.0469 125.3594,734.0469 Q126.2969,734.0469 126.9531,733.7969 Q127.3438,733.6406 127.7656,733.2031 Q128.0313,732.9375 128.1719,732.8594 Q128.3281,732.7813 128.5313,732.7813 Q128.8594,732.7813 129.1094,733.0469 Q129.375,733.2969 129.375,733.6406 Q129.375,733.9844 129.0313,734.3906 Q128.5313,734.9688 127.7344,735.2969 Q126.6563,735.75 125.3594,735.75 Q123.8438,735.75 122.6406,735.125 Q121.6563,734.625 120.9688,733.5625 Q120.2813,732.4844 120.2813,731.2031 L120.2813,730.0469 Q120.2813,728.7188 120.8906,727.5781 Q121.5156,726.4219 122.6094,725.8125 Q123.7031,725.1875 124.9375,725.1875 Q125.6719,725.1875 126.3125,725.3594 Q126.9688,725.5156 127.5156,725.875 Z " fill="#000000"/><text fill="#000000" font-family="sans-serif" font-size="12" lengthAdjust="spacing" textLength="69" x="145.25" y="734.9102">Organizacao</text><line style="stroke:#A80036;stroke-width:1.5;" x1="53" x2="274" y1="746" y2="746"/><text fill="#000000" font-family="sans-serif" font-size="11" lengthAdjust="spacing" textLength="61" x="58" y="761.4189">-String nome</text><text fill="#000000" font-family="sans-serif" font-size="11" lengthAdjust="spacing" textLength="50" x="58" y="775.2549">-String NIF</text><text fill="#000000" font-family="sans-serif" font-size="11" lengthAdjust="spacing" textLength="74" x="58" y="789.0908">-String website</text><text fill="#000000" font-family="sans-serif" font-size="11" lengthAdjust="spacing" textLength="74" x="58" y="802.9268">-String telefone</text><text fill="#000000" font-family="sans-serif" font-size="11" lengthAdjust="spacing" textLength="59" x="58" y="816.7627">-String email</text><line style="stroke:#A80036;stroke-width:1.5;" x1="53" x2="274" y1="823.1797" y2="823.1797"/><text fill="#000000" font-family="sans-serif" font-size="11" lengthAdjust="spacing" textLength="154" x="58" y="838.5986">+ListaTarefas getListaTarefas()</text><text fill="#000000" font-family="sans-serif" font-size="11" lengthAdjust="spacing" textLength="211" x="58" y="852.4346">+Colaborador getColaboradorByEmail(email)</text><!--MD5=[0b8c11e89e8561660fecfc719ed33ad4]
class ListaTarefas--><rect codeLine="13" fill="#FEFECE" filter="url(#f1rco4jso36tqi)" height="75.6719" id="ListaTarefas" style="stroke:#A80036;stroke-width:1.5;" width="224" x="64.5" y="971.5"/><ellipse cx="137.75" cy="987.5" fill="#ADD1B2" rx="11" ry="11" style="stroke:#A80036;stroke-width:1.0;"/><path d="M140.5156,983.375 Q140.6719,983.1563 140.8594,983.0469 Q141.0469,982.9375 141.2656,982.9375 Q141.6406,982.9375 141.875,983.2031 Q142.1094,983.4531 142.1094,984.0625 L142.1094,985.5156 Q142.1094,986.125 141.875,986.3906 Q141.6406,986.6563 141.2656,986.6563 Q140.9219,986.6563 140.7188,986.4531 Q140.5156,986.2656 140.4063,985.75 Q140.3594,985.3906 140.1719,985.2031 Q139.8438,984.8281 139.2344,984.6094 Q138.625,984.3906 138,984.3906 Q137.2344,984.3906 136.5938,984.7188 Q135.9688,985.0469 135.4688,985.7969 Q134.9844,986.5469 134.9844,987.5781 L134.9844,988.6719 Q134.9844,989.9063 135.875,990.7344 Q136.7656,991.5469 138.3594,991.5469 Q139.2969,991.5469 139.9531,991.2969 Q140.3438,991.1406 140.7656,990.7031 Q141.0313,990.4375 141.1719,990.3594 Q141.3281,990.2813 141.5313,990.2813 Q141.8594,990.2813 142.1094,990.5469 Q142.375,990.7969 142.375,991.1406 Q142.375,991.4844 142.0313,991.8906 Q141.5313,992.4688 140.7344,992.7969 Q139.6563,993.25 138.3594,993.25 Q136.8438,993.25 135.6406,992.625 Q134.6563,992.125 133.9688,991.0625 Q133.2813,989.9844 133.2813,988.7031 L133.2813,987.5469 Q133.2813,986.2188 133.8906,985.0781 Q134.5156,983.9219 135.6094,983.3125 Q136.7031,982.6875 137.9375,982.6875 Q138.6719,982.6875 139.3125,982.8594 Q139.9688,983.0156 140.5156,983.375 Z " fill="#000000"/><text fill="#000000" font-family="sans-serif" font-size="12" lengthAdjust="spacing" textLength="69" x="158.25" y="992.4102">ListaTarefas</text><line style="stroke:#A80036;stroke-width:1.5;" x1="65.5" x2="287.5" y1="1003.5" y2="1003.5"/><line style="stroke:#A80036;stroke-width:1.5;" x1="65.5" x2="287.5" y1="1011.5" y2="1011.5"/><text fill="#000000" font-family="sans-serif" font-size="11" lengthAdjust="spacing" textLength="191" x="70.5" y="1026.9189">+List&lt;Tarefa&gt; getTarefaParaPublicar(c)</text><text fill="#000000" font-family="sans-serif" font-size="11" lengthAdjust="spacing" textLength="212" x="70.5" y="1040.7549">+Tarefa getTarefaParaPublicarByRef(ref, c)</text><!--MD5=[27c2d4bbe9f7b9d3b0ea2797cc54308a]
class Tarefa--><rect codeLine="18" fill="#FEFECE" filter="url(#f1rco4jso36tqi)" height="144.8516" id="Tarefa" style="stroke:#A80036;stroke-width:1.5;" width="109" x="294" y="1160"/><ellipse cx="327.9" cy="1176" fill="#ADD1B2" rx="11" ry="11" style="stroke:#A80036;stroke-width:1.0;"/><path d="M330.6656,1171.875 Q330.8219,1171.6563 331.0094,1171.5469 Q331.1969,1171.4375 331.4156,1171.4375 Q331.7906,1171.4375 332.025,1171.7031 Q332.2594,1171.9531 332.2594,1172.5625 L332.2594,1174.0156 Q332.2594,1174.625 332.025,1174.8906 Q331.7906,1175.1563 331.4156,1175.1563 Q331.0719,1175.1563 330.8688,1174.9531 Q330.6656,1174.7656 330.5563,1174.25 Q330.5094,1173.8906 330.3219,1173.7031 Q329.9938,1173.3281 329.3844,1173.1094 Q328.775,1172.8906 328.15,1172.8906 Q327.3844,1172.8906 326.7438,1173.2188 Q326.1188,1173.5469 325.6188,1174.2969 Q325.1344,1175.0469 325.1344,1176.0781 L325.1344,1177.1719 Q325.1344,1178.4063 326.025,1179.2344 Q326.9156,1180.0469 328.5094,1180.0469 Q329.4469,1180.0469 330.1031,1179.7969 Q330.4938,1179.6406 330.9156,1179.2031 Q331.1813,1178.9375 331.3219,1178.8594 Q331.4781,1178.7813 331.6813,1178.7813 Q332.0094,1178.7813 332.2594,1179.0469 Q332.525,1179.2969 332.525,1179.6406 Q332.525,1179.9844 332.1813,1180.3906 Q331.6813,1180.9688 330.8844,1181.2969 Q329.8063,1181.75 328.5094,1181.75 Q326.9938,1181.75 325.7906,1181.125 Q324.8063,1180.625 324.1188,1179.5625 Q323.4313,1178.4844 323.4313,1177.2031 L323.4313,1176.0469 Q323.4313,1174.7188 324.0406,1173.5781 Q324.6656,1172.4219 325.7594,1171.8125 Q326.8531,1171.1875 328.0875,1171.1875 Q328.8219,1171.1875 329.4625,1171.3594 Q330.1188,1171.5156 330.6656,1171.875 Z " fill="#000000"/><text fill="#000000" font-family="sans-serif" font-size="12" lengthAdjust="spacing" textLength="35" x="346.1" y="1180.9102">Tarefa</text><line style="stroke:#A80036;stroke-width:1.5;" x1="295" x2="402" y1="1192" y2="1192"/><text fill="#000000" font-family="sans-serif" font-size="11" lengthAdjust="spacing" textLength="85" x="300" y="1207.4189">-String referencia</text><text fill="#000000" font-family="sans-serif" font-size="11" lengthAdjust="spacing" textLength="91" x="300" y="1221.2549">-String designacao</text><text fill="#000000" font-family="sans-serif" font-size="11" lengthAdjust="spacing" textLength="97" x="300" y="1235.0908">-String descInformal</text><text fill="#000000" font-family="sans-serif" font-size="11" lengthAdjust="spacing" textLength="97" x="300" y="1248.9268">-String descTecnica</text><text fill="#000000" font-family="sans-serif" font-size="11" lengthAdjust="spacing" textLength="95" x="300" y="1262.7627">-Integer duracaoEst</text><text fill="#000000" font-family="sans-serif" font-size="11" lengthAdjust="spacing" textLength="82" x="300" y="1276.5986">-Double custoEst</text><line style="stroke:#A80036;stroke-width:1.5;" x1="295" x2="402" y1="1283.0156" y2="1283.0156"/><text fill="#000000" font-family="sans-serif" font-size="11" lengthAdjust="spacing" textLength="70" x="300" y="1298.4346">+publicar(anu)</text><!--MD5=[ecaed46f78f8cfe1e9ce18477649be18]
class Plataforma--><rect codeLine="28" fill="#FEFECE" filter="url(#f1rco4jso36tqi)" height="103.3438" id="Plataforma" style="stroke:#A80036;stroke-width:1.5;" width="262" x="355.5" y="294"/><ellipse cx="452.25" cy="310" fill="#ADD1B2" rx="11" ry="11" style="stroke:#A80036;stroke-width:1.0;"/><path d="M455.0156,305.875 Q455.1719,305.6563 455.3594,305.5469 Q455.5469,305.4375 455.7656,305.4375 Q456.1406,305.4375 456.375,305.7031 Q456.6094,305.9531 456.6094,306.5625 L456.6094,308.0156 Q456.6094,308.625 456.375,308.8906 Q456.1406,309.1563 455.7656,309.1563 Q455.4219,309.1563 455.2188,308.9531 Q455.0156,308.7656 454.9063,308.25 Q454.8594,307.8906 454.6719,307.7031 Q454.3438,307.3281 453.7344,307.1094 Q453.125,306.8906 452.5,306.8906 Q451.7344,306.8906 451.0938,307.2188 Q450.4688,307.5469 449.9688,308.2969 Q449.4844,309.0469 449.4844,310.0781 L449.4844,311.1719 Q449.4844,312.4063 450.375,313.2344 Q451.2656,314.0469 452.8594,314.0469 Q453.7969,314.0469 454.4531,313.7969 Q454.8438,313.6406 455.2656,313.2031 Q455.5313,312.9375 455.6719,312.8594 Q455.8281,312.7813 456.0313,312.7813 Q456.3594,312.7813 456.6094,313.0469 Q456.875,313.2969 456.875,313.6406 Q456.875,313.9844 456.5313,314.3906 Q456.0313,314.9688 455.2344,315.2969 Q454.1563,315.75 452.8594,315.75 Q451.3438,315.75 450.1406,315.125 Q449.1563,314.625 448.4688,313.5625 Q447.7813,312.4844 447.7813,311.2031 L447.7813,310.0469 Q447.7813,308.7188 448.3906,307.5781 Q449.0156,306.4219 450.1094,305.8125 Q451.2031,305.1875 452.4375,305.1875 Q453.1719,305.1875 453.8125,305.3594 Q454.4688,305.5156 455.0156,305.875 Z " fill="#000000"/><text fill="#000000" font-family="sans-serif" font-size="12" lengthAdjust="spacing" textLength="60" x="472.75" y="314.9102">Plataforma</text><line style="stroke:#A80036;stroke-width:1.5;" x1="356.5" x2="616.5" y1="326" y2="326"/><text fill="#000000" font-family="sans-serif" font-size="11" lengthAdjust="spacing" textLength="91" x="361.5" y="341.4189">-String designacao</text><line style="stroke:#A80036;stroke-width:1.5;" x1="356.5" x2="616.5" y1="347.8359" y2="347.8359"/><text fill="#000000" font-family="sans-serif" font-size="11" lengthAdjust="spacing" textLength="240" x="361.5" y="363.2549">+RegistoOrganizacoes getRegistoOrganizacoes()</text><text fill="#000000" font-family="sans-serif" font-size="11" lengthAdjust="spacing" textLength="250" x="361.5" y="377.0908">+RegistoTipoRegimento getRegistoTiposRegimento()</text><text fill="#000000" font-family="sans-serif" font-size="11" lengthAdjust="spacing" textLength="196" x="361.5" y="390.9268">+RegistoAnuncios getRegistoAnuncios()</text><!--MD5=[599021b52fcbb267fdd1ae8c4feac18d]
class RegistoTiposRegimento--><rect codeLine="35" fill="#FEFECE" filter="url(#f1rco4jso36tqi)" height="75.6719" id="RegistoTiposRegimento" style="stroke:#A80036;stroke-width:1.5;" width="253" x="580" y="608"/><ellipse cx="634.75" cy="624" fill="#ADD1B2" rx="11" ry="11" style="stroke:#A80036;stroke-width:1.0;"/><path d="M637.5156,619.875 Q637.6719,619.6563 637.8594,619.5469 Q638.0469,619.4375 638.2656,619.4375 Q638.6406,619.4375 638.875,619.7031 Q639.1094,619.9531 639.1094,620.5625 L639.1094,622.0156 Q639.1094,622.625 638.875,622.8906 Q638.6406,623.1563 638.2656,623.1563 Q637.9219,623.1563 637.7188,622.9531 Q637.5156,622.7656 637.4063,622.25 Q637.3594,621.8906 637.1719,621.7031 Q636.8438,621.3281 636.2344,621.1094 Q635.625,620.8906 635,620.8906 Q634.2344,620.8906 633.5938,621.2188 Q632.9688,621.5469 632.4688,622.2969 Q631.9844,623.0469 631.9844,624.0781 L631.9844,625.1719 Q631.9844,626.4063 632.875,627.2344 Q633.7656,628.0469 635.3594,628.0469 Q636.2969,628.0469 636.9531,627.7969 Q637.3438,627.6406 637.7656,627.2031 Q638.0313,626.9375 638.1719,626.8594 Q638.3281,626.7813 638.5313,626.7813 Q638.8594,626.7813 639.1094,627.0469 Q639.375,627.2969 639.375,627.6406 Q639.375,627.9844 639.0313,628.3906 Q638.5313,628.9688 637.7344,629.2969 Q636.6563,629.75 635.3594,629.75 Q633.8438,629.75 632.6406,629.125 Q631.6563,628.625 630.9688,627.5625 Q630.2813,626.4844 630.2813,625.2031 L630.2813,624.0469 Q630.2813,622.7188 630.8906,621.5781 Q631.5156,620.4219 632.6094,619.8125 Q633.7031,619.1875 634.9375,619.1875 Q635.6719,619.1875 636.3125,619.3594 Q636.9688,619.5156 637.5156,619.875 Z " fill="#000000"/><text fill="#000000" font-family="sans-serif" font-size="12" lengthAdjust="spacing" textLength="135" x="655.25" y="628.9102">RegistoTiposRegimento</text><line style="stroke:#A80036;stroke-width:1.5;" x1="581" x2="832" y1="640" y2="640"/><line style="stroke:#A80036;stroke-width:1.5;" x1="581" x2="832" y1="648" y2="648"/><text fill="#000000" font-family="sans-serif" font-size="11" lengthAdjust="spacing" textLength="207" x="586" y="663.4189">+List&lt;TipoRegimento&gt; getTiposRegimento()</text><text fill="#000000" font-family="sans-serif" font-size="11" lengthAdjust="spacing" textLength="241" x="586" y="677.2549">+TipoRegimento getTipoRegimentoByDesc(desTR)</text><!--MD5=[548bd8e9f0dc9261535ca7b7174ac939]
class RegistoOrganizacoes--><rect codeLine="40" fill="#FEFECE" filter="url(#f1rco4jso36tqi)" height="61.8359" id="RegistoOrganizacoes" style="stroke:#A80036;stroke-width:1.5;" width="273" x="7" y="495.5"/><ellipse cx="79.75" cy="511.5" fill="#ADD1B2" rx="11" ry="11" style="stroke:#A80036;stroke-width:1.0;"/><path d="M82.5156,507.375 Q82.6719,507.1563 82.8594,507.0469 Q83.0469,506.9375 83.2656,506.9375 Q83.6406,506.9375 83.875,507.2031 Q84.1094,507.4531 84.1094,508.0625 L84.1094,509.5156 Q84.1094,510.125 83.875,510.3906 Q83.6406,510.6563 83.2656,510.6563 Q82.9219,510.6563 82.7188,510.4531 Q82.5156,510.2656 82.4063,509.75 Q82.3594,509.3906 82.1719,509.2031 Q81.8438,508.8281 81.2344,508.6094 Q80.625,508.3906 80,508.3906 Q79.2344,508.3906 78.5938,508.7188 Q77.9688,509.0469 77.4688,509.7969 Q76.9844,510.5469 76.9844,511.5781 L76.9844,512.6719 Q76.9844,513.9063 77.875,514.7344 Q78.7656,515.5469 80.3594,515.5469 Q81.2969,515.5469 81.9531,515.2969 Q82.3438,515.1406 82.7656,514.7031 Q83.0313,514.4375 83.1719,514.3594 Q83.3281,514.2813 83.5313,514.2813 Q83.8594,514.2813 84.1094,514.5469 Q84.375,514.7969 84.375,515.1406 Q84.375,515.4844 84.0313,515.8906 Q83.5313,516.4688 82.7344,516.7969 Q81.6563,517.25 80.3594,517.25 Q78.8438,517.25 77.6406,516.625 Q76.6563,516.125 75.9688,515.0625 Q75.2813,513.9844 75.2813,512.7031 L75.2813,511.5469 Q75.2813,510.2188 75.8906,509.0781 Q76.5156,507.9219 77.6094,507.3125 Q78.7031,506.6875 79.9375,506.6875 Q80.6719,506.6875 81.3125,506.8594 Q81.9688,507.0156 82.5156,507.375 Z " fill="#000000"/><text fill="#000000" font-family="sans-serif" font-size="12" lengthAdjust="spacing" textLength="119" x="100.25" y="516.4102">RegistoOrganizacoes</text><line style="stroke:#A80036;stroke-width:1.5;" x1="8" x2="279" y1="527.5" y2="527.5"/><line style="stroke:#A80036;stroke-width:1.5;" x1="8" x2="279" y1="535.5" y2="535.5"/><text fill="#000000" font-family="sans-serif" font-size="11" lengthAdjust="spacing" textLength="261" x="13" y="550.9189">+Organizacao getOrganizacaoByEmailUtilizador(email)</text><!--MD5=[a7dddfa65532da486ef518ad0cedfd89]
class RegistoAnuncios--><rect codeLine="44" fill="#FEFECE" filter="url(#f1rco4jso36tqi)" height="103.3438" id="RegistoAnuncios" style="stroke:#A80036;stroke-width:1.5;" width="343" x="315" y="475"/><ellipse cx="435.25" cy="491" fill="#ADD1B2" rx="11" ry="11" style="stroke:#A80036;stroke-width:1.0;"/><path d="M438.0156,486.875 Q438.1719,486.6563 438.3594,486.5469 Q438.5469,486.4375 438.7656,486.4375 Q439.1406,486.4375 439.375,486.7031 Q439.6094,486.9531 439.6094,487.5625 L439.6094,489.0156 Q439.6094,489.625 439.375,489.8906 Q439.1406,490.1563 438.7656,490.1563 Q438.4219,490.1563 438.2188,489.9531 Q438.0156,489.7656 437.9063,489.25 Q437.8594,488.8906 437.6719,488.7031 Q437.3438,488.3281 436.7344,488.1094 Q436.125,487.8906 435.5,487.8906 Q434.7344,487.8906 434.0938,488.2188 Q433.4688,488.5469 432.9688,489.2969 Q432.4844,490.0469 432.4844,491.0781 L432.4844,492.1719 Q432.4844,493.4063 433.375,494.2344 Q434.2656,495.0469 435.8594,495.0469 Q436.7969,495.0469 437.4531,494.7969 Q437.8438,494.6406 438.2656,494.2031 Q438.5313,493.9375 438.6719,493.8594 Q438.8281,493.7813 439.0313,493.7813 Q439.3594,493.7813 439.6094,494.0469 Q439.875,494.2969 439.875,494.6406 Q439.875,494.9844 439.5313,495.3906 Q439.0313,495.9688 438.2344,496.2969 Q437.1563,496.75 435.8594,496.75 Q434.3438,496.75 433.1406,496.125 Q432.1563,495.625 431.4688,494.5625 Q430.7813,493.4844 430.7813,492.2031 L430.7813,491.0469 Q430.7813,489.7188 431.3906,488.5781 Q432.0156,487.4219 433.1094,486.8125 Q434.2031,486.1875 435.4375,486.1875 Q436.1719,486.1875 436.8125,486.3594 Q437.4688,486.5156 438.0156,486.875 Z " fill="#000000"/><text fill="#000000" font-family="sans-serif" font-size="12" lengthAdjust="spacing" textLength="94" x="455.75" y="495.9102">RegistoAnuncios</text><line style="stroke:#A80036;stroke-width:1.5;" x1="316" x2="657" y1="507" y2="507"/><line style="stroke:#A80036;stroke-width:1.5;" x1="316" x2="657" y1="515" y2="515"/><text fill="#000000" font-family="sans-serif" font-size="11" lengthAdjust="spacing" textLength="331" x="321" y="530.4189">+novoAnuncio(c,tarefa,dtIniP,dtFimP,dtIniC,dtFimC,dtIniS,dtFimS,regT)</text><text fill="#000000" font-family="sans-serif" font-size="11" lengthAdjust="spacing" textLength="100" x="321" y="544.2549">+validaAnuncio(anu)</text><text fill="#000000" font-family="sans-serif" font-size="11" lengthAdjust="spacing" textLength="105" x="321" y="558.0908">+registaAnuncio(anu)</text><text fill="#000000" font-family="sans-serif" font-size="11" lengthAdjust="spacing" textLength="88" x="321" y="571.9268">-addAnuncio(anu)</text><!--MD5=[19db0db7353a4bf63eefc676e5ba9b80]
class Anuncio--><rect codeLine="51" fill="#FEFECE" filter="url(#f1rco4jso36tqi)" height="144.8516" id="Anuncio" style="stroke:#A80036;stroke-width:1.5;" width="322" x="325.5" y="937"/><ellipse cx="460.25" cy="953" fill="#ADD1B2" rx="11" ry="11" style="stroke:#A80036;stroke-width:1.0;"/><path d="M463.0156,948.875 Q463.1719,948.6563 463.3594,948.5469 Q463.5469,948.4375 463.7656,948.4375 Q464.1406,948.4375 464.375,948.7031 Q464.6094,948.9531 464.6094,949.5625 L464.6094,951.0156 Q464.6094,951.625 464.375,951.8906 Q464.1406,952.1563 463.7656,952.1563 Q463.4219,952.1563 463.2188,951.9531 Q463.0156,951.7656 462.9063,951.25 Q462.8594,950.8906 462.6719,950.7031 Q462.3438,950.3281 461.7344,950.1094 Q461.125,949.8906 460.5,949.8906 Q459.7344,949.8906 459.0938,950.2188 Q458.4688,950.5469 457.9688,951.2969 Q457.4844,952.0469 457.4844,953.0781 L457.4844,954.1719 Q457.4844,955.4063 458.375,956.2344 Q459.2656,957.0469 460.8594,957.0469 Q461.7969,957.0469 462.4531,956.7969 Q462.8438,956.6406 463.2656,956.2031 Q463.5313,955.9375 463.6719,955.8594 Q463.8281,955.7813 464.0313,955.7813 Q464.3594,955.7813 464.6094,956.0469 Q464.875,956.2969 464.875,956.6406 Q464.875,956.9844 464.5313,957.3906 Q464.0313,957.9688 463.2344,958.2969 Q462.1563,958.75 460.8594,958.75 Q459.3438,958.75 458.1406,958.125 Q457.1563,957.625 456.4688,956.5625 Q455.7813,955.4844 455.7813,954.2031 L455.7813,953.0469 Q455.7813,951.7188 456.3906,950.5781 Q457.0156,949.4219 458.1094,948.8125 Q459.2031,948.1875 460.4375,948.1875 Q461.1719,948.1875 461.8125,948.3594 Q462.4688,948.5156 463.0156,948.875 Z " fill="#000000"/><text fill="#000000" font-family="sans-serif" font-size="12" lengthAdjust="spacing" textLength="44" x="480.75" y="957.9102">Anuncio</text><line style="stroke:#A80036;stroke-width:1.5;" x1="326.5" x2="646.5" y1="969" y2="969"/><text fill="#000000" font-family="sans-serif" font-size="11" lengthAdjust="spacing" textLength="119" x="331.5" y="984.4189">-Date dtInicioPublicitacao</text><text fill="#000000" font-family="sans-serif" font-size="11" lengthAdjust="spacing" textLength="111" x="331.5" y="998.2549">-Date dtFimPublicitacao</text><text fill="#000000" font-family="sans-serif" font-size="11" lengthAdjust="spacing" textLength="120" x="331.5" y="1012.0908">-Date dtInicioCandidatura</text><text fill="#000000" font-family="sans-serif" font-size="11" lengthAdjust="spacing" textLength="112" x="331.5" y="1025.9268">-Date dtFimCandidatura</text><text fill="#000000" font-family="sans-serif" font-size="11" lengthAdjust="spacing" textLength="105" x="331.5" y="1039.7627">-Date dtInicioSeriacao</text><text fill="#000000" font-family="sans-serif" font-size="11" lengthAdjust="spacing" textLength="97" x="331.5" y="1053.5986">-Date dtFimSeriacao</text><line style="stroke:#A80036;stroke-width:1.5;" x1="326.5" x2="646.5" y1="1060.0156" y2="1060.0156"/><text fill="#000000" font-family="sans-serif" font-size="11" lengthAdjust="spacing" textLength="310" x="331.5" y="1075.4346">+Anuncio(c, tarefa,dtIniP,dtFimP,dtIniC,dtFimC,dtIniS,dtFimS,regT)</text><!--MD5=[49160b288b1e83d57ecadd2105b8a895]
class PublicarTarefaController--><rect codeLine="61" fill="#FEFECE" filter="url(#f1rco4jso36tqi)" height="117.1797" id="PublicarTarefaController" style="stroke:#A80036;stroke-width:1.5;" width="311" x="331" y="116"/><ellipse cx="415.25" cy="132" fill="#ADD1B2" rx="11" ry="11" style="stroke:#A80036;stroke-width:1.0;"/><path d="M418.0156,127.875 Q418.1719,127.6563 418.3594,127.5469 Q418.5469,127.4375 418.7656,127.4375 Q419.1406,127.4375 419.375,127.7031 Q419.6094,127.9531 419.6094,128.5625 L419.6094,130.0156 Q419.6094,130.625 419.375,130.8906 Q419.1406,131.1563 418.7656,131.1563 Q418.4219,131.1563 418.2188,130.9531 Q418.0156,130.7656 417.9063,130.25 Q417.8594,129.8906 417.6719,129.7031 Q417.3438,129.3281 416.7344,129.1094 Q416.125,128.8906 415.5,128.8906 Q414.7344,128.8906 414.0938,129.2188 Q413.4688,129.5469 412.9688,130.2969 Q412.4844,131.0469 412.4844,132.0781 L412.4844,133.1719 Q412.4844,134.4063 413.375,135.2344 Q414.2656,136.0469 415.8594,136.0469 Q416.7969,136.0469 417.4531,135.7969 Q417.8438,135.6406 418.2656,135.2031 Q418.5313,134.9375 418.6719,134.8594 Q418.8281,134.7813 419.0313,134.7813 Q419.3594,134.7813 419.6094,135.0469 Q419.875,135.2969 419.875,135.6406 Q419.875,135.9844 419.5313,136.3906 Q419.0313,136.9688 418.2344,137.2969 Q417.1563,137.75 415.8594,137.75 Q414.3438,137.75 413.1406,137.125 Q412.1563,136.625 411.4688,135.5625 Q410.7813,134.4844 410.7813,133.2031 L410.7813,132.0469 Q410.7813,130.7188 411.3906,129.5781 Q412.0156,128.4219 413.1094,127.8125 Q414.2031,127.1875 415.4375,127.1875 Q416.1719,127.1875 416.8125,127.3594 Q417.4688,127.5156 418.0156,127.875 Z " fill="#000000"/><text fill="#000000" font-family="sans-serif" font-size="12" lengthAdjust="spacing" textLength="134" x="435.75" y="136.9102">PublicarTarefaController</text><line style="stroke:#A80036;stroke-width:1.5;" x1="332" x2="641" y1="148" y2="148"/><line style="stroke:#A80036;stroke-width:1.5;" x1="332" x2="641" y1="156" y2="156"/><text fill="#000000" font-family="sans-serif" font-size="11" lengthAdjust="spacing" textLength="127" x="337" y="171.4189">+getTarefasParaPublicar()</text><text fill="#000000" font-family="sans-serif" font-size="11" lengthAdjust="spacing" textLength="106" x="337" y="185.2549">+selecionaTarefa(ref)</text><text fill="#000000" font-family="sans-serif" font-size="11" lengthAdjust="spacing" textLength="105" x="337" y="199.0908">+getTiposRegimento()</text><text fill="#000000" font-family="sans-serif" font-size="11" lengthAdjust="spacing" textLength="299" x="337" y="212.9268">+novoAnuncio(dtIniP,dtFimP,dtIniC,dtFimC,dtIniS,dtFimS,desTR)</text><text fill="#000000" font-family="sans-serif" font-size="11" lengthAdjust="spacing" textLength="87" x="337" y="226.7627">+registaAnuncio()</text><!--MD5=[3e7906673e6ec71b773ae6790252fa25]
class PublicarTarefaUI--><rect codeLine="69" fill="#FEFECE" filter="url(#f1rco4jso36tqi)" height="48" id="PublicarTarefaUI" style="stroke:#A80036;stroke-width:1.5;" width="124" x="424.5" y="7"/><ellipse cx="439.5" cy="23" fill="#ADD1B2" rx="11" ry="11" style="stroke:#A80036;stroke-width:1.0;"/><path d="M442.2656,18.875 Q442.4219,18.6563 442.6094,18.5469 Q442.7969,18.4375 443.0156,18.4375 Q443.3906,18.4375 443.625,18.7031 Q443.8594,18.9531 443.8594,19.5625 L443.8594,21.0156 Q443.8594,21.625 443.625,21.8906 Q443.3906,22.1563 443.0156,22.1563 Q442.6719,22.1563 442.4688,21.9531 Q442.2656,21.7656 442.1563,21.25 Q442.1094,20.8906 441.9219,20.7031 Q441.5938,20.3281 440.9844,20.1094 Q440.375,19.8906 439.75,19.8906 Q438.9844,19.8906 438.3438,20.2188 Q437.7188,20.5469 437.2188,21.2969 Q436.7344,22.0469 436.7344,23.0781 L436.7344,24.1719 Q436.7344,25.4063 437.625,26.2344 Q438.5156,27.0469 440.1094,27.0469 Q441.0469,27.0469 441.7031,26.7969 Q442.0938,26.6406 442.5156,26.2031 Q442.7813,25.9375 442.9219,25.8594 Q443.0781,25.7813 443.2813,25.7813 Q443.6094,25.7813 443.8594,26.0469 Q444.125,26.2969 444.125,26.6406 Q444.125,26.9844 443.7813,27.3906 Q443.2813,27.9688 442.4844,28.2969 Q441.4063,28.75 440.1094,28.75 Q438.5938,28.75 437.3906,28.125 Q436.4063,27.625 435.7188,26.5625 Q435.0313,25.4844 435.0313,24.2031 L435.0313,23.0469 Q435.0313,21.7188 435.6406,20.5781 Q436.2656,19.4219 437.3594,18.8125 Q438.4531,18.1875 439.6875,18.1875 Q440.4219,18.1875 441.0625,18.3594 Q441.7188,18.5156 442.2656,18.875 Z " fill="#000000"/><text fill="#000000" font-family="sans-serif" font-size="12" lengthAdjust="spacing" textLength="92" x="453.5" y="27.9102">PublicarTarefaUI</text><line style="stroke:#A80036;stroke-width:1.5;" x1="425.5" x2="547.5" y1="39" y2="39"/><line style="stroke:#A80036;stroke-width:1.5;" x1="425.5" x2="547.5" y1="47" y2="47"/><!--MD5=[d0e9f237fb3c72e1245c36c562ad52c4]
class TipoRegimento--><rect fill="#FEFECE" filter="url(#f1rco4jso36tqi)" height="48" id="TipoRegimento" style="stroke:#A80036;stroke-width:1.5;" width="117" x="637" y="1208.5"/><ellipse cx="652" cy="1224.5" fill="#ADD1B2" rx="11" ry="11" style="stroke:#A80036;stroke-width:1.0;"/><path d="M654.7656,1220.375 Q654.9219,1220.1563 655.1094,1220.0469 Q655.2969,1219.9375 655.5156,1219.9375 Q655.8906,1219.9375 656.125,1220.2031 Q656.3594,1220.4531 656.3594,1221.0625 L656.3594,1222.5156 Q656.3594,1223.125 656.125,1223.3906 Q655.8906,1223.6563 655.5156,1223.6563 Q655.1719,1223.6563 654.9688,1223.4531 Q654.7656,1223.2656 654.6563,1222.75 Q654.6094,1222.3906 654.4219,1222.2031 Q654.0938,1221.8281 653.4844,1221.6094 Q652.875,1221.3906 652.25,1221.3906 Q651.4844,1221.3906 650.8438,1221.7188 Q650.2188,1222.0469 649.7188,1222.7969 Q649.2344,1223.5469 649.2344,1224.5781 L649.2344,1225.6719 Q649.2344,1226.9063 650.125,1227.7344 Q651.0156,1228.5469 652.6094,1228.5469 Q653.5469,1228.5469 654.2031,1228.2969 Q654.5938,1228.1406 655.0156,1227.7031 Q655.2813,1227.4375 655.4219,1227.3594 Q655.5781,1227.2813 655.7813,1227.2813 Q656.1094,1227.2813 656.3594,1227.5469 Q656.625,1227.7969 656.625,1228.1406 Q656.625,1228.4844 656.2813,1228.8906 Q655.7813,1229.4688 654.9844,1229.7969 Q653.9063,1230.25 652.6094,1230.25 Q651.0938,1230.25 649.8906,1229.625 Q648.9063,1229.125 648.2188,1228.0625 Q647.5313,1226.9844 647.5313,1225.7031 L647.5313,1224.5469 Q647.5313,1223.2188 648.1406,1222.0781 Q648.7656,1220.9219 649.8594,1220.3125 Q650.9531,1219.6875 652.1875,1219.6875 Q652.9219,1219.6875 653.5625,1219.8594 Q654.2188,1220.0156 654.7656,1220.375 Z " fill="#000000"/><text fill="#000000" font-family="sans-serif" font-size="12" lengthAdjust="spacing" textLength="85" x="666" y="1229.4102">TipoRegimento</text><line style="stroke:#A80036;stroke-width:1.5;" x1="638" x2="753" y1="1240.5" y2="1240.5"/><line style="stroke:#A80036;stroke-width:1.5;" x1="638" x2="753" y1="1248.5" y2="1248.5"/><!--MD5=[ac8682ea5466d223e49472789fb200d2]
class Colaborador--><rect fill="#FEFECE" filter="url(#f1rco4jso36tqi)" height="48" id="Colaborador" style="stroke:#A80036;stroke-width:1.5;" width="101" x="383" y="1383"/><ellipse cx="398" cy="1399" fill="#ADD1B2" rx="11" ry="11" style="stroke:#A80036;stroke-width:1.0;"/><path d="M400.7656,1394.875 Q400.9219,1394.6563 401.1094,1394.5469 Q401.2969,1394.4375 401.5156,1394.4375 Q401.8906,1394.4375 402.125,1394.7031 Q402.3594,1394.9531 402.3594,1395.5625 L402.3594,1397.0156 Q402.3594,1397.625 402.125,1397.8906 Q401.8906,1398.1563 401.5156,1398.1563 Q401.1719,1398.1563 400.9688,1397.9531 Q400.7656,1397.7656 400.6563,1397.25 Q400.6094,1396.8906 400.4219,1396.7031 Q400.0938,1396.3281 399.4844,1396.1094 Q398.875,1395.8906 398.25,1395.8906 Q397.4844,1395.8906 396.8438,1396.2188 Q396.2188,1396.5469 395.7188,1397.2969 Q395.2344,1398.0469 395.2344,1399.0781 L395.2344,1400.1719 Q395.2344,1401.4063 396.125,1402.2344 Q397.0156,1403.0469 398.6094,1403.0469 Q399.5469,1403.0469 400.2031,1402.7969 Q400.5938,1402.6406 401.0156,1402.2031 Q401.2813,1401.9375 401.4219,1401.8594 Q401.5781,1401.7813 401.7813,1401.7813 Q402.1094,1401.7813 402.3594,1402.0469 Q402.625,1402.2969 402.625,1402.6406 Q402.625,1402.9844 402.2813,1403.3906 Q401.7813,1403.9688 400.9844,1404.2969 Q399.9063,1404.75 398.6094,1404.75 Q397.0938,1404.75 395.8906,1404.125 Q394.9063,1403.625 394.2188,1402.5625 Q393.5313,1401.4844 393.5313,1400.2031 L393.5313,1399.0469 Q393.5313,1397.7188 394.1406,1396.5781 Q394.7656,1395.4219 395.8594,1394.8125 Q396.9531,1394.1875 398.1875,1394.1875 Q398.9219,1394.1875 399.5625,1394.3594 Q400.2188,1394.5156 400.7656,1394.875 Z " fill="#000000"/><text fill="#000000" font-family="sans-serif" font-size="12" lengthAdjust="spacing" textLength="69" x="412" y="1403.9102">Colaborador</text><line style="stroke:#A80036;stroke-width:1.5;" x1="384" x2="483" y1="1415" y2="1415"/><line style="stroke:#A80036;stroke-width:1.5;" x1="384" x2="483" y1="1423" y2="1423"/><!--MD5=[d132828030d04701e53932157c035d60]
link PublicarTarefaUI to PublicarTarefaController--><path codeLine="72" d="M486.5,55.05 C486.5,70.28 486.5,91.04 486.5,110.92 " fill="none" id="PublicarTarefaUI-to-PublicarTarefaController" style="stroke:#A80036;stroke-width:1.0;stroke-dasharray:7.0,7.0;"/><polygon fill="#A80036" points="486.5,115.95,490.5,106.95,486.5,110.95,482.5,106.95,486.5,115.95" style="stroke:#A80036;stroke-width:1.0;"/><!--MD5=[2d79cab53e2fc94844b84ea2998908e1]
link PublicarTarefaController to Plataforma--><path codeLine="73" d="M486.5,233.19 C486.5,251.04 486.5,270.67 486.5,288.41 " fill="none" id="PublicarTarefaController-to-Plataforma" style="stroke:#A80036;stroke-width:1.0;stroke-dasharray:7.0,7.0;"/><polygon fill="#A80036" points="486.5,293.85,490.5,284.85,486.5,288.85,482.5,284.85,486.5,293.85" style="stroke:#A80036;stroke-width:1.0;"/><!--MD5=[463821f61fd53759657c2ac769a7e835]
link Plataforma to RegistoAnuncios--><path codeLine="74" d="M486.5,397.32 C486.5,419.9 486.5,446.55 486.5,469.68 " fill="none" id="Plataforma-to-RegistoAnuncios" style="stroke:#A80036;stroke-width:1.0;"/><polygon fill="#A80036" points="486.5,474.87,490.5,465.87,486.5,469.87,482.5,465.87,486.5,474.87" style="stroke:#A80036;stroke-width:1.0;"/><text fill="#000000" font-family="sans-serif" font-size="13" lengthAdjust="spacing" textLength="22" x="487.5" y="441.4951">tem</text><text fill="#000000" font-family="sans-serif" font-size="13" lengthAdjust="spacing" textLength="7" x="479.0297" y="418.854">1</text><text fill="#000000" font-family="sans-serif" font-size="13" lengthAdjust="spacing" textLength="7" x="479.0078" y="463.9802">1</text><!--MD5=[f32982808aff924d3e77e68c8e585416]
link Plataforma to RegistoTiposRegimento--><path codeLine="75" d="M591.84,397.25 C623.28,417.3 654.83,443.24 675.5,475 C700.38,513.22 706.64,566 707.63,602.57 " fill="none" id="Plataforma-to-RegistoTiposRegimento" style="stroke:#A80036;stroke-width:1.0;"/><polygon fill="#A80036" points="707.73,607.84,711.5233,598.7509,707.6157,602.8413,703.5254,598.9338,707.73,607.84" style="stroke:#A80036;stroke-width:1.0;"/><text fill="#000000" font-family="sans-serif" font-size="13" lengthAdjust="spacing" textLength="22" x="651.5" y="441.4951">tem</text><text fill="#000000" font-family="sans-serif" font-size="13" lengthAdjust="spacing" textLength="7" x="598.5248" y="418.7745">1</text><text fill="#000000" font-family="sans-serif" font-size="13" lengthAdjust="spacing" textLength="7" x="700.3257" y="597.1734">1</text><!--MD5=[f474418f0299e5a3deeeaebedb6f44d3]
link Plataforma to RegistoOrganizacoes--><path codeLine="76" d="M389.59,397.08 C330.55,427.89 256.87,466.34 205.59,493.1 " fill="none" id="Plataforma-to-RegistoOrganizacoes" style="stroke:#A80036;stroke-width:1.0;"/><polygon fill="#A80036" points="201.01,495.49,210.8399,494.8797,205.4444,493.1801,207.1441,487.7846,201.01,495.49" style="stroke:#A80036;stroke-width:1.0;"/><text fill="#000000" font-family="sans-serif" font-size="13" lengthAdjust="spacing" textLength="22" x="326.5" y="441.4951">tem</text><text fill="#000000" font-family="sans-serif" font-size="13" lengthAdjust="spacing" textLength="7" x="368.4698" y="418.9541">1</text><text fill="#000000" font-family="sans-serif" font-size="13" lengthAdjust="spacing" textLength="7" x="205.8247" y="484.5081">1</text><!--MD5=[2903b91671052adea6f5e59eb6d59b42]
link RegistoAnuncios to Anuncio--><path codeLine="78" d="M486.5,578.07 C486.5,662.42 486.5,832.38 486.5,931.63 " fill="none" id="RegistoAnuncios-to-Anuncio" style="stroke:#A80036;stroke-width:1.0;"/><polygon fill="#A80036" points="486.5,936.89,490.5,927.89,486.5,931.89,482.5,927.89,486.5,936.89" style="stroke:#A80036;stroke-width:1.0;"/><text fill="#000000" font-family="sans-serif" font-size="13" lengthAdjust="spacing" textLength="48" x="487.5" y="791.9951">publicita</text><text fill="#000000" font-family="sans-serif" font-size="13" lengthAdjust="spacing" textLength="7" x="479.0078" y="599.9427">1</text><text fill="#000000" font-family="sans-serif" font-size="13" lengthAdjust="spacing" textLength="5" x="481.2422" y="926.098">*</text><!--MD5=[91ce51344d2c82f098c99e096ab9b054]
link RegistoTiposRegimento to TipoRegimento--><path codeLine="79" d="M705.8,684.01 C703.77,792.25 697.85,1106.7 696.03,1203.08 " fill="none" id="RegistoTiposRegimento-to-TipoRegimento" style="stroke:#A80036;stroke-width:1.0;"/><polygon fill="#A80036" points="695.94,1208.31,700.0937,1199.3799,696.0257,1203.3107,692.0949,1199.2428,695.94,1208.31" style="stroke:#A80036;stroke-width:1.0;"/><text fill="#000000" font-family="sans-serif" font-size="13" lengthAdjust="spacing" textLength="43" x="702.5" y="903.4951">suporta</text><text fill="#000000" font-family="sans-serif" font-size="13" lengthAdjust="spacing" textLength="7" x="698.1044" y="705.1818">1</text><text fill="#000000" font-family="sans-serif" font-size="13" lengthAdjust="spacing" textLength="5" x="690.4121" y="1197.6015">*</text><!--MD5=[7846c904d139ffad2e5d1ca294d8e188]
link RegistoOrganizacoes to Organizacao--><path codeLine="80" d="M145.83,557.6 C148.69,594.42 153.62,658.1 157.55,708.8 " fill="none" id="RegistoOrganizacoes-to-Organizacao" style="stroke:#A80036;stroke-width:1.0;"/><polygon fill="#A80036" points="157.96,713.98,161.2539,704.6983,157.5743,708.9949,153.2777,705.3153,157.96,713.98" style="stroke:#A80036;stroke-width:1.0;"/><text fill="#000000" font-family="sans-serif" font-size="13" lengthAdjust="spacing" textLength="86" x="156.5" y="651.4951">tem registadas</text><text fill="#000000" font-family="sans-serif" font-size="13" lengthAdjust="spacing" textLength="7" x="138.5997" y="578.8437">1</text><text fill="#000000" font-family="sans-serif" font-size="13" lengthAdjust="spacing" textLength="5" x="152.1309" y="703.1973">*</text><!--MD5=[fe36d68e6ccc9fbcf1b4b1ecbcfd2a3f]
link Organizacao to ListaTarefas--><path codeLine="82" d="M167.72,859.25 C169.8,894.64 172.24,936.09 174.02,966.32 " fill="none" id="Organizacao-to-ListaTarefas" style="stroke:#A80036;stroke-width:1.0;"/><polygon fill="#A80036" points="174.32,971.45,177.7985,962.2359,174.0339,966.4582,169.8116,962.6936,174.32,971.45" style="stroke:#A80036;stroke-width:1.0;"/><text fill="#000000" font-family="sans-serif" font-size="13" lengthAdjust="spacing" textLength="22" x="171.5" y="903.4951">tem</text><text fill="#000000" font-family="sans-serif" font-size="13" lengthAdjust="spacing" textLength="7" x="160.7886" y="880.4654">1</text><text fill="#000000" font-family="sans-serif" font-size="13" lengthAdjust="spacing" textLength="7" x="166.2728" y="960.5173">1</text><!--MD5=[d258da2d5a47e4c990d61ccbbbe86ed7]
link ListaTarefas to Tarefa--><path codeLine="83" d="M204.37,1047.54 C222.27,1071.23 246.1,1102.54 267.5,1130 C274.96,1139.57 282.87,1149.61 290.71,1159.5 " fill="none" id="ListaTarefas-to-Tarefa" style="stroke:#A80036;stroke-width:1.0;"/><polygon fill="#A80036" points="293.82,1163.42,291.385,1153.8769,290.7227,1159.4949,285.1048,1158.8326,293.82,1163.42" style="stroke:#A80036;stroke-width:1.0;"/><text fill="#000000" font-family="sans-serif" font-size="13" lengthAdjust="spacing" textLength="38" x="268.5" y="1126.4951">possui</text><text fill="#000000" font-family="sans-serif" font-size="13" lengthAdjust="spacing" textLength="7" x="201.4063" y="1068.7168">1</text><text fill="#000000" font-family="sans-serif" font-size="13" lengthAdjust="spacing" textLength="5" x="281.1364" y="1150.5911">*</text><!--MD5=[ebe0b2adceebb6ee2636cb1948c7c8a9]
link Tarefa to Colaborador--><path codeLine="85" d="M356.51,1305.09 C360.37,1321.57 366.07,1338.5 374.5,1353 C380.15,1362.72 388.2,1371.63 396.54,1379.26 " fill="none" id="Tarefa-to-Colaborador" style="stroke:#A80036;stroke-width:1.0;"/><polygon fill="#A80036" points="400.65,1382.9,396.5638,1373.9388,396.9067,1379.5853,391.2602,1379.9282,400.65,1382.9" style="stroke:#A80036;stroke-width:1.0;"/><text fill="#000000" font-family="sans-serif" font-size="13" lengthAdjust="spacing" textLength="94" x="375.5" y="1349.4951">especificada por</text><text fill="#000000" font-family="sans-serif" font-size="13" lengthAdjust="spacing" textLength="5" x="352.0352" y="1326.2902">*</text><text fill="#000000" font-family="sans-serif" font-size="13" lengthAdjust="spacing" textLength="7" x="384.3353" y="1372.2145">1</text><!--MD5=[439a6ad1de0b5aa57a973cae1bf36ce5]
link Anuncio to Tarefa--><path codeLine="87" d="M344.53,1082.04 C335.54,1091.03 327.65,1100.99 321.5,1112 C314.18,1125.09 312.94,1140.04 314.99,1154.83 " fill="none" id="Anuncio-to-Tarefa" style="stroke:#A80036;stroke-width:1.0;"/><polygon fill="#A80036" points="315.81,1159.84,318.2894,1150.3083,314.995,1154.9069,310.3964,1151.6124,315.81,1159.84" style="stroke:#A80036;stroke-width:1.0;"/><text fill="#000000" font-family="sans-serif" font-size="13" lengthAdjust="spacing" textLength="48" x="322.5" y="1126.4951">publicita</text><text fill="#000000" font-family="sans-serif" font-size="13" lengthAdjust="spacing" textLength="22" x="307.95" y="1103.2354">0..1</text><text fill="#000000" font-family="sans-serif" font-size="13" lengthAdjust="spacing" textLength="7" x="305.0779" y="1149.0428">1</text><!--MD5=[4eb4fec7757cdb084f5153b8189a0ca2]
reverse link Anuncio to Tarefa--><path codeLine="88" d="M428.54,1086.37 C422.6,1094.89 416.81,1103.55 411.5,1112 C402.02,1127.09 392.62,1143.76 384.08,1159.73 " fill="none" id="Anuncio-backto-Tarefa" style="stroke:#A80036;stroke-width:1.0;"/><polygon fill="#A80036" points="431.46,1082.2,423.0207,1087.2773,428.5917,1086.2955,429.5735,1091.8665,431.46,1082.2" style="stroke:#A80036;stroke-width:1.0;"/><text fill="#000000" font-family="sans-serif" font-size="13" lengthAdjust="spacing" textLength="57" x="412.5" y="1126.4951">dá origem</text><text fill="#000000" font-family="sans-serif" font-size="13" lengthAdjust="spacing" textLength="22" x="403.1656" y="1103.4107">0..1</text><text fill="#000000" font-family="sans-serif" font-size="13" lengthAdjust="spacing" textLength="7" x="380.3882" y="1148.9215">1</text><!--MD5=[3fb03004f687adcfc695220fdd65ad26]
link Anuncio to TipoRegimento--><path codeLine="89" d="M554.36,1082.25 C593.82,1123.99 641.28,1174.17 669.88,1204.41 " fill="none" id="Anuncio-to-TipoRegimento" style="stroke:#A80036;stroke-width:1.0;"/><polygon fill="#A80036" points="673.62,1208.36,670.327,1199.078,670.1785,1204.7329,664.5236,1204.5844,673.62,1208.36" style="stroke:#A80036;stroke-width:1.0;"/><text fill="#000000" font-family="sans-serif" font-size="13" lengthAdjust="spacing" textLength="65" x="597.5" y="1126.4951">rege-se por</text><text fill="#000000" font-family="sans-serif" font-size="13" lengthAdjust="spacing" textLength="5" x="555.5896" y="1103.4654">*</text><text fill="#000000" font-family="sans-serif" font-size="13" lengthAdjust="spacing" textLength="7" x="660.1164" y="1197.6643">1</text><!--MD5=[0a535575571876f6213287bf563a867d]
link Anuncio to Colaborador--><path codeLine="90" d="M496.45,1082.1 C503.48,1153.11 506.7,1263.89 474.5,1353 C471.2,1362.14 465.69,1370.96 459.76,1378.69 " fill="none" id="Anuncio-to-Colaborador" style="stroke:#A80036;stroke-width:1.0;"/><polygon fill="#A80036" points="456.43,1382.87,465.1636,1378.3176,459.543,1378.9573,458.9033,1373.3367,456.43,1382.87" style="stroke:#A80036;stroke-width:1.0;"/><text fill="#000000" font-family="sans-serif" font-size="13" lengthAdjust="spacing" textLength="77" x="502.5" y="1237.9951">publicado por</text><text fill="#000000" font-family="sans-serif" font-size="13" lengthAdjust="spacing" textLength="5" x="492.1601" y="1103.3011">*</text><text fill="#000000" font-family="sans-serif" font-size="13" lengthAdjust="spacing" textLength="7" x="454.4089" y="1372.1768">1</text><!--MD5=[75a2eec9c34d5ddda96c176a319ae763]
@startuml
skinparam classAttributeIconSize 0

class Organizacao {
  -String nome
  -String NIF
  -String website
  -String telefone
  -String email
  +ListaTarefas getListaTarefas()
  +Colaborador getColaboradorByEmail(email)
}

class ListaTarefas {
  +List<Tarefa> getTarefaParaPublicar(c)
  +Tarefa getTarefaParaPublicarByRef(ref, c)
}

class Tarefa {
  -String referencia
  -String designacao
  -String descInformal
  -String descTecnica
  -Integer duracaoEst
  -Double custoEst
  +publicar(anu)
}

class Plataforma {
  -String designacao
  +RegistoOrganizacoes getRegistoOrganizacoes()
  +RegistoTipoRegimento getRegistoTiposRegimento()
  +RegistoAnuncios getRegistoAnuncios()
}

class RegistoTiposRegimento {
  +List<TipoRegimento> getTiposRegimento()
  +TipoRegimento getTipoRegimentoByDesc(desTR)
}

class RegistoOrganizacoes {
  +Organizacao getOrganizacaoByEmailUtilizador(email)
}

class RegistoAnuncios {
  +novoAnuncio(c,tarefa,dtIniP,dtFimP,dtIniC,dtFimC,dtIniS,dtFimS,regT)
  +validaAnuncio(anu)
  +registaAnuncio(anu)
  -addAnuncio(anu)
}

class Anuncio {
  -Date dtInicioPublicitacao
  -Date dtFimPublicitacao
  -Date dtInicioCandidatura
  -Date dtFimCandidatura
  -Date dtInicioSeriacao
  -Date dtFimSeriacao
  +Anuncio(c, tarefa,dtIniP,dtFimP,dtIniC,dtFimC,dtIniS,dtFimS,regT)
}

class PublicarTarefaController {
  +getTarefasParaPublicar()
  +selecionaTarefa(ref)
  +getTiposRegimento()
  +novoAnuncio(dtIniP,dtFimP,dtIniC,dtFimC,dtIniS,dtFimS,desTR)
  +registaAnuncio()
}

class PublicarTarefaUI {
}

PublicarTarefaUI ..> PublicarTarefaController
PublicarTarefaController ..> Plataforma
Plataforma "1" - -> "1" RegistoAnuncios : tem
Plataforma "1" - -> "1" RegistoTiposRegimento : tem
Plataforma "1" - -> "1" RegistoOrganizacoes : tem

RegistoAnuncios "1" - -> "*" Anuncio : publicita
RegistoTiposRegimento "1" - -> "*" TipoRegimento : suporta
RegistoOrganizacoes "1" - -> "*" Organizacao : tem registadas

Organizacao "1" - -> "1" ListaTarefas: tem
ListaTarefas "1" - -> "*" Tarefa: possui

Tarefa "*" - -> "1" Colaborador: especificada por

Anuncio "0..1" - -> "1" Tarefa: publicita
Anuncio "0..1" <- - "1" Tarefa: dá origem
Anuncio "*" - -> "1" TipoRegimento: rege-se por
Anuncio "*" - -> "1" Colaborador: publicado por

@enduml

PlantUML version 1.2021.00(Sun Jan 10 10:25:05 WET 2021)
(GPL source distribution)
Java Runtime: Java(TM) SE Runtime Environment
JVM: Java HotSpot(TM) 64-Bit Server VM
Default Encoding: Cp1252
Language: pt
Country: PT
--></g></svg>