<?xml version="1.0" encoding="UTF-8" standalone="no"?><svg xmlns="http://www.w3.org/2000/svg" xmlns:xlink="http://www.w3.org/1999/xlink" contentScriptType="application/ecmascript" contentStyleType="text/css" height="900px" preserveAspectRatio="none" style="width:2298px;height:900px;" version="1.1" viewBox="0 0 2298 900" width="2298px" zoomAndPan="magnify"><defs><filter height="300%" id="f1bexcyhpb80yq" width="300%" x="-1" y="-1"><feGaussianBlur result="blurOut" stdDeviation="2.0"/><feColorMatrix in="blurOut" result="blurOut2" type="matrix" values="0 0 0 0 0 0 0 0 0 0 0 0 0 0 0 0 0 0 .4 0"/><feOffset dx="4.0" dy="4.0" in="blurOut2" result="blurOut3"/><feBlend in="SourceGraphic" in2="blurOut3" mode="normal"/></filter></defs><g><rect fill="#FFFFFF" filter="url(#f1bexcyhpb80yq)" height="708.877" style="stroke:#A80036;stroke-width:1.0;" width="10" x="102.5" y="98.4883"/><rect fill="#FFFFFF" filter="url(#f1bexcyhpb80yq)" height="177.8633" style="stroke:#A80036;stroke-width:1.0;" width="10" x="593.5" y="119.7988"/><rect fill="#FFFFFF" filter="url(#f1bexcyhpb80yq)" height="446.3926" style="stroke:#A80036;stroke-width:1.0;" width="10" x="593.5" y="351.9727"/><rect fill="#FFFFFF" filter="url(#f1bexcyhpb80yq)" height="88.6211" style="stroke:#A80036;stroke-width:1.0;" width="10" x="1150.5" y="149.1094"/><rect fill="#FFFFFF" filter="url(#f1bexcyhpb80yq)" height="59.3105" style="stroke:#A80036;stroke-width:1.0;" width="10" x="1150.5" y="381.2832"/><rect fill="#FFFFFF" filter="url(#f1bexcyhpb80yq)" height="88.6211" style="stroke:#A80036;stroke-width:1.0;" width="10" x="1150.5" y="469.9043"/><rect fill="#FFFFFF" filter="url(#f1bexcyhpb80yq)" height="150.5977" style="stroke:#A80036;stroke-width:1.0;" width="10" x="1150.5" y="618.457"/><rect fill="#FFFFFF" filter="url(#f1bexcyhpb80yq)" height="59.3105" style="stroke:#A80036;stroke-width:1.0;" width="10" x="1387.5" y="178.4199"/><rect fill="#FFFFFF" filter="url(#f1bexcyhpb80yq)" height="30" style="stroke:#A80036;stroke-width:1.0;" width="10" x="1539.5" y="410.5938"/><rect fill="#FFFFFF" filter="url(#f1bexcyhpb80yq)" height="59.3105" style="stroke:#A80036;stroke-width:1.0;" width="10" x="1661" y="499.2148"/><rect fill="#FFFFFF" filter="url(#f1bexcyhpb80yq)" height="59.3105" style="stroke:#A80036;stroke-width:1.0;" width="10" x="1907.5" y="709.7441"/><rect fill="#FFFFFF" filter="url(#f1bexcyhpb80yq)" height="30" style="stroke:#A80036;stroke-width:1.0;" width="10" x="2059" y="207.7305"/><rect fill="#FFFFFF" filter="url(#f1bexcyhpb80yq)" height="30" style="stroke:#A80036;stroke-width:1.0;" width="10" x="2167.5" y="528.5254"/><rect fill="#FFFFFF" filter="url(#f1bexcyhpb80yq)" height="30" style="stroke:#A80036;stroke-width:1.0;" width="10" x="2252" y="739.0547"/><line style="stroke:#A80036;stroke-width:1.0;stroke-dasharray:5.0,5.0;" x1="107" x2="107" y1="88.4883" y2="816.3652"/><line style="stroke:#A80036;stroke-width:1.0;stroke-dasharray:5.0,5.0;" x1="598" x2="598" y1="88.4883" y2="816.3652"/><line style="stroke:#A80036;stroke-width:1.0;stroke-dasharray:5.0,5.0;" x1="1155" x2="1155" y1="88.4883" y2="816.3652"/><line style="stroke:#A80036;stroke-width:1.0;stroke-dasharray:5.0,5.0;" x1="1392.5" x2="1392.5" y1="88.4883" y2="816.3652"/><line style="stroke:#A80036;stroke-width:1.0;stroke-dasharray:5.0,5.0;" x1="1544.5" x2="1544.5" y1="88.4883" y2="816.3652"/><line style="stroke:#A80036;stroke-width:1.0;stroke-dasharray:5.0,5.0;" x1="1665.5" x2="1665.5" y1="88.4883" y2="816.3652"/><line style="stroke:#A80036;stroke-width:1.0;stroke-dasharray:5.0,5.0;" x1="1785.5" x2="1785.5" y1="667.4453" y2="816.3652"/><line style="stroke:#A80036;stroke-width:1.0;stroke-dasharray:5.0,5.0;" x1="1912.5" x2="1912.5" y1="88.4883" y2="816.3652"/><line style="stroke:#A80036;stroke-width:1.0;stroke-dasharray:5.0,5.0;" x1="2063.5" x2="2063.5" y1="88.4883" y2="816.3652"/><line style="stroke:#A80036;stroke-width:1.0;stroke-dasharray:5.0,5.0;" x1="2172.5" x2="2172.5" y1="88.4883" y2="816.3652"/><line style="stroke:#A80036;stroke-width:1.0;stroke-dasharray:5.0,5.0;" x1="2256.5" x2="2256.5" y1="88.4883" y2="816.3652"/><text fill="#000000" font-family="sans-serif" font-size="14" lengthAdjust="spacing" textLength="199" x="5" y="85.5352">Colaborador de Organização</text><ellipse cx="107.5" cy="15" fill="#FEFECE" filter="url(#f1bexcyhpb80yq)" rx="8" ry="8" style="stroke:#A80036;stroke-width:2.0;"/><path d="M107.5,23 L107.5,50 M94.5,31 L120.5,31 M107.5,50 L94.5,65 M107.5,50 L120.5,65 " fill="none" filter="url(#f1bexcyhpb80yq)" style="stroke:#A80036;stroke-width:2.0;"/><text fill="#000000" font-family="sans-serif" font-size="14" lengthAdjust="spacing" textLength="199" x="5" y="828.9004">Colaborador de Organização</text><ellipse cx="107.5" cy="841.8535" fill="#FEFECE" filter="url(#f1bexcyhpb80yq)" rx="8" ry="8" style="stroke:#A80036;stroke-width:2.0;"/><path d="M107.5,849.8535 L107.5,876.8535 M94.5,857.8535 L120.5,857.8535 M107.5,876.8535 L94.5,891.8535 M107.5,876.8535 L120.5,891.8535 " fill="none" filter="url(#f1bexcyhpb80yq)" style="stroke:#A80036;stroke-width:2.0;"/><rect fill="#FEFECE" filter="url(#f1bexcyhpb80yq)" height="30.4883" style="stroke:#A80036;stroke-width:1.5;" width="155" x="519" y="53"/><text fill="#000000" font-family="sans-serif" font-size="14" lengthAdjust="spacing" textLength="141" x="526" y="73.5352">:AdicionarAnuncioUI</text><rect fill="#FEFECE" filter="url(#f1bexcyhpb80yq)" height="30.4883" style="stroke:#A80036;stroke-width:1.5;" width="155" x="519" y="815.3652"/><text fill="#000000" font-family="sans-serif" font-size="14" lengthAdjust="spacing" textLength="141" x="526" y="835.9004">:AdicionarAnuncioUI</text><rect fill="#FEFECE" filter="url(#f1bexcyhpb80yq)" height="30.4883" style="stroke:#A80036;stroke-width:1.5;" width="201" x="1053" y="53"/><text fill="#000000" font-family="sans-serif" font-size="14" lengthAdjust="spacing" textLength="187" x="1060" y="73.5352">:RegistarAnuncioController</text><rect fill="#FEFECE" filter="url(#f1bexcyhpb80yq)" height="30.4883" style="stroke:#A80036;stroke-width:1.5;" width="201" x="1053" y="815.3652"/><text fill="#000000" font-family="sans-serif" font-size="14" lengthAdjust="spacing" textLength="187" x="1060" y="835.9004">:RegistarAnuncioController</text><rect fill="#FEFECE" filter="url(#f1bexcyhpb80yq)" height="30.4883" style="stroke:#A80036;stroke-width:1.5;" width="198" x="1291.5" y="53"/><text fill="#000000" font-family="sans-serif" font-size="14" lengthAdjust="spacing" textLength="184" x="1298.5" y="73.5352">RepositorioTipoRegimento</text><rect fill="#FEFECE" filter="url(#f1bexcyhpb80yq)" height="30.4883" style="stroke:#A80036;stroke-width:1.5;" width="198" x="1291.5" y="815.3652"/><text fill="#000000" font-family="sans-serif" font-size="14" lengthAdjust="spacing" textLength="184" x="1298.5" y="835.9004">RepositorioTipoRegimento</text><rect fill="#FEFECE" filter="url(#f1bexcyhpb80yq)" height="30.4883" style="stroke:#A80036;stroke-width:1.5;" width="78" x="1503.5" y="53"/><text fill="#000000" font-family="sans-serif" font-size="14" lengthAdjust="spacing" textLength="64" x="1510.5" y="73.5352">:UsersAPI</text><rect fill="#FEFECE" filter="url(#f1bexcyhpb80yq)" height="30.4883" style="stroke:#A80036;stroke-width:1.5;" width="78" x="1503.5" y="815.3652"/><text fill="#000000" font-family="sans-serif" font-size="14" lengthAdjust="spacing" textLength="64" x="1510.5" y="835.9004">:UsersAPI</text><rect fill="#FEFECE" filter="url(#f1bexcyhpb80yq)" height="30.4883" style="stroke:#A80036;stroke-width:1.5;" width="137" x="1595.5" y="53"/><text fill="#000000" font-family="sans-serif" font-size="14" lengthAdjust="spacing" textLength="123" x="1602.5" y="73.5352">RepositorioTarefa</text><rect fill="#FEFECE" filter="url(#f1bexcyhpb80yq)" height="30.4883" style="stroke:#A80036;stroke-width:1.5;" width="137" x="1595.5" y="815.3652"/><text fill="#000000" font-family="sans-serif" font-size="14" lengthAdjust="spacing" textLength="123" x="1602.5" y="835.9004">RepositorioTarefa</text><rect fill="#FEFECE" filter="url(#f1bexcyhpb80yq)" height="46.9766" style="stroke:#A80036;stroke-width:1.5;" width="75" x="1746.5" y="815.3652"/><text fill="#000000" font-family="sans-serif" font-size="14" lengthAdjust="spacing" textLength="26" x="1771" y="835.9004">anu</text><text fill="#000000" font-family="sans-serif" font-size="14" lengthAdjust="spacing" textLength="61" x="1753.5" y="852.3887">:Anuncio</text><rect fill="#FEFECE" filter="url(#f1bexcyhpb80yq)" height="30.4883" style="stroke:#A80036;stroke-width:1.5;" width="150" x="1835.5" y="53"/><text fill="#000000" font-family="sans-serif" font-size="14" lengthAdjust="spacing" textLength="136" x="1842.5" y="73.5352">RepositorioAnuncio</text><rect fill="#FEFECE" filter="url(#f1bexcyhpb80yq)" height="30.4883" style="stroke:#A80036;stroke-width:1.5;" width="150" x="1835.5" y="815.3652"/><text fill="#000000" font-family="sans-serif" font-size="14" lengthAdjust="spacing" textLength="136" x="1842.5" y="835.9004">RepositorioAnuncio</text><text fill="#000000" font-family="sans-serif" font-size="14" lengthAdjust="spacing" textLength="123" x="1999.5" y="85.5352">TipoRegimentoDB</text><path d="M2046,36 C2046,26 2064,26 2064,26 C2064,26 2082,26 2082,36 L2082,62 C2082,72 2064,72 2064,72 C2064,72 2046,72 2046,62 L2046,36 " fill="#FEFECE" filter="url(#f1bexcyhpb80yq)" style="stroke:#000000;stroke-width:1.5;"/><path d="M2046,36 C2046,46 2064,46 2064,46 C2064,46 2082,46 2082,36 " fill="none" style="stroke:#000000;stroke-width:1.5;"/><text fill="#000000" font-family="sans-serif" font-size="14" lengthAdjust="spacing" textLength="123" x="1999.5" y="828.9004">TipoRegimentoDB</text><path d="M2046,841.8535 C2046,831.8535 2064,831.8535 2064,831.8535 C2064,831.8535 2082,831.8535 2082,841.8535 L2082,867.8535 C2082,877.8535 2064,877.8535 2064,877.8535 C2064,877.8535 2046,877.8535 2046,867.8535 L2046,841.8535 " fill="#FEFECE" filter="url(#f1bexcyhpb80yq)" style="stroke:#000000;stroke-width:1.5;"/><path d="M2046,841.8535 C2046,851.8535 2064,851.8535 2064,851.8535 C2064,851.8535 2082,851.8535 2082,841.8535 " fill="none" style="stroke:#000000;stroke-width:1.5;"/><text fill="#000000" font-family="sans-serif" font-size="14" lengthAdjust="spacing" textLength="62" x="2138.5" y="85.5352">TarefaDB</text><path d="M2154.5,36 C2154.5,26 2172.5,26 2172.5,26 C2172.5,26 2190.5,26 2190.5,36 L2190.5,62 C2190.5,72 2172.5,72 2172.5,72 C2172.5,72 2154.5,72 2154.5,62 L2154.5,36 " fill="#FEFECE" filter="url(#f1bexcyhpb80yq)" style="stroke:#000000;stroke-width:1.5;"/><path d="M2154.5,36 C2154.5,46 2172.5,46 2172.5,46 C2172.5,46 2190.5,46 2190.5,36 " fill="none" style="stroke:#000000;stroke-width:1.5;"/><text fill="#000000" font-family="sans-serif" font-size="14" lengthAdjust="spacing" textLength="62" x="2138.5" y="828.9004">TarefaDB</text><path d="M2154.5,841.8535 C2154.5,831.8535 2172.5,831.8535 2172.5,831.8535 C2172.5,831.8535 2190.5,831.8535 2190.5,841.8535 L2190.5,867.8535 C2190.5,877.8535 2172.5,877.8535 2172.5,877.8535 C2172.5,877.8535 2154.5,877.8535 2154.5,867.8535 L2154.5,841.8535 " fill="#FEFECE" filter="url(#f1bexcyhpb80yq)" style="stroke:#000000;stroke-width:1.5;"/><path d="M2154.5,841.8535 C2154.5,851.8535 2172.5,851.8535 2172.5,851.8535 C2172.5,851.8535 2190.5,851.8535 2190.5,841.8535 " fill="none" style="stroke:#000000;stroke-width:1.5;"/><text fill="#000000" font-family="sans-serif" font-size="14" lengthAdjust="spacing" textLength="75" x="2216.5" y="85.5352">AnuncioDB</text><path d="M2239,36 C2239,26 2257,26 2257,26 C2257,26 2275,26 2275,36 L2275,62 C2275,72 2257,72 2257,72 C2257,72 2239,72 2239,62 L2239,36 " fill="#FEFECE" filter="url(#f1bexcyhpb80yq)" style="stroke:#000000;stroke-width:1.5;"/><path d="M2239,36 C2239,46 2257,46 2257,46 C2257,46 2275,46 2275,36 " fill="none" style="stroke:#000000;stroke-width:1.5;"/><text fill="#000000" font-family="sans-serif" font-size="14" lengthAdjust="spacing" textLength="75" x="2216.5" y="828.9004">AnuncioDB</text><path d="M2239,841.8535 C2239,831.8535 2257,831.8535 2257,831.8535 C2257,831.8535 2275,831.8535 2275,841.8535 L2275,867.8535 C2275,877.8535 2257,877.8535 2257,877.8535 C2257,877.8535 2239,877.8535 2239,867.8535 L2239,841.8535 " fill="#FEFECE" filter="url(#f1bexcyhpb80yq)" style="stroke:#000000;stroke-width:1.5;"/><path d="M2239,841.8535 C2239,851.8535 2257,851.8535 2257,851.8535 C2257,851.8535 2275,851.8535 2275,841.8535 " fill="none" style="stroke:#000000;stroke-width:1.5;"/><rect fill="#FFFFFF" filter="url(#f1bexcyhpb80yq)" height="708.877" style="stroke:#A80036;stroke-width:1.0;" width="10" x="102.5" y="98.4883"/><rect fill="#FFFFFF" filter="url(#f1bexcyhpb80yq)" height="177.8633" style="stroke:#A80036;stroke-width:1.0;" width="10" x="593.5" y="119.7988"/><rect fill="#FFFFFF" filter="url(#f1bexcyhpb80yq)" height="446.3926" style="stroke:#A80036;stroke-width:1.0;" width="10" x="593.5" y="351.9727"/><rect fill="#FFFFFF" filter="url(#f1bexcyhpb80yq)" height="88.6211" style="stroke:#A80036;stroke-width:1.0;" width="10" x="1150.5" y="149.1094"/><rect fill="#FFFFFF" filter="url(#f1bexcyhpb80yq)" height="59.3105" style="stroke:#A80036;stroke-width:1.0;" width="10" x="1150.5" y="381.2832"/><rect fill="#FFFFFF" filter="url(#f1bexcyhpb80yq)" height="88.6211" style="stroke:#A80036;stroke-width:1.0;" width="10" x="1150.5" y="469.9043"/><rect fill="#FFFFFF" filter="url(#f1bexcyhpb80yq)" height="150.5977" style="stroke:#A80036;stroke-width:1.0;" width="10" x="1150.5" y="618.457"/><rect fill="#FFFFFF" filter="url(#f1bexcyhpb80yq)" height="59.3105" style="stroke:#A80036;stroke-width:1.0;" width="10" x="1387.5" y="178.4199"/><rect fill="#FFFFFF" filter="url(#f1bexcyhpb80yq)" height="30" style="stroke:#A80036;stroke-width:1.0;" width="10" x="1539.5" y="410.5938"/><rect fill="#FFFFFF" filter="url(#f1bexcyhpb80yq)" height="59.3105" style="stroke:#A80036;stroke-width:1.0;" width="10" x="1661" y="499.2148"/><rect fill="#FFFFFF" filter="url(#f1bexcyhpb80yq)" height="59.3105" style="stroke:#A80036;stroke-width:1.0;" width="10" x="1907.5" y="709.7441"/><rect fill="#FFFFFF" filter="url(#f1bexcyhpb80yq)" height="30" style="stroke:#A80036;stroke-width:1.0;" width="10" x="2059" y="207.7305"/><rect fill="#FFFFFF" filter="url(#f1bexcyhpb80yq)" height="30" style="stroke:#A80036;stroke-width:1.0;" width="10" x="2167.5" y="528.5254"/><rect fill="#FFFFFF" filter="url(#f1bexcyhpb80yq)" height="30" style="stroke:#A80036;stroke-width:1.0;" width="10" x="2252" y="739.0547"/><polygon fill="#A80036" points="581.5,115.7988,591.5,119.7988,581.5,123.7988,585.5,119.7988" style="stroke:#A80036;stroke-width:1.0;"/><line style="stroke:#A80036;stroke-width:1.0;" x1="112.5" x2="587.5" y1="119.7988" y2="119.7988"/><text fill="#000000" font-family="sans-serif" font-size="13" font-weight="bold" lengthAdjust="spacing" textLength="9" x="119.5" y="115.0566">1</text><text fill="#000000" font-family="sans-serif" font-size="13" lengthAdjust="spacing" textLength="275" x="132.5" y="115.0566">inicia a publicação selecionando uma tarefa</text><polygon fill="#A80036" points="1138.5,145.1094,1148.5,149.1094,1138.5,153.1094,1142.5,149.1094" style="stroke:#A80036;stroke-width:1.0;"/><line style="stroke:#A80036;stroke-width:1.0;" x1="603.5" x2="1144.5" y1="149.1094" y2="149.1094"/><text fill="#000000" font-family="sans-serif" font-size="13" font-weight="bold" lengthAdjust="spacing" textLength="9" x="610.5" y="144.3672">2</text><text fill="#000000" font-family="sans-serif" font-size="13" lengthAdjust="spacing" textLength="259" x="623.5" y="144.3672">list1 = getAllTipoRegimentoDesignacao()</text><polygon fill="#A80036" points="1375.5,174.4199,1385.5,178.4199,1375.5,182.4199,1379.5,178.4199" style="stroke:#A80036;stroke-width:1.0;"/><line style="stroke:#A80036;stroke-width:1.0;" x1="1160.5" x2="1381.5" y1="178.4199" y2="178.4199"/><text fill="#000000" font-family="sans-serif" font-size="13" font-weight="bold" lengthAdjust="spacing" textLength="9" x="1167.5" y="173.6777">3</text><text fill="#000000" font-family="sans-serif" font-size="13" lengthAdjust="spacing" textLength="195" x="1180.5" y="173.6777">getRepositorioTipoRegimento()</text><polygon fill="#A80036" points="2047,203.7305,2057,207.7305,2047,211.7305,2051,207.7305" style="stroke:#A80036;stroke-width:1.0;"/><line style="stroke:#A80036;stroke-width:1.0;" x1="1397.5" x2="2053" y1="207.7305" y2="207.7305"/><text fill="#000000" font-family="sans-serif" font-size="13" font-weight="bold" lengthAdjust="spacing" textLength="9" x="1404.5" y="202.9883">4</text><text fill="#000000" font-family="sans-serif" font-size="13" lengthAdjust="spacing" textLength="45" x="1417.5" y="202.9883">getAll()</text><polygon fill="#A80036" points="123.5,293.6621,113.5,297.6621,123.5,301.6621,119.5,297.6621" style="stroke:#A80036;stroke-width:1.0;"/><line style="stroke:#A80036;stroke-width:1.0;stroke-dasharray:2.0,2.0;" x1="117.5" x2="597.5" y1="297.6621" y2="297.6621"/><text fill="#000000" font-family="sans-serif" font-size="13" font-weight="bold" lengthAdjust="spacing" textLength="9" x="129.5" y="277.6094">5</text><text fill="#000000" font-family="sans-serif" font-size="13" lengthAdjust="spacing" textLength="107" x="142.5" y="262.2988">solicita os dados</text><text fill="#000000" font-family="sans-serif" font-size="13" lengthAdjust="spacing" textLength="440" x="142.5" y="277.6094">((i.e. período de publicação, período de apresentação de candidaturas,</text><text fill="#000000" font-family="sans-serif" font-size="13" lengthAdjust="spacing" textLength="254" x="142.5" y="292.9199">período de seriação e tipo de regimento)</text><polygon fill="#A80036" points="581.5,347.9727,591.5,351.9727,581.5,355.9727,585.5,351.9727" style="stroke:#A80036;stroke-width:1.0;"/><line style="stroke:#A80036;stroke-width:1.0;" x1="112.5" x2="587.5" y1="351.9727" y2="351.9727"/><text fill="#000000" font-family="sans-serif" font-size="13" font-weight="bold" lengthAdjust="spacing" textLength="9" x="119.5" y="347.2305">6</text><text fill="#000000" font-family="sans-serif" font-size="13" lengthAdjust="spacing" textLength="258" x="132.5" y="347.2305">introduz os dados solicitados e confirma</text><polygon fill="#A80036" points="1138.5,377.2832,1148.5,381.2832,1138.5,385.2832,1142.5,381.2832" style="stroke:#A80036;stroke-width:1.0;"/><line style="stroke:#A80036;stroke-width:1.0;" x1="603.5" x2="1144.5" y1="381.2832" y2="381.2832"/><text fill="#000000" font-family="sans-serif" font-size="13" font-weight="bold" lengthAdjust="spacing" textLength="9" x="610.5" y="376.541">7</text><text fill="#000000" font-family="sans-serif" font-size="13" lengthAdjust="spacing" textLength="112" x="623.5" y="376.541">getColabByEmail()</text><polygon fill="#A80036" points="1527.5,406.5938,1537.5,410.5938,1527.5,414.5938,1531.5,410.5938" style="stroke:#A80036;stroke-width:1.0;"/><line style="stroke:#A80036;stroke-width:1.0;" x1="1160.5" x2="1533.5" y1="410.5938" y2="410.5938"/><text fill="#000000" font-family="sans-serif" font-size="13" font-weight="bold" lengthAdjust="spacing" textLength="9" x="1167.5" y="405.8516">8</text><text fill="#000000" font-family="sans-serif" font-size="13" lengthAdjust="spacing" textLength="62" x="1180.5" y="405.8516">getEmail()</text><polygon fill="#A80036" points="1138.5,465.9043,1148.5,469.9043,1138.5,473.9043,1142.5,469.9043" style="stroke:#A80036;stroke-width:1.0;"/><line style="stroke:#A80036;stroke-width:1.0;" x1="603.5" x2="1144.5" y1="469.9043" y2="469.9043"/><text fill="#000000" font-family="sans-serif" font-size="13" font-weight="bold" lengthAdjust="spacing" textLength="9" x="610.5" y="465.1621">9</text><text fill="#000000" font-family="sans-serif" font-size="13" lengthAdjust="spacing" textLength="190" x="623.5" y="465.1621">List&lt;Tarefa&gt; getListaTarefas()</text><polygon fill="#A80036" points="1649,495.2148,1659,499.2148,1649,503.2148,1653,499.2148" style="stroke:#A80036;stroke-width:1.0;"/><line style="stroke:#A80036;stroke-width:1.0;" x1="1160.5" x2="1655" y1="499.2148" y2="499.2148"/><text fill="#000000" font-family="sans-serif" font-size="13" font-weight="bold" lengthAdjust="spacing" textLength="18" x="1167.5" y="494.4727">10</text><text fill="#000000" font-family="sans-serif" font-size="13" lengthAdjust="spacing" textLength="139" x="1189.5" y="494.4727">getRepositorioTarefa()</text><polygon fill="#A80036" points="2155.5,524.5254,2165.5,528.5254,2155.5,532.5254,2159.5,528.5254" style="stroke:#A80036;stroke-width:1.0;"/><line style="stroke:#A80036;stroke-width:1.0;" x1="1671" x2="2161.5" y1="528.5254" y2="528.5254"/><text fill="#000000" font-family="sans-serif" font-size="13" font-weight="bold" lengthAdjust="spacing" textLength="18" x="1678" y="523.7832">11</text><text fill="#000000" font-family="sans-serif" font-size="13" lengthAdjust="spacing" textLength="162" x="1700" y="523.7832">getListaTarefasByOrg(org)</text><polygon fill="#A80036" points="1138.5,614.457,1148.5,618.457,1138.5,622.457,1142.5,618.457" style="stroke:#A80036;stroke-width:1.0;"/><line style="stroke:#A80036;stroke-width:1.0;" x1="603.5" x2="1144.5" y1="618.457" y2="618.457"/><text fill="#000000" font-family="sans-serif" font-size="13" font-weight="bold" lengthAdjust="spacing" textLength="18" x="610.5" y="598.4043">12</text><text fill="#000000" font-family="sans-serif" font-size="13" lengthAdjust="spacing" textLength="416" x="632.5" y="583.0938">RegistaAnuncio(Date dtInicioPublicitacao, Date dtFimPublicitacao,</text><text fill="#000000" font-family="sans-serif" font-size="13" lengthAdjust="spacing" textLength="455" x="632.5" y="598.4043">Date dtInicioCandidatura, Date dtFimCandidatura, Date dtInicioSeriacao,</text><text fill="#000000" font-family="sans-serif" font-size="13" lengthAdjust="spacing" textLength="506" x="632.5" y="613.7148">Date dtFimSeriacao, Tarefa tarefa, Colaborador colab, TipoRegimento regimento)</text><polygon fill="#A80036" points="1734.5,659.0781,1744.5,663.0781,1734.5,667.0781,1738.5,663.0781" style="stroke:#A80036;stroke-width:1.0;"/><line style="stroke:#A80036;stroke-width:1.0;stroke-dasharray:2.0,2.0;" x1="1160.5" x2="1740.5" y1="663.0781" y2="663.0781"/><text fill="#000000" font-family="sans-serif" font-size="13" font-weight="bold" lengthAdjust="spacing" textLength="18" x="1167.5" y="650.6807">13</text><text fill="#000000" font-family="sans-serif" font-size="13" lengthAdjust="spacing" textLength="471" x="1189.5" y="643.0254">anun = create(dtInicioPublicitacao, dtFimPublicitacao, dtInicioCandidatura,</text><text fill="#000000" font-family="sans-serif" font-size="13" lengthAdjust="spacing" textLength="478" x="1189.5" y="658.3359">dtFimCandidatura, dtInicioSeriacao, dtFimSeriacao, tarefa, colab, regimento)</text><rect fill="#FEFECE" filter="url(#f1bexcyhpb80yq)" height="46.9766" style="stroke:#A80036;stroke-width:1.5;" width="75" x="1746.5" y="626.457"/><text fill="#000000" font-family="sans-serif" font-size="14" lengthAdjust="spacing" textLength="26" x="1771" y="646.9922">anu</text><text fill="#000000" font-family="sans-serif" font-size="14" lengthAdjust="spacing" textLength="61" x="1753.5" y="663.4805">:Anuncio</text><polygon fill="#A80036" points="1895.5,705.7441,1905.5,709.7441,1895.5,713.7441,1899.5,709.7441" style="stroke:#A80036;stroke-width:1.0;"/><line style="stroke:#A80036;stroke-width:1.0;" x1="1160.5" x2="1901.5" y1="709.7441" y2="709.7441"/><text fill="#000000" font-family="sans-serif" font-size="13" font-weight="bold" lengthAdjust="spacing" textLength="18" x="1167.5" y="705.002">14</text><text fill="#000000" font-family="sans-serif" font-size="13" lengthAdjust="spacing" textLength="152" x="1189.5" y="705.002">getRepositorioAnuncio()</text><polygon fill="#A80036" points="2240,735.0547,2250,739.0547,2240,743.0547,2244,739.0547" style="stroke:#A80036;stroke-width:1.0;"/><line style="stroke:#A80036;stroke-width:1.0;" x1="1917.5" x2="2246" y1="739.0547" y2="739.0547"/><text fill="#000000" font-family="sans-serif" font-size="13" font-weight="bold" lengthAdjust="spacing" textLength="18" x="1924.5" y="734.3125">15</text><text fill="#000000" font-family="sans-serif" font-size="13" lengthAdjust="spacing" textLength="67" x="1946.5" y="734.3125">save(anun)</text><polygon fill="#A80036" points="123.5,794.3652,113.5,798.3652,123.5,802.3652,119.5,798.3652" style="stroke:#A80036;stroke-width:1.0;"/><line style="stroke:#A80036;stroke-width:1.0;stroke-dasharray:2.0,2.0;" x1="117.5" x2="597.5" y1="798.3652" y2="798.3652"/><text fill="#000000" font-family="sans-serif" font-size="13" font-weight="bold" lengthAdjust="spacing" textLength="18" x="129.5" y="793.623">16</text><text fill="#000000" font-family="sans-serif" font-size="13" lengthAdjust="spacing" textLength="204" x="151.5" y="793.623">informa do sucesso da operação</text><!--MD5=[88cab6ad21fadb401ecb47f81be6f51f]
@startuml
autonumber

actor "Colaborador de Organização" as ADM
participant ":AdicionarAnuncioUI" as UI
participant ":RegistarAnuncioController" as CTRL
participant "RepositorioTipoRegimento" as RTREG
participant ":UsersAPI" as SESSAO
participant "RepositorioTarefa" as LTAF
participant "anu\n:Anuncio" as ANU
participant "RepositorioAnuncio" as RA
database TipoRegimentoDB as regDB
database TarefaDB as tafDB
database AnuncioDB as anunDB

activate ADM
ADM -> UI : inicia a publicação selecionando uma tarefa
activate UI

UI -> CTRL : list1 = getAllTipoRegimentoDesignacao()
activate CTRL

CTRL -> RTREG: getRepositorioTipoRegimento()
activate RTREG

RTREG -> regDB: getAll()
activate regDB
deactivate regDB
deactivate RTREG

deactivate CTRL

UI - -> ADM : solicita os dados \n((i.e. período de publicação, período de apresentação de candidaturas, \nperíodo de seriação e tipo de regimento)
deactivate UI
|||

ADM -> UI : introduz os dados solicitados e confirma
activate UI

UI -> CTRL : getColabByEmail()
activate CTRL

CTRL -> SESSAO : getEmail()
activate SESSAO
deactivate SESSAO
deactivate CTRL

UI -> CTRL : List<Tarefa> getListaTarefas()
activate CTRL

CTRL -> LTAF : getRepositorioTarefa()
activate LTAF

LTAF -> tafDB : getListaTarefasByOrg(org)
activate tafDB
deactivate tafDB

deactivate LTAF
deactivate CTRL

UI -> CTRL : RegistaAnuncio(Date dtInicioPublicitacao, Date dtFimPublicitacao, \nDate dtInicioCandidatura, Date dtFimCandidatura, Date dtInicioSeriacao, \nDate dtFimSeriacao, Tarefa tarefa, Colaborador colab, TipoRegimento regimento)
activate CTRL

CTRL - -> ANU ** : anun = create(dtInicioPublicitacao, dtFimPublicitacao, dtInicioCandidatura, \ndtFimCandidatura, dtInicioSeriacao, dtFimSeriacao, tarefa, colab, regimento)

CTRL -> RA : getRepositorioAnuncio()
activate RA

RA -> anunDB : save(anun)
activate anunDB
deactivate anunDB

deactivate RA
deactivate CTRL

UI - -> ADM: informa do sucesso da operação
deactivate UI

@enduml

PlantUML version 1.2021.00(Sun Jan 10 10:25:05 WET 2021)
(GPL source distribution)
Java Runtime: Java(TM) SE Runtime Environment
JVM: Java HotSpot(TM) 64-Bit Server VM
Default Encoding: UTF-8
Language: pt
Country: PT
--></g></svg>