<?xml version="1.0" encoding="UTF-8" standalone="no"?><svg xmlns="http://www.w3.org/2000/svg" xmlns:xlink="http://www.w3.org/1999/xlink" contentScriptType="application/ecmascript" contentStyleType="text/css" height="373px" preserveAspectRatio="none" style="width:1007px;height:373px;" version="1.1" viewBox="0 0 1007 373" width="1007px" zoomAndPan="magnify"><defs><filter height="300%" id="f49aiyngptqv9" width="300%" x="-1" y="-1"><feGaussianBlur result="blurOut" stdDeviation="2.0"/><feColorMatrix in="blurOut" result="blurOut2" type="matrix" values="0 0 0 0 0 0 0 0 0 0 0 0 0 0 0 0 0 0 .4 0"/><feOffset dx="4.0" dy="4.0" in="blurOut2" result="blurOut3"/><feBlend in="SourceGraphic" in2="blurOut3" mode="normal"/></filter></defs><g><!--MD5=[ecaed46f78f8cfe1e9ce18477649be18]
class Plataforma--><rect codeLine="5" fill="#FEFECE" filter="url(#f49aiyngptqv9)" height="40" id="Plataforma" style="stroke:#A80036;stroke-width:1.5;" width="94" x="7" y="140"/><ellipse cx="22" cy="156" fill="#ADD1B2" rx="11" ry="11" style="stroke:#A80036;stroke-width:1.0;"/><path d="M24.4731,162.1431 Q23.8921,162.4419 23.2529,162.5913 Q22.6138,162.7407 21.9082,162.7407 Q19.4014,162.7407 18.0815,161.0889 Q16.7617,159.437 16.7617,156.3159 Q16.7617,153.1865 18.0815,151.5347 Q19.4014,149.8828 21.9082,149.8828 Q22.6138,149.8828 23.2612,150.0322 Q23.9087,150.1816 24.4731,150.4805 L24.4731,153.2031 Q23.8423,152.6221 23.2488,152.3523 Q22.6553,152.0825 22.0244,152.0825 Q20.6797,152.0825 19.9949,153.1492 Q19.3101,154.2158 19.3101,156.3159 Q19.3101,158.4077 19.9949,159.4744 Q20.6797,160.541 22.0244,160.541 Q22.6553,160.541 23.2488,160.2712 Q23.8423,160.0015 24.4731,159.4204 Z " fill="#000000"/><text fill="#000000" font-family="sans-serif" font-size="12" lengthAdjust="spacing" textLength="62" x="36" y="160.5352">Plataforma</text><line style="stroke:#A80036;stroke-width:1.5;" x1="8" x2="100" y1="172" y2="172"/><!--MD5=[ac8682ea5466d223e49472789fb200d2]
class Colaborador--><rect codeLine="8" fill="#FEFECE" filter="url(#f49aiyngptqv9)" height="91.8203" id="Colaborador" style="stroke:#A80036;stroke-width:1.5;" width="104" x="889" y="149"/><ellipse cx="904" cy="165" fill="#ADD1B2" rx="11" ry="11" style="stroke:#A80036;stroke-width:1.0;"/><path d="M906.4731,171.1431 Q905.8921,171.4419 905.2529,171.5913 Q904.6138,171.7407 903.9082,171.7407 Q901.4014,171.7407 900.0815,170.0889 Q898.7617,168.437 898.7617,165.3159 Q898.7617,162.1865 900.0815,160.5347 Q901.4014,158.8828 903.9082,158.8828 Q904.6138,158.8828 905.2612,159.0322 Q905.9087,159.1816 906.4731,159.4805 L906.4731,162.2031 Q905.8423,161.6221 905.2488,161.3523 Q904.6553,161.0825 904.0244,161.0825 Q902.6797,161.0825 901.9949,162.1492 Q901.3101,163.2158 901.3101,165.3159 Q901.3101,167.4077 901.9949,168.4744 Q902.6797,169.541 904.0244,169.541 Q904.6553,169.541 905.2488,169.2712 Q905.8423,169.0015 906.4731,168.4204 Z " fill="#000000"/><text fill="#000000" font-family="sans-serif" font-size="12" lengthAdjust="spacing" textLength="72" x="918" y="169.5352">Colaborador</text><line style="stroke:#A80036;stroke-width:1.5;" x1="890" x2="992" y1="181" y2="181"/><text fill="#000000" font-family="sans-serif" font-size="11" lengthAdjust="spacing" textLength="71" x="895" y="195.6348">-String nome</text><text fill="#000000" font-family="sans-serif" font-size="11" lengthAdjust="spacing" textLength="78" x="895" y="208.5898">-String funcao</text><text fill="#000000" font-family="sans-serif" font-size="11" lengthAdjust="spacing" textLength="84" x="895" y="221.5449">-String telefone</text><text fill="#000000" font-family="sans-serif" font-size="11" lengthAdjust="spacing" textLength="69" x="895" y="234.5">-String email</text><!--MD5=[27c2d4bbe9f7b9d3b0ea2797cc54308a]
class Tarefa--><rect codeLine="15" fill="#FEFECE" filter="url(#f49aiyngptqv9)" height="117.7305" id="Tarefa" style="stroke:#A80036;stroke-width:1.5;" width="123" x="578.5" y="201"/><ellipse cx="617.35" cy="217" fill="#ADD1B2" rx="11" ry="11" style="stroke:#A80036;stroke-width:1.0;"/><path d="M619.8231,223.1431 Q619.2421,223.4419 618.6029,223.5913 Q617.9638,223.7407 617.2582,223.7407 Q614.7514,223.7407 613.4315,222.0889 Q612.1117,220.437 612.1117,217.3159 Q612.1117,214.1865 613.4315,212.5347 Q614.7514,210.8828 617.2582,210.8828 Q617.9638,210.8828 618.6112,211.0322 Q619.2587,211.1816 619.8231,211.4805 L619.8231,214.2031 Q619.1923,213.6221 618.5988,213.3523 Q618.0053,213.0825 617.3744,213.0825 Q616.0297,213.0825 615.3449,214.1492 Q614.6601,215.2158 614.6601,217.3159 Q614.6601,219.4077 615.3449,220.4744 Q616.0297,221.541 617.3744,221.541 Q618.0053,221.541 618.5988,221.2712 Q619.1923,221.0015 619.8231,220.4204 Z " fill="#000000"/><text fill="#000000" font-family="sans-serif" font-size="12" lengthAdjust="spacing" textLength="38" x="636.65" y="221.5352">Tarefa</text><line style="stroke:#A80036;stroke-width:1.5;" x1="579.5" x2="700.5" y1="233" y2="233"/><text fill="#000000" font-family="sans-serif" font-size="11" lengthAdjust="spacing" textLength="95" x="584.5" y="247.6348">-String referencia</text><text fill="#000000" font-family="sans-serif" font-size="11" lengthAdjust="spacing" textLength="102" x="584.5" y="260.5898">-String designacao</text><text fill="#000000" font-family="sans-serif" font-size="11" lengthAdjust="spacing" textLength="111" x="584.5" y="273.5449">-String descInformal</text><text fill="#000000" font-family="sans-serif" font-size="11" lengthAdjust="spacing" textLength="107" x="584.5" y="286.5">-String descTecnica</text><text fill="#000000" font-family="sans-serif" font-size="11" lengthAdjust="spacing" textLength="107" x="584.5" y="299.4551">-Integer duracaoEst</text><text fill="#000000" font-family="sans-serif" font-size="11" lengthAdjust="spacing" textLength="93" x="584.5" y="312.4102">-Double custoEst</text><!--MD5=[d0e9f237fb3c72e1245c36c562ad52c4]
class TipoRegimento--><rect codeLine="24" fill="#FEFECE" filter="url(#f49aiyngptqv9)" height="65.9102" id="TipoRegimento" style="stroke:#A80036;stroke-width:1.5;" width="142" x="569" y="7"/><ellipse cx="594.35" cy="23" fill="#ADD1B2" rx="11" ry="11" style="stroke:#A80036;stroke-width:1.0;"/><path d="M596.8231,29.1431 Q596.2421,29.4419 595.6029,29.5913 Q594.9638,29.7407 594.2582,29.7407 Q591.7514,29.7407 590.4315,28.0889 Q589.1117,26.437 589.1117,23.3159 Q589.1117,20.1865 590.4315,18.5347 Q591.7514,16.8828 594.2582,16.8828 Q594.9638,16.8828 595.6112,17.0322 Q596.2587,17.1816 596.8231,17.4805 L596.8231,20.2031 Q596.1923,19.6221 595.5988,19.3523 Q595.0053,19.0825 594.3744,19.0825 Q593.0297,19.0825 592.3449,20.1492 Q591.6601,21.2158 591.6601,23.3159 Q591.6601,25.4077 592.3449,26.4744 Q593.0297,27.541 594.3744,27.541 Q595.0053,27.541 595.5988,27.2712 Q596.1923,27.0015 596.8231,26.4204 Z " fill="#000000"/><text fill="#000000" font-family="sans-serif" font-size="12" lengthAdjust="spacing" textLength="87" x="610.65" y="27.5352">TipoRegimento</text><line style="stroke:#A80036;stroke-width:1.5;" x1="570" x2="710" y1="39" y2="39"/><text fill="#000000" font-family="sans-serif" font-size="11" lengthAdjust="spacing" textLength="102" x="575" y="53.6348">-String designacao</text><text fill="#000000" font-family="sans-serif" font-size="11" lengthAdjust="spacing" textLength="130" x="575" y="66.5898">-String descricaoRegras</text><!--MD5=[19db0db7353a4bf63eefc676e5ba9b80]
class Anuncio--><rect codeLine="30" fill="#FEFECE" filter="url(#f49aiyngptqv9)" height="117.7305" id="Anuncio" style="stroke:#A80036;stroke-width:1.5;" width="151" x="269" y="101"/><ellipse cx="317.75" cy="117" fill="#ADD1B2" rx="11" ry="11" style="stroke:#A80036;stroke-width:1.0;"/><path d="M320.2231,123.1431 Q319.6421,123.4419 319.0029,123.5913 Q318.3638,123.7407 317.6582,123.7407 Q315.1514,123.7407 313.8315,122.0889 Q312.5117,120.437 312.5117,117.3159 Q312.5117,114.1865 313.8315,112.5347 Q315.1514,110.8828 317.6582,110.8828 Q318.3638,110.8828 319.0112,111.0322 Q319.6587,111.1816 320.2231,111.4805 L320.2231,114.2031 Q319.5923,113.6221 318.9988,113.3523 Q318.4053,113.0825 317.7744,113.0825 Q316.4297,113.0825 315.7449,114.1492 Q315.0601,115.2158 315.0601,117.3159 Q315.0601,119.4077 315.7449,120.4744 Q316.4297,121.541 317.7744,121.541 Q318.4053,121.541 318.9988,121.2712 Q319.5923,121.0015 320.2231,120.4204 Z " fill="#000000"/><text fill="#000000" font-family="sans-serif" font-size="12" lengthAdjust="spacing" textLength="45" x="338.25" y="121.5352">Anuncio</text><line style="stroke:#A80036;stroke-width:1.5;" x1="270" x2="419" y1="133" y2="133"/><text fill="#000000" font-family="sans-serif" font-size="11" lengthAdjust="spacing" textLength="137" x="275" y="147.6348">-Date dtInicioPublicitacao</text><text fill="#000000" font-family="sans-serif" font-size="11" lengthAdjust="spacing" textLength="127" x="275" y="160.5898">-Date dtFimPublicitacao</text><text fill="#000000" font-family="sans-serif" font-size="11" lengthAdjust="spacing" textLength="139" x="275" y="173.5449">-Date dtInicioCandidatura</text><text fill="#000000" font-family="sans-serif" font-size="11" lengthAdjust="spacing" textLength="129" x="275" y="186.5">-Date dtFimCandidatura</text><text fill="#000000" font-family="sans-serif" font-size="11" lengthAdjust="spacing" textLength="118" x="275" y="199.4551">-Date dtInicioSeriacao</text><text fill="#000000" font-family="sans-serif" font-size="11" lengthAdjust="spacing" textLength="108" x="275" y="212.4102">-Date dtFimSeriacao</text><!--MD5=[807977ceb130c090ed5febfb6de2bdea]
class Organizacao--><rect codeLine="40" fill="#FEFECE" filter="url(#f49aiyngptqv9)" height="104.7754" id="Organizacao" style="stroke:#A80036;stroke-width:1.5;" width="104" x="292.5" y="254.5"/><ellipse cx="307.5" cy="270.5" fill="#ADD1B2" rx="11" ry="11" style="stroke:#A80036;stroke-width:1.0;"/><path d="M309.9731,276.6431 Q309.3921,276.9419 308.7529,277.0913 Q308.1138,277.2407 307.4082,277.2407 Q304.9014,277.2407 303.5815,275.5889 Q302.2617,273.937 302.2617,270.8159 Q302.2617,267.6865 303.5815,266.0347 Q304.9014,264.3828 307.4082,264.3828 Q308.1138,264.3828 308.7612,264.5322 Q309.4087,264.6816 309.9731,264.9805 L309.9731,267.7031 Q309.3423,267.1221 308.7488,266.8523 Q308.1553,266.5825 307.5244,266.5825 Q306.1797,266.5825 305.4949,267.6492 Q304.8101,268.7158 304.8101,270.8159 Q304.8101,272.9077 305.4949,273.9744 Q306.1797,275.041 307.5244,275.041 Q308.1553,275.041 308.7488,274.7712 Q309.3423,274.5015 309.9731,273.9204 Z " fill="#000000"/><text fill="#000000" font-family="sans-serif" font-size="12" lengthAdjust="spacing" textLength="72" x="321.5" y="275.0352">Organizacao</text><line style="stroke:#A80036;stroke-width:1.5;" x1="293.5" x2="395.5" y1="286.5" y2="286.5"/><text fill="#000000" font-family="sans-serif" font-size="11" lengthAdjust="spacing" textLength="71" x="298.5" y="301.1348">-String nome</text><text fill="#000000" font-family="sans-serif" font-size="11" lengthAdjust="spacing" textLength="58" x="298.5" y="314.0898">-String NIF</text><text fill="#000000" font-family="sans-serif" font-size="11" lengthAdjust="spacing" textLength="81" x="298.5" y="327.0449">-String website</text><text fill="#000000" font-family="sans-serif" font-size="11" lengthAdjust="spacing" textLength="84" x="298.5" y="340">-String telefone</text><text fill="#000000" font-family="sans-serif" font-size="11" lengthAdjust="spacing" textLength="69" x="298.5" y="352.9551">-String email</text><!--MD5=[3d9e8e0d764359bffb897b36dc4b633a]
link Plataforma to Anuncio--><path codeLine="48" d="M101.03,160 C146.21,160 215.87,160 268.95,160 " fill="none" id="Plataforma-Anuncio" style="stroke:#A80036;stroke-width:1.0;"/><polygon fill="#000000" points="160,151.6553,150.9549,148.7163,150.9549,154.5942,160,151.6553" style="stroke:#000000;stroke-width:1.0;"/><text fill="#000000" font-family="sans-serif" font-size="13" lengthAdjust="spacing" textLength="55" x="164" y="156.5684">publicita</text><text fill="#000000" font-family="sans-serif" font-size="13" lengthAdjust="spacing" textLength="8" x="108.844" y="173.7406">1</text><text fill="#000000" font-family="sans-serif" font-size="13" lengthAdjust="spacing" textLength="6" x="254.8495" y="173.3717">*</text><!--MD5=[956ecced288de5de0c5f024757c210bf]
link Plataforma to TipoRegimento--><path codeLine="49" d="M101.41,140.54 C144.24,123.24 209.97,98.38 269,83 C347.91,62.45 369.01,62.48 450,53 C489.2,48.41 533.18,45.27 568.84,43.23 " fill="none" id="Plataforma-TipoRegimento" style="stroke:#A80036;stroke-width:1.0;"/><polygon fill="#000000" points="322.8951,47.6362,313.4408,46.6025,314.6388,52.3569,322.8951,47.6362" style="stroke:#000000;stroke-width:1.0;"/><text fill="#000000" font-family="sans-serif" font-size="13" lengthAdjust="spacing" textLength="48" x="327" y="53.5684">suporta</text><text fill="#000000" font-family="sans-serif" font-size="13" lengthAdjust="spacing" textLength="8" x="108.9608" y="151.3745">1</text><text fill="#000000" font-family="sans-serif" font-size="13" lengthAdjust="spacing" textLength="6" x="555.1923" y="56.9255">*</text><!--MD5=[1c2ad462e362697fcdc859a6327d55c7]
link Plataforma to Organizacao--><path codeLine="50" d="M94.51,180.13 C145.9,206.32 235.77,252.11 292.32,280.92 " fill="none" id="Plataforma-Organizacao" style="stroke:#A80036;stroke-width:1.0;"/><polygon fill="#000000" points="140.455,193.9252,133.7301,187.2002,131.0616,192.4374,140.455,193.9252" style="stroke:#000000;stroke-width:1.0;"/><text fill="#000000" font-family="sans-serif" font-size="13" lengthAdjust="spacing" textLength="93" x="145" y="196.5684">tem registadas</text><text fill="#000000" font-family="sans-serif" font-size="13" lengthAdjust="spacing" textLength="8" x="96.7784" y="200.513">1</text><text fill="#000000" font-family="sans-serif" font-size="13" lengthAdjust="spacing" textLength="6" x="278.5603" y="290.9132">*</text><!--MD5=[cf2deab2ed1f09cef5b70f58ef028e55]
link Organizacao to Tarefa--><path codeLine="52" d="M396.55,308.54 C435.88,308.72 491.39,306.8 539,297 C551.96,294.33 565.49,290.27 578.25,285.8 " fill="none" id="Organizacao-Tarefa" style="stroke:#A80036;stroke-width:1.0;"/><polygon fill="#000000" points="475.9613,288.0344,466.6213,286.2414,467.3512,292.0738,475.9613,288.0344" style="stroke:#000000;stroke-width:1.0;"/><text fill="#000000" font-family="sans-serif" font-size="13" lengthAdjust="spacing" textLength="42" x="480" y="293.5684">possui</text><text fill="#000000" font-family="sans-serif" font-size="13" lengthAdjust="spacing" textLength="8" x="404.432" y="322.4172">1</text><text fill="#000000" font-family="sans-serif" font-size="13" lengthAdjust="spacing" textLength="6" x="564.3586" y="302.4621">*</text><!--MD5=[ebe0b2adceebb6ee2636cb1948c7c8a9]
link Tarefa to Colaborador--><path codeLine="54" d="M701.51,246.85 C756.45,234.9 836.62,217.47 888.55,206.19 " fill="none" id="Tarefa-Colaborador" style="stroke:#A80036;stroke-width:1.0;"/><polygon fill="#000000" points="750.8859,205.5931,741.4229,204.6427,742.6715,210.3864,750.8859,205.5931" style="stroke:#000000;stroke-width:1.0;"/><text fill="#000000" font-family="sans-serif" font-size="13" lengthAdjust="spacing" textLength="103" x="755" y="211.5684">especificada por</text><text fill="#000000" font-family="sans-serif" font-size="13" lengthAdjust="spacing" textLength="6" x="709.3722" y="258.7651">*</text><text fill="#000000" font-family="sans-serif" font-size="13" lengthAdjust="spacing" textLength="8" x="872.9645" y="221.3028">1</text><!--MD5=[439a6ad1de0b5aa57a973cae1bf36ce5]
link Anuncio to Tarefa--><path codeLine="56" d="M420.41,177.32 C456.69,186.51 500.6,198.84 539,213 C551.96,217.78 565.54,223.59 578.36,229.47 " fill="none" id="Anuncio-Tarefa" style="stroke:#A80036;stroke-width:1.0;"/><polygon fill="#000000" points="469.2479,180.2229,461.5803,174.5963,459.7374,180.1778,469.2479,180.2229" style="stroke:#000000;stroke-width:1.0;"/><text fill="#000000" font-family="sans-serif" font-size="13" lengthAdjust="spacing" textLength="55" x="473.5" y="183.5684">publicita</text><text fill="#000000" font-family="sans-serif" font-size="13" lengthAdjust="spacing" textLength="24" x="427.9648" y="192.0463">0..1</text><text fill="#000000" font-family="sans-serif" font-size="13" lengthAdjust="spacing" textLength="8" x="562.3601" y="239.2669">1</text><!--MD5=[439a6ad1de0b5aa57a973cae1bf36ce5]
link Anuncio to Tarefa--><path codeLine="57" d="M414.44,219.09 C425.76,226.49 437.8,233.15 450,238 C490.82,254.24 540.24,259.54 578.31,260.89 " fill="none" id="Anuncio-Tarefa-1" style="stroke:#A80036;stroke-width:1.0;"/><polygon fill="#000000" points="455.6551,228.4194,463.6932,233.5028,465.146,227.8073,455.6551,228.4194" style="stroke:#000000;stroke-width:1.0;"/><text fill="#000000" font-family="sans-serif" font-size="13" lengthAdjust="spacing" textLength="63" x="469.5" y="234.5684">dá origem</text><text fill="#000000" font-family="sans-serif" font-size="13" lengthAdjust="spacing" textLength="24" x="397.1393" y="239.3914">0..1</text><text fill="#000000" font-family="sans-serif" font-size="13" lengthAdjust="spacing" textLength="8" x="562.304" y="274.5162">1</text><!--MD5=[3fb03004f687adcfc695220fdd65ad26]
link Anuncio to TipoRegimento--><path codeLine="58" d="M420.24,124.08 C430.19,119.56 440.31,115.09 450,111 C488.92,94.59 533.08,77.9 568.92,64.83 " fill="none" id="Anuncio-TipoRegimento" style="stroke:#A80036;stroke-width:1.0;"/><polygon fill="#000000" points="459.6448,66.8043,450.1543,67.4226,452.3303,72.8829,459.6448,66.8043" style="stroke:#000000;stroke-width:1.0;"/><text fill="#000000" font-family="sans-serif" font-size="13" lengthAdjust="spacing" textLength="74" x="464" y="73.5684">rege-se por</text><text fill="#000000" font-family="sans-serif" font-size="13" lengthAdjust="spacing" textLength="6" x="427.991" y="133.8793">*</text><text fill="#000000" font-family="sans-serif" font-size="13" lengthAdjust="spacing" textLength="8" x="553.1774" y="80.753">1</text><!--MD5=[0a535575571876f6213287bf563a867d]
link Anuncio to Colaborador--><path codeLine="59" d="M420.43,159.52 C456.32,159.61 499.9,160.19 539,162 C664.95,167.83 812.64,181.84 888.8,189.6 " fill="none" id="Anuncio-Colaborador" style="stroke:#A80036;stroke-width:1.0;"/><polygon fill="#000000" points="598.9897,155.9757,590.1516,152.4631,589.7749,158.3289,598.9897,155.9757" style="stroke:#000000;stroke-width:1.0;"/><text fill="#000000" font-family="sans-serif" font-size="13" lengthAdjust="spacing" textLength="87" x="603" y="160.5684">publicado por</text><text fill="#000000" font-family="sans-serif" font-size="13" lengthAdjust="spacing" textLength="6" x="427.953" y="172.7851">*</text><text fill="#000000" font-family="sans-serif" font-size="13" lengthAdjust="spacing" textLength="8" x="872.8969" y="202.4981">1</text><!--MD5=[573e309df0a48b6ad98e631fd42f51b1]
@startuml
skinparam classAttributeIconSize 0
hide methods
left to right direction

class Plataforma {
}

class Colaborador {
  -String nome
  -String funcao
  -String telefone
  -String email
}

class Tarefa {
  -String referencia
  -String designacao
  -String descInformal
  -String descTecnica
  -Integer duracaoEst
  -Double custoEst
}

class TipoRegimento
{
    -String designacao
    -String descricaoRegras
}

class Anuncio
{
    -Date dtInicioPublicitacao
    -Date dtFimPublicitacao
    -Date dtInicioCandidatura
    -Date dtFimCandidatura
    -Date dtInicioSeriacao
    -Date dtFimSeriacao
}

class Organizacao {
  -String nome
  -String NIF
  -String website
  -String telefone
  -String email
}

Plataforma "1" - - "*" Anuncio : publicita >
Plataforma "1" - - "*" TipoRegimento : suporta >
Plataforma "1" - - "*" Organizacao : tem registadas >

Organizacao "1" - - "*" Tarefa: possui >

Tarefa "*" - - "1" Colaborador: especificada por >

Anuncio "0..1" - - "1" Tarefa: publicita >
Anuncio "0..1" - - "1" Tarefa: dá origem <
Anuncio "*" - - "1" TipoRegimento: rege-se por >
Anuncio "*" - - "1" Colaborador: publicado por >

@enduml

PlantUML version 1.2021.00(Sun Jan 10 10:25:05 WET 2021)
(GPL source distribution)
Java Runtime: Java(TM) SE Runtime Environment
JVM: Java HotSpot(TM) 64-Bit Server VM
Default Encoding: UTF-8
Language: pt
Country: PT
--></g></svg>