<?xml version="1.0" encoding="UTF-8" standalone="no"?><svg xmlns="http://www.w3.org/2000/svg" xmlns:xlink="http://www.w3.org/1999/xlink" contentScriptType="application/ecmascript" contentStyleType="text/css" height="632px" preserveAspectRatio="none" style="width:971px;height:632px;" version="1.1" viewBox="0 0 971 632" width="971px" zoomAndPan="magnify"><defs><filter height="300%" id="f1ui0jhsb8lhyy" width="300%" x="-1" y="-1"><feGaussianBlur result="blurOut" stdDeviation="2.0"/><feColorMatrix in="blurOut" result="blurOut2" type="matrix" values="0 0 0 0 0 0 0 0 0 0 0 0 0 0 0 0 0 0 .4 0"/><feOffset dx="4.0" dy="4.0" in="blurOut2" result="blurOut3"/><feBlend in="SourceGraphic" in2="blurOut3" mode="normal"/></filter></defs><g><!--MD5=[dcc85bf63a30d81f34e7f8e02e01ba41]
class AdicionarTarefaUI--><rect codeLine="3" fill="#FEFECE" filter="url(#f1ui0jhsb8lhyy)" height="48" id="AdicionarTarefaUI" style="stroke:#A80036;stroke-width:1.5;" width="135" x="603.5" y="7"/><ellipse cx="618.5" cy="23" fill="#ADD1B2" rx="11" ry="11" style="stroke:#A80036;stroke-width:1.0;"/><path d="M620.9731,29.1431 Q620.3921,29.4419 619.7529,29.5913 Q619.1138,29.7407 618.4082,29.7407 Q615.9014,29.7407 614.5815,28.0889 Q613.2617,26.437 613.2617,23.3159 Q613.2617,20.1865 614.5815,18.5347 Q615.9014,16.8828 618.4082,16.8828 Q619.1138,16.8828 619.7612,17.0322 Q620.4087,17.1816 620.9731,17.4805 L620.9731,20.2031 Q620.3423,19.6221 619.7488,19.3523 Q619.1553,19.0825 618.5244,19.0825 Q617.1797,19.0825 616.4949,20.1492 Q615.8101,21.2158 615.8101,23.3159 Q615.8101,25.4077 616.4949,26.4744 Q617.1797,27.541 618.5244,27.541 Q619.1553,27.541 619.7488,27.2712 Q620.3423,27.0015 620.9731,26.4204 Z " fill="#000000"/><text fill="#000000" font-family="sans-serif" font-size="12" lengthAdjust="spacing" textLength="103" x="632.5" y="27.5352">AdicionarTarefaUI</text><line style="stroke:#A80036;stroke-width:1.5;" x1="604.5" x2="737.5" y1="39" y2="39"/><line style="stroke:#A80036;stroke-width:1.5;" x1="604.5" x2="737.5" y1="47" y2="47"/><!--MD5=[39722740839d072d26d7e82ee99eaba7]
class RegistarTarefaController--><rect codeLine="6" fill="#FEFECE" filter="url(#f1ui0jhsb8lhyy)" height="86.8652" id="RegistarTarefaController" style="stroke:#A80036;stroke-width:1.5;" width="573" x="384.5" y="116"/><ellipse cx="596.25" cy="132" fill="#ADD1B2" rx="11" ry="11" style="stroke:#A80036;stroke-width:1.0;"/><path d="M598.7231,138.1431 Q598.1421,138.4419 597.5029,138.5913 Q596.8638,138.7407 596.1582,138.7407 Q593.6514,138.7407 592.3315,137.0889 Q591.0117,135.437 591.0117,132.3159 Q591.0117,129.1865 592.3315,127.5347 Q593.6514,125.8828 596.1582,125.8828 Q596.8638,125.8828 597.5112,126.0322 Q598.1587,126.1816 598.7231,126.4805 L598.7231,129.2031 Q598.0923,128.6221 597.4988,128.3523 Q596.9053,128.0825 596.2744,128.0825 Q594.9297,128.0825 594.2449,129.1492 Q593.5601,130.2158 593.5601,132.3159 Q593.5601,134.4077 594.2449,135.4744 Q594.9297,136.541 596.2744,136.541 Q596.9053,136.541 597.4988,136.2712 Q598.0923,136.0015 598.7231,135.4204 Z " fill="#000000"/><text fill="#000000" font-family="sans-serif" font-size="12" lengthAdjust="spacing" textLength="141" x="616.75" y="136.5352">RegistarTarefaController</text><line style="stroke:#A80036;stroke-width:1.5;" x1="385.5" x2="956.5" y1="148" y2="148"/><line style="stroke:#A80036;stroke-width:1.5;" x1="385.5" x2="956.5" y1="156" y2="156"/><text fill="#000000" font-family="sans-serif" font-size="11" lengthAdjust="spacing" textLength="249" x="390.5" y="170.6348">+ArrayList&lt;String&gt; getListaCatTarefaIdDesc()</text><text fill="#000000" font-family="sans-serif" font-size="11" lengthAdjust="spacing" textLength="344" x="390.5" y="183.5898">+novaTarefa(String ref, String designacao, String descrInformal,</text><text fill="#000000" font-family="sans-serif" font-size="11" lengthAdjust="spacing" textLength="561" x="390.5" y="196.5449">String descrTecnica, Integer duracaoEst, Double custoEst, CategoriaTarefa catTarefa, Colaborador colab)</text><!--MD5=[917948592ea275ca5c9d0b1ee1b4f2c2]
class RepositorioCategoriaTarefa--><rect codeLine="12" fill="#FEFECE" filter="url(#f1ui0jhsb8lhyy)" height="60.9551" id="RepositorioCategoriaTarefa" style="stroke:#A80036;stroke-width:1.5;" width="238" x="7" y="283.5"/><ellipse cx="43.6" cy="299.5" fill="#ADD1B2" rx="11" ry="11" style="stroke:#A80036;stroke-width:1.0;"/><path d="M46.0731,305.6431 Q45.4921,305.9419 44.8529,306.0913 Q44.2138,306.2407 43.5082,306.2407 Q41.0014,306.2407 39.6815,304.5889 Q38.3617,302.937 38.3617,299.8159 Q38.3617,296.6865 39.6815,295.0347 Q41.0014,293.3828 43.5082,293.3828 Q44.2138,293.3828 44.8612,293.5322 Q45.5087,293.6816 46.0731,293.9805 L46.0731,296.7031 Q45.4423,296.1221 44.8488,295.8523 Q44.2553,295.5825 43.6244,295.5825 Q42.2797,295.5825 41.5949,296.6492 Q40.9101,297.7158 40.9101,299.8159 Q40.9101,301.9077 41.5949,302.9744 Q42.2797,304.041 43.6244,304.041 Q44.2553,304.041 44.8488,303.7712 Q45.4423,303.5015 46.0731,302.9204 Z " fill="#000000"/><text fill="#000000" font-family="sans-serif" font-size="12" lengthAdjust="spacing" textLength="158" x="62.4" y="304.0352">RepositorioCategoriaTarefa</text><line style="stroke:#A80036;stroke-width:1.5;" x1="8" x2="244" y1="315.5" y2="315.5"/><line style="stroke:#A80036;stroke-width:1.5;" x1="8" x2="244" y1="323.5" y2="323.5"/><text fill="#000000" font-family="sans-serif" font-size="11" lengthAdjust="spacing" textLength="226" x="13" y="338.1348">+List&lt;CategoriaTarefa&gt; getAllCatTarefa()</text><!--MD5=[8ea2da8a469c2c2cd5037214ca447c7b]
class RepositorioTarefa--><rect codeLine="16" fill="#FEFECE" filter="url(#f1ui0jhsb8lhyy)" height="99.8203" id="RepositorioTarefa" style="stroke:#A80036;stroke-width:1.5;" width="308" x="280" y="264"/><ellipse cx="378.25" cy="280" fill="#ADD1B2" rx="11" ry="11" style="stroke:#A80036;stroke-width:1.0;"/><path d="M380.7231,286.1431 Q380.1421,286.4419 379.5029,286.5913 Q378.8638,286.7407 378.1582,286.7407 Q375.6514,286.7407 374.3315,285.0889 Q373.0117,283.437 373.0117,280.3159 Q373.0117,277.1865 374.3315,275.5347 Q375.6514,273.8828 378.1582,273.8828 Q378.8638,273.8828 379.5112,274.0322 Q380.1587,274.1816 380.7231,274.4805 L380.7231,277.2031 Q380.0923,276.6221 379.4988,276.3523 Q378.9053,276.0825 378.2744,276.0825 Q376.9297,276.0825 376.2449,277.1492 Q375.5601,278.2158 375.5601,280.3159 Q375.5601,282.4077 376.2449,283.4744 Q376.9297,284.541 378.2744,284.541 Q378.9053,284.541 379.4988,284.2712 Q380.0923,284.0015 380.7231,283.4204 Z " fill="#000000"/><text fill="#000000" font-family="sans-serif" font-size="12" lengthAdjust="spacing" textLength="103" x="398.75" y="284.5352">RepositorioTarefa</text><line style="stroke:#A80036;stroke-width:1.5;" x1="281" x2="587" y1="296" y2="296"/><line style="stroke:#A80036;stroke-width:1.5;" x1="281" x2="587" y1="304" y2="304"/><text fill="#000000" font-family="sans-serif" font-size="11" lengthAdjust="spacing" textLength="109" x="286" y="318.6348">+save(Tarefa tarefa)</text><text fill="#000000" font-family="sans-serif" font-size="11" lengthAdjust="spacing" textLength="120" x="286" y="331.5898">+Tarefa find(String id)</text><text fill="#000000" font-family="sans-serif" font-size="11" lengthAdjust="spacing" textLength="122" x="286" y="344.5449">+List&lt;Tarefa&gt; getAll()</text><text fill="#000000" font-family="sans-serif" font-size="11" lengthAdjust="spacing" textLength="296" x="286" y="357.5">+List&lt;Tarefa&gt; getListaTarefasByOrg(Organizacao org)</text><!--MD5=[31b9c64e5635120c64042ad4e11560e0]
class RepositorioColaborador--><rect codeLine="23" fill="#FEFECE" filter="url(#f1ui0jhsb8lhyy)" height="60.9551" id="RepositorioColaborador" style="stroke:#A80036;stroke-width:1.5;" width="253" x="623.5" y="283.5"/><ellipse cx="677.25" cy="299.5" fill="#ADD1B2" rx="11" ry="11" style="stroke:#A80036;stroke-width:1.0;"/><path d="M679.7231,305.6431 Q679.1421,305.9419 678.5029,306.0913 Q677.8638,306.2407 677.1582,306.2407 Q674.6514,306.2407 673.3315,304.5889 Q672.0117,302.937 672.0117,299.8159 Q672.0117,296.6865 673.3315,295.0347 Q674.6514,293.3828 677.1582,293.3828 Q677.8638,293.3828 678.5112,293.5322 Q679.1587,293.6816 679.7231,293.9805 L679.7231,296.7031 Q679.0923,296.1221 678.4988,295.8523 Q677.9053,295.5825 677.2744,295.5825 Q675.9297,295.5825 675.2449,296.6492 Q674.5601,297.7158 674.5601,299.8159 Q674.5601,301.9077 675.2449,302.9744 Q675.9297,304.041 677.2744,304.041 Q677.9053,304.041 678.4988,303.7712 Q679.0923,303.5015 679.7231,302.9204 Z " fill="#000000"/><text fill="#000000" font-family="sans-serif" font-size="12" lengthAdjust="spacing" textLength="137" x="697.75" y="304.0352">RepositorioColaborador</text><line style="stroke:#A80036;stroke-width:1.5;" x1="624.5" x2="875.5" y1="315.5" y2="315.5"/><line style="stroke:#A80036;stroke-width:1.5;" x1="624.5" x2="875.5" y1="323.5" y2="323.5"/><text fill="#000000" font-family="sans-serif" font-size="11" lengthAdjust="spacing" textLength="241" x="629.5" y="338.1348">+Colaborador getColaboradorByEmail(email)</text><!--MD5=[27c2d4bbe9f7b9d3b0ea2797cc54308a]
class Tarefa--><rect codeLine="27" fill="#FEFECE" filter="url(#f1ui0jhsb8lhyy)" height="177.5508" id="Tarefa" style="stroke:#A80036;stroke-width:1.5;" width="461" x="459.5" y="441"/><ellipse cx="666.75" cy="457" fill="#ADD1B2" rx="11" ry="11" style="stroke:#A80036;stroke-width:1.0;"/><path d="M669.2231,463.1431 Q668.6421,463.4419 668.0029,463.5913 Q667.3638,463.7407 666.6582,463.7407 Q664.1514,463.7407 662.8315,462.0889 Q661.5117,460.437 661.5117,457.3159 Q661.5117,454.1865 662.8315,452.5347 Q664.1514,450.8828 666.6582,450.8828 Q667.3638,450.8828 668.0112,451.0322 Q668.6587,451.1816 669.2231,451.4805 L669.2231,454.2031 Q668.5923,453.6221 667.9988,453.3523 Q667.4053,453.0825 666.7744,453.0825 Q665.4297,453.0825 664.7449,454.1492 Q664.0601,455.2158 664.0601,457.3159 Q664.0601,459.4077 664.7449,460.4744 Q665.4297,461.541 666.7744,461.541 Q667.4053,461.541 667.9988,461.2712 Q668.5923,461.0015 669.2231,460.4204 Z " fill="#000000"/><text fill="#000000" font-family="sans-serif" font-size="12" lengthAdjust="spacing" textLength="38" x="687.25" y="461.5352">Tarefa</text><line style="stroke:#A80036;stroke-width:1.5;" x1="460.5" x2="919.5" y1="473" y2="473"/><text fill="#000000" font-family="sans-serif" font-size="11" lengthAdjust="spacing" textLength="56" x="465.5" y="487.6348">-String ref</text><text fill="#000000" font-family="sans-serif" font-size="11" lengthAdjust="spacing" textLength="102" x="465.5" y="500.5898">-String designacao</text><text fill="#000000" font-family="sans-serif" font-size="11" lengthAdjust="spacing" textLength="116" x="465.5" y="513.5449">-String descrInformal</text><text fill="#000000" font-family="sans-serif" font-size="11" lengthAdjust="spacing" textLength="112" x="465.5" y="526.5">-String descrTecnica</text><text fill="#000000" font-family="sans-serif" font-size="11" lengthAdjust="spacing" textLength="107" x="465.5" y="539.4551">-Integer duracaoEst</text><text fill="#000000" font-family="sans-serif" font-size="11" lengthAdjust="spacing" textLength="93" x="465.5" y="552.4102">-Double custoEst</text><text fill="#000000" font-family="sans-serif" font-size="11" lengthAdjust="spacing" textLength="145" x="465.5" y="565.3652">-CategoriaTarefa catTarefa</text><text fill="#000000" font-family="sans-serif" font-size="11" lengthAdjust="spacing" textLength="106" x="465.5" y="578.3203">-Colaborador colab</text><line style="stroke:#A80036;stroke-width:1.5;" x1="460.5" x2="919.5" y1="584.6406" y2="584.6406"/><text fill="#000000" font-family="sans-serif" font-size="11" lengthAdjust="spacing" textLength="430" x="465.5" y="599.2754">+Tarefa(String ref, String designacao, String descrInformal, String descrTecnica,</text><text fill="#000000" font-family="sans-serif" font-size="11" lengthAdjust="spacing" textLength="449" x="465.5" y="612.2305">Integer duracaoEst, Double custoEst, CategoriaTarefa catTarefa, Colaborador colab)</text><!--MD5=[171baa868f5258f13aeb8342ab455b9c]
link AdicionarTarefaUI to RegistarTarefaController--><path codeLine="42" d="M671,55.2 C671,70.72 671,91.7 671,110.7 " fill="none" id="AdicionarTarefaUI-to-RegistarTarefaController" style="stroke:#A80036;stroke-width:1.0;stroke-dasharray:7.0,7.0;"/><polygon fill="#A80036" points="671,116,675,107,671,111,667,107,671,116" style="stroke:#A80036;stroke-width:1.0;"/><!--MD5=[90d317fe9c8208b10344de9b3ac0d2d0]
link RegistarTarefaController to RepositorioTarefa--><path codeLine="43" d="M604.67,203.18 C576.74,221.16 543.97,242.24 514.66,261.1 " fill="none" id="RegistarTarefaController-to-RepositorioTarefa" style="stroke:#A80036;stroke-width:1.0;stroke-dasharray:7.0,7.0;"/><polygon fill="#A80036" points="510.36,263.86,520.0936,262.3579,514.5659,261.1562,515.7676,255.6285,510.36,263.86" style="stroke:#A80036;stroke-width:1.0;"/><!--MD5=[9caf642bcbc5a1620aad256a537dd12d]
link RegistarTarefaController to RepositorioCategoriaTarefa--><path codeLine="44" d="M486.95,203.01 C416.2,220.41 334.93,241.69 262,264 C244.67,269.3 226.3,275.51 208.85,281.69 " fill="none" id="RegistarTarefaController-to-RepositorioCategoriaTarefa" style="stroke:#A80036;stroke-width:1.0;stroke-dasharray:7.0,7.0;"/><polygon fill="#A80036" points="203.95,283.44,213.7713,284.1762,208.6581,281.7565,211.0777,276.6433,203.95,283.44" style="stroke:#A80036;stroke-width:1.0;"/><!--MD5=[4ad181d8964cb6b1f5bfbe4c12a89dd6]
link RegistarTarefaController to RepositorioColaborador--><path codeLine="45" d="M693.22,203.39 C705.57,227.24 720.74,256.51 732.29,278.81 " fill="none" id="RegistarTarefaController-to-RepositorioColaborador" style="stroke:#A80036;stroke-width:1.0;stroke-dasharray:7.0,7.0;"/><polygon fill="#A80036" points="734.7,283.46,734.1146,273.6286,732.4013,279.0197,727.0102,277.3064,734.7,283.46" style="stroke:#A80036;stroke-width:1.0;"/><!--MD5=[d63b22ebba568747c3992c4caed63873]
link RegistarTarefaController to Tarefa--><path codeLine="46" d="M823.96,203.14 C851.73,217.9 877.18,237.65 894,264 C917.91,301.46 913.15,323.89 894,364 C880.73,391.8 860.23,416.43 837.25,437.62 " fill="none" id="RegistarTarefaController-to-Tarefa" style="stroke:#A80036;stroke-width:1.0;"/><polygon fill="#A80036" points="833.54,440.99,842.8931,437.9047,837.2429,437.6302,837.5174,431.98,833.54,440.99" style="stroke:#A80036;stroke-width:1.0;"/><text fill="#000000" font-family="sans-serif" font-size="13" lengthAdjust="spacing" textLength="23" x="911" y="319.0684">cria</text><text fill="#000000" font-family="sans-serif" font-size="13" lengthAdjust="spacing" textLength="8" x="838.7695" y="223.5733">1</text><text fill="#000000" font-family="sans-serif" font-size="13" lengthAdjust="spacing" textLength="6" x="839.6177" y="430.2972">*</text><!--MD5=[69cf00b93cf90bd659fe01c3a950afa8]
link RepositorioTarefa to Tarefa--><path codeLine="47" d="M492.73,364.1 C518.8,385.88 550.35,412.26 580.5,437.46 " fill="none" id="RepositorioTarefa-to-Tarefa" style="stroke:#A80036;stroke-width:1.0;"/><polygon fill="#A80036" points="584.55,440.85,580.2097,432.0091,580.7136,437.6434,575.0792,438.1473,584.55,440.85" style="stroke:#A80036;stroke-width:1.0;"/><text fill="#000000" font-family="sans-serif" font-size="13" lengthAdjust="spacing" textLength="42" x="548" y="407.5684">possui</text><text fill="#000000" font-family="sans-serif" font-size="13" lengthAdjust="spacing" textLength="8" x="492.0843" y="384.4413">1</text><text fill="#000000" font-family="sans-serif" font-size="13" lengthAdjust="spacing" textLength="6" x="569.2301" y="430.1451">*</text><!--MD5=[d61292b341318c9446651de40d996616]
@startuml
skinparam classAttributeIconSize 0

class AdicionarTarefaUI {
}

class RegistarTarefaController {
  +ArrayList<String> getListaCatTarefaIdDesc()
  +novaTarefa(String ref, String designacao, String descrInformal,
            String descrTecnica, Integer duracaoEst, Double custoEst, CategoriaTarefa catTarefa, Colaborador colab)
}

class RepositorioCategoriaTarefa {
  +List<CategoriaTarefa> getAllCatTarefa()
  }

class RepositorioTarefa {
  +save(Tarefa tarefa)
  +Tarefa find(String id)
  +List<Tarefa> getAll()
  +List<Tarefa> getListaTarefasByOrg(Organizacao org)
}

class RepositorioColaborador {
  +Colaborador getColaboradorByEmail(email)
}

  class Tarefa {
  -String ref
  -String designacao
  -String descrInformal
  -String descrTecnica
  -Integer duracaoEst
  -Double custoEst
  -CategoriaTarefa catTarefa
  -Colaborador colab
  +Tarefa(String ref, String designacao, String descrInformal, String descrTecnica,
            Integer duracaoEst, Double custoEst, CategoriaTarefa catTarefa, Colaborador colab)
  
  }


AdicionarTarefaUI ..> RegistarTarefaController
RegistarTarefaController ..> RepositorioTarefa
RegistarTarefaController ..> RepositorioCategoriaTarefa
RegistarTarefaController ..> RepositorioColaborador
RegistarTarefaController "1" - -> "*" Tarefa : cria
RepositorioTarefa "1" - -> "*" Tarefa : possui

@enduml

PlantUML version 1.2021.00(Sun Jan 10 10:25:05 WET 2021)
(GPL source distribution)
Java Runtime: Java(TM) SE Runtime Environment
JVM: Java HotSpot(TM) 64-Bit Server VM
Default Encoding: UTF-8
Language: pt
Country: PT
--></g></svg>