<?xml version="1.0" encoding="UTF-8" standalone="no"?><svg xmlns="http://www.w3.org/2000/svg" xmlns:xlink="http://www.w3.org/1999/xlink" contentScriptType="application/ecmascript" contentStyleType="text/css" height="782px" preserveAspectRatio="none" style="width:2289px;height:782px;" version="1.1" viewBox="0 0 2289 782" width="2289px" zoomAndPan="magnify"><defs><filter height="300%" id="ftsxfcwswk5tx" width="300%" x="-1" y="-1"><feGaussianBlur result="blurOut" stdDeviation="2.0"/><feColorMatrix in="blurOut" result="blurOut2" type="matrix" values="0 0 0 0 0 0 0 0 0 0 0 0 0 0 0 0 0 0 .4 0"/><feOffset dx="4.0" dy="4.0" in="blurOut2" result="blurOut3"/><feBlend in="SourceGraphic" in2="blurOut3" mode="normal"/></filter></defs><g><rect fill="#FFFFFF" filter="url(#ftsxfcwswk5tx)" height="590.9453" style="stroke:#A80036;stroke-width:1.0;" width="10" x="102.5" y="98.4883"/><rect fill="#FFFFFF" filter="url(#ftsxfcwswk5tx)" height="177.8633" style="stroke:#A80036;stroke-width:1.0;" width="10" x="593.5" y="119.7988"/><rect fill="#FFFFFF" filter="url(#ftsxfcwswk5tx)" height="328.4609" style="stroke:#A80036;stroke-width:1.0;" width="10" x="593.5" y="351.9727"/><rect fill="#FFFFFF" filter="url(#ftsxfcwswk5tx)" height="88.6211" style="stroke:#A80036;stroke-width:1.0;" width="10" x="1141.5" y="149.1094"/><rect fill="#FFFFFF" filter="url(#ftsxfcwswk5tx)" height="59.3105" style="stroke:#A80036;stroke-width:1.0;" width="10" x="1141.5" y="381.2832"/><rect fill="#FFFFFF" filter="url(#ftsxfcwswk5tx)" height="150.5977" style="stroke:#A80036;stroke-width:1.0;" width="10" x="1141.5" y="500.5254"/><rect fill="#FFFFFF" filter="url(#ftsxfcwswk5tx)" height="59.3105" style="stroke:#A80036;stroke-width:1.0;" width="10" x="1378.5" y="178.4199"/><rect fill="#FFFFFF" filter="url(#ftsxfcwswk5tx)" height="30" style="stroke:#A80036;stroke-width:1.0;" width="10" x="1530.5" y="410.5938"/><rect fill="#FFFFFF" filter="url(#ftsxfcwswk5tx)" height="59.3105" style="stroke:#A80036;stroke-width:1.0;" width="10" x="1898.5" y="591.8125"/><rect fill="#FFFFFF" filter="url(#ftsxfcwswk5tx)" height="30" style="stroke:#A80036;stroke-width:1.0;" width="10" x="2050" y="207.7305"/><rect fill="#FFFFFF" filter="url(#ftsxfcwswk5tx)" height="30" style="stroke:#A80036;stroke-width:1.0;" width="10" x="2243" y="621.123"/><line style="stroke:#A80036;stroke-width:1.0;stroke-dasharray:5.0,5.0;" x1="107" x2="107" y1="88.4883" y2="698.4336"/><line style="stroke:#A80036;stroke-width:1.0;stroke-dasharray:5.0,5.0;" x1="598" x2="598" y1="88.4883" y2="698.4336"/><line style="stroke:#A80036;stroke-width:1.0;stroke-dasharray:5.0,5.0;" x1="1146" x2="1146" y1="88.4883" y2="698.4336"/><line style="stroke:#A80036;stroke-width:1.0;stroke-dasharray:5.0,5.0;" x1="1383.5" x2="1383.5" y1="88.4883" y2="698.4336"/><line style="stroke:#A80036;stroke-width:1.0;stroke-dasharray:5.0,5.0;" x1="1535.5" x2="1535.5" y1="88.4883" y2="698.4336"/><line style="stroke:#A80036;stroke-width:1.0;stroke-dasharray:5.0,5.0;" x1="1656.5" x2="1656.5" y1="88.4883" y2="698.4336"/><line style="stroke:#A80036;stroke-width:1.0;stroke-dasharray:5.0,5.0;" x1="1776.5" x2="1776.5" y1="549.5137" y2="698.4336"/><line style="stroke:#A80036;stroke-width:1.0;stroke-dasharray:5.0,5.0;" x1="1903.5" x2="1903.5" y1="88.4883" y2="698.4336"/><line style="stroke:#A80036;stroke-width:1.0;stroke-dasharray:5.0,5.0;" x1="2054.5" x2="2054.5" y1="88.4883" y2="698.4336"/><line style="stroke:#A80036;stroke-width:1.0;stroke-dasharray:5.0,5.0;" x1="2163.5" x2="2163.5" y1="88.4883" y2="698.4336"/><line style="stroke:#A80036;stroke-width:1.0;stroke-dasharray:5.0,5.0;" x1="2247.5" x2="2247.5" y1="88.4883" y2="698.4336"/><text fill="#000000" font-family="sans-serif" font-size="14" lengthAdjust="spacing" textLength="199" x="5" y="85.5352">Colaborador de Organização</text><ellipse cx="107.5" cy="15" fill="#FEFECE" filter="url(#ftsxfcwswk5tx)" rx="8" ry="8" style="stroke:#A80036;stroke-width:2.0;"/><path d="M107.5,23 L107.5,50 M94.5,31 L120.5,31 M107.5,50 L94.5,65 M107.5,50 L120.5,65 " fill="none" filter="url(#ftsxfcwswk5tx)" style="stroke:#A80036;stroke-width:2.0;"/><text fill="#000000" font-family="sans-serif" font-size="14" lengthAdjust="spacing" textLength="199" x="5" y="710.9688">Colaborador de Organização</text><ellipse cx="107.5" cy="723.9219" fill="#FEFECE" filter="url(#ftsxfcwswk5tx)" rx="8" ry="8" style="stroke:#A80036;stroke-width:2.0;"/><path d="M107.5,731.9219 L107.5,758.9219 M94.5,739.9219 L120.5,739.9219 M107.5,758.9219 L94.5,773.9219 M107.5,758.9219 L120.5,773.9219 " fill="none" filter="url(#ftsxfcwswk5tx)" style="stroke:#A80036;stroke-width:2.0;"/><rect fill="#FEFECE" filter="url(#ftsxfcwswk5tx)" height="30.4883" style="stroke:#A80036;stroke-width:1.5;" width="155" x="519" y="53"/><text fill="#000000" font-family="sans-serif" font-size="14" lengthAdjust="spacing" textLength="141" x="526" y="73.5352">:AdicionarAnuncioUI</text><rect fill="#FEFECE" filter="url(#ftsxfcwswk5tx)" height="30.4883" style="stroke:#A80036;stroke-width:1.5;" width="155" x="519" y="697.4336"/><text fill="#000000" font-family="sans-serif" font-size="14" lengthAdjust="spacing" textLength="141" x="526" y="717.9688">:AdicionarAnuncioUI</text><rect fill="#FEFECE" filter="url(#ftsxfcwswk5tx)" height="30.4883" style="stroke:#A80036;stroke-width:1.5;" width="201" x="1044" y="53"/><text fill="#000000" font-family="sans-serif" font-size="14" lengthAdjust="spacing" textLength="187" x="1051" y="73.5352">:RegistarAnuncioController</text><rect fill="#FEFECE" filter="url(#ftsxfcwswk5tx)" height="30.4883" style="stroke:#A80036;stroke-width:1.5;" width="201" x="1044" y="697.4336"/><text fill="#000000" font-family="sans-serif" font-size="14" lengthAdjust="spacing" textLength="187" x="1051" y="717.9688">:RegistarAnuncioController</text><rect fill="#FEFECE" filter="url(#ftsxfcwswk5tx)" height="30.4883" style="stroke:#A80036;stroke-width:1.5;" width="198" x="1282.5" y="53"/><text fill="#000000" font-family="sans-serif" font-size="14" lengthAdjust="spacing" textLength="184" x="1289.5" y="73.5352">RepositorioTipoRegimento</text><rect fill="#FEFECE" filter="url(#ftsxfcwswk5tx)" height="30.4883" style="stroke:#A80036;stroke-width:1.5;" width="198" x="1282.5" y="697.4336"/><text fill="#000000" font-family="sans-serif" font-size="14" lengthAdjust="spacing" textLength="184" x="1289.5" y="717.9688">RepositorioTipoRegimento</text><rect fill="#FEFECE" filter="url(#ftsxfcwswk5tx)" height="30.4883" style="stroke:#A80036;stroke-width:1.5;" width="78" x="1494.5" y="53"/><text fill="#000000" font-family="sans-serif" font-size="14" lengthAdjust="spacing" textLength="64" x="1501.5" y="73.5352">:UsersAPI</text><rect fill="#FEFECE" filter="url(#ftsxfcwswk5tx)" height="30.4883" style="stroke:#A80036;stroke-width:1.5;" width="78" x="1494.5" y="697.4336"/><text fill="#000000" font-family="sans-serif" font-size="14" lengthAdjust="spacing" textLength="64" x="1501.5" y="717.9688">:UsersAPI</text><rect fill="#FEFECE" filter="url(#ftsxfcwswk5tx)" height="30.4883" style="stroke:#A80036;stroke-width:1.5;" width="137" x="1586.5" y="53"/><text fill="#000000" font-family="sans-serif" font-size="14" lengthAdjust="spacing" textLength="123" x="1593.5" y="73.5352">RepositorioTarefa</text><rect fill="#FEFECE" filter="url(#ftsxfcwswk5tx)" height="30.4883" style="stroke:#A80036;stroke-width:1.5;" width="137" x="1586.5" y="697.4336"/><text fill="#000000" font-family="sans-serif" font-size="14" lengthAdjust="spacing" textLength="123" x="1593.5" y="717.9688">RepositorioTarefa</text><rect fill="#FEFECE" filter="url(#ftsxfcwswk5tx)" height="46.9766" style="stroke:#A80036;stroke-width:1.5;" width="75" x="1737.5" y="697.4336"/><text fill="#000000" font-family="sans-serif" font-size="14" lengthAdjust="spacing" textLength="26" x="1762" y="717.9688">anu</text><text fill="#000000" font-family="sans-serif" font-size="14" lengthAdjust="spacing" textLength="61" x="1744.5" y="734.457">:Anuncio</text><rect fill="#FEFECE" filter="url(#ftsxfcwswk5tx)" height="30.4883" style="stroke:#A80036;stroke-width:1.5;" width="150" x="1826.5" y="53"/><text fill="#000000" font-family="sans-serif" font-size="14" lengthAdjust="spacing" textLength="136" x="1833.5" y="73.5352">RepositorioAnuncio</text><rect fill="#FEFECE" filter="url(#ftsxfcwswk5tx)" height="30.4883" style="stroke:#A80036;stroke-width:1.5;" width="150" x="1826.5" y="697.4336"/><text fill="#000000" font-family="sans-serif" font-size="14" lengthAdjust="spacing" textLength="136" x="1833.5" y="717.9688">RepositorioAnuncio</text><text fill="#000000" font-family="sans-serif" font-size="14" lengthAdjust="spacing" textLength="123" x="1990.5" y="85.5352">TipoRegimentoDB</text><path d="M2037,36 C2037,26 2055,26 2055,26 C2055,26 2073,26 2073,36 L2073,62 C2073,72 2055,72 2055,72 C2055,72 2037,72 2037,62 L2037,36 " fill="#FEFECE" filter="url(#ftsxfcwswk5tx)" style="stroke:#000000;stroke-width:1.5;"/><path d="M2037,36 C2037,46 2055,46 2055,46 C2055,46 2073,46 2073,36 " fill="none" style="stroke:#000000;stroke-width:1.5;"/><text fill="#000000" font-family="sans-serif" font-size="14" lengthAdjust="spacing" textLength="123" x="1990.5" y="710.9688">TipoRegimentoDB</text><path d="M2037,723.9219 C2037,713.9219 2055,713.9219 2055,713.9219 C2055,713.9219 2073,713.9219 2073,723.9219 L2073,749.9219 C2073,759.9219 2055,759.9219 2055,759.9219 C2055,759.9219 2037,759.9219 2037,749.9219 L2037,723.9219 " fill="#FEFECE" filter="url(#ftsxfcwswk5tx)" style="stroke:#000000;stroke-width:1.5;"/><path d="M2037,723.9219 C2037,733.9219 2055,733.9219 2055,733.9219 C2055,733.9219 2073,733.9219 2073,723.9219 " fill="none" style="stroke:#000000;stroke-width:1.5;"/><text fill="#000000" font-family="sans-serif" font-size="14" lengthAdjust="spacing" textLength="62" x="2129.5" y="85.5352">TarefaDB</text><path d="M2145.5,36 C2145.5,26 2163.5,26 2163.5,26 C2163.5,26 2181.5,26 2181.5,36 L2181.5,62 C2181.5,72 2163.5,72 2163.5,72 C2163.5,72 2145.5,72 2145.5,62 L2145.5,36 " fill="#FEFECE" filter="url(#ftsxfcwswk5tx)" style="stroke:#000000;stroke-width:1.5;"/><path d="M2145.5,36 C2145.5,46 2163.5,46 2163.5,46 C2163.5,46 2181.5,46 2181.5,36 " fill="none" style="stroke:#000000;stroke-width:1.5;"/><text fill="#000000" font-family="sans-serif" font-size="14" lengthAdjust="spacing" textLength="62" x="2129.5" y="710.9688">TarefaDB</text><path d="M2145.5,723.9219 C2145.5,713.9219 2163.5,713.9219 2163.5,713.9219 C2163.5,713.9219 2181.5,713.9219 2181.5,723.9219 L2181.5,749.9219 C2181.5,759.9219 2163.5,759.9219 2163.5,759.9219 C2163.5,759.9219 2145.5,759.9219 2145.5,749.9219 L2145.5,723.9219 " fill="#FEFECE" filter="url(#ftsxfcwswk5tx)" style="stroke:#000000;stroke-width:1.5;"/><path d="M2145.5,723.9219 C2145.5,733.9219 2163.5,733.9219 2163.5,733.9219 C2163.5,733.9219 2181.5,733.9219 2181.5,723.9219 " fill="none" style="stroke:#000000;stroke-width:1.5;"/><text fill="#000000" font-family="sans-serif" font-size="14" lengthAdjust="spacing" textLength="75" x="2207.5" y="85.5352">AnuncioDB</text><path d="M2230,36 C2230,26 2248,26 2248,26 C2248,26 2266,26 2266,36 L2266,62 C2266,72 2248,72 2248,72 C2248,72 2230,72 2230,62 L2230,36 " fill="#FEFECE" filter="url(#ftsxfcwswk5tx)" style="stroke:#000000;stroke-width:1.5;"/><path d="M2230,36 C2230,46 2248,46 2248,46 C2248,46 2266,46 2266,36 " fill="none" style="stroke:#000000;stroke-width:1.5;"/><text fill="#000000" font-family="sans-serif" font-size="14" lengthAdjust="spacing" textLength="75" x="2207.5" y="710.9688">AnuncioDB</text><path d="M2230,723.9219 C2230,713.9219 2248,713.9219 2248,713.9219 C2248,713.9219 2266,713.9219 2266,723.9219 L2266,749.9219 C2266,759.9219 2248,759.9219 2248,759.9219 C2248,759.9219 2230,759.9219 2230,749.9219 L2230,723.9219 " fill="#FEFECE" filter="url(#ftsxfcwswk5tx)" style="stroke:#000000;stroke-width:1.5;"/><path d="M2230,723.9219 C2230,733.9219 2248,733.9219 2248,733.9219 C2248,733.9219 2266,733.9219 2266,723.9219 " fill="none" style="stroke:#000000;stroke-width:1.5;"/><rect fill="#FFFFFF" filter="url(#ftsxfcwswk5tx)" height="590.9453" style="stroke:#A80036;stroke-width:1.0;" width="10" x="102.5" y="98.4883"/><rect fill="#FFFFFF" filter="url(#ftsxfcwswk5tx)" height="177.8633" style="stroke:#A80036;stroke-width:1.0;" width="10" x="593.5" y="119.7988"/><rect fill="#FFFFFF" filter="url(#ftsxfcwswk5tx)" height="328.4609" style="stroke:#A80036;stroke-width:1.0;" width="10" x="593.5" y="351.9727"/><rect fill="#FFFFFF" filter="url(#ftsxfcwswk5tx)" height="88.6211" style="stroke:#A80036;stroke-width:1.0;" width="10" x="1141.5" y="149.1094"/><rect fill="#FFFFFF" filter="url(#ftsxfcwswk5tx)" height="59.3105" style="stroke:#A80036;stroke-width:1.0;" width="10" x="1141.5" y="381.2832"/><rect fill="#FFFFFF" filter="url(#ftsxfcwswk5tx)" height="150.5977" style="stroke:#A80036;stroke-width:1.0;" width="10" x="1141.5" y="500.5254"/><rect fill="#FFFFFF" filter="url(#ftsxfcwswk5tx)" height="59.3105" style="stroke:#A80036;stroke-width:1.0;" width="10" x="1378.5" y="178.4199"/><rect fill="#FFFFFF" filter="url(#ftsxfcwswk5tx)" height="30" style="stroke:#A80036;stroke-width:1.0;" width="10" x="1530.5" y="410.5938"/><rect fill="#FFFFFF" filter="url(#ftsxfcwswk5tx)" height="59.3105" style="stroke:#A80036;stroke-width:1.0;" width="10" x="1898.5" y="591.8125"/><rect fill="#FFFFFF" filter="url(#ftsxfcwswk5tx)" height="30" style="stroke:#A80036;stroke-width:1.0;" width="10" x="2050" y="207.7305"/><rect fill="#FFFFFF" filter="url(#ftsxfcwswk5tx)" height="30" style="stroke:#A80036;stroke-width:1.0;" width="10" x="2243" y="621.123"/><polygon fill="#A80036" points="581.5,115.7988,591.5,119.7988,581.5,123.7988,585.5,119.7988" style="stroke:#A80036;stroke-width:1.0;"/><line style="stroke:#A80036;stroke-width:1.0;" x1="112.5" x2="587.5" y1="119.7988" y2="119.7988"/><text fill="#000000" font-family="sans-serif" font-size="13" font-weight="bold" lengthAdjust="spacing" textLength="9" x="119.5" y="115.0566">1</text><text fill="#000000" font-family="sans-serif" font-size="13" lengthAdjust="spacing" textLength="275" x="132.5" y="115.0566">inicia a publicação selecionando uma tarefa</text><polygon fill="#A80036" points="1129.5,145.1094,1139.5,149.1094,1129.5,153.1094,1133.5,149.1094" style="stroke:#A80036;stroke-width:1.0;"/><line style="stroke:#A80036;stroke-width:1.0;" x1="603.5" x2="1135.5" y1="149.1094" y2="149.1094"/><text fill="#000000" font-family="sans-serif" font-size="13" font-weight="bold" lengthAdjust="spacing" textLength="9" x="610.5" y="144.3672">2</text><text fill="#000000" font-family="sans-serif" font-size="13" lengthAdjust="spacing" textLength="259" x="623.5" y="144.3672">list1 = getAllTipoRegimentoDesignacao()</text><polygon fill="#A80036" points="1366.5,174.4199,1376.5,178.4199,1366.5,182.4199,1370.5,178.4199" style="stroke:#A80036;stroke-width:1.0;"/><line style="stroke:#A80036;stroke-width:1.0;" x1="1151.5" x2="1372.5" y1="178.4199" y2="178.4199"/><text fill="#000000" font-family="sans-serif" font-size="13" font-weight="bold" lengthAdjust="spacing" textLength="9" x="1158.5" y="173.6777">3</text><text fill="#000000" font-family="sans-serif" font-size="13" lengthAdjust="spacing" textLength="195" x="1171.5" y="173.6777">getRepositorioTipoRegimento()</text><polygon fill="#A80036" points="2038,203.7305,2048,207.7305,2038,211.7305,2042,207.7305" style="stroke:#A80036;stroke-width:1.0;"/><line style="stroke:#A80036;stroke-width:1.0;" x1="1388.5" x2="2044" y1="207.7305" y2="207.7305"/><text fill="#000000" font-family="sans-serif" font-size="13" font-weight="bold" lengthAdjust="spacing" textLength="9" x="1395.5" y="202.9883">4</text><text fill="#000000" font-family="sans-serif" font-size="13" lengthAdjust="spacing" textLength="45" x="1408.5" y="202.9883">getAll()</text><polygon fill="#A80036" points="123.5,293.6621,113.5,297.6621,123.5,301.6621,119.5,297.6621" style="stroke:#A80036;stroke-width:1.0;"/><line style="stroke:#A80036;stroke-width:1.0;stroke-dasharray:2.0,2.0;" x1="117.5" x2="597.5" y1="297.6621" y2="297.6621"/><text fill="#000000" font-family="sans-serif" font-size="13" font-weight="bold" lengthAdjust="spacing" textLength="9" x="129.5" y="277.6094">5</text><text fill="#000000" font-family="sans-serif" font-size="13" lengthAdjust="spacing" textLength="107" x="142.5" y="262.2988">solicita os dados</text><text fill="#000000" font-family="sans-serif" font-size="13" lengthAdjust="spacing" textLength="440" x="142.5" y="277.6094">((i.e. período de publicação, período de apresentação de candidaturas,</text><text fill="#000000" font-family="sans-serif" font-size="13" lengthAdjust="spacing" textLength="254" x="142.5" y="292.9199">período de seriação e tipo de regimento)</text><polygon fill="#A80036" points="581.5,347.9727,591.5,351.9727,581.5,355.9727,585.5,351.9727" style="stroke:#A80036;stroke-width:1.0;"/><line style="stroke:#A80036;stroke-width:1.0;" x1="112.5" x2="587.5" y1="351.9727" y2="351.9727"/><text fill="#000000" font-family="sans-serif" font-size="13" font-weight="bold" lengthAdjust="spacing" textLength="9" x="119.5" y="347.2305">6</text><text fill="#000000" font-family="sans-serif" font-size="13" lengthAdjust="spacing" textLength="258" x="132.5" y="347.2305">introduz os dados solicitados e confirma</text><polygon fill="#A80036" points="1129.5,377.2832,1139.5,381.2832,1129.5,385.2832,1133.5,381.2832" style="stroke:#A80036;stroke-width:1.0;"/><line style="stroke:#A80036;stroke-width:1.0;" x1="603.5" x2="1135.5" y1="381.2832" y2="381.2832"/><text fill="#000000" font-family="sans-serif" font-size="13" font-weight="bold" lengthAdjust="spacing" textLength="9" x="610.5" y="376.541">7</text><text fill="#000000" font-family="sans-serif" font-size="13" lengthAdjust="spacing" textLength="112" x="623.5" y="376.541">getColabByEmail()</text><polygon fill="#A80036" points="1518.5,406.5938,1528.5,410.5938,1518.5,414.5938,1522.5,410.5938" style="stroke:#A80036;stroke-width:1.0;"/><line style="stroke:#A80036;stroke-width:1.0;" x1="1151.5" x2="1524.5" y1="410.5938" y2="410.5938"/><text fill="#000000" font-family="sans-serif" font-size="13" font-weight="bold" lengthAdjust="spacing" textLength="9" x="1158.5" y="405.8516">8</text><text fill="#000000" font-family="sans-serif" font-size="13" lengthAdjust="spacing" textLength="62" x="1171.5" y="405.8516">getEmail()</text><polygon fill="#A80036" points="1129.5,496.5254,1139.5,500.5254,1129.5,504.5254,1133.5,500.5254" style="stroke:#A80036;stroke-width:1.0;"/><line style="stroke:#A80036;stroke-width:1.0;" x1="603.5" x2="1135.5" y1="500.5254" y2="500.5254"/><text fill="#000000" font-family="sans-serif" font-size="13" font-weight="bold" lengthAdjust="spacing" textLength="9" x="610.5" y="480.4727">9</text><text fill="#000000" font-family="sans-serif" font-size="13" lengthAdjust="spacing" textLength="416" x="623.5" y="465.1621">RegistaAnuncio(Date dtInicioPublicitacao, Date dtFimPublicitacao,</text><text fill="#000000" font-family="sans-serif" font-size="13" lengthAdjust="spacing" textLength="455" x="623.5" y="480.4727">Date dtInicioCandidatura, Date dtFimCandidatura, Date dtInicioSeriacao,</text><text fill="#000000" font-family="sans-serif" font-size="13" lengthAdjust="spacing" textLength="506" x="623.5" y="495.7832">Date dtFimSeriacao, Tarefa tarefa, Colaborador colab, TipoRegimento regimento)</text><polygon fill="#A80036" points="1725.5,541.1465,1735.5,545.1465,1725.5,549.1465,1729.5,545.1465" style="stroke:#A80036;stroke-width:1.0;"/><line style="stroke:#A80036;stroke-width:1.0;stroke-dasharray:2.0,2.0;" x1="1151.5" x2="1731.5" y1="545.1465" y2="545.1465"/><text fill="#000000" font-family="sans-serif" font-size="13" font-weight="bold" lengthAdjust="spacing" textLength="18" x="1158.5" y="532.749">10</text><text fill="#000000" font-family="sans-serif" font-size="13" lengthAdjust="spacing" textLength="471" x="1180.5" y="525.0938">anun = create(dtInicioPublicitacao, dtFimPublicitacao, dtInicioCandidatura,</text><text fill="#000000" font-family="sans-serif" font-size="13" lengthAdjust="spacing" textLength="478" x="1180.5" y="540.4043">dtFimCandidatura, dtInicioSeriacao, dtFimSeriacao, tarefa, colab, regimento)</text><rect fill="#FEFECE" filter="url(#ftsxfcwswk5tx)" height="46.9766" style="stroke:#A80036;stroke-width:1.5;" width="75" x="1737.5" y="508.5254"/><text fill="#000000" font-family="sans-serif" font-size="14" lengthAdjust="spacing" textLength="26" x="1762" y="529.0605">anu</text><text fill="#000000" font-family="sans-serif" font-size="14" lengthAdjust="spacing" textLength="61" x="1744.5" y="545.5488">:Anuncio</text><polygon fill="#A80036" points="1886.5,587.8125,1896.5,591.8125,1886.5,595.8125,1890.5,591.8125" style="stroke:#A80036;stroke-width:1.0;"/><line style="stroke:#A80036;stroke-width:1.0;" x1="1151.5" x2="1892.5" y1="591.8125" y2="591.8125"/><text fill="#000000" font-family="sans-serif" font-size="13" font-weight="bold" lengthAdjust="spacing" textLength="18" x="1158.5" y="587.0703">11</text><text fill="#000000" font-family="sans-serif" font-size="13" lengthAdjust="spacing" textLength="152" x="1180.5" y="587.0703">getRepositorioAnuncio()</text><polygon fill="#A80036" points="2231,617.123,2241,621.123,2231,625.123,2235,621.123" style="stroke:#A80036;stroke-width:1.0;"/><line style="stroke:#A80036;stroke-width:1.0;" x1="1908.5" x2="2237" y1="621.123" y2="621.123"/><text fill="#000000" font-family="sans-serif" font-size="13" font-weight="bold" lengthAdjust="spacing" textLength="18" x="1915.5" y="616.3809">12</text><text fill="#000000" font-family="sans-serif" font-size="13" lengthAdjust="spacing" textLength="67" x="1937.5" y="616.3809">save(anun)</text><polygon fill="#A80036" points="123.5,676.4336,113.5,680.4336,123.5,684.4336,119.5,680.4336" style="stroke:#A80036;stroke-width:1.0;"/><line style="stroke:#A80036;stroke-width:1.0;stroke-dasharray:2.0,2.0;" x1="117.5" x2="597.5" y1="680.4336" y2="680.4336"/><text fill="#000000" font-family="sans-serif" font-size="13" font-weight="bold" lengthAdjust="spacing" textLength="18" x="129.5" y="675.6914">13</text><text fill="#000000" font-family="sans-serif" font-size="13" lengthAdjust="spacing" textLength="204" x="151.5" y="675.6914">informa do sucesso da operação</text><!--MD5=[7c1d36d073f32562a22b3e03b40f21dd]
@startuml
autonumber

actor "Colaborador de Organização" as ADM
participant ":AdicionarAnuncioUI" as UI
participant ":RegistarAnuncioController" as CTRL
participant "RepositorioTipoRegimento" as RTREG
participant ":UsersAPI" as SESSAO
participant "RepositorioTarefa" as LTAF
participant "anu\n:Anuncio" as ANU
participant "RepositorioAnuncio" as RA
database TipoRegimentoDB as regDB
database TarefaDB as tafDB
database AnuncioDB as anunDB

activate ADM
ADM -> UI : inicia a publicação selecionando uma tarefa
activate UI

UI -> CTRL : list1 = getAllTipoRegimentoDesignacao()
activate CTRL

CTRL -> RTREG: getRepositorioTipoRegimento()
activate RTREG

RTREG -> regDB: getAll()
activate regDB
deactivate regDB
deactivate RTREG

deactivate CTRL

UI - -> ADM : solicita os dados \n((i.e. período de publicação, período de apresentação de candidaturas, \nperíodo de seriação e tipo de regimento)
deactivate UI
|||

ADM -> UI : introduz os dados solicitados e confirma
activate UI

UI -> CTRL : getColabByEmail()
activate CTRL

CTRL -> SESSAO : getEmail()
activate SESSAO
deactivate SESSAO
deactivate CTRL

UI -> CTRL : RegistaAnuncio(Date dtInicioPublicitacao, Date dtFimPublicitacao, \nDate dtInicioCandidatura, Date dtFimCandidatura, Date dtInicioSeriacao, \nDate dtFimSeriacao, Tarefa tarefa, Colaborador colab, TipoRegimento regimento)
activate CTRL

CTRL - -> ANU ** : anun = create(dtInicioPublicitacao, dtFimPublicitacao, dtInicioCandidatura, \ndtFimCandidatura, dtInicioSeriacao, dtFimSeriacao, tarefa, colab, regimento)

CTRL -> RA : getRepositorioAnuncio()
activate RA

RA -> anunDB : save(anun)
activate anunDB
deactivate anunDB

deactivate RA
deactivate CTRL

UI - -> ADM: informa do sucesso da operação
deactivate UI

@enduml

PlantUML version 1.2021.00(Sun Jan 10 10:25:05 WET 2021)
(GPL source distribution)
Java Runtime: Java(TM) SE Runtime Environment
JVM: Java HotSpot(TM) 64-Bit Server VM
Default Encoding: UTF-8
Language: pt
Country: PT
--></g></svg>