<?xml version="1.0" encoding="UTF-8" standalone="no"?><svg xmlns="http://www.w3.org/2000/svg" xmlns:xlink="http://www.w3.org/1999/xlink" contentScriptType="application/ecmascript" contentStyleType="text/css" height="695px" preserveAspectRatio="none" style="width:1811px;height:695px;" version="1.1" viewBox="0 0 1811 695" width="1811px" zoomAndPan="magnify"><defs><filter height="300%" id="fz8g8k376xuvd" width="300%" x="-1" y="-1"><feGaussianBlur result="blurOut" stdDeviation="2.0"/><feColorMatrix in="blurOut" result="blurOut2" type="matrix" values="0 0 0 0 0 0 0 0 0 0 0 0 0 0 0 0 0 0 .4 0"/><feOffset dx="4.0" dy="4.0" in="blurOut2" result="blurOut3"/><feBlend in="SourceGraphic" in2="blurOut3" mode="normal"/></filter></defs><g><!--MD5=[656b504e23380194a42f986724fc4125]
class RegistarFreelancerUI--><rect codeLine="5" fill="#FEFECE" filter="url(#fz8g8k376xuvd)" height="48" id="RegistarFreelancerUI" style="stroke:#A80036;stroke-width:1.5;" width="150" x="7" y="409.5"/><ellipse cx="22" cy="425.5" fill="#ADD1B2" rx="11" ry="11" style="stroke:#A80036;stroke-width:1.0;"/><path d="M24.7656,421.375 Q24.9219,421.1563 25.1094,421.0469 Q25.2969,420.9375 25.5156,420.9375 Q25.8906,420.9375 26.125,421.2031 Q26.3594,421.4531 26.3594,422.0625 L26.3594,423.5156 Q26.3594,424.125 26.125,424.3906 Q25.8906,424.6563 25.5156,424.6563 Q25.1719,424.6563 24.9688,424.4531 Q24.7656,424.2656 24.6563,423.75 Q24.6094,423.3906 24.4219,423.2031 Q24.0938,422.8281 23.4844,422.6094 Q22.875,422.3906 22.25,422.3906 Q21.4844,422.3906 20.8438,422.7188 Q20.2188,423.0469 19.7188,423.7969 Q19.2344,424.5469 19.2344,425.5781 L19.2344,426.6719 Q19.2344,427.9063 20.125,428.7344 Q21.0156,429.5469 22.6094,429.5469 Q23.5469,429.5469 24.2031,429.2969 Q24.5938,429.1406 25.0156,428.7031 Q25.2813,428.4375 25.4219,428.3594 Q25.5781,428.2813 25.7813,428.2813 Q26.1094,428.2813 26.3594,428.5469 Q26.625,428.7969 26.625,429.1406 Q26.625,429.4844 26.2813,429.8906 Q25.7813,430.4688 24.9844,430.7969 Q23.9063,431.25 22.6094,431.25 Q21.0938,431.25 19.8906,430.625 Q18.9063,430.125 18.2188,429.0625 Q17.5313,427.9844 17.5313,426.7031 L17.5313,425.5469 Q17.5313,424.2188 18.1406,423.0781 Q18.7656,421.9219 19.8594,421.3125 Q20.9531,420.6875 22.1875,420.6875 Q22.9219,420.6875 23.5625,420.8594 Q24.2188,421.0156 24.7656,421.375 Z " fill="#000000"/><text fill="#000000" font-family="sans-serif" font-size="12" lengthAdjust="spacing" textLength="118" x="36" y="430.4102">RegistarFreelancerUI</text><line style="stroke:#A80036;stroke-width:1.5;" x1="8" x2="156" y1="441.5" y2="441.5"/><line style="stroke:#A80036;stroke-width:1.5;" x1="8" x2="156" y1="449.5" y2="449.5"/><!--MD5=[32c5f543cbb67cb9941cc985f78b5435]
class RegistarFreelancerController--><rect codeLine="9" fill="#FEFECE" filter="url(#fz8g8k376xuvd)" height="117.1797" id="RegistarFreelancerController" style="stroke:#A80036;stroke-width:1.5;" width="468" x="218" y="375"/><ellipse cx="367.75" cy="391" fill="#ADD1B2" rx="11" ry="11" style="stroke:#A80036;stroke-width:1.0;"/><path d="M370.5156,386.875 Q370.6719,386.6563 370.8594,386.5469 Q371.0469,386.4375 371.2656,386.4375 Q371.6406,386.4375 371.875,386.7031 Q372.1094,386.9531 372.1094,387.5625 L372.1094,389.0156 Q372.1094,389.625 371.875,389.8906 Q371.6406,390.1563 371.2656,390.1563 Q370.9219,390.1563 370.7188,389.9531 Q370.5156,389.7656 370.4063,389.25 Q370.3594,388.8906 370.1719,388.7031 Q369.8438,388.3281 369.2344,388.1094 Q368.625,387.8906 368,387.8906 Q367.2344,387.8906 366.5938,388.2188 Q365.9688,388.5469 365.4688,389.2969 Q364.9844,390.0469 364.9844,391.0781 L364.9844,392.1719 Q364.9844,393.4063 365.875,394.2344 Q366.7656,395.0469 368.3594,395.0469 Q369.2969,395.0469 369.9531,394.7969 Q370.3438,394.6406 370.7656,394.2031 Q371.0313,393.9375 371.1719,393.8594 Q371.3281,393.7813 371.5313,393.7813 Q371.8594,393.7813 372.1094,394.0469 Q372.375,394.2969 372.375,394.6406 Q372.375,394.9844 372.0313,395.3906 Q371.5313,395.9688 370.7344,396.2969 Q369.6563,396.75 368.3594,396.75 Q366.8438,396.75 365.6406,396.125 Q364.6563,395.625 363.9688,394.5625 Q363.2813,393.4844 363.2813,392.2031 L363.2813,391.0469 Q363.2813,389.7188 363.8906,388.5781 Q364.5156,387.4219 365.6094,386.8125 Q366.7031,386.1875 367.9375,386.1875 Q368.6719,386.1875 369.3125,386.3594 Q369.9688,386.5156 370.5156,386.875 Z " fill="#000000"/><text fill="#000000" font-family="sans-serif" font-size="12" lengthAdjust="spacing" textLength="160" x="388.25" y="395.9102">RegistarFreelancerController</text><line style="stroke:#A80036;stroke-width:1.5;" x1="219" x2="685" y1="407" y2="407"/><line style="stroke:#A80036;stroke-width:1.5;" x1="219" x2="685" y1="415" y2="415"/><text fill="#000000" font-family="sans-serif" font-size="11" lengthAdjust="spacing" textLength="293" x="224" y="430.4189">+registarFrelancer(nome, nif, endpost, tele, email, lHab, lRec)</text><text fill="#000000" font-family="sans-serif" font-size="11" lengthAdjust="spacing" textLength="347" x="224" y="444.2549">+EnderecoPostal registarEnderecoPostal(morada, codPostal, localidade)</text><text fill="#000000" font-family="sans-serif" font-size="11" lengthAdjust="spacing" textLength="99" x="224" y="458.0908">+registaFreelancer()</text><text fill="#000000" font-family="sans-serif" font-size="11" lengthAdjust="spacing" textLength="456" x="224" y="471.9268">+HabilitacaoAcademica registarHabilitacaoAcademica(grau, descCurso, instituicao, medCurso)</text><text fill="#000000" font-family="sans-serif" font-size="11" lengthAdjust="spacing" textLength="378" x="224" y="485.7627">+ReconhecimentoCT ReconhecimentoCT(data, compTecnica, grauProficiencia)</text><!--MD5=[ecaed46f78f8cfe1e9ce18477649be18]
class Plataforma--><rect codeLine="17" fill="#FEFECE" filter="url(#fz8g8k376xuvd)" height="75.6719" id="Plataforma" style="stroke:#A80036;stroke-width:1.5;" width="148" x="759" y="395.5"/><ellipse cx="799.2" cy="411.5" fill="#ADD1B2" rx="11" ry="11" style="stroke:#A80036;stroke-width:1.0;"/><path d="M801.9656,407.375 Q802.1219,407.1563 802.3094,407.0469 Q802.4969,406.9375 802.7156,406.9375 Q803.0906,406.9375 803.325,407.2031 Q803.5594,407.4531 803.5594,408.0625 L803.5594,409.5156 Q803.5594,410.125 803.325,410.3906 Q803.0906,410.6563 802.7156,410.6563 Q802.3719,410.6563 802.1688,410.4531 Q801.9656,410.2656 801.8563,409.75 Q801.8094,409.3906 801.6219,409.2031 Q801.2938,408.8281 800.6844,408.6094 Q800.075,408.3906 799.45,408.3906 Q798.6844,408.3906 798.0438,408.7188 Q797.4188,409.0469 796.9188,409.7969 Q796.4344,410.5469 796.4344,411.5781 L796.4344,412.6719 Q796.4344,413.9063 797.325,414.7344 Q798.2156,415.5469 799.8094,415.5469 Q800.7469,415.5469 801.4031,415.2969 Q801.7938,415.1406 802.2156,414.7031 Q802.4813,414.4375 802.6219,414.3594 Q802.7781,414.2813 802.9813,414.2813 Q803.3094,414.2813 803.5594,414.5469 Q803.825,414.7969 803.825,415.1406 Q803.825,415.4844 803.4813,415.8906 Q802.9813,416.4688 802.1844,416.7969 Q801.1063,417.25 799.8094,417.25 Q798.2938,417.25 797.0906,416.625 Q796.1063,416.125 795.4188,415.0625 Q794.7313,413.9844 794.7313,412.7031 L794.7313,411.5469 Q794.7313,410.2188 795.3406,409.0781 Q795.9656,407.9219 797.0594,407.3125 Q798.1531,406.6875 799.3875,406.6875 Q800.1219,406.6875 800.7625,406.8594 Q801.4188,407.0156 801.9656,407.375 Z " fill="#000000"/><text fill="#000000" font-family="sans-serif" font-size="12" lengthAdjust="spacing" textLength="60" x="818.8" y="416.4102">Plataforma</text><line style="stroke:#A80036;stroke-width:1.5;" x1="760" x2="906" y1="427.5" y2="427.5"/><line style="stroke:#A80036;stroke-width:1.5;" x1="760" x2="906" y1="435.5" y2="435.5"/><text fill="#000000" font-family="sans-serif" font-size="11" lengthAdjust="spacing" textLength="136" x="765" y="450.9189">+getAlgoritmoGeradorPwd()</text><text fill="#000000" font-family="sans-serif" font-size="11" lengthAdjust="spacing" textLength="74" x="765" y="464.7549">+getUsersAPI()</text><!--MD5=[a322db5a7ec64d2ff8f2d6cf1831dcec]
class CompetenciaTecnica--><rect codeLine="22" fill="#FEFECE" filter="url(#fz8g8k376xuvd)" height="103.3438" id="CompetenciaTecnica" style="stroke:#A80036;stroke-width:1.5;" width="159" x="1112" y="578"/><ellipse cx="1131.5" cy="594" fill="#ADD1B2" rx="11" ry="11" style="stroke:#A80036;stroke-width:1.0;"/><path d="M1134.2656,589.875 Q1134.4219,589.6563 1134.6094,589.5469 Q1134.7969,589.4375 1135.0156,589.4375 Q1135.3906,589.4375 1135.625,589.7031 Q1135.8594,589.9531 1135.8594,590.5625 L1135.8594,592.0156 Q1135.8594,592.625 1135.625,592.8906 Q1135.3906,593.1563 1135.0156,593.1563 Q1134.6719,593.1563 1134.4688,592.9531 Q1134.2656,592.7656 1134.1563,592.25 Q1134.1094,591.8906 1133.9219,591.7031 Q1133.5938,591.3281 1132.9844,591.1094 Q1132.375,590.8906 1131.75,590.8906 Q1130.9844,590.8906 1130.3438,591.2188 Q1129.7188,591.5469 1129.2188,592.2969 Q1128.7344,593.0469 1128.7344,594.0781 L1128.7344,595.1719 Q1128.7344,596.4063 1129.625,597.2344 Q1130.5156,598.0469 1132.1094,598.0469 Q1133.0469,598.0469 1133.7031,597.7969 Q1134.0938,597.6406 1134.5156,597.2031 Q1134.7813,596.9375 1134.9219,596.8594 Q1135.0781,596.7813 1135.2813,596.7813 Q1135.6094,596.7813 1135.8594,597.0469 Q1136.125,597.2969 1136.125,597.6406 Q1136.125,597.9844 1135.7813,598.3906 Q1135.2813,598.9688 1134.4844,599.2969 Q1133.4063,599.75 1132.1094,599.75 Q1130.5938,599.75 1129.3906,599.125 Q1128.4063,598.625 1127.7188,597.5625 Q1127.0313,596.4844 1127.0313,595.2031 L1127.0313,594.0469 Q1127.0313,592.7188 1127.6406,591.5781 Q1128.2656,590.4219 1129.3594,589.8125 Q1130.4531,589.1875 1131.6875,589.1875 Q1132.4219,589.1875 1133.0625,589.3594 Q1133.7188,589.5156 1134.2656,589.875 Z " fill="#000000"/><text fill="#000000" font-family="sans-serif" font-size="12" lengthAdjust="spacing" textLength="117" x="1146.5" y="598.9102">CompetenciaTecnica</text><line style="stroke:#A80036;stroke-width:1.5;" x1="1113" x2="1270" y1="610" y2="610"/><text fill="#000000" font-family="sans-serif" font-size="11" lengthAdjust="spacing" textLength="67" x="1118" y="625.4189">-String codigo</text><text fill="#000000" font-family="sans-serif" font-size="11" lengthAdjust="spacing" textLength="88" x="1118" y="639.2549">-String descBreve</text><text fill="#000000" font-family="sans-serif" font-size="11" lengthAdjust="spacing" textLength="107" x="1118" y="653.0908">-String descDetalhada</text><line style="stroke:#A80036;stroke-width:1.5;" x1="1113" x2="1270" y1="659.5078" y2="659.5078"/><text fill="#000000" font-family="sans-serif" font-size="11" lengthAdjust="spacing" textLength="147" x="1118" y="674.9268">+getGrauProficiencia(valorGP)</text><!--MD5=[0d4fe674cc1d46ec0fc990086e50801a]
class GrauProficiencia--><rect codeLine="29" fill="#FEFECE" filter="url(#fz8g8k376xuvd)" height="75.6719" id="GrauProficiencia" style="stroke:#A80036;stroke-width:1.5;" width="123" x="1574.5" y="591.5"/><ellipse cx="1589.5" cy="607.5" fill="#ADD1B2" rx="11" ry="11" style="stroke:#A80036;stroke-width:1.0;"/><path d="M1592.2656,603.375 Q1592.4219,603.1563 1592.6094,603.0469 Q1592.7969,602.9375 1593.0156,602.9375 Q1593.3906,602.9375 1593.625,603.2031 Q1593.8594,603.4531 1593.8594,604.0625 L1593.8594,605.5156 Q1593.8594,606.125 1593.625,606.3906 Q1593.3906,606.6563 1593.0156,606.6563 Q1592.6719,606.6563 1592.4688,606.4531 Q1592.2656,606.2656 1592.1563,605.75 Q1592.1094,605.3906 1591.9219,605.2031 Q1591.5938,604.8281 1590.9844,604.6094 Q1590.375,604.3906 1589.75,604.3906 Q1588.9844,604.3906 1588.3438,604.7188 Q1587.7188,605.0469 1587.2188,605.7969 Q1586.7344,606.5469 1586.7344,607.5781 L1586.7344,608.6719 Q1586.7344,609.9063 1587.625,610.7344 Q1588.5156,611.5469 1590.1094,611.5469 Q1591.0469,611.5469 1591.7031,611.2969 Q1592.0938,611.1406 1592.5156,610.7031 Q1592.7813,610.4375 1592.9219,610.3594 Q1593.0781,610.2813 1593.2813,610.2813 Q1593.6094,610.2813 1593.8594,610.5469 Q1594.125,610.7969 1594.125,611.1406 Q1594.125,611.4844 1593.7813,611.8906 Q1593.2813,612.4688 1592.4844,612.7969 Q1591.4063,613.25 1590.1094,613.25 Q1588.5938,613.25 1587.3906,612.625 Q1586.4063,612.125 1585.7188,611.0625 Q1585.0313,609.9844 1585.0313,608.7031 L1585.0313,607.5469 Q1585.0313,606.2188 1585.6406,605.0781 Q1586.2656,603.9219 1587.3594,603.3125 Q1588.4531,602.6875 1589.6875,602.6875 Q1590.4219,602.6875 1591.0625,602.8594 Q1591.7188,603.0156 1592.2656,603.375 Z " fill="#000000"/><text fill="#000000" font-family="sans-serif" font-size="12" lengthAdjust="spacing" textLength="91" x="1603.5" y="612.4102">GrauProficiencia</text><line style="stroke:#A80036;stroke-width:1.5;" x1="1575.5" x2="1696.5" y1="623.5" y2="623.5"/><text fill="#000000" font-family="sans-serif" font-size="11" lengthAdjust="spacing" textLength="59" x="1580.5" y="638.9189">-String valor</text><text fill="#000000" font-family="sans-serif" font-size="11" lengthAdjust="spacing" textLength="91" x="1580.5" y="652.7549">-String designacao</text><line style="stroke:#A80036;stroke-width:1.5;" x1="1575.5" x2="1696.5" y1="659.1719" y2="659.1719"/><!--MD5=[1f687b5315377fe49fca59b457947463]
class Freelancer--><rect codeLine="34" fill="#FEFECE" filter="url(#fz8g8k376xuvd)" height="117.1797" id="Freelancer" style="stroke:#A80036;stroke-width:1.5;" width="220" x="1081.5" y="152"/><ellipse cx="1157.75" cy="168" fill="#ADD1B2" rx="11" ry="11" style="stroke:#A80036;stroke-width:1.0;"/><path d="M1160.5156,163.875 Q1160.6719,163.6563 1160.8594,163.5469 Q1161.0469,163.4375 1161.2656,163.4375 Q1161.6406,163.4375 1161.875,163.7031 Q1162.1094,163.9531 1162.1094,164.5625 L1162.1094,166.0156 Q1162.1094,166.625 1161.875,166.8906 Q1161.6406,167.1563 1161.2656,167.1563 Q1160.9219,167.1563 1160.7188,166.9531 Q1160.5156,166.7656 1160.4063,166.25 Q1160.3594,165.8906 1160.1719,165.7031 Q1159.8438,165.3281 1159.2344,165.1094 Q1158.625,164.8906 1158,164.8906 Q1157.2344,164.8906 1156.5938,165.2188 Q1155.9688,165.5469 1155.4688,166.2969 Q1154.9844,167.0469 1154.9844,168.0781 L1154.9844,169.1719 Q1154.9844,170.4063 1155.875,171.2344 Q1156.7656,172.0469 1158.3594,172.0469 Q1159.2969,172.0469 1159.9531,171.7969 Q1160.3438,171.6406 1160.7656,171.2031 Q1161.0313,170.9375 1161.1719,170.8594 Q1161.3281,170.7813 1161.5313,170.7813 Q1161.8594,170.7813 1162.1094,171.0469 Q1162.375,171.2969 1162.375,171.6406 Q1162.375,171.9844 1162.0313,172.3906 Q1161.5313,172.9688 1160.7344,173.2969 Q1159.6563,173.75 1158.3594,173.75 Q1156.8438,173.75 1155.6406,173.125 Q1154.6563,172.625 1153.9688,171.5625 Q1153.2813,170.4844 1153.2813,169.2031 L1153.2813,168.0469 Q1153.2813,166.7188 1153.8906,165.5781 Q1154.5156,164.4219 1155.6094,163.8125 Q1156.7031,163.1875 1157.9375,163.1875 Q1158.6719,163.1875 1159.3125,163.3594 Q1159.9688,163.5156 1160.5156,163.875 Z " fill="#000000"/><text fill="#000000" font-family="sans-serif" font-size="12" lengthAdjust="spacing" textLength="59" x="1178.25" y="172.9102">Freelancer</text><line style="stroke:#A80036;stroke-width:1.5;" x1="1082.5" x2="1300.5" y1="184" y2="184"/><text fill="#000000" font-family="sans-serif" font-size="11" lengthAdjust="spacing" textLength="61" x="1087.5" y="199.4189">-String nome</text><text fill="#000000" font-family="sans-serif" font-size="11" lengthAdjust="spacing" textLength="50" x="1087.5" y="213.2549">-String NIF</text><text fill="#000000" font-family="sans-serif" font-size="11" lengthAdjust="spacing" textLength="74" x="1087.5" y="227.0908">-String telefone</text><text fill="#000000" font-family="sans-serif" font-size="11" lengthAdjust="spacing" textLength="59" x="1087.5" y="240.9268">-String email</text><line style="stroke:#A80036;stroke-width:1.5;" x1="1082.5" x2="1300.5" y1="247.3438" y2="247.3438"/><text fill="#000000" font-family="sans-serif" font-size="11" lengthAdjust="spacing" textLength="208" x="1087.5" y="262.7627">+Freelancer(nome, nif, endpost, tele, email)</text><!--MD5=[87602f047bdeda361e6d6669da197818]
class HabilitacaoAcademica--><rect codeLine="42" fill="#FEFECE" filter="url(#fz8g8k376xuvd)" height="117.1797" id="HabilitacaoAcademica" style="stroke:#A80036;stroke-width:1.5;" width="322" x="1475" y="7"/><ellipse cx="1570.25" cy="23" fill="#ADD1B2" rx="11" ry="11" style="stroke:#A80036;stroke-width:1.0;"/><path d="M1573.0156,18.875 Q1573.1719,18.6563 1573.3594,18.5469 Q1573.5469,18.4375 1573.7656,18.4375 Q1574.1406,18.4375 1574.375,18.7031 Q1574.6094,18.9531 1574.6094,19.5625 L1574.6094,21.0156 Q1574.6094,21.625 1574.375,21.8906 Q1574.1406,22.1563 1573.7656,22.1563 Q1573.4219,22.1563 1573.2188,21.9531 Q1573.0156,21.7656 1572.9063,21.25 Q1572.8594,20.8906 1572.6719,20.7031 Q1572.3438,20.3281 1571.7344,20.1094 Q1571.125,19.8906 1570.5,19.8906 Q1569.7344,19.8906 1569.0938,20.2188 Q1568.4688,20.5469 1567.9688,21.2969 Q1567.4844,22.0469 1567.4844,23.0781 L1567.4844,24.1719 Q1567.4844,25.4063 1568.375,26.2344 Q1569.2656,27.0469 1570.8594,27.0469 Q1571.7969,27.0469 1572.4531,26.7969 Q1572.8438,26.6406 1573.2656,26.2031 Q1573.5313,25.9375 1573.6719,25.8594 Q1573.8281,25.7813 1574.0313,25.7813 Q1574.3594,25.7813 1574.6094,26.0469 Q1574.875,26.2969 1574.875,26.6406 Q1574.875,26.9844 1574.5313,27.3906 Q1574.0313,27.9688 1573.2344,28.2969 Q1572.1563,28.75 1570.8594,28.75 Q1569.3438,28.75 1568.1406,28.125 Q1567.1563,27.625 1566.4688,26.5625 Q1565.7813,25.4844 1565.7813,24.2031 L1565.7813,23.0469 Q1565.7813,21.7188 1566.3906,20.5781 Q1567.0156,19.4219 1568.1094,18.8125 Q1569.2031,18.1875 1570.4375,18.1875 Q1571.1719,18.1875 1571.8125,18.3594 Q1572.4688,18.5156 1573.0156,18.875 Z " fill="#000000"/><text fill="#000000" font-family="sans-serif" font-size="12" lengthAdjust="spacing" textLength="123" x="1590.75" y="27.9102">HabilitacaoAcademica</text><line style="stroke:#A80036;stroke-width:1.5;" x1="1476" x2="1796" y1="39" y2="39"/><text fill="#000000" font-family="sans-serif" font-size="11" lengthAdjust="spacing" textLength="57" x="1481" y="54.4189">-String grau</text><text fill="#000000" font-family="sans-serif" font-size="11" lengthAdjust="spacing" textLength="91" x="1481" y="68.2549">-String designacao</text><text fill="#000000" font-family="sans-serif" font-size="11" lengthAdjust="spacing" textLength="83" x="1481" y="82.0908">-String instituicao</text><text fill="#000000" font-family="sans-serif" font-size="11" lengthAdjust="spacing" textLength="63" x="1481" y="95.9268">-String media</text><line style="stroke:#A80036;stroke-width:1.5;" x1="1476" x2="1796" y1="102.3438" y2="102.3438"/><text fill="#000000" font-family="sans-serif" font-size="11" lengthAdjust="spacing" textLength="310" x="1481" y="117.7627">+HabilitacaoAcademica(grau, descCurso, instituicao, medCurso)</text><!--MD5=[c4dc15e174088596c63903f5b5df879b]
class ReconhecimentoCompetenciaTecnica--><rect codeLine="50" fill="#FEFECE" filter="url(#fz8g8k376xuvd)" height="103.3438" id="ReconhecimentoCompetenciaTecnica" style="stroke:#A80036;stroke-width:1.5;" width="294" x="1489" y="438"/><ellipse cx="1526.95" cy="454" fill="#ADD1B2" rx="11" ry="11" style="stroke:#A80036;stroke-width:1.0;"/><path d="M1529.7156,449.875 Q1529.8719,449.6563 1530.0594,449.5469 Q1530.2469,449.4375 1530.4656,449.4375 Q1530.8406,449.4375 1531.075,449.7031 Q1531.3094,449.9531 1531.3094,450.5625 L1531.3094,452.0156 Q1531.3094,452.625 1531.075,452.8906 Q1530.8406,453.1563 1530.4656,453.1563 Q1530.1219,453.1563 1529.9188,452.9531 Q1529.7156,452.7656 1529.6063,452.25 Q1529.5594,451.8906 1529.3719,451.7031 Q1529.0438,451.3281 1528.4344,451.1094 Q1527.825,450.8906 1527.2,450.8906 Q1526.4344,450.8906 1525.7938,451.2188 Q1525.1688,451.5469 1524.6688,452.2969 Q1524.1844,453.0469 1524.1844,454.0781 L1524.1844,455.1719 Q1524.1844,456.4063 1525.075,457.2344 Q1525.9656,458.0469 1527.5594,458.0469 Q1528.4969,458.0469 1529.1531,457.7969 Q1529.5438,457.6406 1529.9656,457.2031 Q1530.2313,456.9375 1530.3719,456.8594 Q1530.5281,456.7813 1530.7313,456.7813 Q1531.0594,456.7813 1531.3094,457.0469 Q1531.575,457.2969 1531.575,457.6406 Q1531.575,457.9844 1531.2313,458.3906 Q1530.7313,458.9688 1529.9344,459.2969 Q1528.8563,459.75 1527.5594,459.75 Q1526.0438,459.75 1524.8406,459.125 Q1523.8563,458.625 1523.1688,457.5625 Q1522.4813,456.4844 1522.4813,455.2031 L1522.4813,454.0469 Q1522.4813,452.7188 1523.0906,451.5781 Q1523.7156,450.4219 1524.8094,449.8125 Q1525.9031,449.1875 1527.1375,449.1875 Q1527.8719,449.1875 1528.5125,449.3594 Q1529.1688,449.5156 1529.7156,449.875 Z " fill="#000000"/><text fill="#000000" font-family="sans-serif" font-size="12" lengthAdjust="spacing" textLength="211" x="1546.05" y="458.9102">ReconhecimentoCompetenciaTecnica</text><line style="stroke:#A80036;stroke-width:1.5;" x1="1490" x2="1782" y1="470" y2="470"/><text fill="#000000" font-family="sans-serif" font-size="11" lengthAdjust="spacing" textLength="56" x="1495" y="485.4189">-String data</text><text fill="#000000" font-family="sans-serif" font-size="11" lengthAdjust="spacing" textLength="134" x="1495" y="499.2549">-String competenciaTecnica</text><text fill="#000000" font-family="sans-serif" font-size="11" lengthAdjust="spacing" textLength="113" x="1495" y="513.0908">-String grauProficiencia</text><line style="stroke:#A80036;stroke-width:1.5;" x1="1490" x2="1782" y1="519.5078" y2="519.5078"/><text fill="#000000" font-family="sans-serif" font-size="11" lengthAdjust="spacing" textLength="282" x="1495" y="534.9268">+ReconhecimentoCT(data, compTecnica, grauProficiencia)</text><!--MD5=[dcda844062f930f807532403427d3023]
class EnderecoPostal--><rect codeLine="57" fill="#FEFECE" filter="url(#fz8g8k376xuvd)" height="103.3438" id="EnderecoPostal" style="stroke:#A80036;stroke-width:1.5;" width="248" x="1512" y="159"/><ellipse cx="1587.75" cy="175" fill="#ADD1B2" rx="11" ry="11" style="stroke:#A80036;stroke-width:1.0;"/><path d="M1590.5156,170.875 Q1590.6719,170.6563 1590.8594,170.5469 Q1591.0469,170.4375 1591.2656,170.4375 Q1591.6406,170.4375 1591.875,170.7031 Q1592.1094,170.9531 1592.1094,171.5625 L1592.1094,173.0156 Q1592.1094,173.625 1591.875,173.8906 Q1591.6406,174.1563 1591.2656,174.1563 Q1590.9219,174.1563 1590.7188,173.9531 Q1590.5156,173.7656 1590.4063,173.25 Q1590.3594,172.8906 1590.1719,172.7031 Q1589.8438,172.3281 1589.2344,172.1094 Q1588.625,171.8906 1588,171.8906 Q1587.2344,171.8906 1586.5938,172.2188 Q1585.9688,172.5469 1585.4688,173.2969 Q1584.9844,174.0469 1584.9844,175.0781 L1584.9844,176.1719 Q1584.9844,177.4063 1585.875,178.2344 Q1586.7656,179.0469 1588.3594,179.0469 Q1589.2969,179.0469 1589.9531,178.7969 Q1590.3438,178.6406 1590.7656,178.2031 Q1591.0313,177.9375 1591.1719,177.8594 Q1591.3281,177.7813 1591.5313,177.7813 Q1591.8594,177.7813 1592.1094,178.0469 Q1592.375,178.2969 1592.375,178.6406 Q1592.375,178.9844 1592.0313,179.3906 Q1591.5313,179.9688 1590.7344,180.2969 Q1589.6563,180.75 1588.3594,180.75 Q1586.8438,180.75 1585.6406,180.125 Q1584.6563,179.625 1583.9688,178.5625 Q1583.2813,177.4844 1583.2813,176.2031 L1583.2813,175.0469 Q1583.2813,173.7188 1583.8906,172.5781 Q1584.5156,171.4219 1585.6094,170.8125 Q1586.7031,170.1875 1587.9375,170.1875 Q1588.6719,170.1875 1589.3125,170.3594 Q1589.9688,170.5156 1590.5156,170.875 Z " fill="#000000"/><text fill="#000000" font-family="sans-serif" font-size="12" lengthAdjust="spacing" textLength="88" x="1608.25" y="179.9102">EnderecoPostal</text><line style="stroke:#A80036;stroke-width:1.5;" x1="1513" x2="1759" y1="191" y2="191"/><text fill="#000000" font-family="sans-serif" font-size="11" lengthAdjust="spacing" textLength="57" x="1518" y="206.4189">-String local</text><text fill="#000000" font-family="sans-serif" font-size="11" lengthAdjust="spacing" textLength="82" x="1518" y="220.2549">-String codPostal</text><text fill="#000000" font-family="sans-serif" font-size="11" lengthAdjust="spacing" textLength="83" x="1518" y="234.0908">-String localidade</text><line style="stroke:#A80036;stroke-width:1.5;" x1="1513" x2="1759" y1="240.5078" y2="240.5078"/><text fill="#000000" font-family="sans-serif" font-size="11" lengthAdjust="spacing" textLength="236" x="1518" y="255.9268">+EnderecoPostal(morada), codPostal, localidade)</text><!--MD5=[5dd1d6732c071e710b9290b531f2fa3b]
class Utilizador--><rect codeLine="65" fill="#FEFECE" filter="url(#fz8g8k376xuvd)" height="89.5078" id="Utilizador" style="stroke:#A80036;stroke-width:1.5;" width="97" x="1587.5" y="297.5"/><ellipse cx="1608.8" cy="313.5" fill="#ADD1B2" rx="11" ry="11" style="stroke:#A80036;stroke-width:1.0;"/><path d="M1611.5656,309.375 Q1611.7219,309.1563 1611.9094,309.0469 Q1612.0969,308.9375 1612.3156,308.9375 Q1612.6906,308.9375 1612.925,309.2031 Q1613.1594,309.4531 1613.1594,310.0625 L1613.1594,311.5156 Q1613.1594,312.125 1612.925,312.3906 Q1612.6906,312.6563 1612.3156,312.6563 Q1611.9719,312.6563 1611.7688,312.4531 Q1611.5656,312.2656 1611.4563,311.75 Q1611.4094,311.3906 1611.2219,311.2031 Q1610.8938,310.8281 1610.2844,310.6094 Q1609.675,310.3906 1609.05,310.3906 Q1608.2844,310.3906 1607.6438,310.7188 Q1607.0188,311.0469 1606.5188,311.7969 Q1606.0344,312.5469 1606.0344,313.5781 L1606.0344,314.6719 Q1606.0344,315.9063 1606.925,316.7344 Q1607.8156,317.5469 1609.4094,317.5469 Q1610.3469,317.5469 1611.0031,317.2969 Q1611.3938,317.1406 1611.8156,316.7031 Q1612.0813,316.4375 1612.2219,316.3594 Q1612.3781,316.2813 1612.5813,316.2813 Q1612.9094,316.2813 1613.1594,316.5469 Q1613.425,316.7969 1613.425,317.1406 Q1613.425,317.4844 1613.0813,317.8906 Q1612.5813,318.4688 1611.7844,318.7969 Q1610.7063,319.25 1609.4094,319.25 Q1607.8938,319.25 1606.6906,318.625 Q1605.7063,318.125 1605.0188,317.0625 Q1604.3313,315.9844 1604.3313,314.7031 L1604.3313,313.5469 Q1604.3313,312.2188 1604.9406,311.0781 Q1605.5656,309.9219 1606.6594,309.3125 Q1607.7531,308.6875 1608.9875,308.6875 Q1609.7219,308.6875 1610.3625,308.8594 Q1611.0188,309.0156 1611.5656,309.375 Z " fill="#000000"/><text fill="#000000" font-family="sans-serif" font-size="12" lengthAdjust="spacing" textLength="51" x="1624.2" y="318.4102">Utilizador</text><line style="stroke:#A80036;stroke-width:1.5;" x1="1588.5" x2="1683.5" y1="329.5" y2="329.5"/><text fill="#000000" font-family="sans-serif" font-size="11" lengthAdjust="spacing" textLength="61" x="1593.5" y="344.9189">-String nome</text><text fill="#000000" font-family="sans-serif" font-size="11" lengthAdjust="spacing" textLength="59" x="1593.5" y="358.7549">-String email</text><text fill="#000000" font-family="sans-serif" font-size="11" lengthAdjust="spacing" textLength="85" x="1593.5" y="372.5908">-String password</text><line style="stroke:#A80036;stroke-width:1.5;" x1="1588.5" x2="1683.5" y1="379.0078" y2="379.0078"/><!--MD5=[407421fe170650ac131a5bd0ef307540]
class UsersAPI--><rect codeLine="71" fill="#FEFECE" filter="url(#fz8g8k376xuvd)" height="61.8359" id="UsersAPI" style="stroke:#A80036;stroke-width:1.5;" width="249" x="1067" y="409.5"/><ellipse cx="1161.25" cy="425.5" fill="#ADD1B2" rx="11" ry="11" style="stroke:#A80036;stroke-width:1.0;"/><path d="M1164.0156,421.375 Q1164.1719,421.1563 1164.3594,421.0469 Q1164.5469,420.9375 1164.7656,420.9375 Q1165.1406,420.9375 1165.375,421.2031 Q1165.6094,421.4531 1165.6094,422.0625 L1165.6094,423.5156 Q1165.6094,424.125 1165.375,424.3906 Q1165.1406,424.6563 1164.7656,424.6563 Q1164.4219,424.6563 1164.2188,424.4531 Q1164.0156,424.2656 1163.9063,423.75 Q1163.8594,423.3906 1163.6719,423.2031 Q1163.3438,422.8281 1162.7344,422.6094 Q1162.125,422.3906 1161.5,422.3906 Q1160.7344,422.3906 1160.0938,422.7188 Q1159.4688,423.0469 1158.9688,423.7969 Q1158.4844,424.5469 1158.4844,425.5781 L1158.4844,426.6719 Q1158.4844,427.9063 1159.375,428.7344 Q1160.2656,429.5469 1161.8594,429.5469 Q1162.7969,429.5469 1163.4531,429.2969 Q1163.8438,429.1406 1164.2656,428.7031 Q1164.5313,428.4375 1164.6719,428.3594 Q1164.8281,428.2813 1165.0313,428.2813 Q1165.3594,428.2813 1165.6094,428.5469 Q1165.875,428.7969 1165.875,429.1406 Q1165.875,429.4844 1165.5313,429.8906 Q1165.0313,430.4688 1164.2344,430.7969 Q1163.1563,431.25 1161.8594,431.25 Q1160.3438,431.25 1159.1406,430.625 Q1158.1563,430.125 1157.4688,429.0625 Q1156.7813,427.9844 1156.7813,426.7031 L1156.7813,425.5469 Q1156.7813,424.2188 1157.3906,423.0781 Q1158.0156,421.9219 1159.1094,421.3125 Q1160.2031,420.6875 1161.4375,420.6875 Q1162.1719,420.6875 1162.8125,420.8594 Q1163.4688,421.0156 1164.0156,421.375 Z " fill="#000000"/><text fill="#000000" font-family="sans-serif" font-size="12" lengthAdjust="spacing" textLength="52" x="1181.75" y="430.4102">UsersAPI</text><line style="stroke:#A80036;stroke-width:1.5;" x1="1068" x2="1315" y1="441.5" y2="441.5"/><line style="stroke:#A80036;stroke-width:1.5;" x1="1068" x2="1315" y1="449.5" y2="449.5"/><text fill="#000000" font-family="sans-serif" font-size="11" lengthAdjust="spacing" textLength="237" x="1073" y="464.9189">+registerUserWithRoles(nome,email,pwd,funcao)</text><!--MD5=[37bf6c08f758502d5d1a5531d651ab43]
class AlgoritmoGeradorPasswords--><rect codeLine="75" fill="#FEFECE" filter="url(#fz8g8k376xuvd)" height="70.0234" id="AlgoritmoGeradorPasswords" style="stroke:#A80036;stroke-width:1.5;" width="189" x="1097" y="304.5"/><ellipse cx="1112" cy="324.5938" fill="#B4A7E5" rx="11" ry="11" style="stroke:#A80036;stroke-width:1.0;"/><path d="M1112.9531,321.2344 L1112.9531,327.8906 L1114.6719,327.8906 Q1115.2813,327.8906 1115.5469,328.125 Q1115.8125,328.3594 1115.8125,328.75 Q1115.8125,329.125 1115.5469,329.3594 Q1115.2813,329.5938 1114.6719,329.5938 L1109.5313,329.5938 Q1108.9219,329.5938 1108.6563,329.3594 Q1108.3906,329.125 1108.3906,328.7344 Q1108.3906,328.3594 1108.6563,328.125 Q1108.9219,327.8906 1109.5313,327.8906 L1111.25,327.8906 L1111.25,321.2344 L1109.5313,321.2344 Q1108.9219,321.2344 1108.6563,321 Q1108.3906,320.7656 1108.3906,320.375 Q1108.3906,320 1108.6563,319.7656 Q1108.9219,319.5313 1109.5313,319.5313 L1114.6719,319.5313 Q1115.2813,319.5313 1115.5469,319.7656 Q1115.8125,320 1115.8125,320.375 Q1115.8125,320.7656 1115.5469,321 Q1115.2813,321.2344 1114.6719,321.2344 L1112.9531,321.2344 Z " fill="#000000"/><text fill="#000000" font-family="sans-serif" font-size="12" font-style="italic" lengthAdjust="spacing" textLength="61" x="1174" y="321.957">«interface»</text><text fill="#000000" font-family="sans-serif" font-size="12" font-style="italic" lengthAdjust="spacing" textLength="157" x="1126" y="337.0508">AlgoritmoGeradorPasswords</text><line style="stroke:#A80036;stroke-width:1.5;" x1="1098" x2="1285" y1="344.6875" y2="344.6875"/><line style="stroke:#A80036;stroke-width:1.5;" x1="1098" x2="1285" y1="352.6875" y2="352.6875"/><text fill="#000000" font-family="sans-serif" font-size="11" lengthAdjust="spacing" textLength="139" x="1103" y="368.1064">+geraPassword(nome,email)</text><!--MD5=[66c27f2f3fc9a5ca544cfaf803420972]
class RepositorioFreelancerDB--><rect codeLine="79" fill="#FEFECE" filter="url(#fz8g8k376xuvd)" height="61.8359" id="RepositorioFreelancerDB" style="stroke:#A80036;stroke-width:1.5;" width="172" x="747" y="577.5"/><ellipse cx="762" cy="593.5" fill="#ADD1B2" rx="11" ry="11" style="stroke:#A80036;stroke-width:1.0;"/><path d="M764.7656,589.375 Q764.9219,589.1563 765.1094,589.0469 Q765.2969,588.9375 765.5156,588.9375 Q765.8906,588.9375 766.125,589.2031 Q766.3594,589.4531 766.3594,590.0625 L766.3594,591.5156 Q766.3594,592.125 766.125,592.3906 Q765.8906,592.6563 765.5156,592.6563 Q765.1719,592.6563 764.9688,592.4531 Q764.7656,592.2656 764.6563,591.75 Q764.6094,591.3906 764.4219,591.2031 Q764.0938,590.8281 763.4844,590.6094 Q762.875,590.3906 762.25,590.3906 Q761.4844,590.3906 760.8438,590.7188 Q760.2188,591.0469 759.7188,591.7969 Q759.2344,592.5469 759.2344,593.5781 L759.2344,594.6719 Q759.2344,595.9063 760.125,596.7344 Q761.0156,597.5469 762.6094,597.5469 Q763.5469,597.5469 764.2031,597.2969 Q764.5938,597.1406 765.0156,596.7031 Q765.2813,596.4375 765.4219,596.3594 Q765.5781,596.2813 765.7813,596.2813 Q766.1094,596.2813 766.3594,596.5469 Q766.625,596.7969 766.625,597.1406 Q766.625,597.4844 766.2813,597.8906 Q765.7813,598.4688 764.9844,598.7969 Q763.9063,599.25 762.6094,599.25 Q761.0938,599.25 759.8906,598.625 Q758.9063,598.125 758.2188,597.0625 Q757.5313,595.9844 757.5313,594.7031 L757.5313,593.5469 Q757.5313,592.2188 758.1406,591.0781 Q758.7656,589.9219 759.8594,589.3125 Q760.9531,588.6875 762.1875,588.6875 Q762.9219,588.6875 763.5625,588.8594 Q764.2188,589.0156 764.7656,589.375 Z " fill="#000000"/><text fill="#000000" font-family="sans-serif" font-size="12" lengthAdjust="spacing" textLength="140" x="776" y="598.4102">RepositorioFreelancerDB</text><line style="stroke:#A80036;stroke-width:1.5;" x1="748" x2="918" y1="609.5" y2="609.5"/><line style="stroke:#A80036;stroke-width:1.5;" x1="748" x2="918" y1="617.5" y2="617.5"/><text fill="#000000" font-family="sans-serif" font-size="11" lengthAdjust="spacing" textLength="113" x="753" y="632.9189">+save(Freelancer free)</text><!--MD5=[95722b6f9a6b3365849ad4075c1dbfec]
link RegistarFreelancerUI to RegistarFreelancerController--><path codeLine="84" d="M157.03,433.5 C173.96,433.5 192.85,433.5 212.67,433.5 " fill="none" id="RegistarFreelancerUI-to-RegistarFreelancerController" style="stroke:#A80036;stroke-width:1.0;stroke-dasharray:7.0,7.0;"/><polygon fill="#A80036" points="217.72,433.5,208.72,429.5,212.72,433.5,208.72,437.5,217.72,433.5" style="stroke:#A80036;stroke-width:1.0;"/><!--MD5=[2e555ae67bb8df3432c2357bb816a845]
link RegistarFreelancerController to Plataforma--><path codeLine="85" d="M686.01,433.5 C710.09,433.5 733.19,433.5 753.62,433.5 " fill="none" id="RegistarFreelancerController-to-Plataforma" style="stroke:#A80036;stroke-width:1.0;stroke-dasharray:7.0,7.0;"/><polygon fill="#A80036" points="758.75,433.5,749.75,429.5,753.75,433.5,749.75,437.5,758.75,433.5" style="stroke:#A80036;stroke-width:1.0;"/><!--MD5=[108baef0ce4634ea001120e2b9ce84be]
link RegistarFreelancerController to RepositorioFreelancerDB--><path codeLine="86" d="M579.73,492.02 C639.78,519.75 709.32,551.85 760.16,575.33 " fill="none" id="RegistarFreelancerController-to-RepositorioFreelancerDB" style="stroke:#A80036;stroke-width:1.0;stroke-dasharray:7.0,7.0;"/><polygon fill="#A80036" points="764.71,577.43,758.2279,570.015,760.174,575.3265,754.8624,577.2726,764.71,577.43" style="stroke:#A80036;stroke-width:1.0;"/><!--MD5=[6559eb636a96f7dfb00e6558ace09863]
link RegistarFreelancerController to Freelancer--><path codeLine="87" d="M646.77,374.91 C783.44,333.58 961.86,279.64 1076.33,245.02 " fill="none" id="RegistarFreelancerController-to-Freelancer" style="stroke:#A80036;stroke-width:1.0;stroke-dasharray:7.0,7.0;"/><polygon fill="#A80036" points="1081.39,243.49,1071.6185,242.2582,1076.6028,244.9333,1073.9277,249.9177,1081.39,243.49" style="stroke:#A80036;stroke-width:1.0;"/><!--MD5=[ab54ca95d8d08691dde97d5c58af4a2c]
link RegistarFreelancerController to ReconhecimentoCompetenciaTecnica--><path codeLine="88" d="M686.32,482.07 C706.78,485.07 727.21,487.63 747,489.5 C1004.81,513.83 1306.59,506.24 1483.66,498.13 " fill="none" id="RegistarFreelancerController-to-ReconhecimentoCompetenciaTecnica" style="stroke:#A80036;stroke-width:1.0;stroke-dasharray:7.0,7.0;"/><polygon fill="#A80036" points="1488.86,497.89,1479.6765,494.3313,1483.8659,498.1326,1480.0647,502.3219,1488.86,497.89" style="stroke:#A80036;stroke-width:1.0;"/><!--MD5=[8ebaa7bd48295e6c5c4ee3f711fe448c]
link RegistarFreelancerController to HabilitacaoAcademica--><path codeLine="89" d="M547.84,374.87 C665.14,305.36 873.12,191.73 1067,134.5 C1199.13,95.5 1354.8,78.5 1469.73,71.12 " fill="none" id="RegistarFreelancerController-to-HabilitacaoAcademica" style="stroke:#A80036;stroke-width:1.0;stroke-dasharray:7.0,7.0;"/><polygon fill="#A80036" points="1474.83,70.8,1465.5968,67.3725,1469.8398,71.1137,1466.0987,75.3567,1474.83,70.8" style="stroke:#A80036;stroke-width:1.0;"/><!--MD5=[a77d152358ce76c19672aacd9fb0ada1]
link Plataforma to CompetenciaTecnica--><path codeLine="90" d="M903.16,471.52 C961.59,503.65 1045.44,549.75 1107.48,583.86 " fill="none" id="Plataforma-to-CompetenciaTecnica" style="stroke:#A80036;stroke-width:1.0;"/><polygon fill="#A80036" points="1111.91,586.29,1105.9547,578.4456,1107.5298,583.8788,1102.0967,585.4539,1111.91,586.29" style="stroke:#A80036;stroke-width:1.0;"/><text fill="#000000" font-family="sans-serif" font-size="13" lengthAdjust="spacing" textLength="22" x="982" y="492.9951">tem</text><text fill="#000000" font-family="sans-serif" font-size="13" lengthAdjust="spacing" textLength="7" x="907.2006" y="492.6935">1</text><text fill="#000000" font-family="sans-serif" font-size="13" lengthAdjust="spacing" textLength="5" x="1099.0858" y="596.4295">*</text><!--MD5=[39c0de7668d8063a4eb96c23050b3de2]
link Plataforma to Freelancer--><path codeLine="91" d="M907.05,399.7 C947.36,379.33 997.15,351.22 1037,319.5 C1052.51,307.15 1051.74,299.15 1067,286.5 C1072.83,281.67 1078.99,276.92 1085.32,272.31 " fill="none" id="Plataforma-to-Freelancer" style="stroke:#A80036;stroke-width:1.0;"/><polygon fill="#A80036" points="1089.74,269.14,1080.1014,271.1642,1085.6859,272.0664,1084.7837,277.6509,1089.74,269.14" style="stroke:#A80036;stroke-width:1.0;"/><text fill="#000000" font-family="sans-serif" font-size="13" lengthAdjust="spacing" textLength="86" x="950" y="315.9951">tem registados</text><text fill="#000000" font-family="sans-serif" font-size="13" lengthAdjust="spacing" textLength="7" x="915.0473" y="410.5695">1</text><text fill="#000000" font-family="sans-serif" font-size="13" lengthAdjust="spacing" textLength="5" x="1072.0333" y="290.7673">*</text><!--MD5=[8332b1d6239e15bdcec09ce3bcdea9a3]
link Plataforma to UsersAPI--><path codeLine="92" d="M907,434.93 C951.5,435.81 1009.64,436.95 1061.67,437.97 " fill="none" id="Plataforma-to-UsersAPI" style="stroke:#A80036;stroke-width:1.0;stroke-dasharray:7.0,7.0;"/><polygon fill="#A80036" points="1066.69,438.07,1057.7718,433.8908,1061.691,437.97,1057.6118,441.8892,1066.69,438.07" style="stroke:#A80036;stroke-width:1.0;"/><!--MD5=[7a59ad2cb29ff6e914b8672ce881fef8]
link Freelancer to HabilitacaoAcademica--><path codeLine="94" d="M1301.6,174.75 C1352.28,158.14 1413.62,138.04 1469.81,119.63 " fill="none" id="Freelancer-to-HabilitacaoAcademica" style="stroke:#A80036;stroke-width:1.0;"/><polygon fill="#A80036" points="1474.88,117.97,1465.0822,116.9682,1470.1281,119.5254,1467.5709,124.5713,1474.88,117.97" style="stroke:#A80036;stroke-width:1.0;"/><text fill="#000000" font-family="sans-serif" font-size="13" lengthAdjust="spacing" textLength="22" x="1384.5" y="125.9951">tem</text><text fill="#000000" font-family="sans-serif" font-size="13" lengthAdjust="spacing" textLength="7" x="1309.5875" y="186.3">1</text><text fill="#000000" font-family="sans-serif" font-size="13" lengthAdjust="spacing" textLength="20" x="1447.1261" y="134.2091">0..*</text><!--MD5=[2bba5561b974fb2050139d5fa9c0f564]
link Freelancer to ReconhecimentoCompetenciaTecnica--><path codeLine="95" d="M1299.25,269.18 C1305.31,274.59 1310.97,280.37 1316,286.5 C1340.35,316.18 1319.47,339.75 1346,367.5 C1383.19,406.39 1434.73,433.44 1484,451.99 " fill="none" id="Freelancer-to-ReconhecimentoCompetenciaTecnica" style="stroke:#A80036;stroke-width:1.0;"/><polygon fill="#A80036" points="1488.76,453.76,1481.7122,446.8804,1484.0719,452.0216,1478.9308,454.3813,1488.76,453.76" style="stroke:#A80036;stroke-width:1.0;"/><text fill="#000000" font-family="sans-serif" font-size="13" lengthAdjust="spacing" textLength="54" x="1368.5" y="363.9951">recebe(u)</text><text fill="#000000" font-family="sans-serif" font-size="13" lengthAdjust="spacing" textLength="7" x="1304.9555" y="290.8122">1</text><text fill="#000000" font-family="sans-serif" font-size="13" lengthAdjust="spacing" textLength="20" x="1461.1437" y="465.9117">0..*</text><!--MD5=[b8422db8e85907663c841d4c41f19cc1]
link Freelancer to EnderecoPostal--><path codeLine="96" d="M1301.6,210.5 C1363.7,210.5 1441.84,210.5 1506.85,210.5 " fill="none" id="Freelancer-to-EnderecoPostal" style="stroke:#A80036;stroke-width:1.0;"/><polygon fill="#A80036" points="1511.91,210.5,1502.9215,206.4743,1506.91,210.4857,1502.8986,214.4743,1511.91,210.5" style="stroke:#A80036;stroke-width:1.0;"/><text fill="#000000" font-family="sans-serif" font-size="13" lengthAdjust="spacing" textLength="22" x="1384.5" y="206.9951">tem</text><text fill="#000000" font-family="sans-serif" font-size="13" lengthAdjust="spacing" textLength="7" x="1309.5875" y="224.5637">1</text><text fill="#000000" font-family="sans-serif" font-size="13" lengthAdjust="spacing" textLength="7" x="1497.135" y="224.4829">1</text><!--MD5=[6a7c57800a31452a20aa2f5037e36afb]
link Freelancer to Utilizador--><path codeLine="97" d="M1301.6,243.04 C1390.94,269.7 1513.46,306.24 1582.37,326.8 " fill="none" id="Freelancer-to-Utilizador" style="stroke:#A80036;stroke-width:1.0;"/><polygon fill="#A80036" points="1587.24,328.25,1579.7602,321.8428,1582.4489,326.8198,1577.4719,329.5086,1587.24,328.25" style="stroke:#A80036;stroke-width:1.0;"/><text fill="#000000" font-family="sans-serif" font-size="13" lengthAdjust="spacing" textLength="61" x="1365" y="253.9951">atua como</text><text fill="#000000" font-family="sans-serif" font-size="13" lengthAdjust="spacing" textLength="22" x="1309.358" y="259.1377">0..1</text><text fill="#000000" font-family="sans-serif" font-size="13" lengthAdjust="spacing" textLength="7" x="1572.5643" y="322.5391">1</text><!--MD5=[0d731ff285a62a08178b23be6cceb109]
link CompetenciaTecnica to GrauProficiencia--><path codeLine="99" d="M1271.1,629.5 C1355.91,629.5 1489.48,629.5 1569.03,629.5 " fill="none" id="CompetenciaTecnica-to-GrauProficiencia" style="stroke:#A80036;stroke-width:1.0;"/><polygon fill="#A80036" points="1574.19,629.5,1565.19,625.5,1569.19,629.5,1565.19,633.5,1574.19,629.5" style="stroke:#A80036;stroke-width:1.0;"/><polygon fill="#000000" points="1381,620.6758,1371.9549,617.7369,1371.9549,623.6147,1381,620.6758" style="stroke:#000000;stroke-width:1.0;"/><text fill="#000000" font-family="sans-serif" font-size="13" lengthAdjust="spacing" textLength="34" x="1385" y="625.9951">aplica</text><text fill="#000000" font-family="sans-serif" font-size="13" lengthAdjust="spacing" textLength="7" x="1279.0205" y="643.758">1</text><text fill="#000000" font-family="sans-serif" font-size="13" lengthAdjust="spacing" textLength="5" x="1561.3522" y="644.0115">*</text><!--MD5=[4aa6a936df4ad7b844bdcf1457a2ad73]
link AlgoritmoGeradorPasswords to Utilizador--><path codeLine="101" d="M1286.07,340.13 C1378.27,340.76 1515.43,341.69 1587.24,342.18 " fill="none" id="AlgoritmoGeradorPasswords-Utilizador" style="stroke:#A80036;stroke-width:1.0;"/><polygon fill="#000000" points="1355.9999,332.7098,1346.975,329.7094,1346.935,335.5871,1355.9999,332.7098" style="stroke:#000000;stroke-width:1.0;"/><text fill="#000000" font-family="sans-serif" font-size="13" lengthAdjust="spacing" textLength="84" x="1360" y="337.9951">gera password</text><text fill="#000000" font-family="sans-serif" font-size="13" lengthAdjust="spacing" textLength="7" x="1293.885" y="354.3259">1</text><text fill="#000000" font-family="sans-serif" font-size="13" lengthAdjust="spacing" textLength="20" x="1559.3441" y="356.7638">0..*</text><!--MD5=[0f12dd5495e7a104724495f8c0d6ddfb]
link Freelancer to AlgoritmoGeradorPasswords--><path codeLine="103" d="M1191.5,269.24 C1191.5,279.24 1191.5,289.24 1191.5,299.25 " fill="none" id="Freelancer-to-AlgoritmoGeradorPasswords" style="stroke:#A80036;stroke-width:1.0;stroke-dasharray:7.0,7.0;"/><polygon fill="#A80036" points="1191.5,304.48,1195.5,295.48,1191.5,299.48,1187.5,295.48,1191.5,304.48" style="stroke:#A80036;stroke-width:1.0;"/><!--MD5=[8b19ed4d91866350f97b181d5bbfa45d]
@startuml
skinparam classAttributeIconSize 0

left to right direction

class RegistarFreelancerUI {
    
}

class RegistarFreelancerController {    
  +registarFrelancer(nome, nif, endpost, tele, email, lHab, lRec)
  +EnderecoPostal registarEnderecoPostal(morada, codPostal, localidade)
  +registaFreelancer()  
  +HabilitacaoAcademica registarHabilitacaoAcademica(grau, descCurso, instituicao, medCurso)
  +ReconhecimentoCT ReconhecimentoCT(data, compTecnica, grauProficiencia)
}

class Plataforma {
  +getAlgoritmoGeradorPwd()
  +getUsersAPI()
}

class CompetenciaTecnica {
  -String codigo
  -String descBreve
  -String descDetalhada
  +getGrauProficiencia(valorGP)
}

class GrauProficiencia {
  -String valor
  -String designacao
}

class Freelancer {
  -String nome
  -String NIF
  -String telefone
  -String email
   +Freelancer(nome, nif, endpost, tele, email)
}

class HabilitacaoAcademica {
  -String grau
  -String designacao 
  -String instituicao 
  -String media
  +HabilitacaoAcademica(grau, descCurso, instituicao, medCurso)
}

class ReconhecimentoCompetenciaTecnica {
  -String data
  -String competenciaTecnica
  -String grauProficiencia  
  +ReconhecimentoCT(data, compTecnica, grauProficiencia)
}

class EnderecoPostal {
  -String local
  -String codPostal
  -String localidade  
  +EnderecoPostal(morada), codPostal, localidade)
}


class Utilizador {
  -String nome
  -String email
  -String password
}

class UsersAPI {
   +registerUserWithRoles(nome,email,pwd,funcao)
}

interface AlgoritmoGeradorPasswords  <<interface>>{
  +geraPassword(nome,email)
}

class RepositorioFreelancerDB {
  +save(Freelancer free)
}


RegistarFreelancerUI ..> RegistarFreelancerController
RegistarFreelancerController ..> Plataforma
RegistarFreelancerController ..> RepositorioFreelancerDB
RegistarFreelancerController ..> Freelancer
RegistarFreelancerController ..> ReconhecimentoCompetenciaTecnica
RegistarFreelancerController ..> HabilitacaoAcademica
Plataforma  "1" - -> "*" CompetenciaTecnica : tem
Plataforma  "1" - -> "*" Freelancer : tem registados
Plataforma ..> UsersAPI

Freelancer "1" - -> "0..*" HabilitacaoAcademica: tem
Freelancer "1" - -> "0..*" ReconhecimentoCompetenciaTecnica: recebe(u)
Freelancer "1" - -> "1" EnderecoPostal: tem
Freelancer "0..1" - -> "1" Utilizador: atua como

CompetenciaTecnica "1" - -> "*" GrauProficiencia: aplica >

AlgoritmoGeradorPasswords "1" - - "0..*" Utilizador: gera password >

AlgoritmoGeradorPasswords <.l. Freelancer



@enduml

PlantUML version 1.2021.00(Sun Jan 10 10:25:05 WET 2021)
(GPL source distribution)
Java Runtime: Java(TM) SE Runtime Environment
JVM: Java HotSpot(TM) 64-Bit Server VM
Default Encoding: Cp1252
Language: pt
Country: PT
--></g></svg>