<?xml version="1.0" encoding="UTF-8" standalone="no"?><svg xmlns="http://www.w3.org/2000/svg" xmlns:xlink="http://www.w3.org/1999/xlink" contentScriptType="application/ecmascript" contentStyleType="text/css" height="563px" preserveAspectRatio="none" style="width:821px;height:563px;" version="1.1" viewBox="0 0 821 563" width="821px" zoomAndPan="magnify"><defs><filter height="300%" id="f1n3g4w6ia3k27" width="300%" x="-1" y="-1"><feGaussianBlur result="blurOut" stdDeviation="2.0"/><feColorMatrix in="blurOut" result="blurOut2" type="matrix" values="0 0 0 0 0 0 0 0 0 0 0 0 0 0 0 0 0 0 .4 0"/><feOffset dx="4.0" dy="4.0" in="blurOut2" result="blurOut3"/><feBlend in="SourceGraphic" in2="blurOut3" mode="normal"/></filter></defs><g><rect fill="#FFFFFF" filter="url(#f1n3g4w6ia3k27)" height="360.2188" style="stroke:#A80036;stroke-width:1.0;" width="10" x="62" y="99.6094"/><rect fill="#FFFFFF" filter="url(#f1n3g4w6ia3k27)" height="30.3516" style="stroke:#A80036;stroke-width:1.0;" width="10" x="756" y="121.9609"/><rect fill="#FFFFFF" filter="url(#f1n3g4w6ia3k27)" height="55.7031" style="stroke:#A80036;stroke-width:1.0;" width="10" x="756" y="182.6641"/><rect fill="#FFFFFF" filter="url(#f1n3g4w6ia3k27)" height="62.7031" style="stroke:#A80036;stroke-width:1.0;" width="10" x="756" y="268.7188"/><rect fill="#FFFFFF" filter="url(#f1n3g4w6ia3k27)" height="37.3516" style="stroke:#A80036;stroke-width:1.0;" width="10" x="756" y="361.7734"/><rect fill="#FFFFFF" filter="url(#f1n3g4w6ia3k27)" height="30.3516" style="stroke:#A80036;stroke-width:1.0;" width="10" x="756" y="429.4766"/><rect fill="#FFFFFF" filter="url(#f1n3g4w6ia3k27)" height="79.0547" style="stroke:#000000;stroke-width:2.0;" width="797" x="10" y="197.6641"/><rect fill="#FFFFFF" filter="url(#f1n3g4w6ia3k27)" height="79.0547" style="stroke:#000000;stroke-width:2.0;" width="797" x="10" y="290.7188"/><line style="stroke:#A80036;stroke-width:1.0;stroke-dasharray:5.0,5.0;" x1="67" x2="67" y1="89.6094" y2="477.8281"/><line style="stroke:#A80036;stroke-width:1.0;stroke-dasharray:5.0,5.0;" x1="761" x2="761" y1="89.6094" y2="477.8281"/><text fill="#000000" font-family="sans-serif" font-size="14" lengthAdjust="spacing" textLength="88" x="20" y="86.5332">Administrativo</text><ellipse cx="67" cy="15" fill="#FEFECE" filter="url(#f1n3g4w6ia3k27)" rx="8" ry="8" style="stroke:#A80036;stroke-width:2.0;"/><path d="M67,23 L67,50 M54,31 L80,31 M67,50 L54,65 M67,50 L80,65 " fill="none" filter="url(#f1n3g4w6ia3k27)" style="stroke:#A80036;stroke-width:2.0;"/><text fill="#000000" font-family="sans-serif" font-size="14" lengthAdjust="spacing" textLength="88" x="20" y="491.3613">Administrativo</text><ellipse cx="67" cy="504.4375" fill="#FEFECE" filter="url(#f1n3g4w6ia3k27)" rx="8" ry="8" style="stroke:#A80036;stroke-width:2.0;"/><path d="M67,512.4375 L67,539.4375 M54,520.4375 L80,520.4375 M67,539.4375 L54,554.4375 M67,539.4375 L80,554.4375 " fill="none" filter="url(#f1n3g4w6ia3k27)" style="stroke:#A80036;stroke-width:2.0;"/><rect fill="#FEFECE" filter="url(#f1n3g4w6ia3k27)" height="31.6094" style="stroke:#A80036;stroke-width:1.5;" width="68" x="725" y="53"/><text fill="#000000" font-family="sans-serif" font-size="14" lengthAdjust="spacing" textLength="54" x="732" y="74.5332">:Sistema</text><rect fill="#FEFECE" filter="url(#f1n3g4w6ia3k27)" height="31.6094" style="stroke:#A80036;stroke-width:1.5;" width="68" x="725" y="476.8281"/><text fill="#000000" font-family="sans-serif" font-size="14" lengthAdjust="spacing" textLength="54" x="732" y="498.3613">:Sistema</text><rect fill="#FFFFFF" filter="url(#f1n3g4w6ia3k27)" height="360.2188" style="stroke:#A80036;stroke-width:1.0;" width="10" x="62" y="99.6094"/><rect fill="#FFFFFF" filter="url(#f1n3g4w6ia3k27)" height="30.3516" style="stroke:#A80036;stroke-width:1.0;" width="10" x="756" y="121.9609"/><rect fill="#FFFFFF" filter="url(#f1n3g4w6ia3k27)" height="55.7031" style="stroke:#A80036;stroke-width:1.0;" width="10" x="756" y="182.6641"/><rect fill="#FFFFFF" filter="url(#f1n3g4w6ia3k27)" height="62.7031" style="stroke:#A80036;stroke-width:1.0;" width="10" x="756" y="268.7188"/><rect fill="#FFFFFF" filter="url(#f1n3g4w6ia3k27)" height="37.3516" style="stroke:#A80036;stroke-width:1.0;" width="10" x="756" y="361.7734"/><rect fill="#FFFFFF" filter="url(#f1n3g4w6ia3k27)" height="30.3516" style="stroke:#A80036;stroke-width:1.0;" width="10" x="756" y="429.4766"/><polygon fill="#A80036" points="744,117.9609,754,121.9609,744,125.9609,748,121.9609" style="stroke:#A80036;stroke-width:1.0;"/><line style="stroke:#A80036;stroke-width:1.0;" x1="72" x2="750" y1="121.9609" y2="121.9609"/><text fill="#000000" font-family="sans-serif" font-size="13" font-weight="bold" lengthAdjust="spacing" textLength="7" x="79" y="117.1045">1</text><text fill="#000000" font-family="sans-serif" font-size="13" lengthAdjust="spacing" textLength="103" x="90" y="117.1045">registar freelancer</text><polygon fill="#A80036" points="83,148.3125,73,152.3125,83,156.3125,79,152.3125" style="stroke:#A80036;stroke-width:1.0;"/><line style="stroke:#A80036;stroke-width:1.0;stroke-dasharray:2.0,2.0;" x1="77" x2="760" y1="152.3125" y2="152.3125"/><text fill="#000000" font-family="sans-serif" font-size="13" font-weight="bold" lengthAdjust="spacing" textLength="7" x="89" y="147.4561">2</text><text fill="#000000" font-family="sans-serif" font-size="13" lengthAdjust="spacing" textLength="548" x="100" y="147.4561">solicita dados do freelancer (o nome, o NIF, o endereço postal, um contacto telefónico e email)</text><polygon fill="#A80036" points="744,178.6641,754,182.6641,744,186.6641,748,182.6641" style="stroke:#A80036;stroke-width:1.0;"/><line style="stroke:#A80036;stroke-width:1.0;" x1="72" x2="750" y1="182.6641" y2="182.6641"/><text fill="#000000" font-family="sans-serif" font-size="13" font-weight="bold" lengthAdjust="spacing" textLength="7" x="79" y="177.8076">3</text><text fill="#000000" font-family="sans-serif" font-size="13" lengthAdjust="spacing" textLength="169" x="90" y="177.8076">introduz os dados solicitados</text><path d="M10,197.6641 L83,197.6641 L83,205.6641 L73,215.6641 L10,215.6641 L10,197.6641 " fill="#EEEEEE" style="stroke:#000000;stroke-width:1.0;"/><rect fill="none" height="79.0547" style="stroke:#000000;stroke-width:2.0;" width="797" x="10" y="197.6641"/><text fill="#000000" font-family="sans-serif" font-size="13" font-weight="bold" lengthAdjust="spacing" textLength="28" x="25" y="212.1592">loop</text><polygon fill="#A80036" points="83,234.3672,73,238.3672,83,242.3672,79,238.3672" style="stroke:#A80036;stroke-width:1.0;"/><line style="stroke:#A80036;stroke-width:1.0;stroke-dasharray:2.0,2.0;" x1="77" x2="760" y1="238.3672" y2="238.3672"/><text fill="#000000" font-family="sans-serif" font-size="13" font-weight="bold" lengthAdjust="spacing" textLength="7" x="89" y="233.5107">4</text><text fill="#000000" font-family="sans-serif" font-size="13" lengthAdjust="spacing" textLength="649" x="100" y="233.5107">solicita habilitações académicas (grau, designação do curso, instituição que concedeu o grau e média do curso)</text><polygon fill="#A80036" points="744,264.7188,754,268.7188,744,272.7188,748,268.7188" style="stroke:#A80036;stroke-width:1.0;"/><line style="stroke:#A80036;stroke-width:1.0;" x1="72" x2="750" y1="268.7188" y2="268.7188"/><text fill="#000000" font-family="sans-serif" font-size="13" font-weight="bold" lengthAdjust="spacing" textLength="7" x="79" y="263.8623">5</text><text fill="#000000" font-family="sans-serif" font-size="13" lengthAdjust="spacing" textLength="169" x="90" y="263.8623">introduz os dados solicitados</text><path d="M10,290.7188 L83,290.7188 L83,298.7188 L73,308.7188 L10,308.7188 L10,290.7188 " fill="#EEEEEE" style="stroke:#000000;stroke-width:1.0;"/><rect fill="none" height="79.0547" style="stroke:#000000;stroke-width:2.0;" width="797" x="10" y="290.7188"/><text fill="#000000" font-family="sans-serif" font-size="13" font-weight="bold" lengthAdjust="spacing" textLength="28" x="25" y="305.2139">loop</text><polygon fill="#A80036" points="83,327.4219,73,331.4219,83,335.4219,79,331.4219" style="stroke:#A80036;stroke-width:1.0;"/><line style="stroke:#A80036;stroke-width:1.0;stroke-dasharray:2.0,2.0;" x1="77" x2="760" y1="331.4219" y2="331.4219"/><text fill="#000000" font-family="sans-serif" font-size="13" font-weight="bold" lengthAdjust="spacing" textLength="7" x="89" y="326.5654">6</text><text fill="#000000" font-family="sans-serif" font-size="13" lengthAdjust="spacing" textLength="592" x="100" y="326.5654">solicita reconhecimentos de competências técnicas (data, competência técnica e grau de proficiência)</text><polygon fill="#A80036" points="744,357.7734,754,361.7734,744,365.7734,748,361.7734" style="stroke:#A80036;stroke-width:1.0;"/><line style="stroke:#A80036;stroke-width:1.0;" x1="72" x2="750" y1="361.7734" y2="361.7734"/><text fill="#000000" font-family="sans-serif" font-size="13" font-weight="bold" lengthAdjust="spacing" textLength="7" x="79" y="356.917">7</text><text fill="#000000" font-family="sans-serif" font-size="13" lengthAdjust="spacing" textLength="169" x="90" y="356.917">introduz os dados solicitados</text><polygon fill="#A80036" points="83,395.125,73,399.125,83,403.125,79,399.125" style="stroke:#A80036;stroke-width:1.0;"/><line style="stroke:#A80036;stroke-width:1.0;stroke-dasharray:2.0,2.0;" x1="77" x2="760" y1="399.125" y2="399.125"/><text fill="#000000" font-family="sans-serif" font-size="13" font-weight="bold" lengthAdjust="spacing" textLength="7" x="89" y="394.2686">8</text><text fill="#000000" font-family="sans-serif" font-size="13" lengthAdjust="spacing" textLength="226" x="100" y="394.2686">apresenta dados e solicita confirmação</text><polygon fill="#A80036" points="744,425.4766,754,429.4766,744,433.4766,748,429.4766" style="stroke:#A80036;stroke-width:1.0;"/><line style="stroke:#A80036;stroke-width:1.0;" x1="72" x2="750" y1="429.4766" y2="429.4766"/><text fill="#000000" font-family="sans-serif" font-size="13" font-weight="bold" lengthAdjust="spacing" textLength="7" x="79" y="424.6201">9</text><text fill="#000000" font-family="sans-serif" font-size="13" lengthAdjust="spacing" textLength="49" x="90" y="424.6201">confirma</text><polygon fill="#A80036" points="78,455.8281,68,459.8281,78,463.8281,74,459.8281" style="stroke:#A80036;stroke-width:1.0;"/><line style="stroke:#A80036;stroke-width:1.0;stroke-dasharray:2.0,2.0;" x1="72" x2="760" y1="459.8281" y2="459.8281"/><text fill="#000000" font-family="sans-serif" font-size="13" font-weight="bold" lengthAdjust="spacing" textLength="14" x="84" y="454.9717">10</text><text fill="#000000" font-family="sans-serif" font-size="13" lengthAdjust="spacing" textLength="138" x="102" y="454.9717">operação bem sucedida</text><!--MD5=[8eb3e519acfc5837174d46077251382a]
@startuml
autonumber
actor "Administrativo" as UNR

activate UNR
UNR -> ":Sistema" : registar freelancer
activate ":Sistema"
":Sistema" - -> UNR : solicita dados do freelancer (o nome, o NIF, o endereço postal, um contacto telefónico e email)
deactivate ":Sistema"
UNR -> ":Sistema" : introduz os dados solicitados

loop
activate ":Sistema"
":Sistema" - -> UNR : solicita habilitações académicas (grau, designação do curso, instituição que concedeu o grau e média do curso)
deactivate ":Sistema"
UNR -> ":Sistema" : introduz os dados solicitados
activate ":Sistema"
end loop 

loop

":Sistema" - -> UNR : solicita reconhecimentos de competências técnicas (data, competência técnica e grau de proficiência)
deactivate ":Sistema"
UNR -> ":Sistema" : introduz os dados solicitados
activate ":Sistema"
end loop


":Sistema" - -> UNR : apresenta dados e solicita confirmação
deactivate ":Sistema"

UNR -> ":Sistema" : confirma
activate ":Sistema"
":Sistema" - -> UNR : operação bem sucedida
deactivate ":Sistema"

deactivate UNR
@enduml

PlantUML version 1.2021.00(Sun Jan 10 10:25:05 WET 2021)
(GPL source distribution)
Java Runtime: Java(TM) SE Runtime Environment
JVM: Java HotSpot(TM) 64-Bit Server VM
Default Encoding: Cp1252
Language: pt
Country: PT
--></g></svg>