<?xml version="1.0" encoding="UTF-8" standalone="no"?><svg xmlns="http://www.w3.org/2000/svg" xmlns:xlink="http://www.w3.org/1999/xlink" contentScriptType="application/ecmascript" contentStyleType="text/css" height="470px" preserveAspectRatio="none" style="width:1385px;height:470px;" version="1.1" viewBox="0 0 1385 470" width="1385px" zoomAndPan="magnify"><defs><filter height="300%" id="fltkmq279sww1" width="300%" x="-1" y="-1"><feGaussianBlur result="blurOut" stdDeviation="2.0"/><feColorMatrix in="blurOut" result="blurOut2" type="matrix" values="0 0 0 0 0 0 0 0 0 0 0 0 0 0 0 0 0 0 .4 0"/><feOffset dx="4.0" dy="4.0" in="blurOut2" result="blurOut3"/><feBlend in="SourceGraphic" in2="blurOut3" mode="normal"/></filter></defs><g><!--MD5=[ecaed46f78f8cfe1e9ce18477649be18]
class Plataforma--><rect codeLine="5" fill="#FEFECE" filter="url(#fltkmq279sww1)" height="53.8359" id="Plataforma" style="stroke:#A80036;stroke-width:1.5;" width="103" x="7" y="223.06"/><ellipse cx="26.95" cy="239.06" fill="#ADD1B2" rx="11" ry="11" style="stroke:#A80036;stroke-width:1.0;"/><path d="M29.7156,234.935 Q29.8719,234.7163 30.0594,234.6069 Q30.2469,234.4975 30.4656,234.4975 Q30.8406,234.4975 31.075,234.7631 Q31.3094,235.0131 31.3094,235.6225 L31.3094,237.0756 Q31.3094,237.685 31.075,237.9506 Q30.8406,238.2163 30.4656,238.2163 Q30.1219,238.2163 29.9188,238.0131 Q29.7156,237.8256 29.6063,237.31 Q29.5594,236.9506 29.3719,236.7631 Q29.0438,236.3881 28.4344,236.1694 Q27.825,235.9506 27.2,235.9506 Q26.4344,235.9506 25.7938,236.2788 Q25.1688,236.6069 24.6688,237.3569 Q24.1844,238.1069 24.1844,239.1381 L24.1844,240.2319 Q24.1844,241.4663 25.075,242.2944 Q25.9656,243.1069 27.5594,243.1069 Q28.4969,243.1069 29.1531,242.8569 Q29.5438,242.7006 29.9656,242.2631 Q30.2313,241.9975 30.3719,241.9194 Q30.5281,241.8413 30.7313,241.8413 Q31.0594,241.8413 31.3094,242.1069 Q31.575,242.3569 31.575,242.7006 Q31.575,243.0444 31.2313,243.4506 Q30.7313,244.0288 29.9344,244.3569 Q28.8563,244.81 27.5594,244.81 Q26.0438,244.81 24.8406,244.185 Q23.8563,243.685 23.1688,242.6225 Q22.4813,241.5444 22.4813,240.2631 L22.4813,239.1069 Q22.4813,237.7788 23.0906,236.6381 Q23.7156,235.4819 24.8094,234.8725 Q25.9031,234.2475 27.1375,234.2475 Q27.8719,234.2475 28.5125,234.4194 Q29.1688,234.5756 29.7156,234.935 Z " fill="#000000"/><text fill="#000000" font-family="sans-serif" font-size="12" lengthAdjust="spacing" textLength="60" x="42.05" y="243.9702">Plataforma</text><line style="stroke:#A80036;stroke-width:1.5;" x1="8" x2="109" y1="255.06" y2="255.06"/><text fill="#000000" font-family="sans-serif" font-size="11" lengthAdjust="spacing" textLength="91" x="13" y="270.4789">-String designacao</text><!--MD5=[a322db5a7ec64d2ff8f2d6cf1831dcec]
class CompetenciaTecnica--><rect codeLine="9" fill="#FEFECE" filter="url(#fltkmq279sww1)" height="81.5078" id="CompetenciaTecnica" style="stroke:#A80036;stroke-width:1.5;" width="149" x="868" y="47.06"/><ellipse cx="883" cy="63.06" fill="#ADD1B2" rx="11" ry="11" style="stroke:#A80036;stroke-width:1.0;"/><path d="M885.7656,58.935 Q885.9219,58.7163 886.1094,58.6069 Q886.2969,58.4975 886.5156,58.4975 Q886.8906,58.4975 887.125,58.7631 Q887.3594,59.0131 887.3594,59.6225 L887.3594,61.0756 Q887.3594,61.685 887.125,61.9506 Q886.8906,62.2163 886.5156,62.2163 Q886.1719,62.2163 885.9688,62.0131 Q885.7656,61.8256 885.6563,61.31 Q885.6094,60.9506 885.4219,60.7631 Q885.0938,60.3881 884.4844,60.1694 Q883.875,59.9506 883.25,59.9506 Q882.4844,59.9506 881.8438,60.2788 Q881.2188,60.6069 880.7188,61.3569 Q880.2344,62.1069 880.2344,63.1381 L880.2344,64.2319 Q880.2344,65.4663 881.125,66.2944 Q882.0156,67.1069 883.6094,67.1069 Q884.5469,67.1069 885.2031,66.8569 Q885.5938,66.7006 886.0156,66.2631 Q886.2813,65.9975 886.4219,65.9194 Q886.5781,65.8413 886.7813,65.8413 Q887.1094,65.8413 887.3594,66.1069 Q887.625,66.3569 887.625,66.7006 Q887.625,67.0444 887.2813,67.4506 Q886.7813,68.0288 885.9844,68.3569 Q884.9063,68.81 883.6094,68.81 Q882.0938,68.81 880.8906,68.185 Q879.9063,67.685 879.2188,66.6225 Q878.5313,65.5444 878.5313,64.2631 L878.5313,63.1069 Q878.5313,61.7788 879.1406,60.6381 Q879.7656,59.4819 880.8594,58.8725 Q881.9531,58.2475 883.1875,58.2475 Q883.9219,58.2475 884.5625,58.4194 Q885.2188,58.5756 885.7656,58.935 Z " fill="#000000"/><text fill="#000000" font-family="sans-serif" font-size="12" lengthAdjust="spacing" textLength="117" x="897" y="67.9702">CompetenciaTecnica</text><line style="stroke:#A80036;stroke-width:1.5;" x1="869" x2="1016" y1="79.06" y2="79.06"/><text fill="#000000" font-family="sans-serif" font-size="11" lengthAdjust="spacing" textLength="67" x="874" y="94.4789">-String codigo</text><text fill="#000000" font-family="sans-serif" font-size="11" lengthAdjust="spacing" textLength="88" x="874" y="108.3149">-String descBreve</text><text fill="#000000" font-family="sans-serif" font-size="11" lengthAdjust="spacing" textLength="107" x="874" y="122.1508">-String descDetalhada</text><!--MD5=[0d4fe674cc1d46ec0fc990086e50801a]
class GrauProficiencia--><rect codeLine="15" fill="#FEFECE" filter="url(#fltkmq279sww1)" height="67.6719" id="GrauProficiencia" style="stroke:#A80036;stroke-width:1.5;" width="123" x="1248" y="104.06"/><ellipse cx="1263" cy="120.06" fill="#ADD1B2" rx="11" ry="11" style="stroke:#A80036;stroke-width:1.0;"/><path d="M1265.7656,115.935 Q1265.9219,115.7163 1266.1094,115.6069 Q1266.2969,115.4975 1266.5156,115.4975 Q1266.8906,115.4975 1267.125,115.7631 Q1267.3594,116.0131 1267.3594,116.6225 L1267.3594,118.0756 Q1267.3594,118.685 1267.125,118.9506 Q1266.8906,119.2163 1266.5156,119.2163 Q1266.1719,119.2163 1265.9688,119.0131 Q1265.7656,118.8256 1265.6563,118.31 Q1265.6094,117.9506 1265.4219,117.7631 Q1265.0938,117.3881 1264.4844,117.1694 Q1263.875,116.9506 1263.25,116.9506 Q1262.4844,116.9506 1261.8438,117.2788 Q1261.2188,117.6069 1260.7188,118.3569 Q1260.2344,119.1069 1260.2344,120.1381 L1260.2344,121.2319 Q1260.2344,122.4663 1261.125,123.2944 Q1262.0156,124.1069 1263.6094,124.1069 Q1264.5469,124.1069 1265.2031,123.8569 Q1265.5938,123.7006 1266.0156,123.2631 Q1266.2813,122.9975 1266.4219,122.9194 Q1266.5781,122.8413 1266.7813,122.8413 Q1267.1094,122.8413 1267.3594,123.1069 Q1267.625,123.3569 1267.625,123.7006 Q1267.625,124.0444 1267.2813,124.4506 Q1266.7813,125.0288 1265.9844,125.3569 Q1264.9063,125.81 1263.6094,125.81 Q1262.0938,125.81 1260.8906,125.185 Q1259.9063,124.685 1259.2188,123.6225 Q1258.5313,122.5444 1258.5313,121.2631 L1258.5313,120.1069 Q1258.5313,118.7788 1259.1406,117.6381 Q1259.7656,116.4819 1260.8594,115.8725 Q1261.9531,115.2475 1263.1875,115.2475 Q1263.9219,115.2475 1264.5625,115.4194 Q1265.2188,115.5756 1265.7656,115.935 Z " fill="#000000"/><text fill="#000000" font-family="sans-serif" font-size="12" lengthAdjust="spacing" textLength="91" x="1277" y="124.9702">GrauProficiencia</text><line style="stroke:#A80036;stroke-width:1.5;" x1="1249" x2="1370" y1="136.06" y2="136.06"/><text fill="#000000" font-family="sans-serif" font-size="11" lengthAdjust="spacing" textLength="64" x="1254" y="151.4789">-Integer valor</text><text fill="#000000" font-family="sans-serif" font-size="11" lengthAdjust="spacing" textLength="91" x="1254" y="165.3149">-String designacao</text><!--MD5=[dcda844062f930f807532403427d3023]
class EnderecoPostal--><rect codeLine="20" fill="#FEFECE" filter="url(#fltkmq279sww1)" height="81.5078" id="EnderecoPostal" style="stroke:#A80036;stroke-width:1.5;" width="120" x="604.5" y="38.06"/><ellipse cx="619.5" cy="54.06" fill="#ADD1B2" rx="11" ry="11" style="stroke:#A80036;stroke-width:1.0;"/><path d="M622.2656,49.935 Q622.4219,49.7163 622.6094,49.6069 Q622.7969,49.4975 623.0156,49.4975 Q623.3906,49.4975 623.625,49.7631 Q623.8594,50.0131 623.8594,50.6225 L623.8594,52.0756 Q623.8594,52.685 623.625,52.9506 Q623.3906,53.2163 623.0156,53.2163 Q622.6719,53.2163 622.4688,53.0131 Q622.2656,52.8256 622.1563,52.31 Q622.1094,51.9506 621.9219,51.7631 Q621.5938,51.3881 620.9844,51.1694 Q620.375,50.9506 619.75,50.9506 Q618.9844,50.9506 618.3438,51.2788 Q617.7188,51.6069 617.2188,52.3569 Q616.7344,53.1069 616.7344,54.1381 L616.7344,55.2319 Q616.7344,56.4663 617.625,57.2944 Q618.5156,58.1069 620.1094,58.1069 Q621.0469,58.1069 621.7031,57.8569 Q622.0938,57.7006 622.5156,57.2631 Q622.7813,56.9975 622.9219,56.9194 Q623.0781,56.8413 623.2813,56.8413 Q623.6094,56.8413 623.8594,57.1069 Q624.125,57.3569 624.125,57.7006 Q624.125,58.0444 623.7813,58.4506 Q623.2813,59.0288 622.4844,59.3569 Q621.4063,59.81 620.1094,59.81 Q618.5938,59.81 617.3906,59.185 Q616.4063,58.685 615.7188,57.6225 Q615.0313,56.5444 615.0313,55.2631 L615.0313,54.1069 Q615.0313,52.7788 615.6406,51.6381 Q616.2656,50.4819 617.3594,49.8725 Q618.4531,49.2475 619.6875,49.2475 Q620.4219,49.2475 621.0625,49.4194 Q621.7188,49.5756 622.2656,49.935 Z " fill="#000000"/><text fill="#000000" font-family="sans-serif" font-size="12" lengthAdjust="spacing" textLength="88" x="633.5" y="58.9702">EnderecoPostal</text><line style="stroke:#A80036;stroke-width:1.5;" x1="605.5" x2="723.5" y1="70.06" y2="70.06"/><text fill="#000000" font-family="sans-serif" font-size="11" lengthAdjust="spacing" textLength="57" x="610.5" y="85.4789">-String local</text><text fill="#000000" font-family="sans-serif" font-size="11" lengthAdjust="spacing" textLength="82" x="610.5" y="99.3149">-String codPostal</text><text fill="#000000" font-family="sans-serif" font-size="11" lengthAdjust="spacing" textLength="83" x="610.5" y="113.1508">-String localidade</text><!--MD5=[1f687b5315377fe49fca59b457947463]
class Freelancer--><rect codeLine="26" fill="#FEFECE" filter="url(#fltkmq279sww1)" height="95.3438" id="Freelancer" style="stroke:#A80036;stroke-width:1.5;" width="91" x="286.5" y="202.56"/><ellipse cx="301.5" cy="218.56" fill="#ADD1B2" rx="11" ry="11" style="stroke:#A80036;stroke-width:1.0;"/><path d="M304.2656,214.435 Q304.4219,214.2163 304.6094,214.1069 Q304.7969,213.9975 305.0156,213.9975 Q305.3906,213.9975 305.625,214.2631 Q305.8594,214.5131 305.8594,215.1225 L305.8594,216.5756 Q305.8594,217.185 305.625,217.4506 Q305.3906,217.7163 305.0156,217.7163 Q304.6719,217.7163 304.4688,217.5131 Q304.2656,217.3256 304.1563,216.81 Q304.1094,216.4506 303.9219,216.2631 Q303.5938,215.8881 302.9844,215.6694 Q302.375,215.4506 301.75,215.4506 Q300.9844,215.4506 300.3438,215.7788 Q299.7188,216.1069 299.2188,216.8569 Q298.7344,217.6069 298.7344,218.6381 L298.7344,219.7319 Q298.7344,220.9663 299.625,221.7944 Q300.5156,222.6069 302.1094,222.6069 Q303.0469,222.6069 303.7031,222.3569 Q304.0938,222.2006 304.5156,221.7631 Q304.7813,221.4975 304.9219,221.4194 Q305.0781,221.3413 305.2813,221.3413 Q305.6094,221.3413 305.8594,221.6069 Q306.125,221.8569 306.125,222.2006 Q306.125,222.5444 305.7813,222.9506 Q305.2813,223.5288 304.4844,223.8569 Q303.4063,224.31 302.1094,224.31 Q300.5938,224.31 299.3906,223.685 Q298.4063,223.185 297.7188,222.1225 Q297.0313,221.0444 297.0313,219.7631 L297.0313,218.6069 Q297.0313,217.2788 297.6406,216.1381 Q298.2656,214.9819 299.3594,214.3725 Q300.4531,213.7475 301.6875,213.7475 Q302.4219,213.7475 303.0625,213.9194 Q303.7188,214.0756 304.2656,214.435 Z " fill="#000000"/><text fill="#000000" font-family="sans-serif" font-size="12" lengthAdjust="spacing" textLength="59" x="315.5" y="223.4702">Freelancer</text><line style="stroke:#A80036;stroke-width:1.5;" x1="287.5" x2="376.5" y1="234.56" y2="234.56"/><text fill="#000000" font-family="sans-serif" font-size="11" lengthAdjust="spacing" textLength="61" x="292.5" y="249.9789">-String nome</text><text fill="#000000" font-family="sans-serif" font-size="11" lengthAdjust="spacing" textLength="50" x="292.5" y="263.8149">-String NIF</text><text fill="#000000" font-family="sans-serif" font-size="11" lengthAdjust="spacing" textLength="74" x="292.5" y="277.6508">-String telefone</text><text fill="#000000" font-family="sans-serif" font-size="11" lengthAdjust="spacing" textLength="59" x="292.5" y="291.4868">-String email</text><!--MD5=[df9f144f4e207f6ab4cd6fad6014a9df]
class ReconhecimentoCT--><rect codeLine="33" fill="#FEFECE" filter="url(#fltkmq279sww1)" height="53.8359" id="ReconhecimentoCT" style="stroke:#A80036;stroke-width:1.5;" width="142" x="593.5" y="155.06"/><ellipse cx="608.5" cy="171.06" fill="#ADD1B2" rx="11" ry="11" style="stroke:#A80036;stroke-width:1.0;"/><path d="M611.2656,166.935 Q611.4219,166.7163 611.6094,166.6069 Q611.7969,166.4975 612.0156,166.4975 Q612.3906,166.4975 612.625,166.7631 Q612.8594,167.0131 612.8594,167.6225 L612.8594,169.0756 Q612.8594,169.685 612.625,169.9506 Q612.3906,170.2163 612.0156,170.2163 Q611.6719,170.2163 611.4688,170.0131 Q611.2656,169.8256 611.1563,169.31 Q611.1094,168.9506 610.9219,168.7631 Q610.5938,168.3881 609.9844,168.1694 Q609.375,167.9506 608.75,167.9506 Q607.9844,167.9506 607.3438,168.2788 Q606.7188,168.6069 606.2188,169.3569 Q605.7344,170.1069 605.7344,171.1381 L605.7344,172.2319 Q605.7344,173.4663 606.625,174.2944 Q607.5156,175.1069 609.1094,175.1069 Q610.0469,175.1069 610.7031,174.8569 Q611.0938,174.7006 611.5156,174.2631 Q611.7813,173.9975 611.9219,173.9194 Q612.0781,173.8413 612.2813,173.8413 Q612.6094,173.8413 612.8594,174.1069 Q613.125,174.3569 613.125,174.7006 Q613.125,175.0444 612.7813,175.4506 Q612.2813,176.0288 611.4844,176.3569 Q610.4063,176.81 609.1094,176.81 Q607.5938,176.81 606.3906,176.185 Q605.4063,175.685 604.7188,174.6225 Q604.0313,173.5444 604.0313,172.2631 L604.0313,171.1069 Q604.0313,169.7788 604.6406,168.6381 Q605.2656,167.4819 606.3594,166.8725 Q607.4531,166.2475 608.6875,166.2475 Q609.4219,166.2475 610.0625,166.4194 Q610.7188,166.5756 611.2656,166.935 Z " fill="#000000"/><text fill="#000000" font-family="sans-serif" font-size="12" lengthAdjust="spacing" textLength="110" x="622.5" y="175.9702">ReconhecimentoCT</text><line style="stroke:#A80036;stroke-width:1.5;" x1="594.5" x2="734.5" y1="187.06" y2="187.06"/><text fill="#000000" font-family="sans-serif" font-size="11" lengthAdjust="spacing" textLength="130" x="599.5" y="202.4789">-Date dataReconhecimento</text><!--MD5=[87602f047bdeda361e6d6669da197818]
class HabilitacaoAcademica--><rect codeLine="37" fill="#FEFECE" filter="url(#fltkmq279sww1)" height="95.3438" id="HabilitacaoAcademica" style="stroke:#A80036;stroke-width:1.5;" width="155" x="587" y="244.56"/><ellipse cx="602" cy="260.56" fill="#ADD1B2" rx="11" ry="11" style="stroke:#A80036;stroke-width:1.0;"/><path d="M604.7656,256.435 Q604.9219,256.2163 605.1094,256.1069 Q605.2969,255.9975 605.5156,255.9975 Q605.8906,255.9975 606.125,256.2631 Q606.3594,256.5131 606.3594,257.1225 L606.3594,258.5756 Q606.3594,259.185 606.125,259.4506 Q605.8906,259.7163 605.5156,259.7163 Q605.1719,259.7163 604.9688,259.5131 Q604.7656,259.3256 604.6563,258.81 Q604.6094,258.4506 604.4219,258.2631 Q604.0938,257.8881 603.4844,257.6694 Q602.875,257.4506 602.25,257.4506 Q601.4844,257.4506 600.8438,257.7788 Q600.2188,258.1069 599.7188,258.8569 Q599.2344,259.6069 599.2344,260.6381 L599.2344,261.7319 Q599.2344,262.9663 600.125,263.7944 Q601.0156,264.6069 602.6094,264.6069 Q603.5469,264.6069 604.2031,264.3569 Q604.5938,264.2006 605.0156,263.7631 Q605.2813,263.4975 605.4219,263.4194 Q605.5781,263.3413 605.7813,263.3413 Q606.1094,263.3413 606.3594,263.6069 Q606.625,263.8569 606.625,264.2006 Q606.625,264.5444 606.2813,264.9506 Q605.7813,265.5288 604.9844,265.8569 Q603.9063,266.31 602.6094,266.31 Q601.0938,266.31 599.8906,265.685 Q598.9063,265.185 598.2188,264.1225 Q597.5313,263.0444 597.5313,261.7631 L597.5313,260.6069 Q597.5313,259.2788 598.1406,258.1381 Q598.7656,256.9819 599.8594,256.3725 Q600.9531,255.7475 602.1875,255.7475 Q602.9219,255.7475 603.5625,255.9194 Q604.2188,256.0756 604.7656,256.435 Z " fill="#000000"/><text fill="#000000" font-family="sans-serif" font-size="12" lengthAdjust="spacing" textLength="123" x="616" y="265.4702">HabilitacaoAcademica</text><line style="stroke:#A80036;stroke-width:1.5;" x1="588" x2="741" y1="276.56" y2="276.56"/><text fill="#000000" font-family="sans-serif" font-size="11" lengthAdjust="spacing" textLength="57" x="593" y="291.9789">-String grau</text><text fill="#000000" font-family="sans-serif" font-size="11" lengthAdjust="spacing" textLength="120" x="593" y="305.8149">-String designacaoCurso</text><text fill="#000000" font-family="sans-serif" font-size="11" lengthAdjust="spacing" textLength="109" x="593" y="319.6508">-String nomeInstituicao</text><text fill="#000000" font-family="sans-serif" font-size="11" lengthAdjust="spacing" textLength="97" x="593" y="333.4868">-Double mediaCurso</text><!--MD5=[5dd1d6732c071e710b9290b531f2fa3b]
class Utilizador--><rect codeLine="44" fill="#FEFECE" filter="url(#fltkmq279sww1)" height="81.5078" id="Utilizador" style="stroke:#A80036;stroke-width:1.5;" width="97" x="616" y="375.06"/><ellipse cx="637.3" cy="391.06" fill="#ADD1B2" rx="11" ry="11" style="stroke:#A80036;stroke-width:1.0;"/><path d="M640.0656,386.935 Q640.2219,386.7163 640.4094,386.6069 Q640.5969,386.4975 640.8156,386.4975 Q641.1906,386.4975 641.425,386.7631 Q641.6594,387.0131 641.6594,387.6225 L641.6594,389.0756 Q641.6594,389.685 641.425,389.9506 Q641.1906,390.2163 640.8156,390.2163 Q640.4719,390.2163 640.2688,390.0131 Q640.0656,389.8256 639.9563,389.31 Q639.9094,388.9506 639.7219,388.7631 Q639.3938,388.3881 638.7844,388.1694 Q638.175,387.9506 637.55,387.9506 Q636.7844,387.9506 636.1438,388.2788 Q635.5188,388.6069 635.0188,389.3569 Q634.5344,390.1069 634.5344,391.1381 L634.5344,392.2319 Q634.5344,393.4663 635.425,394.2944 Q636.3156,395.1069 637.9094,395.1069 Q638.8469,395.1069 639.5031,394.8569 Q639.8938,394.7006 640.3156,394.2631 Q640.5813,393.9975 640.7219,393.9194 Q640.8781,393.8413 641.0813,393.8413 Q641.4094,393.8413 641.6594,394.1069 Q641.925,394.3569 641.925,394.7006 Q641.925,395.0444 641.5813,395.4506 Q641.0813,396.0288 640.2844,396.3569 Q639.2063,396.81 637.9094,396.81 Q636.3938,396.81 635.1906,396.185 Q634.2063,395.685 633.5188,394.6225 Q632.8313,393.5444 632.8313,392.2631 L632.8313,391.1069 Q632.8313,389.7788 633.4406,388.6381 Q634.0656,387.4819 635.1594,386.8725 Q636.2531,386.2475 637.4875,386.2475 Q638.2219,386.2475 638.8625,386.4194 Q639.5188,386.5756 640.0656,386.935 Z " fill="#000000"/><text fill="#000000" font-family="sans-serif" font-size="12" lengthAdjust="spacing" textLength="51" x="652.7" y="395.9702">Utilizador</text><line style="stroke:#A80036;stroke-width:1.5;" x1="617" x2="712" y1="407.06" y2="407.06"/><text fill="#000000" font-family="sans-serif" font-size="11" lengthAdjust="spacing" textLength="61" x="622" y="422.4789">-String nome</text><text fill="#000000" font-family="sans-serif" font-size="11" lengthAdjust="spacing" textLength="59" x="622" y="436.3149">-String email</text><text fill="#000000" font-family="sans-serif" font-size="11" lengthAdjust="spacing" textLength="85" x="622" y="450.1508">-String password</text><!--MD5=[37bf6c08f758502d5d1a5531d651ab43]
class AlgoritmoGeradorPasswords--><rect codeLine="50" fill="#FEFECE" filter="url(#fltkmq279sww1)" height="40" id="AlgoritmoGeradorPasswords" style="stroke:#A80036;stroke-width:1.5;" width="192" x="236" y="342.06"/><ellipse cx="251" cy="358.06" fill="#ADD1B2" rx="11" ry="11" style="stroke:#A80036;stroke-width:1.0;"/><path d="M253.7656,353.935 Q253.9219,353.7163 254.1094,353.6069 Q254.2969,353.4975 254.5156,353.4975 Q254.8906,353.4975 255.125,353.7631 Q255.3594,354.0131 255.3594,354.6225 L255.3594,356.0756 Q255.3594,356.685 255.125,356.9506 Q254.8906,357.2163 254.5156,357.2163 Q254.1719,357.2163 253.9688,357.0131 Q253.7656,356.8256 253.6563,356.31 Q253.6094,355.9506 253.4219,355.7631 Q253.0938,355.3881 252.4844,355.1694 Q251.875,354.9506 251.25,354.9506 Q250.4844,354.9506 249.8438,355.2788 Q249.2188,355.6069 248.7188,356.3569 Q248.2344,357.1069 248.2344,358.1381 L248.2344,359.2319 Q248.2344,360.4663 249.125,361.2944 Q250.0156,362.1069 251.6094,362.1069 Q252.5469,362.1069 253.2031,361.8569 Q253.5938,361.7006 254.0156,361.2631 Q254.2813,360.9975 254.4219,360.9194 Q254.5781,360.8413 254.7813,360.8413 Q255.1094,360.8413 255.3594,361.1069 Q255.625,361.3569 255.625,361.7006 Q255.625,362.0444 255.2813,362.4506 Q254.7813,363.0288 253.9844,363.3569 Q252.9063,363.81 251.6094,363.81 Q250.0938,363.81 248.8906,363.185 Q247.9063,362.685 247.2188,361.6225 Q246.5313,360.5444 246.5313,359.2631 L246.5313,358.1069 Q246.5313,356.7788 247.1406,355.6381 Q247.7656,354.4819 248.8594,353.8725 Q249.9531,353.2475 251.1875,353.2475 Q251.9219,353.2475 252.5625,353.4194 Q253.2188,353.5756 253.7656,353.935 Z " fill="#000000"/><text fill="#000000" font-family="sans-serif" font-size="12" lengthAdjust="spacing" textLength="160" x="265" y="362.9702">AlgoritmoGeradorPasswords</text><line style="stroke:#A80036;stroke-width:1.5;" x1="237" x2="427" y1="374.06" y2="374.06"/><!--MD5=[a77d152358ce76c19672aacd9fb0ada1]
link Plataforma to CompetenciaTecnica--><path codeLine="53" d="M104.29,222.88 C192.69,171.02 397.51,59.57 587,20.06 C654.44,6 674.04,8.8 742,20.06 C784.78,27.15 830.7,42.25 867.69,56.42 " fill="none" id="Plataforma-CompetenciaTecnica" style="stroke:#A80036;stroke-width:1.0;"/><polygon fill="#000000" points="490.8852,19.1706,481.4217,18.2261,482.6739,23.969,490.8852,19.1706" style="stroke:#000000;stroke-width:1.0;"/><text fill="#000000" font-family="sans-serif" font-size="13" lengthAdjust="spacing" textLength="38" x="495" y="25.5551">possui</text><text fill="#000000" font-family="sans-serif" font-size="13" lengthAdjust="spacing" textLength="7" x="107.0696" y="212.2994">1</text><text fill="#000000" font-family="sans-serif" font-size="13" lengthAdjust="spacing" textLength="5" x="855.0798" y="67.6296">*</text><!--MD5=[39c0de7668d8063a4eb96c23050b3de2]
link Plataforma to Freelancer--><path codeLine="54" d="M110.25,250.06 C160.9,250.06 237.96,250.06 286.35,250.06 " fill="none" id="Plataforma-Freelancer" style="stroke:#A80036;stroke-width:1.0;"/><polygon fill="#000000" points="152,241.2358,142.9549,238.2969,142.9549,244.1747,152,241.2358" style="stroke:#000000;stroke-width:1.0;"/><text fill="#000000" font-family="sans-serif" font-size="13" lengthAdjust="spacing" textLength="47" x="156" y="246.5551">tem/usa</text><text fill="#000000" font-family="sans-serif" font-size="13" lengthAdjust="spacing" textLength="7" x="118.0195" y="264.7164">1</text><text fill="#000000" font-family="sans-serif" font-size="13" lengthAdjust="spacing" textLength="5" x="273.3752" y="264.8808">*</text><!--MD5=[49996cf4319f45f78007483382b2a228]
link Plataforma to AlgoritmoGeradorPasswords--><path codeLine="55" d="M110.25,270.99 C159.52,291.32 233.78,321.95 282.33,341.98 " fill="none" id="Plataforma-AlgoritmoGeradorPasswords" style="stroke:#A80036;stroke-width:1.0;"/><polygon fill="#000000" points="149.6221,280.1426,142.3814,273.9763,140.1398,279.41,149.6221,280.1426" style="stroke:#000000;stroke-width:1.0;"/><text fill="#000000" font-family="sans-serif" font-size="13" lengthAdjust="spacing" textLength="51" x="154" y="283.5551">recorre a</text><text fill="#000000" font-family="sans-serif" font-size="13" lengthAdjust="spacing" textLength="7" x="118.0195" y="288.5897">1</text><text fill="#000000" font-family="sans-serif" font-size="13" lengthAdjust="spacing" textLength="7" x="259.7113" y="331.2783">1</text><!--MD5=[0d731ff285a62a08178b23be6cceb109]
link CompetenciaTecnica to GrauProficiencia--><path codeLine="57" d="M1017.36,98.18 C1085.17,107.47 1184.43,121.06 1247.74,129.74 " fill="none" id="CompetenciaTecnica-GrauProficiencia" style="stroke:#A80036;stroke-width:1.0;"/><polygon fill="#000000" points="1147.9537,106.9144,1139.3912,102.775,1138.5935,108.5985,1147.9537,106.9144" style="stroke:#000000;stroke-width:1.0;"/><text fill="#000000" font-family="sans-serif" font-size="13" lengthAdjust="spacing" textLength="34" x="1152" y="111.5551">aplica</text><text fill="#000000" font-family="sans-serif" font-size="13" lengthAdjust="spacing" textLength="7" x="1025.0736" y="113.5003">1</text><text fill="#000000" font-family="sans-serif" font-size="13" lengthAdjust="spacing" textLength="5" x="1234.9083" y="125.2875">*</text><!--MD5=[6a7c57800a31452a20aa2f5037e36afb]
link Freelancer to Utilizador--><path codeLine="59" d="M377.57,272.45 C439.77,303.69 552.12,360.12 615.9,392.15 " fill="none" id="Freelancer-Utilizador" style="stroke:#A80036;stroke-width:1.0;"/><polygon fill="#000000" points="478.9681,306.4799,472.2043,299.794,469.5662,305.0466,478.9681,306.4799" style="stroke:#000000;stroke-width:1.0;"/><text fill="#000000" font-family="sans-serif" font-size="13" lengthAdjust="spacing" textLength="61" x="483.5" y="309.5551">atua como</text><text fill="#000000" font-family="sans-serif" font-size="13" lengthAdjust="spacing" textLength="22" x="385.5252" y="290.2193">0..1</text><text fill="#000000" font-family="sans-serif" font-size="13" lengthAdjust="spacing" textLength="7" x="600.9222" y="403.2735">1</text><!--MD5=[b8422db8e85907663c841d4c41f19cc1]
link Freelancer to EnderecoPostal--><path codeLine="60" d="M377.68,223.26 C401.33,209.35 430.98,192.33 458,178.06 C506.68,152.36 563.08,125.38 604.47,106.09 " fill="none" id="Freelancer-EnderecoPostal" style="stroke:#A80036;stroke-width:1.0;"/><polygon fill="#000000" points="498.4422,119.9408,489.0572,121.4815,491.7552,126.7035,498.4422,119.9408" style="stroke:#000000;stroke-width:1.0;"/><text fill="#000000" font-family="sans-serif" font-size="13" lengthAdjust="spacing" textLength="22" x="503" y="127.5551">tem</text><text fill="#000000" font-family="sans-serif" font-size="13" lengthAdjust="spacing" textLength="22" x="385.6506" y="234.1119">0..1</text><text fill="#000000" font-family="sans-serif" font-size="13" lengthAdjust="spacing" textLength="7" x="589.3302" y="124.1274">1</text><!--MD5=[7a59ad2cb29ff6e914b8672ce881fef8]
link Freelancer to HabilitacaoAcademica--><path codeLine="61" d="M377.78,257.3 C401.57,261.04 431.34,265.54 458,269.06 C500.53,274.67 548.13,280.05 586.81,284.2 " fill="none" id="Freelancer-HabilitacaoAcademica" style="stroke:#A80036;stroke-width:1.0;"/><polygon fill="#000000" points="498.9591,260.874,490.3631,256.8046,489.6129,262.6344,498.9591,260.874" style="stroke:#000000;stroke-width:1.0;"/><text fill="#000000" font-family="sans-serif" font-size="13" lengthAdjust="spacing" textLength="22" x="503" y="265.5551">tem</text><text fill="#000000" font-family="sans-serif" font-size="13" lengthAdjust="spacing" textLength="7" x="385.634" y="273.2246">1</text><text fill="#000000" font-family="sans-serif" font-size="13" lengthAdjust="spacing" textLength="5" x="573.9163" y="297.7093">*</text><!--MD5=[d8cdfe47acc319ba7387450f2c7628f2]
link Freelancer to ReconhecimentoCT--><path codeLine="62" d="M377.57,240.89 C432.99,229.49 528.21,209.9 593.42,196.48 " fill="none" id="Freelancer-ReconhecimentoCT" style="stroke:#A80036;stroke-width:1.0;"/><polygon fill="#000000" points="482.8974,194.2282,473.4456,193.1723,474.6302,198.9296,482.8974,194.2282" style="stroke:#000000;stroke-width:1.0;"/><text fill="#000000" font-family="sans-serif" font-size="13" lengthAdjust="spacing" textLength="54" x="487" y="200.5551">recebe(u)</text><text fill="#000000" font-family="sans-serif" font-size="13" lengthAdjust="spacing" textLength="7" x="385.3905" y="254.1993">1</text><text fill="#000000" font-family="sans-serif" font-size="13" lengthAdjust="spacing" textLength="5" x="580.3722" y="212.4555">*</text><!--MD5=[f49a2ed7e599b0b3feae4bc7e03654d4]
link ReconhecimentoCT to CompetenciaTecnica--><path codeLine="64" d="M735.5,158.22 C775.91,144.46 826.68,127.17 867.71,113.19 " fill="none" id="ReconhecimentoCT-CompetenciaTecnica" style="stroke:#A80036;stroke-width:1.0;"/><polygon fill="#000000" points="781.733,113.6237,772.2234,113.758,774.1184,119.3219,781.733,113.6237" style="stroke:#000000;stroke-width:1.0;"/><text fill="#000000" font-family="sans-serif" font-size="13" lengthAdjust="spacing" textLength="51" x="786" y="120.5551">relativa a</text><text fill="#000000" font-family="sans-serif" font-size="13" lengthAdjust="spacing" textLength="5" x="743.5391" y="170.0108">*</text><text fill="#000000" font-family="sans-serif" font-size="13" lengthAdjust="spacing" textLength="7" x="853.0033" y="129.9879">1</text><!--MD5=[4c83f560ef7c82f9519d7b4f6acd253e]
link ReconhecimentoCT to GrauProficiencia--><path codeLine="65" d="M735.54,177.27 C862.32,168.59 1127.79,150.43 1247.57,142.23 " fill="none" id="ReconhecimentoCT-GrauProficiencia" style="stroke:#A80036;stroke-width:1.0;"/><polygon fill="#000000" points="1056.9883,142.8944,1047.7637,140.5799,1048.165,146.444,1056.9883,142.8944" style="stroke:#000000;stroke-width:1.0;"/><text fill="#000000" font-family="sans-serif" font-size="13" lengthAdjust="spacing" textLength="46" x="1061" y="148.5551">reconhe</text><text fill="#000000" font-family="sans-serif" font-size="13" lengthAdjust="spacing" textLength="5" x="743.5834" y="191.1444">*</text><text fill="#000000" font-family="sans-serif" font-size="13" lengthAdjust="spacing" textLength="7" x="1233.0047" y="157.1716">1</text><!--MD5=[4aa6a936df4ad7b844bdcf1457a2ad73]
link AlgoritmoGeradorPasswords to Utilizador--><path codeLine="67" d="M371.51,382.15 C395.64,393.62 427.8,406.91 458,413.06 C511.14,423.89 573.63,422.91 615.62,420.34 " fill="none" id="AlgoritmoGeradorPasswords-Utilizador" style="stroke:#A80036;stroke-width:1.0;"/><polygon fill="#000000" points="467.9399,405.0086,459.4578,400.7069,458.5493,406.5142,467.9399,405.0086" style="stroke:#000000;stroke-width:1.0;"/><text fill="#000000" font-family="sans-serif" font-size="13" lengthAdjust="spacing" textLength="84" x="472" y="409.5551">gera password</text><text fill="#000000" font-family="sans-serif" font-size="13" lengthAdjust="spacing" textLength="7" x="374.6378" y="403.5949">1</text><text fill="#000000" font-family="sans-serif" font-size="13" lengthAdjust="spacing" textLength="5" x="603.0736" y="435.7007">*</text><!--MD5=[34daf715a1474f4590f073753cce89cf]
@startuml
skinparam classAttributeIconSize 0
hide methods
left to right direction

class Plataforma {
  -String designacao
}

class CompetenciaTecnica {
  -String codigo
  -String descBreve
  -String descDetalhada
}

class GrauProficiencia {
  -Integer valor
  -String designacao
}

class EnderecoPostal {
  -String local
  -String codPostal
  -String localidade
}

class Freelancer {
    -String nome
    -String NIF
    -String telefone
    -String email
}

class ReconhecimentoCT {
    -Date dataReconhecimento
}

class HabilitacaoAcademica {
    -String grau
    -String designacaoCurso
    -String nomeInstituicao
    -Double mediaCurso
}

class Utilizador {
  -String nome
  -String email
  -String password
}

class AlgoritmoGeradorPasswords {
}

Plataforma "1" - - "*" CompetenciaTecnica : possui >
Plataforma "1" - - "*" Freelancer : tem/usa  >
Plataforma "1" - - "1" AlgoritmoGeradorPasswords : recorre a >

CompetenciaTecnica "1" - - - "*" GrauProficiencia : aplica  >

Freelancer "0..1" - - "1" Utilizador: atua como >
Freelancer "0..1" - - "1" EnderecoPostal: tem >
Freelancer "1" - - "*" HabilitacaoAcademica: tem >
Freelancer "1" - - "*" ReconhecimentoCT : recebe(u) >

ReconhecimentoCT "*" - - "1" CompetenciaTecnica: relativa a >
ReconhecimentoCT "*" - - "1" GrauProficiencia: reconhe >

AlgoritmoGeradorPasswords "1" - - "*" Utilizador : gera password >
@enduml

PlantUML version 1.2021.00(Sun Jan 10 10:25:05 WET 2021)
(GPL source distribution)
Java Runtime: Java(TM) SE Runtime Environment
JVM: Java HotSpot(TM) 64-Bit Server VM
Default Encoding: Cp1252
Language: pt
Country: PT
--></g></svg>