<?xml version="1.0" encoding="UTF-8" standalone="no"?><svg xmlns="http://www.w3.org/2000/svg" xmlns:xlink="http://www.w3.org/1999/xlink" contentScriptType="application/ecmascript" contentStyleType="text/css" height="896px" preserveAspectRatio="none" style="width:1838px;height:896px;" version="1.1" viewBox="0 0 1838 896" width="1838px" zoomAndPan="magnify"><defs><filter height="300%" id="fme3s4i7b5r7z" width="300%" x="-1" y="-1"><feGaussianBlur result="blurOut" stdDeviation="2.0"/><feColorMatrix in="blurOut" result="blurOut2" type="matrix" values="0 0 0 0 0 0 0 0 0 0 0 0 0 0 0 0 0 0 .4 0"/><feOffset dx="4.0" dy="4.0" in="blurOut2" result="blurOut3"/><feBlend in="SourceGraphic" in2="blurOut3" mode="normal"/></filter></defs><g><rect fill="#FFFFFF" filter="url(#fme3s4i7b5r7z)" height="702.2891" style="stroke:#A80036;stroke-width:1.0;" width="10" x="76.5" y="99.6094"/><rect fill="#FFFFFF" filter="url(#fme3s4i7b5r7z)" height="302.4609" style="stroke:#A80036;stroke-width:1.0;" width="10" x="544.5" y="121.9609"/><rect fill="#FFFFFF" filter="url(#fme3s4i7b5r7z)" height="79.4063" style="stroke:#A80036;stroke-width:1.0;" width="10" x="544.5" y="454.7734"/><rect fill="#FFFFFF" filter="url(#fme3s4i7b5r7z)" height="30.3516" style="stroke:#A80036;stroke-width:1.0;" width="10" x="544.5" y="564.5313"/><rect fill="#FFFFFF" filter="url(#fme3s4i7b5r7z)" height="167.6641" style="stroke:#A80036;stroke-width:1.0;" width="10" x="544.5" y="625.2344"/><rect fill="#FFFFFF" filter="url(#fme3s4i7b5r7z)" height="151.0547" style="stroke:#A80036;stroke-width:1.0;" width="10" x="833.5" y="152.3125"/><rect fill="#FFFFFF" filter="url(#fme3s4i7b5r7z)" height="60.3516" style="stroke:#A80036;stroke-width:1.0;" width="10" x="833.5" y="333.7188"/><rect fill="#FFFFFF" filter="url(#fme3s4i7b5r7z)" height="137.3125" style="stroke:#A80036;stroke-width:1.0;" width="10" x="833.5" y="655.5859"/><rect fill="#FFFFFF" filter="url(#fme3s4i7b5r7z)" height="60.3516" style="stroke:#A80036;stroke-width:1.0;" width="10" x="1001.5" y="182.6641"/><rect fill="#FFFFFF" filter="url(#fme3s4i7b5r7z)" height="30" style="stroke:#A80036;stroke-width:1.0;" width="10" x="1147.5" y="213.0156"/><rect fill="#FFFFFF" filter="url(#fme3s4i7b5r7z)" height="30" style="stroke:#A80036;stroke-width:1.0;" width="10" x="1410.5" y="273.3672"/><rect fill="#FFFFFF" filter="url(#fme3s4i7b5r7z)" height="30" style="stroke:#A80036;stroke-width:1.0;" width="10" x="1585.5" y="364.0703"/><rect fill="#FFFFFF" filter="url(#fme3s4i7b5r7z)" height="30" style="stroke:#A80036;stroke-width:1.0;" width="10" x="1752" y="732.5469"/><line style="stroke:#A80036;stroke-width:1.0;stroke-dasharray:5.0,5.0;" x1="81" x2="81" y1="89.6094" y2="810.8984"/><line style="stroke:#A80036;stroke-width:1.0;stroke-dasharray:5.0,5.0;" x1="549.5" x2="549.5" y1="89.6094" y2="810.8984"/><line style="stroke:#A80036;stroke-width:1.0;stroke-dasharray:5.0,5.0;" x1="838" x2="838" y1="89.6094" y2="810.8984"/><line style="stroke:#A80036;stroke-width:1.0;stroke-dasharray:5.0,5.0;" x1="1006.5" x2="1006.5" y1="89.6094" y2="810.8984"/><line style="stroke:#A80036;stroke-width:1.0;stroke-dasharray:5.0,5.0;" x1="1152" x2="1152" y1="89.6094" y2="810.8984"/><line style="stroke:#A80036;stroke-width:1.0;stroke-dasharray:5.0,5.0;" x1="1260" x2="1260" y1="696.8906" y2="810.8984"/><line style="stroke:#A80036;stroke-width:1.0;stroke-dasharray:5.0,5.0;" x1="1415" x2="1415" y1="89.6094" y2="810.8984"/><line style="stroke:#A80036;stroke-width:1.0;stroke-dasharray:5.0,5.0;" x1="1590" x2="1590" y1="89.6094" y2="810.8984"/><line style="stroke:#A80036;stroke-width:1.0;stroke-dasharray:5.0,5.0;" x1="1757" x2="1757" y1="89.6094" y2="810.8984"/><text fill="#000000" font-family="sans-serif" font-size="14" lengthAdjust="spacing" textLength="147" x="5" y="86.5332">Gestor da Organização</text><ellipse cx="81.5" cy="15" fill="#FEFECE" filter="url(#fme3s4i7b5r7z)" rx="8" ry="8" style="stroke:#A80036;stroke-width:2.0;"/><path d="M81.5,23 L81.5,50 M68.5,31 L94.5,31 M81.5,50 L68.5,65 M81.5,50 L94.5,65 " fill="none" filter="url(#fme3s4i7b5r7z)" style="stroke:#A80036;stroke-width:2.0;"/><text fill="#000000" font-family="sans-serif" font-size="14" lengthAdjust="spacing" textLength="147" x="5" y="824.4316">Gestor da Organização</text><ellipse cx="81.5" cy="837.5078" fill="#FEFECE" filter="url(#fme3s4i7b5r7z)" rx="8" ry="8" style="stroke:#A80036;stroke-width:2.0;"/><path d="M81.5,845.5078 L81.5,872.5078 M68.5,853.5078 L94.5,853.5078 M81.5,872.5078 L68.5,887.5078 M81.5,872.5078 L94.5,887.5078 " fill="none" filter="url(#fme3s4i7b5r7z)" style="stroke:#A80036;stroke-width:2.0;"/><rect fill="#FEFECE" filter="url(#fme3s4i7b5r7z)" height="31.6094" style="stroke:#A80036;stroke-width:1.5;" width="152" x="471.5" y="53"/><text fill="#000000" font-family="sans-serif" font-size="14" lengthAdjust="spacing" textLength="138" x="478.5" y="74.5332">:AdicionarAtribuicaoUI</text><rect fill="#FEFECE" filter="url(#fme3s4i7b5r7z)" height="31.6094" style="stroke:#A80036;stroke-width:1.5;" width="152" x="471.5" y="809.8984"/><text fill="#000000" font-family="sans-serif" font-size="14" lengthAdjust="spacing" textLength="138" x="478.5" y="831.4316">:AdicionarAtribuicaoUI</text><rect fill="#FEFECE" filter="url(#fme3s4i7b5r7z)" height="31.6094" style="stroke:#A80036;stroke-width:1.5;" width="189" x="742" y="53"/><text fill="#000000" font-family="sans-serif" font-size="14" lengthAdjust="spacing" textLength="175" x="749" y="74.5332">:RegistarSeriacaoController</text><rect fill="#FEFECE" filter="url(#fme3s4i7b5r7z)" height="31.6094" style="stroke:#A80036;stroke-width:1.5;" width="189" x="742" y="809.8984"/><text fill="#000000" font-family="sans-serif" font-size="14" lengthAdjust="spacing" textLength="175" x="749" y="831.4316">:RegistarSeriacaoController</text><rect fill="#FEFECE" filter="url(#fme3s4i7b5r7z)" height="31.6094" style="stroke:#A80036;stroke-width:1.5;" width="86" x="961.5" y="53"/><text fill="#000000" font-family="sans-serif" font-size="14" lengthAdjust="spacing" textLength="72" x="968.5" y="74.5332">:Plataforma</text><rect fill="#FEFECE" filter="url(#fme3s4i7b5r7z)" height="31.6094" style="stroke:#A80036;stroke-width:1.5;" width="86" x="961.5" y="809.8984"/><text fill="#000000" font-family="sans-serif" font-size="14" lengthAdjust="spacing" textLength="72" x="968.5" y="831.4316">:Plataforma</text><rect fill="#FEFECE" filter="url(#fme3s4i7b5r7z)" height="31.6094" style="stroke:#A80036;stroke-width:1.5;" width="79" x="1111" y="53"/><text fill="#000000" font-family="sans-serif" font-size="14" lengthAdjust="spacing" textLength="65" x="1118" y="74.5332">: UsersAPI</text><rect fill="#FEFECE" filter="url(#fme3s4i7b5r7z)" height="31.6094" style="stroke:#A80036;stroke-width:1.5;" width="79" x="1111" y="809.8984"/><text fill="#000000" font-family="sans-serif" font-size="14" lengthAdjust="spacing" textLength="65" x="1118" y="831.4316">: UsersAPI</text><rect fill="#FEFECE" filter="url(#fme3s4i7b5r7z)" height="31.6094" style="stroke:#A80036;stroke-width:1.5;" width="109" x="1204" y="809.8984"/><text fill="#000000" font-family="sans-serif" font-size="14" lengthAdjust="spacing" textLength="95" x="1211" y="831.4316">atrib:Atribuicao</text><text fill="#000000" font-family="sans-serif" font-size="14" lengthAdjust="spacing" textLength="171" x="1327" y="86.5332">RepositorioOrganizacaoDB</text><path d="M1397.5,36 C1397.5,26 1415.5,26 1415.5,26 C1415.5,26 1433.5,26 1433.5,36 L1433.5,62 C1433.5,72 1415.5,72 1415.5,72 C1415.5,72 1397.5,72 1397.5,62 L1397.5,36 " fill="#FEFECE" filter="url(#fme3s4i7b5r7z)" style="stroke:#000000;stroke-width:1.5;"/><path d="M1397.5,36 C1397.5,46 1415.5,46 1415.5,46 C1415.5,46 1433.5,46 1433.5,36 " fill="none" style="stroke:#000000;stroke-width:1.5;"/><text fill="#000000" font-family="sans-serif" font-size="14" lengthAdjust="spacing" textLength="171" x="1327" y="824.4316">RepositorioOrganizacaoDB</text><path d="M1397.5,837.5078 C1397.5,827.5078 1415.5,827.5078 1415.5,827.5078 C1415.5,827.5078 1433.5,827.5078 1433.5,837.5078 L1433.5,863.5078 C1433.5,873.5078 1415.5,873.5078 1415.5,873.5078 C1415.5,873.5078 1397.5,873.5078 1397.5,863.5078 L1397.5,837.5078 " fill="#FEFECE" filter="url(#fme3s4i7b5r7z)" style="stroke:#000000;stroke-width:1.5;"/><path d="M1397.5,837.5078 C1397.5,847.5078 1415.5,847.5078 1415.5,847.5078 C1415.5,847.5078 1433.5,847.5078 1433.5,837.5078 " fill="none" style="stroke:#000000;stroke-width:1.5;"/><text fill="#000000" font-family="sans-serif" font-size="14" lengthAdjust="spacing" textLength="147" x="1514" y="86.5332">RepositorioSeriacaoDB</text><path d="M1572.5,36 C1572.5,26 1590.5,26 1590.5,26 C1590.5,26 1608.5,26 1608.5,36 L1608.5,62 C1608.5,72 1590.5,72 1590.5,72 C1590.5,72 1572.5,72 1572.5,62 L1572.5,36 " fill="#FEFECE" filter="url(#fme3s4i7b5r7z)" style="stroke:#000000;stroke-width:1.5;"/><path d="M1572.5,36 C1572.5,46 1590.5,46 1590.5,46 C1590.5,46 1608.5,46 1608.5,36 " fill="none" style="stroke:#000000;stroke-width:1.5;"/><text fill="#000000" font-family="sans-serif" font-size="14" lengthAdjust="spacing" textLength="147" x="1514" y="824.4316">RepositorioSeriacaoDB</text><path d="M1572.5,837.5078 C1572.5,827.5078 1590.5,827.5078 1590.5,827.5078 C1590.5,827.5078 1608.5,827.5078 1608.5,837.5078 L1608.5,863.5078 C1608.5,873.5078 1590.5,873.5078 1590.5,873.5078 C1590.5,873.5078 1572.5,873.5078 1572.5,863.5078 L1572.5,837.5078 " fill="#FEFECE" filter="url(#fme3s4i7b5r7z)" style="stroke:#000000;stroke-width:1.5;"/><path d="M1572.5,837.5078 C1572.5,847.5078 1590.5,847.5078 1590.5,847.5078 C1590.5,847.5078 1608.5,847.5078 1608.5,837.5078 " fill="none" style="stroke:#000000;stroke-width:1.5;"/><text fill="#000000" font-family="sans-serif" font-size="14" lengthAdjust="spacing" textLength="154" x="1677" y="86.5332">RepositorioAtribuicaoDB</text><path d="M1739,36 C1739,26 1757,26 1757,26 C1757,26 1775,26 1775,36 L1775,62 C1775,72 1757,72 1757,72 C1757,72 1739,72 1739,62 L1739,36 " fill="#FEFECE" filter="url(#fme3s4i7b5r7z)" style="stroke:#000000;stroke-width:1.5;"/><path d="M1739,36 C1739,46 1757,46 1757,46 C1757,46 1775,46 1775,36 " fill="none" style="stroke:#000000;stroke-width:1.5;"/><text fill="#000000" font-family="sans-serif" font-size="14" lengthAdjust="spacing" textLength="154" x="1677" y="824.4316">RepositorioAtribuicaoDB</text><path d="M1739,837.5078 C1739,827.5078 1757,827.5078 1757,827.5078 C1757,827.5078 1775,827.5078 1775,837.5078 L1775,863.5078 C1775,873.5078 1757,873.5078 1757,873.5078 C1757,873.5078 1739,873.5078 1739,863.5078 L1739,837.5078 " fill="#FEFECE" filter="url(#fme3s4i7b5r7z)" style="stroke:#000000;stroke-width:1.5;"/><path d="M1739,837.5078 C1739,847.5078 1757,847.5078 1757,847.5078 C1757,847.5078 1775,847.5078 1775,837.5078 " fill="none" style="stroke:#000000;stroke-width:1.5;"/><rect fill="#FFFFFF" filter="url(#fme3s4i7b5r7z)" height="702.2891" style="stroke:#A80036;stroke-width:1.0;" width="10" x="76.5" y="99.6094"/><rect fill="#FFFFFF" filter="url(#fme3s4i7b5r7z)" height="302.4609" style="stroke:#A80036;stroke-width:1.0;" width="10" x="544.5" y="121.9609"/><rect fill="#FFFFFF" filter="url(#fme3s4i7b5r7z)" height="79.4063" style="stroke:#A80036;stroke-width:1.0;" width="10" x="544.5" y="454.7734"/><rect fill="#FFFFFF" filter="url(#fme3s4i7b5r7z)" height="30.3516" style="stroke:#A80036;stroke-width:1.0;" width="10" x="544.5" y="564.5313"/><rect fill="#FFFFFF" filter="url(#fme3s4i7b5r7z)" height="167.6641" style="stroke:#A80036;stroke-width:1.0;" width="10" x="544.5" y="625.2344"/><rect fill="#FFFFFF" filter="url(#fme3s4i7b5r7z)" height="151.0547" style="stroke:#A80036;stroke-width:1.0;" width="10" x="833.5" y="152.3125"/><rect fill="#FFFFFF" filter="url(#fme3s4i7b5r7z)" height="60.3516" style="stroke:#A80036;stroke-width:1.0;" width="10" x="833.5" y="333.7188"/><rect fill="#FFFFFF" filter="url(#fme3s4i7b5r7z)" height="137.3125" style="stroke:#A80036;stroke-width:1.0;" width="10" x="833.5" y="655.5859"/><rect fill="#FFFFFF" filter="url(#fme3s4i7b5r7z)" height="60.3516" style="stroke:#A80036;stroke-width:1.0;" width="10" x="1001.5" y="182.6641"/><rect fill="#FFFFFF" filter="url(#fme3s4i7b5r7z)" height="30" style="stroke:#A80036;stroke-width:1.0;" width="10" x="1147.5" y="213.0156"/><rect fill="#FFFFFF" filter="url(#fme3s4i7b5r7z)" height="30" style="stroke:#A80036;stroke-width:1.0;" width="10" x="1410.5" y="273.3672"/><rect fill="#FFFFFF" filter="url(#fme3s4i7b5r7z)" height="30" style="stroke:#A80036;stroke-width:1.0;" width="10" x="1585.5" y="364.0703"/><rect fill="#FFFFFF" filter="url(#fme3s4i7b5r7z)" height="30" style="stroke:#A80036;stroke-width:1.0;" width="10" x="1752" y="732.5469"/><polygon fill="#A80036" points="532.5,117.9609,542.5,121.9609,532.5,125.9609,536.5,121.9609" style="stroke:#A80036;stroke-width:1.0;"/><line style="stroke:#A80036;stroke-width:1.0;" x1="86.5" x2="538.5" y1="121.9609" y2="121.9609"/><text fill="#000000" font-family="sans-serif" font-size="13" font-weight="bold" lengthAdjust="spacing" textLength="7" x="93.5" y="117.1045">1</text><text fill="#000000" font-family="sans-serif" font-size="13" lengthAdjust="spacing" textLength="259" x="104.5" y="117.1045">inicia o processo de atribuição de uma tarefa</text><polygon fill="#A80036" points="821.5,148.3125,831.5,152.3125,821.5,156.3125,825.5,152.3125" style="stroke:#A80036;stroke-width:1.0;"/><line style="stroke:#A80036;stroke-width:1.0;" x1="554.5" x2="827.5" y1="152.3125" y2="152.3125"/><text fill="#000000" font-family="sans-serif" font-size="13" font-weight="bold" lengthAdjust="spacing" textLength="7" x="561.5" y="147.4561">2</text><text fill="#000000" font-family="sans-serif" font-size="13" lengthAdjust="spacing" textLength="129" x="572.5" y="147.4561">getOrgByColabEmail()</text><polygon fill="#A80036" points="989.5,178.6641,999.5,182.6641,989.5,186.6641,993.5,182.6641" style="stroke:#A80036;stroke-width:1.0;"/><line style="stroke:#A80036;stroke-width:1.0;" x1="843.5" x2="995.5" y1="182.6641" y2="182.6641"/><text fill="#000000" font-family="sans-serif" font-size="13" font-weight="bold" lengthAdjust="spacing" textLength="7" x="850.5" y="177.8076">3</text><text fill="#000000" font-family="sans-serif" font-size="13" lengthAdjust="spacing" textLength="128" x="861.5" y="177.8076">email = getUsersAPI()</text><polygon fill="#A80036" points="1135.5,209.0156,1145.5,213.0156,1135.5,217.0156,1139.5,213.0156" style="stroke:#A80036;stroke-width:1.0;"/><line style="stroke:#A80036;stroke-width:1.0;" x1="1011.5" x2="1141.5" y1="213.0156" y2="213.0156"/><text fill="#000000" font-family="sans-serif" font-size="13" font-weight="bold" lengthAdjust="spacing" textLength="7" x="1018.5" y="208.1592">4</text><text fill="#000000" font-family="sans-serif" font-size="13" lengthAdjust="spacing" textLength="106" x="1029.5" y="208.1592">email = getEmail()</text><polygon fill="#A80036" points="1398.5,269.3672,1408.5,273.3672,1398.5,277.3672,1402.5,273.3672" style="stroke:#A80036;stroke-width:1.0;"/><line style="stroke:#A80036;stroke-width:1.0;" x1="843.5" x2="1404.5" y1="273.3672" y2="273.3672"/><text fill="#000000" font-family="sans-serif" font-size="13" font-weight="bold" lengthAdjust="spacing" textLength="7" x="850.5" y="268.5107">5</text><text fill="#000000" font-family="sans-serif" font-size="13" lengthAdjust="spacing" textLength="194" x="861.5" y="268.5107">org = getOrgByColabEmail(email)</text><polygon fill="#A80036" points="821.5,329.7188,831.5,333.7188,821.5,337.7188,825.5,333.7188" style="stroke:#A80036;stroke-width:1.0;"/><line style="stroke:#A80036;stroke-width:1.0;" x1="554.5" x2="827.5" y1="333.7188" y2="333.7188"/><text fill="#000000" font-family="sans-serif" font-size="13" font-weight="bold" lengthAdjust="spacing" textLength="7" x="561.5" y="328.8623">6</text><text fill="#000000" font-family="sans-serif" font-size="13" lengthAdjust="spacing" textLength="249" x="572.5" y="328.8623">lClass = getClassificacaoByProcSeriacao()</text><polygon fill="#A80036" points="1573.5,360.0703,1583.5,364.0703,1573.5,368.0703,1577.5,364.0703" style="stroke:#A80036;stroke-width:1.0;"/><line style="stroke:#A80036;stroke-width:1.0;" x1="843.5" x2="1579.5" y1="364.0703" y2="364.0703"/><text fill="#000000" font-family="sans-serif" font-size="13" font-weight="bold" lengthAdjust="spacing" textLength="7" x="850.5" y="359.2139">7</text><text fill="#000000" font-family="sans-serif" font-size="13" lengthAdjust="spacing" textLength="75" x="861.5" y="359.2139">getClassific()</text><polygon fill="#A80036" points="97.5,420.4219,87.5,424.4219,97.5,428.4219,93.5,424.4219" style="stroke:#A80036;stroke-width:1.0;"/><line style="stroke:#A80036;stroke-width:1.0;stroke-dasharray:2.0,2.0;" x1="91.5" x2="548.5" y1="424.4219" y2="424.4219"/><text fill="#000000" font-family="sans-serif" font-size="13" font-weight="bold" lengthAdjust="spacing" textLength="7" x="103.5" y="419.5654">8</text><text fill="#000000" font-family="sans-serif" font-size="13" lengthAdjust="spacing" textLength="419" x="114.5" y="419.5654">pede para selecionar anuncio da lista de anuncios com tarefa por atribuir</text><polygon fill="#A80036" points="532.5,450.7734,542.5,454.7734,532.5,458.7734,536.5,454.7734" style="stroke:#A80036;stroke-width:1.0;"/><line style="stroke:#A80036;stroke-width:1.0;" x1="86.5" x2="538.5" y1="454.7734" y2="454.7734"/><text fill="#000000" font-family="sans-serif" font-size="13" font-weight="bold" lengthAdjust="spacing" textLength="7" x="93.5" y="449.917">9</text><text fill="#000000" font-family="sans-serif" font-size="13" lengthAdjust="spacing" textLength="45" x="104.5" y="449.917">escolhe</text><polygon fill="#A80036" points="97.5,530.1797,87.5,534.1797,97.5,538.1797,93.5,534.1797" style="stroke:#A80036;stroke-width:1.0;"/><line style="stroke:#A80036;stroke-width:1.0;stroke-dasharray:2.0,2.0;" x1="91.5" x2="548.5" y1="534.1797" y2="534.1797"/><text fill="#000000" font-family="sans-serif" font-size="13" font-weight="bold" lengthAdjust="spacing" textLength="14" x="103.5" y="504.7959">10</text><text fill="#000000" font-family="sans-serif" font-size="13" lengthAdjust="spacing" textLength="324" x="121.5" y="480.2686">pede os dados (i.e. a organização que adjudica a tarefa,</text><text fill="#000000" font-family="sans-serif" font-size="13" lengthAdjust="spacing" textLength="323" x="121.5" y="496.6201">o freelancer a quem é adjudicada a realização da tarefa,</text><text fill="#000000" font-family="sans-serif" font-size="13" lengthAdjust="spacing" textLength="412" x="121.5" y="512.9717">a descrição da tarefa adjudicada, o período afeto, o valor remuneratório,</text><text fill="#000000" font-family="sans-serif" font-size="13" lengthAdjust="spacing" textLength="156" x="121.5" y="529.3232">uma referência ao anuncio)</text><polygon fill="#A80036" points="532.5,560.5313,542.5,564.5313,532.5,568.5313,536.5,564.5313" style="stroke:#A80036;stroke-width:1.0;"/><line style="stroke:#A80036;stroke-width:1.0;" x1="86.5" x2="538.5" y1="564.5313" y2="564.5313"/><text fill="#000000" font-family="sans-serif" font-size="13" font-weight="bold" lengthAdjust="spacing" textLength="14" x="93.5" y="559.6748">11</text><text fill="#000000" font-family="sans-serif" font-size="13" lengthAdjust="spacing" textLength="169" x="111.5" y="559.6748">introduz os dados solicitados</text><polygon fill="#A80036" points="97.5,590.8828,87.5,594.8828,97.5,598.8828,93.5,594.8828" style="stroke:#A80036;stroke-width:1.0;"/><line style="stroke:#A80036;stroke-width:1.0;stroke-dasharray:2.0,2.0;" x1="91.5" x2="548.5" y1="594.8828" y2="594.8828"/><text fill="#000000" font-family="sans-serif" font-size="13" font-weight="bold" lengthAdjust="spacing" textLength="14" x="103.5" y="590.0264">12</text><text fill="#000000" font-family="sans-serif" font-size="13" lengthAdjust="spacing" textLength="225" x="121.5" y="590.0264">mostra os dados e pede a confirmação</text><polygon fill="#A80036" points="532.5,621.2344,542.5,625.2344,532.5,629.2344,536.5,625.2344" style="stroke:#A80036;stroke-width:1.0;"/><line style="stroke:#A80036;stroke-width:1.0;" x1="86.5" x2="538.5" y1="625.2344" y2="625.2344"/><text fill="#000000" font-family="sans-serif" font-size="13" font-weight="bold" lengthAdjust="spacing" textLength="14" x="93.5" y="620.3779">13</text><text fill="#000000" font-family="sans-serif" font-size="13" lengthAdjust="spacing" textLength="88" x="111.5" y="620.3779">confirma dados</text><polygon fill="#A80036" points="821.5,651.5859,831.5,655.5859,821.5,659.5859,825.5,655.5859" style="stroke:#A80036;stroke-width:1.0;"/><line style="stroke:#A80036;stroke-width:1.0;" x1="554.5" x2="827.5" y1="655.5859" y2="655.5859"/><text fill="#000000" font-family="sans-serif" font-size="13" font-weight="bold" lengthAdjust="spacing" textLength="14" x="561.5" y="650.7295">14</text><text fill="#000000" font-family="sans-serif" font-size="13" lengthAdjust="spacing" textLength="162" x="579.5" y="650.7295">addAtribuicao(classificacao)</text><polygon fill="#A80036" points="1192,681.9375,1202,685.9375,1192,689.9375,1196,685.9375" style="stroke:#A80036;stroke-width:1.0;"/><line style="stroke:#A80036;stroke-width:1.0;stroke-dasharray:2.0,2.0;" x1="843.5" x2="1198" y1="685.9375" y2="685.9375"/><text fill="#000000" font-family="sans-serif" font-size="13" font-weight="bold" lengthAdjust="spacing" textLength="14" x="850.5" y="681.0811">15</text><text fill="#000000" font-family="sans-serif" font-size="13" lengthAdjust="spacing" textLength="191" x="868.5" y="681.0811">atribuicao = create(classificacao)</text><rect fill="#FEFECE" filter="url(#fme3s4i7b5r7z)" height="31.6094" style="stroke:#A80036;stroke-width:1.5;" width="109" x="1204" y="663.5859"/><text fill="#000000" font-family="sans-serif" font-size="14" lengthAdjust="spacing" textLength="95" x="1211" y="685.1191">atrib:Atribuicao</text><polygon fill="#A80036" points="1740,728.5469,1750,732.5469,1740,736.5469,1744,732.5469" style="stroke:#A80036;stroke-width:1.0;"/><line style="stroke:#A80036;stroke-width:1.0;" x1="843.5" x2="1746" y1="732.5469" y2="732.5469"/><text fill="#000000" font-family="sans-serif" font-size="13" font-weight="bold" lengthAdjust="spacing" textLength="14" x="850.5" y="727.6904">16</text><text fill="#000000" font-family="sans-serif" font-size="13" lengthAdjust="spacing" textLength="90" x="868.5" y="727.6904">save(atribuicao)</text><polygon fill="#A80036" points="97.5,788.8984,87.5,792.8984,97.5,796.8984,93.5,792.8984" style="stroke:#A80036;stroke-width:1.0;"/><line style="stroke:#A80036;stroke-width:1.0;stroke-dasharray:2.0,2.0;" x1="91.5" x2="548.5" y1="792.8984" y2="792.8984"/><text fill="#000000" font-family="sans-serif" font-size="13" font-weight="bold" lengthAdjust="spacing" textLength="14" x="103.5" y="788.042">17</text><text fill="#000000" font-family="sans-serif" font-size="13" lengthAdjust="spacing" textLength="188" x="121.5" y="788.042">informa do sucesso da operação</text><!--MD5=[f1590d24d2ee3486dc7beb123a629327]
@startuml
autonumber

actor "Gestor da Organização" as GES
participant ":AdicionarAtribuicaoUI" as UI
participant ":RegistarSeriacaoController" as CTRL
participant ":Plataforma" as PLAT
participant ": UsersAPI" as UAPI
participant "atrib:Atribuicao" as ATRIB
database RepositorioOrganizacaoDB as  orgDB
database RepositorioSeriacaoDB as seriacDB
database RepositorioAtribuicaoDB as atribDB

activate GES
GES -> UI : inicia o processo de atribuição de uma tarefa
activate UI

UI -> CTRL : getOrgByColabEmail()
activate CTRL
CTRL -> PLAT : email = getUsersAPI()
activate PLAT
PLAT -> UAPI : email = getEmail()
activate UAPI
deactivate PLAT
deactivate UAPI
CTRL -> orgDB : org = getOrgByColabEmail(email)
activate orgDB
deactivate orgDB
deactivate CTRL 

UI -> CTRL : lClass = getClassificacaoByProcSeriacao()
activate CTRL
CTRL -> seriacDB : getClassific()
activate seriacDB
deactivate seriacDB
deactivate CTRL

UI - -> GES : pede para selecionar anuncio da lista de anuncios com tarefa por atribuir
deactivate UI

GES -> UI : escolhe
activate UI
UI - -> GES : pede os dados (i.e. a organização que adjudica a tarefa, \no freelancer a quem é adjudicada a realização da tarefa, \na descrição da tarefa adjudicada, o período afeto, o valor remuneratório, \numa referência ao anuncio)
deactivate UI

GES -> UI : introduz os dados solicitados 
activate UI

UI - -> GES : mostra os dados e pede a confirmação
deactivate UI

GES -> UI : confirma dados 
activate UI
UI -> CTRL : addAtribuicao(classificacao)
activate CTRL
CTRL - -> ATRIB**: atribuicao = create(classificacao)
CTRL -> atribDB : save(atribuicao)
activate atribDB
deactivate atribDB
UI - -> GES: informa do sucesso da operação
deactivate CTRL
deactivate UI

@enduml

PlantUML version 1.2021.00(Sun Jan 10 10:25:05 WET 2021)
(GPL source distribution)
Java Runtime: Java(TM) SE Runtime Environment
JVM: Java HotSpot(TM) 64-Bit Server VM
Default Encoding: Cp1252
Language: pt
Country: PT
--></g></svg>