<?xml version="1.0" encoding="UTF-8" standalone="no"?><svg xmlns="http://www.w3.org/2000/svg" xmlns:xlink="http://www.w3.org/1999/xlink" contentScriptType="application/ecmascript" contentStyleType="text/css" height="1104px" preserveAspectRatio="none" style="width:863px;height:1104px;" version="1.1" viewBox="0 0 863 1104" width="863px" zoomAndPan="magnify"><defs><filter height="300%" id="f8n17wo6irlad" width="300%" x="-1" y="-1"><feGaussianBlur result="blurOut" stdDeviation="2.0"/><feColorMatrix in="blurOut" result="blurOut2" type="matrix" values="0 0 0 0 0 0 0 0 0 0 0 0 0 0 0 0 0 0 .4 0"/><feOffset dx="4.0" dy="4.0" in="blurOut2" result="blurOut3"/><feBlend in="SourceGraphic" in2="blurOut3" mode="normal"/></filter></defs><g><!--MD5=[8e881faeb824f6289b15d2d71e43687d]
class AdicionarAtribuicaoUI--><rect codeLine="3" fill="#FEFECE" filter="url(#f8n17wo6irlad)" height="48" id="AdicionarAtribuicaoUI" style="stroke:#A80036;stroke-width:1.5;" width="149" x="312" y="7"/><ellipse cx="327" cy="23" fill="#ADD1B2" rx="11" ry="11" style="stroke:#A80036;stroke-width:1.0;"/><path d="M329.7656,18.875 Q329.9219,18.6563 330.1094,18.5469 Q330.2969,18.4375 330.5156,18.4375 Q330.8906,18.4375 331.125,18.7031 Q331.3594,18.9531 331.3594,19.5625 L331.3594,21.0156 Q331.3594,21.625 331.125,21.8906 Q330.8906,22.1563 330.5156,22.1563 Q330.1719,22.1563 329.9688,21.9531 Q329.7656,21.7656 329.6563,21.25 Q329.6094,20.8906 329.4219,20.7031 Q329.0938,20.3281 328.4844,20.1094 Q327.875,19.8906 327.25,19.8906 Q326.4844,19.8906 325.8438,20.2188 Q325.2188,20.5469 324.7188,21.2969 Q324.2344,22.0469 324.2344,23.0781 L324.2344,24.1719 Q324.2344,25.4063 325.125,26.2344 Q326.0156,27.0469 327.6094,27.0469 Q328.5469,27.0469 329.2031,26.7969 Q329.5938,26.6406 330.0156,26.2031 Q330.2813,25.9375 330.4219,25.8594 Q330.5781,25.7813 330.7813,25.7813 Q331.1094,25.7813 331.3594,26.0469 Q331.625,26.2969 331.625,26.6406 Q331.625,26.9844 331.2813,27.3906 Q330.7813,27.9688 329.9844,28.2969 Q328.9063,28.75 327.6094,28.75 Q326.0938,28.75 324.8906,28.125 Q323.9063,27.625 323.2188,26.5625 Q322.5313,25.4844 322.5313,24.2031 L322.5313,23.0469 Q322.5313,21.7188 323.1406,20.5781 Q323.7656,19.4219 324.8594,18.8125 Q325.9531,18.1875 327.1875,18.1875 Q327.9219,18.1875 328.5625,18.3594 Q329.2188,18.5156 329.7656,18.875 Z " fill="#000000"/><text fill="#000000" font-family="sans-serif" font-size="12" lengthAdjust="spacing" textLength="117" x="341" y="27.9102">AdicionarAtribuicaoUI</text><line style="stroke:#A80036;stroke-width:1.5;" x1="313" x2="460" y1="39" y2="39"/><line style="stroke:#A80036;stroke-width:1.5;" x1="313" x2="460" y1="47" y2="47"/><!--MD5=[158b263093a71305c4c4061bdb083ac9]
class RegistarSeriacaoController--><rect codeLine="7" fill="#FEFECE" filter="url(#f8n17wo6irlad)" height="103.3438" id="RegistarSeriacaoController" style="stroke:#A80036;stroke-width:1.5;" width="418" x="177.5" y="116"/><ellipse cx="307.25" cy="132" fill="#ADD1B2" rx="11" ry="11" style="stroke:#A80036;stroke-width:1.0;"/><path d="M310.0156,127.875 Q310.1719,127.6563 310.3594,127.5469 Q310.5469,127.4375 310.7656,127.4375 Q311.1406,127.4375 311.375,127.7031 Q311.6094,127.9531 311.6094,128.5625 L311.6094,130.0156 Q311.6094,130.625 311.375,130.8906 Q311.1406,131.1563 310.7656,131.1563 Q310.4219,131.1563 310.2188,130.9531 Q310.0156,130.7656 309.9063,130.25 Q309.8594,129.8906 309.6719,129.7031 Q309.3438,129.3281 308.7344,129.1094 Q308.125,128.8906 307.5,128.8906 Q306.7344,128.8906 306.0938,129.2188 Q305.4688,129.5469 304.9688,130.2969 Q304.4844,131.0469 304.4844,132.0781 L304.4844,133.1719 Q304.4844,134.4063 305.375,135.2344 Q306.2656,136.0469 307.8594,136.0469 Q308.7969,136.0469 309.4531,135.7969 Q309.8438,135.6406 310.2656,135.2031 Q310.5313,134.9375 310.6719,134.8594 Q310.8281,134.7813 311.0313,134.7813 Q311.3594,134.7813 311.6094,135.0469 Q311.875,135.2969 311.875,135.6406 Q311.875,135.9844 311.5313,136.3906 Q311.0313,136.9688 310.2344,137.2969 Q309.1563,137.75 307.8594,137.75 Q306.3438,137.75 305.1406,137.125 Q304.1563,136.625 303.4688,135.5625 Q302.7813,134.4844 302.7813,133.2031 L302.7813,132.0469 Q302.7813,130.7188 303.3906,129.5781 Q304.0156,128.4219 305.1094,127.8125 Q306.2031,127.1875 307.4375,127.1875 Q308.1719,127.1875 308.8125,127.3594 Q309.4688,127.5156 310.0156,127.875 Z " fill="#000000"/><text fill="#000000" font-family="sans-serif" font-size="12" lengthAdjust="spacing" textLength="150" x="327.75" y="136.9102">RegistarSeriacaoController</text><line style="stroke:#A80036;stroke-width:1.5;" x1="178.5" x2="594.5" y1="148" y2="148"/><line style="stroke:#A80036;stroke-width:1.5;" x1="178.5" x2="594.5" y1="156" y2="156"/><text fill="#000000" font-family="sans-serif" font-size="11" lengthAdjust="spacing" textLength="174" x="183.5" y="171.4189">+List&lt;tribuicao&gt; getListAtribuicoes()</text><text fill="#000000" font-family="sans-serif" font-size="11" lengthAdjust="spacing" textLength="406" x="183.5" y="185.2549">+List&lt;Classificacao&gt; getListaClassificacoesSelectedAnuncio(ProcessoSeriacao ps)</text><text fill="#000000" font-family="sans-serif" font-size="11" lengthAdjust="spacing" textLength="155" x="183.5" y="199.0908">+Colaborador getColabByEmail()</text><text fill="#000000" font-family="sans-serif" font-size="11" lengthAdjust="spacing" textLength="213" x="183.5" y="212.9268">+addAtribuicao(Classificacao classificacao)</text><!--MD5=[27c2d4bbe9f7b9d3b0ea2797cc54308a]
class Tarefa--><rect codeLine="14" fill="#FEFECE" filter="url(#f8n17wo6irlad)" height="186.3594" id="Tarefa" style="stroke:#A80036;stroke-width:1.5;" width="419" x="174" y="709"/><ellipse cx="361.75" cy="725" fill="#ADD1B2" rx="11" ry="11" style="stroke:#A80036;stroke-width:1.0;"/><path d="M364.5156,720.875 Q364.6719,720.6563 364.8594,720.5469 Q365.0469,720.4375 365.2656,720.4375 Q365.6406,720.4375 365.875,720.7031 Q366.1094,720.9531 366.1094,721.5625 L366.1094,723.0156 Q366.1094,723.625 365.875,723.8906 Q365.6406,724.1563 365.2656,724.1563 Q364.9219,724.1563 364.7188,723.9531 Q364.5156,723.7656 364.4063,723.25 Q364.3594,722.8906 364.1719,722.7031 Q363.8438,722.3281 363.2344,722.1094 Q362.625,721.8906 362,721.8906 Q361.2344,721.8906 360.5938,722.2188 Q359.9688,722.5469 359.4688,723.2969 Q358.9844,724.0469 358.9844,725.0781 L358.9844,726.1719 Q358.9844,727.4063 359.875,728.2344 Q360.7656,729.0469 362.3594,729.0469 Q363.2969,729.0469 363.9531,728.7969 Q364.3438,728.6406 364.7656,728.2031 Q365.0313,727.9375 365.1719,727.8594 Q365.3281,727.7813 365.5313,727.7813 Q365.8594,727.7813 366.1094,728.0469 Q366.375,728.2969 366.375,728.6406 Q366.375,728.9844 366.0313,729.3906 Q365.5313,729.9688 364.7344,730.2969 Q363.6563,730.75 362.3594,730.75 Q360.8438,730.75 359.6406,730.125 Q358.6563,729.625 357.9688,728.5625 Q357.2813,727.4844 357.2813,726.2031 L357.2813,725.0469 Q357.2813,723.7188 357.8906,722.5781 Q358.5156,721.4219 359.6094,720.8125 Q360.7031,720.1875 361.9375,720.1875 Q362.6719,720.1875 363.3125,720.3594 Q363.9688,720.5156 364.5156,720.875 Z " fill="#000000"/><text fill="#000000" font-family="sans-serif" font-size="12" lengthAdjust="spacing" textLength="35" x="382.25" y="729.9102">Tarefa</text><line style="stroke:#A80036;stroke-width:1.5;" x1="175" x2="592" y1="741" y2="741"/><text fill="#000000" font-family="sans-serif" font-size="11" lengthAdjust="spacing" textLength="49" x="180" y="756.4189">-String ref</text><text fill="#000000" font-family="sans-serif" font-size="11" lengthAdjust="spacing" textLength="91" x="180" y="770.2549">-String designacao</text><text fill="#000000" font-family="sans-serif" font-size="11" lengthAdjust="spacing" textLength="101" x="180" y="784.0908">-String descrInformal</text><text fill="#000000" font-family="sans-serif" font-size="11" lengthAdjust="spacing" textLength="101" x="180" y="797.9268">-String descrTecnica</text><text fill="#000000" font-family="sans-serif" font-size="11" lengthAdjust="spacing" textLength="95" x="180" y="811.7627">-Integer duracaoEst</text><text fill="#000000" font-family="sans-serif" font-size="11" lengthAdjust="spacing" textLength="82" x="180" y="825.5986">-Double custoEst</text><text fill="#000000" font-family="sans-serif" font-size="11" lengthAdjust="spacing" textLength="132" x="180" y="839.4346">-CategoriaTarefa catTarefa</text><text fill="#000000" font-family="sans-serif" font-size="11" lengthAdjust="spacing" textLength="92" x="180" y="853.2705">-Colaborador colab</text><line style="stroke:#A80036;stroke-width:1.5;" x1="175" x2="592" y1="859.6875" y2="859.6875"/><text fill="#000000" font-family="sans-serif" font-size="11" lengthAdjust="spacing" textLength="389" x="180" y="875.1064">+Tarefa(String ref, String designacao, String descrInformal, String descrTecnica,</text><text fill="#000000" font-family="sans-serif" font-size="11" lengthAdjust="spacing" textLength="407" x="180" y="888.9424">Integer duracaoEst, Double custoEst, CategoriaTarefa catTarefa, Colaborador colab)</text><!--MD5=[abcbd51a6fee7546a3dcecc142c225c4]
class RepositorioAtribuicaoDB--><rect codeLine="28" fill="#FEFECE" filter="url(#f8n17wo6irlad)" height="61.8359" id="RepositorioAtribuicaoDB" style="stroke:#A80036;stroke-width:1.5;" width="167" x="7" y="280"/><ellipse cx="22" cy="296" fill="#ADD1B2" rx="11" ry="11" style="stroke:#A80036;stroke-width:1.0;"/><path d="M24.7656,291.875 Q24.9219,291.6563 25.1094,291.5469 Q25.2969,291.4375 25.5156,291.4375 Q25.8906,291.4375 26.125,291.7031 Q26.3594,291.9531 26.3594,292.5625 L26.3594,294.0156 Q26.3594,294.625 26.125,294.8906 Q25.8906,295.1563 25.5156,295.1563 Q25.1719,295.1563 24.9688,294.9531 Q24.7656,294.7656 24.6563,294.25 Q24.6094,293.8906 24.4219,293.7031 Q24.0938,293.3281 23.4844,293.1094 Q22.875,292.8906 22.25,292.8906 Q21.4844,292.8906 20.8438,293.2188 Q20.2188,293.5469 19.7188,294.2969 Q19.2344,295.0469 19.2344,296.0781 L19.2344,297.1719 Q19.2344,298.4063 20.125,299.2344 Q21.0156,300.0469 22.6094,300.0469 Q23.5469,300.0469 24.2031,299.7969 Q24.5938,299.6406 25.0156,299.2031 Q25.2813,298.9375 25.4219,298.8594 Q25.5781,298.7813 25.7813,298.7813 Q26.1094,298.7813 26.3594,299.0469 Q26.625,299.2969 26.625,299.6406 Q26.625,299.9844 26.2813,300.3906 Q25.7813,300.9688 24.9844,301.2969 Q23.9063,301.75 22.6094,301.75 Q21.0938,301.75 19.8906,301.125 Q18.9063,300.625 18.2188,299.5625 Q17.5313,298.4844 17.5313,297.2031 L17.5313,296.0469 Q17.5313,294.7188 18.1406,293.5781 Q18.7656,292.4219 19.8594,291.8125 Q20.9531,291.1875 22.1875,291.1875 Q22.9219,291.1875 23.5625,291.3594 Q24.2188,291.5156 24.7656,291.875 Z " fill="#000000"/><text fill="#000000" font-family="sans-serif" font-size="12" lengthAdjust="spacing" textLength="135" x="36" y="300.9102">RepositorioAtribuicaoDB</text><line style="stroke:#A80036;stroke-width:1.5;" x1="8" x2="173" y1="312" y2="312"/><line style="stroke:#A80036;stroke-width:1.5;" x1="8" x2="173" y1="320" y2="320"/><text fill="#000000" font-family="sans-serif" font-size="11" lengthAdjust="spacing" textLength="85" x="13" y="335.4189">+save(atribuicao)</text><!--MD5=[a1b8f5bd771d81c902bdce3c0e7f83f5]
class RepositorioOrganizacaoDB--><rect codeLine="32" fill="#FEFECE" filter="url(#f8n17wo6irlad)" height="61.8359" id="RepositorioOrganizacaoDB" style="stroke:#A80036;stroke-width:1.5;" width="182" x="209.5" y="280"/><ellipse cx="224.5" cy="296" fill="#ADD1B2" rx="11" ry="11" style="stroke:#A80036;stroke-width:1.0;"/><path d="M227.2656,291.875 Q227.4219,291.6563 227.6094,291.5469 Q227.7969,291.4375 228.0156,291.4375 Q228.3906,291.4375 228.625,291.7031 Q228.8594,291.9531 228.8594,292.5625 L228.8594,294.0156 Q228.8594,294.625 228.625,294.8906 Q228.3906,295.1563 228.0156,295.1563 Q227.6719,295.1563 227.4688,294.9531 Q227.2656,294.7656 227.1563,294.25 Q227.1094,293.8906 226.9219,293.7031 Q226.5938,293.3281 225.9844,293.1094 Q225.375,292.8906 224.75,292.8906 Q223.9844,292.8906 223.3438,293.2188 Q222.7188,293.5469 222.2188,294.2969 Q221.7344,295.0469 221.7344,296.0781 L221.7344,297.1719 Q221.7344,298.4063 222.625,299.2344 Q223.5156,300.0469 225.1094,300.0469 Q226.0469,300.0469 226.7031,299.7969 Q227.0938,299.6406 227.5156,299.2031 Q227.7813,298.9375 227.9219,298.8594 Q228.0781,298.7813 228.2813,298.7813 Q228.6094,298.7813 228.8594,299.0469 Q229.125,299.2969 229.125,299.6406 Q229.125,299.9844 228.7813,300.3906 Q228.2813,300.9688 227.4844,301.2969 Q226.4063,301.75 225.1094,301.75 Q223.5938,301.75 222.3906,301.125 Q221.4063,300.625 220.7188,299.5625 Q220.0313,298.4844 220.0313,297.2031 L220.0313,296.0469 Q220.0313,294.7188 220.6406,293.5781 Q221.2656,292.4219 222.3594,291.8125 Q223.4531,291.1875 224.6875,291.1875 Q225.4219,291.1875 226.0625,291.3594 Q226.7188,291.5156 227.2656,291.875 Z " fill="#000000"/><text fill="#000000" font-family="sans-serif" font-size="12" lengthAdjust="spacing" textLength="150" x="238.5" y="300.9102">RepositorioOrganizacaoDB</text><line style="stroke:#A80036;stroke-width:1.5;" x1="210.5" x2="390.5" y1="312" y2="312"/><line style="stroke:#A80036;stroke-width:1.5;" x1="210.5" x2="390.5" y1="320" y2="320"/><text fill="#000000" font-family="sans-serif" font-size="11" lengthAdjust="spacing" textLength="135" x="215.5" y="335.4189">+getOrgByColabEmail(email)</text><!--MD5=[ecaed46f78f8cfe1e9ce18477649be18]
class Plataforma--><rect codeLine="36" fill="#FEFECE" filter="url(#f8n17wo6irlad)" height="61.8359" id="Plataforma" style="stroke:#A80036;stroke-width:1.5;" width="92" x="426.5" y="280"/><ellipse cx="441.5" cy="296" fill="#ADD1B2" rx="11" ry="11" style="stroke:#A80036;stroke-width:1.0;"/><path d="M444.2656,291.875 Q444.4219,291.6563 444.6094,291.5469 Q444.7969,291.4375 445.0156,291.4375 Q445.3906,291.4375 445.625,291.7031 Q445.8594,291.9531 445.8594,292.5625 L445.8594,294.0156 Q445.8594,294.625 445.625,294.8906 Q445.3906,295.1563 445.0156,295.1563 Q444.6719,295.1563 444.4688,294.9531 Q444.2656,294.7656 444.1563,294.25 Q444.1094,293.8906 443.9219,293.7031 Q443.5938,293.3281 442.9844,293.1094 Q442.375,292.8906 441.75,292.8906 Q440.9844,292.8906 440.3438,293.2188 Q439.7188,293.5469 439.2188,294.2969 Q438.7344,295.0469 438.7344,296.0781 L438.7344,297.1719 Q438.7344,298.4063 439.625,299.2344 Q440.5156,300.0469 442.1094,300.0469 Q443.0469,300.0469 443.7031,299.7969 Q444.0938,299.6406 444.5156,299.2031 Q444.7813,298.9375 444.9219,298.8594 Q445.0781,298.7813 445.2813,298.7813 Q445.6094,298.7813 445.8594,299.0469 Q446.125,299.2969 446.125,299.6406 Q446.125,299.9844 445.7813,300.3906 Q445.2813,300.9688 444.4844,301.2969 Q443.4063,301.75 442.1094,301.75 Q440.5938,301.75 439.3906,301.125 Q438.4063,300.625 437.7188,299.5625 Q437.0313,298.4844 437.0313,297.2031 L437.0313,296.0469 Q437.0313,294.7188 437.6406,293.5781 Q438.2656,292.4219 439.3594,291.8125 Q440.4531,291.1875 441.6875,291.1875 Q442.4219,291.1875 443.0625,291.3594 Q443.7188,291.5156 444.2656,291.875 Z " fill="#000000"/><text fill="#000000" font-family="sans-serif" font-size="12" lengthAdjust="spacing" textLength="60" x="455.5" y="300.9102">Plataforma</text><line style="stroke:#A80036;stroke-width:1.5;" x1="427.5" x2="517.5" y1="312" y2="312"/><line style="stroke:#A80036;stroke-width:1.5;" x1="427.5" x2="517.5" y1="320" y2="320"/><text fill="#000000" font-family="sans-serif" font-size="11" lengthAdjust="spacing" textLength="74" x="432.5" y="335.4189">+getUsersAPI()</text><!--MD5=[407421fe170650ac131a5bd0ef307540]
class UsersAPI--><rect codeLine="40" fill="#FEFECE" filter="url(#f8n17wo6irlad)" height="61.8359" id="UsersAPI" style="stroke:#A80036;stroke-width:1.5;" width="84" x="430.5" y="486"/><ellipse cx="445.5" cy="502" fill="#ADD1B2" rx="11" ry="11" style="stroke:#A80036;stroke-width:1.0;"/><path d="M448.2656,497.875 Q448.4219,497.6563 448.6094,497.5469 Q448.7969,497.4375 449.0156,497.4375 Q449.3906,497.4375 449.625,497.7031 Q449.8594,497.9531 449.8594,498.5625 L449.8594,500.0156 Q449.8594,500.625 449.625,500.8906 Q449.3906,501.1563 449.0156,501.1563 Q448.6719,501.1563 448.4688,500.9531 Q448.2656,500.7656 448.1563,500.25 Q448.1094,499.8906 447.9219,499.7031 Q447.5938,499.3281 446.9844,499.1094 Q446.375,498.8906 445.75,498.8906 Q444.9844,498.8906 444.3438,499.2188 Q443.7188,499.5469 443.2188,500.2969 Q442.7344,501.0469 442.7344,502.0781 L442.7344,503.1719 Q442.7344,504.4063 443.625,505.2344 Q444.5156,506.0469 446.1094,506.0469 Q447.0469,506.0469 447.7031,505.7969 Q448.0938,505.6406 448.5156,505.2031 Q448.7813,504.9375 448.9219,504.8594 Q449.0781,504.7813 449.2813,504.7813 Q449.6094,504.7813 449.8594,505.0469 Q450.125,505.2969 450.125,505.6406 Q450.125,505.9844 449.7813,506.3906 Q449.2813,506.9688 448.4844,507.2969 Q447.4063,507.75 446.1094,507.75 Q444.5938,507.75 443.3906,507.125 Q442.4063,506.625 441.7188,505.5625 Q441.0313,504.4844 441.0313,503.2031 L441.0313,502.0469 Q441.0313,500.7188 441.6406,499.5781 Q442.2656,498.4219 443.3594,497.8125 Q444.4531,497.1875 445.6875,497.1875 Q446.4219,497.1875 447.0625,497.3594 Q447.7188,497.5156 448.2656,497.875 Z " fill="#000000"/><text fill="#000000" font-family="sans-serif" font-size="12" lengthAdjust="spacing" textLength="52" x="459.5" y="506.9102">UsersAPI</text><line style="stroke:#A80036;stroke-width:1.5;" x1="431.5" x2="513.5" y1="518" y2="518"/><line style="stroke:#A80036;stroke-width:1.5;" x1="431.5" x2="513.5" y1="526" y2="526"/><text fill="#000000" font-family="sans-serif" font-size="11" lengthAdjust="spacing" textLength="53" x="436.5" y="541.4189">+getEmail()</text><!--MD5=[d0e9f237fb3c72e1245c36c562ad52c4]
class TipoRegimento--><rect codeLine="44" fill="#FEFECE" filter="url(#f8n17wo6irlad)" height="89.5078" id="TipoRegimento" style="stroke:#A80036;stroke-width:1.5;" width="133" x="633" y="757"/><ellipse cx="655.2" cy="773" fill="#ADD1B2" rx="11" ry="11" style="stroke:#A80036;stroke-width:1.0;"/><path d="M657.9656,768.875 Q658.1219,768.6563 658.3094,768.5469 Q658.4969,768.4375 658.7156,768.4375 Q659.0906,768.4375 659.325,768.7031 Q659.5594,768.9531 659.5594,769.5625 L659.5594,771.0156 Q659.5594,771.625 659.325,771.8906 Q659.0906,772.1563 658.7156,772.1563 Q658.3719,772.1563 658.1688,771.9531 Q657.9656,771.7656 657.8563,771.25 Q657.8094,770.8906 657.6219,770.7031 Q657.2938,770.3281 656.6844,770.1094 Q656.075,769.8906 655.45,769.8906 Q654.6844,769.8906 654.0438,770.2188 Q653.4188,770.5469 652.9188,771.2969 Q652.4344,772.0469 652.4344,773.0781 L652.4344,774.1719 Q652.4344,775.4063 653.325,776.2344 Q654.2156,777.0469 655.8094,777.0469 Q656.7469,777.0469 657.4031,776.7969 Q657.7938,776.6406 658.2156,776.2031 Q658.4813,775.9375 658.6219,775.8594 Q658.7781,775.7813 658.9813,775.7813 Q659.3094,775.7813 659.5594,776.0469 Q659.825,776.2969 659.825,776.6406 Q659.825,776.9844 659.4813,777.3906 Q658.9813,777.9688 658.1844,778.2969 Q657.1063,778.75 655.8094,778.75 Q654.2938,778.75 653.0906,778.125 Q652.1063,777.625 651.4188,776.5625 Q650.7313,775.4844 650.7313,774.2031 L650.7313,773.0469 Q650.7313,771.7188 651.3406,770.5781 Q651.9656,769.4219 653.0594,768.8125 Q654.1531,768.1875 655.3875,768.1875 Q656.1219,768.1875 656.7625,768.3594 Q657.4188,768.5156 657.9656,768.875 Z " fill="#000000"/><text fill="#000000" font-family="sans-serif" font-size="12" lengthAdjust="spacing" textLength="85" x="670.8" y="777.9102">TipoRegimento</text><line style="stroke:#A80036;stroke-width:1.5;" x1="634" x2="765" y1="789" y2="789"/><text fill="#000000" font-family="sans-serif" font-size="11" lengthAdjust="spacing" textLength="94" x="639" y="804.4189">-String designacao;</text><text fill="#000000" font-family="sans-serif" font-size="11" lengthAdjust="spacing" textLength="121" x="639" y="818.2549">-String descricaoRegras;</text><text fill="#000000" font-family="sans-serif" font-size="11" lengthAdjust="spacing" textLength="29" x="639" y="832.0908">-int id;</text><line style="stroke:#A80036;stroke-width:1.5;" x1="634" x2="765" y1="838.5078" y2="838.5078"/><!--MD5=[5562294418c1094ea6b855ee49b655b0]
class Atribuicao--><rect codeLine="50" fill="#FEFECE" filter="url(#f8n17wo6irlad)" height="117.1797" id="Atribuicao" style="stroke:#A80036;stroke-width:1.5;" width="139" x="314" y="973"/><ellipse cx="352.85" cy="989" fill="#ADD1B2" rx="11" ry="11" style="stroke:#A80036;stroke-width:1.0;"/><path d="M355.6156,984.875 Q355.7719,984.6563 355.9594,984.5469 Q356.1469,984.4375 356.3656,984.4375 Q356.7406,984.4375 356.975,984.7031 Q357.2094,984.9531 357.2094,985.5625 L357.2094,987.0156 Q357.2094,987.625 356.975,987.8906 Q356.7406,988.1563 356.3656,988.1563 Q356.0219,988.1563 355.8188,987.9531 Q355.6156,987.7656 355.5063,987.25 Q355.4594,986.8906 355.2719,986.7031 Q354.9438,986.3281 354.3344,986.1094 Q353.725,985.8906 353.1,985.8906 Q352.3344,985.8906 351.6938,986.2188 Q351.0688,986.5469 350.5688,987.2969 Q350.0844,988.0469 350.0844,989.0781 L350.0844,990.1719 Q350.0844,991.4063 350.975,992.2344 Q351.8656,993.0469 353.4594,993.0469 Q354.3969,993.0469 355.0531,992.7969 Q355.4438,992.6406 355.8656,992.2031 Q356.1313,991.9375 356.2719,991.8594 Q356.4281,991.7813 356.6313,991.7813 Q356.9594,991.7813 357.2094,992.0469 Q357.475,992.2969 357.475,992.6406 Q357.475,992.9844 357.1313,993.3906 Q356.6313,993.9688 355.8344,994.2969 Q354.7563,994.75 353.4594,994.75 Q351.9438,994.75 350.7406,994.125 Q349.7563,993.625 349.0688,992.5625 Q348.3813,991.4844 348.3813,990.2031 L348.3813,989.0469 Q348.3813,987.7188 348.9906,986.5781 Q349.6156,985.4219 350.7094,984.8125 Q351.8031,984.1875 353.0375,984.1875 Q353.7719,984.1875 354.4125,984.3594 Q355.0688,984.5156 355.6156,984.875 Z " fill="#000000"/><text fill="#000000" font-family="sans-serif" font-size="12" lengthAdjust="spacing" textLength="54" x="372.15" y="993.9102">Atribuicao</text><line style="stroke:#A80036;stroke-width:1.5;" x1="315" x2="452" y1="1005" y2="1005"/><text fill="#000000" font-family="sans-serif" font-size="11" lengthAdjust="spacing" textLength="74" x="320" y="1020.4189">-Date dataInicio</text><text fill="#000000" font-family="sans-serif" font-size="11" lengthAdjust="spacing" textLength="66" x="320" y="1034.2549">-Date dataFim</text><text fill="#000000" font-family="sans-serif" font-size="11" lengthAdjust="spacing" textLength="64" x="320" y="1048.0908">-Integer valor</text><text fill="#000000" font-family="sans-serif" font-size="11" lengthAdjust="spacing" textLength="113" x="320" y="1061.9268">-Integer numSequencial</text><line style="stroke:#A80036;stroke-width:1.5;" x1="315" x2="452" y1="1068.3438" y2="1068.3438"/><text fill="#000000" font-family="sans-serif" font-size="11" lengthAdjust="spacing" textLength="127" x="320" y="1083.7627">+Atribuicao(classificacao)</text><!--MD5=[19db0db7353a4bf63eefc676e5ba9b80]
class Anuncio--><rect codeLine="58" fill="#FEFECE" filter="url(#f8n17wo6irlad)" height="227.8672" id="Anuncio" style="stroke:#A80036;stroke-width:1.5;" width="299" x="550" y="403"/><ellipse cx="673.25" cy="419" fill="#ADD1B2" rx="11" ry="11" style="stroke:#A80036;stroke-width:1.0;"/><path d="M676.0156,414.875 Q676.1719,414.6563 676.3594,414.5469 Q676.5469,414.4375 676.7656,414.4375 Q677.1406,414.4375 677.375,414.7031 Q677.6094,414.9531 677.6094,415.5625 L677.6094,417.0156 Q677.6094,417.625 677.375,417.8906 Q677.1406,418.1563 676.7656,418.1563 Q676.4219,418.1563 676.2188,417.9531 Q676.0156,417.7656 675.9063,417.25 Q675.8594,416.8906 675.6719,416.7031 Q675.3438,416.3281 674.7344,416.1094 Q674.125,415.8906 673.5,415.8906 Q672.7344,415.8906 672.0938,416.2188 Q671.4688,416.5469 670.9688,417.2969 Q670.4844,418.0469 670.4844,419.0781 L670.4844,420.1719 Q670.4844,421.4063 671.375,422.2344 Q672.2656,423.0469 673.8594,423.0469 Q674.7969,423.0469 675.4531,422.7969 Q675.8438,422.6406 676.2656,422.2031 Q676.5313,421.9375 676.6719,421.8594 Q676.8281,421.7813 677.0313,421.7813 Q677.3594,421.7813 677.6094,422.0469 Q677.875,422.2969 677.875,422.6406 Q677.875,422.9844 677.5313,423.3906 Q677.0313,423.9688 676.2344,424.2969 Q675.1563,424.75 673.8594,424.75 Q672.3438,424.75 671.1406,424.125 Q670.1563,423.625 669.4688,422.5625 Q668.7813,421.4844 668.7813,420.2031 L668.7813,419.0469 Q668.7813,417.7188 669.3906,416.5781 Q670.0156,415.4219 671.1094,414.8125 Q672.2031,414.1875 673.4375,414.1875 Q674.1719,414.1875 674.8125,414.3594 Q675.4688,414.5156 676.0156,414.875 Z " fill="#000000"/><text fill="#000000" font-family="sans-serif" font-size="12" lengthAdjust="spacing" textLength="44" x="693.75" y="423.9102">Anuncio</text><line style="stroke:#A80036;stroke-width:1.5;" x1="551" x2="848" y1="435" y2="435"/><text fill="#000000" font-family="sans-serif" font-size="11" lengthAdjust="spacing" textLength="119" x="556" y="450.4189">-Date dtInicioPublicitacao</text><text fill="#000000" font-family="sans-serif" font-size="11" lengthAdjust="spacing" textLength="111" x="556" y="464.2549">-Date dtFimPublicitacao</text><text fill="#000000" font-family="sans-serif" font-size="11" lengthAdjust="spacing" textLength="120" x="556" y="478.0908">-Date dtInicioCandidatura</text><text fill="#000000" font-family="sans-serif" font-size="11" lengthAdjust="spacing" textLength="112" x="556" y="491.9268">-Date dtFimCandidatura</text><text fill="#000000" font-family="sans-serif" font-size="11" lengthAdjust="spacing" textLength="105" x="556" y="505.7627">-Date dtInicioSeriacao</text><text fill="#000000" font-family="sans-serif" font-size="11" lengthAdjust="spacing" textLength="97" x="556" y="519.5986">-Date dtFimSeriacao</text><text fill="#000000" font-family="sans-serif" font-size="11" lengthAdjust="spacing" textLength="68" x="556" y="533.4346">-Tarefa tarefa</text><text fill="#000000" font-family="sans-serif" font-size="11" lengthAdjust="spacing" textLength="124" x="556" y="547.2705">-Colaborador colaborador</text><text fill="#000000" font-family="sans-serif" font-size="11" lengthAdjust="spacing" textLength="124" x="556" y="561.1064">-TipoRegimento regimento</text><line style="stroke:#A80036;stroke-width:1.5;" x1="551" x2="848" y1="567.5234" y2="567.5234"/><text fill="#000000" font-family="sans-serif" font-size="11" lengthAdjust="spacing" textLength="284" x="556" y="582.9424">+Anuncio( Date dtInicioPublicitacao, Date dtFimPublicitacao,</text><text fill="#000000" font-family="sans-serif" font-size="11" lengthAdjust="spacing" textLength="233" x="556" y="596.7783">Date dtInicioCandidatura, Date dtFimCandidatura,</text><text fill="#000000" font-family="sans-serif" font-size="11" lengthAdjust="spacing" textLength="273" x="556" y="610.6143">Date dtInicioSeriacao, Date dtFimSeriacao, Tarefa tarefa,</text><text fill="#000000" font-family="sans-serif" font-size="11" lengthAdjust="spacing" textLength="250" x="556" y="624.4502">Colaborador colaborador, TipoRegimento regimento)</text><!--MD5=[eaee2703e858e7749355189a5d45d0ee]
class RepositorioSeriacaoDB--><rect fill="#FEFECE" filter="url(#f8n17wo6irlad)" height="48" id="RepositorioSeriacaoDB" style="stroke:#A80036;stroke-width:1.5;" width="162" x="553.5" y="287"/><ellipse cx="568.5" cy="303" fill="#ADD1B2" rx="11" ry="11" style="stroke:#A80036;stroke-width:1.0;"/><path d="M571.2656,298.875 Q571.4219,298.6563 571.6094,298.5469 Q571.7969,298.4375 572.0156,298.4375 Q572.3906,298.4375 572.625,298.7031 Q572.8594,298.9531 572.8594,299.5625 L572.8594,301.0156 Q572.8594,301.625 572.625,301.8906 Q572.3906,302.1563 572.0156,302.1563 Q571.6719,302.1563 571.4688,301.9531 Q571.2656,301.7656 571.1563,301.25 Q571.1094,300.8906 570.9219,300.7031 Q570.5938,300.3281 569.9844,300.1094 Q569.375,299.8906 568.75,299.8906 Q567.9844,299.8906 567.3438,300.2188 Q566.7188,300.5469 566.2188,301.2969 Q565.7344,302.0469 565.7344,303.0781 L565.7344,304.1719 Q565.7344,305.4063 566.625,306.2344 Q567.5156,307.0469 569.1094,307.0469 Q570.0469,307.0469 570.7031,306.7969 Q571.0938,306.6406 571.5156,306.2031 Q571.7813,305.9375 571.9219,305.8594 Q572.0781,305.7813 572.2813,305.7813 Q572.6094,305.7813 572.8594,306.0469 Q573.125,306.2969 573.125,306.6406 Q573.125,306.9844 572.7813,307.3906 Q572.2813,307.9688 571.4844,308.2969 Q570.4063,308.75 569.1094,308.75 Q567.5938,308.75 566.3906,308.125 Q565.4063,307.625 564.7188,306.5625 Q564.0313,305.4844 564.0313,304.2031 L564.0313,303.0469 Q564.0313,301.7188 564.6406,300.5781 Q565.2656,299.4219 566.3594,298.8125 Q567.4531,298.1875 568.6875,298.1875 Q569.4219,298.1875 570.0625,298.3594 Q570.7188,298.5156 571.2656,298.875 Z " fill="#000000"/><text fill="#000000" font-family="sans-serif" font-size="12" lengthAdjust="spacing" textLength="130" x="582.5" y="307.9102">RepositorioSeriacaoDB</text><line style="stroke:#A80036;stroke-width:1.5;" x1="554.5" x2="714.5" y1="319" y2="319"/><line style="stroke:#A80036;stroke-width:1.5;" x1="554.5" x2="714.5" y1="327" y2="327"/><!--MD5=[c39d2a1bd9a88aa367f50d585e313636]
link AdicionarAtribuicaoUI to RegistarSeriacaoController--><path codeLine="73" d="M386.5,55.12 C386.5,70.36 386.5,91.02 386.5,110.4 " fill="none" id="AdicionarAtribuicaoUI-to-RegistarSeriacaoController" style="stroke:#A80036;stroke-width:1.0;stroke-dasharray:7.0,7.0;"/><polygon fill="#A80036" points="386.5,115.83,390.5,106.83,386.5,110.83,382.5,106.83,386.5,115.83" style="stroke:#A80036;stroke-width:1.0;"/><!--MD5=[e2c0e35e05c4b3ca4e1cf322aa24680d]
link RegistarSeriacaoController to RepositorioAtribuicaoDB--><path codeLine="74" d="M280.47,219.19 C239.83,238.61 194.59,260.24 158.45,277.52 " fill="none" id="RegistarSeriacaoController-to-RepositorioAtribuicaoDB" style="stroke:#A80036;stroke-width:1.0;stroke-dasharray:7.0,7.0;"/><polygon fill="#A80036" points="153.64,279.82,163.4851,279.5487,158.1514,277.6642,160.0359,272.3305,153.64,279.82" style="stroke:#A80036;stroke-width:1.0;"/><!--MD5=[37b0bad8967c67e851fc4bdb72547b9d]
link RegistarSeriacaoController to RepositorioOrganizacaoDB--><path codeLine="75" d="M355.69,219.19 C344.42,237.74 331.92,258.31 321.67,275.17 " fill="none" id="RegistarSeriacaoController-to-RepositorioOrganizacaoDB" style="stroke:#A80036;stroke-width:1.0;stroke-dasharray:7.0,7.0;"/><polygon fill="#A80036" points="318.84,279.82,326.9226,274.1922,321.4293,275.5427,320.0789,270.0494,318.84,279.82" style="stroke:#A80036;stroke-width:1.0;"/><!--MD5=[0d9e727470df7f832443364837103c92]
link RegistarSeriacaoController to RepositorioSeriacaoDB--><path codeLine="76" d="M475.33,219.19 C514.01,241.26 557.67,266.17 589.47,284.31 " fill="none" id="RegistarSeriacaoController-to-RepositorioSeriacaoDB" style="stroke:#A80036;stroke-width:1.0;stroke-dasharray:7.0,7.0;"/><polygon fill="#A80036" points="594.07,286.93,588.246,278.9877,589.7305,284.4462,584.272,285.9308,594.07,286.93" style="stroke:#A80036;stroke-width:1.0;"/><!--MD5=[37e29a66d6b3d83f87588c72d558e3b1]
link RegistarSeriacaoController to Plataforma--><path codeLine="77" d="M417.31,219.19 C428.58,237.74 441.08,258.31 451.33,275.17 " fill="none" id="RegistarSeriacaoController-to-Plataforma" style="stroke:#A80036;stroke-width:1.0;stroke-dasharray:7.0,7.0;"/><polygon fill="#A80036" points="454.16,279.82,452.9211,270.0494,451.5707,275.5427,446.0774,274.1922,454.16,279.82" style="stroke:#A80036;stroke-width:1.0;"/><!--MD5=[8332b1d6239e15bdcec09ce3bcdea9a3]
link Plataforma to UsersAPI--><path codeLine="78" d="M472.5,342.1 C472.5,379.01 472.5,441.49 472.5,480.65 " fill="none" id="Plataforma-to-UsersAPI" style="stroke:#A80036;stroke-width:1.0;stroke-dasharray:7.0,7.0;"/><polygon fill="#A80036" points="472.5,485.78,476.5,476.78,472.5,480.78,468.5,476.78,472.5,485.78" style="stroke:#A80036;stroke-width:1.0;"/><!--MD5=[d087081a8bfd93fea2cdda87f6fc64d4]
link Plataforma to Tarefa--><path codeLine="79" d="M446.81,342.32 C434.14,359.1 419.99,380.96 412.5,403 C379.05,501.36 374.84,621.05 377.09,703.33 " fill="none" id="Plataforma-to-Tarefa" style="stroke:#A80036;stroke-width:1.0;"/><polygon fill="#A80036" points="377.24,708.7,380.9813,699.5894,377.0972,703.702,372.9846,699.8179,377.24,708.7" style="stroke:#A80036;stroke-width:1.0;"/><text fill="#000000" font-family="sans-serif" font-size="13" lengthAdjust="spacing" textLength="7" x="434.2457" y="363.3596">1</text><text fill="#000000" font-family="sans-serif" font-size="13" lengthAdjust="spacing" textLength="5" x="371.5419" y="698.1225">*</text><!--MD5=[3d9e8e0d764359bffb897b36dc4b633a]
link Plataforma to Anuncio--><path codeLine="80" d="M505.99,342.1 C523.5,357.83 546.16,378.2 569.78,399.43 " fill="none" id="Plataforma-to-Anuncio" style="stroke:#A80036;stroke-width:1.0;"/><polygon fill="#A80036" points="573.58,402.84,569.5662,393.8461,569.8635,399.4952,564.2145,399.7925,573.58,402.84" style="stroke:#A80036;stroke-width:1.0;"/><text fill="#000000" font-family="sans-serif" font-size="13" lengthAdjust="spacing" textLength="7" x="504.8943" y="363.3437">1</text><text fill="#000000" font-family="sans-serif" font-size="13" lengthAdjust="spacing" textLength="5" x="559.9518" y="392.1438">*</text><!--MD5=[4eb4fec7757cdb084f5153b8189a0ca2]
reverse link Anuncio to Tarefa--><path codeLine="81" d="M569.52,634.41 C541.76,659.27 512.82,685.19 486.25,708.98 " fill="none" id="Anuncio-backto-Tarefa" style="stroke:#A80036;stroke-width:1.0;"/><polygon fill="#A80036" points="573.25,631.07,563.8787,634.0996,569.5272,634.4077,569.2191,640.0562,573.25,631.07" style="stroke:#A80036;stroke-width:1.0;"/><text fill="#000000" font-family="sans-serif" font-size="13" lengthAdjust="spacing" textLength="57" x="533.5" y="675.4951">dá origem</text><text fill="#000000" font-family="sans-serif" font-size="13" lengthAdjust="spacing" textLength="22" x="542.4574" y="652.4007">0..1</text><text fill="#000000" font-family="sans-serif" font-size="13" lengthAdjust="spacing" textLength="7" x="487.4691" y="698.1091">1</text><!--MD5=[3fb03004f687adcfc695220fdd65ad26]
link Anuncio to TipoRegimento--><path codeLine="82" d="M699.5,631.07 C699.5,673.01 699.5,718.43 699.5,751.75 " fill="none" id="Anuncio-to-TipoRegimento" style="stroke:#A80036;stroke-width:1.0;"/><polygon fill="#A80036" points="699.5,756.99,703.5,747.99,699.5,751.99,695.5,747.99,699.5,756.99" style="stroke:#A80036;stroke-width:1.0;"/><text fill="#000000" font-family="sans-serif" font-size="13" lengthAdjust="spacing" textLength="65" x="700.5" y="675.4951">rege-se por</text><text fill="#000000" font-family="sans-serif" font-size="13" lengthAdjust="spacing" textLength="5" x="694.3398" y="652.4007">*</text><text fill="#000000" font-family="sans-serif" font-size="13" lengthAdjust="spacing" textLength="7" x="691.9422" y="746.1039">1</text><!--MD5=[4c9c60ad049df073af126426e7337cdd]
link Tarefa to Atribuicao--><path codeLine="83" d="M383.5,895.2 C383.5,919.6 383.5,945.36 383.5,967.78 " fill="none" id="Tarefa-to-Atribuicao" style="stroke:#A80036;stroke-width:1.0;"/><polygon fill="#A80036" points="383.5,972.81,387.5,963.81,383.5,967.81,379.5,963.81,383.5,972.81" style="stroke:#A80036;stroke-width:1.0;"/><text fill="#000000" font-family="sans-serif" font-size="13" lengthAdjust="spacing" textLength="74" x="384.5" y="939.4951">originada por</text><text fill="#000000" font-family="sans-serif" font-size="13" lengthAdjust="spacing" textLength="7" x="376.2211" y="916.7592">1</text><text fill="#000000" font-family="sans-serif" font-size="13" lengthAdjust="spacing" textLength="7" x="376.0734" y="962.1877">1</text><!--MD5=[ca3500e817e49f13658331ef8723426d]
@startuml
skinparam classAttributeIconSize 0

class AdicionarAtribuicaoUI {

}

class RegistarSeriacaoController {
  +List<tribuicao> getListAtribuicoes()
  +List<Classificacao> getListaClassificacoesSelectedAnuncio(ProcessoSeriacao ps)
  +Colaborador getColabByEmail()
  +addAtribuicao(Classificacao classificacao)
}

class Tarefa {
  -String ref
  -String designacao
  -String descrInformal
  -String descrTecnica
  -Integer duracaoEst
  -Double custoEst
  -CategoriaTarefa catTarefa
  -Colaborador colab
  +Tarefa(String ref, String designacao, String descrInformal, String descrTecnica,
            Integer duracaoEst, Double custoEst, CategoriaTarefa catTarefa, Colaborador colab)
  
}

class RepositorioAtribuicaoDB {
  +save(atribuicao)
}

class RepositorioOrganizacaoDB {
  +getOrgByColabEmail(email)
}

class Plataforma {
  +getUsersAPI()
}

class UsersAPI {
  +getEmail()
}

class TipoRegimento {
  -String designacao;
  -String descricaoRegras;
  -int id;
}

class Atribuicao {
    -Date dataInicio
    -Date dataFim
    -Integer valor
    -Integer numSequencial
    +Atribuicao(classificacao)
}

class Anuncio {
  -Date dtInicioPublicitacao
  -Date dtFimPublicitacao
  -Date dtInicioCandidatura
  -Date dtFimCandidatura
  -Date dtInicioSeriacao
  -Date dtFimSeriacao
  -Tarefa tarefa
  -Colaborador colaborador
  -TipoRegimento regimento
  +Anuncio( Date dtInicioPublicitacao, Date dtFimPublicitacao, \nDate dtInicioCandidatura, Date dtFimCandidatura,
            Date dtInicioSeriacao, Date dtFimSeriacao, Tarefa tarefa, \nColaborador colaborador, TipoRegimento regimento)
  }


AdicionarAtribuicaoUI ..> RegistarSeriacaoController
RegistarSeriacaoController ..> RepositorioAtribuicaoDB
RegistarSeriacaoController ..> RepositorioOrganizacaoDB
RegistarSeriacaoController ..> RepositorioSeriacaoDB
RegistarSeriacaoController ..> Plataforma
Plataforma ..> UsersAPI
Plataforma "1" - -> "*" Tarefa
Plataforma "1" - -> "*" Anuncio
Anuncio "0..1" <- - "1" Tarefa: dá origem
Anuncio "*" - -> "1" TipoRegimento: rege-se por
Tarefa "1" - -> "1" Atribuicao: originada por

@enduml

PlantUML version 1.2021.00(Sun Jan 10 10:25:05 WET 2021)
(GPL source distribution)
Java Runtime: Java(TM) SE Runtime Environment
JVM: Java HotSpot(TM) 64-Bit Server VM
Default Encoding: Cp1252
Language: pt
Country: PT
--></g></svg>