<?xml version="1.0" encoding="UTF-8" standalone="no"?><svg xmlns="http://www.w3.org/2000/svg" xmlns:xlink="http://www.w3.org/1999/xlink" contentScriptType="application/ecmascript" contentStyleType="text/css" height="900px" preserveAspectRatio="none" style="width:1564px;height:900px;" version="1.1" viewBox="0 0 1564 900" width="1564px" zoomAndPan="magnify"><defs><filter height="300%" id="fjrqi2eyh0ld8" width="300%" x="-1" y="-1"><feGaussianBlur result="blurOut" stdDeviation="2.0"/><feColorMatrix in="blurOut" result="blurOut2" type="matrix" values="0 0 0 0 0 0 0 0 0 0 0 0 0 0 0 0 0 0 .4 0"/><feOffset dx="4.0" dy="4.0" in="blurOut2" result="blurOut3"/><feBlend in="SourceGraphic" in2="blurOut3" mode="normal"/></filter></defs><g><!--MD5=[807977ceb130c090ed5febfb6de2bdea]
class Organizacao--><rect codeLine="5" fill="#FEFECE" filter="url(#fjrqi2eyh0ld8)" height="109.1797" id="Organizacao" style="stroke:#A80036;stroke-width:1.5;" width="101" x="273.5" y="265.8564"/><ellipse cx="288.5" cy="281.8564" fill="#ADD1B2" rx="11" ry="11" style="stroke:#A80036;stroke-width:1.0;"/><path d="M291.2656,277.7314 Q291.4219,277.5127 291.6094,277.4033 Q291.7969,277.2939 292.0156,277.2939 Q292.3906,277.2939 292.625,277.5596 Q292.8594,277.8096 292.8594,278.4189 L292.8594,279.8721 Q292.8594,280.4814 292.625,280.7471 Q292.3906,281.0127 292.0156,281.0127 Q291.6719,281.0127 291.4688,280.8096 Q291.2656,280.6221 291.1563,280.1064 Q291.1094,279.7471 290.9219,279.5596 Q290.5938,279.1846 289.9844,278.9658 Q289.375,278.7471 288.75,278.7471 Q287.9844,278.7471 287.3438,279.0752 Q286.7188,279.4033 286.2188,280.1533 Q285.7344,280.9033 285.7344,281.9346 L285.7344,283.0283 Q285.7344,284.2627 286.625,285.0908 Q287.5156,285.9033 289.1094,285.9033 Q290.0469,285.9033 290.7031,285.6533 Q291.0938,285.4971 291.5156,285.0596 Q291.7813,284.7939 291.9219,284.7158 Q292.0781,284.6377 292.2813,284.6377 Q292.6094,284.6377 292.8594,284.9033 Q293.125,285.1533 293.125,285.4971 Q293.125,285.8408 292.7813,286.2471 Q292.2813,286.8252 291.4844,287.1533 Q290.4063,287.6064 289.1094,287.6064 Q287.5938,287.6064 286.3906,286.9814 Q285.4063,286.4814 284.7188,285.4189 Q284.0313,284.3408 284.0313,283.0596 L284.0313,281.9033 Q284.0313,280.5752 284.6406,279.4346 Q285.2656,278.2783 286.3594,277.6689 Q287.4531,277.0439 288.6875,277.0439 Q289.4219,277.0439 290.0625,277.2158 Q290.7188,277.3721 291.2656,277.7314 Z " fill="#000000"/><text fill="#000000" font-family="sans-serif" font-size="12" lengthAdjust="spacing" textLength="69" x="302.5" y="286.7666">Organizacao</text><line style="stroke:#A80036;stroke-width:1.5;" x1="274.5" x2="373.5" y1="297.8564" y2="297.8564"/><text fill="#000000" font-family="sans-serif" font-size="11" lengthAdjust="spacing" textLength="61" x="279.5" y="313.2754">-String nome</text><text fill="#000000" font-family="sans-serif" font-size="11" lengthAdjust="spacing" textLength="50" x="279.5" y="327.1113">-String NIF</text><text fill="#000000" font-family="sans-serif" font-size="11" lengthAdjust="spacing" textLength="74" x="279.5" y="340.9473">-String website</text><text fill="#000000" font-family="sans-serif" font-size="11" lengthAdjust="spacing" textLength="74" x="279.5" y="354.7832">-String telefone</text><text fill="#000000" font-family="sans-serif" font-size="11" lengthAdjust="spacing" textLength="59" x="279.5" y="368.6191">-String email</text><!--MD5=[ac8682ea5466d223e49472789fb200d2]
class Colaborador--><rect codeLine="13" fill="#FEFECE" filter="url(#fjrqi2eyh0ld8)" height="95.3438" id="Colaborador" style="stroke:#A80036;stroke-width:1.5;" width="101" x="937" y="314.8564"/><ellipse cx="952" cy="330.8564" fill="#ADD1B2" rx="11" ry="11" style="stroke:#A80036;stroke-width:1.0;"/><path d="M954.7656,326.7314 Q954.9219,326.5127 955.1094,326.4033 Q955.2969,326.2939 955.5156,326.2939 Q955.8906,326.2939 956.125,326.5596 Q956.3594,326.8096 956.3594,327.4189 L956.3594,328.8721 Q956.3594,329.4814 956.125,329.7471 Q955.8906,330.0127 955.5156,330.0127 Q955.1719,330.0127 954.9688,329.8096 Q954.7656,329.6221 954.6563,329.1064 Q954.6094,328.7471 954.4219,328.5596 Q954.0938,328.1846 953.4844,327.9658 Q952.875,327.7471 952.25,327.7471 Q951.4844,327.7471 950.8438,328.0752 Q950.2188,328.4033 949.7188,329.1533 Q949.2344,329.9033 949.2344,330.9346 L949.2344,332.0283 Q949.2344,333.2627 950.125,334.0908 Q951.0156,334.9033 952.6094,334.9033 Q953.5469,334.9033 954.2031,334.6533 Q954.5938,334.4971 955.0156,334.0596 Q955.2813,333.7939 955.4219,333.7158 Q955.5781,333.6377 955.7813,333.6377 Q956.1094,333.6377 956.3594,333.9033 Q956.625,334.1533 956.625,334.4971 Q956.625,334.8408 956.2813,335.2471 Q955.7813,335.8252 954.9844,336.1533 Q953.9063,336.6064 952.6094,336.6064 Q951.0938,336.6064 949.8906,335.9814 Q948.9063,335.4814 948.2188,334.4189 Q947.5313,333.3408 947.5313,332.0596 L947.5313,330.9033 Q947.5313,329.5752 948.1406,328.4346 Q948.7656,327.2783 949.8594,326.6689 Q950.9531,326.0439 952.1875,326.0439 Q952.9219,326.0439 953.5625,326.2158 Q954.2188,326.3721 954.7656,326.7314 Z " fill="#000000"/><text fill="#000000" font-family="sans-serif" font-size="12" lengthAdjust="spacing" textLength="69" x="966" y="335.7666">Colaborador</text><line style="stroke:#A80036;stroke-width:1.5;" x1="938" x2="1037" y1="346.8564" y2="346.8564"/><text fill="#000000" font-family="sans-serif" font-size="11" lengthAdjust="spacing" textLength="61" x="943" y="362.2754">-String nome</text><text fill="#000000" font-family="sans-serif" font-size="11" lengthAdjust="spacing" textLength="69" x="943" y="376.1113">-String funcao</text><text fill="#000000" font-family="sans-serif" font-size="11" lengthAdjust="spacing" textLength="74" x="943" y="389.9473">-String telefone</text><text fill="#000000" font-family="sans-serif" font-size="11" lengthAdjust="spacing" textLength="59" x="943" y="403.7832">-String email</text><!--MD5=[27c2d4bbe9f7b9d3b0ea2797cc54308a]
class Tarefa--><rect codeLine="20" fill="#FEFECE" filter="url(#fjrqi2eyh0ld8)" height="123.0156" id="Tarefa" style="stroke:#A80036;stroke-width:1.5;" width="109" x="557.5" y="399.8564"/><ellipse cx="591.4" cy="415.8564" fill="#ADD1B2" rx="11" ry="11" style="stroke:#A80036;stroke-width:1.0;"/><path d="M594.1656,411.7314 Q594.3219,411.5127 594.5094,411.4033 Q594.6969,411.2939 594.9156,411.2939 Q595.2906,411.2939 595.525,411.5596 Q595.7594,411.8096 595.7594,412.4189 L595.7594,413.8721 Q595.7594,414.4814 595.525,414.7471 Q595.2906,415.0127 594.9156,415.0127 Q594.5719,415.0127 594.3688,414.8096 Q594.1656,414.6221 594.0563,414.1064 Q594.0094,413.7471 593.8219,413.5596 Q593.4938,413.1846 592.8844,412.9658 Q592.275,412.7471 591.65,412.7471 Q590.8844,412.7471 590.2438,413.0752 Q589.6188,413.4033 589.1188,414.1533 Q588.6344,414.9033 588.6344,415.9346 L588.6344,417.0283 Q588.6344,418.2627 589.525,419.0908 Q590.4156,419.9033 592.0094,419.9033 Q592.9469,419.9033 593.6031,419.6533 Q593.9938,419.4971 594.4156,419.0596 Q594.6813,418.7939 594.8219,418.7158 Q594.9781,418.6377 595.1813,418.6377 Q595.5094,418.6377 595.7594,418.9033 Q596.025,419.1533 596.025,419.4971 Q596.025,419.8408 595.6813,420.2471 Q595.1813,420.8252 594.3844,421.1533 Q593.3063,421.6064 592.0094,421.6064 Q590.4938,421.6064 589.2906,420.9814 Q588.3063,420.4814 587.6188,419.4189 Q586.9313,418.3408 586.9313,417.0596 L586.9313,415.9033 Q586.9313,414.5752 587.5406,413.4346 Q588.1656,412.2783 589.2594,411.6689 Q590.3531,411.0439 591.5875,411.0439 Q592.3219,411.0439 592.9625,411.2158 Q593.6188,411.3721 594.1656,411.7314 Z " fill="#000000"/><text fill="#000000" font-family="sans-serif" font-size="12" lengthAdjust="spacing" textLength="35" x="609.6" y="420.7666">Tarefa</text><line style="stroke:#A80036;stroke-width:1.5;" x1="558.5" x2="665.5" y1="431.8564" y2="431.8564"/><text fill="#000000" font-family="sans-serif" font-size="11" lengthAdjust="spacing" textLength="85" x="563.5" y="447.2754">-String referencia</text><text fill="#000000" font-family="sans-serif" font-size="11" lengthAdjust="spacing" textLength="91" x="563.5" y="461.1113">-String designacao</text><text fill="#000000" font-family="sans-serif" font-size="11" lengthAdjust="spacing" textLength="97" x="563.5" y="474.9473">-String descInformal</text><text fill="#000000" font-family="sans-serif" font-size="11" lengthAdjust="spacing" textLength="97" x="563.5" y="488.7832">-String descTecnica</text><text fill="#000000" font-family="sans-serif" font-size="11" lengthAdjust="spacing" textLength="95" x="563.5" y="502.6191">-Integer duracaoEst</text><text fill="#000000" font-family="sans-serif" font-size="11" lengthAdjust="spacing" textLength="82" x="563.5" y="516.4551">-Double custoEst</text><!--MD5=[d0e9f237fb3c72e1245c36c562ad52c4]
class TipoRegimento--><rect codeLine="29" fill="#FEFECE" filter="url(#fjrqi2eyh0ld8)" height="67.6719" id="TipoRegimento" style="stroke:#A80036;stroke-width:1.5;" width="117" x="929" y="725.3564"/><ellipse cx="944" cy="741.3564" fill="#ADD1B2" rx="11" ry="11" style="stroke:#A80036;stroke-width:1.0;"/><path d="M946.7656,737.2314 Q946.9219,737.0127 947.1094,736.9033 Q947.2969,736.7939 947.5156,736.7939 Q947.8906,736.7939 948.125,737.0596 Q948.3594,737.3096 948.3594,737.9189 L948.3594,739.3721 Q948.3594,739.9814 948.125,740.2471 Q947.8906,740.5127 947.5156,740.5127 Q947.1719,740.5127 946.9688,740.3096 Q946.7656,740.1221 946.6563,739.6064 Q946.6094,739.2471 946.4219,739.0596 Q946.0938,738.6846 945.4844,738.4658 Q944.875,738.2471 944.25,738.2471 Q943.4844,738.2471 942.8438,738.5752 Q942.2188,738.9033 941.7188,739.6533 Q941.2344,740.4033 941.2344,741.4346 L941.2344,742.5283 Q941.2344,743.7627 942.125,744.5908 Q943.0156,745.4033 944.6094,745.4033 Q945.5469,745.4033 946.2031,745.1533 Q946.5938,744.9971 947.0156,744.5596 Q947.2813,744.2939 947.4219,744.2158 Q947.5781,744.1377 947.7813,744.1377 Q948.1094,744.1377 948.3594,744.4033 Q948.625,744.6533 948.625,744.9971 Q948.625,745.3408 948.2813,745.7471 Q947.7813,746.3252 946.9844,746.6533 Q945.9063,747.1064 944.6094,747.1064 Q943.0938,747.1064 941.8906,746.4814 Q940.9063,745.9814 940.2188,744.9189 Q939.5313,743.8408 939.5313,742.5596 L939.5313,741.4033 Q939.5313,740.0752 940.1406,738.9346 Q940.7656,737.7783 941.8594,737.1689 Q942.9531,736.5439 944.1875,736.5439 Q944.9219,736.5439 945.5625,736.7158 Q946.2188,736.8721 946.7656,737.2314 Z " fill="#000000"/><text fill="#000000" font-family="sans-serif" font-size="12" lengthAdjust="spacing" textLength="85" x="958" y="746.2666">TipoRegimento</text><line style="stroke:#A80036;stroke-width:1.5;" x1="930" x2="1045" y1="757.3564" y2="757.3564"/><text fill="#000000" font-family="sans-serif" font-size="11" lengthAdjust="spacing" textLength="91" x="935" y="772.7754">-String designacao</text><text fill="#000000" font-family="sans-serif" font-size="11" lengthAdjust="spacing" textLength="94" x="935" y="786.6113">-String descRegras</text><!--MD5=[1f687b5315377fe49fca59b457947463]
class Freelancer--><rect codeLine="34" fill="#FEFECE" filter="url(#fjrqi2eyh0ld8)" height="95.3438" id="Freelancer" style="stroke:#A80036;stroke-width:1.5;" width="91" x="1459" y="296.8564"/><ellipse cx="1474" cy="312.8564" fill="#ADD1B2" rx="11" ry="11" style="stroke:#A80036;stroke-width:1.0;"/><path d="M1476.7656,308.7314 Q1476.9219,308.5127 1477.1094,308.4033 Q1477.2969,308.2939 1477.5156,308.2939 Q1477.8906,308.2939 1478.125,308.5596 Q1478.3594,308.8096 1478.3594,309.4189 L1478.3594,310.8721 Q1478.3594,311.4814 1478.125,311.7471 Q1477.8906,312.0127 1477.5156,312.0127 Q1477.1719,312.0127 1476.9688,311.8096 Q1476.7656,311.6221 1476.6563,311.1064 Q1476.6094,310.7471 1476.4219,310.5596 Q1476.0938,310.1846 1475.4844,309.9658 Q1474.875,309.7471 1474.25,309.7471 Q1473.4844,309.7471 1472.8438,310.0752 Q1472.2188,310.4033 1471.7188,311.1533 Q1471.2344,311.9033 1471.2344,312.9346 L1471.2344,314.0283 Q1471.2344,315.2627 1472.125,316.0908 Q1473.0156,316.9033 1474.6094,316.9033 Q1475.5469,316.9033 1476.2031,316.6533 Q1476.5938,316.4971 1477.0156,316.0596 Q1477.2813,315.7939 1477.4219,315.7158 Q1477.5781,315.6377 1477.7813,315.6377 Q1478.1094,315.6377 1478.3594,315.9033 Q1478.625,316.1533 1478.625,316.4971 Q1478.625,316.8408 1478.2813,317.2471 Q1477.7813,317.8252 1476.9844,318.1533 Q1475.9063,318.6064 1474.6094,318.6064 Q1473.0938,318.6064 1471.8906,317.9814 Q1470.9063,317.4814 1470.2188,316.4189 Q1469.5313,315.3408 1469.5313,314.0596 L1469.5313,312.9033 Q1469.5313,311.5752 1470.1406,310.4346 Q1470.7656,309.2783 1471.8594,308.6689 Q1472.9531,308.0439 1474.1875,308.0439 Q1474.9219,308.0439 1475.5625,308.2158 Q1476.2188,308.3721 1476.7656,308.7314 Z " fill="#000000"/><text fill="#000000" font-family="sans-serif" font-size="12" lengthAdjust="spacing" textLength="59" x="1488" y="317.7666">Freelancer</text><line style="stroke:#A80036;stroke-width:1.5;" x1="1460" x2="1549" y1="328.8564" y2="328.8564"/><text fill="#000000" font-family="sans-serif" font-size="11" lengthAdjust="spacing" textLength="61" x="1465" y="344.2754">-String nome</text><text fill="#000000" font-family="sans-serif" font-size="11" lengthAdjust="spacing" textLength="47" x="1465" y="358.1113">-String nif</text><text fill="#000000" font-family="sans-serif" font-size="11" lengthAdjust="spacing" textLength="74" x="1465" y="371.9473">-String telefone</text><text fill="#000000" font-family="sans-serif" font-size="11" lengthAdjust="spacing" textLength="59" x="1465" y="385.7832">-String email</text><!--MD5=[5562294418c1094ea6b855ee49b655b0]
class Atribuicao--><rect codeLine="41" fill="#FEFECE" filter="url(#fjrqi2eyh0ld8)" height="95.3438" id="Atribuicao" style="stroke:#A80036;stroke-width:1.5;" width="125" x="7" y="326.8564"/><ellipse cx="39.55" cy="342.8564" fill="#ADD1B2" rx="11" ry="11" style="stroke:#A80036;stroke-width:1.0;"/><path d="M42.3156,338.7314 Q42.4719,338.5127 42.6594,338.4033 Q42.8469,338.2939 43.0656,338.2939 Q43.4406,338.2939 43.675,338.5596 Q43.9094,338.8096 43.9094,339.4189 L43.9094,340.8721 Q43.9094,341.4814 43.675,341.7471 Q43.4406,342.0127 43.0656,342.0127 Q42.7219,342.0127 42.5188,341.8096 Q42.3156,341.6221 42.2063,341.1064 Q42.1594,340.7471 41.9719,340.5596 Q41.6438,340.1846 41.0344,339.9658 Q40.425,339.7471 39.8,339.7471 Q39.0344,339.7471 38.3938,340.0752 Q37.7688,340.4033 37.2688,341.1533 Q36.7844,341.9033 36.7844,342.9346 L36.7844,344.0283 Q36.7844,345.2627 37.675,346.0908 Q38.5656,346.9033 40.1594,346.9033 Q41.0969,346.9033 41.7531,346.6533 Q42.1438,346.4971 42.5656,346.0596 Q42.8313,345.7939 42.9719,345.7158 Q43.1281,345.6377 43.3313,345.6377 Q43.6594,345.6377 43.9094,345.9033 Q44.175,346.1533 44.175,346.4971 Q44.175,346.8408 43.8313,347.2471 Q43.3313,347.8252 42.5344,348.1533 Q41.4563,348.6064 40.1594,348.6064 Q38.6438,348.6064 37.4406,347.9814 Q36.4563,347.4814 35.7688,346.4189 Q35.0813,345.3408 35.0813,344.0596 L35.0813,342.9033 Q35.0813,341.5752 35.6906,340.4346 Q36.3156,339.2783 37.4094,338.6689 Q38.5031,338.0439 39.7375,338.0439 Q40.4719,338.0439 41.1125,338.2158 Q41.7688,338.3721 42.3156,338.7314 Z " fill="#000000"/><text fill="#000000" font-family="sans-serif" font-size="12" lengthAdjust="spacing" textLength="54" x="57.45" y="347.7666">Atribuicao</text><line style="stroke:#A80036;stroke-width:1.5;" x1="8" x2="131" y1="358.8564" y2="358.8564"/><text fill="#000000" font-family="sans-serif" font-size="11" lengthAdjust="spacing" textLength="74" x="13" y="374.2754">-Date dataInicio</text><text fill="#000000" font-family="sans-serif" font-size="11" lengthAdjust="spacing" textLength="66" x="13" y="388.1113">-Date dataFim</text><text fill="#000000" font-family="sans-serif" font-size="11" lengthAdjust="spacing" textLength="64" x="13" y="401.9473">-Integer valor</text><text fill="#000000" font-family="sans-serif" font-size="11" lengthAdjust="spacing" textLength="113" x="13" y="415.7832">-Integer numSequencial</text><!--MD5=[19db0db7353a4bf63eefc676e5ba9b80]
class Anuncio--><rect codeLine="48" fill="#FEFECE" filter="url(#fjrqi2eyh0ld8)" height="123.0156" id="Anuncio" style="stroke:#A80036;stroke-width:1.5;" width="132" x="258" y="554.8564"/><ellipse cx="298.2" cy="570.8564" fill="#ADD1B2" rx="11" ry="11" style="stroke:#A80036;stroke-width:1.0;"/><path d="M300.9656,566.7314 Q301.1219,566.5127 301.3094,566.4033 Q301.4969,566.2939 301.7156,566.2939 Q302.0906,566.2939 302.325,566.5596 Q302.5594,566.8096 302.5594,567.4189 L302.5594,568.8721 Q302.5594,569.4814 302.325,569.7471 Q302.0906,570.0127 301.7156,570.0127 Q301.3719,570.0127 301.1688,569.8096 Q300.9656,569.6221 300.8563,569.1064 Q300.8094,568.7471 300.6219,568.5596 Q300.2938,568.1846 299.6844,567.9658 Q299.075,567.7471 298.45,567.7471 Q297.6844,567.7471 297.0438,568.0752 Q296.4188,568.4033 295.9188,569.1533 Q295.4344,569.9033 295.4344,570.9346 L295.4344,572.0283 Q295.4344,573.2627 296.325,574.0908 Q297.2156,574.9033 298.8094,574.9033 Q299.7469,574.9033 300.4031,574.6533 Q300.7938,574.4971 301.2156,574.0596 Q301.4813,573.7939 301.6219,573.7158 Q301.7781,573.6377 301.9813,573.6377 Q302.3094,573.6377 302.5594,573.9033 Q302.825,574.1533 302.825,574.4971 Q302.825,574.8408 302.4813,575.2471 Q301.9813,575.8252 301.1844,576.1533 Q300.1063,576.6064 298.8094,576.6064 Q297.2938,576.6064 296.0906,575.9814 Q295.1063,575.4814 294.4188,574.4189 Q293.7313,573.3408 293.7313,572.0596 L293.7313,570.9033 Q293.7313,569.5752 294.3406,568.4346 Q294.9656,567.2783 296.0594,566.6689 Q297.1531,566.0439 298.3875,566.0439 Q299.1219,566.0439 299.7625,566.2158 Q300.4188,566.3721 300.9656,566.7314 Z " fill="#000000"/><text fill="#000000" font-family="sans-serif" font-size="12" lengthAdjust="spacing" textLength="44" x="317.8" y="575.7666">Anuncio</text><line style="stroke:#A80036;stroke-width:1.5;" x1="259" x2="389" y1="586.8564" y2="586.8564"/><text fill="#000000" font-family="sans-serif" font-size="11" lengthAdjust="spacing" textLength="119" x="264" y="602.2754">-Date dtInicioPublicitacao</text><text fill="#000000" font-family="sans-serif" font-size="11" lengthAdjust="spacing" textLength="111" x="264" y="616.1113">-Date dtFimPublicitacao</text><text fill="#000000" font-family="sans-serif" font-size="11" lengthAdjust="spacing" textLength="120" x="264" y="629.9473">-Date dtInicioCandidatura</text><text fill="#000000" font-family="sans-serif" font-size="11" lengthAdjust="spacing" textLength="112" x="264" y="643.7832">-Date dtFimCandidatura</text><text fill="#000000" font-family="sans-serif" font-size="11" lengthAdjust="spacing" textLength="105" x="264" y="657.6191">-Date dtInicioSeriacao</text><text fill="#000000" font-family="sans-serif" font-size="11" lengthAdjust="spacing" textLength="97" x="264" y="671.4551">-Date dtFimSeriacao</text><!--MD5=[475c5b924ed41035684e2831311827d2]
class Candidatura--><rect codeLine="57" fill="#FEFECE" filter="url(#fjrqi2eyh0ld8)" height="109.1797" id="Candidatura" style="stroke:#A80036;stroke-width:1.5;" width="128" x="1182" y="609.8564"/><ellipse cx="1209.6" cy="625.8564" fill="#ADD1B2" rx="11" ry="11" style="stroke:#A80036;stroke-width:1.0;"/><path d="M1212.3656,621.7314 Q1212.5219,621.5127 1212.7094,621.4033 Q1212.8969,621.2939 1213.1156,621.2939 Q1213.4906,621.2939 1213.725,621.5596 Q1213.9594,621.8096 1213.9594,622.4189 L1213.9594,623.8721 Q1213.9594,624.4814 1213.725,624.7471 Q1213.4906,625.0127 1213.1156,625.0127 Q1212.7719,625.0127 1212.5688,624.8096 Q1212.3656,624.6221 1212.2563,624.1064 Q1212.2094,623.7471 1212.0219,623.5596 Q1211.6938,623.1846 1211.0844,622.9658 Q1210.475,622.7471 1209.85,622.7471 Q1209.0844,622.7471 1208.4438,623.0752 Q1207.8188,623.4033 1207.3188,624.1533 Q1206.8344,624.9033 1206.8344,625.9346 L1206.8344,627.0283 Q1206.8344,628.2627 1207.725,629.0908 Q1208.6156,629.9033 1210.2094,629.9033 Q1211.1469,629.9033 1211.8031,629.6533 Q1212.1938,629.4971 1212.6156,629.0596 Q1212.8813,628.7939 1213.0219,628.7158 Q1213.1781,628.6377 1213.3813,628.6377 Q1213.7094,628.6377 1213.9594,628.9033 Q1214.225,629.1533 1214.225,629.4971 Q1214.225,629.8408 1213.8813,630.2471 Q1213.3813,630.8252 1212.5844,631.1533 Q1211.5063,631.6064 1210.2094,631.6064 Q1208.6938,631.6064 1207.4906,630.9814 Q1206.5063,630.4814 1205.8188,629.4189 Q1205.1313,628.3408 1205.1313,627.0596 L1205.1313,625.9033 Q1205.1313,624.5752 1205.7406,623.4346 Q1206.3656,622.2783 1207.4594,621.6689 Q1208.5531,621.0439 1209.7875,621.0439 Q1210.5219,621.0439 1211.1625,621.2158 Q1211.8188,621.3721 1212.3656,621.7314 Z " fill="#000000"/><text fill="#000000" font-family="sans-serif" font-size="12" lengthAdjust="spacing" textLength="68" x="1226.4" y="630.7666">Candidatura</text><line style="stroke:#A80036;stroke-width:1.5;" x1="1183" x2="1309" y1="641.8564" y2="641.8564"/><text fill="#000000" font-family="sans-serif" font-size="11" lengthAdjust="spacing" textLength="108" x="1188" y="657.2754">-Date dataCandidatura</text><text fill="#000000" font-family="sans-serif" font-size="11" lengthAdjust="spacing" textLength="115" x="1188" y="671.1113">-Double valorPretendido</text><text fill="#000000" font-family="sans-serif" font-size="11" lengthAdjust="spacing" textLength="71" x="1188" y="684.9473">-Integer nrDias</text><text fill="#000000" font-family="sans-serif" font-size="11" lengthAdjust="spacing" textLength="116" x="1188" y="698.7832">-String txtApresentacao</text><text fill="#000000" font-family="sans-serif" font-size="11" lengthAdjust="spacing" textLength="96" x="1188" y="712.6191">-String txtMotivacao</text><!--MD5=[716bba0e94eea125d5a66a891f2c3c34]
class Classificacao--><rect codeLine="65" fill="#FEFECE" filter="url(#fjrqi2eyh0ld8)" height="53.8359" id="Classificacao" style="stroke:#A80036;stroke-width:1.5;" width="107" x="934" y="832.3564"/><ellipse cx="949" cy="848.3564" fill="#ADD1B2" rx="11" ry="11" style="stroke:#A80036;stroke-width:1.0;"/><path d="M951.7656,844.2314 Q951.9219,844.0127 952.1094,843.9033 Q952.2969,843.7939 952.5156,843.7939 Q952.8906,843.7939 953.125,844.0596 Q953.3594,844.3096 953.3594,844.9189 L953.3594,846.3721 Q953.3594,846.9814 953.125,847.2471 Q952.8906,847.5127 952.5156,847.5127 Q952.1719,847.5127 951.9688,847.3096 Q951.7656,847.1221 951.6563,846.6064 Q951.6094,846.2471 951.4219,846.0596 Q951.0938,845.6846 950.4844,845.4658 Q949.875,845.2471 949.25,845.2471 Q948.4844,845.2471 947.8438,845.5752 Q947.2188,845.9033 946.7188,846.6533 Q946.2344,847.4033 946.2344,848.4346 L946.2344,849.5283 Q946.2344,850.7627 947.125,851.5908 Q948.0156,852.4033 949.6094,852.4033 Q950.5469,852.4033 951.2031,852.1533 Q951.5938,851.9971 952.0156,851.5596 Q952.2813,851.2939 952.4219,851.2158 Q952.5781,851.1377 952.7813,851.1377 Q953.1094,851.1377 953.3594,851.4033 Q953.625,851.6533 953.625,851.9971 Q953.625,852.3408 953.2813,852.7471 Q952.7813,853.3252 951.9844,853.6533 Q950.9063,854.1064 949.6094,854.1064 Q948.0938,854.1064 946.8906,853.4814 Q945.9063,852.9814 945.2188,851.9189 Q944.5313,850.8408 944.5313,849.5596 L944.5313,848.4033 Q944.5313,847.0752 945.1406,845.9346 Q945.7656,844.7783 946.8594,844.1689 Q947.9531,843.5439 949.1875,843.5439 Q949.9219,843.5439 950.5625,843.7158 Q951.2188,843.8721 951.7656,844.2314 Z " fill="#000000"/><text fill="#000000" font-family="sans-serif" font-size="12" lengthAdjust="spacing" textLength="75" x="963" y="853.2666">Classificacao</text><line style="stroke:#A80036;stroke-width:1.5;" x1="935" x2="1040" y1="864.3564" y2="864.3564"/><text fill="#000000" font-family="sans-serif" font-size="11" lengthAdjust="spacing" textLength="64" x="940" y="879.7754">-Integer lugar</text><!--MD5=[aca0f236260d30190baee83e33cc7802]
class ProcessoSeriacao--><rect codeLine="69" fill="#FEFECE" filter="url(#fjrqi2eyh0ld8)" height="53.8359" id="ProcessoSeriacao" style="stroke:#A80036;stroke-width:1.5;" width="134" x="545" y="717.3564"/><ellipse cx="560" cy="733.3564" fill="#ADD1B2" rx="11" ry="11" style="stroke:#A80036;stroke-width:1.0;"/><path d="M562.7656,729.2314 Q562.9219,729.0127 563.1094,728.9033 Q563.2969,728.7939 563.5156,728.7939 Q563.8906,728.7939 564.125,729.0596 Q564.3594,729.3096 564.3594,729.9189 L564.3594,731.3721 Q564.3594,731.9814 564.125,732.2471 Q563.8906,732.5127 563.5156,732.5127 Q563.1719,732.5127 562.9688,732.3096 Q562.7656,732.1221 562.6563,731.6064 Q562.6094,731.2471 562.4219,731.0596 Q562.0938,730.6846 561.4844,730.4658 Q560.875,730.2471 560.25,730.2471 Q559.4844,730.2471 558.8438,730.5752 Q558.2188,730.9033 557.7188,731.6533 Q557.2344,732.4033 557.2344,733.4346 L557.2344,734.5283 Q557.2344,735.7627 558.125,736.5908 Q559.0156,737.4033 560.6094,737.4033 Q561.5469,737.4033 562.2031,737.1533 Q562.5938,736.9971 563.0156,736.5596 Q563.2813,736.2939 563.4219,736.2158 Q563.5781,736.1377 563.7813,736.1377 Q564.1094,736.1377 564.3594,736.4033 Q564.625,736.6533 564.625,736.9971 Q564.625,737.3408 564.2813,737.7471 Q563.7813,738.3252 562.9844,738.6533 Q561.9063,739.1064 560.6094,739.1064 Q559.0938,739.1064 557.8906,738.4814 Q556.9063,737.9814 556.2188,736.9189 Q555.5313,735.8408 555.5313,734.5596 L555.5313,733.4033 Q555.5313,732.0752 556.1406,730.9346 Q556.7656,729.7783 557.8594,729.1689 Q558.9531,728.5439 560.1875,728.5439 Q560.9219,728.5439 561.5625,728.7158 Q562.2188,728.8721 562.7656,729.2314 Z " fill="#000000"/><text fill="#000000" font-family="sans-serif" font-size="12" lengthAdjust="spacing" textLength="102" x="574" y="738.2666">ProcessoSeriacao</text><line style="stroke:#A80036;stroke-width:1.5;" x1="546" x2="678" y1="749.3564" y2="749.3564"/><text fill="#000000" font-family="sans-serif" font-size="11" lengthAdjust="spacing" textLength="103" x="551" y="764.7754">-Date dataRealizacao</text><!--MD5=[dcda844062f930f807532403427d3023]
class EnderecoPostal--><rect fill="#FEFECE" filter="url(#fjrqi2eyh0ld8)" height="40" id="EnderecoPostal" style="stroke:#A80036;stroke-width:1.5;" width="120" x="552" y="236.3564"/><ellipse cx="567" cy="252.3564" fill="#ADD1B2" rx="11" ry="11" style="stroke:#A80036;stroke-width:1.0;"/><path d="M569.7656,248.2314 Q569.9219,248.0127 570.1094,247.9033 Q570.2969,247.7939 570.5156,247.7939 Q570.8906,247.7939 571.125,248.0596 Q571.3594,248.3096 571.3594,248.9189 L571.3594,250.3721 Q571.3594,250.9814 571.125,251.2471 Q570.8906,251.5127 570.5156,251.5127 Q570.1719,251.5127 569.9688,251.3096 Q569.7656,251.1221 569.6563,250.6064 Q569.6094,250.2471 569.4219,250.0596 Q569.0938,249.6846 568.4844,249.4658 Q567.875,249.2471 567.25,249.2471 Q566.4844,249.2471 565.8438,249.5752 Q565.2188,249.9033 564.7188,250.6533 Q564.2344,251.4033 564.2344,252.4346 L564.2344,253.5283 Q564.2344,254.7627 565.125,255.5908 Q566.0156,256.4033 567.6094,256.4033 Q568.5469,256.4033 569.2031,256.1533 Q569.5938,255.9971 570.0156,255.5596 Q570.2813,255.2939 570.4219,255.2158 Q570.5781,255.1377 570.7813,255.1377 Q571.1094,255.1377 571.3594,255.4033 Q571.625,255.6533 571.625,255.9971 Q571.625,256.3408 571.2813,256.7471 Q570.7813,257.3252 569.9844,257.6533 Q568.9063,258.1064 567.6094,258.1064 Q566.0938,258.1064 564.8906,257.4814 Q563.9063,256.9814 563.2188,255.9189 Q562.5313,254.8408 562.5313,253.5596 L562.5313,252.4033 Q562.5313,251.0752 563.1406,249.9346 Q563.7656,248.7783 564.8594,248.1689 Q565.9531,247.5439 567.1875,247.5439 Q567.9219,247.5439 568.5625,247.7158 Q569.2188,247.8721 569.7656,248.2314 Z " fill="#000000"/><text fill="#000000" font-family="sans-serif" font-size="12" lengthAdjust="spacing" textLength="88" x="581" y="257.2666">EnderecoPostal</text><line style="stroke:#A80036;stroke-width:1.5;" x1="553" x2="671" y1="268.3564" y2="268.3564"/><!--MD5=[567db691f9836c63f305bad1024cbc66]
link Organizacao to Colaborador--><path codeLine="74" d="M374.8,280.4664 C388.83,270.5764 404.51,260.7164 420,253.3564 C524.91,203.4964 564.81,197.0664 679,218.3564 C782.05,237.5664 806.07,254.8564 899,303.3564 C911.67,309.9664 924.74,318.0264 936.79,326.0364 " fill="none" id="Organizacao-Colaborador" style="stroke:#A80036;stroke-width:1.0;"/><polygon fill="#000000" points="603.4836,198.9363,594.7057,195.276,594.2306,201.1346,603.4836,198.9363" style="stroke:#000000;stroke-width:1.0;"/><text fill="#000000" font-family="sans-serif" font-size="13" lengthAdjust="spacing" textLength="22" x="607.5" y="203.8516">tem</text><text fill="#000000" font-family="sans-serif" font-size="13" lengthAdjust="spacing" textLength="7" x="382.4359" y="289.4891">1</text><text fill="#000000" font-family="sans-serif" font-size="13" lengthAdjust="spacing" textLength="20" x="909.0115" y="335.9036">1..*</text><!--MD5=[567db691f9836c63f305bad1024cbc66]
link Organizacao to Colaborador--><path codeLine="75" d="M374.72,323.5164 C497.46,331.3064 813.78,351.3864 936.66,359.1964 " fill="none" id="Organizacao-Colaborador-1" style="stroke:#A80036;stroke-width:1.0;"/><polygon fill="#000000" points="583.49,326.8491,574.6493,323.3429,574.2768,329.2089,583.49,326.8491" style="stroke:#000000;stroke-width:1.0;"/><text fill="#000000" font-family="sans-serif" font-size="13" lengthAdjust="spacing" textLength="62" x="587.5" y="331.8516">tem gestor</text><text fill="#000000" font-family="sans-serif" font-size="13" lengthAdjust="spacing" textLength="7" x="382.3447" y="338.593">1</text><text fill="#000000" font-family="sans-serif" font-size="13" lengthAdjust="spacing" textLength="7" x="922.0184" y="373.3727">1</text><!--MD5=[ca49ec1e86bb5e8c049c02c54bfc3088]
link Organizacao to EnderecoPostal--><path codeLine="76" d="M374.82,309.2064 C424.11,298.1764 499.57,281.2964 551.87,269.5864 " fill="none" id="Organizacao-EnderecoPostal" style="stroke:#A80036;stroke-width:1.0;"/><polygon fill="#000000" points="429.8793,269.4403,420.4108,268.5476,421.6943,274.2836,429.8793,269.4403" style="stroke:#000000;stroke-width:1.0;"/><text fill="#000000" font-family="sans-serif" font-size="13" lengthAdjust="spacing" textLength="80" x="434" y="275.8516">localizada em</text><text fill="#000000" font-family="sans-serif" font-size="13" lengthAdjust="spacing" textLength="22" x="382.3543" y="308.8656">0..1</text><text fill="#000000" font-family="sans-serif" font-size="13" lengthAdjust="spacing" textLength="7" x="537.1151" y="285.6904">1</text><!--MD5=[cf2deab2ed1f09cef5b70f58ef028e55]
link Organizacao to Tarefa--><path codeLine="77" d="M374.57,349.8164 C389,357.8864 404.93,366.3464 420,373.3564 C460.94,392.4064 473.95,390.5664 515,409.3564 C528.96,415.7464 543.7,423.2964 557.32,430.6364 " fill="none" id="Organizacao-Tarefa" style="stroke:#A80036;stroke-width:1.0;"/><polygon fill="#000000" points="450.5728,366.5545,443.4892,360.2083,441.1119,365.584,450.5728,366.5545" style="stroke:#000000;stroke-width:1.0;"/><text fill="#000000" font-family="sans-serif" font-size="13" lengthAdjust="spacing" textLength="38" x="455" y="369.8516">possui</text><text fill="#000000" font-family="sans-serif" font-size="13" lengthAdjust="spacing" textLength="7" x="382.5115" y="368.8261">1</text><text fill="#000000" font-family="sans-serif" font-size="13" lengthAdjust="spacing" textLength="5" x="544.6364" y="441.1011">*</text><!--MD5=[ebe0b2adceebb6ee2636cb1948c7c8a9]
link Tarefa to Colaborador--><path codeLine="79" d="M666.51,447.1764 C738.83,428.0064 866.75,394.0964 936.96,375.4864 " fill="none" id="Tarefa-Colaborador" style="stroke:#A80036;stroke-width:1.0;"/><polygon fill="#000000" points="759.3331,376.2511,749.8369,375.7279,751.343,381.4095,759.3331,376.2511" style="stroke:#000000;stroke-width:1.0;"/><text fill="#000000" font-family="sans-serif" font-size="13" lengthAdjust="spacing" textLength="94" x="763.5" y="382.8516">especificada por</text><text fill="#000000" font-family="sans-serif" font-size="13" lengthAdjust="spacing" textLength="5" x="674.527" y="459.8261">*</text><text fill="#000000" font-family="sans-serif" font-size="13" lengthAdjust="spacing" textLength="7" x="922.0229" y="392.0856">1</text><!--MD5=[439a6ad1de0b5aa57a973cae1bf36ce5]
link Anuncio to Tarefa--><path codeLine="82" d="M390.15,580.7364 C400.06,575.7064 410.23,570.7564 420,566.3564 C461.17,547.8064 475.22,551.7164 515,530.3564 C529.29,522.6864 543.9,513.1764 557.27,503.6964 " fill="none" id="Anuncio-Tarefa" style="stroke:#A80036;stroke-width:1.0;"/><polygon fill="#000000" points="445.5408,519.439,436.0961,520.5567,438.5568,525.8947,445.5408,519.439" style="stroke:#000000;stroke-width:1.0;"/><text fill="#000000" font-family="sans-serif" font-size="13" lengthAdjust="spacing" textLength="48" x="450" y="526.8516">publicita</text><text fill="#000000" font-family="sans-serif" font-size="13" lengthAdjust="spacing" textLength="22" x="398.1061" y="591.4006">0..1</text><text fill="#000000" font-family="sans-serif" font-size="13" lengthAdjust="spacing" textLength="7" x="542.4453" y="523.9786">1</text><!--MD5=[439a6ad1de0b5aa57a973cae1bf36ce5]
link Anuncio to Tarefa--><path codeLine="83" d="M367.83,554.8464 C382.56,537.5764 400.36,520.2764 420,508.3564 C462.04,482.8464 517.22,471.1664 557.45,465.8264 " fill="none" id="Anuncio-Tarefa-1" style="stroke:#A80036;stroke-width:1.0;"/><polygon fill="#000000" points="431.974,466.657,441.4106,465.4736,438.9127,460.1529,431.974,466.657" style="stroke:#000000;stroke-width:1.0;"/><text fill="#000000" font-family="sans-serif" font-size="13" lengthAdjust="spacing" textLength="57" x="445.5" y="469.8516">d치 origem</text><text fill="#000000" font-family="sans-serif" font-size="13" lengthAdjust="spacing" textLength="22" x="349.8312" y="543.8905">0..1</text><text fill="#000000" font-family="sans-serif" font-size="13" lengthAdjust="spacing" textLength="7" x="542.6495" y="481.0198">1</text><!--MD5=[3fb03004f687adcfc695220fdd65ad26]
link Anuncio to TipoRegimento--><path codeLine="84" d="M361.96,677.8964 C377.79,700.7464 397.77,725.6464 420,744.3564 C467.6,784.4164 484.47,792.9664 545,807.3564 C680.21,839.5064 843.89,802.5864 928.92,777.9164 " fill="none" id="Anuncio-TipoRegimento" style="stroke:#A80036;stroke-width:1.0;"/><polygon fill="#000000" points="581.924,799.4009,573.527,794.9352,572.5058,800.7237,581.924,799.4009" style="stroke:#000000;stroke-width:1.0;"/><text fill="#000000" font-family="sans-serif" font-size="13" lengthAdjust="spacing" textLength="65" x="586" y="803.8516">rege-se por</text><text fill="#000000" font-family="sans-serif" font-size="13" lengthAdjust="spacing" textLength="5" x="361.0601" y="699.4515">*</text><text fill="#000000" font-family="sans-serif" font-size="13" lengthAdjust="spacing" textLength="7" x="913.966" y="794.8581">1</text><!--MD5=[0a535575571876f6213287bf563a867d]
link Anuncio to Colaborador--><path codeLine="85" d="M390.11,611.9364 C462.28,605.6164 581.38,590.9264 679,558.3564 C783.66,523.4364 808.84,506.9464 899,443.3564 C912.87,433.5764 926.83,421.7464 939.41,410.1864 " fill="none" id="Anuncio-Colaborador" style="stroke:#A80036;stroke-width:1.0;"/><polygon fill="#000000" points="575.6934,547.8084,566.1897,548.1681,568.2162,553.6856,575.6934,547.8084" style="stroke:#000000;stroke-width:1.0;"/><text fill="#000000" font-family="sans-serif" font-size="13" lengthAdjust="spacing" textLength="77" x="580" y="554.8516">publicado por</text><text fill="#000000" font-family="sans-serif" font-size="13" lengthAdjust="spacing" textLength="5" x="398.043" y="625.8649">*</text><text fill="#000000" font-family="sans-serif" font-size="13" lengthAdjust="spacing" textLength="7" x="925.1552" y="431.5332">1</text><!--MD5=[27b52c98fcb5387c047ce09b42fcb62d]
link Anuncio to Candidatura--><path codeLine="86" d="M390.26,628.5964 C466.42,642.2064 596.31,663.3264 709,671.3564 C793.23,677.3564 814.56,672.2064 899,671.3564 C997.83,670.3564 1112.51,667.7564 1181.87,666.0164 " fill="none" id="Anuncio-Candidatura" style="stroke:#A80036;stroke-width:1.0;"/><polygon fill="#000000" points="786.9944,662.7683,778.0982,659.4056,777.8207,665.2769,786.9944,662.7683" style="stroke:#000000;stroke-width:1.0;"/><text fill="#000000" font-family="sans-serif" font-size="13" lengthAdjust="spacing" textLength="39" x="791" y="667.8516">recebe</text><text fill="#000000" font-family="sans-serif" font-size="13" lengthAdjust="spacing" textLength="7" x="397.89" y="644.3237">1</text><text fill="#000000" font-family="sans-serif" font-size="13" lengthAdjust="spacing" textLength="5" x="1169.1659" y="680.6384">*</text><!--MD5=[02d330b3691aaed85c2b7230cc23c1df]
link Anuncio to ProcessoSeriacao--><path codeLine="87" d="M377.9,677.8964 C390.61,689.5564 404.91,700.5464 420,708.3564 C458.5,728.2964 506.48,737.2864 544.71,741.2964 " fill="none" id="Anuncio-ProcessoSeriacao" style="stroke:#A80036;stroke-width:1.0;"/><polygon fill="#000000" points="445.1738,701.3086,437.7629,695.3479,435.6747,700.8423,445.1738,701.3086" style="stroke:#000000;stroke-width:1.0;"/><text fill="#000000" font-family="sans-serif" font-size="13" lengthAdjust="spacing" textLength="49" x="449.5" y="704.8516">espoleta</text><text fill="#000000" font-family="sans-serif" font-size="13" lengthAdjust="spacing" textLength="7" x="376.7275" y="699.4515">1</text><text fill="#000000" font-family="sans-serif" font-size="13" lengthAdjust="spacing" textLength="22" x="515.0033" y="755.3032">0..1</text><!--MD5=[a66e767a4304f5fa76db98d7839a7a61]
link Candidatura to Freelancer--><path codeLine="89" d="M1290.8,609.7064 C1339.88,548.4864 1418.66,450.1964 1465.32,391.9864 " fill="none" id="Candidatura-Freelancer" style="stroke:#A80036;stroke-width:1.0;"/><polygon fill="#000000" points="1348.1272,426.6309,1340.1769,431.8503,1344.7632,435.5266,1348.1272,426.6309" style="stroke:#000000;stroke-width:1.0;"/><text fill="#000000" font-family="sans-serif" font-size="13" lengthAdjust="spacing" textLength="74" x="1354" y="435.8516">realizada por</text><text fill="#000000" font-family="sans-serif" font-size="13" lengthAdjust="spacing" textLength="5" x="1291.2197" y="599.1855">*</text><text fill="#000000" font-family="sans-serif" font-size="13" lengthAdjust="spacing" textLength="7" x="1452.0514" y="413.6528">1</text><!--MD5=[577fefe1351fe0f89ea5388d9641a019]
link ProcessoSeriacao to TipoRegimento--><path codeLine="91" d="M679.34,747.0164 C750.2,749.8664 861.36,754.3264 928.74,757.0364 " fill="none" id="ProcessoSeriacao-TipoRegimento" style="stroke:#A80036;stroke-width:1.0;"/><polygon fill="#000000" points="718.996,739.7329,710.0762,736.4333,709.8402,742.3064,718.996,739.7329" style="stroke:#000000;stroke-width:1.0;"/><text fill="#000000" font-family="sans-serif" font-size="13" lengthAdjust="spacing" textLength="175" x="723" y="744.8516">decorre em concord칙ncia com</text><text fill="#000000" font-family="sans-serif" font-size="13" lengthAdjust="spacing" textLength="5" x="686.9788" y="761.7057">*</text><text fill="#000000" font-family="sans-serif" font-size="13" lengthAdjust="spacing" textLength="7" x="914.1521" y="771.2652">1</text><!--MD5=[d8cba5363504d1c2665cc78c5e9b9c32]
link ProcessoSeriacao to Colaborador--><path codeLine="92" d="M631.79,717.1564 C649.12,694.2764 676.96,662.6164 709,645.3564 C784.67,604.6064 833.75,665.2964 899,609.3564 C957.71,559.0164 977.03,466.6164 983.39,410.2064 " fill="none" id="ProcessoSeriacao-Colaborador" style="stroke:#A80036;stroke-width:1.0;"/><polygon fill="#000000" points="768.2666,597.244,759.52,600.9785,763.3856,605.4064,768.2666,597.244" style="stroke:#000000;stroke-width:1.0;"/><text fill="#000000" font-family="sans-serif" font-size="13" lengthAdjust="spacing" textLength="74" x="773.5" y="605.8516">realizado por</text><text fill="#000000" font-family="sans-serif" font-size="13" lengthAdjust="spacing" textLength="7" x="628.5571" y="706.5712">1</text><text fill="#000000" font-family="sans-serif" font-size="13" lengthAdjust="spacing" textLength="20" x="961.4058" y="431.556">1..*</text><!--MD5=[52bd50d7906bad09d4dfcc260d1229dc]
link ProcessoSeriacao to Classificacao--><path codeLine="93" d="M679.07,770.7464 C689.04,774.4664 699.25,778.1164 709,781.3564 C786.41,807.0864 877.74,831.6764 933.89,846.1464 " fill="none" id="ProcessoSeriacao-Classificacao" style="stroke:#A80036;stroke-width:1.0;"/><polygon fill="#000000" points="786.7945,773.9509,778.955,768.5664,777.2873,774.2026,786.7945,773.9509" style="stroke:#000000;stroke-width:1.0;"/><text fill="#000000" font-family="sans-serif" font-size="13" lengthAdjust="spacing" textLength="39" x="791" y="777.8516">resulta</text><text fill="#000000" font-family="sans-serif" font-size="13" lengthAdjust="spacing" textLength="7" x="686.7886" y="788.0312">1</text><text fill="#000000" font-family="sans-serif" font-size="13" lengthAdjust="spacing" textLength="5" x="920.9995" y="858.9452">*</text><!--MD5=[471b8c6ff5fcf31b4b6fb9b4f947344d]
link Classificacao to Candidatura--><path codeLine="95" d="M1024.17,832.2464 C1064.84,801.3164 1132.13,750.1664 1181.75,712.4364 " fill="none" id="Classificacao-Candidatura" style="stroke:#A80036;stroke-width:1.0;"/><polygon fill="#000000" points="1084.9802,726.506,1076.0012,729.641,1079.5587,734.32,1084.9802,726.506" style="stroke:#000000;stroke-width:1.0;"/><text fill="#000000" font-family="sans-serif" font-size="13" lengthAdjust="spacing" textLength="61" x="1090" y="734.8516">referente a</text><text fill="#000000" font-family="sans-serif" font-size="13" lengthAdjust="spacing" textLength="22" x="1008.1062" y="821.682">0..1</text><text fill="#000000" font-family="sans-serif" font-size="13" lengthAdjust="spacing" textLength="7" x="1166.9164" y="732.4257">1</text><!--MD5=[4799b104019d5be9e7bdd5e788726252]
link Atribuicao to Tarefa--><path codeLine="97" d="M132.02,386.9064 C168.55,394.1764 215.83,403.2664 258,410.3564 C363.79,428.1464 488.07,445.2164 557.36,454.3864 " fill="none" id="Atribuicao-Tarefa" style="stroke:#A80036;stroke-width:1.0;"/><polygon fill="#000000" points="276.4382,402.3157,267.9654,397.9958,267.0444,403.801,276.4382,402.3157" style="stroke:#000000;stroke-width:1.0;"/><text fill="#000000" font-family="sans-serif" font-size="13" lengthAdjust="spacing" textLength="100" x="280.5" y="406.8516">atribui Freelancer</text><text fill="#000000" font-family="sans-serif" font-size="13" lengthAdjust="spacing" textLength="7" x="140.0662" y="402.9066">1</text><text fill="#000000" font-family="sans-serif" font-size="13" lengthAdjust="spacing" textLength="7" x="542.5474" y="468.0425">1</text><!--MD5=[5595a1d83baea6f3d7f91f347997037b]
link Atribuicao to Freelancer--><path codeLine="98" d="M81.13,326.7864 C105.62,231.0964 175.58,24.3564 323,24.3564 C323,24.3564 323,24.3564 1247,24.3564 C1384.95,24.3564 1461.01,207.6564 1489.85,296.7964 " fill="none" id="Atribuicao-Freelancer" style="stroke:#A80036;stroke-width:1.0;"/><polygon fill="#000000" points="776.5011,15.6386,785.6067,18.3844,785.4816,12.5079,776.5011,15.6386" style="stroke:#000000;stroke-width:1.0;"/><text fill="#000000" font-family="sans-serif" font-size="13" lengthAdjust="spacing" textLength="40" x="790.5" y="20.8516">alvo de</text><text fill="#000000" font-family="sans-serif" font-size="13" lengthAdjust="spacing" textLength="7" x="75.3241" y="316.1203">1</text><text fill="#000000" font-family="sans-serif" font-size="13" lengthAdjust="spacing" textLength="7" x="1480.1842" y="286.1318">1</text><!--MD5=[e869cc0d3a63e73c6cff7ccde39a9dc7]
link Atribuicao to Organizacao--><path codeLine="99" d="M132.27,361.1464 C175.63,351.8764 232.87,339.6364 273.29,330.9864 " fill="none" id="Atribuicao-Organizacao" style="stroke:#A80036;stroke-width:1.0;"/><polygon fill="#000000" points="162.1106,333.5779,171.5703,334.5602,170.341,328.8123,162.1106,333.5779" style="stroke:#000000;stroke-width:1.0;"/><text fill="#000000" font-family="sans-serif" font-size="13" lengthAdjust="spacing" textLength="51" x="176" y="337.8516">envolvida</text><text fill="#000000" font-family="sans-serif" font-size="13" lengthAdjust="spacing" textLength="7" x="139.9325" y="374.0396">1</text><text fill="#000000" font-family="sans-serif" font-size="13" lengthAdjust="spacing" textLength="7" x="258.6667" y="347.1135">1</text><!--MD5=[ff35e8ae462982209c2a8f9b6cdfc692]
link Atribuicao to Colaborador--><path codeLine="100" d="M129.37,326.8064 C164.8,300.2964 211.86,268.6264 258,248.3564 C377.92,195.6664 414.81,195.7564 545,181.3564 C703.39,163.8364 767.92,147.7264 899,238.3564 C926.74,257.5364 948.62,288.5364 963.56,314.7364 " fill="none" id="Atribuicao-Colaborador" style="stroke:#A80036;stroke-width:1.0;"/><polygon fill="#000000" points="437.0005,176.6046,446.0872,179.4123,446.0021,173.5351,437.0005,176.6046" style="stroke:#000000;stroke-width:1.0;"/><text fill="#000000" font-family="sans-serif" font-size="13" lengthAdjust="spacing" textLength="46" x="451" y="181.8516">executa</text><text fill="#000000" font-family="sans-serif" font-size="13" lengthAdjust="spacing" textLength="7" x="130.6493" y="316.1432">1</text><text fill="#000000" font-family="sans-serif" font-size="13" lengthAdjust="spacing" textLength="7" x="952.5297" y="304.0629">1</text><!--MD5=[77683afdd0955016301cccae592abdd0]
link Atribuicao to ProcessoSeriacao--><path codeLine="101" d="M82.55,422.0864 C104.13,497.0964 156.89,641.4264 258,713.3564 C342.34,773.3564 468.3,767.8864 544.74,757.0764 " fill="none" id="Atribuicao-ProcessoSeriacao" style="stroke:#A80036;stroke-width:1.0;"/><polygon fill="#000000" points="286.9515,701.5979,292.5505,709.2857,296,704.5265,286.9515,701.5979" style="stroke:#000000;stroke-width:1.0;"/><text fill="#000000" font-family="sans-serif" font-size="13" lengthAdjust="spacing" textLength="61" x="300" y="709.8516">resulta em</text><text fill="#000000" font-family="sans-serif" font-size="13" lengthAdjust="spacing" textLength="7" x="76.9527" y="443.7675">1</text><text fill="#000000" font-family="sans-serif" font-size="13" lengthAdjust="spacing" textLength="7" x="530.0006" y="772.866">1</text><!--MD5=[a5f4c1e30fcded11c110951548067ad0]
link Atribuicao to Classificacao--><path codeLine="102" d="M74.53,421.9264 C82.14,488.3764 103.55,610.3664 162,695.3564 C192.22,739.2964 211.03,742.0864 258,767.3564 C485.05,889.5264 808.04,876.0864 933.67,865.0464 " fill="none" id="Atribuicao-Classificacao" style="stroke:#A80036;stroke-width:1.0;"/><polygon fill="#000000" points="439.4438,823.8242,432.7521,817.066,430.0577,822.29,439.4438,823.8242" style="stroke:#000000;stroke-width:1.0;"/><text fill="#000000" font-family="sans-serif" font-size="13" lengthAdjust="spacing" textLength="60" x="444" y="826.8516">obedece a</text><text fill="#000000" font-family="sans-serif" font-size="13" lengthAdjust="spacing" textLength="7" x="67.7547" y="443.584">1</text><text fill="#000000" font-family="sans-serif" font-size="13" lengthAdjust="spacing" textLength="7" x="918.9663" y="880.4158">1</text><!--MD5=[9dcf2e8ef1abe5d4e0b714d987e043e4]
@startuml
skinparam classAttributeIconSize 0
hide methods
left to right direction

class Organizacao {
  -String nome
  -String NIF
  -String website
  -String telefone
  -String email
}

class Colaborador {
  -String nome
  -String funcao
  -String telefone
  -String email
}

class Tarefa {
  -String referencia
  -String designacao
  -String descInformal
  -String descTecnica
  -Integer duracaoEst
  -Double custoEst
}

class TipoRegimento {
    -String designacao
    -String descRegras
}

class Freelancer {
    -String nome
    -String nif
    -String telefone
    -String email
}

class Atribuicao {
    -Date dataInicio
    -Date dataFim
    -Integer valor
    -Integer numSequencial
}

class Anuncio {
    -Date dtInicioPublicitacao
    -Date dtFimPublicitacao
    -Date dtInicioCandidatura
    -Date dtFimCandidatura
    -Date dtInicioSeriacao
    -Date dtFimSeriacao
}

class Candidatura {
    -Date dataCandidatura
    -Double valorPretendido
    -Integer nrDias
    -String txtApresentacao
    -String txtMotivacao
}

class Classificacao {
    -Integer lugar
}

class ProcessoSeriacao {
    -Date dataRealizacao
}


Organizacao "1" - - "1..*" Colaborador: tem >
Organizacao "1" - - "1" Colaborador: tem gestor >
Organizacao "0..1" - - "1" EnderecoPostal: localizada em >
Organizacao "1" - - "*" Tarefa: possui >

Tarefa "*" - - "1" Colaborador: especificada por >


Anuncio "0..1" - - "1" Tarefa: publicita >
Anuncio "0..1" - - "1" Tarefa: d치 origem <
Anuncio "*" - - "1" TipoRegimento: rege-se por >
Anuncio "*" - - "1" Colaborador: publicado por >
Anuncio "1" - - "*" Candidatura: recebe >
Anuncio "1" - - "0..1" ProcessoSeriacao: espoleta >

Candidatura "*" - - "1"  Freelancer: realizada por >

ProcessoSeriacao "*" - - "1" TipoRegimento: decorre em concord칙ncia com >
ProcessoSeriacao "1" - - "1..*" Colaborador: realizado por >
ProcessoSeriacao "1" - - "*" Classificacao: resulta >

Classificacao "0..1" - - "1" Candidatura: referente a >

Atribuicao "1" - - "1" Tarefa : atribui Freelancer >
Atribuicao "1" - - "1" Freelancer : alvo de <
Atribuicao "1" - - "1" Organizacao : envolvida <
Atribuicao "1" - - "1" Colaborador : executa <
Atribuicao "1" - - "1" ProcessoSeriacao : resulta em <
Atribuicao "1" - - "1" Classificacao : obedece a > 


@enduml

PlantUML version 1.2021.00(Sun Jan 10 10:25:05 WET 2021)
(GPL source distribution)
Java Runtime: Java(TM) SE Runtime Environment
JVM: Java HotSpot(TM) 64-Bit Server VM
Default Encoding: Cp1252
Language: pt
Country: PT
--></g></svg>