<?xml version="1.0" encoding="UTF-8" standalone="no"?><svg xmlns="http://www.w3.org/2000/svg" xmlns:xlink="http://www.w3.org/1999/xlink" contentScriptType="application/ecmascript" contentStyleType="text/css" height="718px" preserveAspectRatio="none" style="width:1430px;height:718px;" version="1.1" viewBox="0 0 1430 718" width="1430px" zoomAndPan="magnify"><defs><filter height="300%" id="f1r8mc86bbudp1" width="300%" x="-1" y="-1"><feGaussianBlur result="blurOut" stdDeviation="2.0"/><feColorMatrix in="blurOut" result="blurOut2" type="matrix" values="0 0 0 0 0 0 0 0 0 0 0 0 0 0 0 0 0 0 .4 0"/><feOffset dx="4.0" dy="4.0" in="blurOut2" result="blurOut3"/><feBlend in="SourceGraphic" in2="blurOut3" mode="normal"/></filter></defs><g><!--MD5=[a322db5a7ec64d2ff8f2d6cf1831dcec]
class CompetenciaTecnica--><rect codeLine="4" fill="#FEFECE" filter="url(#f1r8mc86bbudp1)" height="103.3438" id="CompetenciaTecnica" style="stroke:#A80036;stroke-width:1.5;" width="405" x="7" y="434"/><ellipse cx="146.75" cy="450" fill="#ADD1B2" rx="11" ry="11" style="stroke:#A80036;stroke-width:1.0;"/><path d="M149.5156,445.875 Q149.6719,445.6563 149.8594,445.5469 Q150.0469,445.4375 150.2656,445.4375 Q150.6406,445.4375 150.875,445.7031 Q151.1094,445.9531 151.1094,446.5625 L151.1094,448.0156 Q151.1094,448.625 150.875,448.8906 Q150.6406,449.1563 150.2656,449.1563 Q149.9219,449.1563 149.7188,448.9531 Q149.5156,448.7656 149.4063,448.25 Q149.3594,447.8906 149.1719,447.7031 Q148.8438,447.3281 148.2344,447.1094 Q147.625,446.8906 147,446.8906 Q146.2344,446.8906 145.5938,447.2188 Q144.9688,447.5469 144.4688,448.2969 Q143.9844,449.0469 143.9844,450.0781 L143.9844,451.1719 Q143.9844,452.4063 144.875,453.2344 Q145.7656,454.0469 147.3594,454.0469 Q148.2969,454.0469 148.9531,453.7969 Q149.3438,453.6406 149.7656,453.2031 Q150.0313,452.9375 150.1719,452.8594 Q150.3281,452.7813 150.5313,452.7813 Q150.8594,452.7813 151.1094,453.0469 Q151.375,453.2969 151.375,453.6406 Q151.375,453.9844 151.0313,454.3906 Q150.5313,454.9688 149.7344,455.2969 Q148.6563,455.75 147.3594,455.75 Q145.8438,455.75 144.6406,455.125 Q143.6563,454.625 142.9688,453.5625 Q142.2813,452.4844 142.2813,451.2031 L142.2813,450.0469 Q142.2813,448.7188 142.8906,447.5781 Q143.5156,446.4219 144.6094,445.8125 Q145.7031,445.1875 146.9375,445.1875 Q147.6719,445.1875 148.3125,445.3594 Q148.9688,445.5156 149.5156,445.875 Z " fill="#000000"/><text fill="#000000" font-family="sans-serif" font-size="12" lengthAdjust="spacing" textLength="117" x="167.25" y="454.9102">CompetenciaTecnica</text><line style="stroke:#A80036;stroke-width:1.5;" x1="8" x2="411" y1="466" y2="466"/><text fill="#000000" font-family="sans-serif" font-size="11" lengthAdjust="spacing" textLength="67" x="13" y="481.4189">-String codigo</text><text fill="#000000" font-family="sans-serif" font-size="11" lengthAdjust="spacing" textLength="88" x="13" y="495.2549">-String descBreve</text><text fill="#000000" font-family="sans-serif" font-size="11" lengthAdjust="spacing" textLength="107" x="13" y="509.0908">-String descDetalhada</text><line style="stroke:#A80036;stroke-width:1.5;" x1="8" x2="411" y1="515.5078" y2="515.5078"/><text fill="#000000" font-family="sans-serif" font-size="11" lengthAdjust="spacing" textLength="393" x="13" y="530.9268">+CompetenciaTecnica(String cod, String dsBreve, String dsDet, AreaAtividade at)</text><!--MD5=[0d4fe674cc1d46ec0fc990086e50801a]
class GrauProficiencia--><rect codeLine="11" fill="#FEFECE" filter="url(#f1r8mc86bbudp1)" height="89.5078" id="GrauProficiencia" style="stroke:#A80036;stroke-width:1.5;" width="254" x="313.5" y="615"/><ellipse cx="390.75" cy="631" fill="#ADD1B2" rx="11" ry="11" style="stroke:#A80036;stroke-width:1.0;"/><path d="M393.5156,626.875 Q393.6719,626.6563 393.8594,626.5469 Q394.0469,626.4375 394.2656,626.4375 Q394.6406,626.4375 394.875,626.7031 Q395.1094,626.9531 395.1094,627.5625 L395.1094,629.0156 Q395.1094,629.625 394.875,629.8906 Q394.6406,630.1563 394.2656,630.1563 Q393.9219,630.1563 393.7188,629.9531 Q393.5156,629.7656 393.4063,629.25 Q393.3594,628.8906 393.1719,628.7031 Q392.8438,628.3281 392.2344,628.1094 Q391.625,627.8906 391,627.8906 Q390.2344,627.8906 389.5938,628.2188 Q388.9688,628.5469 388.4688,629.2969 Q387.9844,630.0469 387.9844,631.0781 L387.9844,632.1719 Q387.9844,633.4063 388.875,634.2344 Q389.7656,635.0469 391.3594,635.0469 Q392.2969,635.0469 392.9531,634.7969 Q393.3438,634.6406 393.7656,634.2031 Q394.0313,633.9375 394.1719,633.8594 Q394.3281,633.7813 394.5313,633.7813 Q394.8594,633.7813 395.1094,634.0469 Q395.375,634.2969 395.375,634.6406 Q395.375,634.9844 395.0313,635.3906 Q394.5313,635.9688 393.7344,636.2969 Q392.6563,636.75 391.3594,636.75 Q389.8438,636.75 388.6406,636.125 Q387.6563,635.625 386.9688,634.5625 Q386.2813,633.4844 386.2813,632.2031 L386.2813,631.0469 Q386.2813,629.7188 386.8906,628.5781 Q387.5156,627.4219 388.6094,626.8125 Q389.7031,626.1875 390.9375,626.1875 Q391.6719,626.1875 392.3125,626.3594 Q392.9688,626.5156 393.5156,626.875 Z " fill="#000000"/><text fill="#000000" font-family="sans-serif" font-size="12" lengthAdjust="spacing" textLength="91" x="411.25" y="635.9102">GrauProficiencia</text><line style="stroke:#A80036;stroke-width:1.5;" x1="314.5" x2="566.5" y1="647" y2="647"/><text fill="#000000" font-family="sans-serif" font-size="11" lengthAdjust="spacing" textLength="91" x="319.5" y="662.4189">-String designacao</text><text fill="#000000" font-family="sans-serif" font-size="11" lengthAdjust="spacing" textLength="59" x="319.5" y="676.2549">-String valor</text><line style="stroke:#A80036;stroke-width:1.5;" x1="314.5" x2="566.5" y1="682.6719" y2="682.6719"/><text fill="#000000" font-family="sans-serif" font-size="11" lengthAdjust="spacing" textLength="242" x="319.5" y="698.0908">+GrauProficiencia(String designacao, String valor)</text><!--MD5=[02456e6632d968d6f68141e5893c6991]
class AreaAtividade--><rect codeLine="17" fill="#FEFECE" filter="url(#f1r8mc86bbudp1)" height="89.5078" id="AreaAtividade" style="stroke:#A80036;stroke-width:1.5;" width="119" x="499" y="440.5"/><ellipse cx="519.85" cy="456.5" fill="#ADD1B2" rx="11" ry="11" style="stroke:#A80036;stroke-width:1.0;"/><path d="M522.6156,452.375 Q522.7719,452.1563 522.9594,452.0469 Q523.1469,451.9375 523.3656,451.9375 Q523.7406,451.9375 523.975,452.2031 Q524.2094,452.4531 524.2094,453.0625 L524.2094,454.5156 Q524.2094,455.125 523.975,455.3906 Q523.7406,455.6563 523.3656,455.6563 Q523.0219,455.6563 522.8188,455.4531 Q522.6156,455.2656 522.5063,454.75 Q522.4594,454.3906 522.2719,454.2031 Q521.9438,453.8281 521.3344,453.6094 Q520.725,453.3906 520.1,453.3906 Q519.3344,453.3906 518.6938,453.7188 Q518.0688,454.0469 517.5688,454.7969 Q517.0844,455.5469 517.0844,456.5781 L517.0844,457.6719 Q517.0844,458.9063 517.975,459.7344 Q518.8656,460.5469 520.4594,460.5469 Q521.3969,460.5469 522.0531,460.2969 Q522.4438,460.1406 522.8656,459.7031 Q523.1313,459.4375 523.2719,459.3594 Q523.4281,459.2813 523.6313,459.2813 Q523.9594,459.2813 524.2094,459.5469 Q524.475,459.7969 524.475,460.1406 Q524.475,460.4844 524.1313,460.8906 Q523.6313,461.4688 522.8344,461.7969 Q521.7563,462.25 520.4594,462.25 Q518.9438,462.25 517.7406,461.625 Q516.7563,461.125 516.0688,460.0625 Q515.3813,458.9844 515.3813,457.7031 L515.3813,456.5469 Q515.3813,455.2188 515.9906,454.0781 Q516.6156,452.9219 517.7094,452.3125 Q518.8031,451.6875 520.0375,451.6875 Q520.7719,451.6875 521.4125,451.8594 Q522.0688,452.0156 522.6156,452.375 Z " fill="#000000"/><text fill="#000000" font-family="sans-serif" font-size="12" lengthAdjust="spacing" textLength="74" x="535.15" y="461.4102">AreaAtividade</text><line style="stroke:#A80036;stroke-width:1.5;" x1="500" x2="617" y1="472.5" y2="472.5"/><text fill="#000000" font-family="sans-serif" font-size="11" lengthAdjust="spacing" textLength="67" x="505" y="487.9189">-String codigo</text><text fill="#000000" font-family="sans-serif" font-size="11" lengthAdjust="spacing" textLength="88" x="505" y="501.7549">-String descBreve</text><text fill="#000000" font-family="sans-serif" font-size="11" lengthAdjust="spacing" textLength="107" x="505" y="515.5908">-String descDetalhada</text><line style="stroke:#A80036;stroke-width:1.5;" x1="500" x2="617" y1="522.0078" y2="522.0078"/><!--MD5=[ecaed46f78f8cfe1e9ce18477649be18]
class Plataforma--><rect codeLine="23" fill="#FEFECE" filter="url(#f1r8mc86bbudp1)" height="48" id="Plataforma" style="stroke:#A80036;stroke-width:1.5;" width="92" x="455.5" y="294"/><ellipse cx="470.5" cy="310" fill="#ADD1B2" rx="11" ry="11" style="stroke:#A80036;stroke-width:1.0;"/><path d="M473.2656,305.875 Q473.4219,305.6563 473.6094,305.5469 Q473.7969,305.4375 474.0156,305.4375 Q474.3906,305.4375 474.625,305.7031 Q474.8594,305.9531 474.8594,306.5625 L474.8594,308.0156 Q474.8594,308.625 474.625,308.8906 Q474.3906,309.1563 474.0156,309.1563 Q473.6719,309.1563 473.4688,308.9531 Q473.2656,308.7656 473.1563,308.25 Q473.1094,307.8906 472.9219,307.7031 Q472.5938,307.3281 471.9844,307.1094 Q471.375,306.8906 470.75,306.8906 Q469.9844,306.8906 469.3438,307.2188 Q468.7188,307.5469 468.2188,308.2969 Q467.7344,309.0469 467.7344,310.0781 L467.7344,311.1719 Q467.7344,312.4063 468.625,313.2344 Q469.5156,314.0469 471.1094,314.0469 Q472.0469,314.0469 472.7031,313.7969 Q473.0938,313.6406 473.5156,313.2031 Q473.7813,312.9375 473.9219,312.8594 Q474.0781,312.7813 474.2813,312.7813 Q474.6094,312.7813 474.8594,313.0469 Q475.125,313.2969 475.125,313.6406 Q475.125,313.9844 474.7813,314.3906 Q474.2813,314.9688 473.4844,315.2969 Q472.4063,315.75 471.1094,315.75 Q469.5938,315.75 468.3906,315.125 Q467.4063,314.625 466.7188,313.5625 Q466.0313,312.4844 466.0313,311.2031 L466.0313,310.0469 Q466.0313,308.7188 466.6406,307.5781 Q467.2656,306.4219 468.3594,305.8125 Q469.4531,305.1875 470.6875,305.1875 Q471.4219,305.1875 472.0625,305.3594 Q472.7188,305.5156 473.2656,305.875 Z " fill="#000000"/><text fill="#000000" font-family="sans-serif" font-size="12" lengthAdjust="spacing" textLength="60" x="484.5" y="314.9102">Plataforma</text><line style="stroke:#A80036;stroke-width:1.5;" x1="456.5" x2="546.5" y1="326" y2="326"/><line style="stroke:#A80036;stroke-width:1.5;" x1="456.5" x2="546.5" y1="334" y2="334"/><!--MD5=[2bcb58b28f72c787398d6393aefd11b3]
class RegistarCompetenciaTecnicaController--><rect codeLine="27" fill="#FEFECE" filter="url(#f1r8mc86bbudp1)" height="103.3438" id="RegistarCompetenciaTecnicaController" style="stroke:#A80036;stroke-width:1.5;" width="443" x="450" y="116"/><ellipse cx="558.25" cy="132" fill="#ADD1B2" rx="11" ry="11" style="stroke:#A80036;stroke-width:1.0;"/><path d="M561.0156,127.875 Q561.1719,127.6563 561.3594,127.5469 Q561.5469,127.4375 561.7656,127.4375 Q562.1406,127.4375 562.375,127.7031 Q562.6094,127.9531 562.6094,128.5625 L562.6094,130.0156 Q562.6094,130.625 562.375,130.8906 Q562.1406,131.1563 561.7656,131.1563 Q561.4219,131.1563 561.2188,130.9531 Q561.0156,130.7656 560.9063,130.25 Q560.8594,129.8906 560.6719,129.7031 Q560.3438,129.3281 559.7344,129.1094 Q559.125,128.8906 558.5,128.8906 Q557.7344,128.8906 557.0938,129.2188 Q556.4688,129.5469 555.9688,130.2969 Q555.4844,131.0469 555.4844,132.0781 L555.4844,133.1719 Q555.4844,134.4063 556.375,135.2344 Q557.2656,136.0469 558.8594,136.0469 Q559.7969,136.0469 560.4531,135.7969 Q560.8438,135.6406 561.2656,135.2031 Q561.5313,134.9375 561.6719,134.8594 Q561.8281,134.7813 562.0313,134.7813 Q562.3594,134.7813 562.6094,135.0469 Q562.875,135.2969 562.875,135.6406 Q562.875,135.9844 562.5313,136.3906 Q562.0313,136.9688 561.2344,137.2969 Q560.1563,137.75 558.8594,137.75 Q557.3438,137.75 556.1406,137.125 Q555.1563,136.625 554.4688,135.5625 Q553.7813,134.4844 553.7813,133.2031 L553.7813,132.0469 Q553.7813,130.7188 554.3906,129.5781 Q555.0156,128.4219 556.1094,127.8125 Q557.2031,127.1875 558.4375,127.1875 Q559.1719,127.1875 559.8125,127.3594 Q560.4688,127.5156 561.0156,127.875 Z " fill="#000000"/><text fill="#000000" font-family="sans-serif" font-size="12" lengthAdjust="spacing" textLength="218" x="578.75" y="136.9102">RegistarCompetenciaTecnicaController</text><line style="stroke:#A80036;stroke-width:1.5;" x1="451" x2="892" y1="148" y2="148"/><line style="stroke:#A80036;stroke-width:1.5;" x1="451" x2="892" y1="156" y2="156"/><text fill="#000000" font-family="sans-serif" font-size="11" lengthAdjust="spacing" textLength="205" x="456" y="171.4189">+List&lt;AreaAtividade&gt; getAreasAtividade()</text><text fill="#000000" font-family="sans-serif" font-size="11" lengthAdjust="spacing" textLength="261" x="456" y="185.2549">+AreaAtividade getAreaAtividadeByCod(String atCod)</text><text fill="#000000" font-family="sans-serif" font-size="11" lengthAdjust="spacing" textLength="431" x="456" y="199.0908">+void registarCompetenciaTecnica(String cod, String dsBreve, String dsDet, String atCod)</text><text fill="#000000" font-family="sans-serif" font-size="11" lengthAdjust="spacing" textLength="302" x="456" y="212.9268">+void registarGrauProficiencia(String designacao, String valor)</text><!--MD5=[21caa84a981f47c0979cad54b0a685f3]
class RegistarCompetenciaTecnicaUI--><rect codeLine="34" fill="#FEFECE" filter="url(#f1r8mc86bbudp1)" height="48" id="RegistarCompetenciaTecnicaUI" style="stroke:#A80036;stroke-width:1.5;" width="208" x="567.5" y="7"/><ellipse cx="582.5" cy="23" fill="#ADD1B2" rx="11" ry="11" style="stroke:#A80036;stroke-width:1.0;"/><path d="M585.2656,18.875 Q585.4219,18.6563 585.6094,18.5469 Q585.7969,18.4375 586.0156,18.4375 Q586.3906,18.4375 586.625,18.7031 Q586.8594,18.9531 586.8594,19.5625 L586.8594,21.0156 Q586.8594,21.625 586.625,21.8906 Q586.3906,22.1563 586.0156,22.1563 Q585.6719,22.1563 585.4688,21.9531 Q585.2656,21.7656 585.1563,21.25 Q585.1094,20.8906 584.9219,20.7031 Q584.5938,20.3281 583.9844,20.1094 Q583.375,19.8906 582.75,19.8906 Q581.9844,19.8906 581.3438,20.2188 Q580.7188,20.5469 580.2188,21.2969 Q579.7344,22.0469 579.7344,23.0781 L579.7344,24.1719 Q579.7344,25.4063 580.625,26.2344 Q581.5156,27.0469 583.1094,27.0469 Q584.0469,27.0469 584.7031,26.7969 Q585.0938,26.6406 585.5156,26.2031 Q585.7813,25.9375 585.9219,25.8594 Q586.0781,25.7813 586.2813,25.7813 Q586.6094,25.7813 586.8594,26.0469 Q587.125,26.2969 587.125,26.6406 Q587.125,26.9844 586.7813,27.3906 Q586.2813,27.9688 585.4844,28.2969 Q584.4063,28.75 583.1094,28.75 Q581.5938,28.75 580.3906,28.125 Q579.4063,27.625 578.7188,26.5625 Q578.0313,25.4844 578.0313,24.2031 L578.0313,23.0469 Q578.0313,21.7188 578.6406,20.5781 Q579.2656,19.4219 580.3594,18.8125 Q581.4531,18.1875 582.6875,18.1875 Q583.4219,18.1875 584.0625,18.3594 Q584.7188,18.5156 585.2656,18.875 Z " fill="#000000"/><text fill="#000000" font-family="sans-serif" font-size="12" lengthAdjust="spacing" textLength="176" x="596.5" y="27.9102">RegistarCompetenciaTecnicaUI</text><line style="stroke:#A80036;stroke-width:1.5;" x1="568.5" x2="774.5" y1="39" y2="39"/><line style="stroke:#A80036;stroke-width:1.5;" x1="568.5" x2="774.5" y1="47" y2="47"/><!--MD5=[b2bc6be73ff598d5a42947aebb885cd7]
class RepositorioAreaAtividadeDB--><rect codeLine="38" fill="#FEFECE" filter="url(#f1r8mc86bbudp1)" height="75.6719" id="RepositorioAreaAtividadeDB" style="stroke:#A80036;stroke-width:1.5;" width="187" x="725" y="280"/><ellipse cx="740" cy="296" fill="#ADD1B2" rx="11" ry="11" style="stroke:#A80036;stroke-width:1.0;"/><path d="M742.7656,291.875 Q742.9219,291.6563 743.1094,291.5469 Q743.2969,291.4375 743.5156,291.4375 Q743.8906,291.4375 744.125,291.7031 Q744.3594,291.9531 744.3594,292.5625 L744.3594,294.0156 Q744.3594,294.625 744.125,294.8906 Q743.8906,295.1563 743.5156,295.1563 Q743.1719,295.1563 742.9688,294.9531 Q742.7656,294.7656 742.6563,294.25 Q742.6094,293.8906 742.4219,293.7031 Q742.0938,293.3281 741.4844,293.1094 Q740.875,292.8906 740.25,292.8906 Q739.4844,292.8906 738.8438,293.2188 Q738.2188,293.5469 737.7188,294.2969 Q737.2344,295.0469 737.2344,296.0781 L737.2344,297.1719 Q737.2344,298.4063 738.125,299.2344 Q739.0156,300.0469 740.6094,300.0469 Q741.5469,300.0469 742.2031,299.7969 Q742.5938,299.6406 743.0156,299.2031 Q743.2813,298.9375 743.4219,298.8594 Q743.5781,298.7813 743.7813,298.7813 Q744.1094,298.7813 744.3594,299.0469 Q744.625,299.2969 744.625,299.6406 Q744.625,299.9844 744.2813,300.3906 Q743.7813,300.9688 742.9844,301.2969 Q741.9063,301.75 740.6094,301.75 Q739.0938,301.75 737.8906,301.125 Q736.9063,300.625 736.2188,299.5625 Q735.5313,298.4844 735.5313,297.2031 L735.5313,296.0469 Q735.5313,294.7188 736.1406,293.5781 Q736.7656,292.4219 737.8594,291.8125 Q738.9531,291.1875 740.1875,291.1875 Q740.9219,291.1875 741.5625,291.3594 Q742.2188,291.5156 742.7656,291.875 Z " fill="#000000"/><text fill="#000000" font-family="sans-serif" font-size="12" lengthAdjust="spacing" textLength="155" x="754" y="300.9102">RepositorioAreaAtividadeDB</text><line style="stroke:#A80036;stroke-width:1.5;" x1="726" x2="911" y1="312" y2="312"/><line style="stroke:#A80036;stroke-width:1.5;" x1="726" x2="911" y1="320" y2="320"/><text fill="#000000" font-family="sans-serif" font-size="11" lengthAdjust="spacing" textLength="41" x="731" y="335.4189">+getAll()</text><text fill="#000000" font-family="sans-serif" font-size="11" lengthAdjust="spacing" textLength="54" x="731" y="349.2549">+find(int id)</text><!--MD5=[e9b5205504548b331b07e34ab799aaa4]
class RepositorioGrauProficienciaDB--><rect codeLine="43" fill="#FEFECE" filter="url(#f1r8mc86bbudp1)" height="61.8359" id="RepositorioGrauProficienciaDB" style="stroke:#A80036;stroke-width:1.5;" width="204" x="947.5" y="287"/><ellipse cx="962.5" cy="303" fill="#ADD1B2" rx="11" ry="11" style="stroke:#A80036;stroke-width:1.0;"/><path d="M965.2656,298.875 Q965.4219,298.6563 965.6094,298.5469 Q965.7969,298.4375 966.0156,298.4375 Q966.3906,298.4375 966.625,298.7031 Q966.8594,298.9531 966.8594,299.5625 L966.8594,301.0156 Q966.8594,301.625 966.625,301.8906 Q966.3906,302.1563 966.0156,302.1563 Q965.6719,302.1563 965.4688,301.9531 Q965.2656,301.7656 965.1563,301.25 Q965.1094,300.8906 964.9219,300.7031 Q964.5938,300.3281 963.9844,300.1094 Q963.375,299.8906 962.75,299.8906 Q961.9844,299.8906 961.3438,300.2188 Q960.7188,300.5469 960.2188,301.2969 Q959.7344,302.0469 959.7344,303.0781 L959.7344,304.1719 Q959.7344,305.4063 960.625,306.2344 Q961.5156,307.0469 963.1094,307.0469 Q964.0469,307.0469 964.7031,306.7969 Q965.0938,306.6406 965.5156,306.2031 Q965.7813,305.9375 965.9219,305.8594 Q966.0781,305.7813 966.2813,305.7813 Q966.6094,305.7813 966.8594,306.0469 Q967.125,306.2969 967.125,306.6406 Q967.125,306.9844 966.7813,307.3906 Q966.2813,307.9688 965.4844,308.2969 Q964.4063,308.75 963.1094,308.75 Q961.5938,308.75 960.3906,308.125 Q959.4063,307.625 958.7188,306.5625 Q958.0313,305.4844 958.0313,304.2031 L958.0313,303.0469 Q958.0313,301.7188 958.6406,300.5781 Q959.2656,299.4219 960.3594,298.8125 Q961.4531,298.1875 962.6875,298.1875 Q963.4219,298.1875 964.0625,298.3594 Q964.7188,298.5156 965.2656,298.875 Z " fill="#000000"/><text fill="#000000" font-family="sans-serif" font-size="12" lengthAdjust="spacing" textLength="172" x="976.5" y="307.9102">RepositorioGrauProficienciaDB</text><line style="stroke:#A80036;stroke-width:1.5;" x1="948.5" x2="1150.5" y1="319" y2="319"/><line style="stroke:#A80036;stroke-width:1.5;" x1="948.5" x2="1150.5" y1="327" y2="327"/><text fill="#000000" font-family="sans-serif" font-size="11" lengthAdjust="spacing" textLength="133" x="953.5" y="342.4189">+save(GrauProficiencia gp)</text><!--MD5=[f182f2701433f99dea056d955082d58f]
class RepositorioCompetenciaTecnicaDB--><rect codeLine="47" fill="#FEFECE" filter="url(#f1r8mc86bbudp1)" height="61.8359" id="RepositorioCompetenciaTecnicaDB" style="stroke:#A80036;stroke-width:1.5;" width="230" x="1186.5" y="287"/><ellipse cx="1201.5" cy="303" fill="#ADD1B2" rx="11" ry="11" style="stroke:#A80036;stroke-width:1.0;"/><path d="M1204.2656,298.875 Q1204.4219,298.6563 1204.6094,298.5469 Q1204.7969,298.4375 1205.0156,298.4375 Q1205.3906,298.4375 1205.625,298.7031 Q1205.8594,298.9531 1205.8594,299.5625 L1205.8594,301.0156 Q1205.8594,301.625 1205.625,301.8906 Q1205.3906,302.1563 1205.0156,302.1563 Q1204.6719,302.1563 1204.4688,301.9531 Q1204.2656,301.7656 1204.1563,301.25 Q1204.1094,300.8906 1203.9219,300.7031 Q1203.5938,300.3281 1202.9844,300.1094 Q1202.375,299.8906 1201.75,299.8906 Q1200.9844,299.8906 1200.3438,300.2188 Q1199.7188,300.5469 1199.2188,301.2969 Q1198.7344,302.0469 1198.7344,303.0781 L1198.7344,304.1719 Q1198.7344,305.4063 1199.625,306.2344 Q1200.5156,307.0469 1202.1094,307.0469 Q1203.0469,307.0469 1203.7031,306.7969 Q1204.0938,306.6406 1204.5156,306.2031 Q1204.7813,305.9375 1204.9219,305.8594 Q1205.0781,305.7813 1205.2813,305.7813 Q1205.6094,305.7813 1205.8594,306.0469 Q1206.125,306.2969 1206.125,306.6406 Q1206.125,306.9844 1205.7813,307.3906 Q1205.2813,307.9688 1204.4844,308.2969 Q1203.4063,308.75 1202.1094,308.75 Q1200.5938,308.75 1199.3906,308.125 Q1198.4063,307.625 1197.7188,306.5625 Q1197.0313,305.4844 1197.0313,304.2031 L1197.0313,303.0469 Q1197.0313,301.7188 1197.6406,300.5781 Q1198.2656,299.4219 1199.3594,298.8125 Q1200.4531,298.1875 1201.6875,298.1875 Q1202.4219,298.1875 1203.0625,298.3594 Q1203.7188,298.5156 1204.2656,298.875 Z " fill="#000000"/><text fill="#000000" font-family="sans-serif" font-size="12" lengthAdjust="spacing" textLength="198" x="1215.5" y="307.9102">RepositorioCompetenciaTecnicaDB</text><line style="stroke:#A80036;stroke-width:1.5;" x1="1187.5" x2="1415.5" y1="319" y2="319"/><line style="stroke:#A80036;stroke-width:1.5;" x1="1187.5" x2="1415.5" y1="327" y2="327"/><text fill="#000000" font-family="sans-serif" font-size="11" lengthAdjust="spacing" textLength="148" x="1192.5" y="342.4189">-save(CompetenciaTecnica ct)</text><!--MD5=[e7a6e48c1ef69c44c428919626dbf0a8]
link RegistarCompetenciaTecnicaUI to RegistarCompetenciaTecnicaController--><path codeLine="51" d="M671.5,55.12 C671.5,70.36 671.5,91.02 671.5,110.4 " fill="none" id="RegistarCompetenciaTecnicaUI-to-RegistarCompetenciaTecnicaController" style="stroke:#A80036;stroke-width:1.0;stroke-dasharray:7.0,7.0;"/><polygon fill="#A80036" points="671.5,115.83,675.5,106.83,671.5,110.83,667.5,106.83,671.5,115.83" style="stroke:#A80036;stroke-width:1.0;"/><!--MD5=[10f17bc09be93c731c73acec652fe20e]
link RegistarCompetenciaTecnicaController to Plataforma--><path codeLine="52" d="M609.48,219.08 C597.76,228.89 585.67,239.17 574.5,249 C559.28,262.38 542.73,277.74 529.23,290.46 " fill="none" id="RegistarCompetenciaTecnicaController-to-Plataforma" style="stroke:#A80036;stroke-width:1.0;stroke-dasharray:7.0,7.0;"/><polygon fill="#A80036" points="525.51,293.98,534.8053,290.7245,529.151,290.5532,529.3223,284.8989,525.51,293.98" style="stroke:#A80036;stroke-width:1.0;"/><!--MD5=[ff99d98a2e5f92d32895684c2ed69910]
link RegistarCompetenciaTecnicaController to GrauProficiencia--><path codeLine="53" d="M679.78,219.07 C689.37,294.44 696.85,437.95 635.5,537 C615.86,568.71 584.59,593.52 552.79,612.25 " fill="none" id="RegistarCompetenciaTecnicaController-to-GrauProficiencia" style="stroke:#A80036;stroke-width:1.0;stroke-dasharray:7.0,7.0;"/><polygon fill="#A80036" points="548.1,614.97,557.8941,613.9326,552.4297,612.4693,553.893,607.005,548.1,614.97" style="stroke:#A80036;stroke-width:1.0;"/><!--MD5=[b1ca2538ea4b9b6e1baadf6c4603b03a]
link RegistarCompetenciaTecnicaController to AreaAtividade--><path codeLine="54" d="M653.34,219.27 C632.05,278.83 596.98,376.89 575.98,435.62 " fill="none" id="RegistarCompetenciaTecnicaController-to-AreaAtividade" style="stroke:#A80036;stroke-width:1.0;stroke-dasharray:7.0,7.0;"/><polygon fill="#A80036" points="574.24,440.48,581.0436,433.3588,575.928,435.7736,573.5133,430.658,574.24,440.48" style="stroke:#A80036;stroke-width:1.0;"/><!--MD5=[35cdee5af55259496cead27d829b222c]
link RegistarCompetenciaTecnicaController to CompetenciaTecnica--><path codeLine="55" d="M548.56,219.02 C511.64,236.29 471.86,257.1 437.5,280 C371.66,323.89 305.32,385.85 261.31,430.05 " fill="none" id="RegistarCompetenciaTecnicaController-to-CompetenciaTecnica" style="stroke:#A80036;stroke-width:1.0;stroke-dasharray:7.0,7.0;"/><polygon fill="#A80036" points="257.65,433.74,266.8208,430.1488,261.164,430.1831,261.1298,424.5264,257.65,433.74" style="stroke:#A80036;stroke-width:1.0;"/><!--MD5=[2a13e1c85d91fcb08e1f381fa5a67e90]
link RegistarCompetenciaTecnicaController to RepositorioGrauProficienciaDB--><path codeLine="56" d="M800.26,219.09 C855.92,240.95 919.35,265.87 968.29,285.1 " fill="none" id="RegistarCompetenciaTecnicaController-to-RepositorioGrauProficienciaDB" style="stroke:#A80036;stroke-width:1.0;stroke-dasharray:7.0,7.0;"/><polygon fill="#A80036" points="972.98,286.94,966.0645,279.9274,968.3259,285.1126,963.1407,287.374,972.98,286.94" style="stroke:#A80036;stroke-width:1.0;"/><!--MD5=[507bbf477ba2b1c8f7abcda49540a1b2]
link RegistarCompetenciaTecnicaController to RepositorioAreaAtividadeDB--><path codeLine="57" d="M721.68,219.19 C739.93,237.62 760.32,258.22 777.66,275.74 " fill="none" id="RegistarCompetenciaTecnicaController-to-RepositorioAreaAtividadeDB" style="stroke:#A80036;stroke-width:1.0;stroke-dasharray:7.0,7.0;"/><polygon fill="#A80036" points="781.54,279.66,778.0602,270.4464,778.026,276.1031,772.3692,276.0688,781.54,279.66" style="stroke:#A80036;stroke-width:1.0;"/><!--MD5=[60ce174b52f7fb01b693197e8183c58d]
link RegistarCompetenciaTecnicaController to RepositorioCompetenciaTecnicaDB--><path codeLine="58" d="M893.04,215.46 C979.54,234.49 1079.4,257.3 1169.5,280 C1176.53,281.77 1183.76,283.65 1191.04,285.57 " fill="none" id="RegistarCompetenciaTecnicaController-to-RepositorioCompetenciaTecnicaDB" style="stroke:#A80036;stroke-width:1.0;stroke-dasharray:7.0,7.0;"/><polygon fill="#A80036" points="1196.08,286.91,1188.4123,280.7289,1191.2484,285.6235,1186.3538,288.4596,1196.08,286.91" style="stroke:#A80036;stroke-width:1.0;"/><!--MD5=[e538c9efa8de58386edc6206f3c58807]
link CompetenciaTecnica to AreaAtividade--><path codeLine="59" d="M412.01,485.5 C441.49,485.5 469.87,485.5 493.67,485.5 " fill="none" id="CompetenciaTecnica-to-AreaAtividade" style="stroke:#A80036;stroke-width:1.0;"/><polygon fill="#A80036" points="498.68,485.5,489.68,481.5,493.68,485.5,489.68,489.5,498.68,485.5" style="stroke:#A80036;stroke-width:1.0;"/><text fill="#000000" font-family="sans-serif" font-size="13" lengthAdjust="spacing" textLength="50" x="430.5" y="478.9951">referente</text><text fill="#000000" font-family="sans-serif" font-size="13" lengthAdjust="spacing" textLength="5" x="420.0182" y="482.6828">*</text><text fill="#000000" font-family="sans-serif" font-size="13" lengthAdjust="spacing" textLength="7" x="483.9629" y="482.0715">1</text><!--MD5=[718b46c9a1975c175f4073d63ce5ccba]
link Plataforma to AreaAtividade--><path codeLine="61" d="M509.43,342.01 C517.7,366.04 530.93,404.46 541.57,435.35 " fill="none" id="Plataforma-to-AreaAtividade" style="stroke:#A80036;stroke-width:1.0;"/><polygon fill="#A80036" points="543.26,440.24,544.1112,430.428,541.6318,435.5125,536.5473,433.0331,543.26,440.24" style="stroke:#A80036;stroke-width:1.0;"/><text fill="#000000" font-family="sans-serif" font-size="13" lengthAdjust="spacing" textLength="38" x="531.5" y="400.4951">possui</text><text fill="#000000" font-family="sans-serif" font-size="13" lengthAdjust="spacing" textLength="7" x="503.5098" y="363.3504">1</text><text fill="#000000" font-family="sans-serif" font-size="13" lengthAdjust="spacing" textLength="5" x="535.5436" y="429.6443">*</text><!--MD5=[a77d152358ce76c19672aacd9fb0ada1]
link Plataforma to CompetenciaTecnica--><path codeLine="62" d="M460.9,342.01 C420.28,365.03 356.35,401.27 303.13,431.43 " fill="none" id="Plataforma-to-CompetenciaTecnica" style="stroke:#A80036;stroke-width:1.0;"/><polygon fill="#A80036" points="298.67,433.96,308.4719,432.9989,303.0191,431.4931,304.5249,426.0404,298.67,433.96" style="stroke:#A80036;stroke-width:1.0;"/><text fill="#000000" font-family="sans-serif" font-size="13" lengthAdjust="spacing" textLength="38" x="383.5" y="400.4951">possui</text><text fill="#000000" font-family="sans-serif" font-size="13" lengthAdjust="spacing" textLength="7" x="443.1506" y="363.3504">1</text><text fill="#000000" font-family="sans-serif" font-size="13" lengthAdjust="spacing" textLength="5" x="305.858" y="423.0829">*</text><!--MD5=[0d731ff285a62a08178b23be6cceb109]
link CompetenciaTecnica to GrauProficiencia--><path codeLine="64" d="M277.25,537.09 C308.84,560.69 346.23,588.6 377.24,611.76 " fill="none" id="CompetenciaTecnica-to-GrauProficiencia" style="stroke:#A80036;stroke-width:1.0;"/><polygon fill="#A80036" points="381.38,614.85,376.5603,606.261,377.3731,611.8592,371.775,612.672,381.38,614.85" style="stroke:#A80036;stroke-width:1.0;"/><text fill="#000000" font-family="sans-serif" font-size="13" lengthAdjust="spacing" textLength="22" x="340.5" y="581.4951">tem</text><text fill="#000000" font-family="sans-serif" font-size="13" lengthAdjust="spacing" textLength="7" x="279.2852" y="558.9655">1</text><text fill="#000000" font-family="sans-serif" font-size="13" lengthAdjust="spacing" textLength="20" x="350.796" y="604.2711">1..*</text><!--MD5=[cd0f2ce6f9cb333920b5f13b29d27463]
@startuml

skinparam classAttributeIconSize 0

class CompetenciaTecnica {
  -String codigo
  -String descBreve
  -String descDetalhada
  +CompetenciaTecnica(String cod, String dsBreve, String dsDet, AreaAtividade at)
}

class GrauProficiencia {
  -String designacao
  -String valor
  +GrauProficiencia(String designacao, String valor)
}

class AreaAtividade {
  -String codigo
  -String descBreve
  -String descDetalhada
}

class Plataforma {
}


class RegistarCompetenciaTecnicaController {
  +List<AreaAtividade> getAreasAtividade()
  +AreaAtividade getAreaAtividadeByCod(String atCod)
  +void registarCompetenciaTecnica(String cod, String dsBreve, String dsDet, String atCod)
  +void registarGrauProficiencia(String designacao, String valor)
}

class RegistarCompetenciaTecnicaUI {

}

class RepositorioAreaAtividadeDB {
  +getAll()
  +find(int id)
}

class RepositorioGrauProficienciaDB {
  +save(GrauProficiencia gp)
}

class RepositorioCompetenciaTecnicaDB {
  -save(CompetenciaTecnica ct)
}

RegistarCompetenciaTecnicaUI ..> RegistarCompetenciaTecnicaController
RegistarCompetenciaTecnicaController ..> Plataforma
RegistarCompetenciaTecnicaController ..> GrauProficiencia
RegistarCompetenciaTecnicaController ..> AreaAtividade
RegistarCompetenciaTecnicaController ..> CompetenciaTecnica
RegistarCompetenciaTecnicaController ..> RepositorioGrauProficienciaDB
RegistarCompetenciaTecnicaController ..> RepositorioAreaAtividadeDB
RegistarCompetenciaTecnicaController ..> RepositorioCompetenciaTecnicaDB
CompetenciaTecnica "*" -> "1" AreaAtividade : referente

Plataforma "1" - -> "*" AreaAtividade : possui
Plataforma "1" - -> "*" CompetenciaTecnica : possui

CompetenciaTecnica "1" - -> "1..*" GrauProficiencia : tem


@enduml

PlantUML version 1.2021.00(Sun Jan 10 10:25:05 WET 2021)
(GPL source distribution)
Java Runtime: Java(TM) SE Runtime Environment
JVM: Java HotSpot(TM) 64-Bit Server VM
Default Encoding: Cp1252
Language: pt
Country: PT
--></g></svg>