<?xml version="1.0" encoding="UTF-8" standalone="no"?><svg xmlns="http://www.w3.org/2000/svg" xmlns:xlink="http://www.w3.org/1999/xlink" contentScriptType="application/ecmascript" contentStyleType="text/css" height="579px" preserveAspectRatio="none" style="width:679px;height:579px;" version="1.1" viewBox="0 0 679 579" width="679px" zoomAndPan="magnify"><defs><filter height="300%" id="f1i72opuyeemk5" width="300%" x="-1" y="-1"><feGaussianBlur result="blurOut" stdDeviation="2.0"/><feColorMatrix in="blurOut" result="blurOut2" type="matrix" values="0 0 0 0 0 0 0 0 0 0 0 0 0 0 0 0 0 0 .4 0"/><feOffset dx="4.0" dy="4.0" in="blurOut2" result="blurOut3"/><feBlend in="SourceGraphic" in2="blurOut3" mode="normal"/></filter></defs><g><rect fill="#FFFFFF" filter="url(#f1i72opuyeemk5)" height="376.5703" style="stroke:#A80036;stroke-width:1.0;" width="10" x="57.5" y="99.6094"/><rect fill="#FFFFFF" filter="url(#f1i72opuyeemk5)" height="46.7031" style="stroke:#A80036;stroke-width:1.0;" width="10" x="614.5" y="121.9609"/><rect fill="#FFFFFF" filter="url(#f1i72opuyeemk5)" height="123.4063" style="stroke:#A80036;stroke-width:1.0;" width="10" x="614.5" y="199.0156"/><rect fill="#FFFFFF" filter="url(#f1i72opuyeemk5)" height="37.3516" style="stroke:#A80036;stroke-width:1.0;" width="10" x="614.5" y="378.125"/><rect fill="#FFFFFF" filter="url(#f1i72opuyeemk5)" height="30.3516" style="stroke:#A80036;stroke-width:1.0;" width="10" x="614.5" y="445.8281"/><rect fill="#FFFFFF" filter="url(#f1i72opuyeemk5)" height="48.7031" style="stroke:#000000;stroke-width:2.0;" width="655.5" x="10" y="244.3672"/><rect fill="#FFFFFF" filter="url(#f1i72opuyeemk5)" height="48.7031" style="stroke:#000000;stroke-width:2.0;" width="655.5" x="10" y="337.4219"/><line style="stroke:#A80036;stroke-width:1.0;stroke-dasharray:5.0,5.0;" x1="62" x2="62" y1="89.6094" y2="494.1797"/><line style="stroke:#A80036;stroke-width:1.0;stroke-dasharray:5.0,5.0;" x1="619.5" x2="619.5" y1="89.6094" y2="494.1797"/><text fill="#000000" font-family="sans-serif" font-size="14" lengthAdjust="spacing" textLength="79" x="20" y="86.5332">Colaborador</text><ellipse cx="62.5" cy="15" fill="#FEFECE" filter="url(#f1i72opuyeemk5)" rx="8" ry="8" style="stroke:#A80036;stroke-width:2.0;"/><path d="M62.5,23 L62.5,50 M49.5,31 L75.5,31 M62.5,50 L49.5,65 M62.5,50 L75.5,65 " fill="none" filter="url(#f1i72opuyeemk5)" style="stroke:#A80036;stroke-width:2.0;"/><text fill="#000000" font-family="sans-serif" font-size="14" lengthAdjust="spacing" textLength="79" x="20" y="507.7129">Colaborador</text><ellipse cx="62.5" cy="520.7891" fill="#FEFECE" filter="url(#f1i72opuyeemk5)" rx="8" ry="8" style="stroke:#A80036;stroke-width:2.0;"/><path d="M62.5,528.7891 L62.5,555.7891 M49.5,536.7891 L75.5,536.7891 M62.5,555.7891 L49.5,570.7891 M62.5,555.7891 L75.5,570.7891 " fill="none" filter="url(#f1i72opuyeemk5)" style="stroke:#A80036;stroke-width:2.0;"/><rect fill="#FEFECE" filter="url(#f1i72opuyeemk5)" height="31.6094" style="stroke:#A80036;stroke-width:1.5;" width="68" x="583.5" y="53"/><text fill="#000000" font-family="sans-serif" font-size="14" lengthAdjust="spacing" textLength="54" x="590.5" y="74.5332">:Sistema</text><rect fill="#FEFECE" filter="url(#f1i72opuyeemk5)" height="31.6094" style="stroke:#A80036;stroke-width:1.5;" width="68" x="583.5" y="493.1797"/><text fill="#000000" font-family="sans-serif" font-size="14" lengthAdjust="spacing" textLength="54" x="590.5" y="514.7129">:Sistema</text><rect fill="#FFFFFF" filter="url(#f1i72opuyeemk5)" height="376.5703" style="stroke:#A80036;stroke-width:1.0;" width="10" x="57.5" y="99.6094"/><rect fill="#FFFFFF" filter="url(#f1i72opuyeemk5)" height="46.7031" style="stroke:#A80036;stroke-width:1.0;" width="10" x="614.5" y="121.9609"/><rect fill="#FFFFFF" filter="url(#f1i72opuyeemk5)" height="123.4063" style="stroke:#A80036;stroke-width:1.0;" width="10" x="614.5" y="199.0156"/><rect fill="#FFFFFF" filter="url(#f1i72opuyeemk5)" height="37.3516" style="stroke:#A80036;stroke-width:1.0;" width="10" x="614.5" y="378.125"/><rect fill="#FFFFFF" filter="url(#f1i72opuyeemk5)" height="30.3516" style="stroke:#A80036;stroke-width:1.0;" width="10" x="614.5" y="445.8281"/><polygon fill="#A80036" points="602.5,117.9609,612.5,121.9609,602.5,125.9609,606.5,121.9609" style="stroke:#A80036;stroke-width:1.0;"/><line style="stroke:#A80036;stroke-width:1.0;" x1="67.5" x2="608.5" y1="121.9609" y2="121.9609"/><text fill="#000000" font-family="sans-serif" font-size="13" font-weight="bold" lengthAdjust="spacing" textLength="7" x="74.5" y="117.1045">1</text><text fill="#000000" font-family="sans-serif" font-size="13" lengthAdjust="spacing" textLength="517" x="85.5" y="117.1045">inicia o processo não automático de seriação dos candidatos à realização de um anúncio</text><polygon fill="#A80036" points="78.5,164.6641,68.5,168.6641,78.5,172.6641,74.5,168.6641" style="stroke:#A80036;stroke-width:1.0;"/><line style="stroke:#A80036;stroke-width:1.0;stroke-dasharray:2.0,2.0;" x1="72.5" x2="618.5" y1="168.6641" y2="168.6641"/><text fill="#000000" font-family="sans-serif" font-size="13" font-weight="bold" lengthAdjust="spacing" textLength="7" x="84.5" y="155.6318">2</text><text fill="#000000" font-family="sans-serif" font-size="13" lengthAdjust="spacing" textLength="493" x="95.5" y="147.4561">mostra os anúncios publicados pelo colaborador em fase de seriação não automática</text><text fill="#000000" font-family="sans-serif" font-size="13" lengthAdjust="spacing" textLength="349" x="95.5" y="163.8076">e que ainda não foram seriados e pede-lhe para escolher um</text><polygon fill="#A80036" points="602.5,195.0156,612.5,199.0156,602.5,203.0156,606.5,199.0156" style="stroke:#A80036;stroke-width:1.0;"/><line style="stroke:#A80036;stroke-width:1.0;" x1="67.5" x2="608.5" y1="199.0156" y2="199.0156"/><text fill="#000000" font-family="sans-serif" font-size="13" font-weight="bold" lengthAdjust="spacing" textLength="7" x="74.5" y="194.1592">3</text><text fill="#000000" font-family="sans-serif" font-size="13" lengthAdjust="spacing" textLength="126" x="85.5" y="194.1592">seleciona um anúncio</text><polygon fill="#A80036" points="78.5,225.3672,68.5,229.3672,78.5,233.3672,74.5,229.3672" style="stroke:#A80036;stroke-width:1.0;"/><line style="stroke:#A80036;stroke-width:1.0;stroke-dasharray:2.0,2.0;" x1="72.5" x2="613.5" y1="229.3672" y2="229.3672"/><text fill="#000000" font-family="sans-serif" font-size="13" font-weight="bold" lengthAdjust="spacing" textLength="7" x="84.5" y="224.5107">4</text><text fill="#000000" font-family="sans-serif" font-size="13" lengthAdjust="spacing" textLength="364" x="95.5" y="224.5107">mostra as candidaturas existente e solicita a sua classificação</text><path d="M10,244.3672 L83,244.3672 L83,252.3672 L73,262.3672 L10,262.3672 L10,244.3672 " fill="#EEEEEE" style="stroke:#000000;stroke-width:1.0;"/><rect fill="none" height="48.7031" style="stroke:#000000;stroke-width:2.0;" width="655.5" x="10" y="244.3672"/><text fill="#000000" font-family="sans-serif" font-size="13" font-weight="bold" lengthAdjust="spacing" textLength="28" x="25" y="258.8623">loop</text><polygon fill="#A80036" points="602.5,281.0703,612.5,285.0703,602.5,289.0703,606.5,285.0703" style="stroke:#A80036;stroke-width:1.0;"/><line style="stroke:#A80036;stroke-width:1.0;" x1="67.5" x2="608.5" y1="285.0703" y2="285.0703"/><text fill="#000000" font-family="sans-serif" font-size="13" font-weight="bold" lengthAdjust="spacing" textLength="7" x="74.5" y="280.2139">5</text><text fill="#000000" font-family="sans-serif" font-size="13" lengthAdjust="spacing" textLength="125" x="85.5" y="280.2139">classifica candidatura</text><polygon fill="#A80036" points="78.5,318.4219,68.5,322.4219,78.5,326.4219,74.5,322.4219" style="stroke:#A80036;stroke-width:1.0;"/><line style="stroke:#A80036;stroke-width:1.0;stroke-dasharray:2.0,2.0;" x1="72.5" x2="618.5" y1="322.4219" y2="322.4219"/><text fill="#000000" font-family="sans-serif" font-size="13" font-weight="bold" lengthAdjust="spacing" textLength="7" x="84.5" y="317.5654">6</text><text fill="#000000" font-family="sans-serif" font-size="13" lengthAdjust="spacing" textLength="506" x="95.5" y="317.5654">mostra os colaboradores da organização e pede para selecionar os outros participantes</text><path d="M10,337.4219 L83,337.4219 L83,345.4219 L73,355.4219 L10,355.4219 L10,337.4219 " fill="#EEEEEE" style="stroke:#000000;stroke-width:1.0;"/><rect fill="none" height="48.7031" style="stroke:#000000;stroke-width:2.0;" width="655.5" x="10" y="337.4219"/><text fill="#000000" font-family="sans-serif" font-size="13" font-weight="bold" lengthAdjust="spacing" textLength="28" x="25" y="351.917">loop</text><polygon fill="#A80036" points="602.5,374.125,612.5,378.125,602.5,382.125,606.5,378.125" style="stroke:#A80036;stroke-width:1.0;"/><line style="stroke:#A80036;stroke-width:1.0;" x1="67.5" x2="608.5" y1="378.125" y2="378.125"/><text fill="#000000" font-family="sans-serif" font-size="13" font-weight="bold" lengthAdjust="spacing" textLength="7" x="74.5" y="373.2686">7</text><text fill="#000000" font-family="sans-serif" font-size="13" lengthAdjust="spacing" textLength="258" x="85.5" y="373.2686">seleciona outros colaboradores participantes</text><polygon fill="#A80036" points="78.5,411.4766,68.5,415.4766,78.5,419.4766,74.5,415.4766" style="stroke:#A80036;stroke-width:1.0;"/><line style="stroke:#A80036;stroke-width:1.0;stroke-dasharray:2.0,2.0;" x1="72.5" x2="618.5" y1="415.4766" y2="415.4766"/><text fill="#000000" font-family="sans-serif" font-size="13" font-weight="bold" lengthAdjust="spacing" textLength="7" x="84.5" y="410.6201">8</text><text fill="#000000" font-family="sans-serif" font-size="13" lengthAdjust="spacing" textLength="244" x="95.5" y="410.6201">apresenta os dados e solicita confirmação</text><polygon fill="#A80036" points="602.5,441.8281,612.5,445.8281,602.5,449.8281,606.5,445.8281" style="stroke:#A80036;stroke-width:1.0;"/><line style="stroke:#A80036;stroke-width:1.0;" x1="67.5" x2="608.5" y1="445.8281" y2="445.8281"/><text fill="#000000" font-family="sans-serif" font-size="13" font-weight="bold" lengthAdjust="spacing" textLength="7" x="74.5" y="440.9717">9</text><text fill="#000000" font-family="sans-serif" font-size="13" lengthAdjust="spacing" textLength="49" x="85.5" y="440.9717">confirma</text><polygon fill="#A80036" points="73.5,472.1797,63.5,476.1797,73.5,480.1797,69.5,476.1797" style="stroke:#A80036;stroke-width:1.0;"/><line style="stroke:#A80036;stroke-width:1.0;stroke-dasharray:2.0,2.0;" x1="67.5" x2="618.5" y1="476.1797" y2="476.1797"/><text fill="#000000" font-family="sans-serif" font-size="13" font-weight="bold" lengthAdjust="spacing" textLength="14" x="79.5" y="471.3232">10</text><text fill="#000000" font-family="sans-serif" font-size="13" lengthAdjust="spacing" textLength="188" x="97.5" y="471.3232">informa do sucesso da operação</text><!--MD5=[5152a0b90fbbf06498b6491ec19eb8e4]
@startuml
autonumber

actor "Colaborador" as COLAB

participant ":Sistema" as SIST

activate COLAB

COLAB -> SIST : inicia o processo não automático de seriação dos candidatos à realização de um anúncio
activate SIST
SIST - -> COLAB : mostra os anúncios publicados pelo colaborador em fase de seriação não automática \ne que ainda não foram seriados e pede-lhe para escolher um
deactivate SIST

COLAB -> SIST : seleciona um anúncio
activate SIST

SIST - -> COLAB : mostra as candidaturas existente e solicita a sua classificação
loop
COLAB -> SIST : classifica candidatura
end loop
activate SIST
SIST - -> COLAB : mostra os colaboradores da organização e pede para selecionar os outros participantes
deactivate SIST

loop
COLAB -> SIST : seleciona outros colaboradores participantes
activate SIST
end loop
SIST - -> COLAB : apresenta os dados e solicita confirmação
deactivate SIST

COLAB -> SIST : confirma
activate SIST
SIST - -> COLAB : informa do sucesso da operação
deactivate SIST

deactivate COLAB
@enduml

PlantUML version 1.2021.00(Sun Jan 10 10:25:05 WET 2021)
(GPL source distribution)
Java Runtime: Java(TM) SE Runtime Environment
JVM: Java HotSpot(TM) 64-Bit Server VM
Default Encoding: Cp1252
Language: pt
Country: PT
--></g></svg>