<?xml version="1.0" encoding="UTF-8" standalone="no"?><svg xmlns="http://www.w3.org/2000/svg" xmlns:xlink="http://www.w3.org/1999/xlink" contentScriptType="application/ecmascript" contentStyleType="text/css" height="615px" preserveAspectRatio="none" style="width:1596px;height:615px;" version="1.1" viewBox="0 0 1596 615" width="1596px" zoomAndPan="magnify"><defs><filter height="300%" id="fru2hjwbmlavp" width="300%" x="-1" y="-1"><feGaussianBlur result="blurOut" stdDeviation="2.0"/><feColorMatrix in="blurOut" result="blurOut2" type="matrix" values="0 0 0 0 0 0 0 0 0 0 0 0 0 0 0 0 0 0 .4 0"/><feOffset dx="4.0" dy="4.0" in="blurOut2" result="blurOut3"/><feBlend in="SourceGraphic" in2="blurOut3" mode="normal"/></filter></defs><g><!--MD5=[ecaed46f78f8cfe1e9ce18477649be18]
class Plataforma--><rect codeLine="6" fill="#FEFECE" filter="url(#fru2hjwbmlavp)" height="53.8359" id="Plataforma" style="stroke:#A80036;stroke-width:1.5;" width="103" x="7" y="405.5"/><ellipse cx="26.95" cy="421.5" fill="#ADD1B2" rx="11" ry="11" style="stroke:#A80036;stroke-width:1.0;"/><path d="M29.7156,417.375 Q29.8719,417.1563 30.0594,417.0469 Q30.2469,416.9375 30.4656,416.9375 Q30.8406,416.9375 31.075,417.2031 Q31.3094,417.4531 31.3094,418.0625 L31.3094,419.5156 Q31.3094,420.125 31.075,420.3906 Q30.8406,420.6563 30.4656,420.6563 Q30.1219,420.6563 29.9188,420.4531 Q29.7156,420.2656 29.6063,419.75 Q29.5594,419.3906 29.3719,419.2031 Q29.0438,418.8281 28.4344,418.6094 Q27.825,418.3906 27.2,418.3906 Q26.4344,418.3906 25.7938,418.7188 Q25.1688,419.0469 24.6688,419.7969 Q24.1844,420.5469 24.1844,421.5781 L24.1844,422.6719 Q24.1844,423.9063 25.075,424.7344 Q25.9656,425.5469 27.5594,425.5469 Q28.4969,425.5469 29.1531,425.2969 Q29.5438,425.1406 29.9656,424.7031 Q30.2313,424.4375 30.3719,424.3594 Q30.5281,424.2813 30.7313,424.2813 Q31.0594,424.2813 31.3094,424.5469 Q31.575,424.7969 31.575,425.1406 Q31.575,425.4844 31.2313,425.8906 Q30.7313,426.4688 29.9344,426.7969 Q28.8563,427.25 27.5594,427.25 Q26.0438,427.25 24.8406,426.625 Q23.8563,426.125 23.1688,425.0625 Q22.4813,423.9844 22.4813,422.7031 L22.4813,421.5469 Q22.4813,420.2188 23.0906,419.0781 Q23.7156,417.9219 24.8094,417.3125 Q25.9031,416.6875 27.1375,416.6875 Q27.8719,416.6875 28.5125,416.8594 Q29.1688,417.0156 29.7156,417.375 Z " fill="#000000"/><text fill="#000000" font-family="sans-serif" font-size="12" lengthAdjust="spacing" textLength="60" x="42.05" y="426.4102">Plataforma</text><line style="stroke:#A80036;stroke-width:1.5;" x1="8" x2="109" y1="437.5" y2="437.5"/><text fill="#000000" font-family="sans-serif" font-size="11" lengthAdjust="spacing" textLength="91" x="13" y="452.9189">-String designacao</text><!--MD5=[807977ceb130c090ed5febfb6de2bdea]
class Organizacao--><rect codeLine="10" fill="#FEFECE" filter="url(#fru2hjwbmlavp)" height="109.1797" id="Organizacao" style="stroke:#A80036;stroke-width:1.5;" width="101" x="433" y="7"/><ellipse cx="448" cy="23" fill="#ADD1B2" rx="11" ry="11" style="stroke:#A80036;stroke-width:1.0;"/><path d="M450.7656,18.875 Q450.9219,18.6563 451.1094,18.5469 Q451.2969,18.4375 451.5156,18.4375 Q451.8906,18.4375 452.125,18.7031 Q452.3594,18.9531 452.3594,19.5625 L452.3594,21.0156 Q452.3594,21.625 452.125,21.8906 Q451.8906,22.1563 451.5156,22.1563 Q451.1719,22.1563 450.9688,21.9531 Q450.7656,21.7656 450.6563,21.25 Q450.6094,20.8906 450.4219,20.7031 Q450.0938,20.3281 449.4844,20.1094 Q448.875,19.8906 448.25,19.8906 Q447.4844,19.8906 446.8438,20.2188 Q446.2188,20.5469 445.7188,21.2969 Q445.2344,22.0469 445.2344,23.0781 L445.2344,24.1719 Q445.2344,25.4063 446.125,26.2344 Q447.0156,27.0469 448.6094,27.0469 Q449.5469,27.0469 450.2031,26.7969 Q450.5938,26.6406 451.0156,26.2031 Q451.2813,25.9375 451.4219,25.8594 Q451.5781,25.7813 451.7813,25.7813 Q452.1094,25.7813 452.3594,26.0469 Q452.625,26.2969 452.625,26.6406 Q452.625,26.9844 452.2813,27.3906 Q451.7813,27.9688 450.9844,28.2969 Q449.9063,28.75 448.6094,28.75 Q447.0938,28.75 445.8906,28.125 Q444.9063,27.625 444.2188,26.5625 Q443.5313,25.4844 443.5313,24.2031 L443.5313,23.0469 Q443.5313,21.7188 444.1406,20.5781 Q444.7656,19.4219 445.8594,18.8125 Q446.9531,18.1875 448.1875,18.1875 Q448.9219,18.1875 449.5625,18.3594 Q450.2188,18.5156 450.7656,18.875 Z " fill="#000000"/><text fill="#000000" font-family="sans-serif" font-size="12" lengthAdjust="spacing" textLength="69" x="462" y="27.9102">Organizacao</text><line style="stroke:#A80036;stroke-width:1.5;" x1="434" x2="533" y1="39" y2="39"/><text fill="#000000" font-family="sans-serif" font-size="11" lengthAdjust="spacing" textLength="61" x="439" y="54.4189">-String nome</text><text fill="#000000" font-family="sans-serif" font-size="11" lengthAdjust="spacing" textLength="50" x="439" y="68.2549">-String NIF</text><text fill="#000000" font-family="sans-serif" font-size="11" lengthAdjust="spacing" textLength="74" x="439" y="82.0908">-String website</text><text fill="#000000" font-family="sans-serif" font-size="11" lengthAdjust="spacing" textLength="74" x="439" y="95.9268">-String telefone</text><text fill="#000000" font-family="sans-serif" font-size="11" lengthAdjust="spacing" textLength="59" x="439" y="109.7627">-String email</text><!--MD5=[ac8682ea5466d223e49472789fb200d2]
class Colaborador--><rect codeLine="18" fill="#FEFECE" filter="url(#fru2hjwbmlavp)" height="95.3438" id="Colaborador" style="stroke:#A80036;stroke-width:1.5;" width="101" x="962.5" y="97"/><ellipse cx="977.5" cy="113" fill="#ADD1B2" rx="11" ry="11" style="stroke:#A80036;stroke-width:1.0;"/><path d="M980.2656,108.875 Q980.4219,108.6563 980.6094,108.5469 Q980.7969,108.4375 981.0156,108.4375 Q981.3906,108.4375 981.625,108.7031 Q981.8594,108.9531 981.8594,109.5625 L981.8594,111.0156 Q981.8594,111.625 981.625,111.8906 Q981.3906,112.1563 981.0156,112.1563 Q980.6719,112.1563 980.4688,111.9531 Q980.2656,111.7656 980.1563,111.25 Q980.1094,110.8906 979.9219,110.7031 Q979.5938,110.3281 978.9844,110.1094 Q978.375,109.8906 977.75,109.8906 Q976.9844,109.8906 976.3438,110.2188 Q975.7188,110.5469 975.2188,111.2969 Q974.7344,112.0469 974.7344,113.0781 L974.7344,114.1719 Q974.7344,115.4063 975.625,116.2344 Q976.5156,117.0469 978.1094,117.0469 Q979.0469,117.0469 979.7031,116.7969 Q980.0938,116.6406 980.5156,116.2031 Q980.7813,115.9375 980.9219,115.8594 Q981.0781,115.7813 981.2813,115.7813 Q981.6094,115.7813 981.8594,116.0469 Q982.125,116.2969 982.125,116.6406 Q982.125,116.9844 981.7813,117.3906 Q981.2813,117.9688 980.4844,118.2969 Q979.4063,118.75 978.1094,118.75 Q976.5938,118.75 975.3906,118.125 Q974.4063,117.625 973.7188,116.5625 Q973.0313,115.4844 973.0313,114.2031 L973.0313,113.0469 Q973.0313,111.7188 973.6406,110.5781 Q974.2656,109.4219 975.3594,108.8125 Q976.4531,108.1875 977.6875,108.1875 Q978.4219,108.1875 979.0625,108.3594 Q979.7188,108.5156 980.2656,108.875 Z " fill="#000000"/><text fill="#000000" font-family="sans-serif" font-size="12" lengthAdjust="spacing" textLength="69" x="991.5" y="117.9102">Colaborador</text><line style="stroke:#A80036;stroke-width:1.5;" x1="963.5" x2="1062.5" y1="129" y2="129"/><text fill="#000000" font-family="sans-serif" font-size="11" lengthAdjust="spacing" textLength="61" x="968.5" y="144.4189">-String nome</text><text fill="#000000" font-family="sans-serif" font-size="11" lengthAdjust="spacing" textLength="69" x="968.5" y="158.2549">-String funcao</text><text fill="#000000" font-family="sans-serif" font-size="11" lengthAdjust="spacing" textLength="74" x="968.5" y="172.0908">-String telefone</text><text fill="#000000" font-family="sans-serif" font-size="11" lengthAdjust="spacing" textLength="59" x="968.5" y="185.9268">-String email</text><!--MD5=[d0e9f237fb3c72e1245c36c562ad52c4]
class TipoRegimento--><rect codeLine="25" fill="#FEFECE" filter="url(#fru2hjwbmlavp)" height="67.6719" id="TipoRegimento" style="stroke:#A80036;stroke-width:1.5;" width="130" x="948" y="412.5"/><ellipse cx="968.85" cy="428.5" fill="#ADD1B2" rx="11" ry="11" style="stroke:#A80036;stroke-width:1.0;"/><path d="M971.6156,424.375 Q971.7719,424.1563 971.9594,424.0469 Q972.1469,423.9375 972.3656,423.9375 Q972.7406,423.9375 972.975,424.2031 Q973.2094,424.4531 973.2094,425.0625 L973.2094,426.5156 Q973.2094,427.125 972.975,427.3906 Q972.7406,427.6563 972.3656,427.6563 Q972.0219,427.6563 971.8188,427.4531 Q971.6156,427.2656 971.5063,426.75 Q971.4594,426.3906 971.2719,426.2031 Q970.9438,425.8281 970.3344,425.6094 Q969.725,425.3906 969.1,425.3906 Q968.3344,425.3906 967.6938,425.7188 Q967.0688,426.0469 966.5688,426.7969 Q966.0844,427.5469 966.0844,428.5781 L966.0844,429.6719 Q966.0844,430.9063 966.975,431.7344 Q967.8656,432.5469 969.4594,432.5469 Q970.3969,432.5469 971.0531,432.2969 Q971.4438,432.1406 971.8656,431.7031 Q972.1313,431.4375 972.2719,431.3594 Q972.4281,431.2813 972.6313,431.2813 Q972.9594,431.2813 973.2094,431.5469 Q973.475,431.7969 973.475,432.1406 Q973.475,432.4844 973.1313,432.8906 Q972.6313,433.4688 971.8344,433.7969 Q970.7563,434.25 969.4594,434.25 Q967.9438,434.25 966.7406,433.625 Q965.7563,433.125 965.0688,432.0625 Q964.3813,430.9844 964.3813,429.7031 L964.3813,428.5469 Q964.3813,427.2188 964.9906,426.0781 Q965.6156,424.9219 966.7094,424.3125 Q967.8031,423.6875 969.0375,423.6875 Q969.7719,423.6875 970.4125,423.8594 Q971.0688,424.0156 971.6156,424.375 Z " fill="#000000"/><text fill="#000000" font-family="sans-serif" font-size="12" lengthAdjust="spacing" textLength="85" x="984.15" y="433.4102">TipoRegimento</text><line style="stroke:#A80036;stroke-width:1.5;" x1="949" x2="1077" y1="444.5" y2="444.5"/><text fill="#000000" font-family="sans-serif" font-size="11" lengthAdjust="spacing" textLength="91" x="954" y="459.9189">-String designacao</text><text fill="#000000" font-family="sans-serif" font-size="11" lengthAdjust="spacing" textLength="118" x="954" y="473.7549">-String descricaoRegras</text><!--MD5=[1f687b5315377fe49fca59b457947463]
class Freelancer--><rect codeLine="32" fill="#FEFECE" filter="url(#fru2hjwbmlavp)" height="95.3438" id="Freelancer" style="stroke:#A80036;stroke-width:1.5;" width="91" x="1491" y="506"/><ellipse cx="1506" cy="522" fill="#ADD1B2" rx="11" ry="11" style="stroke:#A80036;stroke-width:1.0;"/><path d="M1508.7656,517.875 Q1508.9219,517.6563 1509.1094,517.5469 Q1509.2969,517.4375 1509.5156,517.4375 Q1509.8906,517.4375 1510.125,517.7031 Q1510.3594,517.9531 1510.3594,518.5625 L1510.3594,520.0156 Q1510.3594,520.625 1510.125,520.8906 Q1509.8906,521.1563 1509.5156,521.1563 Q1509.1719,521.1563 1508.9688,520.9531 Q1508.7656,520.7656 1508.6563,520.25 Q1508.6094,519.8906 1508.4219,519.7031 Q1508.0938,519.3281 1507.4844,519.1094 Q1506.875,518.8906 1506.25,518.8906 Q1505.4844,518.8906 1504.8438,519.2188 Q1504.2188,519.5469 1503.7188,520.2969 Q1503.2344,521.0469 1503.2344,522.0781 L1503.2344,523.1719 Q1503.2344,524.4063 1504.125,525.2344 Q1505.0156,526.0469 1506.6094,526.0469 Q1507.5469,526.0469 1508.2031,525.7969 Q1508.5938,525.6406 1509.0156,525.2031 Q1509.2813,524.9375 1509.4219,524.8594 Q1509.5781,524.7813 1509.7813,524.7813 Q1510.1094,524.7813 1510.3594,525.0469 Q1510.625,525.2969 1510.625,525.6406 Q1510.625,525.9844 1510.2813,526.3906 Q1509.7813,526.9688 1508.9844,527.2969 Q1507.9063,527.75 1506.6094,527.75 Q1505.0938,527.75 1503.8906,527.125 Q1502.9063,526.625 1502.2188,525.5625 Q1501.5313,524.4844 1501.5313,523.2031 L1501.5313,522.0469 Q1501.5313,520.7188 1502.1406,519.5781 Q1502.7656,518.4219 1503.8594,517.8125 Q1504.9531,517.1875 1506.1875,517.1875 Q1506.9219,517.1875 1507.5625,517.3594 Q1508.2188,517.5156 1508.7656,517.875 Z " fill="#000000"/><text fill="#000000" font-family="sans-serif" font-size="12" lengthAdjust="spacing" textLength="59" x="1520" y="526.9102">Freelancer</text><line style="stroke:#A80036;stroke-width:1.5;" x1="1492" x2="1581" y1="538" y2="538"/><text fill="#000000" font-family="sans-serif" font-size="11" lengthAdjust="spacing" textLength="61" x="1497" y="553.4189">-String nome</text><text fill="#000000" font-family="sans-serif" font-size="11" lengthAdjust="spacing" textLength="50" x="1497" y="567.2549">-String NIF</text><text fill="#000000" font-family="sans-serif" font-size="11" lengthAdjust="spacing" textLength="74" x="1497" y="581.0908">-String telefone</text><text fill="#000000" font-family="sans-serif" font-size="11" lengthAdjust="spacing" textLength="59" x="1497" y="594.9268">-String email</text><!--MD5=[19db0db7353a4bf63eefc676e5ba9b80]
class Anuncio--><rect codeLine="39" fill="#FEFECE" filter="url(#fru2hjwbmlavp)" height="123.0156" id="Anuncio" style="stroke:#A80036;stroke-width:1.5;" width="132" x="271" y="291"/><ellipse cx="311.2" cy="307" fill="#ADD1B2" rx="11" ry="11" style="stroke:#A80036;stroke-width:1.0;"/><path d="M313.9656,302.875 Q314.1219,302.6563 314.3094,302.5469 Q314.4969,302.4375 314.7156,302.4375 Q315.0906,302.4375 315.325,302.7031 Q315.5594,302.9531 315.5594,303.5625 L315.5594,305.0156 Q315.5594,305.625 315.325,305.8906 Q315.0906,306.1563 314.7156,306.1563 Q314.3719,306.1563 314.1688,305.9531 Q313.9656,305.7656 313.8563,305.25 Q313.8094,304.8906 313.6219,304.7031 Q313.2938,304.3281 312.6844,304.1094 Q312.075,303.8906 311.45,303.8906 Q310.6844,303.8906 310.0438,304.2188 Q309.4188,304.5469 308.9188,305.2969 Q308.4344,306.0469 308.4344,307.0781 L308.4344,308.1719 Q308.4344,309.4063 309.325,310.2344 Q310.2156,311.0469 311.8094,311.0469 Q312.7469,311.0469 313.4031,310.7969 Q313.7938,310.6406 314.2156,310.2031 Q314.4813,309.9375 314.6219,309.8594 Q314.7781,309.7813 314.9813,309.7813 Q315.3094,309.7813 315.5594,310.0469 Q315.825,310.2969 315.825,310.6406 Q315.825,310.9844 315.4813,311.3906 Q314.9813,311.9688 314.1844,312.2969 Q313.1063,312.75 311.8094,312.75 Q310.2938,312.75 309.0906,312.125 Q308.1063,311.625 307.4188,310.5625 Q306.7313,309.4844 306.7313,308.2031 L306.7313,307.0469 Q306.7313,305.7188 307.3406,304.5781 Q307.9656,303.4219 309.0594,302.8125 Q310.1531,302.1875 311.3875,302.1875 Q312.1219,302.1875 312.7625,302.3594 Q313.4188,302.5156 313.9656,302.875 Z " fill="#000000"/><text fill="#000000" font-family="sans-serif" font-size="12" lengthAdjust="spacing" textLength="44" x="330.8" y="311.9102">Anuncio</text><line style="stroke:#A80036;stroke-width:1.5;" x1="272" x2="402" y1="323" y2="323"/><text fill="#000000" font-family="sans-serif" font-size="11" lengthAdjust="spacing" textLength="119" x="277" y="338.4189">-Date dtInicioPublicitacao</text><text fill="#000000" font-family="sans-serif" font-size="11" lengthAdjust="spacing" textLength="111" x="277" y="352.2549">-Date dtFimPublicitacao</text><text fill="#000000" font-family="sans-serif" font-size="11" lengthAdjust="spacing" textLength="120" x="277" y="366.0908">-Date dtInicioCandidatura</text><text fill="#000000" font-family="sans-serif" font-size="11" lengthAdjust="spacing" textLength="112" x="277" y="379.9268">-Date dtFimCandidatura</text><text fill="#000000" font-family="sans-serif" font-size="11" lengthAdjust="spacing" textLength="105" x="277" y="393.7627">-Date dtInicioSeriacao</text><text fill="#000000" font-family="sans-serif" font-size="11" lengthAdjust="spacing" textLength="97" x="277" y="407.5986">-Date dtFimSeriacao</text><!--MD5=[475c5b924ed41035684e2831311827d2]
class Candidatura--><rect codeLine="49" fill="#FEFECE" filter="url(#fru2hjwbmlavp)" height="109.1797" id="Candidatura" style="stroke:#A80036;stroke-width:1.5;" width="128" x="1214" y="305"/><ellipse cx="1241.6" cy="321" fill="#ADD1B2" rx="11" ry="11" style="stroke:#A80036;stroke-width:1.0;"/><path d="M1244.3656,316.875 Q1244.5219,316.6563 1244.7094,316.5469 Q1244.8969,316.4375 1245.1156,316.4375 Q1245.4906,316.4375 1245.725,316.7031 Q1245.9594,316.9531 1245.9594,317.5625 L1245.9594,319.0156 Q1245.9594,319.625 1245.725,319.8906 Q1245.4906,320.1563 1245.1156,320.1563 Q1244.7719,320.1563 1244.5688,319.9531 Q1244.3656,319.7656 1244.2563,319.25 Q1244.2094,318.8906 1244.0219,318.7031 Q1243.6938,318.3281 1243.0844,318.1094 Q1242.475,317.8906 1241.85,317.8906 Q1241.0844,317.8906 1240.4438,318.2188 Q1239.8188,318.5469 1239.3188,319.2969 Q1238.8344,320.0469 1238.8344,321.0781 L1238.8344,322.1719 Q1238.8344,323.4063 1239.725,324.2344 Q1240.6156,325.0469 1242.2094,325.0469 Q1243.1469,325.0469 1243.8031,324.7969 Q1244.1938,324.6406 1244.6156,324.2031 Q1244.8813,323.9375 1245.0219,323.8594 Q1245.1781,323.7813 1245.3813,323.7813 Q1245.7094,323.7813 1245.9594,324.0469 Q1246.225,324.2969 1246.225,324.6406 Q1246.225,324.9844 1245.8813,325.3906 Q1245.3813,325.9688 1244.5844,326.2969 Q1243.5063,326.75 1242.2094,326.75 Q1240.6938,326.75 1239.4906,326.125 Q1238.5063,325.625 1237.8188,324.5625 Q1237.1313,323.4844 1237.1313,322.2031 L1237.1313,321.0469 Q1237.1313,319.7188 1237.7406,318.5781 Q1238.3656,317.4219 1239.4594,316.8125 Q1240.5531,316.1875 1241.7875,316.1875 Q1242.5219,316.1875 1243.1625,316.3594 Q1243.8188,316.5156 1244.3656,316.875 Z " fill="#000000"/><text fill="#000000" font-family="sans-serif" font-size="12" lengthAdjust="spacing" textLength="68" x="1258.4" y="325.9102">Candidatura</text><line style="stroke:#A80036;stroke-width:1.5;" x1="1215" x2="1341" y1="337" y2="337"/><text fill="#000000" font-family="sans-serif" font-size="11" lengthAdjust="spacing" textLength="108" x="1220" y="352.4189">-Date dataCandidatura</text><text fill="#000000" font-family="sans-serif" font-size="11" lengthAdjust="spacing" textLength="115" x="1220" y="366.2549">-Double valorPretendido</text><text fill="#000000" font-family="sans-serif" font-size="11" lengthAdjust="spacing" textLength="71" x="1220" y="380.0908">-Integer nrDias</text><text fill="#000000" font-family="sans-serif" font-size="11" lengthAdjust="spacing" textLength="116" x="1220" y="393.9268">-String txtApresentacao</text><text fill="#000000" font-family="sans-serif" font-size="11" lengthAdjust="spacing" textLength="96" x="1220" y="407.7627">-String txtMotivacao</text><!--MD5=[716bba0e94eea125d5a66a891f2c3c34]
class Classificacao--><rect codeLine="58" fill="#FEFECE" filter="url(#fru2hjwbmlavp)" height="53.8359" id="Classificacao" style="stroke:#A80036;stroke-width:1.5;" width="107" x="959.5" y="239.5"/><ellipse cx="974.5" cy="255.5" fill="#ADD1B2" rx="11" ry="11" style="stroke:#A80036;stroke-width:1.0;"/><path d="M977.2656,251.375 Q977.4219,251.1563 977.6094,251.0469 Q977.7969,250.9375 978.0156,250.9375 Q978.3906,250.9375 978.625,251.2031 Q978.8594,251.4531 978.8594,252.0625 L978.8594,253.5156 Q978.8594,254.125 978.625,254.3906 Q978.3906,254.6563 978.0156,254.6563 Q977.6719,254.6563 977.4688,254.4531 Q977.2656,254.2656 977.1563,253.75 Q977.1094,253.3906 976.9219,253.2031 Q976.5938,252.8281 975.9844,252.6094 Q975.375,252.3906 974.75,252.3906 Q973.9844,252.3906 973.3438,252.7188 Q972.7188,253.0469 972.2188,253.7969 Q971.7344,254.5469 971.7344,255.5781 L971.7344,256.6719 Q971.7344,257.9063 972.625,258.7344 Q973.5156,259.5469 975.1094,259.5469 Q976.0469,259.5469 976.7031,259.2969 Q977.0938,259.1406 977.5156,258.7031 Q977.7813,258.4375 977.9219,258.3594 Q978.0781,258.2813 978.2813,258.2813 Q978.6094,258.2813 978.8594,258.5469 Q979.125,258.7969 979.125,259.1406 Q979.125,259.4844 978.7813,259.8906 Q978.2813,260.4688 977.4844,260.7969 Q976.4063,261.25 975.1094,261.25 Q973.5938,261.25 972.3906,260.625 Q971.4063,260.125 970.7188,259.0625 Q970.0313,257.9844 970.0313,256.7031 L970.0313,255.5469 Q970.0313,254.2188 970.6406,253.0781 Q971.2656,251.9219 972.3594,251.3125 Q973.4531,250.6875 974.6875,250.6875 Q975.4219,250.6875 976.0625,250.8594 Q976.7188,251.0156 977.2656,251.375 Z " fill="#000000"/><text fill="#000000" font-family="sans-serif" font-size="12" lengthAdjust="spacing" textLength="75" x="988.5" y="260.4102">Classificacao</text><line style="stroke:#A80036;stroke-width:1.5;" x1="960.5" x2="1065.5" y1="271.5" y2="271.5"/><text fill="#000000" font-family="sans-serif" font-size="11" lengthAdjust="spacing" textLength="64" x="965.5" y="286.9189">-Integer lugar</text><!--MD5=[aca0f236260d30190baee83e33cc7802]
class ProcessoSeriacao--><rect codeLine="63" fill="#FEFECE" filter="url(#fru2hjwbmlavp)" height="53.8359" id="ProcessoSeriacao" style="stroke:#A80036;stroke-width:1.5;" width="134" x="564" y="230.5"/><ellipse cx="579" cy="246.5" fill="#ADD1B2" rx="11" ry="11" style="stroke:#A80036;stroke-width:1.0;"/><path d="M581.7656,242.375 Q581.9219,242.1563 582.1094,242.0469 Q582.2969,241.9375 582.5156,241.9375 Q582.8906,241.9375 583.125,242.2031 Q583.3594,242.4531 583.3594,243.0625 L583.3594,244.5156 Q583.3594,245.125 583.125,245.3906 Q582.8906,245.6563 582.5156,245.6563 Q582.1719,245.6563 581.9688,245.4531 Q581.7656,245.2656 581.6563,244.75 Q581.6094,244.3906 581.4219,244.2031 Q581.0938,243.8281 580.4844,243.6094 Q579.875,243.3906 579.25,243.3906 Q578.4844,243.3906 577.8438,243.7188 Q577.2188,244.0469 576.7188,244.7969 Q576.2344,245.5469 576.2344,246.5781 L576.2344,247.6719 Q576.2344,248.9063 577.125,249.7344 Q578.0156,250.5469 579.6094,250.5469 Q580.5469,250.5469 581.2031,250.2969 Q581.5938,250.1406 582.0156,249.7031 Q582.2813,249.4375 582.4219,249.3594 Q582.5781,249.2813 582.7813,249.2813 Q583.1094,249.2813 583.3594,249.5469 Q583.625,249.7969 583.625,250.1406 Q583.625,250.4844 583.2813,250.8906 Q582.7813,251.4688 581.9844,251.7969 Q580.9063,252.25 579.6094,252.25 Q578.0938,252.25 576.8906,251.625 Q575.9063,251.125 575.2188,250.0625 Q574.5313,248.9844 574.5313,247.7031 L574.5313,246.5469 Q574.5313,245.2188 575.1406,244.0781 Q575.7656,242.9219 576.8594,242.3125 Q577.9531,241.6875 579.1875,241.6875 Q579.9219,241.6875 580.5625,241.8594 Q581.2188,242.0156 581.7656,242.375 Z " fill="#000000"/><text fill="#000000" font-family="sans-serif" font-size="12" lengthAdjust="spacing" textLength="102" x="593" y="251.4102">ProcessoSeriacao</text><line style="stroke:#A80036;stroke-width:1.5;" x1="565" x2="697" y1="262.5" y2="262.5"/><text fill="#000000" font-family="sans-serif" font-size="11" lengthAdjust="spacing" textLength="103" x="570" y="277.9189">-Date dataRealizacao</text><!--MD5=[1c2ad462e362697fcdc859a6327d55c7]
link Plataforma to Organizacao--><path codeLine="69" d="M86.67,405.36 C102.09,390.16 121.87,371.01 140,354.5 C241.83,261.77 365.53,158.06 432.9,102.29 " fill="none" id="Plataforma-Organizacao" style="stroke:#A80036;stroke-width:1.0;"/><polygon fill="#000000" points="148.7622,254.3825,140.0206,258.1287,143.892,262.5515,148.7622,254.3825" style="stroke:#000000;stroke-width:1.0;"/><text fill="#000000" font-family="sans-serif" font-size="13" lengthAdjust="spacing" textLength="86" x="154" y="262.9951">tem registadas</text><text fill="#000000" font-family="sans-serif" font-size="13" lengthAdjust="spacing" textLength="7" x="85.3749" y="394.7886">1</text><text fill="#000000" font-family="sans-serif" font-size="13" lengthAdjust="spacing" textLength="5" x="420.1009" y="122.9638">*</text><!--MD5=[956ecced288de5de0c5f024757c210bf]
link Plataforma to TipoRegimento--><path codeLine="70" d="M110.23,434.03 C221.88,437.3 497.29,444.91 728,447.5 C803.56,448.35 890.43,447.82 947.99,447.26 " fill="none" id="Plataforma-TipoRegimento" style="stroke:#A80036;stroke-width:1.0;"/><polygon fill="#000000" points="464.4994,432.7547,455.5018,429.6733,455.409,435.5505,464.4994,432.7547" style="stroke:#000000;stroke-width:1.0;"/><text fill="#000000" font-family="sans-serif" font-size="13" lengthAdjust="spacing" textLength="43" x="468.5" y="437.9951">suporta</text><text fill="#000000" font-family="sans-serif" font-size="13" lengthAdjust="spacing" textLength="7" x="117.9967" y="448.9015">1</text><text fill="#000000" font-family="sans-serif" font-size="13" lengthAdjust="spacing" textLength="5" x="935.1842" y="461.8073">*</text><!--MD5=[3d9e8e0d764359bffb897b36dc4b633a]
link Plataforma to Anuncio--><path codeLine="71" d="M110.21,417.83 C155.43,404.75 221.86,385.52 270.97,371.32 " fill="none" id="Plataforma-Anuncio" style="stroke:#A80036;stroke-width:1.0;"/><polygon fill="#000000" points="168.803,370.2862,159.2975,369.9768,160.931,375.6231,168.803,370.2862" style="stroke:#000000;stroke-width:1.0;"/><text fill="#000000" font-family="sans-serif" font-size="13" lengthAdjust="spacing" textLength="48" x="173" y="376.9951">publicita</text><text fill="#000000" font-family="sans-serif" font-size="13" lengthAdjust="spacing" textLength="7" x="117.9739" y="430.4234">1</text><text fill="#000000" font-family="sans-serif" font-size="13" lengthAdjust="spacing" textLength="5" x="258.0462" y="387.9356">*</text><!--MD5=[39c0de7668d8063a4eb96c23050b3de2]
link Plataforma to Freelancer--><path codeLine="72" d="M87.05,459.66 C133.95,502.89 234.15,582.5 336,582.5 C336,582.5 336,582.5 1279,582.5 C1353.62,582.5 1439.68,570.23 1490.73,561.66 " fill="none" id="Plataforma-Freelancer" style="stroke:#A80036;stroke-width:1.0;"/><polygon fill="#000000" points="801.9869,574.0382,793.1786,570.4514,792.7526,576.3138,801.9869,574.0382" style="stroke:#000000;stroke-width:1.0;"/><text fill="#000000" font-family="sans-serif" font-size="13" lengthAdjust="spacing" textLength="47" x="806" y="578.9951">tem/usa</text><text fill="#000000" font-family="sans-serif" font-size="13" lengthAdjust="spacing" textLength="7" x="85.5297" y="480.9028">1</text><text fill="#000000" font-family="sans-serif" font-size="13" lengthAdjust="spacing" textLength="5" x="1478.037" y="577.7312">*</text><!--MD5=[567db691f9836c63f305bad1024cbc66]
link Organizacao to Colaborador--><path codeLine="74" d="M534.28,65.77 C615.27,73.24 780.38,90.56 918,118.5 C932.44,121.43 947.92,125.37 962.06,129.3 " fill="none" id="Organizacao-Colaborador" style="stroke:#A80036;stroke-width:1.0;"/><polygon fill="#000000" points="622.4458,61.4103,613.9305,57.1745,613.0671,62.9886,622.4458,61.4103" style="stroke:#000000;stroke-width:1.0;"/><text fill="#000000" font-family="sans-serif" font-size="13" lengthAdjust="spacing" textLength="22" x="626.5" y="65.9951">tem</text><text fill="#000000" font-family="sans-serif" font-size="13" lengthAdjust="spacing" textLength="7" x="541.9131" y="81.0027">1</text><text fill="#000000" font-family="sans-serif" font-size="13" lengthAdjust="spacing" textLength="20" x="934.6329" y="141.9181">1..*</text><!--MD5=[3fb03004f687adcfc695220fdd65ad26]
link Anuncio to TipoRegimento--><path codeLine="76" d="M403.14,371.53 C413.09,374.09 423.28,376.51 433,378.5 C617.68,416.29 840.11,435.09 947.6,442.52 " fill="none" id="Anuncio-TipoRegimento" style="stroke:#A80036;stroke-width:1.0;"/><polygon fill="#000000" points="600.958,393.3222,592.3688,389.2385,591.6089,395.067,600.958,393.3222" style="stroke:#000000;stroke-width:1.0;"/><text fill="#000000" font-family="sans-serif" font-size="13" lengthAdjust="spacing" textLength="65" x="605" y="397.9951">rege-se por</text><text fill="#000000" font-family="sans-serif" font-size="13" lengthAdjust="spacing" textLength="5" x="411.0765" y="388.1699">*</text><text fill="#000000" font-family="sans-serif" font-size="13" lengthAdjust="spacing" textLength="7" x="933.0641" y="438.742">1</text><!--MD5=[0a535575571876f6213287bf563a867d]
link Anuncio to Colaborador--><path codeLine="77" d="M399.04,290.86 C409.84,281.67 421.37,272.84 433,265.5 C604.74,157.12 856.64,143.98 962.38,143.61 " fill="none" id="Anuncio-Colaborador" style="stroke:#A80036;stroke-width:1.0;"/><polygon fill="#000000" points="594.8375,160.4113,585.3432,159.8554,586.8296,165.5421,594.8375,160.4113" style="stroke:#000000;stroke-width:1.0;"/><text fill="#000000" font-family="sans-serif" font-size="13" lengthAdjust="spacing" textLength="77" x="599" y="166.9951">publicado por</text><text fill="#000000" font-family="sans-serif" font-size="13" lengthAdjust="spacing" textLength="5" x="400.9243" y="280.3224">*</text><text fill="#000000" font-family="sans-serif" font-size="13" lengthAdjust="spacing" textLength="7" x="947.4311" y="158.15">1</text><!--MD5=[27b52c98fcb5387c047ce09b42fcb62d]
link Anuncio to Candidatura--><path codeLine="78" d="M403.19,355.56 C480.62,359.02 613.69,364.45 728,366.5 C812.43,368.01 833.56,367.32 918,366.5 C1021.63,365.49 1142.07,362.84 1213.78,361.11 " fill="none" id="Anuncio-Candidatura" style="stroke:#A80036;stroke-width:1.0;"/><polygon fill="#000000" points="805.9999,357.71,796.9751,354.7092,796.9349,360.5869,805.9999,357.71" style="stroke:#000000;stroke-width:1.0;"/><text fill="#000000" font-family="sans-serif" font-size="13" lengthAdjust="spacing" textLength="39" x="810" y="362.9951">recebe</text><text fill="#000000" font-family="sans-serif" font-size="13" lengthAdjust="spacing" textLength="7" x="410.8123" y="370.2832">1</text><text fill="#000000" font-family="sans-serif" font-size="13" lengthAdjust="spacing" textLength="5" x="1201.0655" y="375.7262">*</text><!--MD5=[02d330b3691aaed85c2b7230cc23c1df]
link Anuncio to ProcessoSeriacao--><path codeLine="79" d="M403.17,331.3 C450.99,315.74 515.7,294.69 563.77,279.05 " fill="none" id="Anuncio-ProcessoSeriacao" style="stroke:#A80036;stroke-width:1.0;"/><polygon fill="#000000" points="461.2547,281.1289,451.7441,281.1325,453.5626,286.722,461.2547,281.1289" style="stroke:#000000;stroke-width:1.0;"/><text fill="#000000" font-family="sans-serif" font-size="13" lengthAdjust="spacing" textLength="49" x="465.5" y="287.9951">espoleta</text><text fill="#000000" font-family="sans-serif" font-size="13" lengthAdjust="spacing" textLength="7" x="410.7902" y="343.3697">1</text><text fill="#000000" font-family="sans-serif" font-size="13" lengthAdjust="spacing" textLength="22" x="534.0692" y="295.4793">0..1</text><!--MD5=[a66e767a4304f5fa76db98d7839a7a61]
link Candidatura to Freelancer--><path codeLine="81" d="M1342.08,407.21 C1388.21,442.1 1449.66,488.58 1490.8,519.7 " fill="none" id="Candidatura-Freelancer" style="stroke:#A80036;stroke-width:1.0;"/><polygon fill="#000000" points="1380.9877,426.6921,1375.5468,418.8916,1372.0009,423.5795,1380.9877,426.6921" style="stroke:#000000;stroke-width:1.0;"/><text fill="#000000" font-family="sans-serif" font-size="13" lengthAdjust="spacing" textLength="74" x="1386" y="428.9951">realizada por</text><text fill="#000000" font-family="sans-serif" font-size="13" lengthAdjust="spacing" textLength="5" x="1350.1944" y="427.5052">*</text><text fill="#000000" font-family="sans-serif" font-size="13" lengthAdjust="spacing" textLength="7" x="1475.9588" y="529.0839">1</text><!--MD5=[577fefe1351fe0f89ea5388d9641a019]
link ProcessoSeriacao to TipoRegimento--><path codeLine="83" d="M698.15,280.95 C708.12,284.28 718.3,287.56 728,290.5 C811.57,315.82 843.62,294.76 918,340.5 C947.44,358.6 972.88,388.76 989.84,412.29 " fill="none" id="ProcessoSeriacao-TipoRegimento" style="stroke:#A80036;stroke-width:1.0;"/><polygon fill="#000000" points="737.5591,283.7286,730.5182,277.3352,728.1049,282.6948,737.5591,283.7286" style="stroke:#000000;stroke-width:1.0;"/><text fill="#000000" font-family="sans-serif" font-size="13" lengthAdjust="spacing" textLength="175" x="742" y="286.9951">decorre em concordância com</text><text fill="#000000" font-family="sans-serif" font-size="13" lengthAdjust="spacing" textLength="5" x="706.2033" y="298.1113">*</text><text fill="#000000" font-family="sans-serif" font-size="13" lengthAdjust="spacing" textLength="7" x="977.5913" y="401.5419">1</text><!--MD5=[d8cba5363504d1c2665cc78c5e9b9c32]
link ProcessoSeriacao to Colaborador--><path codeLine="84" d="M698.27,241.6 C781.92,221.51 915.36,189.43 918,188.5 C932.62,183.37 948.03,176.72 962.04,170.16 " fill="none" id="ProcessoSeriacao-Colaborador" style="stroke:#A80036;stroke-width:1.0;"/><polygon fill="#000000" points="788.3261,178.3687,778.8273,177.8965,780.3639,183.57,788.3261,178.3687" style="stroke:#000000;stroke-width:1.0;"/><text fill="#000000" font-family="sans-serif" font-size="13" lengthAdjust="spacing" textLength="74" x="792.5" y="184.9951">realizado por</text><text fill="#000000" font-family="sans-serif" font-size="13" lengthAdjust="spacing" textLength="7" x="706.0105" y="254.2593">1</text><text fill="#000000" font-family="sans-serif" font-size="13" lengthAdjust="spacing" textLength="20" x="934.6105" y="187.7579">1..*</text><!--MD5=[52bd50d7906bad09d4dfcc260d1229dc]
link ProcessoSeriacao to Classificacao--><path codeLine="85" d="M698.19,259.07 C772.4,260.83 891.25,263.64 959.4,265.25 " fill="none" id="ProcessoSeriacao-Classificacao" style="stroke:#A80036;stroke-width:1.0;"/><polygon fill="#000000" points="805.9986,251.794,797.0256,248.642,796.8865,254.5182,805.9986,251.794" style="stroke:#000000;stroke-width:1.0;"/><text fill="#000000" font-family="sans-serif" font-size="13" lengthAdjust="spacing" textLength="39" x="810" y="256.9951">resulta</text><text fill="#000000" font-family="sans-serif" font-size="13" lengthAdjust="spacing" textLength="7" x="705.9217" y="273.64">1</text><text fill="#000000" font-family="sans-serif" font-size="13" lengthAdjust="spacing" textLength="5" x="946.5109" y="279.7306">*</text><!--MD5=[471b8c6ff5fcf31b4b6fb9b4f947344d]
link Classificacao to Candidatura--><path codeLine="87" d="M1066.59,285.1 C1109.01,300.1 1168.82,321.25 1213.84,337.16 " fill="none" id="Classificacao-Candidatura" style="stroke:#A80036;stroke-width:1.0;"/><polygon fill="#000000" points="1117.7141,294.3424,1110.1659,288.5566,1108.2066,294.0983,1117.7141,294.3424" style="stroke:#000000;stroke-width:1.0;"/><text fill="#000000" font-family="sans-serif" font-size="13" lengthAdjust="spacing" textLength="61" x="1122" y="297.9951">referente a</text><text fill="#000000" font-family="sans-serif" font-size="13" lengthAdjust="spacing" textLength="22" x="1074.4619" y="301.8684">0..1</text><text fill="#000000" font-family="sans-serif" font-size="13" lengthAdjust="spacing" textLength="7" x="1199.0168" y="349.007">1</text><!--MD5=[373ac54aaa18ee9205186507e2379708]
@startuml

skinparam classAttributeIconSize 0
hide methods
left to right direction

class Plataforma {
  -String designacao
}

class Organizacao {
  -String nome
  -String NIF
  -String website
  -String telefone
  -String email
}

class Colaborador {
  -String nome
  -String funcao
  -String telefone
  -String email
}

class TipoRegimento
{
    -String designacao
    -String descricaoRegras
}


class Freelancer {
    -String nome
    -String NIF
    -String telefone
    -String email
}

class Anuncio
{
    -Date dtInicioPublicitacao
    -Date dtFimPublicitacao
    -Date dtInicioCandidatura
    -Date dtFimCandidatura
    -Date dtInicioSeriacao
    -Date dtFimSeriacao
}

class Candidatura
{
    -Date dataCandidatura
    -Double valorPretendido
    -Integer nrDias
    -String txtApresentacao
    -String txtMotivacao
}

class Classificacao
{
    -Integer lugar
}

class ProcessoSeriacao
{
    -Date dataRealizacao
}


Plataforma "1" - - "*" Organizacao : tem registadas >
Plataforma "1" - - "*" TipoRegimento : suporta >
Plataforma "1" - - "*" Anuncio : publicita >
Plataforma "1" - - "*" Freelancer : tem/usa  >

Organizacao "1" - - "1..*" Colaborador: tem >

Anuncio "*" - - "1" TipoRegimento: rege-se por >
Anuncio "*" - - "1" Colaborador: publicado por >
Anuncio "1" - - "*" Candidatura: recebe >
Anuncio "1" - - "0..1" ProcessoSeriacao: espoleta >

Candidatura "*" - - "1"  Freelancer: realizada por >

ProcessoSeriacao "*" - - "1" TipoRegimento: decorre em concordância com >
ProcessoSeriacao "1" - - "1..*" Colaborador: realizado por >
ProcessoSeriacao "1" - - "*" Classificacao: resulta >

Classificacao "0..1" - - "1" Candidatura: referente a >


@enduml

PlantUML version 1.2021.00(Sun Jan 10 10:25:05 WET 2021)
(GPL source distribution)
Java Runtime: Java(TM) SE Runtime Environment
JVM: Java HotSpot(TM) 64-Bit Server VM
Default Encoding: Cp1252
Language: pt
Country: PT
--></g></svg>