<?xml version="1.0" encoding="UTF-8" standalone="no"?><svg xmlns="http://www.w3.org/2000/svg" xmlns:xlink="http://www.w3.org/1999/xlink" contentScriptType="application/ecmascript" contentStyleType="text/css" height="615px" preserveAspectRatio="none" style="width:2405px;height:615px;" version="1.1" viewBox="0 0 2405 615" width="2405px" zoomAndPan="magnify"><defs><filter height="300%" id="f14f8i79vdvz5e" width="300%" x="-1" y="-1"><feGaussianBlur result="blurOut" stdDeviation="2.0"/><feColorMatrix in="blurOut" result="blurOut2" type="matrix" values="0 0 0 0 0 0 0 0 0 0 0 0 0 0 0 0 0 0 .4 0"/><feOffset dx="4.0" dy="4.0" in="blurOut2" result="blurOut3"/><feBlend in="SourceGraphic" in2="blurOut3" mode="normal"/></filter></defs><g><!--MD5=[45c085eda1c3f4134106f99137518c4e]
class SeriarAnuncioUI--><rect codeLine="4" fill="#FEFECE" filter="url(#f14f8i79vdvz5e)" height="48" id="SeriarAnuncioUI" style="stroke:#A80036;stroke-width:1.5;" width="121" x="7" y="152"/><ellipse cx="22" cy="168" fill="#ADD1B2" rx="11" ry="11" style="stroke:#A80036;stroke-width:1.0;"/><path d="M24.7656,163.875 Q24.9219,163.6563 25.1094,163.5469 Q25.2969,163.4375 25.5156,163.4375 Q25.8906,163.4375 26.125,163.7031 Q26.3594,163.9531 26.3594,164.5625 L26.3594,166.0156 Q26.3594,166.625 26.125,166.8906 Q25.8906,167.1563 25.5156,167.1563 Q25.1719,167.1563 24.9688,166.9531 Q24.7656,166.7656 24.6563,166.25 Q24.6094,165.8906 24.4219,165.7031 Q24.0938,165.3281 23.4844,165.1094 Q22.875,164.8906 22.25,164.8906 Q21.4844,164.8906 20.8438,165.2188 Q20.2188,165.5469 19.7188,166.2969 Q19.2344,167.0469 19.2344,168.0781 L19.2344,169.1719 Q19.2344,170.4063 20.125,171.2344 Q21.0156,172.0469 22.6094,172.0469 Q23.5469,172.0469 24.2031,171.7969 Q24.5938,171.6406 25.0156,171.2031 Q25.2813,170.9375 25.4219,170.8594 Q25.5781,170.7813 25.7813,170.7813 Q26.1094,170.7813 26.3594,171.0469 Q26.625,171.2969 26.625,171.6406 Q26.625,171.9844 26.2813,172.3906 Q25.7813,172.9688 24.9844,173.2969 Q23.9063,173.75 22.6094,173.75 Q21.0938,173.75 19.8906,173.125 Q18.9063,172.625 18.2188,171.5625 Q17.5313,170.4844 17.5313,169.2031 L17.5313,168.0469 Q17.5313,166.7188 18.1406,165.5781 Q18.7656,164.4219 19.8594,163.8125 Q20.9531,163.1875 22.1875,163.1875 Q22.9219,163.1875 23.5625,163.3594 Q24.2188,163.5156 24.7656,163.875 Z " fill="#000000"/><text fill="#000000" font-family="sans-serif" font-size="12" lengthAdjust="spacing" textLength="89" x="36" y="172.9102">SeriarAnuncioUI</text><line style="stroke:#A80036;stroke-width:1.5;" x1="8" x2="127" y1="184" y2="184"/><line style="stroke:#A80036;stroke-width:1.5;" x1="8" x2="127" y1="192" y2="192"/><!--MD5=[275fa48f777b95aba21c758391a58e25]
class SeriarAnuncioController--><rect codeLine="6" fill="#FEFECE" filter="url(#f14f8i79vdvz5e)" height="131.0156" id="SeriarAnuncioController" style="stroke:#A80036;stroke-width:1.5;" width="211" x="189" y="110.5"/><ellipse cx="225.6" cy="126.5" fill="#ADD1B2" rx="11" ry="11" style="stroke:#A80036;stroke-width:1.0;"/><path d="M228.3656,122.375 Q228.5219,122.1563 228.7094,122.0469 Q228.8969,121.9375 229.1156,121.9375 Q229.4906,121.9375 229.725,122.2031 Q229.9594,122.4531 229.9594,123.0625 L229.9594,124.5156 Q229.9594,125.125 229.725,125.3906 Q229.4906,125.6563 229.1156,125.6563 Q228.7719,125.6563 228.5688,125.4531 Q228.3656,125.2656 228.2563,124.75 Q228.2094,124.3906 228.0219,124.2031 Q227.6938,123.8281 227.0844,123.6094 Q226.475,123.3906 225.85,123.3906 Q225.0844,123.3906 224.4438,123.7188 Q223.8188,124.0469 223.3188,124.7969 Q222.8344,125.5469 222.8344,126.5781 L222.8344,127.6719 Q222.8344,128.9063 223.725,129.7344 Q224.6156,130.5469 226.2094,130.5469 Q227.1469,130.5469 227.8031,130.2969 Q228.1938,130.1406 228.6156,129.7031 Q228.8813,129.4375 229.0219,129.3594 Q229.1781,129.2813 229.3813,129.2813 Q229.7094,129.2813 229.9594,129.5469 Q230.225,129.7969 230.225,130.1406 Q230.225,130.4844 229.8813,130.8906 Q229.3813,131.4688 228.5844,131.7969 Q227.5063,132.25 226.2094,132.25 Q224.6938,132.25 223.4906,131.625 Q222.5063,131.125 221.8188,130.0625 Q221.1313,128.9844 221.1313,127.7031 L221.1313,126.5469 Q221.1313,125.2188 221.7406,124.0781 Q222.3656,122.9219 223.4594,122.3125 Q224.5531,121.6875 225.7875,121.6875 Q226.5219,121.6875 227.1625,121.8594 Q227.8188,122.0156 228.3656,122.375 Z " fill="#000000"/><text fill="#000000" font-family="sans-serif" font-size="12" lengthAdjust="spacing" textLength="131" x="244.4" y="131.4102">SeriarAnuncioController</text><line style="stroke:#A80036;stroke-width:1.5;" x1="190" x2="399" y1="142.5" y2="142.5"/><line style="stroke:#A80036;stroke-width:1.5;" x1="190" x2="399" y1="150.5" y2="150.5"/><text fill="#000000" font-family="sans-serif" font-size="11" lengthAdjust="spacing" textLength="199" x="195" y="165.9189">+getAnunciosPorSeriarNaoAutomaticos()</text><text fill="#000000" font-family="sans-serif" font-size="11" lengthAdjust="spacing" textLength="139" x="195" y="179.7549">+getCandidaturas(anuncioId)</text><text fill="#000000" font-family="sans-serif" font-size="11" lengthAdjust="spacing" textLength="128" x="195" y="193.5908">+classifica(candId, ordem)</text><text fill="#000000" font-family="sans-serif" font-size="11" lengthAdjust="spacing" textLength="100" x="195" y="207.4268">+getColaboradores()</text><text fill="#000000" font-family="sans-serif" font-size="11" lengthAdjust="spacing" textLength="131" x="195" y="221.2627">+addParticipante(emailPart)</text><text fill="#000000" font-family="sans-serif" font-size="11" lengthAdjust="spacing" textLength="136" x="195" y="235.0986">+registaProcessoSeriacao()</text><!--MD5=[ecaed46f78f8cfe1e9ce18477649be18]
class Plataforma--><rect codeLine="16" fill="#FEFECE" filter="url(#f14f8i79vdvz5e)" height="89.5078" id="Plataforma" style="stroke:#A80036;stroke-width:1.5;" width="145" x="461" y="131"/><ellipse cx="499.85" cy="147" fill="#ADD1B2" rx="11" ry="11" style="stroke:#A80036;stroke-width:1.0;"/><path d="M502.6156,142.875 Q502.7719,142.6563 502.9594,142.5469 Q503.1469,142.4375 503.3656,142.4375 Q503.7406,142.4375 503.975,142.7031 Q504.2094,142.9531 504.2094,143.5625 L504.2094,145.0156 Q504.2094,145.625 503.975,145.8906 Q503.7406,146.1563 503.3656,146.1563 Q503.0219,146.1563 502.8188,145.9531 Q502.6156,145.7656 502.5063,145.25 Q502.4594,144.8906 502.2719,144.7031 Q501.9438,144.3281 501.3344,144.1094 Q500.725,143.8906 500.1,143.8906 Q499.3344,143.8906 498.6938,144.2188 Q498.0688,144.5469 497.5688,145.2969 Q497.0844,146.0469 497.0844,147.0781 L497.0844,148.1719 Q497.0844,149.4063 497.975,150.2344 Q498.8656,151.0469 500.4594,151.0469 Q501.3969,151.0469 502.0531,150.7969 Q502.4438,150.6406 502.8656,150.2031 Q503.1313,149.9375 503.2719,149.8594 Q503.4281,149.7813 503.6313,149.7813 Q503.9594,149.7813 504.2094,150.0469 Q504.475,150.2969 504.475,150.6406 Q504.475,150.9844 504.1313,151.3906 Q503.6313,151.9688 502.8344,152.2969 Q501.7563,152.75 500.4594,152.75 Q498.9438,152.75 497.7406,152.125 Q496.7563,151.625 496.0688,150.5625 Q495.3813,149.4844 495.3813,148.2031 L495.3813,147.0469 Q495.3813,145.7188 495.9906,144.5781 Q496.6156,143.4219 497.7094,142.8125 Q498.8031,142.1875 500.0375,142.1875 Q500.7719,142.1875 501.4125,142.3594 Q502.0688,142.5156 502.6156,142.875 Z " fill="#000000"/><text fill="#000000" font-family="sans-serif" font-size="12" lengthAdjust="spacing" textLength="60" x="519.15" y="151.9102">Plataforma</text><line style="stroke:#A80036;stroke-width:1.5;" x1="462" x2="605" y1="163" y2="163"/><text fill="#000000" font-family="sans-serif" font-size="11" lengthAdjust="spacing" textLength="91" x="467" y="178.4189">-String designacao</text><line style="stroke:#A80036;stroke-width:1.5;" x1="462" x2="605" y1="184.8359" y2="184.8359"/><text fill="#000000" font-family="sans-serif" font-size="11" lengthAdjust="spacing" textLength="133" x="467" y="200.2549">+getRegistoOrganizacoes()</text><text fill="#000000" font-family="sans-serif" font-size="11" lengthAdjust="spacing" textLength="111" x="467" y="214.0908">+getRegistoAnuncios()</text><!--MD5=[548bd8e9f0dc9261535ca7b7174ac939]
class RegistoOrganizacoes--><rect codeLine="22" fill="#FEFECE" filter="url(#f14f8i79vdvz5e)" height="61.8359" id="RegistoOrganizacoes" style="stroke:#A80036;stroke-width:1.5;" width="208" x="704.5" y="81"/><ellipse cx="745.15" cy="97" fill="#ADD1B2" rx="11" ry="11" style="stroke:#A80036;stroke-width:1.0;"/><path d="M747.9156,92.875 Q748.0719,92.6563 748.2594,92.5469 Q748.4469,92.4375 748.6656,92.4375 Q749.0406,92.4375 749.275,92.7031 Q749.5094,92.9531 749.5094,93.5625 L749.5094,95.0156 Q749.5094,95.625 749.275,95.8906 Q749.0406,96.1563 748.6656,96.1563 Q748.3219,96.1563 748.1188,95.9531 Q747.9156,95.7656 747.8063,95.25 Q747.7594,94.8906 747.5719,94.7031 Q747.2438,94.3281 746.6344,94.1094 Q746.025,93.8906 745.4,93.8906 Q744.6344,93.8906 743.9938,94.2188 Q743.3688,94.5469 742.8688,95.2969 Q742.3844,96.0469 742.3844,97.0781 L742.3844,98.1719 Q742.3844,99.4063 743.275,100.2344 Q744.1656,101.0469 745.7594,101.0469 Q746.6969,101.0469 747.3531,100.7969 Q747.7438,100.6406 748.1656,100.2031 Q748.4313,99.9375 748.5719,99.8594 Q748.7281,99.7813 748.9313,99.7813 Q749.2594,99.7813 749.5094,100.0469 Q749.775,100.2969 749.775,100.6406 Q749.775,100.9844 749.4313,101.3906 Q748.9313,101.9688 748.1344,102.2969 Q747.0563,102.75 745.7594,102.75 Q744.2438,102.75 743.0406,102.125 Q742.0563,101.625 741.3688,100.5625 Q740.6813,99.4844 740.6813,98.2031 L740.6813,97.0469 Q740.6813,95.7188 741.2906,94.5781 Q741.9156,93.4219 743.0094,92.8125 Q744.1031,92.1875 745.3375,92.1875 Q746.0719,92.1875 746.7125,92.3594 Q747.3688,92.5156 747.9156,92.875 Z " fill="#000000"/><text fill="#000000" font-family="sans-serif" font-size="12" lengthAdjust="spacing" textLength="119" x="764.85" y="101.9102">RegistoOrganizacoes</text><line style="stroke:#A80036;stroke-width:1.5;" x1="705.5" x2="911.5" y1="113" y2="113"/><line style="stroke:#A80036;stroke-width:1.5;" x1="705.5" x2="911.5" y1="121" y2="121"/><text fill="#000000" font-family="sans-serif" font-size="11" lengthAdjust="spacing" textLength="196" x="710.5" y="136.4189">+getOrganizacaoByEmailUtilizador(email)</text><!--MD5=[a7dddfa65532da486ef518ad0cedfd89]
class RegistoAnuncios--><rect codeLine="26" fill="#FEFECE" filter="url(#f14f8i79vdvz5e)" height="75.6719" id="RegistoAnuncios" style="stroke:#A80036;stroke-width:1.5;" width="237" x="690" y="190"/><ellipse cx="757.25" cy="206" fill="#ADD1B2" rx="11" ry="11" style="stroke:#A80036;stroke-width:1.0;"/><path d="M760.0156,201.875 Q760.1719,201.6563 760.3594,201.5469 Q760.5469,201.4375 760.7656,201.4375 Q761.1406,201.4375 761.375,201.7031 Q761.6094,201.9531 761.6094,202.5625 L761.6094,204.0156 Q761.6094,204.625 761.375,204.8906 Q761.1406,205.1563 760.7656,205.1563 Q760.4219,205.1563 760.2188,204.9531 Q760.0156,204.7656 759.9063,204.25 Q759.8594,203.8906 759.6719,203.7031 Q759.3438,203.3281 758.7344,203.1094 Q758.125,202.8906 757.5,202.8906 Q756.7344,202.8906 756.0938,203.2188 Q755.4688,203.5469 754.9688,204.2969 Q754.4844,205.0469 754.4844,206.0781 L754.4844,207.1719 Q754.4844,208.4063 755.375,209.2344 Q756.2656,210.0469 757.8594,210.0469 Q758.7969,210.0469 759.4531,209.7969 Q759.8438,209.6406 760.2656,209.2031 Q760.5313,208.9375 760.6719,208.8594 Q760.8281,208.7813 761.0313,208.7813 Q761.3594,208.7813 761.6094,209.0469 Q761.875,209.2969 761.875,209.6406 Q761.875,209.9844 761.5313,210.3906 Q761.0313,210.9688 760.2344,211.2969 Q759.1563,211.75 757.8594,211.75 Q756.3438,211.75 755.1406,211.125 Q754.1563,210.625 753.4688,209.5625 Q752.7813,208.4844 752.7813,207.2031 L752.7813,206.0469 Q752.7813,204.7188 753.3906,203.5781 Q754.0156,202.4219 755.1094,201.8125 Q756.2031,201.1875 757.4375,201.1875 Q758.1719,201.1875 758.8125,201.3594 Q759.4688,201.5156 760.0156,201.875 Z " fill="#000000"/><text fill="#000000" font-family="sans-serif" font-size="12" lengthAdjust="spacing" textLength="94" x="777.75" y="210.9102">RegistoAnuncios</text><line style="stroke:#A80036;stroke-width:1.5;" x1="691" x2="926" y1="222" y2="222"/><line style="stroke:#A80036;stroke-width:1.5;" x1="691" x2="926" y1="230" y2="230"/><text fill="#000000" font-family="sans-serif" font-size="11" lengthAdjust="spacing" textLength="225" x="696" y="245.4189">+getAnunciosPorSeriarNaoAutomaticos(colab)</text><text fill="#000000" font-family="sans-serif" font-size="11" lengthAdjust="spacing" textLength="209" x="696" y="259.2549">+getAnuncioPublicadoPor(colab, anuncioId)</text><!--MD5=[807977ceb130c090ed5febfb6de2bdea]
class Organizacao--><rect codeLine="31" fill="#FEFECE" filter="url(#f14f8i79vdvz5e)" height="131.0156" id="Organizacao" style="stroke:#A80036;stroke-width:1.5;" width="135" x="1090" y="33.5"/><ellipse cx="1120.3" cy="49.5" fill="#ADD1B2" rx="11" ry="11" style="stroke:#A80036;stroke-width:1.0;"/><path d="M1123.0656,45.375 Q1123.2219,45.1563 1123.4094,45.0469 Q1123.5969,44.9375 1123.8156,44.9375 Q1124.1906,44.9375 1124.425,45.2031 Q1124.6594,45.4531 1124.6594,46.0625 L1124.6594,47.5156 Q1124.6594,48.125 1124.425,48.3906 Q1124.1906,48.6563 1123.8156,48.6563 Q1123.4719,48.6563 1123.2688,48.4531 Q1123.0656,48.2656 1122.9563,47.75 Q1122.9094,47.3906 1122.7219,47.2031 Q1122.3938,46.8281 1121.7844,46.6094 Q1121.175,46.3906 1120.55,46.3906 Q1119.7844,46.3906 1119.1438,46.7188 Q1118.5188,47.0469 1118.0188,47.7969 Q1117.5344,48.5469 1117.5344,49.5781 L1117.5344,50.6719 Q1117.5344,51.9063 1118.425,52.7344 Q1119.3156,53.5469 1120.9094,53.5469 Q1121.8469,53.5469 1122.5031,53.2969 Q1122.8938,53.1406 1123.3156,52.7031 Q1123.5813,52.4375 1123.7219,52.3594 Q1123.8781,52.2813 1124.0813,52.2813 Q1124.4094,52.2813 1124.6594,52.5469 Q1124.925,52.7969 1124.925,53.1406 Q1124.925,53.4844 1124.5813,53.8906 Q1124.0813,54.4688 1123.2844,54.7969 Q1122.2063,55.25 1120.9094,55.25 Q1119.3938,55.25 1118.1906,54.625 Q1117.2063,54.125 1116.5188,53.0625 Q1115.8313,51.9844 1115.8313,50.7031 L1115.8313,49.5469 Q1115.8313,48.2188 1116.4406,47.0781 Q1117.0656,45.9219 1118.1594,45.3125 Q1119.2531,44.6875 1120.4875,44.6875 Q1121.2219,44.6875 1121.8625,44.8594 Q1122.5188,45.0156 1123.0656,45.375 Z " fill="#000000"/><text fill="#000000" font-family="sans-serif" font-size="12" lengthAdjust="spacing" textLength="69" x="1137.7" y="54.4102">Organizacao</text><line style="stroke:#A80036;stroke-width:1.5;" x1="1091" x2="1224" y1="65.5" y2="65.5"/><text fill="#000000" font-family="sans-serif" font-size="11" lengthAdjust="spacing" textLength="61" x="1096" y="80.9189">-String nome</text><text fill="#000000" font-family="sans-serif" font-size="11" lengthAdjust="spacing" textLength="50" x="1096" y="94.7549">-String NIF</text><text fill="#000000" font-family="sans-serif" font-size="11" lengthAdjust="spacing" textLength="74" x="1096" y="108.5908">-String website</text><text fill="#000000" font-family="sans-serif" font-size="11" lengthAdjust="spacing" textLength="74" x="1096" y="122.4268">-String telefone</text><text fill="#000000" font-family="sans-serif" font-size="11" lengthAdjust="spacing" textLength="59" x="1096" y="136.2627">-String email</text><line style="stroke:#A80036;stroke-width:1.5;" x1="1091" x2="1224" y1="142.6797" y2="142.6797"/><text fill="#000000" font-family="sans-serif" font-size="11" lengthAdjust="spacing" textLength="123" x="1096" y="158.0986">+getListaColaboradores()</text><!--MD5=[b68e9dcbea6113d6a9f07fad964dd27a]
class ListaColaboradores--><rect codeLine="40" fill="#FEFECE" filter="url(#f14f8i79vdvz5e)" height="75.6719" id="ListaColaboradores" style="stroke:#A80036;stroke-width:1.5;" width="161" x="1362" y="90"/><ellipse cx="1385.55" cy="106" fill="#ADD1B2" rx="11" ry="11" style="stroke:#A80036;stroke-width:1.0;"/><path d="M1388.3156,101.875 Q1388.4719,101.6563 1388.6594,101.5469 Q1388.8469,101.4375 1389.0656,101.4375 Q1389.4406,101.4375 1389.675,101.7031 Q1389.9094,101.9531 1389.9094,102.5625 L1389.9094,104.0156 Q1389.9094,104.625 1389.675,104.8906 Q1389.4406,105.1563 1389.0656,105.1563 Q1388.7219,105.1563 1388.5188,104.9531 Q1388.3156,104.7656 1388.2063,104.25 Q1388.1594,103.8906 1387.9719,103.7031 Q1387.6438,103.3281 1387.0344,103.1094 Q1386.425,102.8906 1385.8,102.8906 Q1385.0344,102.8906 1384.3938,103.2188 Q1383.7688,103.5469 1383.2688,104.2969 Q1382.7844,105.0469 1382.7844,106.0781 L1382.7844,107.1719 Q1382.7844,108.4063 1383.675,109.2344 Q1384.5656,110.0469 1386.1594,110.0469 Q1387.0969,110.0469 1387.7531,109.7969 Q1388.1438,109.6406 1388.5656,109.2031 Q1388.8313,108.9375 1388.9719,108.8594 Q1389.1281,108.7813 1389.3313,108.7813 Q1389.6594,108.7813 1389.9094,109.0469 Q1390.175,109.2969 1390.175,109.6406 Q1390.175,109.9844 1389.8313,110.3906 Q1389.3313,110.9688 1388.5344,111.2969 Q1387.4563,111.75 1386.1594,111.75 Q1384.6438,111.75 1383.4406,111.125 Q1382.4563,110.625 1381.7688,109.5625 Q1381.0813,108.4844 1381.0813,107.2031 L1381.0813,106.0469 Q1381.0813,104.7188 1381.6906,103.5781 Q1382.3156,102.4219 1383.4094,101.8125 Q1384.5031,101.1875 1385.7375,101.1875 Q1386.4719,101.1875 1387.1125,101.3594 Q1387.7688,101.5156 1388.3156,101.875 Z " fill="#000000"/><text fill="#000000" font-family="sans-serif" font-size="12" lengthAdjust="spacing" textLength="110" x="1401.45" y="110.9102">ListaColaboradores</text><line style="stroke:#A80036;stroke-width:1.5;" x1="1363" x2="1522" y1="122" y2="122"/><line style="stroke:#A80036;stroke-width:1.5;" x1="1363" x2="1522" y1="130" y2="130"/><text fill="#000000" font-family="sans-serif" font-size="11" lengthAdjust="spacing" textLength="100" x="1368" y="145.4189">+getColaboradores()</text><text fill="#000000" font-family="sans-serif" font-size="11" lengthAdjust="spacing" textLength="149" x="1368" y="159.2549">+getColaboradorByEmail(email)</text><!--MD5=[ac8682ea5466d223e49472789fb200d2]
class Colaborador--><rect codeLine="45" fill="#FEFECE" filter="url(#f14f8i79vdvz5e)" height="103.3438" id="Colaborador" style="stroke:#A80036;stroke-width:1.5;" width="101" x="1791.5" y="256.5"/><ellipse cx="1806.5" cy="272.5" fill="#ADD1B2" rx="11" ry="11" style="stroke:#A80036;stroke-width:1.0;"/><path d="M1809.2656,268.375 Q1809.4219,268.1563 1809.6094,268.0469 Q1809.7969,267.9375 1810.0156,267.9375 Q1810.3906,267.9375 1810.625,268.2031 Q1810.8594,268.4531 1810.8594,269.0625 L1810.8594,270.5156 Q1810.8594,271.125 1810.625,271.3906 Q1810.3906,271.6563 1810.0156,271.6563 Q1809.6719,271.6563 1809.4688,271.4531 Q1809.2656,271.2656 1809.1563,270.75 Q1809.1094,270.3906 1808.9219,270.2031 Q1808.5938,269.8281 1807.9844,269.6094 Q1807.375,269.3906 1806.75,269.3906 Q1805.9844,269.3906 1805.3438,269.7188 Q1804.7188,270.0469 1804.2188,270.7969 Q1803.7344,271.5469 1803.7344,272.5781 L1803.7344,273.6719 Q1803.7344,274.9063 1804.625,275.7344 Q1805.5156,276.5469 1807.1094,276.5469 Q1808.0469,276.5469 1808.7031,276.2969 Q1809.0938,276.1406 1809.5156,275.7031 Q1809.7813,275.4375 1809.9219,275.3594 Q1810.0781,275.2813 1810.2813,275.2813 Q1810.6094,275.2813 1810.8594,275.5469 Q1811.125,275.7969 1811.125,276.1406 Q1811.125,276.4844 1810.7813,276.8906 Q1810.2813,277.4688 1809.4844,277.7969 Q1808.4063,278.25 1807.1094,278.25 Q1805.5938,278.25 1804.3906,277.625 Q1803.4063,277.125 1802.7188,276.0625 Q1802.0313,274.9844 1802.0313,273.7031 L1802.0313,272.5469 Q1802.0313,271.2188 1802.6406,270.0781 Q1803.2656,268.9219 1804.3594,268.3125 Q1805.4531,267.6875 1806.6875,267.6875 Q1807.4219,267.6875 1808.0625,267.8594 Q1808.7188,268.0156 1809.2656,268.375 Z " fill="#000000"/><text fill="#000000" font-family="sans-serif" font-size="12" lengthAdjust="spacing" textLength="69" x="1820.5" y="277.4102">Colaborador</text><line style="stroke:#A80036;stroke-width:1.5;" x1="1792.5" x2="1891.5" y1="288.5" y2="288.5"/><text fill="#000000" font-family="sans-serif" font-size="11" lengthAdjust="spacing" textLength="61" x="1797.5" y="303.9189">-String nome</text><text fill="#000000" font-family="sans-serif" font-size="11" lengthAdjust="spacing" textLength="69" x="1797.5" y="317.7549">-String funcao</text><text fill="#000000" font-family="sans-serif" font-size="11" lengthAdjust="spacing" textLength="74" x="1797.5" y="331.5908">-String telefone</text><text fill="#000000" font-family="sans-serif" font-size="11" lengthAdjust="spacing" textLength="59" x="1797.5" y="345.4268">-String email</text><line style="stroke:#A80036;stroke-width:1.5;" x1="1792.5" x2="1891.5" y1="351.8438" y2="351.8438"/><!--MD5=[d0e9f237fb3c72e1245c36c562ad52c4]
class TipoRegimento--><rect codeLine="52" fill="#FEFECE" filter="url(#f14f8i79vdvz5e)" height="75.6719" id="TipoRegimento" style="stroke:#A80036;stroke-width:1.5;" width="130" x="1777" y="513"/><ellipse cx="1797.85" cy="529" fill="#ADD1B2" rx="11" ry="11" style="stroke:#A80036;stroke-width:1.0;"/><path d="M1800.6156,524.875 Q1800.7719,524.6563 1800.9594,524.5469 Q1801.1469,524.4375 1801.3656,524.4375 Q1801.7406,524.4375 1801.975,524.7031 Q1802.2094,524.9531 1802.2094,525.5625 L1802.2094,527.0156 Q1802.2094,527.625 1801.975,527.8906 Q1801.7406,528.1563 1801.3656,528.1563 Q1801.0219,528.1563 1800.8188,527.9531 Q1800.6156,527.7656 1800.5063,527.25 Q1800.4594,526.8906 1800.2719,526.7031 Q1799.9438,526.3281 1799.3344,526.1094 Q1798.725,525.8906 1798.1,525.8906 Q1797.3344,525.8906 1796.6938,526.2188 Q1796.0688,526.5469 1795.5688,527.2969 Q1795.0844,528.0469 1795.0844,529.0781 L1795.0844,530.1719 Q1795.0844,531.4063 1795.975,532.2344 Q1796.8656,533.0469 1798.4594,533.0469 Q1799.3969,533.0469 1800.0531,532.7969 Q1800.4438,532.6406 1800.8656,532.2031 Q1801.1313,531.9375 1801.2719,531.8594 Q1801.4281,531.7813 1801.6313,531.7813 Q1801.9594,531.7813 1802.2094,532.0469 Q1802.475,532.2969 1802.475,532.6406 Q1802.475,532.9844 1802.1313,533.3906 Q1801.6313,533.9688 1800.8344,534.2969 Q1799.7563,534.75 1798.4594,534.75 Q1796.9438,534.75 1795.7406,534.125 Q1794.7563,533.625 1794.0688,532.5625 Q1793.3813,531.4844 1793.3813,530.2031 L1793.3813,529.0469 Q1793.3813,527.7188 1793.9906,526.5781 Q1794.6156,525.4219 1795.7094,524.8125 Q1796.8031,524.1875 1798.0375,524.1875 Q1798.7719,524.1875 1799.4125,524.3594 Q1800.0688,524.5156 1800.6156,524.875 Z " fill="#000000"/><text fill="#000000" font-family="sans-serif" font-size="12" lengthAdjust="spacing" textLength="85" x="1813.15" y="533.9102">TipoRegimento</text><line style="stroke:#A80036;stroke-width:1.5;" x1="1778" x2="1906" y1="545" y2="545"/><text fill="#000000" font-family="sans-serif" font-size="11" lengthAdjust="spacing" textLength="91" x="1783" y="560.4189">-String designacao</text><text fill="#000000" font-family="sans-serif" font-size="11" lengthAdjust="spacing" textLength="118" x="1783" y="574.2549">-String descricaoRegras</text><line style="stroke:#A80036;stroke-width:1.5;" x1="1778" x2="1906" y1="580.6719" y2="580.6719"/><!--MD5=[1f687b5315377fe49fca59b457947463]
class Freelancer--><rect codeLine="59" fill="#FEFECE" filter="url(#f14f8i79vdvz5e)" height="103.3438" id="Freelancer" style="stroke:#A80036;stroke-width:1.5;" width="91" x="2300" y="258.5"/><ellipse cx="2315" cy="274.5" fill="#ADD1B2" rx="11" ry="11" style="stroke:#A80036;stroke-width:1.0;"/><path d="M2317.7656,270.375 Q2317.9219,270.1563 2318.1094,270.0469 Q2318.2969,269.9375 2318.5156,269.9375 Q2318.8906,269.9375 2319.125,270.2031 Q2319.3594,270.4531 2319.3594,271.0625 L2319.3594,272.5156 Q2319.3594,273.125 2319.125,273.3906 Q2318.8906,273.6563 2318.5156,273.6563 Q2318.1719,273.6563 2317.9688,273.4531 Q2317.7656,273.2656 2317.6563,272.75 Q2317.6094,272.3906 2317.4219,272.2031 Q2317.0938,271.8281 2316.4844,271.6094 Q2315.875,271.3906 2315.25,271.3906 Q2314.4844,271.3906 2313.8438,271.7188 Q2313.2188,272.0469 2312.7188,272.7969 Q2312.2344,273.5469 2312.2344,274.5781 L2312.2344,275.6719 Q2312.2344,276.9063 2313.125,277.7344 Q2314.0156,278.5469 2315.6094,278.5469 Q2316.5469,278.5469 2317.2031,278.2969 Q2317.5938,278.1406 2318.0156,277.7031 Q2318.2813,277.4375 2318.4219,277.3594 Q2318.5781,277.2813 2318.7813,277.2813 Q2319.1094,277.2813 2319.3594,277.5469 Q2319.625,277.7969 2319.625,278.1406 Q2319.625,278.4844 2319.2813,278.8906 Q2318.7813,279.4688 2317.9844,279.7969 Q2316.9063,280.25 2315.6094,280.25 Q2314.0938,280.25 2312.8906,279.625 Q2311.9063,279.125 2311.2188,278.0625 Q2310.5313,276.9844 2310.5313,275.7031 L2310.5313,274.5469 Q2310.5313,273.2188 2311.1406,272.0781 Q2311.7656,270.9219 2312.8594,270.3125 Q2313.9531,269.6875 2315.1875,269.6875 Q2315.9219,269.6875 2316.5625,269.8594 Q2317.2188,270.0156 2317.7656,270.375 Z " fill="#000000"/><text fill="#000000" font-family="sans-serif" font-size="12" lengthAdjust="spacing" textLength="59" x="2329" y="279.4102">Freelancer</text><line style="stroke:#A80036;stroke-width:1.5;" x1="2301" x2="2390" y1="290.5" y2="290.5"/><text fill="#000000" font-family="sans-serif" font-size="11" lengthAdjust="spacing" textLength="61" x="2306" y="305.9189">-String nome</text><text fill="#000000" font-family="sans-serif" font-size="11" lengthAdjust="spacing" textLength="50" x="2306" y="319.7549">-String NIF</text><text fill="#000000" font-family="sans-serif" font-size="11" lengthAdjust="spacing" textLength="74" x="2306" y="333.5908">-String telefone</text><text fill="#000000" font-family="sans-serif" font-size="11" lengthAdjust="spacing" textLength="59" x="2306" y="347.4268">-String email</text><line style="stroke:#A80036;stroke-width:1.5;" x1="2301" x2="2390" y1="353.8438" y2="353.8438"/><!--MD5=[19db0db7353a4bf63eefc676e5ba9b80]
class Anuncio--><rect codeLine="66" fill="#FEFECE" filter="url(#f14f8i79vdvz5e)" height="200.1953" id="Anuncio" style="stroke:#A80036;stroke-width:1.5;" width="165" x="1075" y="200"/><ellipse cx="1131.25" cy="216" fill="#ADD1B2" rx="11" ry="11" style="stroke:#A80036;stroke-width:1.0;"/><path d="M1134.0156,211.875 Q1134.1719,211.6563 1134.3594,211.5469 Q1134.5469,211.4375 1134.7656,211.4375 Q1135.1406,211.4375 1135.375,211.7031 Q1135.6094,211.9531 1135.6094,212.5625 L1135.6094,214.0156 Q1135.6094,214.625 1135.375,214.8906 Q1135.1406,215.1563 1134.7656,215.1563 Q1134.4219,215.1563 1134.2188,214.9531 Q1134.0156,214.7656 1133.9063,214.25 Q1133.8594,213.8906 1133.6719,213.7031 Q1133.3438,213.3281 1132.7344,213.1094 Q1132.125,212.8906 1131.5,212.8906 Q1130.7344,212.8906 1130.0938,213.2188 Q1129.4688,213.5469 1128.9688,214.2969 Q1128.4844,215.0469 1128.4844,216.0781 L1128.4844,217.1719 Q1128.4844,218.4063 1129.375,219.2344 Q1130.2656,220.0469 1131.8594,220.0469 Q1132.7969,220.0469 1133.4531,219.7969 Q1133.8438,219.6406 1134.2656,219.2031 Q1134.5313,218.9375 1134.6719,218.8594 Q1134.8281,218.7813 1135.0313,218.7813 Q1135.3594,218.7813 1135.6094,219.0469 Q1135.875,219.2969 1135.875,219.6406 Q1135.875,219.9844 1135.5313,220.3906 Q1135.0313,220.9688 1134.2344,221.2969 Q1133.1563,221.75 1131.8594,221.75 Q1130.3438,221.75 1129.1406,221.125 Q1128.1563,220.625 1127.4688,219.5625 Q1126.7813,218.4844 1126.7813,217.2031 L1126.7813,216.0469 Q1126.7813,214.7188 1127.3906,213.5781 Q1128.0156,212.4219 1129.1094,211.8125 Q1130.2031,211.1875 1131.4375,211.1875 Q1132.1719,211.1875 1132.8125,211.3594 Q1133.4688,211.5156 1134.0156,211.875 Z " fill="#000000"/><text fill="#000000" font-family="sans-serif" font-size="12" lengthAdjust="spacing" textLength="44" x="1151.75" y="220.9102">Anuncio</text><line style="stroke:#A80036;stroke-width:1.5;" x1="1076" x2="1239" y1="232" y2="232"/><text fill="#000000" font-family="sans-serif" font-size="11" lengthAdjust="spacing" textLength="119" x="1081" y="247.4189">-Date dtInicioPublicitacao</text><text fill="#000000" font-family="sans-serif" font-size="11" lengthAdjust="spacing" textLength="111" x="1081" y="261.2549">-Date dtFimPublicitacao</text><text fill="#000000" font-family="sans-serif" font-size="11" lengthAdjust="spacing" textLength="120" x="1081" y="275.0908">-Date dtInicioCandidatura</text><text fill="#000000" font-family="sans-serif" font-size="11" lengthAdjust="spacing" textLength="112" x="1081" y="288.9268">-Date dtFimCandidatura</text><text fill="#000000" font-family="sans-serif" font-size="11" lengthAdjust="spacing" textLength="105" x="1081" y="302.7627">-Date dtInicioSeriacao</text><text fill="#000000" font-family="sans-serif" font-size="11" lengthAdjust="spacing" textLength="97" x="1081" y="316.5986">-Date dtFimSeriacao</text><line style="stroke:#A80036;stroke-width:1.5;" x1="1076" x2="1239" y1="323.0156" y2="323.0156"/><text fill="#000000" font-family="sans-serif" font-size="11" lengthAdjust="spacing" textLength="116" x="1081" y="338.4346">+getListaCandidaturas()</text><text fill="#000000" font-family="sans-serif" font-size="11" lengthAdjust="spacing" textLength="153" x="1081" y="352.2705">+novoProcessoSeriacao(colab)</text><text fill="#000000" font-family="sans-serif" font-size="11" lengthAdjust="spacing" textLength="148" x="1081" y="366.1064">+registaProcessoSeriacao(ps)</text><text fill="#000000" font-family="sans-serif" font-size="11" lengthAdjust="spacing" textLength="141" x="1081" y="379.9424">-validaProcessoSeriacao(ps)</text><text fill="#000000" font-family="sans-serif" font-size="11" lengthAdjust="spacing" textLength="128" x="1081" y="393.7783">-setProcessoSeriacao(ps)</text><!--MD5=[ced2a86ae8bdfec1c757b7c305a75b1d]
class ListaCandidaturas--><rect codeLine="81" fill="#FEFECE" filter="url(#f14f8i79vdvz5e)" height="75.6719" id="ListaCandidaturas" style="stroke:#A80036;stroke-width:1.5;" width="134" x="1585.5" y="178"/><ellipse cx="1600.5" cy="194" fill="#ADD1B2" rx="11" ry="11" style="stroke:#A80036;stroke-width:1.0;"/><path d="M1603.2656,189.875 Q1603.4219,189.6563 1603.6094,189.5469 Q1603.7969,189.4375 1604.0156,189.4375 Q1604.3906,189.4375 1604.625,189.7031 Q1604.8594,189.9531 1604.8594,190.5625 L1604.8594,192.0156 Q1604.8594,192.625 1604.625,192.8906 Q1604.3906,193.1563 1604.0156,193.1563 Q1603.6719,193.1563 1603.4688,192.9531 Q1603.2656,192.7656 1603.1563,192.25 Q1603.1094,191.8906 1602.9219,191.7031 Q1602.5938,191.3281 1601.9844,191.1094 Q1601.375,190.8906 1600.75,190.8906 Q1599.9844,190.8906 1599.3438,191.2188 Q1598.7188,191.5469 1598.2188,192.2969 Q1597.7344,193.0469 1597.7344,194.0781 L1597.7344,195.1719 Q1597.7344,196.4063 1598.625,197.2344 Q1599.5156,198.0469 1601.1094,198.0469 Q1602.0469,198.0469 1602.7031,197.7969 Q1603.0938,197.6406 1603.5156,197.2031 Q1603.7813,196.9375 1603.9219,196.8594 Q1604.0781,196.7813 1604.2813,196.7813 Q1604.6094,196.7813 1604.8594,197.0469 Q1605.125,197.2969 1605.125,197.6406 Q1605.125,197.9844 1604.7813,198.3906 Q1604.2813,198.9688 1603.4844,199.2969 Q1602.4063,199.75 1601.1094,199.75 Q1599.5938,199.75 1598.3906,199.125 Q1597.4063,198.625 1596.7188,197.5625 Q1596.0313,196.4844 1596.0313,195.2031 L1596.0313,194.0469 Q1596.0313,192.7188 1596.6406,191.5781 Q1597.2656,190.4219 1598.3594,189.8125 Q1599.4531,189.1875 1600.6875,189.1875 Q1601.4219,189.1875 1602.0625,189.3594 Q1602.7188,189.5156 1603.2656,189.875 Z " fill="#000000"/><text fill="#000000" font-family="sans-serif" font-size="12" lengthAdjust="spacing" textLength="102" x="1614.5" y="198.9102">ListaCandidaturas</text><line style="stroke:#A80036;stroke-width:1.5;" x1="1586.5" x2="1718.5" y1="210" y2="210"/><line style="stroke:#A80036;stroke-width:1.5;" x1="1586.5" x2="1718.5" y1="218" y2="218"/><text fill="#000000" font-family="sans-serif" font-size="11" lengthAdjust="spacing" textLength="93" x="1591.5" y="233.4189">+getCandidaturas()</text><text fill="#000000" font-family="sans-serif" font-size="11" lengthAdjust="spacing" textLength="119" x="1591.5" y="247.2549">+getCandidatura(candId)</text><!--MD5=[475c5b924ed41035684e2831311827d2]
class Candidatura--><rect codeLine="86" fill="#FEFECE" filter="url(#f14f8i79vdvz5e)" height="117.1797" id="Candidatura" style="stroke:#A80036;stroke-width:1.5;" width="128" x="2036" y="251.5"/><ellipse cx="2063.6" cy="267.5" fill="#ADD1B2" rx="11" ry="11" style="stroke:#A80036;stroke-width:1.0;"/><path d="M2066.3656,263.375 Q2066.5219,263.1563 2066.7094,263.0469 Q2066.8969,262.9375 2067.1156,262.9375 Q2067.4906,262.9375 2067.725,263.2031 Q2067.9594,263.4531 2067.9594,264.0625 L2067.9594,265.5156 Q2067.9594,266.125 2067.725,266.3906 Q2067.4906,266.6563 2067.1156,266.6563 Q2066.7719,266.6563 2066.5688,266.4531 Q2066.3656,266.2656 2066.2563,265.75 Q2066.2094,265.3906 2066.0219,265.2031 Q2065.6938,264.8281 2065.0844,264.6094 Q2064.475,264.3906 2063.85,264.3906 Q2063.0844,264.3906 2062.4438,264.7188 Q2061.8188,265.0469 2061.3188,265.7969 Q2060.8344,266.5469 2060.8344,267.5781 L2060.8344,268.6719 Q2060.8344,269.9063 2061.725,270.7344 Q2062.6156,271.5469 2064.2094,271.5469 Q2065.1469,271.5469 2065.8031,271.2969 Q2066.1938,271.1406 2066.6156,270.7031 Q2066.8813,270.4375 2067.0219,270.3594 Q2067.1781,270.2813 2067.3813,270.2813 Q2067.7094,270.2813 2067.9594,270.5469 Q2068.225,270.7969 2068.225,271.1406 Q2068.225,271.4844 2067.8813,271.8906 Q2067.3813,272.4688 2066.5844,272.7969 Q2065.5063,273.25 2064.2094,273.25 Q2062.6938,273.25 2061.4906,272.625 Q2060.5063,272.125 2059.8188,271.0625 Q2059.1313,269.9844 2059.1313,268.7031 L2059.1313,267.5469 Q2059.1313,266.2188 2059.7406,265.0781 Q2060.3656,263.9219 2061.4594,263.3125 Q2062.5531,262.6875 2063.7875,262.6875 Q2064.5219,262.6875 2065.1625,262.8594 Q2065.8188,263.0156 2066.3656,263.375 Z " fill="#000000"/><text fill="#000000" font-family="sans-serif" font-size="12" lengthAdjust="spacing" textLength="68" x="2080.4" y="272.4102">Candidatura</text><line style="stroke:#A80036;stroke-width:1.5;" x1="2037" x2="2163" y1="283.5" y2="283.5"/><text fill="#000000" font-family="sans-serif" font-size="11" lengthAdjust="spacing" textLength="108" x="2042" y="298.9189">-Date dataCandidatura</text><text fill="#000000" font-family="sans-serif" font-size="11" lengthAdjust="spacing" textLength="115" x="2042" y="312.7549">-Double valorPretendido</text><text fill="#000000" font-family="sans-serif" font-size="11" lengthAdjust="spacing" textLength="71" x="2042" y="326.5908">-Integer nrDias</text><text fill="#000000" font-family="sans-serif" font-size="11" lengthAdjust="spacing" textLength="116" x="2042" y="340.4268">-String txtApresentacao</text><text fill="#000000" font-family="sans-serif" font-size="11" lengthAdjust="spacing" textLength="96" x="2042" y="354.2627">-String txtMotivacao</text><line style="stroke:#A80036;stroke-width:1.5;" x1="2037" x2="2163" y1="360.6797" y2="360.6797"/><!--MD5=[716bba0e94eea125d5a66a891f2c3c34]
class Classificacao--><rect codeLine="95" fill="#FEFECE" filter="url(#f14f8i79vdvz5e)" height="75.6719" id="Classificacao" style="stroke:#A80036;stroke-width:1.5;" width="142" x="1771" y="395"/><ellipse cx="1801.75" cy="411" fill="#ADD1B2" rx="11" ry="11" style="stroke:#A80036;stroke-width:1.0;"/><path d="M1804.5156,406.875 Q1804.6719,406.6563 1804.8594,406.5469 Q1805.0469,406.4375 1805.2656,406.4375 Q1805.6406,406.4375 1805.875,406.7031 Q1806.1094,406.9531 1806.1094,407.5625 L1806.1094,409.0156 Q1806.1094,409.625 1805.875,409.8906 Q1805.6406,410.1563 1805.2656,410.1563 Q1804.9219,410.1563 1804.7188,409.9531 Q1804.5156,409.7656 1804.4063,409.25 Q1804.3594,408.8906 1804.1719,408.7031 Q1803.8438,408.3281 1803.2344,408.1094 Q1802.625,407.8906 1802,407.8906 Q1801.2344,407.8906 1800.5938,408.2188 Q1799.9688,408.5469 1799.4688,409.2969 Q1798.9844,410.0469 1798.9844,411.0781 L1798.9844,412.1719 Q1798.9844,413.4063 1799.875,414.2344 Q1800.7656,415.0469 1802.3594,415.0469 Q1803.2969,415.0469 1803.9531,414.7969 Q1804.3438,414.6406 1804.7656,414.2031 Q1805.0313,413.9375 1805.1719,413.8594 Q1805.3281,413.7813 1805.5313,413.7813 Q1805.8594,413.7813 1806.1094,414.0469 Q1806.375,414.2969 1806.375,414.6406 Q1806.375,414.9844 1806.0313,415.3906 Q1805.5313,415.9688 1804.7344,416.2969 Q1803.6563,416.75 1802.3594,416.75 Q1800.8438,416.75 1799.6406,416.125 Q1798.6563,415.625 1797.9688,414.5625 Q1797.2813,413.4844 1797.2813,412.2031 L1797.2813,411.0469 Q1797.2813,409.7188 1797.8906,408.5781 Q1798.5156,407.4219 1799.6094,406.8125 Q1800.7031,406.1875 1801.9375,406.1875 Q1802.6719,406.1875 1803.3125,406.3594 Q1803.9688,406.5156 1804.5156,406.875 Z " fill="#000000"/><text fill="#000000" font-family="sans-serif" font-size="12" lengthAdjust="spacing" textLength="75" x="1819.25" y="415.9102">Classificacao</text><line style="stroke:#A80036;stroke-width:1.5;" x1="1772" x2="1912" y1="427" y2="427"/><text fill="#000000" font-family="sans-serif" font-size="11" lengthAdjust="spacing" textLength="64" x="1777" y="442.4189">-Integer lugar</text><line style="stroke:#A80036;stroke-width:1.5;" x1="1772" x2="1912" y1="448.8359" y2="448.8359"/><text fill="#000000" font-family="sans-serif" font-size="11" lengthAdjust="spacing" textLength="130" x="1777" y="464.2549">Classificacao(cand,ordem)</text><!--MD5=[aca0f236260d30190baee83e33cc7802]
class ProcessoSeriacao--><rect codeLine="101" fill="#FEFECE" filter="url(#f14f8i79vdvz5e)" height="144.8516" id="ProcessoSeriacao" style="stroke:#A80036;stroke-width:1.5;" width="183" x="1351" y="360.5"/><ellipse cx="1388.05" cy="376.5" fill="#ADD1B2" rx="11" ry="11" style="stroke:#A80036;stroke-width:1.0;"/><path d="M1390.8156,372.375 Q1390.9719,372.1563 1391.1594,372.0469 Q1391.3469,371.9375 1391.5656,371.9375 Q1391.9406,371.9375 1392.175,372.2031 Q1392.4094,372.4531 1392.4094,373.0625 L1392.4094,374.5156 Q1392.4094,375.125 1392.175,375.3906 Q1391.9406,375.6563 1391.5656,375.6563 Q1391.2219,375.6563 1391.0188,375.4531 Q1390.8156,375.2656 1390.7063,374.75 Q1390.6594,374.3906 1390.4719,374.2031 Q1390.1438,373.8281 1389.5344,373.6094 Q1388.925,373.3906 1388.3,373.3906 Q1387.5344,373.3906 1386.8938,373.7188 Q1386.2688,374.0469 1385.7688,374.7969 Q1385.2844,375.5469 1385.2844,376.5781 L1385.2844,377.6719 Q1385.2844,378.9063 1386.175,379.7344 Q1387.0656,380.5469 1388.6594,380.5469 Q1389.5969,380.5469 1390.2531,380.2969 Q1390.6438,380.1406 1391.0656,379.7031 Q1391.3313,379.4375 1391.4719,379.3594 Q1391.6281,379.2813 1391.8313,379.2813 Q1392.1594,379.2813 1392.4094,379.5469 Q1392.675,379.7969 1392.675,380.1406 Q1392.675,380.4844 1392.3313,380.8906 Q1391.8313,381.4688 1391.0344,381.7969 Q1389.9563,382.25 1388.6594,382.25 Q1387.1438,382.25 1385.9406,381.625 Q1384.9563,381.125 1384.2688,380.0625 Q1383.5813,378.9844 1383.5813,377.7031 L1383.5813,376.5469 Q1383.5813,375.2188 1384.1906,374.0781 Q1384.8156,372.9219 1385.9094,372.3125 Q1387.0031,371.6875 1388.2375,371.6875 Q1388.9719,371.6875 1389.6125,371.8594 Q1390.2688,372.0156 1390.8156,372.375 Z " fill="#000000"/><text fill="#000000" font-family="sans-serif" font-size="12" lengthAdjust="spacing" textLength="102" x="1406.95" y="381.4102">ProcessoSeriacao</text><line style="stroke:#A80036;stroke-width:1.5;" x1="1352" x2="1533" y1="392.5" y2="392.5"/><text fill="#000000" font-family="sans-serif" font-size="11" lengthAdjust="spacing" textLength="103" x="1357" y="407.9189">-Date dataRealizacao</text><line style="stroke:#A80036;stroke-width:1.5;" x1="1352" x2="1533" y1="414.3359" y2="414.3359"/><text fill="#000000" font-family="sans-serif" font-size="11" lengthAdjust="spacing" textLength="171" x="1357" y="429.7549">+ProcessoSeriacao(tipoReg, colab)</text><text fill="#000000" font-family="sans-serif" font-size="11" lengthAdjust="spacing" textLength="154" x="1357" y="443.5908">+addClassificacao(cand,ordem)</text><text fill="#000000" font-family="sans-serif" font-size="11" lengthAdjust="spacing" textLength="131" x="1357" y="457.4268">-validaClassificacao(class)</text><text fill="#000000" font-family="sans-serif" font-size="11" lengthAdjust="spacing" textLength="121" x="1357" y="471.2627">-addClassificacao(class)</text><text fill="#000000" font-family="sans-serif" font-size="11" lengthAdjust="spacing" textLength="107" x="1357" y="485.0986">+addParticipante(part)</text><text fill="#000000" font-family="sans-serif" font-size="11" lengthAdjust="spacing" textLength="42" x="1357" y="498.9346">+valida()</text><!--MD5=[0b8c11e89e8561660fecfc719ed33ad4]
class ListaTarefas--><rect fill="#FEFECE" filter="url(#f14f8i79vdvz5e)" height="48" id="ListaTarefas" style="stroke:#A80036;stroke-width:1.5;" width="101" x="1392" y="7"/><ellipse cx="1407" cy="23" fill="#ADD1B2" rx="11" ry="11" style="stroke:#A80036;stroke-width:1.0;"/><path d="M1409.7656,18.875 Q1409.9219,18.6563 1410.1094,18.5469 Q1410.2969,18.4375 1410.5156,18.4375 Q1410.8906,18.4375 1411.125,18.7031 Q1411.3594,18.9531 1411.3594,19.5625 L1411.3594,21.0156 Q1411.3594,21.625 1411.125,21.8906 Q1410.8906,22.1563 1410.5156,22.1563 Q1410.1719,22.1563 1409.9688,21.9531 Q1409.7656,21.7656 1409.6563,21.25 Q1409.6094,20.8906 1409.4219,20.7031 Q1409.0938,20.3281 1408.4844,20.1094 Q1407.875,19.8906 1407.25,19.8906 Q1406.4844,19.8906 1405.8438,20.2188 Q1405.2188,20.5469 1404.7188,21.2969 Q1404.2344,22.0469 1404.2344,23.0781 L1404.2344,24.1719 Q1404.2344,25.4063 1405.125,26.2344 Q1406.0156,27.0469 1407.6094,27.0469 Q1408.5469,27.0469 1409.2031,26.7969 Q1409.5938,26.6406 1410.0156,26.2031 Q1410.2813,25.9375 1410.4219,25.8594 Q1410.5781,25.7813 1410.7813,25.7813 Q1411.1094,25.7813 1411.3594,26.0469 Q1411.625,26.2969 1411.625,26.6406 Q1411.625,26.9844 1411.2813,27.3906 Q1410.7813,27.9688 1409.9844,28.2969 Q1408.9063,28.75 1407.6094,28.75 Q1406.0938,28.75 1404.8906,28.125 Q1403.9063,27.625 1403.2188,26.5625 Q1402.5313,25.4844 1402.5313,24.2031 L1402.5313,23.0469 Q1402.5313,21.7188 1403.1406,20.5781 Q1403.7656,19.4219 1404.8594,18.8125 Q1405.9531,18.1875 1407.1875,18.1875 Q1407.9219,18.1875 1408.5625,18.3594 Q1409.2188,18.5156 1409.7656,18.875 Z " fill="#000000"/><text fill="#000000" font-family="sans-serif" font-size="12" lengthAdjust="spacing" textLength="69" x="1421" y="27.9102">ListaTarefas</text><line style="stroke:#A80036;stroke-width:1.5;" x1="1393" x2="1492" y1="39" y2="39"/><line style="stroke:#A80036;stroke-width:1.5;" x1="1393" x2="1492" y1="47" y2="47"/><!--MD5=[27c2d4bbe9f7b9d3b0ea2797cc54308a]
class Tarefa--><rect fill="#FEFECE" filter="url(#f14f8i79vdvz5e)" height="48" id="Tarefa" style="stroke:#A80036;stroke-width:1.5;" width="67" x="1808.5" y="7"/><ellipse cx="1823.5" cy="23" fill="#ADD1B2" rx="11" ry="11" style="stroke:#A80036;stroke-width:1.0;"/><path d="M1826.2656,18.875 Q1826.4219,18.6563 1826.6094,18.5469 Q1826.7969,18.4375 1827.0156,18.4375 Q1827.3906,18.4375 1827.625,18.7031 Q1827.8594,18.9531 1827.8594,19.5625 L1827.8594,21.0156 Q1827.8594,21.625 1827.625,21.8906 Q1827.3906,22.1563 1827.0156,22.1563 Q1826.6719,22.1563 1826.4688,21.9531 Q1826.2656,21.7656 1826.1563,21.25 Q1826.1094,20.8906 1825.9219,20.7031 Q1825.5938,20.3281 1824.9844,20.1094 Q1824.375,19.8906 1823.75,19.8906 Q1822.9844,19.8906 1822.3438,20.2188 Q1821.7188,20.5469 1821.2188,21.2969 Q1820.7344,22.0469 1820.7344,23.0781 L1820.7344,24.1719 Q1820.7344,25.4063 1821.625,26.2344 Q1822.5156,27.0469 1824.1094,27.0469 Q1825.0469,27.0469 1825.7031,26.7969 Q1826.0938,26.6406 1826.5156,26.2031 Q1826.7813,25.9375 1826.9219,25.8594 Q1827.0781,25.7813 1827.2813,25.7813 Q1827.6094,25.7813 1827.8594,26.0469 Q1828.125,26.2969 1828.125,26.6406 Q1828.125,26.9844 1827.7813,27.3906 Q1827.2813,27.9688 1826.4844,28.2969 Q1825.4063,28.75 1824.1094,28.75 Q1822.5938,28.75 1821.3906,28.125 Q1820.4063,27.625 1819.7188,26.5625 Q1819.0313,25.4844 1819.0313,24.2031 L1819.0313,23.0469 Q1819.0313,21.7188 1819.6406,20.5781 Q1820.2656,19.4219 1821.3594,18.8125 Q1822.4531,18.1875 1823.6875,18.1875 Q1824.4219,18.1875 1825.0625,18.3594 Q1825.7188,18.5156 1826.2656,18.875 Z " fill="#000000"/><text fill="#000000" font-family="sans-serif" font-size="12" lengthAdjust="spacing" textLength="35" x="1837.5" y="27.9102">Tarefa</text><line style="stroke:#A80036;stroke-width:1.5;" x1="1809.5" x2="1874.5" y1="39" y2="39"/><line style="stroke:#A80036;stroke-width:1.5;" x1="1809.5" x2="1874.5" y1="47" y2="47"/><!--MD5=[b83c3f10011fabf06242fbd8b132b538]
link SeriarAnuncioUI to SeriarAnuncioController--><path codeLine="112" d="M128.21,176 C145.22,176 164.32,176 183.34,176 " fill="none" id="SeriarAnuncioUI-to-SeriarAnuncioController" style="stroke:#A80036;stroke-width:1.0;stroke-dasharray:7.0,7.0;"/><polygon fill="#A80036" points="188.69,176,179.69,172,183.69,176,179.69,180,188.69,176" style="stroke:#A80036;stroke-width:1.0;"/><!--MD5=[32f0d5beb7aa7986a0551d9177e7d40e]
link SeriarAnuncioController to Plataforma--><path codeLine="113" d="M400.14,176 C418.68,176 437.68,176 455.3,176 " fill="none" id="SeriarAnuncioController-to-Plataforma" style="stroke:#A80036;stroke-width:1.0;stroke-dasharray:7.0,7.0;"/><polygon fill="#A80036" points="460.71,176,451.71,172,455.71,176,451.71,180,460.71,176" style="stroke:#A80036;stroke-width:1.0;"/><!--MD5=[f474418f0299e5a3deeeaebedb6f44d3]
link Plataforma to RegistoOrganizacoes--><path codeLine="114" d="M606.23,159.18 C634.72,152.51 668.11,144.68 699.42,137.34 " fill="none" id="Plataforma-to-RegistoOrganizacoes" style="stroke:#A80036;stroke-width:1.0;"/><polygon fill="#A80036" points="704.42,136.16,694.7443,134.3214,699.5522,137.302,696.5715,142.1099,704.42,136.16" style="stroke:#A80036;stroke-width:1.0;"/><text fill="#000000" font-family="sans-serif" font-size="13" lengthAdjust="spacing" textLength="22" x="637" y="143.4951">tem</text><text fill="#000000" font-family="sans-serif" font-size="13" lengthAdjust="spacing" textLength="7" x="614.0912" y="171.8091">1</text><text fill="#000000" font-family="sans-serif" font-size="13" lengthAdjust="spacing" textLength="7" x="689.5196" y="152.0358">1</text><!--MD5=[463821f61fd53759657c2ac769a7e835]
link Plataforma to RegistoAnuncios--><path codeLine="115" d="M606.26,191.08 C616.24,193.11 626.37,195.13 636,197 C651.75,200.05 668.33,203.17 684.72,206.19 " fill="none" id="Plataforma-to-RegistoAnuncios" style="stroke:#A80036;stroke-width:1.0;"/><polygon fill="#A80036" points="689.8,207.13,681.6678,201.5741,684.8818,206.2293,680.2267,209.4433,689.8,207.13" style="stroke:#A80036;stroke-width:1.0;"/><text fill="#000000" font-family="sans-serif" font-size="13" lengthAdjust="spacing" textLength="22" x="637" y="193.4951">tem</text><text fill="#000000" font-family="sans-serif" font-size="13" lengthAdjust="spacing" textLength="7" x="614.1243" y="206.9987">1</text><text fill="#000000" font-family="sans-serif" font-size="13" lengthAdjust="spacing" textLength="7" x="674.9716" y="219.8224">1</text><!--MD5=[7846c904d139ffad2e5d1ca294d8e188]
link RegistoOrganizacoes to Organizacao--><path codeLine="117" d="M912.67,108.13 C968.1,106.06 1035.07,103.55 1084.78,101.69 " fill="none" id="RegistoOrganizacoes-to-Organizacao" style="stroke:#A80036;stroke-width:1.0;"/><polygon fill="#A80036" points="1089.84,101.5,1080.6973,97.8378,1084.8435,101.6861,1080.9951,105.8322,1089.84,101.5" style="stroke:#A80036;stroke-width:1.0;"/><text fill="#000000" font-family="sans-serif" font-size="13" lengthAdjust="spacing" textLength="86" x="958" y="99.4951">tem registadas</text><text fill="#000000" font-family="sans-serif" font-size="13" lengthAdjust="spacing" textLength="7" x="920.577" y="121.9473">1</text><text fill="#000000" font-family="sans-serif" font-size="13" lengthAdjust="spacing" textLength="5" x="1077.1663" y="116.1619">*</text><!--MD5=[2903b91671052adea6f5e59eb6d59b42]
link RegistoAnuncios to Anuncio--><path codeLine="118" d="M927.46,252.48 C974.19,262.17 1026.93,273.11 1070.01,282.05 " fill="none" id="RegistoAnuncios-to-Anuncio" style="stroke:#A80036;stroke-width:1.0;"/><polygon fill="#A80036" points="1074.95,283.08,1066.9637,277.3164,1070.0566,282.0528,1065.3202,285.1458,1074.95,283.08" style="stroke:#A80036;stroke-width:1.0;"/><text fill="#000000" font-family="sans-serif" font-size="13" lengthAdjust="spacing" textLength="48" x="977" y="255.4951">publicita</text><text fill="#000000" font-family="sans-serif" font-size="13" lengthAdjust="spacing" textLength="7" x="934.9224" y="267.9751">1</text><text fill="#000000" font-family="sans-serif" font-size="13" lengthAdjust="spacing" textLength="5" x="1062.1095" y="295.76">*</text><!--MD5=[ebf28f708ced3fa17ddc18f977b4c30e]
link Organizacao to ListaColaboradores--><path codeLine="120" d="M1225.21,105.84 C1264.54,109.87 1314.7,115.01 1356.81,119.32 " fill="none" id="Organizacao-to-ListaColaboradores" style="stroke:#A80036;stroke-width:1.0;"/><polygon fill="#A80036" points="1361.9,119.84,1353.3594,114.9351,1356.9265,119.3255,1352.5362,122.8927,1361.9,119.84" style="stroke:#A80036;stroke-width:1.0;"/><text fill="#000000" font-family="sans-serif" font-size="13" lengthAdjust="spacing" textLength="22" x="1284.5" y="106.4951">tem</text><text fill="#000000" font-family="sans-serif" font-size="13" lengthAdjust="spacing" textLength="7" x="1232.9986" y="120.9766">1</text><text fill="#000000" font-family="sans-serif" font-size="13" lengthAdjust="spacing" textLength="7" x="1346.8842" y="133.3523">1</text><!--MD5=[fe36d68e6ccc9fbcf1b4b1ecbcfd2a3f]
link Organizacao to ListaTarefas--><path codeLine="121" d="M1225.21,82.97 C1274.4,71.15 1340.52,55.26 1386.65,44.18 " fill="none" id="Organizacao-to-ListaTarefas" style="stroke:#A80036;stroke-width:1.0;"/><polygon fill="#A80036" points="1391.61,42.99,1381.9242,41.2051,1386.7486,44.159,1383.7947,48.9834,1391.61,42.99" style="stroke:#A80036;stroke-width:1.0;"/><text fill="#000000" font-family="sans-serif" font-size="13" lengthAdjust="spacing" textLength="22" x="1284.5" y="56.4951">tem</text><text fill="#000000" font-family="sans-serif" font-size="13" lengthAdjust="spacing" textLength="7" x="1232.9986" y="95.6052">1</text><text fill="#000000" font-family="sans-serif" font-size="13" lengthAdjust="spacing" textLength="7" x="1376.9614" y="59.3209">1</text><!--MD5=[7260d47c0614ffa35e1bdddecdc2d005]
link ListaColaboradores to Colaborador--><path codeLine="123" d="M1523.29,121.48 C1587.67,120.29 1677.62,128.27 1741,173 C1764.07,189.28 1754.86,205.83 1771,229 C1776.39,236.74 1782.44,244.56 1788.67,252.12 " fill="none" id="ListaColaboradores-to-Colaborador" style="stroke:#A80036;stroke-width:1.0;"/><polygon fill="#A80036" points="1792.15,256.28,1789.4439,246.8102,1788.9421,252.4447,1783.3075,251.9429,1792.15,256.28" style="stroke:#A80036;stroke-width:1.0;"/><text fill="#000000" font-family="sans-serif" font-size="13" lengthAdjust="spacing" textLength="22" x="1641.5" y="118.4951">tem</text><text fill="#000000" font-family="sans-serif" font-size="13" lengthAdjust="spacing" textLength="7" x="1531.0605" y="135.1429">1</text><text fill="#000000" font-family="sans-serif" font-size="13" lengthAdjust="spacing" textLength="20" x="1764.1077" y="245.7508">1..*</text><!--MD5=[d258da2d5a47e4c990d61ccbbbe86ed7]
link ListaTarefas to Tarefa--><path codeLine="124" d="M1493.04,31 C1573.63,31 1731.33,31 1803.42,31 " fill="none" id="ListaTarefas-to-Tarefa" style="stroke:#A80036;stroke-width:1.0;"/><polygon fill="#A80036" points="1808.46,31,1799.4715,26.9743,1803.46,30.9857,1799.4486,34.9743,1808.46,31" style="stroke:#A80036;stroke-width:1.0;"/><text fill="#000000" font-family="sans-serif" font-size="13" lengthAdjust="spacing" textLength="22" x="1641.5" y="27.4951">tem</text><text fill="#000000" font-family="sans-serif" font-size="13" lengthAdjust="spacing" textLength="7" x="1500.9771" y="45.6959">1</text><text fill="#000000" font-family="sans-serif" font-size="13" lengthAdjust="spacing" textLength="5" x="1795.5763" y="46.2836">*</text><!--MD5=[3fb03004f687adcfc695220fdd65ad26]
link Anuncio to TipoRegimento--><path codeLine="126" d="M1210.2,400.22 C1242.92,452.28 1290.5,511.13 1351,541 C1487.55,608.42 1672.67,586.46 1771.71,567.14 " fill="none" id="Anuncio-to-TipoRegimento" style="stroke:#A80036;stroke-width:1.0;"/><polygon fill="#A80036" points="1776.65,566.16,1767.0452,563.9812,1771.7449,567.1296,1768.5965,571.8294,1776.65,566.16" style="stroke:#A80036;stroke-width:1.0;"/><text fill="#000000" font-family="sans-serif" font-size="13" lengthAdjust="spacing" textLength="65" x="1410" y="537.4951">rege-se por</text><text fill="#000000" font-family="sans-serif" font-size="13" lengthAdjust="spacing" textLength="5" x="1208.8866" y="421.6683">*</text><text fill="#000000" font-family="sans-serif" font-size="13" lengthAdjust="spacing" textLength="7" x="1762.1195" y="582.2254">1</text><!--MD5=[0a535575571876f6213287bf563a867d]
link Anuncio to Colaborador--><path codeLine="127" d="M1240.15,300.96 C1381,302.61 1666.05,305.95 1785.92,307.35 " fill="none" id="Anuncio-to-Colaborador" style="stroke:#A80036;stroke-width:1.0;"/><polygon fill="#A80036" points="1791.16,307.42,1782.2063,303.3174,1786.1603,307.3629,1782.1149,311.3169,1791.16,307.42" style="stroke:#A80036;stroke-width:1.0;"/><text fill="#000000" font-family="sans-serif" font-size="13" lengthAdjust="spacing" textLength="77" x="1404" y="298.4951">publicado por</text><text fill="#000000" font-family="sans-serif" font-size="13" lengthAdjust="spacing" textLength="5" x="1247.9998" y="315.2883">*</text><text fill="#000000" font-family="sans-serif" font-size="13" lengthAdjust="spacing" textLength="7" x="1776.5184" y="321.9591">1</text><!--MD5=[936379bbb1fbe67f1148bc2fdcd3e3c1]
link Anuncio to ListaCandidaturas--><path codeLine="128" d="M1240.22,271.69 C1250.18,268.82 1260.27,266.16 1270,264 C1376.81,240.26 1503.23,227.24 1580.37,220.95 " fill="none" id="Anuncio-to-ListaCandidaturas" style="stroke:#A80036;stroke-width:1.0;"/><polygon fill="#A80036" points="1585.38,220.54,1576.0889,217.2726,1580.396,220.9399,1576.7287,225.2469,1585.38,220.54" style="stroke:#A80036;stroke-width:1.0;"/><text fill="#000000" font-family="sans-serif" font-size="13" lengthAdjust="spacing" textLength="46" x="1272.5" y="251.4951">recebeu</text><text fill="#000000" font-family="sans-serif" font-size="13" lengthAdjust="spacing" textLength="7" x="1247.899" y="283.3832">1</text><text fill="#000000" font-family="sans-serif" font-size="13" lengthAdjust="spacing" textLength="7" x="1570.6559" y="235.4439">1</text><!--MD5=[b3c62d3bd372a34b7ee6d6af17619677]
link ListaCandidaturas to Candidatura--><path codeLine="129" d="M1719.61,216.85 C1772.52,218.72 1848.32,224.09 1913,239 C1953.29,248.29 1996.54,264.4 2031.19,278.93 " fill="none" id="ListaCandidaturas-to-Candidatura" style="stroke:#A80036;stroke-width:1.0;"/><polygon fill="#A80036" points="2035.8,280.88,2029.0655,273.6935,2031.194,278.9346,2025.9528,281.0631,2035.8,280.88" style="stroke:#A80036;stroke-width:1.0;"/><text fill="#000000" font-family="sans-serif" font-size="13" lengthAdjust="spacing" textLength="22" x="1831" y="215.4951">tem</text><text fill="#000000" font-family="sans-serif" font-size="13" lengthAdjust="spacing" textLength="7" x="1727.333" y="231.3503">1</text><text fill="#000000" font-family="sans-serif" font-size="13" lengthAdjust="spacing" textLength="5" x="2023.0878" y="291.9431">*</text><!--MD5=[02d330b3691aaed85c2b7230cc23c1df]
link Anuncio to ProcessoSeriacao--><path codeLine="130" d="M1240.36,338.47 C1273.48,354.03 1311.93,372.11 1346.3,388.26 " fill="none" id="Anuncio-to-ProcessoSeriacao" style="stroke:#A80036;stroke-width:1.0;"/><polygon fill="#A80036" points="1350.9,390.42,1344.4564,382.9715,1346.3749,388.2931,1341.0533,390.2116,1350.9,390.42" style="stroke:#A80036;stroke-width:1.0;"/><text fill="#000000" font-family="sans-serif" font-size="13" lengthAdjust="spacing" textLength="49" x="1271" y="350.4951">espoleta</text><text fill="#000000" font-family="sans-serif" font-size="13" lengthAdjust="spacing" textLength="7" x="1248.0514" y="356.1108">1</text><text fill="#000000" font-family="sans-serif" font-size="13" lengthAdjust="spacing" textLength="22" x="1321.0447" y="401.2867">0..1</text><!--MD5=[a66e767a4304f5fa76db98d7839a7a61]
link Candidatura to Freelancer--><path codeLine="132" d="M2164.02,310 C2206.58,310 2261.72,310 2299.8,310 " fill="none" id="Candidatura-Freelancer" style="stroke:#A80036;stroke-width:1.0;"/><text fill="#000000" font-family="sans-serif" font-size="13" lengthAdjust="spacing" textLength="74" x="2195" y="306.4951">realizada por</text><text fill="#000000" font-family="sans-serif" font-size="13" lengthAdjust="spacing" textLength="5" x="2172.1271" y="324.4806">*</text><text fill="#000000" font-family="sans-serif" font-size="13" lengthAdjust="spacing" textLength="7" x="2284.9588" y="324.7707">1</text><!--MD5=[577fefe1351fe0f89ea5388d9641a019]
link ProcessoSeriacao to TipoRegimento--><path codeLine="134" d="M1534.2,459.92 C1606.33,481.34 1705.74,510.85 1771.62,530.4 " fill="none" id="ProcessoSeriacao-to-TipoRegimento" style="stroke:#A80036;stroke-width:1.0;"/><polygon fill="#A80036" points="1776.7,531.91,1769.2149,525.5089,1771.9077,530.4837,1766.9329,533.1765,1776.7,531.91" style="stroke:#A80036;stroke-width:1.0;"/><text fill="#000000" font-family="sans-serif" font-size="13" lengthAdjust="spacing" textLength="175" x="1565" y="467.4951">decorre em concordncia com</text><text fill="#000000" font-family="sans-serif" font-size="13" lengthAdjust="spacing" textLength="5" x="1542.0009" y="476.3276">*</text><text fill="#000000" font-family="sans-serif" font-size="13" lengthAdjust="spacing" textLength="7" x="1762.175" y="544.2293">1</text><!--MD5=[d8cba5363504d1c2665cc78c5e9b9c32]
link ProcessoSeriacao to Colaborador--><path codeLine="135" d="M1534.2,404.48 C1611.91,380.04 1721.29,345.64 1786.29,325.21 " fill="none" id="ProcessoSeriacao-to-Colaborador" style="stroke:#A80036;stroke-width:1.0;"/><polygon fill="#A80036" points="1791.28,323.64,1781.4947,322.5232,1786.5101,325.1395,1783.8939,330.155,1791.28,323.64" style="stroke:#A80036;stroke-width:1.0;"/><text fill="#000000" font-family="sans-serif" font-size="13" lengthAdjust="spacing" textLength="74" x="1615.5" y="337.4951">realizado por</text><text fill="#000000" font-family="sans-serif" font-size="13" lengthAdjust="spacing" textLength="7" x="1542.0838" y="416.2965">1</text><text fill="#000000" font-family="sans-serif" font-size="13" lengthAdjust="spacing" textLength="20" x="1763.5003" y="340.1645">1..*</text><!--MD5=[52bd50d7906bad09d4dfcc260d1229dc]
link ProcessoSeriacao to Classificacao--><path codeLine="136" d="M1534.2,433 C1604.21,433 1699.92,433 1765.72,433 " fill="none" id="ProcessoSeriacao-to-Classificacao" style="stroke:#A80036;stroke-width:1.0;"/><polygon fill="#A80036" points="1770.8,433,1761.8,429,1765.8,433,1761.8,437,1770.8,433" style="stroke:#A80036;stroke-width:1.0;"/><text fill="#000000" font-family="sans-serif" font-size="13" lengthAdjust="spacing" textLength="39" x="1633" y="429.4951">resulta</text><text fill="#000000" font-family="sans-serif" font-size="13" lengthAdjust="spacing" textLength="7" x="1542.0838" y="447.1783">1</text><text fill="#000000" font-family="sans-serif" font-size="13" lengthAdjust="spacing" textLength="5" x="1758.1997" y="447.3552">*</text><!--MD5=[471b8c6ff5fcf31b4b6fb9b4f947344d]
link Classificacao to Candidatura--><path codeLine="138" d="M1913.29,399.23 C1949.98,381.6 1994.67,360.13 2031.02,342.66 " fill="none" id="Classificacao-to-Candidatura" style="stroke:#A80036;stroke-width:1.0;"/><polygon fill="#A80036" points="2035.86,340.34,2026.0149,340.6113,2031.3486,342.4958,2029.4641,347.8295,2035.86,340.34" style="stroke:#A80036;stroke-width:1.0;"/><text fill="#000000" font-family="sans-serif" font-size="13" lengthAdjust="spacing" textLength="61" x="1944" y="352.4951">referente a</text><text fill="#000000" font-family="sans-serif" font-size="13" lengthAdjust="spacing" textLength="22" x="1920.8761" y="410.3808">0..1</text><text fill="#000000" font-family="sans-serif" font-size="13" lengthAdjust="spacing" textLength="7" x="2021.0391" y="358.2781">1</text><!--MD5=[d55a6d075161f8f3d3c91688f3c4f06c]
@startuml
skinparam classAttributeIconSize 0
left to right direction

class SeriarAnuncioUI {}

class SeriarAnuncioController
{
+getAnunciosPorSeriarNaoAutomaticos()
+getCandidaturas(anuncioId)
+classifica(candId, ordem)
+getColaboradores()
+addParticipante(emailPart)
+registaProcessoSeriacao()
}

class Plataforma {
  -String designacao
  +getRegistoOrganizacoes()
  +getRegistoAnuncios()
}

class RegistoOrganizacoes {
    +getOrganizacaoByEmailUtilizador(email)
}

class RegistoAnuncios {
    +getAnunciosPorSeriarNaoAutomaticos(colab)
    +getAnuncioPublicadoPor(colab, anuncioId)
}

class Organizacao {
  -String nome
  -String NIF
  -String website
  -String telefone
  -String email
  +getListaColaboradores()
}

class ListaColaboradores {
    +getColaboradores()
    +getColaboradorByEmail(email)
}

class Colaborador {
  -String nome
  -String funcao
  -String telefone
  -String email
}

class TipoRegimento
{
    -String designacao
    -String descricaoRegras
}


class Freelancer {
    -String nome
    -String NIF
    -String telefone
    -String email
}

class Anuncio
{
    -Date dtInicioPublicitacao
    -Date dtFimPublicitacao
    -Date dtInicioCandidatura
    -Date dtFimCandidatura
    -Date dtInicioSeriacao
    -Date dtFimSeriacao
    +getListaCandidaturas()
    +novoProcessoSeriacao(colab)
    +registaProcessoSeriacao(ps)
    -validaProcessoSeriacao(ps)
    -setProcessoSeriacao(ps)
}

class ListaCandidaturas
{
    +getCandidaturas()
    +getCandidatura(candId)
}
class Candidatura
{
    -Date dataCandidatura
    -Double valorPretendido
    -Integer nrDias
    -String txtApresentacao
    -String txtMotivacao
}

class Classificacao
{
    -Integer lugar
    Classificacao(cand,ordem)
}

class ProcessoSeriacao
{
    -Date dataRealizacao
    +ProcessoSeriacao(tipoReg, colab)
    +addClassificacao(cand,ordem)
    -validaClassificacao(class)
    -addClassificacao(class)
    +addParticipante(part)
    +valida()
}

SeriarAnuncioUI ..> SeriarAnuncioController
SeriarAnuncioController ..> Plataforma
Plataforma "1" - -> "1" RegistoOrganizacoes : tem
Plataforma "1" - -> "1" RegistoAnuncios : tem

RegistoOrganizacoes "1" - -> "*" Organizacao : tem registadas
RegistoAnuncios "1" - -> "*" Anuncio : publicita

Organizacao "1" - -> "1" ListaColaboradores: tem
Organizacao "1" - -> "1" ListaTarefas: tem

ListaColaboradores "1" - -> "1..*" Colaborador: tem
ListaTarefas "1" - -> "*" Tarefa: tem

Anuncio "*" - -> "1" TipoRegimento: rege-se por
Anuncio "*" - -> "1" Colaborador: publicado por
Anuncio "1" - -> "1" ListaCandidaturas: recebeu
ListaCandidaturas "1" - -> "*" Candidatura: tem
Anuncio "1" - -> "0..1" ProcessoSeriacao: espoleta

Candidatura "*" - - "1"  Freelancer: realizada por

ProcessoSeriacao "*" - -> "1" TipoRegimento: decorre em concordncia com
ProcessoSeriacao "1" - -> "1..*" Colaborador: realizado por
ProcessoSeriacao "1" - -> "*" Classificacao: resulta

Classificacao "0..1" - -> "1" Candidatura: referente a


@enduml

PlantUML version 1.2021.00(Sun Jan 10 10:25:05 WET 2021)
(GPL source distribution)
Java Runtime: Java(TM) SE Runtime Environment
JVM: Java HotSpot(TM) 64-Bit Server VM
Default Encoding: Cp1252
Language: pt
Country: PT
--></g></svg>