<?xml version="1.0" encoding="UTF-8" standalone="no"?><svg xmlns="http://www.w3.org/2000/svg" xmlns:xlink="http://www.w3.org/1999/xlink" contentScriptType="application/ecmascript" contentStyleType="text/css" height="396px" preserveAspectRatio="none" style="width:1436px;height:396px;" version="1.1" viewBox="0 0 1436 396" width="1436px" zoomAndPan="magnify"><defs><filter height="300%" id="fo4immpj2k9w4" width="300%" x="-1" y="-1"><feGaussianBlur result="blurOut" stdDeviation="2.0"/><feColorMatrix in="blurOut" result="blurOut2" type="matrix" values="0 0 0 0 0 0 0 0 0 0 0 0 0 0 0 0 0 0 .4 0"/><feOffset dx="4.0" dy="4.0" in="blurOut2" result="blurOut3"/><feBlend in="SourceGraphic" in2="blurOut3" mode="normal"/></filter></defs><g><!--MD5=[ecaed46f78f8cfe1e9ce18477649be18]
class Plataforma--><rect codeLine="5" fill="#FEFECE" filter="url(#fo4immpj2k9w4)" height="40" id="Plataforma" style="stroke:#A80036;stroke-width:1.5;" width="94" x="7" y="91.2422"/><ellipse cx="22" cy="107.2422" fill="#ADD1B2" rx="11" ry="11" style="stroke:#A80036;stroke-width:1.0;"/><path d="M24.4731,113.3853 Q23.8921,113.6841 23.2529,113.8335 Q22.6138,113.9829 21.9082,113.9829 Q19.4014,113.9829 18.0815,112.3311 Q16.7617,110.6792 16.7617,107.5581 Q16.7617,104.4287 18.0815,102.7769 Q19.4014,101.125 21.9082,101.125 Q22.6138,101.125 23.2612,101.2744 Q23.9087,101.4238 24.4731,101.7227 L24.4731,104.4453 Q23.8423,103.8643 23.2488,103.5945 Q22.6553,103.3247 22.0244,103.3247 Q20.6797,103.3247 19.9949,104.3914 Q19.3101,105.458 19.3101,107.5581 Q19.3101,109.6499 19.9949,110.7166 Q20.6797,111.7832 22.0244,111.7832 Q22.6553,111.7832 23.2488,111.5134 Q23.8423,111.2437 24.4731,110.6626 Z " fill="#000000"/><text fill="#000000" font-family="sans-serif" font-size="12" lengthAdjust="spacing" textLength="62" x="36" y="111.7773">Plataforma</text><line style="stroke:#A80036;stroke-width:1.5;" x1="8" x2="100" y1="123.2422" y2="123.2422"/><!--MD5=[a322db5a7ec64d2ff8f2d6cf1831dcec]
class CompetenciaTecnica--><rect codeLine="8" fill="#FEFECE" filter="url(#fo4immpj2k9w4)" height="78.8652" id="CompetenciaTecnica" style="stroke:#A80036;stroke-width:1.5;" width="151" x="746" y="235.7422"/><ellipse cx="761" cy="251.7422" fill="#ADD1B2" rx="11" ry="11" style="stroke:#A80036;stroke-width:1.0;"/><path d="M763.4731,257.8853 Q762.8921,258.1841 762.2529,258.3335 Q761.6138,258.4829 760.9082,258.4829 Q758.4014,258.4829 757.0815,256.8311 Q755.7617,255.1792 755.7617,252.0581 Q755.7617,248.9287 757.0815,247.2769 Q758.4014,245.625 760.9082,245.625 Q761.6138,245.625 762.2612,245.7744 Q762.9087,245.9238 763.4731,246.2227 L763.4731,248.9453 Q762.8423,248.3643 762.2488,248.0945 Q761.6553,247.8247 761.0244,247.8247 Q759.6797,247.8247 758.9949,248.8914 Q758.3101,249.958 758.3101,252.0581 Q758.3101,254.1499 758.9949,255.2166 Q759.6797,256.2832 761.0244,256.2832 Q761.6553,256.2832 762.2488,256.0134 Q762.8423,255.7437 763.4731,255.1626 Z " fill="#000000"/><text fill="#000000" font-family="sans-serif" font-size="12" lengthAdjust="spacing" textLength="119" x="775" y="256.2773">CompetenciaTecnica</text><line style="stroke:#A80036;stroke-width:1.5;" x1="747" x2="896" y1="267.7422" y2="267.7422"/><text fill="#000000" font-family="sans-serif" font-size="11" lengthAdjust="spacing" textLength="51" x="752" y="282.377">-String id</text><text fill="#000000" font-family="sans-serif" font-size="11" lengthAdjust="spacing" textLength="95" x="752" y="295.332">-String descBreve</text><text fill="#000000" font-family="sans-serif" font-size="11" lengthAdjust="spacing" textLength="119" x="752" y="308.2871">-String descDetalhada</text><!--MD5=[0d4fe674cc1d46ec0fc990086e50801a]
class GrauProficiencia--><rect codeLine="14" fill="#FEFECE" filter="url(#fo4immpj2k9w4)" height="65.9102" id="GrauProficiencia" style="stroke:#A80036;stroke-width:1.5;" width="125" x="1297" y="291.2422"/><ellipse cx="1312" cy="307.2422" fill="#ADD1B2" rx="11" ry="11" style="stroke:#A80036;stroke-width:1.0;"/><path d="M1314.4731,313.3853 Q1313.8921,313.6841 1313.2529,313.8335 Q1312.6138,313.9829 1311.9082,313.9829 Q1309.4014,313.9829 1308.0815,312.3311 Q1306.7617,310.6792 1306.7617,307.5581 Q1306.7617,304.4287 1308.0815,302.7769 Q1309.4014,301.125 1311.9082,301.125 Q1312.6138,301.125 1313.2612,301.2744 Q1313.9087,301.4238 1314.4731,301.7227 L1314.4731,304.4453 Q1313.8423,303.8643 1313.2488,303.5945 Q1312.6553,303.3247 1312.0244,303.3247 Q1310.6797,303.3247 1309.9949,304.3914 Q1309.3101,305.458 1309.3101,307.5581 Q1309.3101,309.6499 1309.9949,310.7166 Q1310.6797,311.7832 1312.0244,311.7832 Q1312.6553,311.7832 1313.2488,311.5134 Q1313.8423,311.2437 1314.4731,310.6626 Z " fill="#000000"/><text fill="#000000" font-family="sans-serif" font-size="12" lengthAdjust="spacing" textLength="93" x="1326" y="311.7773">GrauProficiencia</text><line style="stroke:#A80036;stroke-width:1.5;" x1="1298" x2="1421" y1="323.2422" y2="323.2422"/><text fill="#000000" font-family="sans-serif" font-size="11" lengthAdjust="spacing" textLength="74" x="1303" y="337.877">-Integer valor</text><text fill="#000000" font-family="sans-serif" font-size="11" lengthAdjust="spacing" textLength="102" x="1303" y="350.832">-String designacao</text><!--MD5=[7e1ce8ab2bf669717f28e918f4971b9a]
class Categoria--><rect codeLine="19" fill="#FEFECE" filter="url(#fo4immpj2k9w4)" height="52.9551" id="Categoria" style="stroke:#A80036;stroke-width:1.5;" width="105" x="218" y="164.7422"/><ellipse cx="241.1" cy="180.7422" fill="#ADD1B2" rx="11" ry="11" style="stroke:#A80036;stroke-width:1.0;"/><path d="M243.5731,186.8853 Q242.9921,187.1841 242.3529,187.3335 Q241.7138,187.4829 241.0082,187.4829 Q238.5014,187.4829 237.1815,185.8311 Q235.8617,184.1792 235.8617,181.0581 Q235.8617,177.9287 237.1815,176.2769 Q238.5014,174.625 241.0082,174.625 Q241.7138,174.625 242.3612,174.7744 Q243.0087,174.9238 243.5731,175.2227 L243.5731,177.9453 Q242.9423,177.3643 242.3488,177.0945 Q241.7553,176.8247 241.1244,176.8247 Q239.7797,176.8247 239.0949,177.8914 Q238.4101,178.958 238.4101,181.0581 Q238.4101,183.1499 239.0949,184.2166 Q239.7797,185.2832 241.1244,185.2832 Q241.7553,185.2832 242.3488,185.0134 Q242.9423,184.7437 243.5731,184.1626 Z " fill="#000000"/><text fill="#000000" font-family="sans-serif" font-size="12" lengthAdjust="spacing" textLength="55" x="256.9" y="185.2773">Categoria</text><line style="stroke:#A80036;stroke-width:1.5;" x1="219" x2="322" y1="196.7422" y2="196.7422"/><text fill="#000000" font-family="sans-serif" font-size="11" lengthAdjust="spacing" textLength="93" x="224" y="211.377">-String descricao</text><!--MD5=[b0f240be72c8ea8a063442502d85fc08]
class CaraterCT--><rect codeLine="23" fill="#FEFECE" filter="url(#fo4immpj2k9w4)" height="65.9102" id="CaraterCT" style="stroke:#A80036;stroke-width:1.5;" width="179" x="537" y="316.2422"/><ellipse cx="592.75" cy="332.2422" fill="#ADD1B2" rx="11" ry="11" style="stroke:#A80036;stroke-width:1.0;"/><path d="M595.2231,338.3853 Q594.6421,338.6841 594.0029,338.8335 Q593.3638,338.9829 592.6582,338.9829 Q590.1514,338.9829 588.8315,337.3311 Q587.5117,335.6792 587.5117,332.5581 Q587.5117,329.4287 588.8315,327.7769 Q590.1514,326.125 592.6582,326.125 Q593.3638,326.125 594.0112,326.2744 Q594.6587,326.4238 595.2231,326.7227 L595.2231,329.4453 Q594.5923,328.8643 593.9988,328.5945 Q593.4053,328.3247 592.7744,328.3247 Q591.4297,328.3247 590.7449,329.3914 Q590.0601,330.458 590.0601,332.5581 Q590.0601,334.6499 590.7449,335.7166 Q591.4297,336.7832 592.7744,336.7832 Q593.4053,336.7832 593.9988,336.5134 Q594.5923,336.2437 595.2231,335.6626 Z " fill="#000000"/><text fill="#000000" font-family="sans-serif" font-size="12" lengthAdjust="spacing" textLength="59" x="613.25" y="336.7773">CaraterCT</text><line style="stroke:#A80036;stroke-width:1.5;" x1="538" x2="715" y1="348.2422" y2="348.2422"/><text fill="#000000" font-family="sans-serif" font-size="11" lengthAdjust="spacing" textLength="108" x="543" y="362.877">-Integer obrigatorio</text><text fill="#000000" font-family="sans-serif" font-size="11" lengthAdjust="spacing" textLength="167" x="543" y="375.832">-String grauMinimoProficiencia</text><!--MD5=[02456e6632d968d6f68141e5893c6991]
class AreaAtividade--><rect codeLine="28" fill="#FEFECE" filter="url(#fo4immpj2k9w4)" height="78.8652" id="AreaAtividade" style="stroke:#A80036;stroke-width:1.5;" width="131" x="1105" y="142.7422"/><ellipse cx="1128.1" cy="158.7422" fill="#ADD1B2" rx="11" ry="11" style="stroke:#A80036;stroke-width:1.0;"/><path d="M1130.5731,164.8853 Q1129.9921,165.1841 1129.3529,165.3335 Q1128.7138,165.4829 1128.0082,165.4829 Q1125.5014,165.4829 1124.1815,163.8311 Q1122.8617,162.1792 1122.8617,159.0581 Q1122.8617,155.9287 1124.1815,154.2769 Q1125.5014,152.625 1128.0082,152.625 Q1128.7138,152.625 1129.3612,152.7744 Q1130.0087,152.9238 1130.5731,153.2227 L1130.5731,155.9453 Q1129.9423,155.3643 1129.3488,155.0945 Q1128.7553,154.8247 1128.1244,154.8247 Q1126.7797,154.8247 1126.0949,155.8914 Q1125.4101,156.958 1125.4101,159.0581 Q1125.4101,161.1499 1126.0949,162.2166 Q1126.7797,163.2832 1128.1244,163.2832 Q1128.7553,163.2832 1129.3488,163.0134 Q1129.9423,162.7437 1130.5731,162.1626 Z " fill="#000000"/><text fill="#000000" font-family="sans-serif" font-size="12" lengthAdjust="spacing" textLength="81" x="1143.9" y="163.2773">AreaAtividade</text><line style="stroke:#A80036;stroke-width:1.5;" x1="1106" x2="1235" y1="174.7422" y2="174.7422"/><text fill="#000000" font-family="sans-serif" font-size="11" lengthAdjust="spacing" textLength="51" x="1111" y="189.377">-String id</text><text fill="#000000" font-family="sans-serif" font-size="11" lengthAdjust="spacing" textLength="95" x="1111" y="202.332">-String descBreve</text><text fill="#000000" font-family="sans-serif" font-size="11" lengthAdjust="spacing" textLength="119" x="1111" y="215.2871">-String descDetalhada</text><ellipse cx="478.5" cy="275.2422" fill="#000000" rx="2" ry="2" style="stroke:none;stroke-width:1.0;"/><!--MD5=[a77d152358ce76c19672aacd9fb0ada1]
link Plataforma to CompetenciaTecnica--><path codeLine="35" d="M101.24,103.6622 C213.35,87.5322 505.86,59.1722 716,161.2422 C749.45,177.4922 777.29,209.5222 795.8,235.5122 " fill="none" id="Plataforma-CompetenciaTecnica" style="stroke:#A80036;stroke-width:1.0;"/><polygon fill="#000000" points="367.9123,79.83,359.574,75.2557,358.4778,81.0304,367.9123,79.83" style="stroke:#000000;stroke-width:1.0;"/><text fill="#000000" font-family="sans-serif" font-size="13" lengthAdjust="spacing" textLength="42" x="372" y="83.8105">possui</text><text fill="#000000" font-family="sans-serif" font-size="13" lengthAdjust="spacing" textLength="8" x="109.0861" y="116.2421">1</text><text fill="#000000" font-family="sans-serif" font-size="13" lengthAdjust="spacing" textLength="6" x="784.8672" y="225.0012">*</text><!--MD5=[cb8556493ec2c94f9603162dd119feba]
link Plataforma to Categoria--><path codeLine="36" d="M86.27,131.3122 C99.66,139.2722 115.7,147.9922 131,154.2422 C158.88,165.6322 191.34,174.5222 217.83,180.7322 " fill="none" id="Plataforma-Categoria" style="stroke:#A80036;stroke-width:1.0;"/><polygon fill="#000000" points="140.6807,147.6557,133.2468,141.7238,131.1798,147.2262,140.6807,147.6557" style="stroke:#000000;stroke-width:1.0;"/><text fill="#000000" font-family="sans-serif" font-size="13" lengthAdjust="spacing" textLength="42" x="145" y="150.8105">possui</text><text fill="#000000" font-family="sans-serif" font-size="13" lengthAdjust="spacing" textLength="8" x="86.2209" y="151.6783">1</text><text fill="#000000" font-family="sans-serif" font-size="13" lengthAdjust="spacing" textLength="6" x="204.0014" y="192.9023">*</text><!--MD5=[718b46c9a1975c175f4073d63ce5ccba]
link Plataforma to AreaAtividade--><path codeLine="37" d="M83.66,91.0522 C123.41,65.0722 198.46,23.2422 269.5,23.2422 C269.5,23.2422 269.5,23.2422 822.5,23.2422 C936.97,23.2422 1054.96,95.6422 1119.6,142.7322 " fill="none" id="Plataforma-AreaAtividade" style="stroke:#A80036;stroke-width:1.0;"/><polygon fill="#000000" points="459.9938,15.1466,451.1064,11.7606,450.8135,17.6312,459.9938,15.1466" style="stroke:#000000;stroke-width:1.0;"/><text fill="#000000" font-family="sans-serif" font-size="13" lengthAdjust="spacing" textLength="42" x="464" y="19.8105">possui</text><text fill="#000000" font-family="sans-serif" font-size="13" lengthAdjust="spacing" textLength="8" x="83.1976" y="80.5322">1</text><text fill="#000000" font-family="sans-serif" font-size="13" lengthAdjust="spacing" textLength="6" x="1103.9991" y="131.9666">*</text><!--MD5=[e538c9efa8de58386edc6206f3c58807]
link CompetenciaTecnica to AreaAtividade--><path codeLine="39" d="M897.12,265.1122 C948.01,257.0922 1016.51,244.0622 1075,225.2422 C1084.87,222.0722 1095.07,218.1522 1104.96,213.9822 " fill="none" id="CompetenciaTecnica-AreaAtividade" style="stroke:#A80036;stroke-width:1.0;"/><polygon fill="#000000" points="969.8552,215.703,960.37,215.0099,961.7741,220.7176,969.8552,215.703" style="stroke:#000000;stroke-width:1.0;"/><text fill="#000000" font-family="sans-serif" font-size="13" lengthAdjust="spacing" textLength="67" x="974" y="221.8105">referente a</text><text fill="#000000" font-family="sans-serif" font-size="13" lengthAdjust="spacing" textLength="6" x="905.2277" y="277.4323">*</text><text fill="#000000" font-family="sans-serif" font-size="13" lengthAdjust="spacing" textLength="8" x="1088.9194" y="231.1134">1</text><!--MD5=[0d731ff285a62a08178b23be6cceb109]
link CompetenciaTecnica to GrauProficiencia--><path codeLine="40" d="M897.03,282.0522 C1003.6,291.8022 1197.58,309.5322 1296.66,318.5922 " fill="none" id="CompetenciaTecnica-GrauProficiencia" style="stroke:#A80036;stroke-width:1.0;"/><polygon fill="#000000" points="1154.4792,292.3527,1145.7393,288.6024,1145.2041,294.4559,1154.4792,292.3527" style="stroke:#000000;stroke-width:1.0;"/><text fill="#000000" font-family="sans-serif" font-size="13" lengthAdjust="spacing" textLength="37" x="1158.5" y="296.8105">aplica</text><text fill="#000000" font-family="sans-serif" font-size="13" lengthAdjust="spacing" textLength="8" x="905.2315" y="296.1192">1</text><text fill="#000000" font-family="sans-serif" font-size="13" lengthAdjust="spacing" textLength="6" x="1283.0473" y="314.6632">*</text><!--MD5=[333932e5e4606ec9852f0cecc179b212]
link Categoria to AreaAtividade--><path codeLine="41" d="M323.01,190.7222 C477.2,189.1822 934.97,184.5922 1104.98,182.8922 " fill="none" id="Categoria-AreaAtividade" style="stroke:#A80036;stroke-width:1.0;"/><polygon fill="#000000" points="577.4997,177.8474,568.4257,174.9992,568.4845,180.8767,577.4997,177.8474" style="stroke:#000000;stroke-width:1.0;"/><text fill="#000000" font-family="sans-serif" font-size="13" lengthAdjust="spacing" textLength="103" x="581.5" y="182.8105">enquadra-se em</text><text fill="#000000" font-family="sans-serif" font-size="13" lengthAdjust="spacing" textLength="6" x="331.163" y="204.3418">*</text><text fill="#000000" font-family="sans-serif" font-size="13" lengthAdjust="spacing" textLength="8" x="1088.9418" y="196.4286">1</text><!--MD5=[d23ac86af3a14499d7ee253fbe654dcd]
link Categoria to apoint15--><path d="M323.19,212.9322 C333.08,217.0422 343.35,221.2922 353,225.2422 C404.3,246.2422 467.82,271.4122 476.5,274.8422 " fill="none" id="Categoria-apoint15" style="stroke:#A80036;stroke-width:1.0;"/><polygon fill="#000000" points="362.6362,218.7697,355.3497,212.6577,353.1487,218.1079,362.6362,218.7697" style="stroke:#000000;stroke-width:1.0;"/><text fill="#000000" font-family="sans-serif" font-size="13" lengthAdjust="spacing" textLength="52" x="367" y="221.8105">pode ter</text><text fill="#000000" font-family="sans-serif" font-size="13" lengthAdjust="spacing" textLength="6" x="331.0214" y="229.6304">*</text><!--MD5=[6e496bde566ce3079f82f530c44af35b]
link apoint15 to CompetenciaTecnica--><path d="M480.73,275.2422 C496.06,275.2422 650.48,275.2422 745.79,275.2422 " fill="none" id="apoint15-CompetenciaTecnica" style="stroke:#A80036;stroke-width:1.0;"/><text fill="#000000" font-family="sans-serif" font-size="13" lengthAdjust="spacing" textLength="6" x="732.042" y="288.5707">*</text><!--MD5=[b5cc1d6746d67c3b07e9c775dc27e5d6]
link apoint15 to CaraterCT--><path d="M480.76,275.8822 C488.01,279.5522 525.22,298.4122 560.09,316.0922 " fill="none" id="apoint15-CaraterCT" style="stroke:#A80036;stroke-width:1.0;stroke-dasharray:7.0,7.0;"/><!--MD5=[8c0835971d966be6a8d860f4ee2f4601]
link CaraterCT to GrauProficiencia--><path codeLine="44" d="M716.04,346.2122 C866.18,341.0822 1167.05,330.7922 1296.71,326.3522 " fill="none" id="CaraterCT-GrauProficiencia" style="stroke:#A80036;stroke-width:1.0;"/><polygon fill="#000000" points="936.9971,324.7266,927.8568,322.0985,928.0577,327.9729,936.9971,324.7266" style="stroke:#000000;stroke-width:1.0;"/><text fill="#000000" font-family="sans-serif" font-size="13" lengthAdjust="spacing" textLength="133" x="941" y="329.8105">exige (como mínimo)</text><text fill="#000000" font-family="sans-serif" font-size="13" lengthAdjust="spacing" textLength="6" x="723.9927" y="359.1819">*</text><text fill="#000000" font-family="sans-serif" font-size="13" lengthAdjust="spacing" textLength="8" x="1280.9874" y="340.0549">1</text><!--MD5=[ee07a965253ceaab755aa73fb17b1a62]
@startuml
skinparam classAttributeIconSize 0
hide methods
left to right direction

class Plataforma {
}

class CompetenciaTecnica {
  -String id
  -String descBreve
  -String descDetalhada
}

class GrauProficiencia {
  -Integer valor
  -String designacao
}

class Categoria {
  -String descricao
}

class CaraterCT {
  -Integer obrigatorio
  -String grauMinimoProficiencia
}

class AreaAtividade {
  -String id
  -String descBreve
  -String descDetalhada
}


Plataforma "1" - - "*" CompetenciaTecnica : possui >
Plataforma "1" - - "*" Categoria : possui >
Plataforma "1" -r- "*" AreaAtividade : possui >

CompetenciaTecnica "*" - - "1" AreaAtividade : referente a >
CompetenciaTecnica "1" - - - "*" GrauProficiencia : aplica  >
Categoria "*" - - "1" AreaAtividade: enquadra-se em >
Categoria "*" - - "*" CompetenciaTecnica: pode ter  >
(Categoria, CompetenciaTecnica) .. CaraterCT
CaraterCT "*" - - "1" GrauProficiencia: exige (como mínimo)  >


@enduml

PlantUML version 1.2021.00(Sun Jan 10 10:25:05 WET 2021)
(GPL source distribution)
Java Runtime: Java(TM) SE Runtime Environment
JVM: Java HotSpot(TM) 64-Bit Server VM
Default Encoding: UTF-8
Language: pt
Country: PT
--></g></svg>