<?xml version="1.0" encoding="UTF-8" standalone="no"?><svg xmlns="http://www.w3.org/2000/svg" xmlns:xlink="http://www.w3.org/1999/xlink" contentScriptType="application/ecmascript" contentStyleType="text/css" height="749px" preserveAspectRatio="none" style="width:1136px;height:749px;" version="1.1" viewBox="0 0 1136 749" width="1136px" zoomAndPan="magnify"><defs><filter height="300%" id="fb3wr7sgzicff" width="300%" x="-1" y="-1"><feGaussianBlur result="blurOut" stdDeviation="2.0"/><feColorMatrix in="blurOut" result="blurOut2" type="matrix" values="0 0 0 0 0 0 0 0 0 0 0 0 0 0 0 0 0 0 .4 0"/><feOffset dx="4.0" dy="4.0" in="blurOut2" result="blurOut3"/><feBlend in="SourceGraphic" in2="blurOut3" mode="normal"/></filter></defs><g><!--MD5=[a0eb8f65170a4524201739d37b3f9050]
class AdicionarCategoriaTarefaUI--><rect codeLine="3" fill="#FEFECE" filter="url(#fb3wr7sgzicff)" height="48" id="AdicionarCategoriaTarefaUI" style="stroke:#A80036;stroke-width:1.5;" width="190" x="358" y="7"/><ellipse cx="373" cy="23" fill="#ADD1B2" rx="11" ry="11" style="stroke:#A80036;stroke-width:1.0;"/><path d="M375.4731,29.1431 Q374.8921,29.4419 374.2529,29.5913 Q373.6138,29.7407 372.9082,29.7407 Q370.4014,29.7407 369.0815,28.0889 Q367.7617,26.437 367.7617,23.3159 Q367.7617,20.1865 369.0815,18.5347 Q370.4014,16.8828 372.9082,16.8828 Q373.6138,16.8828 374.2612,17.0322 Q374.9087,17.1816 375.4731,17.4805 L375.4731,20.2031 Q374.8423,19.6221 374.2488,19.3523 Q373.6553,19.0825 373.0244,19.0825 Q371.6797,19.0825 370.9949,20.1492 Q370.3101,21.2158 370.3101,23.3159 Q370.3101,25.4077 370.9949,26.4744 Q371.6797,27.541 373.0244,27.541 Q373.6553,27.541 374.2488,27.2712 Q374.8423,27.0015 375.4731,26.4204 Z " fill="#000000"/><text fill="#000000" font-family="sans-serif" font-size="12" lengthAdjust="spacing" textLength="158" x="387" y="27.5352">AdicionarCategoriaTarefaUI</text><line style="stroke:#A80036;stroke-width:1.5;" x1="359" x2="547" y1="39" y2="39"/><line style="stroke:#A80036;stroke-width:1.5;" x1="359" x2="547" y1="47" y2="47"/><!--MD5=[96d4cd4d24c254246748fb4d361e861e]
class RegistarCategoriaTarefaController--><rect codeLine="6" fill="#FEFECE" filter="url(#fb3wr7sgzicff)" height="164.5957" id="RegistarCategoriaTarefaController" style="stroke:#A80036;stroke-width:1.5;" width="554" x="176" y="116"/><ellipse cx="350.75" cy="132" fill="#ADD1B2" rx="11" ry="11" style="stroke:#A80036;stroke-width:1.0;"/><path d="M353.2231,138.1431 Q352.6421,138.4419 352.0029,138.5913 Q351.3638,138.7407 350.6582,138.7407 Q348.1514,138.7407 346.8315,137.0889 Q345.5117,135.437 345.5117,132.3159 Q345.5117,129.1865 346.8315,127.5347 Q348.1514,125.8828 350.6582,125.8828 Q351.3638,125.8828 352.0112,126.0322 Q352.6587,126.1816 353.2231,126.4805 L353.2231,129.2031 Q352.5923,128.6221 351.9988,128.3523 Q351.4053,128.0825 350.7744,128.0825 Q349.4297,128.0825 348.7449,129.1492 Q348.0601,130.2158 348.0601,132.3159 Q348.0601,134.4077 348.7449,135.4744 Q349.4297,136.541 350.7744,136.541 Q351.4053,136.541 351.9988,136.2712 Q352.5923,136.0015 353.2231,135.4204 Z " fill="#000000"/><text fill="#000000" font-family="sans-serif" font-size="12" lengthAdjust="spacing" textLength="196" x="371.25" y="136.5352">RegistarCategoriaTarefaController</text><line style="stroke:#A80036;stroke-width:1.5;" x1="177" x2="729" y1="148" y2="148"/><line style="stroke:#A80036;stroke-width:1.5;" x1="177" x2="729" y1="156" y2="156"/><text fill="#000000" font-family="sans-serif" font-size="11" lengthAdjust="spacing" textLength="291" x="182" y="170.6348">+ArrayList&lt;String&gt; getListaAreaAtividadeDescBreve()</text><text fill="#000000" font-family="sans-serif" font-size="11" lengthAdjust="spacing" textLength="351" x="182" y="183.5898">+List&lt;String&gt; getListaCompetenciasTecnicasByIdAreaAtividade()</text><text fill="#000000" font-family="sans-serif" font-size="11" lengthAdjust="spacing" textLength="255" x="182" y="196.5449">+List&lt;AreaAtividade&gt; getListaAreasAtividade()</text><text fill="#000000" font-family="sans-serif" font-size="11" lengthAdjust="spacing" textLength="333" x="182" y="209.5">+List&lt;CompetenciaTecnica&gt; getListaCompetenciasTecnicas()</text><text fill="#000000" font-family="sans-serif" font-size="11" lengthAdjust="spacing" textLength="237" x="182" y="222.4551">+List&lt;CategoriaTarefa&gt; getListaCatTarefa()</text><text fill="#000000" font-family="sans-serif" font-size="11" lengthAdjust="spacing" textLength="415" x="182" y="235.4102">+CompetenciaTecnica getCompetenciaTecnicaByDescBreve(String descBreve)</text><text fill="#000000" font-family="sans-serif" font-size="11" lengthAdjust="spacing" textLength="542" x="182" y="248.3652">+boolean registaCategoriaTarefa(String descricao, AreaAtividade oArea, List&lt;CaraterCT&gt; lcompTec)</text><text fill="#000000" font-family="sans-serif" font-size="11" lengthAdjust="spacing" textLength="504" x="182" y="261.3203">+addCompTecnicaToList(CompetenciaTecnica ct, int obrigatoriedade, String grauProficiencia)</text><text fill="#000000" font-family="sans-serif" font-size="11" lengthAdjust="spacing" textLength="232" x="182" y="274.2754">+AreaAtividade getAreaAtividade(String id)</text><!--MD5=[b461128b644a6ef6c7e633b063168ee5]
class RepositorioAreaAtividade--><rect codeLine="18" fill="#FEFECE" filter="url(#fb3wr7sgzicff)" height="60.9551" id="RepositorioAreaAtividade" style="stroke:#A80036;stroke-width:1.5;" width="178" x="7" y="361.5"/><ellipse cx="22" cy="377.5" fill="#ADD1B2" rx="11" ry="11" style="stroke:#A80036;stroke-width:1.0;"/><path d="M24.4731,383.6431 Q23.8921,383.9419 23.2529,384.0913 Q22.6138,384.2407 21.9082,384.2407 Q19.4014,384.2407 18.0815,382.5889 Q16.7617,380.937 16.7617,377.8159 Q16.7617,374.6865 18.0815,373.0347 Q19.4014,371.3828 21.9082,371.3828 Q22.6138,371.3828 23.2612,371.5322 Q23.9087,371.6816 24.4731,371.9805 L24.4731,374.7031 Q23.8423,374.1221 23.2488,373.8523 Q22.6553,373.5825 22.0244,373.5825 Q20.6797,373.5825 19.9949,374.6492 Q19.3101,375.7158 19.3101,377.8159 Q19.3101,379.9077 19.9949,380.9744 Q20.6797,382.041 22.0244,382.041 Q22.6553,382.041 23.2488,381.7712 Q23.8423,381.5015 24.4731,380.9204 Z " fill="#000000"/><text fill="#000000" font-family="sans-serif" font-size="12" lengthAdjust="spacing" textLength="146" x="36" y="382.0352">RepositorioAreaAtividade</text><line style="stroke:#A80036;stroke-width:1.5;" x1="8" x2="184" y1="393.5" y2="393.5"/><line style="stroke:#A80036;stroke-width:1.5;" x1="8" x2="184" y1="401.5" y2="401.5"/><text fill="#000000" font-family="sans-serif" font-size="11" lengthAdjust="spacing" textLength="163" x="13" y="416.1348">+List&lt;AreaAtividade&gt; getAll()</text><!--MD5=[b50dae6c615a8ba864f1e0e68a4914e1]
class RepositorioCompetenciaTecnica--><rect codeLine="22" fill="#FEFECE" filter="url(#fb3wr7sgzicff)" height="60.9551" id="RepositorioCompetenciaTecnica" style="stroke:#A80036;stroke-width:1.5;" width="465" x="220.5" y="361.5"/><ellipse cx="356.75" cy="377.5" fill="#ADD1B2" rx="11" ry="11" style="stroke:#A80036;stroke-width:1.0;"/><path d="M359.2231,383.6431 Q358.6421,383.9419 358.0029,384.0913 Q357.3638,384.2407 356.6582,384.2407 Q354.1514,384.2407 352.8315,382.5889 Q351.5117,380.937 351.5117,377.8159 Q351.5117,374.6865 352.8315,373.0347 Q354.1514,371.3828 356.6582,371.3828 Q357.3638,371.3828 358.0112,371.5322 Q358.6587,371.6816 359.2231,371.9805 L359.2231,374.7031 Q358.5923,374.1221 357.9988,373.8523 Q357.4053,373.5825 356.7744,373.5825 Q355.4297,373.5825 354.7449,374.6492 Q354.0601,375.7158 354.0601,377.8159 Q354.0601,379.9077 354.7449,380.9744 Q355.4297,382.041 356.7744,382.041 Q357.4053,382.041 357.9988,381.7712 Q358.5923,381.5015 359.2231,380.9204 Z " fill="#000000"/><text fill="#000000" font-family="sans-serif" font-size="12" lengthAdjust="spacing" textLength="184" x="377.25" y="382.0352">RepositorioCompetenciaTecnica</text><line style="stroke:#A80036;stroke-width:1.5;" x1="221.5" x2="684.5" y1="393.5" y2="393.5"/><line style="stroke:#A80036;stroke-width:1.5;" x1="221.5" x2="684.5" y1="401.5" y2="401.5"/><text fill="#000000" font-family="sans-serif" font-size="11" lengthAdjust="spacing" textLength="453" x="226.5" y="416.1348">+List&lt;CompetenciaTecnica&gt; getListaCompetenciaTecnicaByAreaAtividade(String id)</text><!--MD5=[917948592ea275ca5c9d0b1ee1b4f2c2]
class RepositorioCategoriaTarefa--><rect codeLine="26" fill="#FEFECE" filter="url(#fb3wr7sgzicff)" height="99.8203" id="RepositorioCategoriaTarefa" style="stroke:#A80036;stroke-width:1.5;" width="300" x="724" y="342"/><ellipse cx="790.75" cy="358" fill="#ADD1B2" rx="11" ry="11" style="stroke:#A80036;stroke-width:1.0;"/><path d="M793.2231,364.1431 Q792.6421,364.4419 792.0029,364.5913 Q791.3638,364.7407 790.6582,364.7407 Q788.1514,364.7407 786.8315,363.0889 Q785.5117,361.437 785.5117,358.3159 Q785.5117,355.1865 786.8315,353.5347 Q788.1514,351.8828 790.6582,351.8828 Q791.3638,351.8828 792.0112,352.0322 Q792.6587,352.1816 793.2231,352.4805 L793.2231,355.2031 Q792.5923,354.6221 791.9988,354.3523 Q791.4053,354.0825 790.7744,354.0825 Q789.4297,354.0825 788.7449,355.1492 Q788.0601,356.2158 788.0601,358.3159 Q788.0601,360.4077 788.7449,361.4744 Q789.4297,362.541 790.7744,362.541 Q791.4053,362.541 791.9988,362.2712 Q792.5923,362.0015 793.2231,361.4204 Z " fill="#000000"/><text fill="#000000" font-family="sans-serif" font-size="12" lengthAdjust="spacing" textLength="158" x="811.25" y="362.5352">RepositorioCategoriaTarefa</text><line style="stroke:#A80036;stroke-width:1.5;" x1="725" x2="1023" y1="374" y2="374"/><line style="stroke:#A80036;stroke-width:1.5;" x1="725" x2="1023" y1="382" y2="382"/><text fill="#000000" font-family="sans-serif" font-size="11" lengthAdjust="spacing" textLength="140" x="730" y="396.6348">+save(CategoriaTarefa ct)</text><text fill="#000000" font-family="sans-serif" font-size="11" lengthAdjust="spacing" textLength="174" x="730" y="409.5898">+List&lt;CategoriaTarefa&gt; getAll()</text><text fill="#000000" font-family="sans-serif" font-size="11" lengthAdjust="spacing" textLength="288" x="730" y="422.5449">+List&lt;CaraterCT&gt; getCaraterCTByCatTarID(String id)</text><text fill="#000000" font-family="sans-serif" font-size="11" lengthAdjust="spacing" textLength="172" x="730" y="435.5">+CategoriaTarefa find(String id)</text><!--MD5=[6fa14b346b4b5c2b3247f8e7c37afd04]
class CategoriaTarefa--><rect codeLine="33" fill="#FEFECE" filter="url(#fb3wr7sgzicff)" height="216.416" id="CategoriaTarefa" style="stroke:#A80036;stroke-width:1.5;" width="486" x="636" y="519"/><ellipse cx="828.25" cy="535" fill="#ADD1B2" rx="11" ry="11" style="stroke:#A80036;stroke-width:1.0;"/><path d="M830.7231,541.1431 Q830.1421,541.4419 829.5029,541.5913 Q828.8638,541.7407 828.1582,541.7407 Q825.6514,541.7407 824.3315,540.0889 Q823.0117,538.437 823.0117,535.3159 Q823.0117,532.1865 824.3315,530.5347 Q825.6514,528.8828 828.1582,528.8828 Q828.8638,528.8828 829.5112,529.0322 Q830.1587,529.1816 830.7231,529.4805 L830.7231,532.2031 Q830.0923,531.6221 829.4988,531.3523 Q828.9053,531.0825 828.2744,531.0825 Q826.9297,531.0825 826.2449,532.1492 Q825.5601,533.2158 825.5601,535.3159 Q825.5601,537.4077 826.2449,538.4744 Q826.9297,539.541 828.2744,539.541 Q828.9053,539.541 829.4988,539.2712 Q830.0923,539.0015 830.7231,538.4204 Z " fill="#000000"/><text fill="#000000" font-family="sans-serif" font-size="12" lengthAdjust="spacing" textLength="93" x="848.75" y="539.5352">CategoriaTarefa</text><line style="stroke:#A80036;stroke-width:1.5;" x1="637" x2="1121" y1="551" y2="551"/><text fill="#000000" font-family="sans-serif" font-size="11" lengthAdjust="spacing" textLength="103" x="642" y="565.6348">-String idCategoria</text><text fill="#000000" font-family="sans-serif" font-size="11" lengthAdjust="spacing" textLength="93" x="642" y="578.5898">-String descricao</text><text fill="#000000" font-family="sans-serif" font-size="11" lengthAdjust="spacing" textLength="157" x="642" y="591.5449">-AreaAtividade areaAtividade</text><text fill="#000000" font-family="sans-serif" font-size="11" lengthAdjust="spacing" textLength="153" x="642" y="604.5">-List&lt;CaraterCT&gt; lcompTec</text><line style="stroke:#A80036;stroke-width:1.5;" x1="637" x2="1121" y1="610.8203" y2="610.8203"/><text fill="#000000" font-family="sans-serif" font-size="11" lengthAdjust="spacing" textLength="170" x="642" y="625.4551">-setDescricao(String descricao)</text><text fill="#000000" font-family="sans-serif" font-size="11" lengthAdjust="spacing" textLength="256" x="642" y="638.4102">-setAreaAtividade(AreaAtividade areaAtividade)</text><text fill="#000000" font-family="sans-serif" font-size="11" lengthAdjust="spacing" textLength="229" x="642" y="651.3652">-setLcompTec(List&lt;CaraterCT&gt; lcomptec)</text><text fill="#000000" font-family="sans-serif" font-size="11" lengthAdjust="spacing" textLength="474" x="642" y="664.3203">+CategoriaTarefa(String descricao, AreaAtividade oArea, List&lt;CaraterCT&gt; listCompTec)</text><text fill="#000000" font-family="sans-serif" font-size="11" lengthAdjust="spacing" textLength="79" x="642" y="677.2754">+String getId()</text><text fill="#000000" font-family="sans-serif" font-size="11" lengthAdjust="spacing" textLength="192" x="642" y="690.2305">+setIdCategoria(String idCategoria)</text><text fill="#000000" font-family="sans-serif" font-size="11" lengthAdjust="spacing" textLength="122" x="642" y="703.1855">+String getDescricao()</text><text fill="#000000" font-family="sans-serif" font-size="11" lengthAdjust="spacing" textLength="187" x="642" y="716.1406">+AreaAtividade getAreaAtividade()</text><text fill="#000000" font-family="sans-serif" font-size="11" lengthAdjust="spacing" textLength="184" x="642" y="729.0957">+List&lt;CaraterCT&gt; getLcompTec()</text><!--MD5=[a322db5a7ec64d2ff8f2d6cf1831dcec]
class CompetenciaTecnica--><rect codeLine="49" fill="#FEFECE" filter="url(#fb3wr7sgzicff)" height="60.9551" id="CompetenciaTecnica" style="stroke:#A80036;stroke-width:1.5;" width="299" x="301.5" y="596.5"/><ellipse cx="387.25" cy="612.5" fill="#ADD1B2" rx="11" ry="11" style="stroke:#A80036;stroke-width:1.0;"/><path d="M389.7231,618.6431 Q389.1421,618.9419 388.5029,619.0913 Q387.8638,619.2407 387.1582,619.2407 Q384.6514,619.2407 383.3315,617.5889 Q382.0117,615.937 382.0117,612.8159 Q382.0117,609.6865 383.3315,608.0347 Q384.6514,606.3828 387.1582,606.3828 Q387.8638,606.3828 388.5112,606.5322 Q389.1587,606.6816 389.7231,606.9805 L389.7231,609.7031 Q389.0923,609.1221 388.4988,608.8523 Q387.9053,608.5825 387.2744,608.5825 Q385.9297,608.5825 385.2449,609.6492 Q384.5601,610.7158 384.5601,612.8159 Q384.5601,614.9077 385.2449,615.9744 Q385.9297,617.041 387.2744,617.041 Q387.9053,617.041 388.4988,616.7712 Q389.0923,616.5015 389.7231,615.9204 Z " fill="#000000"/><text fill="#000000" font-family="sans-serif" font-size="12" lengthAdjust="spacing" textLength="119" x="407.75" y="617.0352">CompetenciaTecnica</text><line style="stroke:#A80036;stroke-width:1.5;" x1="302.5" x2="599.5" y1="628.5" y2="628.5"/><line style="stroke:#A80036;stroke-width:1.5;" x1="302.5" x2="599.5" y1="636.5" y2="636.5"/><text fill="#000000" font-family="sans-serif" font-size="11" lengthAdjust="spacing" textLength="287" x="307.5" y="651.1348">+ArrayList&lt;String&gt; getListaGrausProficienciaString()</text><!--MD5=[e2102f5abd02ff4b1367847ed9dd6426]
link AdicionarCategoriaTarefaUI to RegistarCategoriaTarefaController--><path codeLine="54" d="M453,55.01 C453,69.83 453,90.13 453,110.75 " fill="none" id="AdicionarCategoriaTarefaUI-to-RegistarCategoriaTarefaController" style="stroke:#A80036;stroke-width:1.0;stroke-dasharray:7.0,7.0;"/><polygon fill="#A80036" points="453,116,457,107,453,111,449,107,453,116" style="stroke:#A80036;stroke-width:1.0;"/><!--MD5=[ccf5da357661e30d328f91edc1ee943a]
link RegistarCategoriaTarefaController to RepositorioAreaAtividade--><path codeLine="55" d="M300.82,281.13 C249.8,308.5 195.84,337.45 156.12,358.75 " fill="none" id="RegistarCategoriaTarefaController-to-RepositorioAreaAtividade" style="stroke:#A80036;stroke-width:1.0;stroke-dasharray:7.0,7.0;"/><polygon fill="#A80036" points="151.34,361.31,161.1604,360.5612,155.7414,358.9378,157.3648,353.5189,151.34,361.31" style="stroke:#A80036;stroke-width:1.0;"/><!--MD5=[72178049c9098e6a0e277ce9324efa97]
link RegistarCategoriaTarefaController to RepositorioCompetenciaTecnica--><path codeLine="56" d="M453,281.27 C453,307.51 453,335.18 453,356.17 " fill="none" id="RegistarCategoriaTarefaController-to-RepositorioCompetenciaTecnica" style="stroke:#A80036;stroke-width:1.0;stroke-dasharray:7.0,7.0;"/><polygon fill="#A80036" points="453,361.36,457,352.36,453,356.36,449,352.36,453,361.36" style="stroke:#A80036;stroke-width:1.0;"/><!--MD5=[fdd30e5ce674d7ef1fd29b39db07eb75]
link RepositorioCompetenciaTecnica to CompetenciaTecnica--><path codeLine="57" d="M452.75,422.51 C452.38,465.55 451.69,545.38 451.3,591.22 " fill="none" id="RepositorioCompetenciaTecnica-to-CompetenciaTecnica" style="stroke:#A80036;stroke-width:1.0;"/><polygon fill="#A80036" points="451.25,596.36,455.327,587.3946,451.2929,591.3602,447.3273,587.326,451.25,596.36" style="stroke:#A80036;stroke-width:1.0;"/><text fill="#000000" font-family="sans-serif" font-size="13" lengthAdjust="spacing" textLength="42" x="454" y="485.5684">possui</text><text fill="#000000" font-family="sans-serif" font-size="13" lengthAdjust="spacing" textLength="8" x="443.8734" y="442.9546">1</text><text fill="#000000" font-family="sans-serif" font-size="13" lengthAdjust="spacing" textLength="6" x="444.6484" y="585.6241">*</text><!--MD5=[0effb5ad82f30471398b47e6fce50b2e]
link RegistarCategoriaTarefaController to RepositorioCategoriaTarefa--><path codeLine="58" d="M632.46,281.13 C676.19,301.02 721.75,321.75 761.37,339.77 " fill="none" id="RegistarCategoriaTarefaController-to-RepositorioCategoriaTarefa" style="stroke:#A80036;stroke-width:1.0;stroke-dasharray:7.0,7.0;"/><polygon fill="#A80036" points="766.17,341.95,759.6406,334.5766,761.6206,339.8756,756.3216,341.8556,766.17,341.95" style="stroke:#A80036;stroke-width:1.0;"/><!--MD5=[ed2cc85ff1d1555f466738f372f391f3]
link RepositorioCategoriaTarefa to CategoriaTarefa--><path codeLine="59" d="M875.05,442.13 C875.51,463.16 876.05,488.65 876.59,513.87 " fill="none" id="RepositorioCategoriaTarefa-to-CategoriaTarefa" style="stroke:#A80036;stroke-width:1.0;"/><polygon fill="#A80036" points="876.7,518.9,880.5192,509.8218,876.6,513.901,872.5208,509.9818,876.7,518.9" style="stroke:#A80036;stroke-width:1.0;"/><text fill="#000000" font-family="sans-serif" font-size="13" lengthAdjust="spacing" textLength="42" x="878" y="485.5684">possui</text><text fill="#000000" font-family="sans-serif" font-size="13" lengthAdjust="spacing" textLength="8" x="866.6536" y="462.4753">1</text><text fill="#000000" font-family="sans-serif" font-size="13" lengthAdjust="spacing" textLength="6" x="870.3273" y="508.3365">*</text><!--MD5=[d2b1f897329c0c9c5a207bb90a9ac860]
@startuml
skinparam classAttributeIconSize 0

class AdicionarCategoriaTarefaUI {
}

class RegistarCategoriaTarefaController {
  +ArrayList<String> getListaAreaAtividadeDescBreve()
  +List<String> getListaCompetenciasTecnicasByIdAreaAtividade()
  +List<AreaAtividade> getListaAreasAtividade()
  +List<CompetenciaTecnica> getListaCompetenciasTecnicas()
  +List<CategoriaTarefa> getListaCatTarefa()
  +CompetenciaTecnica getCompetenciaTecnicaByDescBreve(String descBreve)
  +boolean registaCategoriaTarefa(String descricao, AreaAtividade oArea, List<CaraterCT> lcompTec)
  +addCompTecnicaToList(CompetenciaTecnica ct, int obrigatoriedade, String grauProficiencia)
  +AreaAtividade getAreaAtividade(String id)
}

class RepositorioAreaAtividade {
  +List<AreaAtividade> getAll()
}

class RepositorioCompetenciaTecnica {
  +List<CompetenciaTecnica> getListaCompetenciaTecnicaByAreaAtividade(String id)
}

class RepositorioCategoriaTarefa {
  +save(CategoriaTarefa ct)
  +List<CategoriaTarefa> getAll()
  +List<CaraterCT> getCaraterCTByCatTarID(String id)
  +CategoriaTarefa find(String id)
}

class CategoriaTarefa {
  -String idCategoria
  -String descricao
  -AreaAtividade areaAtividade
  -List<CaraterCT> lcompTec
  -setDescricao(String descricao)
  -setAreaAtividade(AreaAtividade areaAtividade)
  -setLcompTec(List<CaraterCT> lcomptec)
  +CategoriaTarefa(String descricao, AreaAtividade oArea, List<CaraterCT> listCompTec)
  +String getId()
  +setIdCategoria(String idCategoria)
  +String getDescricao()
  +AreaAtividade getAreaAtividade()
  +List<CaraterCT> getLcompTec()
  }

  class CompetenciaTecnica {
    +ArrayList<String> getListaGrausProficienciaString()
  }


AdicionarCategoriaTarefaUI ..> RegistarCategoriaTarefaController
RegistarCategoriaTarefaController ..> RepositorioAreaAtividade
RegistarCategoriaTarefaController ..> RepositorioCompetenciaTecnica
RepositorioCompetenciaTecnica "1" - -> "*" CompetenciaTecnica : possui
RegistarCategoriaTarefaController ..> RepositorioCategoriaTarefa
RepositorioCategoriaTarefa "1" - -> "*" CategoriaTarefa : possui

@enduml

PlantUML version 1.2021.00(Sun Jan 10 10:25:05 WET 2021)
(GPL source distribution)
Java Runtime: Java(TM) SE Runtime Environment
JVM: Java HotSpot(TM) 64-Bit Server VM
Default Encoding: UTF-8
Language: pt
Country: PT
--></g></svg>