<?xml version="1.0" encoding="UTF-8" standalone="no"?><svg xmlns="http://www.w3.org/2000/svg" xmlns:xlink="http://www.w3.org/1999/xlink" contentScriptType="application/ecmascript" contentStyleType="text/css" height="1166px" preserveAspectRatio="none" style="width:2768px;height:1166px;" version="1.1" viewBox="0 0 2768 1166" width="2768px" zoomAndPan="magnify"><defs><filter height="300%" id="ffo5vhaj0y8cm" width="300%" x="-1" y="-1"><feGaussianBlur result="blurOut" stdDeviation="2.0"/><feColorMatrix in="blurOut" result="blurOut2" type="matrix" values="0 0 0 0 0 0 0 0 0 0 0 0 0 0 0 0 0 0 .4 0"/><feOffset dx="4.0" dy="4.0" in="blurOut2" result="blurOut3"/><feBlend in="SourceGraphic" in2="blurOut3" mode="normal"/></filter></defs><g><rect fill="#FFFFFF" filter="url(#ffo5vhaj0y8cm)" height="965.0508" style="stroke:#A80036;stroke-width:1.0;" width="10" x="68" y="98.4883"/><rect fill="#FFFFFF" filter="url(#ffo5vhaj0y8cm)" height="162.5527" style="stroke:#A80036;stroke-width:1.0;" width="10" x="499" y="119.7988"/><rect fill="#FFFFFF" filter="url(#ffo5vhaj0y8cm)" height="162.5527" style="stroke:#A80036;stroke-width:1.0;" width="10" x="499" y="311.6621"/><rect fill="#FFFFFF" filter="url(#ffo5vhaj0y8cm)" height="117.9316" style="stroke:#A80036;stroke-width:1.0;" width="10" x="499" y="527.8359"/><rect fill="#FFFFFF" filter="url(#ffo5vhaj0y8cm)" height="149.9316" style="stroke:#A80036;stroke-width:1.0;" width="10" x="499" y="675.0781"/><rect fill="#FFFFFF" filter="url(#ffo5vhaj0y8cm)" height="209.2188" style="stroke:#A80036;stroke-width:1.0;" width="10" x="499" y="854.3203"/><rect fill="#FFFFFF" filter="url(#ffo5vhaj0y8cm)" height="88.6211" style="stroke:#A80036;stroke-width:1.0;" width="10" x="1027" y="149.1094"/><rect fill="#FFFFFF" filter="url(#ffo5vhaj0y8cm)" height="88.6211" style="stroke:#A80036;stroke-width:1.0;" width="10" x="1027" y="340.9727"/><rect fill="#FFFFFF" filter="url(#ffo5vhaj0y8cm)" height="59.3105" style="stroke:#A80036;stroke-width:1.0;" width="10" x="1027" y="557.1465"/><rect fill="#FFFFFF" filter="url(#ffo5vhaj0y8cm)" height="59.3105" style="stroke:#A80036;stroke-width:1.0;" width="10" x="1027" y="704.3887"/><rect fill="#FFFFFF" filter="url(#ffo5vhaj0y8cm)" height="179.9082" style="stroke:#A80036;stroke-width:1.0;" width="10" x="1027" y="883.6309"/><rect fill="#FFFFFF" filter="url(#ffo5vhaj0y8cm)" height="59.3105" style="stroke:#A80036;stroke-width:1.0;" width="10" x="1277" y="178.4199"/><rect fill="#FFFFFF" filter="url(#ffo5vhaj0y8cm)" height="59.3105" style="stroke:#A80036;stroke-width:1.0;" width="10" x="1503" y="370.2832"/><rect fill="#FFFFFF" filter="url(#ffo5vhaj0y8cm)" height="88.6211" style="stroke:#A80036;stroke-width:1.0;" width="10" x="1839" y="974.918"/><rect fill="#FFFFFF" filter="url(#ffo5vhaj0y8cm)" height="30" style="stroke:#A80036;stroke-width:1.0;" width="10" x="2036.5" y="586.457"/><rect fill="#FFFFFF" filter="url(#ffo5vhaj0y8cm)" height="30" style="stroke:#A80036;stroke-width:1.0;" width="10" x="2228" y="733.6992"/><rect fill="#FFFFFF" filter="url(#ffo5vhaj0y8cm)" height="30" style="stroke:#A80036;stroke-width:1.0;" width="10" x="2399.5" y="207.7305"/><rect fill="#FFFFFF" filter="url(#ffo5vhaj0y8cm)" height="30" style="stroke:#A80036;stroke-width:1.0;" width="10" x="2543.5" y="399.5938"/><rect fill="#FFFFFF" filter="url(#ffo5vhaj0y8cm)" height="30" style="stroke:#A80036;stroke-width:1.0;" width="10" x="2695" y="1004.2285"/><rect fill="#FFFFFF" filter="url(#ffo5vhaj0y8cm)" height="307.4844" style="stroke:#000000;stroke-width:2.0;" width="2334.5" x="10" y="489.2148"/><line style="stroke:#A80036;stroke-width:1.0;stroke-dasharray:5.0,5.0;" x1="73" x2="73" y1="88.4883" y2="1081.5391"/><line style="stroke:#A80036;stroke-width:1.0;stroke-dasharray:5.0,5.0;" x1="503.5" x2="503.5" y1="88.4883" y2="1081.5391"/><line style="stroke:#A80036;stroke-width:1.0;stroke-dasharray:5.0,5.0;" x1="1031.5" x2="1031.5" y1="88.4883" y2="1081.5391"/><line style="stroke:#A80036;stroke-width:1.0;stroke-dasharray:5.0,5.0;" x1="1281.5" x2="1281.5" y1="88.4883" y2="1081.5391"/><line style="stroke:#A80036;stroke-width:1.0;stroke-dasharray:5.0,5.0;" x1="1507.5" x2="1507.5" y1="88.4883" y2="1081.5391"/><line style="stroke:#A80036;stroke-width:1.0;stroke-dasharray:5.0,5.0;" x1="1681.5" x2="1681.5" y1="932.6191" y2="1081.5391"/><line style="stroke:#A80036;stroke-width:1.0;stroke-dasharray:5.0,5.0;" x1="1843.5" x2="1843.5" y1="88.4883" y2="1081.5391"/><line style="stroke:#A80036;stroke-width:1.0;stroke-dasharray:5.0,5.0;" x1="2041.5" x2="2041.5" y1="88.4883" y2="1081.5391"/><line style="stroke:#A80036;stroke-width:1.0;stroke-dasharray:5.0,5.0;" x1="2232.5" x2="2232.5" y1="88.4883" y2="1081.5391"/><line style="stroke:#A80036;stroke-width:1.0;stroke-dasharray:5.0,5.0;" x1="2404.5" x2="2404.5" y1="88.4883" y2="1081.5391"/><line style="stroke:#A80036;stroke-width:1.0;stroke-dasharray:5.0,5.0;" x1="2548.5" x2="2548.5" y1="88.4883" y2="1081.5391"/><line style="stroke:#A80036;stroke-width:1.0;stroke-dasharray:5.0,5.0;" x1="2699.5" x2="2699.5" y1="88.4883" y2="1081.5391"/><text fill="#000000" font-family="sans-serif" font-size="14" lengthAdjust="spacing" textLength="100" x="20" y="85.5352">Administrativo</text><ellipse cx="73" cy="15" fill="#FEFECE" filter="url(#ffo5vhaj0y8cm)" rx="8" ry="8" style="stroke:#A80036;stroke-width:2.0;"/><path d="M73,23 L73,50 M60,31 L86,31 M73,50 L60,65 M73,50 L86,65 " fill="none" filter="url(#ffo5vhaj0y8cm)" style="stroke:#A80036;stroke-width:2.0;"/><text fill="#000000" font-family="sans-serif" font-size="14" lengthAdjust="spacing" textLength="100" x="20" y="1094.0742">Administrativo</text><ellipse cx="73" cy="1107.0273" fill="#FEFECE" filter="url(#ffo5vhaj0y8cm)" rx="8" ry="8" style="stroke:#A80036;stroke-width:2.0;"/><path d="M73,1115.0273 L73,1142.0273 M60,1123.0273 L86,1123.0273 M73,1142.0273 L60,1157.0273 M73,1142.0273 L86,1157.0273 " fill="none" filter="url(#ffo5vhaj0y8cm)" style="stroke:#A80036;stroke-width:2.0;"/><rect fill="#FEFECE" filter="url(#ffo5vhaj0y8cm)" height="30.4883" style="stroke:#A80036;stroke-width:1.5;" width="205" x="399.5" y="53"/><text fill="#000000" font-family="sans-serif" font-size="14" lengthAdjust="spacing" textLength="191" x="406.5" y="73.5352">AdicionarCategoriaTarefaUI</text><rect fill="#FEFECE" filter="url(#ffo5vhaj0y8cm)" height="30.4883" style="stroke:#A80036;stroke-width:1.5;" width="205" x="399.5" y="1080.5391"/><text fill="#000000" font-family="sans-serif" font-size="14" lengthAdjust="spacing" textLength="191" x="406.5" y="1101.0742">AdicionarCategoriaTarefaUI</text><rect fill="#FEFECE" filter="url(#ffo5vhaj0y8cm)" height="30.4883" style="stroke:#A80036;stroke-width:1.5;" width="251" x="904.5" y="53"/><text fill="#000000" font-family="sans-serif" font-size="14" lengthAdjust="spacing" textLength="237" x="911.5" y="73.5352">RegistarCategoriaTarefaController</text><rect fill="#FEFECE" filter="url(#ffo5vhaj0y8cm)" height="30.4883" style="stroke:#A80036;stroke-width:1.5;" width="251" x="904.5" y="1080.5391"/><text fill="#000000" font-family="sans-serif" font-size="14" lengthAdjust="spacing" textLength="237" x="911.5" y="1101.0742">RegistarCategoriaTarefaController</text><rect fill="#FEFECE" filter="url(#ffo5vhaj0y8cm)" height="30.4883" style="stroke:#A80036;stroke-width:1.5;" width="189" x="1185.5" y="53"/><text fill="#000000" font-family="sans-serif" font-size="14" lengthAdjust="spacing" textLength="175" x="1192.5" y="73.5352">RepositorioAreaAtividade</text><rect fill="#FEFECE" filter="url(#ffo5vhaj0y8cm)" height="30.4883" style="stroke:#A80036;stroke-width:1.5;" width="189" x="1185.5" y="1080.5391"/><text fill="#000000" font-family="sans-serif" font-size="14" lengthAdjust="spacing" textLength="175" x="1192.5" y="1101.0742">RepositorioAreaAtividade</text><rect fill="#FEFECE" filter="url(#ffo5vhaj0y8cm)" height="30.4883" style="stroke:#A80036;stroke-width:1.5;" width="235" x="1388.5" y="53"/><text fill="#000000" font-family="sans-serif" font-size="14" lengthAdjust="spacing" textLength="221" x="1395.5" y="73.5352">RepositorioCompetenciaTecnica</text><rect fill="#FEFECE" filter="url(#ffo5vhaj0y8cm)" height="30.4883" style="stroke:#A80036;stroke-width:1.5;" width="235" x="1388.5" y="1080.5391"/><text fill="#000000" font-family="sans-serif" font-size="14" lengthAdjust="spacing" textLength="221" x="1395.5" y="1101.0742">RepositorioCompetenciaTecnica</text><rect fill="#FEFECE" filter="url(#ffo5vhaj0y8cm)" height="46.9766" style="stroke:#A80036;stroke-width:1.5;" width="85" x="1637.5" y="1080.5391"/><text fill="#000000" font-family="sans-serif" font-size="14" lengthAdjust="spacing" textLength="20" x="1670" y="1101.0742">cat</text><text fill="#000000" font-family="sans-serif" font-size="14" lengthAdjust="spacing" textLength="71" x="1644.5" y="1117.5625">:Categoria</text><rect fill="#FEFECE" filter="url(#ffo5vhaj0y8cm)" height="30.4883" style="stroke:#A80036;stroke-width:1.5;" width="211" x="1736.5" y="53"/><text fill="#000000" font-family="sans-serif" font-size="14" lengthAdjust="spacing" textLength="197" x="1743.5" y="73.5352">RepositorioCategoriasTarefa</text><rect fill="#FEFECE" filter="url(#ffo5vhaj0y8cm)" height="30.4883" style="stroke:#A80036;stroke-width:1.5;" width="211" x="1736.5" y="1080.5391"/><text fill="#000000" font-family="sans-serif" font-size="14" lengthAdjust="spacing" textLength="197" x="1743.5" y="1101.0742">RepositorioCategoriasTarefa</text><rect fill="#FEFECE" filter="url(#ffo5vhaj0y8cm)" height="46.9766" style="stroke:#A80036;stroke-width:1.5;" width="156" x="1961.5" y="36.5117"/><text fill="#000000" font-family="sans-serif" font-size="14" lengthAdjust="spacing" textLength="16" x="2031.5" y="57.0469">ct:</text><text fill="#000000" font-family="sans-serif" font-size="14" lengthAdjust="spacing" textLength="142" x="1968.5" y="73.5352">CompetenciaTecnica</text><rect fill="#FEFECE" filter="url(#ffo5vhaj0y8cm)" height="46.9766" style="stroke:#A80036;stroke-width:1.5;" width="156" x="1961.5" y="1080.5391"/><text fill="#000000" font-family="sans-serif" font-size="14" lengthAdjust="spacing" textLength="16" x="2031.5" y="1101.0742">ct:</text><text fill="#000000" font-family="sans-serif" font-size="14" lengthAdjust="spacing" textLength="142" x="1968.5" y="1117.5625">CompetenciaTecnica</text><rect fill="#FEFECE" filter="url(#ffo5vhaj0y8cm)" height="30.4883" style="stroke:#A80036;stroke-width:1.5;" width="199" x="2131.5" y="53"/><text fill="#000000" font-family="sans-serif" font-size="14" lengthAdjust="spacing" textLength="185" x="2138.5" y="73.5352">lcompTec:List&lt;CaraterCT&gt;</text><rect fill="#FEFECE" filter="url(#ffo5vhaj0y8cm)" height="30.4883" style="stroke:#A80036;stroke-width:1.5;" width="199" x="2131.5" y="1080.5391"/><text fill="#000000" font-family="sans-serif" font-size="14" lengthAdjust="spacing" textLength="185" x="2138.5" y="1101.0742">lcompTec:List&lt;CaraterCT&gt;</text><text fill="#000000" font-family="sans-serif" font-size="14" lengthAdjust="spacing" textLength="114" x="2344.5" y="85.5352">AreaAtividadeDB</text><path d="M2386.5,36 C2386.5,26 2404.5,26 2404.5,26 C2404.5,26 2422.5,26 2422.5,36 L2422.5,62 C2422.5,72 2404.5,72 2404.5,72 C2404.5,72 2386.5,72 2386.5,62 L2386.5,36 " fill="#FEFECE" filter="url(#ffo5vhaj0y8cm)" style="stroke:#000000;stroke-width:1.5;"/><path d="M2386.5,36 C2386.5,46 2404.5,46 2404.5,46 C2404.5,46 2422.5,46 2422.5,36 " fill="none" style="stroke:#000000;stroke-width:1.5;"/><text fill="#000000" font-family="sans-serif" font-size="14" lengthAdjust="spacing" textLength="114" x="2344.5" y="1094.0742">AreaAtividadeDB</text><path d="M2386.5,1107.0273 C2386.5,1097.0273 2404.5,1097.0273 2404.5,1097.0273 C2404.5,1097.0273 2422.5,1097.0273 2422.5,1107.0273 L2422.5,1133.0273 C2422.5,1143.0273 2404.5,1143.0273 2404.5,1143.0273 C2404.5,1143.0273 2386.5,1143.0273 2386.5,1133.0273 L2386.5,1107.0273 " fill="#FEFECE" filter="url(#ffo5vhaj0y8cm)" style="stroke:#000000;stroke-width:1.5;"/><path d="M2386.5,1107.0273 C2386.5,1117.0273 2404.5,1117.0273 2404.5,1117.0273 C2404.5,1117.0273 2422.5,1117.0273 2422.5,1107.0273 " fill="none" style="stroke:#000000;stroke-width:1.5;"/><text fill="#000000" font-family="sans-serif" font-size="14" lengthAdjust="spacing" textLength="142" x="2474.5" y="85.5352">CompetenciaTecnica</text><path d="M2530.5,36 C2530.5,26 2548.5,26 2548.5,26 C2548.5,26 2566.5,26 2566.5,36 L2566.5,62 C2566.5,72 2548.5,72 2548.5,72 C2548.5,72 2530.5,72 2530.5,62 L2530.5,36 " fill="#FEFECE" filter="url(#ffo5vhaj0y8cm)" style="stroke:#000000;stroke-width:1.5;"/><path d="M2530.5,36 C2530.5,46 2548.5,46 2548.5,46 C2548.5,46 2566.5,46 2566.5,36 " fill="none" style="stroke:#000000;stroke-width:1.5;"/><text fill="#000000" font-family="sans-serif" font-size="14" lengthAdjust="spacing" textLength="142" x="2474.5" y="1094.0742">CompetenciaTecnica</text><path d="M2530.5,1107.0273 C2530.5,1097.0273 2548.5,1097.0273 2548.5,1097.0273 C2548.5,1097.0273 2566.5,1097.0273 2566.5,1107.0273 L2566.5,1133.0273 C2566.5,1143.0273 2548.5,1143.0273 2548.5,1143.0273 C2548.5,1143.0273 2530.5,1143.0273 2530.5,1133.0273 L2530.5,1107.0273 " fill="#FEFECE" filter="url(#ffo5vhaj0y8cm)" style="stroke:#000000;stroke-width:1.5;"/><path d="M2530.5,1107.0273 C2530.5,1117.0273 2548.5,1117.0273 2548.5,1117.0273 C2548.5,1117.0273 2566.5,1117.0273 2566.5,1107.0273 " fill="none" style="stroke:#000000;stroke-width:1.5;"/><text fill="#000000" font-family="sans-serif" font-size="14" lengthAdjust="spacing" textLength="129" x="2632.5" y="85.5352">CategoriaTarefaDB</text><path d="M2682,36 C2682,26 2700,26 2700,26 C2700,26 2718,26 2718,36 L2718,62 C2718,72 2700,72 2700,72 C2700,72 2682,72 2682,62 L2682,36 " fill="#FEFECE" filter="url(#ffo5vhaj0y8cm)" style="stroke:#000000;stroke-width:1.5;"/><path d="M2682,36 C2682,46 2700,46 2700,46 C2700,46 2718,46 2718,36 " fill="none" style="stroke:#000000;stroke-width:1.5;"/><text fill="#000000" font-family="sans-serif" font-size="14" lengthAdjust="spacing" textLength="129" x="2632.5" y="1094.0742">CategoriaTarefaDB</text><path d="M2682,1107.0273 C2682,1097.0273 2700,1097.0273 2700,1097.0273 C2700,1097.0273 2718,1097.0273 2718,1107.0273 L2718,1133.0273 C2718,1143.0273 2700,1143.0273 2700,1143.0273 C2700,1143.0273 2682,1143.0273 2682,1133.0273 L2682,1107.0273 " fill="#FEFECE" filter="url(#ffo5vhaj0y8cm)" style="stroke:#000000;stroke-width:1.5;"/><path d="M2682,1107.0273 C2682,1117.0273 2700,1117.0273 2700,1117.0273 C2700,1117.0273 2718,1117.0273 2718,1107.0273 " fill="none" style="stroke:#000000;stroke-width:1.5;"/><rect fill="#FFFFFF" filter="url(#ffo5vhaj0y8cm)" height="965.0508" style="stroke:#A80036;stroke-width:1.0;" width="10" x="68" y="98.4883"/><rect fill="#FFFFFF" filter="url(#ffo5vhaj0y8cm)" height="162.5527" style="stroke:#A80036;stroke-width:1.0;" width="10" x="499" y="119.7988"/><rect fill="#FFFFFF" filter="url(#ffo5vhaj0y8cm)" height="162.5527" style="stroke:#A80036;stroke-width:1.0;" width="10" x="499" y="311.6621"/><rect fill="#FFFFFF" filter="url(#ffo5vhaj0y8cm)" height="117.9316" style="stroke:#A80036;stroke-width:1.0;" width="10" x="499" y="527.8359"/><rect fill="#FFFFFF" filter="url(#ffo5vhaj0y8cm)" height="149.9316" style="stroke:#A80036;stroke-width:1.0;" width="10" x="499" y="675.0781"/><rect fill="#FFFFFF" filter="url(#ffo5vhaj0y8cm)" height="209.2188" style="stroke:#A80036;stroke-width:1.0;" width="10" x="499" y="854.3203"/><rect fill="#FFFFFF" filter="url(#ffo5vhaj0y8cm)" height="88.6211" style="stroke:#A80036;stroke-width:1.0;" width="10" x="1027" y="149.1094"/><rect fill="#FFFFFF" filter="url(#ffo5vhaj0y8cm)" height="88.6211" style="stroke:#A80036;stroke-width:1.0;" width="10" x="1027" y="340.9727"/><rect fill="#FFFFFF" filter="url(#ffo5vhaj0y8cm)" height="59.3105" style="stroke:#A80036;stroke-width:1.0;" width="10" x="1027" y="557.1465"/><rect fill="#FFFFFF" filter="url(#ffo5vhaj0y8cm)" height="59.3105" style="stroke:#A80036;stroke-width:1.0;" width="10" x="1027" y="704.3887"/><rect fill="#FFFFFF" filter="url(#ffo5vhaj0y8cm)" height="179.9082" style="stroke:#A80036;stroke-width:1.0;" width="10" x="1027" y="883.6309"/><rect fill="#FFFFFF" filter="url(#ffo5vhaj0y8cm)" height="59.3105" style="stroke:#A80036;stroke-width:1.0;" width="10" x="1277" y="178.4199"/><rect fill="#FFFFFF" filter="url(#ffo5vhaj0y8cm)" height="59.3105" style="stroke:#A80036;stroke-width:1.0;" width="10" x="1503" y="370.2832"/><rect fill="#FFFFFF" filter="url(#ffo5vhaj0y8cm)" height="88.6211" style="stroke:#A80036;stroke-width:1.0;" width="10" x="1839" y="974.918"/><rect fill="#FFFFFF" filter="url(#ffo5vhaj0y8cm)" height="30" style="stroke:#A80036;stroke-width:1.0;" width="10" x="2036.5" y="586.457"/><rect fill="#FFFFFF" filter="url(#ffo5vhaj0y8cm)" height="30" style="stroke:#A80036;stroke-width:1.0;" width="10" x="2228" y="733.6992"/><rect fill="#FFFFFF" filter="url(#ffo5vhaj0y8cm)" height="30" style="stroke:#A80036;stroke-width:1.0;" width="10" x="2399.5" y="207.7305"/><rect fill="#FFFFFF" filter="url(#ffo5vhaj0y8cm)" height="30" style="stroke:#A80036;stroke-width:1.0;" width="10" x="2543.5" y="399.5938"/><rect fill="#FFFFFF" filter="url(#ffo5vhaj0y8cm)" height="30" style="stroke:#A80036;stroke-width:1.0;" width="10" x="2695" y="1004.2285"/><polygon fill="#A80036" points="487,115.7988,497,119.7988,487,123.7988,491,119.7988" style="stroke:#A80036;stroke-width:1.0;"/><line style="stroke:#A80036;stroke-width:1.0;" x1="78" x2="493" y1="119.7988" y2="119.7988"/><text fill="#000000" font-family="sans-serif" font-size="13" font-weight="bold" lengthAdjust="spacing" textLength="9" x="85" y="115.0566">1</text><text fill="#000000" font-family="sans-serif" font-size="13" lengthAdjust="spacing" textLength="281" x="98" y="115.0566">inicia a definição de nova categoria de tarefa</text><polygon fill="#A80036" points="1015,145.1094,1025,149.1094,1015,153.1094,1019,149.1094" style="stroke:#A80036;stroke-width:1.0;"/><line style="stroke:#A80036;stroke-width:1.0;" x1="509" x2="1021" y1="149.1094" y2="149.1094"/><text fill="#000000" font-family="sans-serif" font-size="13" font-weight="bold" lengthAdjust="spacing" textLength="9" x="516" y="144.3672">2</text><text fill="#000000" font-family="sans-serif" font-size="13" lengthAdjust="spacing" textLength="230" x="529" y="144.3672">la=getListaAreaAtividadeDescBreve()</text><polygon fill="#A80036" points="1265,174.4199,1275,178.4199,1265,182.4199,1269,178.4199" style="stroke:#A80036;stroke-width:1.0;"/><line style="stroke:#A80036;stroke-width:1.0;" x1="1037" x2="1271" y1="178.4199" y2="178.4199"/><text fill="#000000" font-family="sans-serif" font-size="13" font-weight="bold" lengthAdjust="spacing" textLength="9" x="1044" y="173.6777">3</text><text fill="#000000" font-family="sans-serif" font-size="13" lengthAdjust="spacing" textLength="208" x="1057" y="173.6777">la=getRepositorioAreaAtividade()</text><polygon fill="#A80036" points="2387.5,203.7305,2397.5,207.7305,2387.5,211.7305,2391.5,207.7305" style="stroke:#A80036;stroke-width:1.0;"/><line style="stroke:#A80036;stroke-width:1.0;" x1="1287" x2="2393.5" y1="207.7305" y2="207.7305"/><text fill="#000000" font-family="sans-serif" font-size="13" font-weight="bold" lengthAdjust="spacing" textLength="9" x="1294" y="202.9883">4</text><text fill="#000000" font-family="sans-serif" font-size="13" lengthAdjust="spacing" textLength="79" x="1307" y="202.9883">lat = getAll()</text><polygon fill="#A80036" points="89,278.3516,79,282.3516,89,286.3516,85,282.3516" style="stroke:#A80036;stroke-width:1.0;"/><line style="stroke:#A80036;stroke-width:1.0;stroke-dasharray:2.0,2.0;" x1="83" x2="503" y1="282.3516" y2="282.3516"/><text fill="#000000" font-family="sans-serif" font-size="13" font-weight="bold" lengthAdjust="spacing" textLength="9" x="95" y="269.9541">5</text><text fill="#000000" font-family="sans-serif" font-size="13" lengthAdjust="spacing" textLength="283" x="108" y="262.2988">mostra a lista de áreas de atividade e solicita</text><text fill="#000000" font-family="sans-serif" font-size="13" lengthAdjust="spacing" textLength="231" x="108" y="277.6094">uma descrição da categoria de tarefa</text><polygon fill="#A80036" points="487,307.6621,497,311.6621,487,315.6621,491,311.6621" style="stroke:#A80036;stroke-width:1.0;"/><line style="stroke:#A80036;stroke-width:1.0;" x1="78" x2="493" y1="311.6621" y2="311.6621"/><text fill="#000000" font-family="sans-serif" font-size="13" font-weight="bold" lengthAdjust="spacing" textLength="9" x="85" y="306.9199">6</text><text fill="#000000" font-family="sans-serif" font-size="13" lengthAdjust="spacing" textLength="323" x="98" y="306.9199">seleciona a área de atividade e introduz a descrição</text><polygon fill="#A80036" points="1015,336.9727,1025,340.9727,1015,344.9727,1019,340.9727" style="stroke:#A80036;stroke-width:1.0;"/><line style="stroke:#A80036;stroke-width:1.0;" x1="509" x2="1021" y1="340.9727" y2="340.9727"/><text fill="#000000" font-family="sans-serif" font-size="13" font-weight="bold" lengthAdjust="spacing" textLength="9" x="516" y="336.2305">7</text><text fill="#000000" font-family="sans-serif" font-size="13" lengthAdjust="spacing" textLength="440" x="529" y="336.2305">lct=getListaCompetenciasTecnicasByIdAreaAtividade(idAreaAtividade)</text><polygon fill="#A80036" points="1491,366.2832,1501,370.2832,1491,374.2832,1495,370.2832" style="stroke:#A80036;stroke-width:1.0;"/><line style="stroke:#A80036;stroke-width:1.0;" x1="1037" x2="1497" y1="370.2832" y2="370.2832"/><text fill="#000000" font-family="sans-serif" font-size="13" font-weight="bold" lengthAdjust="spacing" textLength="9" x="1044" y="365.541">8</text><text fill="#000000" font-family="sans-serif" font-size="13" lengthAdjust="spacing" textLength="256" x="1057" y="365.541">lct=getRepositorioCompetenciaTecnica()</text><polygon fill="#A80036" points="2531.5,395.5938,2541.5,399.5938,2531.5,403.5938,2535.5,399.5938" style="stroke:#A80036;stroke-width:1.0;"/><line style="stroke:#A80036;stroke-width:1.0;" x1="1513" x2="2537.5" y1="399.5938" y2="399.5938"/><text fill="#000000" font-family="sans-serif" font-size="13" font-weight="bold" lengthAdjust="spacing" textLength="9" x="1520" y="394.8516">9</text><text fill="#000000" font-family="sans-serif" font-size="13" lengthAdjust="spacing" textLength="422" x="1533" y="394.8516">lct = getListaCompetenciaTecnicaByAreaAtividade(idAreaAtividade)</text><polygon fill="#A80036" points="89,470.2148,79,474.2148,89,478.2148,85,474.2148" style="stroke:#A80036;stroke-width:1.0;"/><line style="stroke:#A80036;stroke-width:1.0;stroke-dasharray:2.0,2.0;" x1="83" x2="503" y1="474.2148" y2="474.2148"/><text fill="#000000" font-family="sans-serif" font-size="13" font-weight="bold" lengthAdjust="spacing" textLength="18" x="95" y="461.8174">10</text><text fill="#000000" font-family="sans-serif" font-size="13" lengthAdjust="spacing" textLength="369" x="117" y="454.1621">mostra lista de competências técnicas, quando existentes,</text><text fill="#000000" font-family="sans-serif" font-size="13" lengthAdjust="spacing" textLength="146" x="117" y="469.4727">e solicita a sua escolha</text><path d="M10,489.2148 L84,489.2148 L84,496.2148 L74,506.2148 L10,506.2148 L10,489.2148 " fill="#EEEEEE" style="stroke:#000000;stroke-width:1.0;"/><rect fill="none" height="307.4844" style="stroke:#000000;stroke-width:2.0;" width="2334.5" x="10" y="489.2148"/><text fill="#000000" font-family="sans-serif" font-size="13" font-weight="bold" lengthAdjust="spacing" textLength="29" x="25" y="502.7832">loop</text><polygon fill="#A80036" points="487,523.8359,497,527.8359,487,531.8359,491,527.8359" style="stroke:#A80036;stroke-width:1.0;"/><line style="stroke:#A80036;stroke-width:1.0;" x1="78" x2="493" y1="527.8359" y2="527.8359"/><text fill="#000000" font-family="sans-serif" font-size="13" font-weight="bold" lengthAdjust="spacing" textLength="18" x="85" y="523.0938">11</text><text fill="#000000" font-family="sans-serif" font-size="13" lengthAdjust="spacing" textLength="223" x="107" y="523.0938">seleciona uma competência técnica</text><polygon fill="#A80036" points="1015,553.1465,1025,557.1465,1015,561.1465,1019,557.1465" style="stroke:#A80036;stroke-width:1.0;"/><line style="stroke:#A80036;stroke-width:1.0;" x1="509" x2="1021" y1="557.1465" y2="557.1465"/><text fill="#000000" font-family="sans-serif" font-size="13" font-weight="bold" lengthAdjust="spacing" textLength="18" x="516" y="552.4043">12</text><text fill="#000000" font-family="sans-serif" font-size="13" lengthAdjust="spacing" textLength="320" x="538" y="552.4043">ct=getCompetenciaTecnicaByDescBreve(descBreve)</text><polygon fill="#A80036" points="2024.5,582.457,2034.5,586.457,2024.5,590.457,2028.5,586.457" style="stroke:#A80036;stroke-width:1.0;"/><line style="stroke:#A80036;stroke-width:1.0;" x1="1037" x2="2030.5" y1="586.457" y2="586.457"/><text fill="#000000" font-family="sans-serif" font-size="13" font-weight="bold" lengthAdjust="spacing" textLength="18" x="1044" y="581.7148">13</text><text fill="#000000" font-family="sans-serif" font-size="13" lengthAdjust="spacing" textLength="249" x="1066" y="581.7148">lista = getListaGrausProficienciaString()</text><polygon fill="#A80036" points="89,641.7676,79,645.7676,89,649.7676,85,645.7676" style="stroke:#A80036;stroke-width:1.0;"/><line style="stroke:#A80036;stroke-width:1.0;stroke-dasharray:2.0,2.0;" x1="83" x2="503" y1="645.7676" y2="645.7676"/><text fill="#000000" font-family="sans-serif" font-size="13" font-weight="bold" lengthAdjust="spacing" textLength="18" x="95" y="641.0254">14</text><text fill="#000000" font-family="sans-serif" font-size="13" lengthAdjust="spacing" textLength="315" x="117" y="641.0254">mostra a lista de graus de proficiência associados</text><polygon fill="#A80036" points="487,671.0781,497,675.0781,487,679.0781,491,675.0781" style="stroke:#A80036;stroke-width:1.0;"/><line style="stroke:#A80036;stroke-width:1.0;" x1="78" x2="493" y1="675.0781" y2="675.0781"/><text fill="#000000" font-family="sans-serif" font-size="13" font-weight="bold" lengthAdjust="spacing" textLength="18" x="85" y="670.3359">15</text><text fill="#000000" font-family="sans-serif" font-size="13" lengthAdjust="spacing" textLength="380" x="107" y="670.3359">seleciona grau minimo e indica se é obrigatória ou desejável</text><polygon fill="#A80036" points="1015,700.3887,1025,704.3887,1015,708.3887,1019,704.3887" style="stroke:#A80036;stroke-width:1.0;"/><line style="stroke:#A80036;stroke-width:1.0;" x1="509" x2="1021" y1="704.3887" y2="704.3887"/><text fill="#000000" font-family="sans-serif" font-size="13" font-weight="bold" lengthAdjust="spacing" textLength="18" x="516" y="699.6465">16</text><text fill="#000000" font-family="sans-serif" font-size="13" lengthAdjust="spacing" textLength="375" x="538" y="699.6465">addCompTecnicaToList(ct,obrigatoriedade,grauProficiencia)</text><polygon fill="#A80036" points="2216,729.6992,2226,733.6992,2216,737.6992,2220,733.6992" style="stroke:#A80036;stroke-width:1.0;"/><line style="stroke:#A80036;stroke-width:1.0;" x1="1037" x2="2222" y1="733.6992" y2="733.6992"/><text fill="#000000" font-family="sans-serif" font-size="13" font-weight="bold" lengthAdjust="spacing" textLength="18" x="1044" y="728.957">17</text><text fill="#000000" font-family="sans-serif" font-size="13" lengthAdjust="spacing" textLength="86" x="1066" y="728.957">add(caraterct)</text><polygon fill="#A80036" points="89,821.0098,79,825.0098,89,829.0098,85,825.0098" style="stroke:#A80036;stroke-width:1.0;"/><line style="stroke:#A80036;stroke-width:1.0;stroke-dasharray:2.0,2.0;" x1="83" x2="503" y1="825.0098" y2="825.0098"/><text fill="#000000" font-family="sans-serif" font-size="13" font-weight="bold" lengthAdjust="spacing" textLength="18" x="95" y="820.2676">18</text><text fill="#000000" font-family="sans-serif" font-size="13" lengthAdjust="spacing" textLength="246" x="117" y="820.2676">apresenta dados e solicita confirmação</text><polygon fill="#A80036" points="487,850.3203,497,854.3203,487,858.3203,491,854.3203" style="stroke:#A80036;stroke-width:1.0;"/><line style="stroke:#A80036;stroke-width:1.0;" x1="78" x2="493" y1="854.3203" y2="854.3203"/><text fill="#000000" font-family="sans-serif" font-size="13" font-weight="bold" lengthAdjust="spacing" textLength="18" x="85" y="849.5781">19</text><text fill="#000000" font-family="sans-serif" font-size="13" lengthAdjust="spacing" textLength="56" x="107" y="849.5781">confirma</text><polygon fill="#A80036" points="1015,879.6309,1025,883.6309,1015,887.6309,1019,883.6309" style="stroke:#A80036;stroke-width:1.0;"/><line style="stroke:#A80036;stroke-width:1.0;" x1="509" x2="1021" y1="883.6309" y2="883.6309"/><text fill="#000000" font-family="sans-serif" font-size="13" font-weight="bold" lengthAdjust="spacing" textLength="18" x="516" y="878.8887">20</text><text fill="#000000" font-family="sans-serif" font-size="13" lengthAdjust="spacing" textLength="477" x="538" y="878.8887">registaCategoriaTarefa(CategoriaTarefaDesc, oAreaAtividade, listaCompTec)</text><polygon fill="#A80036" points="1625.5,908.9414,1635.5,912.9414,1625.5,916.9414,1629.5,912.9414" style="stroke:#A80036;stroke-width:1.0;"/><line style="stroke:#A80036;stroke-width:1.0;stroke-dasharray:2.0,2.0;" x1="1037" x2="1631.5" y1="912.9414" y2="912.9414"/><text fill="#000000" font-family="sans-serif" font-size="13" font-weight="bold" lengthAdjust="spacing" textLength="18" x="1044" y="908.1992">21</text><text fill="#000000" font-family="sans-serif" font-size="13" lengthAdjust="spacing" textLength="192" x="1066" y="908.1992">cat = create(desc,aa,lcomptec)</text><rect fill="#FEFECE" filter="url(#ffo5vhaj0y8cm)" height="46.9766" style="stroke:#A80036;stroke-width:1.5;" width="85" x="1637.5" y="891.6309"/><text fill="#000000" font-family="sans-serif" font-size="14" lengthAdjust="spacing" textLength="20" x="1670" y="912.166">cat</text><text fill="#000000" font-family="sans-serif" font-size="14" lengthAdjust="spacing" textLength="71" x="1644.5" y="928.6543">:Categoria</text><polygon fill="#A80036" points="1827,970.918,1837,974.918,1827,978.918,1831,974.918" style="stroke:#A80036;stroke-width:1.0;"/><line style="stroke:#A80036;stroke-width:1.0;" x1="1037" x2="1833" y1="974.918" y2="974.918"/><text fill="#000000" font-family="sans-serif" font-size="13" font-weight="bold" lengthAdjust="spacing" textLength="18" x="1044" y="970.1758">22</text><text fill="#000000" font-family="sans-serif" font-size="13" lengthAdjust="spacing" textLength="199" x="1066" y="970.1758">getRepositorioCategoriaTarefa()</text><polygon fill="#A80036" points="2683,1000.2285,2693,1004.2285,2683,1008.2285,2687,1004.2285" style="stroke:#A80036;stroke-width:1.0;"/><line style="stroke:#A80036;stroke-width:1.0;" x1="1849" x2="2689" y1="1004.2285" y2="1004.2285"/><text fill="#000000" font-family="sans-serif" font-size="13" font-weight="bold" lengthAdjust="spacing" textLength="18" x="1856" y="999.4863">23</text><text fill="#000000" font-family="sans-serif" font-size="13" lengthAdjust="spacing" textLength="55" x="1878" y="999.4863">save(cat)</text><polygon fill="#A80036" points="84,1059.5391,74,1063.5391,84,1067.5391,80,1063.5391" style="stroke:#A80036;stroke-width:1.0;"/><line style="stroke:#A80036;stroke-width:1.0;stroke-dasharray:2.0,2.0;" x1="78" x2="503" y1="1063.5391" y2="1063.5391"/><text fill="#000000" font-family="sans-serif" font-size="13" font-weight="bold" lengthAdjust="spacing" textLength="18" x="90" y="1058.7969">24</text><text fill="#000000" font-family="sans-serif" font-size="13" lengthAdjust="spacing" textLength="184" x="112" y="1058.7969">informa sucesso da operação</text><!--MD5=[3e693adc61b70c7ae1f107be93670563]
@startuml
autonumber
'hide footbox
actor "Administrativo" as ADM

participant "AdicionarCategoriaTarefaUI" as UI
participant "RegistarCategoriaTarefaController" as CTRL
participant "RepositorioAreaAtividade" as RAT
participant "RepositorioCompetenciaTecnica" as RCT
participant "cat\n:Categoria" as CAT
participant "RepositorioCategoriasTarefa" as RCAT
participant "ct:\nCompetenciaTecnica" as CT
participant "lcompTec:List<CaraterCT>" as LISTACT
database AreaAtividadeDB as aaDB 
database CompetenciaTecnica as ctDB
database CategoriaTarefaDB as ctarefaDB


activate ADM

ADM -> UI : inicia a definição de nova categoria de tarefa
activate UI

UI -> CTRL : la=getListaAreaAtividadeDescBreve()
activate CTRL

CTRL -> RAT : la=getRepositorioAreaAtividade()
activate RAT

RAT -> aaDB : lat = getAll()
activate aaDB
deactivate aaDB
deactivate RAT
deactivate CTRL

UI - -> ADM: mostra a lista de áreas de atividade e solicita \numa descrição da categoria de tarefa
deactivate UI

ADM -> UI : seleciona a área de atividade e introduz a descrição  
activate UI
UI -> CTRL : lct=getListaCompetenciasTecnicasByIdAreaAtividade(idAreaAtividade)
activate CTRL

CTRL -> RCT : lct=getRepositorioCompetenciaTecnica()
activate RCT
RCT -> ctDB : lct = getListaCompetenciaTecnicaByAreaAtividade(idAreaAtividade)
activate ctDB
deactivate ctDB
deactivate RCT
deactivate CTRL

UI - -> ADM : mostra lista de competências técnicas, quando existentes, \ne solicita a sua escolha 
deactivate UI

loop

ADM -> UI : seleciona uma competência técnica
activate UI
UI -> CTRL: ct=getCompetenciaTecnicaByDescBreve(descBreve)
activate CTRL

CTRL -> CT: lista = getListaGrausProficienciaString()
activate CT
deactivate CT
deactivate CTRL

UI - -> ADM: mostra a lista de graus de proficiência associados
deactivate UI

ADM -> UI: seleciona grau minimo e indica se é obrigatória ou desejável

activate UI
UI -> CTRL : addCompTecnicaToList(ct,obrigatoriedade,grauProficiencia)
activate CTRL

CTRL -> LISTACT : add(caraterct)
activate LISTACT
deactivate LISTACT

deactivate CAT
|||
deactivate CTRL
end loop
UI - -> ADM : apresenta dados e solicita confirmação
deactivate UI

ADM -> UI : confirma
activate UI
UI -> CTRL : registaCategoriaTarefa(CategoriaTarefaDesc, oAreaAtividade, listaCompTec)
activate CTRL

CTRL - -> CAT** : cat = create(desc,aa,lcomptec)

CTRL -> RCAT : getRepositorioCategoriaTarefa()
activate RCAT
RCAT -> ctarefaDB : save(cat)
activate ctarefaDB
deactivate ctarefaDB

UI - -> ADM : informa sucesso da operação
deactivate RCAT
deactivate CTRL
deactivate UI

deactivate ADM

@enduml

@startuml
autonumber
actor "Administrativo" as ADM

participant "AdicionarCategoriaTarefaUI" as UI
participant "RegistarCategoriaTarefaController" as CTRL
participant "RepositorioAreaAtividade" as RAT
participant "RepositorioCompetenciaTecnica" as RCT
participant "cat\n:Categoria" as CAT
participant "RepositorioCategoriasTarefa" as RCAT
participant "ct:\nCompetenciaTecnica" as CT
participant "lcompTec:List<CaraterCT>" as LISTACT
database AreaAtividadeDB as aaDB 
database CompetenciaTecnica as ctDB
database CategoriaTarefaDB as ctarefaDB


activate ADM

ADM -> UI : inicia a definição de nova categoria de tarefa
activate UI

UI -> CTRL : la=getListaAreaAtividadeDescBreve()
activate CTRL

CTRL -> RAT : la=getRepositorioAreaAtividade()
activate RAT

RAT -> aaDB : lat = getAll()
activate aaDB
deactivate aaDB
deactivate RAT
deactivate CTRL

UI - -> ADM: mostra a lista de áreas de atividade e solicita \numa descrição da categoria de tarefa
deactivate UI

ADM -> UI : seleciona a área de atividade e introduz a descrição  
activate UI
UI -> CTRL : lct=getListaCompetenciasTecnicasByIdAreaAtividade(idAreaAtividade)
activate CTRL

CTRL -> RCT : lct=getRepositorioCompetenciaTecnica()
activate RCT
RCT -> ctDB : lct = getListaCompetenciaTecnicaByAreaAtividade(idAreaAtividade)
activate ctDB
deactivate ctDB
deactivate RCT
deactivate CTRL

UI - -> ADM : mostra lista de competências técnicas, quando existentes, \ne solicita a sua escolha 
deactivate UI

loop

ADM -> UI : seleciona uma competência técnica
activate UI
UI -> CTRL: ct=getCompetenciaTecnicaByDescBreve(descBreve)
activate CTRL

CTRL -> CT: lista = getListaGrausProficienciaString()
activate CT
deactivate CT
deactivate CTRL

UI - -> ADM: mostra a lista de graus de proficiência associados
deactivate UI

ADM -> UI: seleciona grau minimo e indica se é obrigatória ou desejável

activate UI
UI -> CTRL : addCompTecnicaToList(ct,obrigatoriedade,grauProficiencia)
activate CTRL

CTRL -> LISTACT : add(caraterct)
activate LISTACT
deactivate LISTACT

deactivate CAT
|||
deactivate CTRL
end loop
UI - -> ADM : apresenta dados e solicita confirmação
deactivate UI

ADM -> UI : confirma
activate UI
UI -> CTRL : registaCategoriaTarefa(CategoriaTarefaDesc, oAreaAtividade, listaCompTec)
activate CTRL

CTRL - -> CAT** : cat = create(desc,aa,lcomptec)

CTRL -> RCAT : getRepositorioCategoriaTarefa()
activate RCAT
RCAT -> ctarefaDB : save(cat)
activate ctarefaDB
deactivate ctarefaDB

UI - -> ADM : informa sucesso da operação
deactivate RCAT
deactivate CTRL
deactivate UI

deactivate ADM

@enduml

PlantUML version 1.2021.00(Sun Jan 10 10:25:05 WET 2021)
(GPL source distribution)
Java Runtime: Java(TM) SE Runtime Environment
JVM: Java HotSpot(TM) 64-Bit Server VM
Default Encoding: UTF-8
Language: pt
Country: PT
--></g></svg>