<?xml version="1.0" encoding="UTF-8" standalone="no"?><svg xmlns="http://www.w3.org/2000/svg" xmlns:xlink="http://www.w3.org/1999/xlink" contentScriptType="application/ecmascript" contentStyleType="text/css" height="646px" preserveAspectRatio="none" style="width:655px;height:646px;" version="1.1" viewBox="0 0 655 646" width="655px" zoomAndPan="magnify"><defs><filter height="300%" id="fuxnblcs34pq9" width="300%" x="-1" y="-1"><feGaussianBlur result="blurOut" stdDeviation="2.0"/><feColorMatrix in="blurOut" result="blurOut2" type="matrix" values="0 0 0 0 0 0 0 0 0 0 0 0 0 0 0 0 0 0 .4 0"/><feOffset dx="4.0" dy="4.0" in="blurOut2" result="blurOut3"/><feBlend in="SourceGraphic" in2="blurOut3" mode="normal"/></filter></defs><g><rect fill="#FFFFFF" filter="url(#fuxnblcs34pq9)" height="445.9688" style="stroke:#A80036;stroke-width:1.0;" width="10" x="68" y="98.4883"/><rect fill="#FFFFFF" filter="url(#fuxnblcs34pq9)" height="44.6211" style="stroke:#A80036;stroke-width:1.0;" width="10" x="589" y="119.7988"/><rect fill="#FFFFFF" filter="url(#fuxnblcs34pq9)" height="44.6211" style="stroke:#A80036;stroke-width:1.0;" width="10" x="589" y="193.7305"/><rect fill="#FFFFFF" filter="url(#fuxnblcs34pq9)" height="29.3105" style="stroke:#A80036;stroke-width:1.0;" width="10" x="589" y="291.9727"/><rect fill="#FFFFFF" filter="url(#fuxnblcs34pq9)" height="44.6211" style="stroke:#A80036;stroke-width:1.0;" width="10" x="589" y="350.5938"/><rect fill="#FFFFFF" filter="url(#fuxnblcs34pq9)" height="61.3105" style="stroke:#A80036;stroke-width:1.0;" width="10" x="589" y="424.5254"/><rect fill="#FFFFFF" filter="url(#fuxnblcs34pq9)" height="29.3105" style="stroke:#A80036;stroke-width:1.0;" width="10" x="589" y="515.1465"/><rect fill="#FFFFFF" filter="url(#fuxnblcs34pq9)" height="204.1738" style="stroke:#000000;stroke-width:2.0;" width="631.5" x="10" y="253.3516"/><line style="stroke:#A80036;stroke-width:1.0;stroke-dasharray:5.0,5.0;" x1="73" x2="73" y1="88.4883" y2="562.457"/><line style="stroke:#A80036;stroke-width:1.0;stroke-dasharray:5.0,5.0;" x1="593.5" x2="593.5" y1="88.4883" y2="562.457"/><text fill="#000000" font-family="sans-serif" font-size="14" lengthAdjust="spacing" textLength="100" x="20" y="85.5352">Administrativo</text><ellipse cx="73" cy="15" fill="#FEFECE" filter="url(#fuxnblcs34pq9)" rx="8" ry="8" style="stroke:#A80036;stroke-width:2.0;"/><path d="M73,23 L73,50 M60,31 L86,31 M73,50 L60,65 M73,50 L86,65 " fill="none" filter="url(#fuxnblcs34pq9)" style="stroke:#A80036;stroke-width:2.0;"/><text fill="#000000" font-family="sans-serif" font-size="14" lengthAdjust="spacing" textLength="100" x="20" y="574.9922">Administrativo</text><ellipse cx="73" cy="587.9453" fill="#FEFECE" filter="url(#fuxnblcs34pq9)" rx="8" ry="8" style="stroke:#A80036;stroke-width:2.0;"/><path d="M73,595.9453 L73,622.9453 M60,603.9453 L86,603.9453 M73,622.9453 L60,637.9453 M73,622.9453 L86,637.9453 " fill="none" filter="url(#fuxnblcs34pq9)" style="stroke:#A80036;stroke-width:2.0;"/><rect fill="#FEFECE" filter="url(#fuxnblcs34pq9)" height="30.4883" style="stroke:#A80036;stroke-width:1.5;" width="71" x="556.5" y="53"/><text fill="#000000" font-family="sans-serif" font-size="14" lengthAdjust="spacing" textLength="57" x="563.5" y="73.5352">:Sistema</text><rect fill="#FEFECE" filter="url(#fuxnblcs34pq9)" height="30.4883" style="stroke:#A80036;stroke-width:1.5;" width="71" x="556.5" y="561.457"/><text fill="#000000" font-family="sans-serif" font-size="14" lengthAdjust="spacing" textLength="57" x="563.5" y="581.9922">:Sistema</text><rect fill="#FFFFFF" filter="url(#fuxnblcs34pq9)" height="445.9688" style="stroke:#A80036;stroke-width:1.0;" width="10" x="68" y="98.4883"/><rect fill="#FFFFFF" filter="url(#fuxnblcs34pq9)" height="44.6211" style="stroke:#A80036;stroke-width:1.0;" width="10" x="589" y="119.7988"/><rect fill="#FFFFFF" filter="url(#fuxnblcs34pq9)" height="44.6211" style="stroke:#A80036;stroke-width:1.0;" width="10" x="589" y="193.7305"/><rect fill="#FFFFFF" filter="url(#fuxnblcs34pq9)" height="29.3105" style="stroke:#A80036;stroke-width:1.0;" width="10" x="589" y="291.9727"/><rect fill="#FFFFFF" filter="url(#fuxnblcs34pq9)" height="44.6211" style="stroke:#A80036;stroke-width:1.0;" width="10" x="589" y="350.5938"/><rect fill="#FFFFFF" filter="url(#fuxnblcs34pq9)" height="61.3105" style="stroke:#A80036;stroke-width:1.0;" width="10" x="589" y="424.5254"/><rect fill="#FFFFFF" filter="url(#fuxnblcs34pq9)" height="29.3105" style="stroke:#A80036;stroke-width:1.0;" width="10" x="589" y="515.1465"/><polygon fill="#A80036" points="577,115.7988,587,119.7988,577,123.7988,581,119.7988" style="stroke:#A80036;stroke-width:1.0;"/><line style="stroke:#A80036;stroke-width:1.0;" x1="78" x2="583" y1="119.7988" y2="119.7988"/><text fill="#000000" font-family="sans-serif" font-size="13" font-weight="bold" lengthAdjust="spacing" textLength="9" x="85" y="115.0566">1</text><text fill="#000000" font-family="sans-serif" font-size="13" lengthAdjust="spacing" textLength="270" x="98" y="115.0566">inicia definição de nova categoria de tarefa</text><polygon fill="#A80036" points="89,160.4199,79,164.4199,89,168.4199,85,164.4199" style="stroke:#A80036;stroke-width:1.0;"/><line style="stroke:#A80036;stroke-width:1.0;stroke-dasharray:2.0,2.0;" x1="83" x2="593" y1="164.4199" y2="164.4199"/><text fill="#000000" font-family="sans-serif" font-size="13" font-weight="bold" lengthAdjust="spacing" textLength="9" x="95" y="152.0225">2</text><text fill="#000000" font-family="sans-serif" font-size="13" lengthAdjust="spacing" textLength="439" x="108" y="144.3672">mostra a lista de áreas de atividade e solicita a descrição da categoria</text><text fill="#000000" font-family="sans-serif" font-size="13" lengthAdjust="spacing" textLength="289" x="108" y="159.6777">de tarefa e a escolha de uma área de atividade</text><polygon fill="#A80036" points="577,189.7305,587,193.7305,577,197.7305,581,193.7305" style="stroke:#A80036;stroke-width:1.0;"/><line style="stroke:#A80036;stroke-width:1.0;" x1="78" x2="583" y1="193.7305" y2="193.7305"/><text fill="#000000" font-family="sans-serif" font-size="13" font-weight="bold" lengthAdjust="spacing" textLength="9" x="85" y="188.9883">3</text><text fill="#000000" font-family="sans-serif" font-size="13" lengthAdjust="spacing" textLength="394" x="98" y="188.9883">introduz a descrição e seleciona a área de atividade pretendida</text><polygon fill="#A80036" points="89,234.3516,79,238.3516,89,242.3516,85,238.3516" style="stroke:#A80036;stroke-width:1.0;"/><line style="stroke:#A80036;stroke-width:1.0;stroke-dasharray:2.0,2.0;" x1="83" x2="593" y1="238.3516" y2="238.3516"/><text fill="#000000" font-family="sans-serif" font-size="13" font-weight="bold" lengthAdjust="spacing" textLength="9" x="95" y="225.9541">4</text><text fill="#000000" font-family="sans-serif" font-size="13" lengthAdjust="spacing" textLength="385" x="108" y="218.2988">mostra a lista de competências técnicas associadas à área de</text><text fill="#000000" font-family="sans-serif" font-size="13" lengthAdjust="spacing" textLength="474" x="108" y="233.6094">atividade especificada e solicita a escolha de uma delas, quando existentes</text><path d="M10,253.3516 L84,253.3516 L84,260.3516 L74,270.3516 L10,270.3516 L10,253.3516 " fill="#EEEEEE" style="stroke:#000000;stroke-width:1.0;"/><rect fill="none" height="204.1738" style="stroke:#000000;stroke-width:2.0;" width="631.5" x="10" y="253.3516"/><text fill="#000000" font-family="sans-serif" font-size="13" font-weight="bold" lengthAdjust="spacing" textLength="29" x="25" y="266.9199">loop</text><polygon fill="#A80036" points="577,287.9727,587,291.9727,577,295.9727,581,291.9727" style="stroke:#A80036;stroke-width:1.0;"/><line style="stroke:#A80036;stroke-width:1.0;" x1="78" x2="583" y1="291.9727" y2="291.9727"/><text fill="#000000" font-family="sans-serif" font-size="13" font-weight="bold" lengthAdjust="spacing" textLength="9" x="85" y="287.2305">5</text><text fill="#000000" font-family="sans-serif" font-size="13" lengthAdjust="spacing" textLength="257" x="98" y="287.2305">seleciona competência técnica solicitada</text><polygon fill="#A80036" points="89,317.2832,79,321.2832,89,325.2832,85,321.2832" style="stroke:#A80036;stroke-width:1.0;"/><line style="stroke:#A80036;stroke-width:1.0;stroke-dasharray:2.0,2.0;" x1="83" x2="593" y1="321.2832" y2="321.2832"/><text fill="#000000" font-family="sans-serif" font-size="13" font-weight="bold" lengthAdjust="spacing" textLength="9" x="95" y="316.541">6</text><text fill="#000000" font-family="sans-serif" font-size="13" lengthAdjust="spacing" textLength="460" x="108" y="316.541">mostra graus de proficiência relativos à competência técnica selecionada</text><polygon fill="#A80036" points="577,346.5938,587,350.5938,577,354.5938,581,350.5938" style="stroke:#A80036;stroke-width:1.0;"/><line style="stroke:#A80036;stroke-width:1.0;" x1="78" x2="583" y1="350.5938" y2="350.5938"/><text fill="#000000" font-family="sans-serif" font-size="13" font-weight="bold" lengthAdjust="spacing" textLength="9" x="85" y="345.8516">7</text><text fill="#000000" font-family="sans-serif" font-size="13" lengthAdjust="spacing" textLength="252" x="98" y="345.8516">seleciona o grau de proficiencia mínimo</text><polygon fill="#A80036" points="89,391.2148,79,395.2148,89,399.2148,85,395.2148" style="stroke:#A80036;stroke-width:1.0;"/><line style="stroke:#A80036;stroke-width:1.0;stroke-dasharray:2.0,2.0;" x1="83" x2="593" y1="395.2148" y2="395.2148"/><text fill="#000000" font-family="sans-serif" font-size="13" font-weight="bold" lengthAdjust="spacing" textLength="9" x="95" y="382.8174">8</text><text fill="#000000" font-family="sans-serif" font-size="13" lengthAdjust="spacing" textLength="203" x="108" y="375.1621">solicita indicação do seu caráter</text><text fill="#000000" font-family="sans-serif" font-size="13" lengthAdjust="spacing" textLength="182" x="112" y="390.4727">(i.e. obrigatória ou desejável)</text><polygon fill="#A80036" points="577,420.5254,587,424.5254,577,428.5254,581,424.5254" style="stroke:#A80036;stroke-width:1.0;"/><line style="stroke:#A80036;stroke-width:1.0;" x1="78" x2="583" y1="424.5254" y2="424.5254"/><text fill="#000000" font-family="sans-serif" font-size="13" font-weight="bold" lengthAdjust="spacing" textLength="9" x="85" y="419.7832">9</text><text fill="#000000" font-family="sans-serif" font-size="13" lengthAdjust="spacing" textLength="174" x="98" y="419.7832">introduz informação pedida</text><polygon fill="#A80036" points="89,481.8359,79,485.8359,89,489.8359,85,485.8359" style="stroke:#A80036;stroke-width:1.0;"/><line style="stroke:#A80036;stroke-width:1.0;stroke-dasharray:2.0,2.0;" x1="83" x2="593" y1="485.8359" y2="485.8359"/><text fill="#000000" font-family="sans-serif" font-size="13" font-weight="bold" lengthAdjust="spacing" textLength="18" x="95" y="481.0938">10</text><text fill="#000000" font-family="sans-serif" font-size="13" lengthAdjust="spacing" textLength="246" x="117" y="481.0938">apresenta dados e solicita confirmação</text><polygon fill="#A80036" points="577,511.1465,587,515.1465,577,519.1465,581,515.1465" style="stroke:#A80036;stroke-width:1.0;"/><line style="stroke:#A80036;stroke-width:1.0;" x1="78" x2="583" y1="515.1465" y2="515.1465"/><text fill="#000000" font-family="sans-serif" font-size="13" font-weight="bold" lengthAdjust="spacing" textLength="18" x="85" y="510.4043">11</text><text fill="#000000" font-family="sans-serif" font-size="13" lengthAdjust="spacing" textLength="56" x="107" y="510.4043">confirma</text><polygon fill="#A80036" points="84,540.457,74,544.457,84,548.457,80,544.457" style="stroke:#A80036;stroke-width:1.0;"/><line style="stroke:#A80036;stroke-width:1.0;stroke-dasharray:2.0,2.0;" x1="78" x2="593" y1="544.457" y2="544.457"/><text fill="#000000" font-family="sans-serif" font-size="13" font-weight="bold" lengthAdjust="spacing" textLength="18" x="90" y="539.7148">12</text><text fill="#000000" font-family="sans-serif" font-size="13" lengthAdjust="spacing" textLength="201" x="112" y="539.7148">informa operação bem sucedida</text><!--MD5=[2d88fd839067cdb1a27f40f9e65498cf]
@startuml

autonumber

actor "Administrativo" as ADM

participant ":Sistema" as SIST

activate ADM

ADM -> SIST : inicia definição de nova categoria de tarefa
activate SIST
SIST - -> ADM : mostra a lista de áreas de atividade e solicita a descrição da categoria \nde tarefa e a escolha de uma área de atividade
deactivate SIST

ADM -> SIST : introduz a descrição e seleciona a área de atividade pretendida
activate SIST
SIST - -> ADM : mostra a lista de competências técnicas associadas à área de \natividade especificada e solicita a escolha de uma delas, quando existentes
deactivate SIST

loop
ADM -> SIST : seleciona competência técnica solicitada
activate SIST
SIST - -> ADM : mostra graus de proficiência relativos à competência técnica selecionada
deactivate SIST

ADM -> SIST: seleciona o grau de proficiencia mínimo
activate SIST

SIST - -> ADM : solicita indicação do seu caráter \n (i.e. obrigatória ou desejável)
deactivate SIST

ADM -> SIST : introduz informação pedida
|||
activate SIST
end loop
SIST - -> ADM : apresenta dados e solicita confirmação
deactivate SIST

ADM -> SIST : confirma
activate SIST
SIST - -> ADM : informa operação bem sucedida
deactivate SIST

deactivate ADM

@enduml

PlantUML version 1.2021.00(Sun Jan 10 10:25:05 WET 2021)
(GPL source distribution)
Java Runtime: Java(TM) SE Runtime Environment
JVM: Java HotSpot(TM) 64-Bit Server VM
Default Encoding: UTF-8
Language: pt
Country: PT
--></g></svg>