<?xml version="1.0" encoding="UTF-8" standalone="no"?><svg xmlns="http://www.w3.org/2000/svg" xmlns:xlink="http://www.w3.org/1999/xlink" contentScriptType="application/ecmascript" contentStyleType="text/css" height="544px" preserveAspectRatio="none" style="width:1757px;height:544px;" version="1.1" viewBox="0 0 1757 544" width="1757px" zoomAndPan="magnify"><defs><filter height="300%" id="fpnpk8ko0axi1" width="300%" x="-1" y="-1"><feGaussianBlur result="blurOut" stdDeviation="2.0"/><feColorMatrix in="blurOut" result="blurOut2" type="matrix" values="0 0 0 0 0 0 0 0 0 0 0 0 0 0 0 0 0 0 .4 0"/><feOffset dx="4.0" dy="4.0" in="blurOut2" result="blurOut3"/><feBlend in="SourceGraphic" in2="blurOut3" mode="normal"/></filter></defs><g><!--MD5=[ec2a6073c5ac2ee636ecd228e03db6ae]
class RegistarCandidaturaUI--><rect codeLine="4" fill="#FEFECE" filter="url(#fpnpk8ko0axi1)" height="48" id="RegistarCandidaturaUI" style="stroke:#A80036;stroke-width:1.5;" width="159" x="7" y="234"/><ellipse cx="22" cy="250" fill="#ADD1B2" rx="11" ry="11" style="stroke:#A80036;stroke-width:1.0;"/><path d="M24.7656,245.875 Q24.9219,245.6563 25.1094,245.5469 Q25.2969,245.4375 25.5156,245.4375 Q25.8906,245.4375 26.125,245.7031 Q26.3594,245.9531 26.3594,246.5625 L26.3594,248.0156 Q26.3594,248.625 26.125,248.8906 Q25.8906,249.1563 25.5156,249.1563 Q25.1719,249.1563 24.9688,248.9531 Q24.7656,248.7656 24.6563,248.25 Q24.6094,247.8906 24.4219,247.7031 Q24.0938,247.3281 23.4844,247.1094 Q22.875,246.8906 22.25,246.8906 Q21.4844,246.8906 20.8438,247.2188 Q20.2188,247.5469 19.7188,248.2969 Q19.2344,249.0469 19.2344,250.0781 L19.2344,251.1719 Q19.2344,252.4063 20.125,253.2344 Q21.0156,254.0469 22.6094,254.0469 Q23.5469,254.0469 24.2031,253.7969 Q24.5938,253.6406 25.0156,253.2031 Q25.2813,252.9375 25.4219,252.8594 Q25.5781,252.7813 25.7813,252.7813 Q26.1094,252.7813 26.3594,253.0469 Q26.625,253.2969 26.625,253.6406 Q26.625,253.9844 26.2813,254.3906 Q25.7813,254.9688 24.9844,255.2969 Q23.9063,255.75 22.6094,255.75 Q21.0938,255.75 19.8906,255.125 Q18.9063,254.625 18.2188,253.5625 Q17.5313,252.4844 17.5313,251.2031 L17.5313,250.0469 Q17.5313,248.7188 18.1406,247.5781 Q18.7656,246.4219 19.8594,245.8125 Q20.9531,245.1875 22.1875,245.1875 Q22.9219,245.1875 23.5625,245.3594 Q24.2188,245.5156 24.7656,245.875 Z " fill="#000000"/><text fill="#000000" font-family="sans-serif" font-size="12" lengthAdjust="spacing" textLength="127" x="36" y="254.9102">RegistarCandidaturaUI</text><line style="stroke:#A80036;stroke-width:1.5;" x1="8" x2="165" y1="266" y2="266"/><line style="stroke:#A80036;stroke-width:1.5;" x1="8" x2="165" y1="274" y2="274"/><!--MD5=[a752d25bbf81d6aa83d02ada29d87957]
class RegistarCandidaturaController--><rect codeLine="7" fill="#FEFECE" filter="url(#fpnpk8ko0axi1)" height="103.3438" id="RegistarCandidaturaController" style="stroke:#A80036;stroke-width:1.5;" width="349" x="227" y="206.5"/><ellipse cx="312.75" cy="222.5" fill="#ADD1B2" rx="11" ry="11" style="stroke:#A80036;stroke-width:1.0;"/><path d="M315.5156,218.375 Q315.6719,218.1563 315.8594,218.0469 Q316.0469,217.9375 316.2656,217.9375 Q316.6406,217.9375 316.875,218.2031 Q317.1094,218.4531 317.1094,219.0625 L317.1094,220.5156 Q317.1094,221.125 316.875,221.3906 Q316.6406,221.6563 316.2656,221.6563 Q315.9219,221.6563 315.7188,221.4531 Q315.5156,221.2656 315.4063,220.75 Q315.3594,220.3906 315.1719,220.2031 Q314.8438,219.8281 314.2344,219.6094 Q313.625,219.3906 313,219.3906 Q312.2344,219.3906 311.5938,219.7188 Q310.9688,220.0469 310.4688,220.7969 Q309.9844,221.5469 309.9844,222.5781 L309.9844,223.6719 Q309.9844,224.9063 310.875,225.7344 Q311.7656,226.5469 313.3594,226.5469 Q314.2969,226.5469 314.9531,226.2969 Q315.3438,226.1406 315.7656,225.7031 Q316.0313,225.4375 316.1719,225.3594 Q316.3281,225.2813 316.5313,225.2813 Q316.8594,225.2813 317.1094,225.5469 Q317.375,225.7969 317.375,226.1406 Q317.375,226.4844 317.0313,226.8906 Q316.5313,227.4688 315.7344,227.7969 Q314.6563,228.25 313.3594,228.25 Q311.8438,228.25 310.6406,227.625 Q309.6563,227.125 308.9688,226.0625 Q308.2813,224.9844 308.2813,223.7031 L308.2813,222.5469 Q308.2813,221.2188 308.8906,220.0781 Q309.5156,218.9219 310.6094,218.3125 Q311.7031,217.6875 312.9375,217.6875 Q313.6719,217.6875 314.3125,217.8594 Q314.9688,218.0156 315.5156,218.375 Z " fill="#000000"/><text fill="#000000" font-family="sans-serif" font-size="12" lengthAdjust="spacing" textLength="169" x="333.25" y="227.4102">RegistarCandidaturaController</text><line style="stroke:#A80036;stroke-width:1.5;" x1="228" x2="575" y1="238.5" y2="238.5"/><line style="stroke:#A80036;stroke-width:1.5;" x1="228" x2="575" y1="246.5" y2="246.5"/><text fill="#000000" font-family="sans-serif" font-size="11" lengthAdjust="spacing" textLength="254" x="233" y="261.9189">+List&lt;Anuncio&gt; getAnunciosElegiveisDoFreelancer()</text><text fill="#000000" font-family="sans-serif" font-size="11" lengthAdjust="spacing" textLength="337" x="233" y="275.7549">+void registarCandidatura(anuncioId,valorPrt,nrDias,txtApres,txtMotiv)</text><text fill="#000000" font-family="sans-serif" font-size="11" lengthAdjust="spacing" textLength="197" x="233" y="289.5908">+Freelancer getFreelancerByEmail(email)</text><text fill="#000000" font-family="sans-serif" font-size="11" lengthAdjust="spacing" textLength="184" x="233" y="303.4268">+AnuncigetAnuncioById(int anuncioId)</text><!--MD5=[ecaed46f78f8cfe1e9ce18477649be18]
class Plataforma--><rect codeLine="14" fill="#FEFECE" filter="url(#fpnpk8ko0axi1)" height="61.8359" id="Plataforma" style="stroke:#A80036;stroke-width:1.5;" width="92" x="681.5" y="178"/><ellipse cx="696.5" cy="194" fill="#ADD1B2" rx="11" ry="11" style="stroke:#A80036;stroke-width:1.0;"/><path d="M699.2656,189.875 Q699.4219,189.6563 699.6094,189.5469 Q699.7969,189.4375 700.0156,189.4375 Q700.3906,189.4375 700.625,189.7031 Q700.8594,189.9531 700.8594,190.5625 L700.8594,192.0156 Q700.8594,192.625 700.625,192.8906 Q700.3906,193.1563 700.0156,193.1563 Q699.6719,193.1563 699.4688,192.9531 Q699.2656,192.7656 699.1563,192.25 Q699.1094,191.8906 698.9219,191.7031 Q698.5938,191.3281 697.9844,191.1094 Q697.375,190.8906 696.75,190.8906 Q695.9844,190.8906 695.3438,191.2188 Q694.7188,191.5469 694.2188,192.2969 Q693.7344,193.0469 693.7344,194.0781 L693.7344,195.1719 Q693.7344,196.4063 694.625,197.2344 Q695.5156,198.0469 697.1094,198.0469 Q698.0469,198.0469 698.7031,197.7969 Q699.0938,197.6406 699.5156,197.2031 Q699.7813,196.9375 699.9219,196.8594 Q700.0781,196.7813 700.2813,196.7813 Q700.6094,196.7813 700.8594,197.0469 Q701.125,197.2969 701.125,197.6406 Q701.125,197.9844 700.7813,198.3906 Q700.2813,198.9688 699.4844,199.2969 Q698.4063,199.75 697.1094,199.75 Q695.5938,199.75 694.3906,199.125 Q693.4063,198.625 692.7188,197.5625 Q692.0313,196.4844 692.0313,195.2031 L692.0313,194.0469 Q692.0313,192.7188 692.6406,191.5781 Q693.2656,190.4219 694.3594,189.8125 Q695.4531,189.1875 696.6875,189.1875 Q697.4219,189.1875 698.0625,189.3594 Q698.7188,189.5156 699.2656,189.875 Z " fill="#000000"/><text fill="#000000" font-family="sans-serif" font-size="12" lengthAdjust="spacing" textLength="60" x="710.5" y="198.9102">Plataforma</text><line style="stroke:#A80036;stroke-width:1.5;" x1="682.5" x2="772.5" y1="210" y2="210"/><line style="stroke:#A80036;stroke-width:1.5;" x1="682.5" x2="772.5" y1="218" y2="218"/><text fill="#000000" font-family="sans-serif" font-size="11" lengthAdjust="spacing" textLength="74" x="687.5" y="233.4189">+getUsersAPI()</text><!--MD5=[5989a2e3174efcfc62cf38168ac2ffc8]
class RegistoFreelancer--><rect codeLine="18" fill="#FEFECE" filter="url(#fpnpk8ko0axi1)" height="61.8359" id="RegistoFreelancer" style="stroke:#A80036;stroke-width:1.5;" width="154" x="9.5" y="137"/><ellipse cx="33.5" cy="153" fill="#ADD1B2" rx="11" ry="11" style="stroke:#A80036;stroke-width:1.0;"/><path d="M36.2656,148.875 Q36.4219,148.6563 36.6094,148.5469 Q36.7969,148.4375 37.0156,148.4375 Q37.3906,148.4375 37.625,148.7031 Q37.8594,148.9531 37.8594,149.5625 L37.8594,151.0156 Q37.8594,151.625 37.625,151.8906 Q37.3906,152.1563 37.0156,152.1563 Q36.6719,152.1563 36.4688,151.9531 Q36.2656,151.7656 36.1563,151.25 Q36.1094,150.8906 35.9219,150.7031 Q35.5938,150.3281 34.9844,150.1094 Q34.375,149.8906 33.75,149.8906 Q32.9844,149.8906 32.3438,150.2188 Q31.7188,150.5469 31.2188,151.2969 Q30.7344,152.0469 30.7344,153.0781 L30.7344,154.1719 Q30.7344,155.4063 31.625,156.2344 Q32.5156,157.0469 34.1094,157.0469 Q35.0469,157.0469 35.7031,156.7969 Q36.0938,156.6406 36.5156,156.2031 Q36.7813,155.9375 36.9219,155.8594 Q37.0781,155.7813 37.2813,155.7813 Q37.6094,155.7813 37.8594,156.0469 Q38.125,156.2969 38.125,156.6406 Q38.125,156.9844 37.7813,157.3906 Q37.2813,157.9688 36.4844,158.2969 Q35.4063,158.75 34.1094,158.75 Q32.5938,158.75 31.3906,158.125 Q30.4063,157.625 29.7188,156.5625 Q29.0313,155.4844 29.0313,154.2031 L29.0313,153.0469 Q29.0313,151.7188 29.6406,150.5781 Q30.2656,149.4219 31.3594,148.8125 Q32.4531,148.1875 33.6875,148.1875 Q34.4219,148.1875 35.0625,148.3594 Q35.7188,148.5156 36.2656,148.875 Z " fill="#000000"/><text fill="#000000" font-family="sans-serif" font-size="12" lengthAdjust="spacing" textLength="102" x="49.5" y="157.9102">RegistoFreelancer</text><line style="stroke:#A80036;stroke-width:1.5;" x1="10.5" x2="162.5" y1="169" y2="169"/><line style="stroke:#A80036;stroke-width:1.5;" x1="10.5" x2="162.5" y1="177" y2="177"/><text fill="#000000" font-family="sans-serif" font-size="11" lengthAdjust="spacing" textLength="142" x="15.5" y="192.4189">+getFreelancerByEmail(email)</text><!--MD5=[1f687b5315377fe49fca59b457947463]
class Freelancer--><rect codeLine="23" fill="#FEFECE" filter="url(#fpnpk8ko0axi1)" height="103.3438" id="Freelancer" style="stroke:#A80036;stroke-width:1.5;" width="91" x="1652" y="73.5"/><ellipse cx="1667" cy="89.5" fill="#ADD1B2" rx="11" ry="11" style="stroke:#A80036;stroke-width:1.0;"/><path d="M1669.7656,85.375 Q1669.9219,85.1563 1670.1094,85.0469 Q1670.2969,84.9375 1670.5156,84.9375 Q1670.8906,84.9375 1671.125,85.2031 Q1671.3594,85.4531 1671.3594,86.0625 L1671.3594,87.5156 Q1671.3594,88.125 1671.125,88.3906 Q1670.8906,88.6563 1670.5156,88.6563 Q1670.1719,88.6563 1669.9688,88.4531 Q1669.7656,88.2656 1669.6563,87.75 Q1669.6094,87.3906 1669.4219,87.2031 Q1669.0938,86.8281 1668.4844,86.6094 Q1667.875,86.3906 1667.25,86.3906 Q1666.4844,86.3906 1665.8438,86.7188 Q1665.2188,87.0469 1664.7188,87.7969 Q1664.2344,88.5469 1664.2344,89.5781 L1664.2344,90.6719 Q1664.2344,91.9063 1665.125,92.7344 Q1666.0156,93.5469 1667.6094,93.5469 Q1668.5469,93.5469 1669.2031,93.2969 Q1669.5938,93.1406 1670.0156,92.7031 Q1670.2813,92.4375 1670.4219,92.3594 Q1670.5781,92.2813 1670.7813,92.2813 Q1671.1094,92.2813 1671.3594,92.5469 Q1671.625,92.7969 1671.625,93.1406 Q1671.625,93.4844 1671.2813,93.8906 Q1670.7813,94.4688 1669.9844,94.7969 Q1668.9063,95.25 1667.6094,95.25 Q1666.0938,95.25 1664.8906,94.625 Q1663.9063,94.125 1663.2188,93.0625 Q1662.5313,91.9844 1662.5313,90.7031 L1662.5313,89.5469 Q1662.5313,88.2188 1663.1406,87.0781 Q1663.7656,85.9219 1664.8594,85.3125 Q1665.9531,84.6875 1667.1875,84.6875 Q1667.9219,84.6875 1668.5625,84.8594 Q1669.2188,85.0156 1669.7656,85.375 Z " fill="#000000"/><text fill="#000000" font-family="sans-serif" font-size="12" lengthAdjust="spacing" textLength="59" x="1681" y="94.4102">Freelancer</text><line style="stroke:#A80036;stroke-width:1.5;" x1="1653" x2="1742" y1="105.5" y2="105.5"/><text fill="#000000" font-family="sans-serif" font-size="11" lengthAdjust="spacing" textLength="61" x="1658" y="120.9189">-String nome</text><text fill="#000000" font-family="sans-serif" font-size="11" lengthAdjust="spacing" textLength="50" x="1658" y="134.7549">-String NIF</text><text fill="#000000" font-family="sans-serif" font-size="11" lengthAdjust="spacing" textLength="74" x="1658" y="148.5908">-String telefone</text><text fill="#000000" font-family="sans-serif" font-size="11" lengthAdjust="spacing" textLength="59" x="1658" y="162.4268">-String email</text><line style="stroke:#A80036;stroke-width:1.5;" x1="1653" x2="1742" y1="168.8438" y2="168.8438"/><!--MD5=[19db0db7353a4bf63eefc676e5ba9b80]
class Anuncio--><rect codeLine="30" fill="#FEFECE" filter="url(#fpnpk8ko0axi1)" height="131.0156" id="Anuncio" style="stroke:#A80036;stroke-width:1.5;" width="132" x="918" y="59.5"/><ellipse cx="958.2" cy="75.5" fill="#ADD1B2" rx="11" ry="11" style="stroke:#A80036;stroke-width:1.0;"/><path d="M960.9656,71.375 Q961.1219,71.1563 961.3094,71.0469 Q961.4969,70.9375 961.7156,70.9375 Q962.0906,70.9375 962.325,71.2031 Q962.5594,71.4531 962.5594,72.0625 L962.5594,73.5156 Q962.5594,74.125 962.325,74.3906 Q962.0906,74.6563 961.7156,74.6563 Q961.3719,74.6563 961.1688,74.4531 Q960.9656,74.2656 960.8563,73.75 Q960.8094,73.3906 960.6219,73.2031 Q960.2938,72.8281 959.6844,72.6094 Q959.075,72.3906 958.45,72.3906 Q957.6844,72.3906 957.0438,72.7188 Q956.4188,73.0469 955.9188,73.7969 Q955.4344,74.5469 955.4344,75.5781 L955.4344,76.6719 Q955.4344,77.9063 956.325,78.7344 Q957.2156,79.5469 958.8094,79.5469 Q959.7469,79.5469 960.4031,79.2969 Q960.7938,79.1406 961.2156,78.7031 Q961.4813,78.4375 961.6219,78.3594 Q961.7781,78.2813 961.9813,78.2813 Q962.3094,78.2813 962.5594,78.5469 Q962.825,78.7969 962.825,79.1406 Q962.825,79.4844 962.4813,79.8906 Q961.9813,80.4688 961.1844,80.7969 Q960.1063,81.25 958.8094,81.25 Q957.2938,81.25 956.0906,80.625 Q955.1063,80.125 954.4188,79.0625 Q953.7313,77.9844 953.7313,76.7031 L953.7313,75.5469 Q953.7313,74.2188 954.3406,73.0781 Q954.9656,71.9219 956.0594,71.3125 Q957.1531,70.6875 958.3875,70.6875 Q959.1219,70.6875 959.7625,70.8594 Q960.4188,71.0156 960.9656,71.375 Z " fill="#000000"/><text fill="#000000" font-family="sans-serif" font-size="12" lengthAdjust="spacing" textLength="44" x="977.8" y="80.4102">Anuncio</text><line style="stroke:#A80036;stroke-width:1.5;" x1="919" x2="1049" y1="91.5" y2="91.5"/><text fill="#000000" font-family="sans-serif" font-size="11" lengthAdjust="spacing" textLength="119" x="924" y="106.9189">-Date dtInicioPublicitacao</text><text fill="#000000" font-family="sans-serif" font-size="11" lengthAdjust="spacing" textLength="111" x="924" y="120.7549">-Date dtFimPublicitacao</text><text fill="#000000" font-family="sans-serif" font-size="11" lengthAdjust="spacing" textLength="120" x="924" y="134.5908">-Date dtInicioCandidatura</text><text fill="#000000" font-family="sans-serif" font-size="11" lengthAdjust="spacing" textLength="112" x="924" y="148.4268">-Date dtFimCandidatura</text><text fill="#000000" font-family="sans-serif" font-size="11" lengthAdjust="spacing" textLength="105" x="924" y="162.2627">-Date dtInicioSeriacao</text><text fill="#000000" font-family="sans-serif" font-size="11" lengthAdjust="spacing" textLength="97" x="924" y="176.0986">-Date dtFimSeriacao</text><line style="stroke:#A80036;stroke-width:1.5;" x1="919" x2="1049" y1="182.5156" y2="182.5156"/><!--MD5=[475c5b924ed41035684e2831311827d2]
class Candidatura--><rect codeLine="40" fill="#FEFECE" filter="url(#fpnpk8ko0axi1)" height="131.0156" id="Candidatura" style="stroke:#A80036;stroke-width:1.5;" width="353" x="1150" y="59.5"/><ellipse cx="1288.25" cy="75.5" fill="#ADD1B2" rx="11" ry="11" style="stroke:#A80036;stroke-width:1.0;"/><path d="M1291.0156,71.375 Q1291.1719,71.1563 1291.3594,71.0469 Q1291.5469,70.9375 1291.7656,70.9375 Q1292.1406,70.9375 1292.375,71.2031 Q1292.6094,71.4531 1292.6094,72.0625 L1292.6094,73.5156 Q1292.6094,74.125 1292.375,74.3906 Q1292.1406,74.6563 1291.7656,74.6563 Q1291.4219,74.6563 1291.2188,74.4531 Q1291.0156,74.2656 1290.9063,73.75 Q1290.8594,73.3906 1290.6719,73.2031 Q1290.3438,72.8281 1289.7344,72.6094 Q1289.125,72.3906 1288.5,72.3906 Q1287.7344,72.3906 1287.0938,72.7188 Q1286.4688,73.0469 1285.9688,73.7969 Q1285.4844,74.5469 1285.4844,75.5781 L1285.4844,76.6719 Q1285.4844,77.9063 1286.375,78.7344 Q1287.2656,79.5469 1288.8594,79.5469 Q1289.7969,79.5469 1290.4531,79.2969 Q1290.8438,79.1406 1291.2656,78.7031 Q1291.5313,78.4375 1291.6719,78.3594 Q1291.8281,78.2813 1292.0313,78.2813 Q1292.3594,78.2813 1292.6094,78.5469 Q1292.875,78.7969 1292.875,79.1406 Q1292.875,79.4844 1292.5313,79.8906 Q1292.0313,80.4688 1291.2344,80.7969 Q1290.1563,81.25 1288.8594,81.25 Q1287.3438,81.25 1286.1406,80.625 Q1285.1563,80.125 1284.4688,79.0625 Q1283.7813,77.9844 1283.7813,76.7031 L1283.7813,75.5469 Q1283.7813,74.2188 1284.3906,73.0781 Q1285.0156,71.9219 1286.1094,71.3125 Q1287.2031,70.6875 1288.4375,70.6875 Q1289.1719,70.6875 1289.8125,70.8594 Q1290.4688,71.0156 1291.0156,71.375 Z " fill="#000000"/><text fill="#000000" font-family="sans-serif" font-size="12" lengthAdjust="spacing" textLength="68" x="1308.75" y="80.4102">Candidatura</text><line style="stroke:#A80036;stroke-width:1.5;" x1="1151" x2="1502" y1="91.5" y2="91.5"/><text fill="#000000" font-family="sans-serif" font-size="11" lengthAdjust="spacing" textLength="108" x="1156" y="106.9189">-Date dataCandidatura</text><text fill="#000000" font-family="sans-serif" font-size="11" lengthAdjust="spacing" textLength="115" x="1156" y="120.7549">-Double valorPretendido</text><text fill="#000000" font-family="sans-serif" font-size="11" lengthAdjust="spacing" textLength="71" x="1156" y="134.5908">-Integer nrDias</text><text fill="#000000" font-family="sans-serif" font-size="11" lengthAdjust="spacing" textLength="116" x="1156" y="148.4268">-String txtApresentacao</text><text fill="#000000" font-family="sans-serif" font-size="11" lengthAdjust="spacing" textLength="96" x="1156" y="162.2627">-String txtMotivacao</text><line style="stroke:#A80036;stroke-width:1.5;" x1="1151" x2="1502" y1="168.6797" y2="168.6797"/><text fill="#000000" font-family="sans-serif" font-size="11" lengthAdjust="spacing" textLength="341" x="1156" y="184.0986">+Candidatura(anuncio,dataCand,valorPrt,nrDias,txtApres,txtMotiv,free)</text><!--MD5=[407421fe170650ac131a5bd0ef307540]
class UsersAPI--><rect codeLine="50" fill="#FEFECE" filter="url(#fpnpk8ko0axi1)" height="61.8359" id="UsersAPI" style="stroke:#A80036;stroke-width:1.5;" width="84" x="942" y="297"/><ellipse cx="957" cy="313" fill="#ADD1B2" rx="11" ry="11" style="stroke:#A80036;stroke-width:1.0;"/><path d="M959.7656,308.875 Q959.9219,308.6563 960.1094,308.5469 Q960.2969,308.4375 960.5156,308.4375 Q960.8906,308.4375 961.125,308.7031 Q961.3594,308.9531 961.3594,309.5625 L961.3594,311.0156 Q961.3594,311.625 961.125,311.8906 Q960.8906,312.1563 960.5156,312.1563 Q960.1719,312.1563 959.9688,311.9531 Q959.7656,311.7656 959.6563,311.25 Q959.6094,310.8906 959.4219,310.7031 Q959.0938,310.3281 958.4844,310.1094 Q957.875,309.8906 957.25,309.8906 Q956.4844,309.8906 955.8438,310.2188 Q955.2188,310.5469 954.7188,311.2969 Q954.2344,312.0469 954.2344,313.0781 L954.2344,314.1719 Q954.2344,315.4063 955.125,316.2344 Q956.0156,317.0469 957.6094,317.0469 Q958.5469,317.0469 959.2031,316.7969 Q959.5938,316.6406 960.0156,316.2031 Q960.2813,315.9375 960.4219,315.8594 Q960.5781,315.7813 960.7813,315.7813 Q961.1094,315.7813 961.3594,316.0469 Q961.625,316.2969 961.625,316.6406 Q961.625,316.9844 961.2813,317.3906 Q960.7813,317.9688 959.9844,318.2969 Q958.9063,318.75 957.6094,318.75 Q956.0938,318.75 954.8906,318.125 Q953.9063,317.625 953.2188,316.5625 Q952.5313,315.4844 952.5313,314.2031 L952.5313,313.0469 Q952.5313,311.7188 953.1406,310.5781 Q953.7656,309.4219 954.8594,308.8125 Q955.9531,308.1875 957.1875,308.1875 Q957.9219,308.1875 958.5625,308.3594 Q959.2188,308.5156 959.7656,308.875 Z " fill="#000000"/><text fill="#000000" font-family="sans-serif" font-size="12" lengthAdjust="spacing" textLength="52" x="971" y="317.9102">UsersAPI</text><line style="stroke:#A80036;stroke-width:1.5;" x1="943" x2="1025" y1="329" y2="329"/><line style="stroke:#A80036;stroke-width:1.5;" x1="943" x2="1025" y1="337" y2="337"/><text fill="#000000" font-family="sans-serif" font-size="11" lengthAdjust="spacing" textLength="53" x="948" y="352.4189">+getEmail()</text><!--MD5=[66c27f2f3fc9a5ca544cfaf803420972]
class RepositorioFreelancerDB--><rect codeLine="54" fill="#FEFECE" filter="url(#fpnpk8ko0axi1)" height="61.8359" id="RepositorioFreelancerDB" style="stroke:#A80036;stroke-width:1.5;" width="172" x="641.5" y="275"/><ellipse cx="656.5" cy="291" fill="#ADD1B2" rx="11" ry="11" style="stroke:#A80036;stroke-width:1.0;"/><path d="M659.2656,286.875 Q659.4219,286.6563 659.6094,286.5469 Q659.7969,286.4375 660.0156,286.4375 Q660.3906,286.4375 660.625,286.7031 Q660.8594,286.9531 660.8594,287.5625 L660.8594,289.0156 Q660.8594,289.625 660.625,289.8906 Q660.3906,290.1563 660.0156,290.1563 Q659.6719,290.1563 659.4688,289.9531 Q659.2656,289.7656 659.1563,289.25 Q659.1094,288.8906 658.9219,288.7031 Q658.5938,288.3281 657.9844,288.1094 Q657.375,287.8906 656.75,287.8906 Q655.9844,287.8906 655.3438,288.2188 Q654.7188,288.5469 654.2188,289.2969 Q653.7344,290.0469 653.7344,291.0781 L653.7344,292.1719 Q653.7344,293.4063 654.625,294.2344 Q655.5156,295.0469 657.1094,295.0469 Q658.0469,295.0469 658.7031,294.7969 Q659.0938,294.6406 659.5156,294.2031 Q659.7813,293.9375 659.9219,293.8594 Q660.0781,293.7813 660.2813,293.7813 Q660.6094,293.7813 660.8594,294.0469 Q661.125,294.2969 661.125,294.6406 Q661.125,294.9844 660.7813,295.3906 Q660.2813,295.9688 659.4844,296.2969 Q658.4063,296.75 657.1094,296.75 Q655.5938,296.75 654.3906,296.125 Q653.4063,295.625 652.7188,294.5625 Q652.0313,293.4844 652.0313,292.2031 L652.0313,291.0469 Q652.0313,289.7188 652.6406,288.5781 Q653.2656,287.4219 654.3594,286.8125 Q655.4531,286.1875 656.6875,286.1875 Q657.4219,286.1875 658.0625,286.3594 Q658.7188,286.5156 659.2656,286.875 Z " fill="#000000"/><text fill="#000000" font-family="sans-serif" font-size="12" lengthAdjust="spacing" textLength="140" x="670.5" y="295.9102">RepositorioFreelancerDB</text><line style="stroke:#A80036;stroke-width:1.5;" x1="642.5" x2="812.5" y1="307" y2="307"/><line style="stroke:#A80036;stroke-width:1.5;" x1="642.5" x2="812.5" y1="315" y2="315"/><text fill="#000000" font-family="sans-serif" font-size="11" lengthAdjust="spacing" textLength="87" x="647.5" y="330.4189">+find(String email)</text><!--MD5=[7098db91d62cc2bf284429dddca04ce6]
class RepositorioAnuncioDB--><rect codeLine="58" fill="#FEFECE" filter="url(#fpnpk8ko0axi1)" height="61.8359" id="RepositorioAnuncioDB" style="stroke:#A80036;stroke-width:1.5;" width="157" x="649" y="372"/><ellipse cx="664" cy="388" fill="#ADD1B2" rx="11" ry="11" style="stroke:#A80036;stroke-width:1.0;"/><path d="M666.7656,383.875 Q666.9219,383.6563 667.1094,383.5469 Q667.2969,383.4375 667.5156,383.4375 Q667.8906,383.4375 668.125,383.7031 Q668.3594,383.9531 668.3594,384.5625 L668.3594,386.0156 Q668.3594,386.625 668.125,386.8906 Q667.8906,387.1563 667.5156,387.1563 Q667.1719,387.1563 666.9688,386.9531 Q666.7656,386.7656 666.6563,386.25 Q666.6094,385.8906 666.4219,385.7031 Q666.0938,385.3281 665.4844,385.1094 Q664.875,384.8906 664.25,384.8906 Q663.4844,384.8906 662.8438,385.2188 Q662.2188,385.5469 661.7188,386.2969 Q661.2344,387.0469 661.2344,388.0781 L661.2344,389.1719 Q661.2344,390.4063 662.125,391.2344 Q663.0156,392.0469 664.6094,392.0469 Q665.5469,392.0469 666.2031,391.7969 Q666.5938,391.6406 667.0156,391.2031 Q667.2813,390.9375 667.4219,390.8594 Q667.5781,390.7813 667.7813,390.7813 Q668.1094,390.7813 668.3594,391.0469 Q668.625,391.2969 668.625,391.6406 Q668.625,391.9844 668.2813,392.3906 Q667.7813,392.9688 666.9844,393.2969 Q665.9063,393.75 664.6094,393.75 Q663.0938,393.75 661.8906,393.125 Q660.9063,392.625 660.2188,391.5625 Q659.5313,390.4844 659.5313,389.2031 L659.5313,388.0469 Q659.5313,386.7188 660.1406,385.5781 Q660.7656,384.4219 661.8594,383.8125 Q662.9531,383.1875 664.1875,383.1875 Q664.9219,383.1875 665.5625,383.3594 Q666.2188,383.5156 666.7656,383.875 Z " fill="#000000"/><text fill="#000000" font-family="sans-serif" font-size="12" lengthAdjust="spacing" textLength="125" x="678" y="392.9102">RepositorioAnuncioDB</text><line style="stroke:#A80036;stroke-width:1.5;" x1="650" x2="805" y1="404" y2="404"/><line style="stroke:#A80036;stroke-width:1.5;" x1="650" x2="805" y1="412" y2="412"/><text fill="#000000" font-family="sans-serif" font-size="11" lengthAdjust="spacing" textLength="142" x="655" y="427.4189">+getAllAnunciosDisponiveis()</text><!--MD5=[a60929a1a98df3a57ce6091e636630a1]
class RepositorioCandidaturaDB--><rect codeLine="62" fill="#FEFECE" filter="url(#fpnpk8ko0axi1)" height="61.8359" id="RepositorioCandidaturaDB" style="stroke:#A80036;stroke-width:1.5;" width="181" x="637" y="469"/><ellipse cx="652" cy="485" fill="#ADD1B2" rx="11" ry="11" style="stroke:#A80036;stroke-width:1.0;"/><path d="M654.7656,480.875 Q654.9219,480.6563 655.1094,480.5469 Q655.2969,480.4375 655.5156,480.4375 Q655.8906,480.4375 656.125,480.7031 Q656.3594,480.9531 656.3594,481.5625 L656.3594,483.0156 Q656.3594,483.625 656.125,483.8906 Q655.8906,484.1563 655.5156,484.1563 Q655.1719,484.1563 654.9688,483.9531 Q654.7656,483.7656 654.6563,483.25 Q654.6094,482.8906 654.4219,482.7031 Q654.0938,482.3281 653.4844,482.1094 Q652.875,481.8906 652.25,481.8906 Q651.4844,481.8906 650.8438,482.2188 Q650.2188,482.5469 649.7188,483.2969 Q649.2344,484.0469 649.2344,485.0781 L649.2344,486.1719 Q649.2344,487.4063 650.125,488.2344 Q651.0156,489.0469 652.6094,489.0469 Q653.5469,489.0469 654.2031,488.7969 Q654.5938,488.6406 655.0156,488.2031 Q655.2813,487.9375 655.4219,487.8594 Q655.5781,487.7813 655.7813,487.7813 Q656.1094,487.7813 656.3594,488.0469 Q656.625,488.2969 656.625,488.6406 Q656.625,488.9844 656.2813,489.3906 Q655.7813,489.9688 654.9844,490.2969 Q653.9063,490.75 652.6094,490.75 Q651.0938,490.75 649.8906,490.125 Q648.9063,489.625 648.2188,488.5625 Q647.5313,487.4844 647.5313,486.2031 L647.5313,485.0469 Q647.5313,483.7188 648.1406,482.5781 Q648.7656,481.4219 649.8594,480.8125 Q650.9531,480.1875 652.1875,480.1875 Q652.9219,480.1875 653.5625,480.3594 Q654.2188,480.5156 654.7656,480.875 Z " fill="#000000"/><text fill="#000000" font-family="sans-serif" font-size="12" lengthAdjust="spacing" textLength="149" x="666" y="489.9102">RepositorioCandidaturaDB</text><line style="stroke:#A80036;stroke-width:1.5;" x1="638" x2="817" y1="501" y2="501"/><line style="stroke:#A80036;stroke-width:1.5;" x1="638" x2="817" y1="509" y2="509"/><text fill="#000000" font-family="sans-serif" font-size="11" lengthAdjust="spacing" textLength="123" x="643" y="524.4189">+save(Candidatura cand)</text><!--MD5=[56eb82adad4314a456214207d508b21f]
link RegistarCandidaturaUI to RegistarCandidaturaController--><path codeLine="66" d="M166.08,258 C183.21,258 202.02,258 221.29,258 " fill="none" id="RegistarCandidaturaUI-to-RegistarCandidaturaController" style="stroke:#A80036;stroke-width:1.0;stroke-dasharray:7.0,7.0;"/><polygon fill="#A80036" points="226.74,258,217.74,254,221.74,258,217.74,262,226.74,258" style="stroke:#A80036;stroke-width:1.0;"/><!--MD5=[36c49b5e3a0fe9f263844f13d3d06d8a]
link RegistarCandidaturaController to Plataforma--><path codeLine="67" d="M576.36,231.71 C612.96,226.17 648.75,220.76 676.2,216.61 " fill="none" id="RegistarCandidaturaController-to-Plataforma" style="stroke:#A80036;stroke-width:1.0;stroke-dasharray:7.0,7.0;"/><polygon fill="#A80036" points="681.23,215.85,671.7281,213.2588,676.2876,216.6071,672.9394,221.1666,681.23,215.85" style="stroke:#A80036;stroke-width:1.0;"/><!--MD5=[76b7d3b7f836e778b5e7828f7a1a63db]
link RegistarCandidaturaController to Freelancer--><path codeLine="68" d="M435.99,206.4 C488.36,132.67 597.16,6 726.5,6 C726.5,6 726.5,6 1327.5,6 C1447.05,6 1578.32,63.27 1647.51,98.35 " fill="none" id="RegistarCandidaturaController-to-Freelancer" style="stroke:#A80036;stroke-width:1.0;stroke-dasharray:7.0,7.0;"/><polygon fill="#A80036" points="1651.98,100.63,1645.7774,92.9796,1647.5251,98.3597,1642.145,100.1074,1651.98,100.63" style="stroke:#A80036;stroke-width:1.0;"/><!--MD5=[e07543656bf1acbdbc8f3ce1156e6577]
link RegistarCandidaturaController to Anuncio--><path codeLine="69" d="M507.33,206.41 C547.06,188.95 593.27,171.09 637,160 C730.59,136.27 842.26,128.53 912.91,126.06 " fill="none" id="RegistarCandidaturaController-to-Anuncio" style="stroke:#A80036;stroke-width:1.0;stroke-dasharray:7.0,7.0;"/><polygon fill="#A80036" points="917.93,125.89,908.7982,122.2007,912.9329,126.0613,909.0723,130.196,917.93,125.89" style="stroke:#A80036;stroke-width:1.0;"/><!--MD5=[ff563137175459eaa680132dfa9ea236]
link RegistarCandidaturaController to RepositorioAnuncioDB--><path codeLine="70" d="M517.64,309.53 C562.39,329.55 612.35,351.91 652.19,369.74 " fill="none" id="RegistarCandidaturaController-to-RepositorioAnuncioDB" style="stroke:#A80036;stroke-width:1.0;stroke-dasharray:7.0,7.0;"/><polygon fill="#A80036" points="656.99,371.89,650.386,364.5833,652.4198,369.862,647.1411,371.8957,656.99,371.89" style="stroke:#A80036;stroke-width:1.0;"/><!--MD5=[068895286fd19e0ce705ed074b3d4ab3]
link RegistarCandidaturaController to RepositorioCandidaturaDB--><path codeLine="71" d="M458.31,309.58 C504.32,350.75 572.31,408.53 637,452 C644.29,456.9 652.12,461.7 660.02,466.27 " fill="none" id="RegistarCandidaturaController-to-RepositorioCandidaturaDB" style="stroke:#A80036;stroke-width:1.0;stroke-dasharray:7.0,7.0;"/><polygon fill="#A80036" points="664.41,468.78,658.586,460.8377,660.0705,466.2962,654.612,467.7808,664.41,468.78" style="stroke:#A80036;stroke-width:1.0;"/><!--MD5=[e9572e7b1307d95bae35e0c49c2dc578]
link RegistarCandidaturaController to RepositorioFreelancerDB--><path codeLine="72" d="M576.36,283.76 C596.94,286.81 617.26,289.82 636,292.59 " fill="none" id="RegistarCandidaturaController-to-RepositorioFreelancerDB" style="stroke:#A80036;stroke-width:1.0;stroke-dasharray:7.0,7.0;"/><polygon fill="#A80036" points="641.24,293.37,632.9322,288.0804,636.2952,292.629,631.7466,295.992,641.24,293.37" style="stroke:#A80036;stroke-width:1.0;"/><!--MD5=[3d9e8e0d764359bffb897b36dc4b633a]
link Plataforma to Anuncio--><path codeLine="74" d="M773.51,200.08 C805.83,193.11 850.18,182.37 888,169 C896.31,166.06 904.89,162.66 913.33,159.07 " fill="none" id="Plataforma-to-Anuncio" style="stroke:#A80036;stroke-width:1.0;"/><polygon fill="#A80036" points="918,157.06,908.1516,156.9657,913.4117,159.0468,911.3305,164.3069,918,157.06" style="stroke:#A80036;stroke-width:1.0;"/><text fill="#000000" font-family="sans-serif" font-size="13" lengthAdjust="spacing" textLength="38" x="849" y="165.4951">possui</text><text fill="#000000" font-family="sans-serif" font-size="13" lengthAdjust="spacing" textLength="7" x="781.4007" y="194.9196">1</text><text fill="#000000" font-family="sans-serif" font-size="13" lengthAdjust="spacing" textLength="5" x="905.0797" y="175.2065">*</text><!--MD5=[39c0de7668d8063a4eb96c23050b3de2]
link Plataforma to Freelancer--><path codeLine="75" d="M773.67,215.19 C893.89,230.32 1231.05,264.05 1503,208 C1554.43,197.4 1609.08,172.56 1647.13,152.8 " fill="none" id="Plataforma-to-Freelancer" style="stroke:#A80036;stroke-width:1.0;"/><polygon fill="#A80036" points="1651.69,150.42,1641.8609,151.0433,1647.2586,152.7358,1645.5661,158.1335,1651.69,150.42" style="stroke:#A80036;stroke-width:1.0;"/><text fill="#000000" font-family="sans-serif" font-size="13" lengthAdjust="spacing" textLength="38" x="1081" y="234.4951">possui</text><text fill="#000000" font-family="sans-serif" font-size="13" lengthAdjust="spacing" textLength="7" x="781.5862" y="230.9877">1</text><text fill="#000000" font-family="sans-serif" font-size="13" lengthAdjust="spacing" textLength="5" x="1638.9906" y="169.2421">*</text><!--MD5=[8332b1d6239e15bdcec09ce3bcdea9a3]
link Plataforma to UsersAPI--><path codeLine="76" d="M773.55,232.89 C795.79,244.45 823.12,258.32 848,270 C877.35,283.78 910.83,298.17 937.1,309.17 " fill="none" id="Plataforma-to-UsersAPI" style="stroke:#A80036;stroke-width:1.0;stroke-dasharray:7.0,7.0;"/><polygon fill="#A80036" points="941.92,311.18,935.1586,304.0187,937.3067,309.2519,932.0736,311.4,941.92,311.18" style="stroke:#A80036;stroke-width:1.0;"/><!--MD5=[27b52c98fcb5387c047ce09b42fcb62d]
link Anuncio to Candidatura--><path codeLine="78" d="M1050.25,125 C1077.47,125 1110.56,125 1144.24,125 " fill="none" id="Anuncio-to-Candidatura" style="stroke:#A80036;stroke-width:1.0;"/><polygon fill="#A80036" points="1149.64,125,1140.64,121,1144.64,125,1140.64,129,1149.64,125" style="stroke:#A80036;stroke-width:1.0;"/><text fill="#000000" font-family="sans-serif" font-size="13" lengthAdjust="spacing" textLength="38" x="1081" y="121.4951">possui</text><text fill="#000000" font-family="sans-serif" font-size="13" lengthAdjust="spacing" textLength="7" x="1057.8789" y="139.3885">1</text><text fill="#000000" font-family="sans-serif" font-size="13" lengthAdjust="spacing" textLength="5" x="1137.0733" y="138.8397">*</text><!--MD5=[a66e767a4304f5fa76db98d7839a7a61]
link Candidatura to Freelancer--><path codeLine="80" d="M1503.08,125 C1555.5,125 1608.88,125 1646.24,125 " fill="none" id="Candidatura-to-Freelancer" style="stroke:#A80036;stroke-width:1.0;"/><polygon fill="#A80036" points="1651.64,125,1642.64,121,1646.64,125,1642.64,129,1651.64,125" style="stroke:#A80036;stroke-width:1.0;"/><polygon fill="#000000" points="1543,116.1758,1533.9549,113.2369,1533.9549,119.1147,1543,116.1758" style="stroke:#000000;stroke-width:1.0;"/><text fill="#000000" font-family="sans-serif" font-size="13" lengthAdjust="spacing" textLength="74" x="1547" y="121.4951">realizada por</text><text fill="#000000" font-family="sans-serif" font-size="13" lengthAdjust="spacing" textLength="5" x="1511.1946" y="138.8652">*</text><text fill="#000000" font-family="sans-serif" font-size="13" lengthAdjust="spacing" textLength="7" x="1637.0818" y="139.7207">1</text><!--MD5=[1481273f0bb45d859ae81a9ba3dcf509]
@startuml
skinparam classAttributeIconSize 0
left to right direction

class RegistarCandidaturaUI {
}

class RegistarCandidaturaController {
  +List<Anuncio> getAnunciosElegiveisDoFreelancer()
  +void registarCandidatura(anuncioId,valorPrt,nrDias,txtApres,txtMotiv)
  +Freelancer getFreelancerByEmail(email)
  +AnuncigetAnuncioById(int anuncioId)
}

class Plataforma {
    +getUsersAPI()
}

class RegistoFreelancer
{
 +getFreelancerByEmail(email)
}

class Freelancer {
    -String nome
    -String NIF
    -String telefone
    -String email
}

class Anuncio
{
    -Date dtInicioPublicitacao
    -Date dtFimPublicitacao
    -Date dtInicioCandidatura
    -Date dtFimCandidatura
    -Date dtInicioSeriacao
    -Date dtFimSeriacao
}

class Candidatura
{
    -Date dataCandidatura
    -Double valorPretendido
    -Integer nrDias
    -String txtApresentacao
    -String txtMotivacao
    +Candidatura(anuncio,dataCand,valorPrt,nrDias,txtApres,txtMotiv,free)
}

class UsersAPI {
  +getEmail()
}

class RepositorioFreelancerDB {
  +find(String email)
}

class RepositorioAnuncioDB {
  +getAllAnunciosDisponiveis()
}

class RepositorioCandidaturaDB {
  +save(Candidatura cand)
}

RegistarCandidaturaUI ..> RegistarCandidaturaController
RegistarCandidaturaController ..> Plataforma
RegistarCandidaturaController ..> Freelancer
RegistarCandidaturaController ..> Anuncio
RegistarCandidaturaController ..> RepositorioAnuncioDB
RegistarCandidaturaController ..> RepositorioCandidaturaDB
RegistarCandidaturaController ..> RepositorioFreelancerDB

Plataforma "1" - -> "*" Anuncio : possui
Plataforma "1" - -> "*" Freelancer : possui
Plataforma ..> UsersAPI

Anuncio "1" - -> "*" Candidatura : possui

Candidatura "*" - -> "1"  Freelancer: realizada por >



@enduml

PlantUML version 1.2021.00(Sun Jan 10 10:25:05 WET 2021)
(GPL source distribution)
Java Runtime: Java(TM) SE Runtime Environment
JVM: Java HotSpot(TM) 64-Bit Server VM
Default Encoding: Cp1252
Language: pt
Country: PT
--></g></svg>