<?xml version="1.0" encoding="UTF-8" standalone="no"?><svg xmlns="http://www.w3.org/2000/svg" xmlns:xlink="http://www.w3.org/1999/xlink" contentScriptType="application/ecmascript" contentStyleType="text/css" height="910px" preserveAspectRatio="none" style="width:2041px;height:910px;" version="1.1" viewBox="0 0 2041 910" width="2041px" zoomAndPan="magnify"><defs><filter height="300%" id="f1v8f6he7ggxrq" width="300%" x="-1" y="-1"><feGaussianBlur result="blurOut" stdDeviation="2.0"/><feColorMatrix in="blurOut" result="blurOut2" type="matrix" values="0 0 0 0 0 0 0 0 0 0 0 0 0 0 0 0 0 0 .4 0"/><feOffset dx="4.0" dy="4.0" in="blurOut2" result="blurOut3"/><feBlend in="SourceGraphic" in2="blurOut3" mode="normal"/></filter></defs><g><rect fill="#FFFFFF" filter="url(#f1v8f6he7ggxrq)" height="716.5469" style="stroke:#A80036;stroke-width:1.0;" width="10" x="37.5" y="99.6094"/><rect fill="#FFFFFF" filter="url(#f1v8f6he7ggxrq)" height="272.1094" style="stroke:#A80036;stroke-width:1.0;" width="10" x="407.5" y="121.9609"/><rect fill="#FFFFFF" filter="url(#f1v8f6he7ggxrq)" height="46.7031" style="stroke:#A80036;stroke-width:1.0;" width="10" x="407.5" y="424.4219"/><rect fill="#FFFFFF" filter="url(#f1v8f6he7ggxrq)" height="30.3516" style="stroke:#A80036;stroke-width:1.0;" width="10" x="407.5" y="517.8281"/><rect fill="#FFFFFF" filter="url(#f1v8f6he7ggxrq)" height="228.625" style="stroke:#A80036;stroke-width:1.0;" width="10" x="407.5" y="578.5313"/><rect fill="#FFFFFF" filter="url(#f1v8f6he7ggxrq)" height="211.4063" style="stroke:#A80036;stroke-width:1.0;" width="10" x="958.5" y="152.3125"/><rect fill="#FFFFFF" filter="url(#f1v8f6he7ggxrq)" height="198.2734" style="stroke:#A80036;stroke-width:1.0;" width="10" x="958.5" y="608.8828"/><rect fill="#FFFFFF" filter="url(#f1v8f6he7ggxrq)" height="60.3516" style="stroke:#A80036;stroke-width:1.0;" width="10" x="1144.5" y="182.6641"/><rect fill="#FFFFFF" filter="url(#f1v8f6he7ggxrq)" height="30" style="stroke:#A80036;stroke-width:1.0;" width="10" x="1243.5" y="213.0156"/><rect fill="#FFFFFF" filter="url(#f1v8f6he7ggxrq)" height="30" style="stroke:#A80036;stroke-width:1.0;" width="10" x="1609.5" y="273.3672"/><rect fill="#FFFFFF" filter="url(#f1v8f6he7ggxrq)" height="30" style="stroke:#A80036;stroke-width:1.0;" width="10" x="1776.5" y="333.7188"/><rect fill="#FFFFFF" filter="url(#f1v8f6he7ggxrq)" height="30" style="stroke:#A80036;stroke-width:1.0;" width="10" x="1948" y="746.8047"/><line style="stroke:#A80036;stroke-width:1.0;stroke-dasharray:5.0,5.0;" x1="42" x2="42" y1="89.6094" y2="825.1563"/><line style="stroke:#A80036;stroke-width:1.0;stroke-dasharray:5.0,5.0;" x1="412" x2="412" y1="89.6094" y2="825.1563"/><line style="stroke:#A80036;stroke-width:1.0;stroke-dasharray:5.0,5.0;" x1="963" x2="963" y1="89.6094" y2="825.1563"/><line style="stroke:#A80036;stroke-width:1.0;stroke-dasharray:5.0,5.0;" x1="1149.5" x2="1149.5" y1="89.6094" y2="825.1563"/><line style="stroke:#A80036;stroke-width:1.0;stroke-dasharray:5.0,5.0;" x1="1248" x2="1248" y1="89.6094" y2="825.1563"/><line style="stroke:#A80036;stroke-width:1.0;stroke-dasharray:5.0,5.0;" x1="1334" x2="1334" y1="89.6094" y2="825.1563"/><line style="stroke:#A80036;stroke-width:1.0;stroke-dasharray:5.0,5.0;" x1="1473.5" x2="1473.5" y1="702.3438" y2="825.1563"/><line style="stroke:#A80036;stroke-width:1.0;stroke-dasharray:5.0,5.0;" x1="1614.5" x2="1614.5" y1="89.6094" y2="825.1563"/><line style="stroke:#A80036;stroke-width:1.0;stroke-dasharray:5.0,5.0;" x1="1781.5" x2="1781.5" y1="89.6094" y2="825.1563"/><line style="stroke:#A80036;stroke-width:1.0;stroke-dasharray:5.0,5.0;" x1="1952.5" x2="1952.5" y1="89.6094" y2="825.1563"/><text fill="#000000" font-family="sans-serif" font-size="14" lengthAdjust="spacing" textLength="69" x="5" y="86.5332">Freelancer</text><ellipse cx="42.5" cy="15" fill="#FEFECE" filter="url(#f1v8f6he7ggxrq)" rx="8" ry="8" style="stroke:#A80036;stroke-width:2.0;"/><path d="M42.5,23 L42.5,50 M29.5,31 L55.5,31 M42.5,50 L29.5,65 M42.5,50 L55.5,65 " fill="none" filter="url(#f1v8f6he7ggxrq)" style="stroke:#A80036;stroke-width:2.0;"/><text fill="#000000" font-family="sans-serif" font-size="14" lengthAdjust="spacing" textLength="69" x="5" y="838.6895">Freelancer</text><ellipse cx="42.5" cy="851.7656" fill="#FEFECE" filter="url(#f1v8f6he7ggxrq)" rx="8" ry="8" style="stroke:#A80036;stroke-width:2.0;"/><path d="M42.5,859.7656 L42.5,886.7656 M29.5,867.7656 L55.5,867.7656 M42.5,886.7656 L29.5,901.7656 M42.5,886.7656 L55.5,901.7656 " fill="none" filter="url(#f1v8f6he7ggxrq)" style="stroke:#A80036;stroke-width:2.0;"/><rect fill="#FEFECE" filter="url(#f1v8f6he7ggxrq)" height="31.6094" style="stroke:#A80036;stroke-width:1.5;" width="161" x="330" y="53"/><text fill="#000000" font-family="sans-serif" font-size="14" lengthAdjust="spacing" textLength="147" x="337" y="74.5332">:RegistarCandidaturaUI</text><rect fill="#FEFECE" filter="url(#f1v8f6he7ggxrq)" height="31.6094" style="stroke:#A80036;stroke-width:1.5;" width="161" x="330" y="824.1563"/><text fill="#000000" font-family="sans-serif" font-size="14" lengthAdjust="spacing" textLength="147" x="337" y="845.6895">:RegistarCandidaturaUI</text><rect fill="#FEFECE" filter="url(#f1v8f6he7ggxrq)" height="31.6094" style="stroke:#A80036;stroke-width:1.5;" width="211" x="856" y="53"/><text fill="#000000" font-family="sans-serif" font-size="14" lengthAdjust="spacing" textLength="197" x="863" y="74.5332">:RegistarCandidaturaController</text><rect fill="#FEFECE" filter="url(#f1v8f6he7ggxrq)" height="31.6094" style="stroke:#A80036;stroke-width:1.5;" width="211" x="856" y="824.1563"/><text fill="#000000" font-family="sans-serif" font-size="14" lengthAdjust="spacing" textLength="197" x="863" y="845.6895">:RegistarCandidaturaController</text><rect fill="#FEFECE" filter="url(#f1v8f6he7ggxrq)" height="31.6094" style="stroke:#A80036;stroke-width:1.5;" width="86" x="1104.5" y="53"/><text fill="#000000" font-family="sans-serif" font-size="14" lengthAdjust="spacing" textLength="72" x="1111.5" y="74.5332">:Plataforma</text><rect fill="#FEFECE" filter="url(#f1v8f6he7ggxrq)" height="31.6094" style="stroke:#A80036;stroke-width:1.5;" width="86" x="1104.5" y="824.1563"/><text fill="#000000" font-family="sans-serif" font-size="14" lengthAdjust="spacing" textLength="72" x="1111.5" y="845.6895">:Plataforma</text><rect fill="#FEFECE" filter="url(#f1v8f6he7ggxrq)" height="31.6094" style="stroke:#A80036;stroke-width:1.5;" width="79" x="1207" y="53"/><text fill="#000000" font-family="sans-serif" font-size="14" lengthAdjust="spacing" textLength="65" x="1214" y="74.5332">: UsersAPI</text><rect fill="#FEFECE" filter="url(#f1v8f6he7ggxrq)" height="31.6094" style="stroke:#A80036;stroke-width:1.5;" width="79" x="1207" y="824.1563"/><text fill="#000000" font-family="sans-serif" font-size="14" lengthAdjust="spacing" textLength="65" x="1214" y="845.6895">: UsersAPI</text><rect fill="#FEFECE" filter="url(#f1v8f6he7ggxrq)" height="49.2188" style="stroke:#A80036;stroke-width:1.5;" width="65" x="1300" y="35.3906"/><text fill="#000000" font-family="sans-serif" font-size="14" lengthAdjust="spacing" textLength="28" x="1318.5" y="56.9238">anu:</text><text fill="#000000" font-family="sans-serif" font-size="14" lengthAdjust="spacing" textLength="51" x="1307" y="74.5332">Anuncio</text><rect fill="#FEFECE" filter="url(#f1v8f6he7ggxrq)" height="49.2188" style="stroke:#A80036;stroke-width:1.5;" width="65" x="1300" y="824.1563"/><text fill="#000000" font-family="sans-serif" font-size="14" lengthAdjust="spacing" textLength="28" x="1318.5" y="845.6895">anu:</text><text fill="#000000" font-family="sans-serif" font-size="14" lengthAdjust="spacing" textLength="51" x="1307" y="863.2988">Anuncio</text><rect fill="#FEFECE" filter="url(#f1v8f6he7ggxrq)" height="49.2188" style="stroke:#A80036;stroke-width:1.5;" width="92" x="1425.5" y="824.1563"/><text fill="#000000" font-family="sans-serif" font-size="14" lengthAdjust="spacing" textLength="35" x="1454" y="845.6895">cand:</text><text fill="#000000" font-family="sans-serif" font-size="14" lengthAdjust="spacing" textLength="78" x="1432.5" y="863.2988">Candidatura</text><text fill="#000000" font-family="sans-serif" font-size="14" lengthAdjust="spacing" textLength="160" x="1531.5" y="86.5332">RepositorioFreelancerDB</text><path d="M1596.5,36 C1596.5,26 1614.5,26 1614.5,26 C1614.5,26 1632.5,26 1632.5,36 L1632.5,62 C1632.5,72 1614.5,72 1614.5,72 C1614.5,72 1596.5,72 1596.5,62 L1596.5,36 " fill="#FEFECE" filter="url(#f1v8f6he7ggxrq)" style="stroke:#000000;stroke-width:1.5;"/><path d="M1596.5,36 C1596.5,46 1614.5,46 1614.5,46 C1614.5,46 1632.5,46 1632.5,36 " fill="none" style="stroke:#000000;stroke-width:1.5;"/><text fill="#000000" font-family="sans-serif" font-size="14" lengthAdjust="spacing" textLength="160" x="1531.5" y="838.6895">RepositorioFreelancerDB</text><path d="M1596.5,851.7656 C1596.5,841.7656 1614.5,841.7656 1614.5,841.7656 C1614.5,841.7656 1632.5,841.7656 1632.5,851.7656 L1632.5,877.7656 C1632.5,887.7656 1614.5,887.7656 1614.5,887.7656 C1614.5,887.7656 1596.5,887.7656 1596.5,877.7656 L1596.5,851.7656 " fill="#FEFECE" filter="url(#f1v8f6he7ggxrq)" style="stroke:#000000;stroke-width:1.5;"/><path d="M1596.5,851.7656 C1596.5,861.7656 1614.5,861.7656 1614.5,861.7656 C1614.5,861.7656 1632.5,861.7656 1632.5,851.7656 " fill="none" style="stroke:#000000;stroke-width:1.5;"/><text fill="#000000" font-family="sans-serif" font-size="14" lengthAdjust="spacing" textLength="142" x="1707.5" y="86.5332">RepositorioAnuncioDB</text><path d="M1763.5,36 C1763.5,26 1781.5,26 1781.5,26 C1781.5,26 1799.5,26 1799.5,36 L1799.5,62 C1799.5,72 1781.5,72 1781.5,72 C1781.5,72 1763.5,72 1763.5,62 L1763.5,36 " fill="#FEFECE" filter="url(#f1v8f6he7ggxrq)" style="stroke:#000000;stroke-width:1.5;"/><path d="M1763.5,36 C1763.5,46 1781.5,46 1781.5,46 C1781.5,46 1799.5,46 1799.5,36 " fill="none" style="stroke:#000000;stroke-width:1.5;"/><text fill="#000000" font-family="sans-serif" font-size="14" lengthAdjust="spacing" textLength="142" x="1707.5" y="838.6895">RepositorioAnuncioDB</text><path d="M1763.5,851.7656 C1763.5,841.7656 1781.5,841.7656 1781.5,841.7656 C1781.5,841.7656 1799.5,841.7656 1799.5,851.7656 L1799.5,877.7656 C1799.5,887.7656 1781.5,887.7656 1781.5,887.7656 C1781.5,887.7656 1763.5,887.7656 1763.5,877.7656 L1763.5,851.7656 " fill="#FEFECE" filter="url(#f1v8f6he7ggxrq)" style="stroke:#000000;stroke-width:1.5;"/><path d="M1763.5,851.7656 C1763.5,861.7656 1781.5,861.7656 1781.5,861.7656 C1781.5,861.7656 1799.5,861.7656 1799.5,851.7656 " fill="none" style="stroke:#000000;stroke-width:1.5;"/><text fill="#000000" font-family="sans-serif" font-size="14" lengthAdjust="spacing" textLength="169" x="1865.5" y="86.5332">RepositorioCandidaturaDB</text><path d="M1935,36 C1935,26 1953,26 1953,26 C1953,26 1971,26 1971,36 L1971,62 C1971,72 1953,72 1953,72 C1953,72 1935,72 1935,62 L1935,36 " fill="#FEFECE" filter="url(#f1v8f6he7ggxrq)" style="stroke:#000000;stroke-width:1.5;"/><path d="M1935,36 C1935,46 1953,46 1953,46 C1953,46 1971,46 1971,36 " fill="none" style="stroke:#000000;stroke-width:1.5;"/><text fill="#000000" font-family="sans-serif" font-size="14" lengthAdjust="spacing" textLength="169" x="1865.5" y="838.6895">RepositorioCandidaturaDB</text><path d="M1935,851.7656 C1935,841.7656 1953,841.7656 1953,841.7656 C1953,841.7656 1971,841.7656 1971,851.7656 L1971,877.7656 C1971,887.7656 1953,887.7656 1953,887.7656 C1953,887.7656 1935,887.7656 1935,877.7656 L1935,851.7656 " fill="#FEFECE" filter="url(#f1v8f6he7ggxrq)" style="stroke:#000000;stroke-width:1.5;"/><path d="M1935,851.7656 C1935,861.7656 1953,861.7656 1953,861.7656 C1953,861.7656 1971,861.7656 1971,851.7656 " fill="none" style="stroke:#000000;stroke-width:1.5;"/><rect fill="#FFFFFF" filter="url(#f1v8f6he7ggxrq)" height="716.5469" style="stroke:#A80036;stroke-width:1.0;" width="10" x="37.5" y="99.6094"/><rect fill="#FFFFFF" filter="url(#f1v8f6he7ggxrq)" height="272.1094" style="stroke:#A80036;stroke-width:1.0;" width="10" x="407.5" y="121.9609"/><rect fill="#FFFFFF" filter="url(#f1v8f6he7ggxrq)" height="46.7031" style="stroke:#A80036;stroke-width:1.0;" width="10" x="407.5" y="424.4219"/><rect fill="#FFFFFF" filter="url(#f1v8f6he7ggxrq)" height="30.3516" style="stroke:#A80036;stroke-width:1.0;" width="10" x="407.5" y="517.8281"/><rect fill="#FFFFFF" filter="url(#f1v8f6he7ggxrq)" height="228.625" style="stroke:#A80036;stroke-width:1.0;" width="10" x="407.5" y="578.5313"/><rect fill="#FFFFFF" filter="url(#f1v8f6he7ggxrq)" height="211.4063" style="stroke:#A80036;stroke-width:1.0;" width="10" x="958.5" y="152.3125"/><rect fill="#FFFFFF" filter="url(#f1v8f6he7ggxrq)" height="198.2734" style="stroke:#A80036;stroke-width:1.0;" width="10" x="958.5" y="608.8828"/><rect fill="#FFFFFF" filter="url(#f1v8f6he7ggxrq)" height="60.3516" style="stroke:#A80036;stroke-width:1.0;" width="10" x="1144.5" y="182.6641"/><rect fill="#FFFFFF" filter="url(#f1v8f6he7ggxrq)" height="30" style="stroke:#A80036;stroke-width:1.0;" width="10" x="1243.5" y="213.0156"/><rect fill="#FFFFFF" filter="url(#f1v8f6he7ggxrq)" height="30" style="stroke:#A80036;stroke-width:1.0;" width="10" x="1609.5" y="273.3672"/><rect fill="#FFFFFF" filter="url(#f1v8f6he7ggxrq)" height="30" style="stroke:#A80036;stroke-width:1.0;" width="10" x="1776.5" y="333.7188"/><rect fill="#FFFFFF" filter="url(#f1v8f6he7ggxrq)" height="30" style="stroke:#A80036;stroke-width:1.0;" width="10" x="1948" y="746.8047"/><polygon fill="#A80036" points="395.5,117.9609,405.5,121.9609,395.5,125.9609,399.5,121.9609" style="stroke:#A80036;stroke-width:1.0;"/><line style="stroke:#A80036;stroke-width:1.0;" x1="47.5" x2="401.5" y1="121.9609" y2="121.9609"/><text fill="#000000" font-family="sans-serif" font-size="13" font-weight="bold" lengthAdjust="spacing" textLength="7" x="54.5" y="117.1045">1</text><text fill="#000000" font-family="sans-serif" font-size="13" lengthAdjust="spacing" textLength="148" x="65.5" y="117.1045">inicia registar candidatura</text><polygon fill="#A80036" points="946.5,148.3125,956.5,152.3125,946.5,156.3125,950.5,152.3125" style="stroke:#A80036;stroke-width:1.0;"/><line style="stroke:#A80036;stroke-width:1.0;" x1="417.5" x2="952.5" y1="152.3125" y2="152.3125"/><text fill="#000000" font-family="sans-serif" font-size="13" font-weight="bold" lengthAdjust="spacing" textLength="7" x="424.5" y="147.4561">2</text><text fill="#000000" font-family="sans-serif" font-size="13" lengthAdjust="spacing" textLength="223" x="435.5" y="147.4561">listaAnu = getAllAnunciosDisponiveis()</text><polygon fill="#A80036" points="1132.5,178.6641,1142.5,182.6641,1132.5,186.6641,1136.5,182.6641" style="stroke:#A80036;stroke-width:1.0;"/><line style="stroke:#A80036;stroke-width:1.0;" x1="968.5" x2="1138.5" y1="182.6641" y2="182.6641"/><text fill="#000000" font-family="sans-serif" font-size="13" font-weight="bold" lengthAdjust="spacing" textLength="7" x="975.5" y="177.8076">3</text><text fill="#000000" font-family="sans-serif" font-size="13" lengthAdjust="spacing" textLength="106" x="986.5" y="177.8076">email = getEmail()</text><polygon fill="#A80036" points="1231.5,209.0156,1241.5,213.0156,1231.5,217.0156,1235.5,213.0156" style="stroke:#A80036;stroke-width:1.0;"/><line style="stroke:#A80036;stroke-width:1.0;" x1="1154.5" x2="1237.5" y1="213.0156" y2="213.0156"/><text fill="#000000" font-family="sans-serif" font-size="13" font-weight="bold" lengthAdjust="spacing" textLength="7" x="1161.5" y="208.1592">4</text><text fill="#000000" font-family="sans-serif" font-size="13" lengthAdjust="spacing" textLength="59" x="1172.5" y="208.1592">getEmail()</text><polygon fill="#A80036" points="1597.5,269.3672,1607.5,273.3672,1597.5,277.3672,1601.5,273.3672" style="stroke:#A80036;stroke-width:1.0;"/><line style="stroke:#A80036;stroke-width:1.0;" x1="968.5" x2="1603.5" y1="273.3672" y2="273.3672"/><text fill="#000000" font-family="sans-serif" font-size="13" font-weight="bold" lengthAdjust="spacing" textLength="7" x="975.5" y="268.5107">5</text><text fill="#000000" font-family="sans-serif" font-size="13" lengthAdjust="spacing" textLength="96" x="986.5" y="268.5107">free = find(email)</text><polygon fill="#A80036" points="1764.5,329.7188,1774.5,333.7188,1764.5,337.7188,1768.5,333.7188" style="stroke:#A80036;stroke-width:1.0;"/><line style="stroke:#A80036;stroke-width:1.0;" x1="968.5" x2="1770.5" y1="333.7188" y2="333.7188"/><text fill="#000000" font-family="sans-serif" font-size="13" font-weight="bold" lengthAdjust="spacing" textLength="7" x="975.5" y="328.8623">6</text><text fill="#000000" font-family="sans-serif" font-size="13" lengthAdjust="spacing" textLength="215" x="986.5" y="328.8623">listaAnu=getAllAnunciosDisponiveis()</text><polygon fill="#A80036" points="58.5,390.0703,48.5,394.0703,58.5,398.0703,54.5,394.0703" style="stroke:#A80036;stroke-width:1.0;"/><line style="stroke:#A80036;stroke-width:1.0;stroke-dasharray:2.0,2.0;" x1="52.5" x2="411.5" y1="394.0703" y2="394.0703"/><text fill="#000000" font-family="sans-serif" font-size="13" font-weight="bold" lengthAdjust="spacing" textLength="7" x="64.5" y="389.2139">7</text><text fill="#000000" font-family="sans-serif" font-size="13" lengthAdjust="spacing" textLength="288" x="75.5" y="389.2139">seleccionar anuncio da lista de anuncios elegiveis</text><polygon fill="#A80036" points="395.5,420.4219,405.5,424.4219,395.5,428.4219,399.5,424.4219" style="stroke:#A80036;stroke-width:1.0;"/><line style="stroke:#A80036;stroke-width:1.0;" x1="47.5" x2="401.5" y1="424.4219" y2="424.4219"/><text fill="#000000" font-family="sans-serif" font-size="13" font-weight="bold" lengthAdjust="spacing" textLength="7" x="54.5" y="419.5654">8</text><text fill="#000000" font-family="sans-serif" font-size="13" lengthAdjust="spacing" textLength="211" x="65.5" y="419.5654">iniciar candidatura a anuncio elegivel</text><polygon fill="#A80036" points="58.5,467.125,48.5,471.125,58.5,475.125,54.5,471.125" style="stroke:#A80036;stroke-width:1.0;"/><line style="stroke:#A80036;stroke-width:1.0;stroke-dasharray:2.0,2.0;" x1="52.5" x2="411.5" y1="471.125" y2="471.125"/><text fill="#000000" font-family="sans-serif" font-size="13" font-weight="bold" lengthAdjust="spacing" textLength="7" x="64.5" y="458.0928">9</text><text fill="#000000" font-family="sans-serif" font-size="13" lengthAdjust="spacing" textLength="169" x="75.5" y="449.917">solicita dados da candidatura</text><text fill="#000000" font-family="sans-serif" font-size="13" lengthAdjust="spacing" textLength="325" x="75.5" y="466.2686">(valor,nrDias,txtApresentacaoentacao,txtMotivacaoacao)</text><polygon fill="#A80036" points="395.5,513.8281,405.5,517.8281,395.5,521.8281,399.5,517.8281" style="stroke:#A80036;stroke-width:1.0;"/><line style="stroke:#A80036;stroke-width:1.0;" x1="47.5" x2="401.5" y1="517.8281" y2="517.8281"/><text fill="#000000" font-family="sans-serif" font-size="13" font-weight="bold" lengthAdjust="spacing" textLength="14" x="54.5" y="504.7959">10</text><text fill="#000000" font-family="sans-serif" font-size="13" lengthAdjust="spacing" textLength="169" x="72.5" y="496.6201">introduz os dados solicitados</text><text fill="#000000" font-family="sans-serif" font-size="13" lengthAdjust="spacing" textLength="251" x="72.5" y="512.9717">(valor,nrDias,txtApresentacao,txtMotivacao)</text><polygon fill="#A80036" points="58.5,544.1797,48.5,548.1797,58.5,552.1797,54.5,548.1797" style="stroke:#A80036;stroke-width:1.0;"/><line style="stroke:#A80036;stroke-width:1.0;stroke-dasharray:2.0,2.0;" x1="52.5" x2="411.5" y1="548.1797" y2="548.1797"/><text fill="#000000" font-family="sans-serif" font-size="13" font-weight="bold" lengthAdjust="spacing" textLength="14" x="64.5" y="543.3232">11</text><text fill="#000000" font-family="sans-serif" font-size="13" lengthAdjust="spacing" textLength="315" x="82.5" y="543.3232">apresenta dados da candidatura e solicita confirmacao</text><polygon fill="#A80036" points="395.5,574.5313,405.5,578.5313,395.5,582.5313,399.5,578.5313" style="stroke:#A80036;stroke-width:1.0;"/><line style="stroke:#A80036;stroke-width:1.0;" x1="47.5" x2="401.5" y1="578.5313" y2="578.5313"/><text fill="#000000" font-family="sans-serif" font-size="13" font-weight="bold" lengthAdjust="spacing" textLength="14" x="54.5" y="573.6748">12</text><text fill="#000000" font-family="sans-serif" font-size="13" lengthAdjust="spacing" textLength="177" x="72.5" y="573.6748">confirma dados da candidatura</text><polygon fill="#A80036" points="946.5,604.8828,956.5,608.8828,946.5,612.8828,950.5,608.8828" style="stroke:#A80036;stroke-width:1.0;"/><line style="stroke:#A80036;stroke-width:1.0;" x1="417.5" x2="952.5" y1="608.8828" y2="608.8828"/><text fill="#000000" font-family="sans-serif" font-size="13" font-weight="bold" lengthAdjust="spacing" textLength="14" x="424.5" y="604.0264">13</text><text fill="#000000" font-family="sans-serif" font-size="13" lengthAdjust="spacing" textLength="504" x="442.5" y="604.0264">registarCandidatura(anun,free,dataCand,valor,nrDias,txtApresentacao,txtMotivacao,free)</text><line style="stroke:#A80036;stroke-width:1.0;" x1="968.5" x2="1010.5" y1="639.2344" y2="639.2344"/><line style="stroke:#A80036;stroke-width:1.0;" x1="1010.5" x2="1010.5" y1="639.2344" y2="652.2344"/><line style="stroke:#A80036;stroke-width:1.0;" x1="969.5" x2="1010.5" y1="652.2344" y2="652.2344"/><polygon fill="#A80036" points="979.5,648.2344,969.5,652.2344,979.5,656.2344,975.5,652.2344" style="stroke:#A80036;stroke-width:1.0;"/><text fill="#000000" font-family="sans-serif" font-size="13" font-weight="bold" lengthAdjust="spacing" textLength="14" x="975.5" y="634.3779">14</text><text fill="#000000" font-family="sans-serif" font-size="13" lengthAdjust="spacing" textLength="144" x="993.5" y="634.3779">isFreelancerElegivel(free)</text><polygon fill="#A80036" points="1413.5,678.5859,1423.5,682.5859,1413.5,686.5859,1417.5,682.5859" style="stroke:#A80036;stroke-width:1.0;"/><line style="stroke:#A80036;stroke-width:1.0;stroke-dasharray:2.0,2.0;" x1="968.5" x2="1419.5" y1="682.5859" y2="682.5859"/><text fill="#000000" font-family="sans-serif" font-size="13" font-weight="bold" lengthAdjust="spacing" textLength="14" x="975.5" y="677.7295">15</text><text fill="#000000" font-family="sans-serif" font-size="13" lengthAdjust="spacing" textLength="415" x="993.5" y="677.7295">cand = create(free,dataCand,valor,nrDias,txtApresentacao,txtMotivacao)</text><rect fill="#FEFECE" filter="url(#f1v8f6he7ggxrq)" height="49.2188" style="stroke:#A80036;stroke-width:1.5;" width="92" x="1425.5" y="660.2344"/><text fill="#000000" font-family="sans-serif" font-size="14" lengthAdjust="spacing" textLength="35" x="1454" y="681.7676">cand:</text><text fill="#000000" font-family="sans-serif" font-size="14" lengthAdjust="spacing" textLength="78" x="1432.5" y="699.377">Candidatura</text><polygon fill="#A80036" points="1936,742.8047,1946,746.8047,1936,750.8047,1940,746.8047" style="stroke:#A80036;stroke-width:1.0;"/><line style="stroke:#A80036;stroke-width:1.0;" x1="968.5" x2="1942" y1="746.8047" y2="746.8047"/><text fill="#000000" font-family="sans-serif" font-size="13" font-weight="bold" lengthAdjust="spacing" textLength="14" x="975.5" y="741.9482">16</text><text fill="#000000" font-family="sans-serif" font-size="13" lengthAdjust="spacing" textLength="62" x="993.5" y="741.9482">save(cand)</text><polygon fill="#A80036" points="58.5,803.1563,48.5,807.1563,58.5,811.1563,54.5,807.1563" style="stroke:#A80036;stroke-width:1.0;"/><line style="stroke:#A80036;stroke-width:1.0;stroke-dasharray:2.0,2.0;" x1="52.5" x2="411.5" y1="807.1563" y2="807.1563"/><text fill="#000000" font-family="sans-serif" font-size="13" font-weight="bold" lengthAdjust="spacing" textLength="14" x="64.5" y="802.2998">17</text><text fill="#000000" font-family="sans-serif" font-size="13" lengthAdjust="spacing" textLength="188" x="82.5" y="802.2998">informa do sucesso da operacao</text><!--MD5=[0abc7b23cf2ce705340e09f518d67b41]
@startuml
autonumber

actor "Freelancer" as FRL
participant ":RegistarCandidaturaUI" as UI
participant ":RegistarCandidaturaController" as CTRL
participant ":Plataforma" as PLAT
participant ": UsersAPI" as UAPI
participant "anu:\nAnuncio" as ANUN
participant "cand:\nCandidatura" as CAND
database RepositorioFreelancerDB as freeDB
database RepositorioAnuncioDB as anunDB
database RepositorioCandidaturaDB as candDB


activate FRL
FRL -> UI : inicia registar candidatura
activate UI

UI -> CTRL : listaAnu = getAllAnunciosDisponiveis()
activate CTRL

CTRL -> PLAT : email = getEmail()
activate PLAT
PLAT -> UAPI : getEmail()
activate UAPI
deactivate UAPI
deactivate PLAT
CTRL -> freeDB : free = find(email)
activate freeDB
deactivate freeDB

CTRL -> anunDB : listaAnu=getAllAnunciosDisponiveis()
activate anunDB
deactivate anunDB
deactivate CTRL

UI - -> FRL : seleccionar anuncio da lista de anuncios elegiveis
deactivate UI
FRL -> UI : iniciar candidatura a anuncio elegivel
activate UI
UI - -> FRL : solicita dados da candidatura \n(valor,nrDias,txtApresentacaoentacao,txtMotivacaoacao)
deactivate UI

FRL -> UI : introduz os dados solicitados \n(valor,nrDias,txtApresentacao,txtMotivacao)
activate UI

UI - -> FRL : apresenta dados da candidatura e solicita confirmacao
deactivate UI

FRL -> UI : confirma dados da candidatura
activate UI
UI -> CTRL : registarCandidatura(anun,free,dataCand,valor,nrDias,txtApresentacao,txtMotivacao,free)
activate CTRL
CTRL -> CTRL : isFreelancerElegivel(free)
CTRL - -> CAND**: cand = create(free,dataCand,valor,nrDias,txtApresentacao,txtMotivacao)
CTRL -> candDB : save(cand)
activate candDB
deactivate candDB
UI - -> FRL: informa do sucesso da operacao
deactivate CTRL
deactivate UI

@enduml

PlantUML version 1.2021.00(Sun Jan 10 10:25:05 WET 2021)
(GPL source distribution)
Java Runtime: Java(TM) SE Runtime Environment
JVM: Java HotSpot(TM) 64-Bit Server VM
Default Encoding: Cp1252
Language: pt
Country: PT
--></g></svg>