<?xml version="1.0" encoding="UTF-8" standalone="no"?><svg xmlns="http://www.w3.org/2000/svg" xmlns:xlink="http://www.w3.org/1999/xlink" contentScriptType="application/ecmascript" contentStyleType="text/css" height="608px" preserveAspectRatio="none" style="width:1933px;height:608px;" version="1.1" viewBox="0 0 1933 608" width="1933px" zoomAndPan="magnify"><defs><filter height="300%" id="f1ao83fi0lduxw" width="300%" x="-1" y="-1"><feGaussianBlur result="blurOut" stdDeviation="2.0"/><feColorMatrix in="blurOut" result="blurOut2" type="matrix" values="0 0 0 0 0 0 0 0 0 0 0 0 0 0 0 0 0 0 .4 0"/><feOffset dx="4.0" dy="4.0" in="blurOut2" result="blurOut3"/><feBlend in="SourceGraphic" in2="blurOut3" mode="normal"/></filter></defs><g><!--MD5=[ecaed46f78f8cfe1e9ce18477649be18]
class Plataforma--><rect codeLine="5" fill="#FEFECE" filter="url(#f1ao83fi0lduxw)" height="53.8359" id="Plataforma" style="stroke:#A80036;stroke-width:1.5;" width="103" x="7" y="229.3564"/><ellipse cx="26.95" cy="245.3564" fill="#ADD1B2" rx="11" ry="11" style="stroke:#A80036;stroke-width:1.0;"/><path d="M29.7156,241.2314 Q29.8719,241.0127 30.0594,240.9033 Q30.2469,240.7939 30.4656,240.7939 Q30.8406,240.7939 31.075,241.0596 Q31.3094,241.3096 31.3094,241.9189 L31.3094,243.3721 Q31.3094,243.9814 31.075,244.2471 Q30.8406,244.5127 30.4656,244.5127 Q30.1219,244.5127 29.9188,244.3096 Q29.7156,244.1221 29.6063,243.6064 Q29.5594,243.2471 29.3719,243.0596 Q29.0438,242.6846 28.4344,242.4658 Q27.825,242.2471 27.2,242.2471 Q26.4344,242.2471 25.7938,242.5752 Q25.1688,242.9033 24.6688,243.6533 Q24.1844,244.4033 24.1844,245.4346 L24.1844,246.5283 Q24.1844,247.7627 25.075,248.5908 Q25.9656,249.4033 27.5594,249.4033 Q28.4969,249.4033 29.1531,249.1533 Q29.5438,248.9971 29.9656,248.5596 Q30.2313,248.2939 30.3719,248.2158 Q30.5281,248.1377 30.7313,248.1377 Q31.0594,248.1377 31.3094,248.4033 Q31.575,248.6533 31.575,248.9971 Q31.575,249.3408 31.2313,249.7471 Q30.7313,250.3252 29.9344,250.6533 Q28.8563,251.1064 27.5594,251.1064 Q26.0438,251.1064 24.8406,250.4814 Q23.8563,249.9814 23.1688,248.9189 Q22.4813,247.8408 22.4813,246.5596 L22.4813,245.4033 Q22.4813,244.0752 23.0906,242.9346 Q23.7156,241.7783 24.8094,241.1689 Q25.9031,240.5439 27.1375,240.5439 Q27.8719,240.5439 28.5125,240.7158 Q29.1688,240.8721 29.7156,241.2314 Z " fill="#000000"/><text fill="#000000" font-family="sans-serif" font-size="12" lengthAdjust="spacing" textLength="60" x="42.05" y="250.2666">Plataforma</text><line style="stroke:#A80036;stroke-width:1.5;" x1="8" x2="109" y1="261.3564" y2="261.3564"/><text fill="#000000" font-family="sans-serif" font-size="11" lengthAdjust="spacing" textLength="91" x="13" y="276.7754">-String designacao</text><!--MD5=[a322db5a7ec64d2ff8f2d6cf1831dcec]
class CompetenciaTecnica--><rect codeLine="9" fill="#FEFECE" filter="url(#f1ao83fi0lduxw)" height="81.5078" id="CompetenciaTecnica" style="stroke:#A80036;stroke-width:1.5;" width="149" x="1341" y="316.3564"/><ellipse cx="1356" cy="332.3564" fill="#ADD1B2" rx="11" ry="11" style="stroke:#A80036;stroke-width:1.0;"/><path d="M1358.7656,328.2314 Q1358.9219,328.0127 1359.1094,327.9033 Q1359.2969,327.7939 1359.5156,327.7939 Q1359.8906,327.7939 1360.125,328.0596 Q1360.3594,328.3096 1360.3594,328.9189 L1360.3594,330.3721 Q1360.3594,330.9814 1360.125,331.2471 Q1359.8906,331.5127 1359.5156,331.5127 Q1359.1719,331.5127 1358.9688,331.3096 Q1358.7656,331.1221 1358.6563,330.6064 Q1358.6094,330.2471 1358.4219,330.0596 Q1358.0938,329.6846 1357.4844,329.4658 Q1356.875,329.2471 1356.25,329.2471 Q1355.4844,329.2471 1354.8438,329.5752 Q1354.2188,329.9033 1353.7188,330.6533 Q1353.2344,331.4033 1353.2344,332.4346 L1353.2344,333.5283 Q1353.2344,334.7627 1354.125,335.5908 Q1355.0156,336.4033 1356.6094,336.4033 Q1357.5469,336.4033 1358.2031,336.1533 Q1358.5938,335.9971 1359.0156,335.5596 Q1359.2813,335.2939 1359.4219,335.2158 Q1359.5781,335.1377 1359.7813,335.1377 Q1360.1094,335.1377 1360.3594,335.4033 Q1360.625,335.6533 1360.625,335.9971 Q1360.625,336.3408 1360.2813,336.7471 Q1359.7813,337.3252 1358.9844,337.6533 Q1357.9063,338.1064 1356.6094,338.1064 Q1355.0938,338.1064 1353.8906,337.4814 Q1352.9063,336.9814 1352.2188,335.9189 Q1351.5313,334.8408 1351.5313,333.5596 L1351.5313,332.4033 Q1351.5313,331.0752 1352.1406,329.9346 Q1352.7656,328.7783 1353.8594,328.1689 Q1354.9531,327.5439 1356.1875,327.5439 Q1356.9219,327.5439 1357.5625,327.7158 Q1358.2188,327.8721 1358.7656,328.2314 Z " fill="#000000"/><text fill="#000000" font-family="sans-serif" font-size="12" lengthAdjust="spacing" textLength="117" x="1370" y="337.2666">CompetenciaTecnica</text><line style="stroke:#A80036;stroke-width:1.5;" x1="1342" x2="1489" y1="348.3564" y2="348.3564"/><text fill="#000000" font-family="sans-serif" font-size="11" lengthAdjust="spacing" textLength="67" x="1347" y="363.7754">-String codigo</text><text fill="#000000" font-family="sans-serif" font-size="11" lengthAdjust="spacing" textLength="88" x="1347" y="377.6113">-String descBreve</text><text fill="#000000" font-family="sans-serif" font-size="11" lengthAdjust="spacing" textLength="107" x="1347" y="391.4473">-String descDetalhada</text><!--MD5=[0d4fe674cc1d46ec0fc990086e50801a]
class GrauProficiencia--><rect codeLine="15" fill="#FEFECE" filter="url(#f1ao83fi0lduxw)" height="67.6719" id="GrauProficiencia" style="stroke:#A80036;stroke-width:1.5;" width="123" x="1796" y="323.3564"/><ellipse cx="1811" cy="339.3564" fill="#ADD1B2" rx="11" ry="11" style="stroke:#A80036;stroke-width:1.0;"/><path d="M1813.7656,335.2314 Q1813.9219,335.0127 1814.1094,334.9033 Q1814.2969,334.7939 1814.5156,334.7939 Q1814.8906,334.7939 1815.125,335.0596 Q1815.3594,335.3096 1815.3594,335.9189 L1815.3594,337.3721 Q1815.3594,337.9814 1815.125,338.2471 Q1814.8906,338.5127 1814.5156,338.5127 Q1814.1719,338.5127 1813.9688,338.3096 Q1813.7656,338.1221 1813.6563,337.6064 Q1813.6094,337.2471 1813.4219,337.0596 Q1813.0938,336.6846 1812.4844,336.4658 Q1811.875,336.2471 1811.25,336.2471 Q1810.4844,336.2471 1809.8438,336.5752 Q1809.2188,336.9033 1808.7188,337.6533 Q1808.2344,338.4033 1808.2344,339.4346 L1808.2344,340.5283 Q1808.2344,341.7627 1809.125,342.5908 Q1810.0156,343.4033 1811.6094,343.4033 Q1812.5469,343.4033 1813.2031,343.1533 Q1813.5938,342.9971 1814.0156,342.5596 Q1814.2813,342.2939 1814.4219,342.2158 Q1814.5781,342.1377 1814.7813,342.1377 Q1815.1094,342.1377 1815.3594,342.4033 Q1815.625,342.6533 1815.625,342.9971 Q1815.625,343.3408 1815.2813,343.7471 Q1814.7813,344.3252 1813.9844,344.6533 Q1812.9063,345.1064 1811.6094,345.1064 Q1810.0938,345.1064 1808.8906,344.4814 Q1807.9063,343.9814 1807.2188,342.9189 Q1806.5313,341.8408 1806.5313,340.5596 L1806.5313,339.4033 Q1806.5313,338.0752 1807.1406,336.9346 Q1807.7656,335.7783 1808.8594,335.1689 Q1809.9531,334.5439 1811.1875,334.5439 Q1811.9219,334.5439 1812.5625,334.7158 Q1813.2188,334.8721 1813.7656,335.2314 Z " fill="#000000"/><text fill="#000000" font-family="sans-serif" font-size="12" lengthAdjust="spacing" textLength="91" x="1825" y="344.2666">GrauProficiencia</text><line style="stroke:#A80036;stroke-width:1.5;" x1="1797" x2="1918" y1="355.3564" y2="355.3564"/><text fill="#000000" font-family="sans-serif" font-size="11" lengthAdjust="spacing" textLength="64" x="1802" y="370.7754">-Integer valor</text><text fill="#000000" font-family="sans-serif" font-size="11" lengthAdjust="spacing" textLength="91" x="1802" y="384.6113">-String designacao</text><!--MD5=[7e1ce8ab2bf669717f28e918f4971b9a]
class Categoria--><rect codeLine="20" fill="#FEFECE" filter="url(#f1ao83fi0lduxw)" height="67.6719" id="Categoria" style="stroke:#A80036;stroke-width:1.5;" width="95" x="793" y="63.3564"/><ellipse cx="812.05" cy="79.3564" fill="#ADD1B2" rx="11" ry="11" style="stroke:#A80036;stroke-width:1.0;"/><path d="M814.8156,75.2314 Q814.9719,75.0127 815.1594,74.9033 Q815.3469,74.7939 815.5656,74.7939 Q815.9406,74.7939 816.175,75.0596 Q816.4094,75.3096 816.4094,75.9189 L816.4094,77.3721 Q816.4094,77.9814 816.175,78.2471 Q815.9406,78.5127 815.5656,78.5127 Q815.2219,78.5127 815.0188,78.3096 Q814.8156,78.1221 814.7063,77.6064 Q814.6594,77.2471 814.4719,77.0596 Q814.1438,76.6846 813.5344,76.4658 Q812.925,76.2471 812.3,76.2471 Q811.5344,76.2471 810.8938,76.5752 Q810.2688,76.9033 809.7688,77.6533 Q809.2844,78.4033 809.2844,79.4346 L809.2844,80.5283 Q809.2844,81.7627 810.175,82.5908 Q811.0656,83.4033 812.6594,83.4033 Q813.5969,83.4033 814.2531,83.1533 Q814.6438,82.9971 815.0656,82.5596 Q815.3313,82.2939 815.4719,82.2158 Q815.6281,82.1377 815.8313,82.1377 Q816.1594,82.1377 816.4094,82.4033 Q816.675,82.6533 816.675,82.9971 Q816.675,83.3408 816.3313,83.7471 Q815.8313,84.3252 815.0344,84.6533 Q813.9563,85.1064 812.6594,85.1064 Q811.1438,85.1064 809.9406,84.4814 Q808.9563,83.9814 808.2688,82.9189 Q807.5813,81.8408 807.5813,80.5596 L807.5813,79.4033 Q807.5813,78.0752 808.1906,76.9346 Q808.8156,75.7783 809.9094,75.1689 Q811.0031,74.5439 812.2375,74.5439 Q812.9719,74.5439 813.6125,74.7158 Q814.2688,74.8721 814.8156,75.2314 Z " fill="#000000"/><text fill="#000000" font-family="sans-serif" font-size="12" lengthAdjust="spacing" textLength="54" x="826.95" y="84.2666">Categoria</text><line style="stroke:#A80036;stroke-width:1.5;" x1="794" x2="887" y1="95.3564" y2="95.3564"/><text fill="#000000" font-family="sans-serif" font-size="11" lengthAdjust="spacing" textLength="43" x="799" y="110.7754">-String id</text><text fill="#000000" font-family="sans-serif" font-size="11" lengthAdjust="spacing" textLength="83" x="799" y="124.6113">-String descricao</text><!--MD5=[b0f240be72c8ea8a063442502d85fc08]
class CaraterCT--><rect codeLine="25" fill="#FEFECE" filter="url(#f1ao83fi0lduxw)" height="53.8359" id="CaraterCT" style="stroke:#A80036;stroke-width:1.5;" width="109" x="1202" y="236.3564"/><ellipse cx="1226" cy="252.3564" fill="#ADD1B2" rx="11" ry="11" style="stroke:#A80036;stroke-width:1.0;"/><path d="M1228.7656,248.2314 Q1228.9219,248.0127 1229.1094,247.9033 Q1229.2969,247.7939 1229.5156,247.7939 Q1229.8906,247.7939 1230.125,248.0596 Q1230.3594,248.3096 1230.3594,248.9189 L1230.3594,250.3721 Q1230.3594,250.9814 1230.125,251.2471 Q1229.8906,251.5127 1229.5156,251.5127 Q1229.1719,251.5127 1228.9688,251.3096 Q1228.7656,251.1221 1228.6563,250.6064 Q1228.6094,250.2471 1228.4219,250.0596 Q1228.0938,249.6846 1227.4844,249.4658 Q1226.875,249.2471 1226.25,249.2471 Q1225.4844,249.2471 1224.8438,249.5752 Q1224.2188,249.9033 1223.7188,250.6533 Q1223.2344,251.4033 1223.2344,252.4346 L1223.2344,253.5283 Q1223.2344,254.7627 1224.125,255.5908 Q1225.0156,256.4033 1226.6094,256.4033 Q1227.5469,256.4033 1228.2031,256.1533 Q1228.5938,255.9971 1229.0156,255.5596 Q1229.2813,255.2939 1229.4219,255.2158 Q1229.5781,255.1377 1229.7813,255.1377 Q1230.1094,255.1377 1230.3594,255.4033 Q1230.625,255.6533 1230.625,255.9971 Q1230.625,256.3408 1230.2813,256.7471 Q1229.7813,257.3252 1228.9844,257.6533 Q1227.9063,258.1064 1226.6094,258.1064 Q1225.0938,258.1064 1223.8906,257.4814 Q1222.9063,256.9814 1222.2188,255.9189 Q1221.5313,254.8408 1221.5313,253.5596 L1221.5313,252.4033 Q1221.5313,251.0752 1222.1406,249.9346 Q1222.7656,248.7783 1223.8594,248.1689 Q1224.9531,247.5439 1226.1875,247.5439 Q1226.9219,247.5439 1227.5625,247.7158 Q1228.2188,247.8721 1228.7656,248.2314 Z " fill="#000000"/><text fill="#000000" font-family="sans-serif" font-size="12" lengthAdjust="spacing" textLength="57" x="1242" y="257.2666">CaraterCT</text><line style="stroke:#A80036;stroke-width:1.5;" x1="1203" x2="1310" y1="268.3564" y2="268.3564"/><text fill="#000000" font-family="sans-serif" font-size="11" lengthAdjust="spacing" textLength="97" x="1208" y="283.7754">-Boolean obrigatoria</text><!--MD5=[27c2d4bbe9f7b9d3b0ea2797cc54308a]
class Tarefa--><rect codeLine="29" fill="#FEFECE" filter="url(#f1ao83fi0lduxw)" height="123.0156" id="Tarefa" style="stroke:#A80036;stroke-width:1.5;" width="109" x="506.5" y="35.8564"/><ellipse cx="540.4" cy="51.8564" fill="#ADD1B2" rx="11" ry="11" style="stroke:#A80036;stroke-width:1.0;"/><path d="M543.1656,47.7314 Q543.3219,47.5127 543.5094,47.4033 Q543.6969,47.2939 543.9156,47.2939 Q544.2906,47.2939 544.525,47.5596 Q544.7594,47.8096 544.7594,48.4189 L544.7594,49.8721 Q544.7594,50.4814 544.525,50.7471 Q544.2906,51.0127 543.9156,51.0127 Q543.5719,51.0127 543.3688,50.8096 Q543.1656,50.6221 543.0563,50.1064 Q543.0094,49.7471 542.8219,49.5596 Q542.4938,49.1846 541.8844,48.9658 Q541.275,48.7471 540.65,48.7471 Q539.8844,48.7471 539.2438,49.0752 Q538.6188,49.4033 538.1188,50.1533 Q537.6344,50.9033 537.6344,51.9346 L537.6344,53.0283 Q537.6344,54.2627 538.525,55.0908 Q539.4156,55.9033 541.0094,55.9033 Q541.9469,55.9033 542.6031,55.6533 Q542.9938,55.4971 543.4156,55.0596 Q543.6813,54.7939 543.8219,54.7158 Q543.9781,54.6377 544.1813,54.6377 Q544.5094,54.6377 544.7594,54.9033 Q545.025,55.1533 545.025,55.4971 Q545.025,55.8408 544.6813,56.2471 Q544.1813,56.8252 543.3844,57.1533 Q542.3063,57.6064 541.0094,57.6064 Q539.4938,57.6064 538.2906,56.9814 Q537.3063,56.4814 536.6188,55.4189 Q535.9313,54.3408 535.9313,53.0596 L535.9313,51.9033 Q535.9313,50.5752 536.5406,49.4346 Q537.1656,48.2783 538.2594,47.6689 Q539.3531,47.0439 540.5875,47.0439 Q541.3219,47.0439 541.9625,47.2158 Q542.6188,47.3721 543.1656,47.7314 Z " fill="#000000"/><text fill="#000000" font-family="sans-serif" font-size="12" lengthAdjust="spacing" textLength="35" x="558.6" y="56.7666">Tarefa</text><line style="stroke:#A80036;stroke-width:1.5;" x1="507.5" x2="614.5" y1="67.8564" y2="67.8564"/><text fill="#000000" font-family="sans-serif" font-size="11" lengthAdjust="spacing" textLength="85" x="512.5" y="83.2754">-String referencia</text><text fill="#000000" font-family="sans-serif" font-size="11" lengthAdjust="spacing" textLength="91" x="512.5" y="97.1113">-String designacao</text><text fill="#000000" font-family="sans-serif" font-size="11" lengthAdjust="spacing" textLength="97" x="512.5" y="110.9473">-String descInformal</text><text fill="#000000" font-family="sans-serif" font-size="11" lengthAdjust="spacing" textLength="97" x="512.5" y="124.7832">-String descTecnica</text><text fill="#000000" font-family="sans-serif" font-size="11" lengthAdjust="spacing" textLength="95" x="512.5" y="138.6191">-Integer duracaoEst</text><text fill="#000000" font-family="sans-serif" font-size="11" lengthAdjust="spacing" textLength="82" x="512.5" y="152.4551">-Double custoEst</text><!--MD5=[1f687b5315377fe49fca59b457947463]
class Freelancer--><rect codeLine="38" fill="#FEFECE" filter="url(#f1ao83fi0lduxw)" height="95.3438" id="Freelancer" style="stroke:#A80036;stroke-width:1.5;" width="91" x="795" y="417.8564"/><ellipse cx="810" cy="433.8564" fill="#ADD1B2" rx="11" ry="11" style="stroke:#A80036;stroke-width:1.0;"/><path d="M812.7656,429.7314 Q812.9219,429.5127 813.1094,429.4033 Q813.2969,429.2939 813.5156,429.2939 Q813.8906,429.2939 814.125,429.5596 Q814.3594,429.8096 814.3594,430.4189 L814.3594,431.8721 Q814.3594,432.4814 814.125,432.7471 Q813.8906,433.0127 813.5156,433.0127 Q813.1719,433.0127 812.9688,432.8096 Q812.7656,432.6221 812.6563,432.1064 Q812.6094,431.7471 812.4219,431.5596 Q812.0938,431.1846 811.4844,430.9658 Q810.875,430.7471 810.25,430.7471 Q809.4844,430.7471 808.8438,431.0752 Q808.2188,431.4033 807.7188,432.1533 Q807.2344,432.9033 807.2344,433.9346 L807.2344,435.0283 Q807.2344,436.2627 808.125,437.0908 Q809.0156,437.9033 810.6094,437.9033 Q811.5469,437.9033 812.2031,437.6533 Q812.5938,437.4971 813.0156,437.0596 Q813.2813,436.7939 813.4219,436.7158 Q813.5781,436.6377 813.7813,436.6377 Q814.1094,436.6377 814.3594,436.9033 Q814.625,437.1533 814.625,437.4971 Q814.625,437.8408 814.2813,438.2471 Q813.7813,438.8252 812.9844,439.1533 Q811.9063,439.6064 810.6094,439.6064 Q809.0938,439.6064 807.8906,438.9814 Q806.9063,438.4814 806.2188,437.4189 Q805.5313,436.3408 805.5313,435.0596 L805.5313,433.9033 Q805.5313,432.5752 806.1406,431.4346 Q806.7656,430.2783 807.8594,429.6689 Q808.9531,429.0439 810.1875,429.0439 Q810.9219,429.0439 811.5625,429.2158 Q812.2188,429.3721 812.7656,429.7314 Z " fill="#000000"/><text fill="#000000" font-family="sans-serif" font-size="12" lengthAdjust="spacing" textLength="59" x="824" y="438.7666">Freelancer</text><line style="stroke:#A80036;stroke-width:1.5;" x1="796" x2="885" y1="449.8564" y2="449.8564"/><text fill="#000000" font-family="sans-serif" font-size="11" lengthAdjust="spacing" textLength="61" x="801" y="465.2754">-String nome</text><text fill="#000000" font-family="sans-serif" font-size="11" lengthAdjust="spacing" textLength="50" x="801" y="479.1113">-String NIF</text><text fill="#000000" font-family="sans-serif" font-size="11" lengthAdjust="spacing" textLength="74" x="801" y="492.9473">-String telefone</text><text fill="#000000" font-family="sans-serif" font-size="11" lengthAdjust="spacing" textLength="59" x="801" y="506.7832">-String email</text><!--MD5=[df9f144f4e207f6ab4cd6fad6014a9df]
class ReconhecimentoCT--><rect codeLine="45" fill="#FEFECE" filter="url(#f1ao83fi0lduxw)" height="53.8359" id="ReconhecimentoCT" style="stroke:#A80036;stroke-width:1.5;" width="142" x="1023.5" y="540.3564"/><ellipse cx="1038.5" cy="556.3564" fill="#ADD1B2" rx="11" ry="11" style="stroke:#A80036;stroke-width:1.0;"/><path d="M1041.2656,552.2314 Q1041.4219,552.0127 1041.6094,551.9033 Q1041.7969,551.7939 1042.0156,551.7939 Q1042.3906,551.7939 1042.625,552.0596 Q1042.8594,552.3096 1042.8594,552.9189 L1042.8594,554.3721 Q1042.8594,554.9814 1042.625,555.2471 Q1042.3906,555.5127 1042.0156,555.5127 Q1041.6719,555.5127 1041.4688,555.3096 Q1041.2656,555.1221 1041.1563,554.6064 Q1041.1094,554.2471 1040.9219,554.0596 Q1040.5938,553.6846 1039.9844,553.4658 Q1039.375,553.2471 1038.75,553.2471 Q1037.9844,553.2471 1037.3438,553.5752 Q1036.7188,553.9033 1036.2188,554.6533 Q1035.7344,555.4033 1035.7344,556.4346 L1035.7344,557.5283 Q1035.7344,558.7627 1036.625,559.5908 Q1037.5156,560.4033 1039.1094,560.4033 Q1040.0469,560.4033 1040.7031,560.1533 Q1041.0938,559.9971 1041.5156,559.5596 Q1041.7813,559.2939 1041.9219,559.2158 Q1042.0781,559.1377 1042.2813,559.1377 Q1042.6094,559.1377 1042.8594,559.4033 Q1043.125,559.6533 1043.125,559.9971 Q1043.125,560.3408 1042.7813,560.7471 Q1042.2813,561.3252 1041.4844,561.6533 Q1040.4063,562.1064 1039.1094,562.1064 Q1037.5938,562.1064 1036.3906,561.4814 Q1035.4063,560.9814 1034.7188,559.9189 Q1034.0313,558.8408 1034.0313,557.5596 L1034.0313,556.4033 Q1034.0313,555.0752 1034.6406,553.9346 Q1035.2656,552.7783 1036.3594,552.1689 Q1037.4531,551.5439 1038.6875,551.5439 Q1039.4219,551.5439 1040.0625,551.7158 Q1040.7188,551.8721 1041.2656,552.2314 Z " fill="#000000"/><text fill="#000000" font-family="sans-serif" font-size="12" lengthAdjust="spacing" textLength="110" x="1052.5" y="561.2666">ReconhecimentoCT</text><line style="stroke:#A80036;stroke-width:1.5;" x1="1024.5" x2="1164.5" y1="572.3564" y2="572.3564"/><text fill="#000000" font-family="sans-serif" font-size="11" lengthAdjust="spacing" textLength="130" x="1029.5" y="587.7754">-Date dataReconhecimento</text><!--MD5=[87602f047bdeda361e6d6669da197818]
class HabilitacaoAcademica--><rect codeLine="49" fill="#FEFECE" filter="url(#f1ao83fi0lduxw)" height="95.3438" id="HabilitacaoAcademica" style="stroke:#A80036;stroke-width:1.5;" width="155" x="1017" y="409.8564"/><ellipse cx="1032" cy="425.8564" fill="#ADD1B2" rx="11" ry="11" style="stroke:#A80036;stroke-width:1.0;"/><path d="M1034.7656,421.7314 Q1034.9219,421.5127 1035.1094,421.4033 Q1035.2969,421.2939 1035.5156,421.2939 Q1035.8906,421.2939 1036.125,421.5596 Q1036.3594,421.8096 1036.3594,422.4189 L1036.3594,423.8721 Q1036.3594,424.4814 1036.125,424.7471 Q1035.8906,425.0127 1035.5156,425.0127 Q1035.1719,425.0127 1034.9688,424.8096 Q1034.7656,424.6221 1034.6563,424.1064 Q1034.6094,423.7471 1034.4219,423.5596 Q1034.0938,423.1846 1033.4844,422.9658 Q1032.875,422.7471 1032.25,422.7471 Q1031.4844,422.7471 1030.8438,423.0752 Q1030.2188,423.4033 1029.7188,424.1533 Q1029.2344,424.9033 1029.2344,425.9346 L1029.2344,427.0283 Q1029.2344,428.2627 1030.125,429.0908 Q1031.0156,429.9033 1032.6094,429.9033 Q1033.5469,429.9033 1034.2031,429.6533 Q1034.5938,429.4971 1035.0156,429.0596 Q1035.2813,428.7939 1035.4219,428.7158 Q1035.5781,428.6377 1035.7813,428.6377 Q1036.1094,428.6377 1036.3594,428.9033 Q1036.625,429.1533 1036.625,429.4971 Q1036.625,429.8408 1036.2813,430.2471 Q1035.7813,430.8252 1034.9844,431.1533 Q1033.9063,431.6064 1032.6094,431.6064 Q1031.0938,431.6064 1029.8906,430.9814 Q1028.9063,430.4814 1028.2188,429.4189 Q1027.5313,428.3408 1027.5313,427.0596 L1027.5313,425.9033 Q1027.5313,424.5752 1028.1406,423.4346 Q1028.7656,422.2783 1029.8594,421.6689 Q1030.9531,421.0439 1032.1875,421.0439 Q1032.9219,421.0439 1033.5625,421.2158 Q1034.2188,421.3721 1034.7656,421.7314 Z " fill="#000000"/><text fill="#000000" font-family="sans-serif" font-size="12" lengthAdjust="spacing" textLength="123" x="1046" y="430.7666">HabilitacaoAcademica</text><line style="stroke:#A80036;stroke-width:1.5;" x1="1018" x2="1171" y1="441.8564" y2="441.8564"/><text fill="#000000" font-family="sans-serif" font-size="11" lengthAdjust="spacing" textLength="57" x="1023" y="457.2754">-String grau</text><text fill="#000000" font-family="sans-serif" font-size="11" lengthAdjust="spacing" textLength="120" x="1023" y="471.1113">-String designacaoCurso</text><text fill="#000000" font-family="sans-serif" font-size="11" lengthAdjust="spacing" textLength="109" x="1023" y="484.9473">-String nomeInstituicao</text><text fill="#000000" font-family="sans-serif" font-size="11" lengthAdjust="spacing" textLength="97" x="1023" y="498.7832">-Double mediaCurso</text><!--MD5=[19db0db7353a4bf63eefc676e5ba9b80]
class Anuncio--><rect codeLine="56" fill="#FEFECE" filter="url(#f1ao83fi0lduxw)" height="123.0156" id="Anuncio" style="stroke:#A80036;stroke-width:1.5;" width="132" x="233" y="131.8564"/><ellipse cx="273.2" cy="147.8564" fill="#ADD1B2" rx="11" ry="11" style="stroke:#A80036;stroke-width:1.0;"/><path d="M275.9656,143.7314 Q276.1219,143.5127 276.3094,143.4033 Q276.4969,143.2939 276.7156,143.2939 Q277.0906,143.2939 277.325,143.5596 Q277.5594,143.8096 277.5594,144.4189 L277.5594,145.8721 Q277.5594,146.4814 277.325,146.7471 Q277.0906,147.0127 276.7156,147.0127 Q276.3719,147.0127 276.1688,146.8096 Q275.9656,146.6221 275.8563,146.1064 Q275.8094,145.7471 275.6219,145.5596 Q275.2938,145.1846 274.6844,144.9658 Q274.075,144.7471 273.45,144.7471 Q272.6844,144.7471 272.0438,145.0752 Q271.4188,145.4033 270.9188,146.1533 Q270.4344,146.9033 270.4344,147.9346 L270.4344,149.0283 Q270.4344,150.2627 271.325,151.0908 Q272.2156,151.9033 273.8094,151.9033 Q274.7469,151.9033 275.4031,151.6533 Q275.7938,151.4971 276.2156,151.0596 Q276.4813,150.7939 276.6219,150.7158 Q276.7781,150.6377 276.9813,150.6377 Q277.3094,150.6377 277.5594,150.9033 Q277.825,151.1533 277.825,151.4971 Q277.825,151.8408 277.4813,152.2471 Q276.9813,152.8252 276.1844,153.1533 Q275.1063,153.6064 273.8094,153.6064 Q272.2938,153.6064 271.0906,152.9814 Q270.1063,152.4814 269.4188,151.4189 Q268.7313,150.3408 268.7313,149.0596 L268.7313,147.9033 Q268.7313,146.5752 269.3406,145.4346 Q269.9656,144.2783 271.0594,143.6689 Q272.1531,143.0439 273.3875,143.0439 Q274.1219,143.0439 274.7625,143.2158 Q275.4188,143.3721 275.9656,143.7314 Z " fill="#000000"/><text fill="#000000" font-family="sans-serif" font-size="12" lengthAdjust="spacing" textLength="44" x="292.8" y="152.7666">Anuncio</text><line style="stroke:#A80036;stroke-width:1.5;" x1="234" x2="364" y1="163.8564" y2="163.8564"/><text fill="#000000" font-family="sans-serif" font-size="11" lengthAdjust="spacing" textLength="119" x="239" y="179.2754">-Date dtInicioPublicitacao</text><text fill="#000000" font-family="sans-serif" font-size="11" lengthAdjust="spacing" textLength="111" x="239" y="193.1113">-Date dtFimPublicitacao</text><text fill="#000000" font-family="sans-serif" font-size="11" lengthAdjust="spacing" textLength="120" x="239" y="206.9473">-Date dtInicioCandidatura</text><text fill="#000000" font-family="sans-serif" font-size="11" lengthAdjust="spacing" textLength="112" x="239" y="220.7832">-Date dtFimCandidatura</text><text fill="#000000" font-family="sans-serif" font-size="11" lengthAdjust="spacing" textLength="105" x="239" y="234.6191">-Date dtInicioSeriacao</text><text fill="#000000" font-family="sans-serif" font-size="11" lengthAdjust="spacing" textLength="97" x="239" y="248.4551">-Date dtFimSeriacao</text><!--MD5=[475c5b924ed41035684e2831311827d2]
class Candidatura--><rect codeLine="66" fill="#FEFECE" filter="url(#f1ao83fi0lduxw)" height="109.1797" id="Candidatura" style="stroke:#A80036;stroke-width:1.5;" width="128" x="497" y="193.8564"/><ellipse cx="524.6" cy="209.8564" fill="#ADD1B2" rx="11" ry="11" style="stroke:#A80036;stroke-width:1.0;"/><path d="M527.3656,205.7314 Q527.5219,205.5127 527.7094,205.4033 Q527.8969,205.2939 528.1156,205.2939 Q528.4906,205.2939 528.725,205.5596 Q528.9594,205.8096 528.9594,206.4189 L528.9594,207.8721 Q528.9594,208.4814 528.725,208.7471 Q528.4906,209.0127 528.1156,209.0127 Q527.7719,209.0127 527.5688,208.8096 Q527.3656,208.6221 527.2563,208.1064 Q527.2094,207.7471 527.0219,207.5596 Q526.6938,207.1846 526.0844,206.9658 Q525.475,206.7471 524.85,206.7471 Q524.0844,206.7471 523.4438,207.0752 Q522.8188,207.4033 522.3188,208.1533 Q521.8344,208.9033 521.8344,209.9346 L521.8344,211.0283 Q521.8344,212.2627 522.725,213.0908 Q523.6156,213.9033 525.2094,213.9033 Q526.1469,213.9033 526.8031,213.6533 Q527.1938,213.4971 527.6156,213.0596 Q527.8813,212.7939 528.0219,212.7158 Q528.1781,212.6377 528.3813,212.6377 Q528.7094,212.6377 528.9594,212.9033 Q529.225,213.1533 529.225,213.4971 Q529.225,213.8408 528.8813,214.2471 Q528.3813,214.8252 527.5844,215.1533 Q526.5063,215.6064 525.2094,215.6064 Q523.6938,215.6064 522.4906,214.9814 Q521.5063,214.4814 520.8188,213.4189 Q520.1313,212.3408 520.1313,211.0596 L520.1313,209.9033 Q520.1313,208.5752 520.7406,207.4346 Q521.3656,206.2783 522.4594,205.6689 Q523.5531,205.0439 524.7875,205.0439 Q525.5219,205.0439 526.1625,205.2158 Q526.8188,205.3721 527.3656,205.7314 Z " fill="#000000"/><text fill="#000000" font-family="sans-serif" font-size="12" lengthAdjust="spacing" textLength="68" x="541.4" y="214.7666">Candidatura</text><line style="stroke:#A80036;stroke-width:1.5;" x1="498" x2="624" y1="225.8564" y2="225.8564"/><text fill="#000000" font-family="sans-serif" font-size="11" lengthAdjust="spacing" textLength="108" x="503" y="241.2754">-Date dataCandidatura</text><text fill="#000000" font-family="sans-serif" font-size="11" lengthAdjust="spacing" textLength="115" x="503" y="255.1113">-Double valorPretendido</text><text fill="#000000" font-family="sans-serif" font-size="11" lengthAdjust="spacing" textLength="71" x="503" y="268.9473">-Integer nrDias</text><text fill="#000000" font-family="sans-serif" font-size="11" lengthAdjust="spacing" textLength="116" x="503" y="282.7832">-String txtApresentacao</text><text fill="#000000" font-family="sans-serif" font-size="11" lengthAdjust="spacing" textLength="96" x="503" y="296.6191">-String txtMotivacao</text><ellipse cx="1094.5" cy="263.3564" fill="#000000" rx="2" ry="2" style="stroke:none;stroke-width:1.0;"/><!--MD5=[a77d152358ce76c19672aacd9fb0ada1]
link Plataforma to CompetenciaTecnica--><path codeLine="75" d="M97.53,283.4164 C142.96,313.0364 222.35,356.3564 298,356.3564 C298,356.3564 298,356.3564 1095.5,356.3564 C1179.54,356.3564 1276.04,356.7064 1340.69,356.9964 " fill="none" id="Plataforma-CompetenciaTecnica" style="stroke:#A80036;stroke-width:1.0;"/><polygon fill="#000000" points="692.4913,347.8276,683.6356,344.3594,683.2883,350.227,692.4913,347.8276" style="stroke:#000000;stroke-width:1.0;"/><text fill="#000000" font-family="sans-serif" font-size="13" lengthAdjust="spacing" textLength="38" x="696.5" y="352.8516">possui</text><text fill="#000000" font-family="sans-serif" font-size="13" lengthAdjust="spacing" textLength="7" x="98.3022" y="304.6373">1</text><text fill="#000000" font-family="sans-serif" font-size="13" lengthAdjust="spacing" textLength="5" x="1328.0798" y="371.2852">*</text><!--MD5=[cb8556493ec2c94f9603162dd119feba]
link Plataforma to Categoria--><path codeLine="76" d="M86.47,229.2964 C118.87,198.0464 176,146.7964 233,114.3564 C341.51,52.6064 374.04,40.0164 497,18.3564 C553.03,8.4864 568.99,8.3664 625,18.3564 C684.97,29.0464 750.14,55.3264 792.72,74.6464 " fill="none" id="Plataforma-Categoria" style="stroke:#A80036;stroke-width:1.0;"/><polygon fill="#000000" points="414.3843,14.4627,404.9199,13.5266,406.1772,19.2684,414.3843,14.4627" style="stroke:#000000;stroke-width:1.0;"/><text fill="#000000" font-family="sans-serif" font-size="13" lengthAdjust="spacing" textLength="38" x="418.5" y="20.8516">possui</text><text fill="#000000" font-family="sans-serif" font-size="13" lengthAdjust="spacing" textLength="7" x="85.4346" y="218.3085">1</text><text fill="#000000" font-family="sans-serif" font-size="13" lengthAdjust="spacing" textLength="5" x="780.0209" y="85.9411">*</text><!--MD5=[3d9e8e0d764359bffb897b36dc4b633a]
link Plataforma to Anuncio--><path codeLine="77" d="M110.08,242.9964 C145.9,233.5364 194.27,220.7564 232.97,210.5364 " fill="none" id="Plataforma-Anuncio" style="stroke:#A80036;stroke-width:1.0;"/><polygon fill="#000000" points="149.8342,209.2553,140.3385,208.7238,141.8396,214.4067,149.8342,209.2553" style="stroke:#000000;stroke-width:1.0;"/><text fill="#000000" font-family="sans-serif" font-size="13" lengthAdjust="spacing" textLength="48" x="154" y="215.8516">publicita</text><text fill="#000000" font-family="sans-serif" font-size="13" lengthAdjust="spacing" textLength="7" x="118.1699" y="255.7422">1</text><text fill="#000000" font-family="sans-serif" font-size="13" lengthAdjust="spacing" textLength="5" x="220.0462" y="226.9624">*</text><!--MD5=[39c0de7668d8063a4eb96c23050b3de2]
link Plataforma to Freelancer--><path codeLine="78" d="M68.87,283.5464 C80.59,313.1064 103.65,359.2164 140,382.3564 C352.79,517.7864 676.75,488.8664 794.62,472.5164 " fill="none" id="Plataforma-Freelancer" style="stroke:#A80036;stroke-width:1.0;"/><polygon fill="#000000" points="409.8387,464.7921,401.826,459.6689,400.3449,465.3571,409.8387,464.7921" style="stroke:#000000;stroke-width:1.0;"/><text fill="#000000" font-family="sans-serif" font-size="13" lengthAdjust="spacing" textLength="47" x="414" y="468.8516">tem/usa</text><text fill="#000000" font-family="sans-serif" font-size="13" lengthAdjust="spacing" textLength="7" x="63.3728" y="304.7958">1</text><text fill="#000000" font-family="sans-serif" font-size="13" lengthAdjust="spacing" textLength="5" x="781.9094" y="488.4283">*</text><!--MD5=[0d731ff285a62a08178b23be6cceb109]
link CompetenciaTecnica to GrauProficiencia--><path codeLine="80" d="M1490.15,357.3564 C1575.89,357.3564 1715.93,357.3564 1795.74,357.3564 " fill="none" id="CompetenciaTecnica-GrauProficiencia" style="stroke:#A80036;stroke-width:1.0;"/><polygon fill="#000000" points="1696,348.5322,1686.9549,345.5933,1686.9549,351.4712,1696,348.5322" style="stroke:#000000;stroke-width:1.0;"/><text fill="#000000" font-family="sans-serif" font-size="13" lengthAdjust="spacing" textLength="34" x="1700" y="353.8516">aplica</text><text fill="#000000" font-family="sans-serif" font-size="13" lengthAdjust="spacing" textLength="7" x="1498.2092" y="371.7201">1</text><text fill="#000000" font-family="sans-serif" font-size="13" lengthAdjust="spacing" textLength="5" x="1782.9083" y="371.868">*</text><!--MD5=[c34c71f0bf91b7cb011206ecb673d23e]
link Categoria to apoint19--><path d="M888.01,127.9964 C956.28,172.9664 1077.15,252.5864 1091.99,262.3664 " fill="none" id="Categoria-apoint19" style="stroke:#A80036;stroke-width:1.0;"/><polygon fill="#000000" points="936.1755,145.2828,930.2387,137.8527,927.0052,142.7613,936.1755,145.2828" style="stroke:#000000;stroke-width:1.0;"/><text fill="#000000" font-family="sans-serif" font-size="13" lengthAdjust="spacing" textLength="36" x="941" y="147.8516">requer</text><text fill="#000000" font-family="sans-serif" font-size="13" lengthAdjust="spacing" textLength="5" x="895.9803" y="147.704">*</text><!--MD5=[6f9be897a89cda8dadedfe553dbae6d6]
link apoint19 to CompetenciaTecnica--><path d="M1096.66,263.6964 C1110.79,267.8564 1251.36,309.2864 1340.77,335.6264 " fill="none" id="apoint19-CompetenciaTecnica" style="stroke:#A80036;stroke-width:1.0;"/><text fill="#000000" font-family="sans-serif" font-size="13" lengthAdjust="spacing" textLength="5" x="1327.8057" y="347.7492">*</text><!--MD5=[160425b8c2e819a93d5de2b6f07c5e03]
link apoint19 to CaraterCT--><path d="M1096.52,263.3564 C1104.59,263.3564 1158.78,263.3564 1201.69,263.3564 " fill="none" id="apoint19-CaraterCT" style="stroke:#A80036;stroke-width:1.0;stroke-dasharray:7.0,7.0;"/><!--MD5=[8c0835971d966be6a8d860f4ee2f4601]
link CaraterCT to GrauProficiencia--><path codeLine="84" d="M1311.01,267.9064 C1404.17,276.4064 1601.89,297.0064 1766,331.3564 C1775.76,333.3964 1786.01,335.9464 1795.96,338.6364 " fill="none" id="CaraterCT-GrauProficiencia" style="stroke:#A80036;stroke-width:1.0;"/><polygon fill="#000000" points="1529.9477,283.2538,1521.4214,279.0403,1520.5731,284.8566,1529.9477,283.2538" style="stroke:#000000;stroke-width:1.0;"/><text fill="#000000" font-family="sans-serif" font-size="13" lengthAdjust="spacing" textLength="121" x="1534" y="287.8516">exige (como minimo)</text><text fill="#000000" font-family="sans-serif" font-size="13" lengthAdjust="spacing" textLength="5" x="1319.027" y="283.2027">*</text><text fill="#000000" font-family="sans-serif" font-size="13" lengthAdjust="spacing" textLength="7" x="1781.0333" y="350.8665">1</text><!--MD5=[439a6ad1de0b5aa57a973cae1bf36ce5]
link Anuncio to Tarefa--><path codeLine="86" d="M365.01,166.9264 C375.03,162.9764 385.27,159.0064 395,155.3564 C431.95,141.4764 473.92,126.7364 506.29,115.5864 " fill="none" id="Anuncio-Tarefa" style="stroke:#A80036;stroke-width:1.0;"/><polygon fill="#000000" points="409.1993,120.8245,399.6944,121.1516,401.7019,126.676,409.1993,120.8245" style="stroke:#000000;stroke-width:1.0;"/><text fill="#000000" font-family="sans-serif" font-size="13" lengthAdjust="spacing" textLength="48" x="413.5" y="127.8516">publicita</text><text fill="#000000" font-family="sans-serif" font-size="13" lengthAdjust="spacing" textLength="22" x="372.9517" y="178.5383">0..1</text><text fill="#000000" font-family="sans-serif" font-size="13" lengthAdjust="spacing" textLength="7" x="491.468" y="132.6288">1</text><!--MD5=[439a6ad1de0b5aa57a973cae1bf36ce5]
link Anuncio to Tarefa--><path codeLine="87" d="M365.36,198.3864 C397.18,198.4464 435.32,194.8664 467,181.3564 C481.11,175.3364 494.5,166.2664 506.5,156.2764 " fill="none" id="Anuncio-Tarefa-1" style="stroke:#A80036;stroke-width:1.0;"/><polygon fill="#000000" points="395.2087,173.9617,404.7165,174.192,403.036,168.5595,395.2087,173.9617" style="stroke:#000000;stroke-width:1.0;"/><text fill="#000000" font-family="sans-serif" font-size="13" lengthAdjust="spacing" textLength="57" x="409" y="177.8516">da origem</text><text fill="#000000" font-family="sans-serif" font-size="13" lengthAdjust="spacing" textLength="22" x="372.9751" y="213.1807">0..1</text><text fill="#000000" font-family="sans-serif" font-size="13" lengthAdjust="spacing" textLength="7" x="491.3438" y="179.2058">1</text><!--MD5=[27b52c98fcb5387c047ce09b42fcb62d]
link Anuncio to Candidatura--><path codeLine="88" d="M365.21,231.6464 C374.93,235.9664 385.04,239.7464 395,242.3564 C427.86,250.9664 465.65,252.8864 496.77,252.4764 " fill="none" id="Anuncio-Candidatura" style="stroke:#A80036;stroke-width:1.0;"/><polygon fill="#000000" points="413.9385,234.3141,405.4643,229.9969,404.5451,235.8024,413.9385,234.3141" style="stroke:#000000;stroke-width:1.0;"/><text fill="#000000" font-family="sans-serif" font-size="13" lengthAdjust="spacing" textLength="39" x="418" y="238.8516">recebe</text><text fill="#000000" font-family="sans-serif" font-size="13" lengthAdjust="spacing" textLength="7" x="372.8345" y="250.2229">1</text><text fill="#000000" font-family="sans-serif" font-size="13" lengthAdjust="spacing" textLength="5" x="484.0543" y="267.3829">*</text><!--MD5=[cc2561a0285988b367253361d2d1973d]
link Tarefa to Categoria--><path codeLine="90" d="M615.5,97.3564 C666.85,97.3564 743.62,97.3564 792.62,97.3564 " fill="none" id="Tarefa-Categoria" style="stroke:#A80036;stroke-width:1.0;"/><polygon fill="#000000" points="665,88.5322,655.9549,85.5933,655.9549,91.4712,665,88.5322" style="stroke:#000000;stroke-width:1.0;"/><text fill="#000000" font-family="sans-serif" font-size="13" lengthAdjust="spacing" textLength="93" x="669" y="93.8516">enquadra-se em</text><text fill="#000000" font-family="sans-serif" font-size="13" lengthAdjust="spacing" textLength="5" x="623.5156" y="112.0002">*</text><text fill="#000000" font-family="sans-serif" font-size="13" lengthAdjust="spacing" textLength="7" x="778.0736" y="112.0765">1</text><!--MD5=[a66e767a4304f5fa76db98d7839a7a61]
link Candidatura to Freelancer--><path codeLine="92" d="M579.03,302.8764 C593.48,340.3864 617.86,388.4664 655,417.3564 C676.62,434.1764 747.39,449.3064 794.73,457.9064 " fill="none" id="Candidatura-Freelancer" style="stroke:#A80036;stroke-width:1.0;"/><polygon fill="#000000" points="673.5601,411.4504,667.9305,403.7849,664.5001,408.5579,673.5601,411.4504" style="stroke:#000000;stroke-width:1.0;"/><text fill="#000000" font-family="sans-serif" font-size="13" lengthAdjust="spacing" textLength="74" x="678.5" y="413.8516">realizada por</text><text fill="#000000" font-family="sans-serif" font-size="13" lengthAdjust="spacing" textLength="5" x="576.0198" y="324.3929">*</text><text fill="#000000" font-family="sans-serif" font-size="13" lengthAdjust="spacing" textLength="7" x="779.8776" y="452.9398">1</text><!--MD5=[7a59ad2cb29ff6e914b8672ce881fef8]
link Freelancer to HabilitacaoAcademica--><path codeLine="94" d="M886.26,463.9364 C922.4,462.7864 974.08,461.1464 1016.79,459.7964 " fill="none" id="Freelancer-HabilitacaoAcademica" style="stroke:#A80036;stroke-width:1.0;"/><polygon fill="#000000" points="943.9975,451.3737,934.8638,448.723,935.0501,454.5979,943.9975,451.3737" style="stroke:#000000;stroke-width:1.0;"/><text fill="#000000" font-family="sans-serif" font-size="13" lengthAdjust="spacing" textLength="22" x="948" y="456.8516">tem</text><text fill="#000000" font-family="sans-serif" font-size="13" lengthAdjust="spacing" textLength="7" x="894.1108" y="478.4809">1</text><text fill="#000000" font-family="sans-serif" font-size="13" lengthAdjust="spacing" textLength="5" x="1003.8943" y="474.3196">*</text><!--MD5=[d8cdfe47acc319ba7387450f2c7628f2]
link Freelancer to ReconhecimentoCT--><path codeLine="95" d="M886.26,483.4764 C925.16,499.2164 982.06,522.2464 1026.4,540.1964 " fill="none" id="Freelancer-ReconhecimentoCT" style="stroke:#A80036;stroke-width:1.0;"/><polygon fill="#000000" points="927.6348,490.4081,920.353,484.2904,918.1478,489.7389,927.6348,490.4081" style="stroke:#000000;stroke-width:1.0;"/><text fill="#000000" font-family="sans-serif" font-size="13" lengthAdjust="spacing" textLength="54" x="932" y="493.8516">recebe(u)</text><text fill="#000000" font-family="sans-serif" font-size="13" lengthAdjust="spacing" textLength="7" x="894.1108" y="501.1351">1</text><text fill="#000000" font-family="sans-serif" font-size="13" lengthAdjust="spacing" textLength="5" x="1010.5894" y="532.3472">*</text><!--MD5=[f49a2ed7e599b0b3feae4bc7e03654d4]
link ReconhecimentoCT to CompetenciaTecnica--><path codeLine="97" d="M1142.72,540.2364 C1152.48,534.4464 1162.63,528.2964 1172,522.3564 C1236.1,481.7564 1307.73,432.5264 1356.41,398.4564 " fill="none" id="ReconhecimentoCT-CompetenciaTecnica" style="stroke:#A80036;stroke-width:1.0;"/><polygon fill="#000000" points="1232.6664,421.7679,1223.5045,424.3197,1226.7542,429.2175,1232.6664,421.7679" style="stroke:#000000;stroke-width:1.0;"/><text fill="#000000" font-family="sans-serif" font-size="13" lengthAdjust="spacing" textLength="51" x="1237.5" y="429.8516">relativa a</text><text fill="#000000" font-family="sans-serif" font-size="13" lengthAdjust="spacing" textLength="5" x="1148.2928" y="529.6697">*</text><text fill="#000000" font-family="sans-serif" font-size="13" lengthAdjust="spacing" textLength="7" x="1340.2171" y="419.2251">1</text><!--MD5=[4c83f560ef7c82f9519d7b4f6acd253e]
link ReconhecimentoCT to GrauProficiencia--><path codeLine="98" d="M1165.88,548.1464 C1207.99,536.6264 1262.57,521.6864 1311,508.3564 C1487.22,459.8464 1695.34,402.1164 1795.97,374.1664 " fill="none" id="ReconhecimentoCT-GrauProficiencia" style="stroke:#A80036;stroke-width:1.0;"/><polygon fill="#000000" points="1567.3196,402.2014,1557.8186,401.7759,1559.383,407.4418,1567.3196,402.2014" style="stroke:#000000;stroke-width:1.0;"/><text fill="#000000" font-family="sans-serif" font-size="13" lengthAdjust="spacing" textLength="46" x="1571.5" y="408.8516">reconhe</text><text fill="#000000" font-family="sans-serif" font-size="13" lengthAdjust="spacing" textLength="5" x="1173.4989" y="560.5121">*</text><text fill="#000000" font-family="sans-serif" font-size="13" lengthAdjust="spacing" textLength="7" x="1781.0445" y="390.7267">1</text><!--MD5=[62c556ba9264e65921afbce78f325da5]
@startuml
skinparam classAttributeIconSize 0
hide methods
left to right direction

class Plataforma {
  -String designacao
}

class CompetenciaTecnica {
  -String codigo
  -String descBreve
  -String descDetalhada
}

class GrauProficiencia {
  -Integer valor
  -String designacao
}

class Categoria {
  -String id
  -String descricao
}

class CaraterCT {
  -Boolean obrigatoria
}

class Tarefa {
  -String referencia
  -String designacao
  -String descInformal
  -String descTecnica
  -Integer duracaoEst
  -Double custoEst
}

class Freelancer {
    -String nome
    -String NIF
    -String telefone
    -String email
}

class ReconhecimentoCT {
    -Date dataReconhecimento
}

class HabilitacaoAcademica {
    -String grau
    -String designacaoCurso
    -String nomeInstituicao
    -Double mediaCurso
}

class Anuncio
{
    -Date dtInicioPublicitacao
    -Date dtFimPublicitacao
    -Date dtInicioCandidatura
    -Date dtFimCandidatura
    -Date dtInicioSeriacao
    -Date dtFimSeriacao
}

class Candidatura
{
    -Date dataCandidatura
    -Double valorPretendido
    -Integer nrDias
    -String txtApresentacao
    -String txtMotivacao
}

Plataforma "1" - - "*" CompetenciaTecnica : possui >
Plataforma "1" - - "*" Categoria : possui >
Plataforma "1" - - "*" Anuncio : publicita >
Plataforma "1" - - "*" Freelancer : tem/usa  >

CompetenciaTecnica "1" - - - "*" GrauProficiencia : aplica  >

Categoria "*" - - "*" CompetenciaTecnica: requer >
(Categoria, CompetenciaTecnica) .. CaraterCT
CaraterCT "*" - - "1" GrauProficiencia: exige (como minimo)  >

Anuncio "0..1" - - "1" Tarefa: publicita >
Anuncio "0..1" - - "1" Tarefa: da origem <
Anuncio "1" - - "*" Candidatura: recebe >

Tarefa "*" - - "1"  Categoria: enquadra-se em >

Candidatura "*" - - "1"  Freelancer: realizada por >

Freelancer "1" - - "*" HabilitacaoAcademica: tem >
Freelancer "1" - - "*" ReconhecimentoCT : recebe(u) >

ReconhecimentoCT "*" - - "1" CompetenciaTecnica: relativa a >
ReconhecimentoCT "*" - - "1" GrauProficiencia: reconhe >


@enduml

PlantUML version 1.2021.00(Sun Jan 10 10:25:05 WET 2021)
(GPL source distribution)
Java Runtime: Java(TM) SE Runtime Environment
JVM: Java HotSpot(TM) 64-Bit Server VM
Default Encoding: Cp1252
Language: pt
Country: PT
--></g></svg>