<?xml version="1.0" encoding="UTF-8" standalone="no"?><svg xmlns="http://www.w3.org/2000/svg" xmlns:xlink="http://www.w3.org/1999/xlink" contentScriptType="application/ecmascript" contentStyleType="text/css" height="747px" preserveAspectRatio="none" style="width:1914px;height:747px;" version="1.1" viewBox="0 0 1914 747" width="1914px" zoomAndPan="magnify"><defs><filter height="300%" id="f10ssmpcyh9yen" width="300%" x="-1" y="-1"><feGaussianBlur result="blurOut" stdDeviation="2.0"/><feColorMatrix in="blurOut" result="blurOut2" type="matrix" values="0 0 0 0 0 0 0 0 0 0 0 0 0 0 0 0 0 0 .4 0"/><feOffset dx="4.0" dy="4.0" in="blurOut2" result="blurOut3"/><feBlend in="SourceGraphic" in2="blurOut3" mode="normal"/></filter></defs><g><rect fill="#FFFFFF" filter="url(#f10ssmpcyh9yen)" height="544.75" style="stroke:#A80036;stroke-width:1.0;" width="10" x="80" y="99.6094"/><rect fill="#FFFFFF" filter="url(#f10ssmpcyh9yen)" height="63.0547" style="stroke:#A80036;stroke-width:1.0;" width="10" x="405" y="121.9609"/><rect fill="#FFFFFF" filter="url(#f10ssmpcyh9yen)" height="277.5859" style="stroke:#A80036;stroke-width:1.0;" width="10" x="405" y="215.3672"/><rect fill="#FFFFFF" filter="url(#f10ssmpcyh9yen)" height="121.0547" style="stroke:#A80036;stroke-width:1.0;" width="10" x="405" y="523.3047"/><rect fill="#FFFFFF" filter="url(#f10ssmpcyh9yen)" height="184.2734" style="stroke:#A80036;stroke-width:1.0;" width="10" x="767" y="262.0703"/><rect fill="#FFFFFF" filter="url(#f10ssmpcyh9yen)" height="60.3516" style="stroke:#A80036;stroke-width:1.0;" width="10" x="767" y="553.6563"/><rect fill="#FFFFFF" filter="url(#f10ssmpcyh9yen)" height="30.3516" style="stroke:#A80036;stroke-width:1.0;" width="10" x="1157" y="292.4219"/><rect fill="#FFFFFF" filter="url(#f10ssmpcyh9yen)" height="30.3516" style="stroke:#A80036;stroke-width:1.0;" width="10" x="1157" y="369.3828"/><rect fill="#FFFFFF" filter="url(#f10ssmpcyh9yen)" height="30" style="stroke:#A80036;stroke-width:1.0;" width="10" x="1855.5" y="584.0078"/><line style="stroke:#A80036;stroke-width:1.0;stroke-dasharray:5.0,5.0;" x1="85" x2="85" y1="89.6094" y2="662.3594"/><line style="stroke:#A80036;stroke-width:1.0;stroke-dasharray:5.0,5.0;" x1="410" x2="410" y1="89.6094" y2="662.3594"/><line style="stroke:#A80036;stroke-width:1.0;stroke-dasharray:5.0,5.0;" x1="771.5" x2="771.5" y1="89.6094" y2="662.3594"/><line style="stroke:#A80036;stroke-width:1.0;stroke-dasharray:5.0,5.0;" x1="1162" x2="1162" y1="89.6094" y2="662.3594"/><line style="stroke:#A80036;stroke-width:1.0;stroke-dasharray:5.0,5.0;" x1="1282" x2="1282" y1="457.2969" y2="662.3594"/><line style="stroke:#A80036;stroke-width:1.0;stroke-dasharray:5.0,5.0;" x1="1580" x2="1580" y1="333.7266" y2="662.3594"/><line style="stroke:#A80036;stroke-width:1.0;stroke-dasharray:5.0,5.0;" x1="1730" x2="1730" y1="410.6875" y2="662.3594"/><line style="stroke:#A80036;stroke-width:1.0;stroke-dasharray:5.0,5.0;" x1="1860" x2="1860" y1="89.6094" y2="662.3594"/><text fill="#000000" font-family="sans-serif" font-size="14" lengthAdjust="spacing" textLength="154" x="5" y="86.5332">Utilizador Não Registado</text><ellipse cx="85" cy="15" fill="#FEFECE" filter="url(#f10ssmpcyh9yen)" rx="8" ry="8" style="stroke:#A80036;stroke-width:2.0;"/><path d="M85,23 L85,50 M72,31 L98,31 M85,50 L72,65 M85,50 L98,65 " fill="none" filter="url(#f10ssmpcyh9yen)" style="stroke:#A80036;stroke-width:2.0;"/><text fill="#000000" font-family="sans-serif" font-size="14" lengthAdjust="spacing" textLength="154" x="5" y="675.8926">Utilizador Não Registado</text><ellipse cx="85" cy="688.9688" fill="#FEFECE" filter="url(#f10ssmpcyh9yen)" rx="8" ry="8" style="stroke:#A80036;stroke-width:2.0;"/><path d="M85,696.9688 L85,723.9688 M72,704.9688 L98,704.9688 M85,723.9688 L72,738.9688 M85,723.9688 L98,738.9688 " fill="none" filter="url(#f10ssmpcyh9yen)" style="stroke:#A80036;stroke-width:2.0;"/><rect fill="#FEFECE" filter="url(#f10ssmpcyh9yen)" height="49.2188" style="stroke:#A80036;stroke-width:1.5;" width="106" x="355" y="35.3906"/><text fill="#000000" font-family="sans-serif" font-size="14" lengthAdjust="spacing" textLength="57" x="379.5" y="56.9238">:Registar</text><text fill="#000000" font-family="sans-serif" font-size="14" lengthAdjust="spacing" textLength="92" x="362" y="74.5332">OrganizacaoUI</text><rect fill="#FEFECE" filter="url(#f10ssmpcyh9yen)" height="49.2188" style="stroke:#A80036;stroke-width:1.5;" width="106" x="355" y="661.3594"/><text fill="#000000" font-family="sans-serif" font-size="14" lengthAdjust="spacing" textLength="57" x="379.5" y="682.8926">:Registar</text><text fill="#000000" font-family="sans-serif" font-size="14" lengthAdjust="spacing" textLength="92" x="362" y="700.502">OrganizacaoUI</text><rect fill="#FEFECE" filter="url(#f10ssmpcyh9yen)" height="49.2188" style="stroke:#A80036;stroke-width:1.5;" width="151" x="694.5" y="35.3906"/><text fill="#000000" font-family="sans-serif" font-size="14" lengthAdjust="spacing" textLength="137" x="701.5" y="56.9238">:RegistarOrganizacao</text><text fill="#000000" font-family="sans-serif" font-size="14" lengthAdjust="spacing" textLength="62" x="739" y="74.5332">Controller</text><rect fill="#FEFECE" filter="url(#f10ssmpcyh9yen)" height="49.2188" style="stroke:#A80036;stroke-width:1.5;" width="151" x="694.5" y="661.3594"/><text fill="#000000" font-family="sans-serif" font-size="14" lengthAdjust="spacing" textLength="137" x="701.5" y="682.8926">:RegistarOrganizacao</text><text fill="#000000" font-family="sans-serif" font-size="14" lengthAdjust="spacing" textLength="62" x="739" y="700.502">Controller</text><rect fill="#FEFECE" filter="url(#f10ssmpcyh9yen)" height="31.6094" style="stroke:#A80036;stroke-width:1.5;" width="94" x="1113" y="53"/><text fill="#000000" font-family="sans-serif" font-size="14" lengthAdjust="spacing" textLength="80" x="1120" y="74.5332">Organizacao</text><rect fill="#FEFECE" filter="url(#f10ssmpcyh9yen)" height="31.6094" style="stroke:#A80036;stroke-width:1.5;" width="94" x="1113" y="661.3594"/><text fill="#000000" font-family="sans-serif" font-size="14" lengthAdjust="spacing" textLength="80" x="1120" y="682.8926">Organizacao</text><rect fill="#FEFECE" filter="url(#f10ssmpcyh9yen)" height="31.6094" style="stroke:#A80036;stroke-width:1.5;" width="119" x="1221" y="661.3594"/><text fill="#000000" font-family="sans-serif" font-size="14" lengthAdjust="spacing" textLength="105" x="1228" y="682.8926">org:Organizacao</text><rect fill="#FEFECE" filter="url(#f10ssmpcyh9yen)" height="31.6094" style="stroke:#A80036;stroke-width:1.5;" width="142" x="1507" y="661.3594"/><text fill="#000000" font-family="sans-serif" font-size="14" lengthAdjust="spacing" textLength="128" x="1514" y="682.8926">end:EnderecoPostal</text><rect fill="#FEFECE" filter="url(#f10ssmpcyh9yen)" height="31.6094" style="stroke:#A80036;stroke-width:1.5;" width="131" x="1663" y="661.3594"/><text fill="#000000" font-family="sans-serif" font-size="14" lengthAdjust="spacing" textLength="117" x="1670" y="682.8926">colab:Colaborador</text><text fill="#000000" font-family="sans-serif" font-size="14" lengthAdjust="spacing" textLength="99" x="1808" y="86.5332">OrganizacaoDB</text><path d="M1842.5,36 C1842.5,26 1860.5,26 1860.5,26 C1860.5,26 1878.5,26 1878.5,36 L1878.5,62 C1878.5,72 1860.5,72 1860.5,72 C1860.5,72 1842.5,72 1842.5,62 L1842.5,36 " fill="#FEFECE" filter="url(#f10ssmpcyh9yen)" style="stroke:#000000;stroke-width:1.5;"/><path d="M1842.5,36 C1842.5,46 1860.5,46 1860.5,46 C1860.5,46 1878.5,46 1878.5,36 " fill="none" style="stroke:#000000;stroke-width:1.5;"/><text fill="#000000" font-family="sans-serif" font-size="14" lengthAdjust="spacing" textLength="99" x="1808" y="675.8926">OrganizacaoDB</text><path d="M1842.5,688.9688 C1842.5,678.9688 1860.5,678.9688 1860.5,678.9688 C1860.5,678.9688 1878.5,678.9688 1878.5,688.9688 L1878.5,714.9688 C1878.5,724.9688 1860.5,724.9688 1860.5,724.9688 C1860.5,724.9688 1842.5,724.9688 1842.5,714.9688 L1842.5,688.9688 " fill="#FEFECE" filter="url(#f10ssmpcyh9yen)" style="stroke:#000000;stroke-width:1.5;"/><path d="M1842.5,688.9688 C1842.5,698.9688 1860.5,698.9688 1860.5,698.9688 C1860.5,698.9688 1878.5,698.9688 1878.5,688.9688 " fill="none" style="stroke:#000000;stroke-width:1.5;"/><rect fill="#FFFFFF" filter="url(#f10ssmpcyh9yen)" height="544.75" style="stroke:#A80036;stroke-width:1.0;" width="10" x="80" y="99.6094"/><rect fill="#FFFFFF" filter="url(#f10ssmpcyh9yen)" height="63.0547" style="stroke:#A80036;stroke-width:1.0;" width="10" x="405" y="121.9609"/><rect fill="#FFFFFF" filter="url(#f10ssmpcyh9yen)" height="277.5859" style="stroke:#A80036;stroke-width:1.0;" width="10" x="405" y="215.3672"/><rect fill="#FFFFFF" filter="url(#f10ssmpcyh9yen)" height="121.0547" style="stroke:#A80036;stroke-width:1.0;" width="10" x="405" y="523.3047"/><rect fill="#FFFFFF" filter="url(#f10ssmpcyh9yen)" height="184.2734" style="stroke:#A80036;stroke-width:1.0;" width="10" x="767" y="262.0703"/><rect fill="#FFFFFF" filter="url(#f10ssmpcyh9yen)" height="60.3516" style="stroke:#A80036;stroke-width:1.0;" width="10" x="767" y="553.6563"/><rect fill="#FFFFFF" filter="url(#f10ssmpcyh9yen)" height="30.3516" style="stroke:#A80036;stroke-width:1.0;" width="10" x="1157" y="292.4219"/><rect fill="#FFFFFF" filter="url(#f10ssmpcyh9yen)" height="30.3516" style="stroke:#A80036;stroke-width:1.0;" width="10" x="1157" y="369.3828"/><rect fill="#FFFFFF" filter="url(#f10ssmpcyh9yen)" height="30" style="stroke:#A80036;stroke-width:1.0;" width="10" x="1855.5" y="584.0078"/><polygon fill="#A80036" points="393,117.9609,403,121.9609,393,125.9609,397,121.9609" style="stroke:#A80036;stroke-width:1.0;"/><line style="stroke:#A80036;stroke-width:1.0;" x1="90" x2="399" y1="121.9609" y2="121.9609"/><text fill="#000000" font-family="sans-serif" font-size="13" font-weight="bold" lengthAdjust="spacing" textLength="7" x="97" y="117.1045">1</text><text fill="#000000" font-family="sans-serif" font-size="13" lengthAdjust="spacing" textLength="117" x="108" y="117.1045">registar organização</text><polygon fill="#A80036" points="101,181.0156,91,185.0156,101,189.0156,97,185.0156" style="stroke:#A80036;stroke-width:1.0;"/><line style="stroke:#A80036;stroke-width:1.0;" x1="95" x2="409" y1="185.0156" y2="185.0156"/><text fill="#000000" font-family="sans-serif" font-size="13" font-weight="bold" lengthAdjust="spacing" textLength="7" x="107" y="163.8076">2</text><text fill="#000000" font-family="sans-serif" font-size="13" lengthAdjust="spacing" textLength="154" x="118" y="147.4561">solicita dados organização</text><text fill="#000000" font-family="sans-serif" font-size="13" lengthAdjust="spacing" textLength="269" x="118" y="163.8076">(nome,NIF, endereço, telefone, website, email)</text><text fill="#000000" font-family="sans-serif" font-size="13" lengthAdjust="spacing" textLength="276" x="122" y="180.1592">e sobre o gestor (nome, função, telefone, email)</text><polygon fill="#A80036" points="393,211.3672,403,215.3672,393,219.3672,397,215.3672" style="stroke:#A80036;stroke-width:1.0;"/><line style="stroke:#A80036;stroke-width:1.0;" x1="90" x2="399" y1="215.3672" y2="215.3672"/><text fill="#000000" font-family="sans-serif" font-size="13" font-weight="bold" lengthAdjust="spacing" textLength="7" x="97" y="210.5107">3</text><text fill="#000000" font-family="sans-serif" font-size="13" lengthAdjust="spacing" textLength="169" x="108" y="210.5107">introduz os dados solicitados</text><polygon fill="#A80036" points="755,258.0703,765,262.0703,755,266.0703,759,262.0703" style="stroke:#A80036;stroke-width:1.0;"/><line style="stroke:#A80036;stroke-width:1.0;" x1="415" x2="761" y1="262.0703" y2="262.0703"/><text fill="#000000" font-family="sans-serif" font-size="13" font-weight="bold" lengthAdjust="spacing" textLength="7" x="422" y="249.0381">4</text><text fill="#000000" font-family="sans-serif" font-size="13" lengthAdjust="spacing" textLength="321" x="433" y="240.8623">registarOrganizacao(nome,NIF,endLocal,endCodPostal,</text><text fill="#000000" font-family="sans-serif" font-size="13" lengthAdjust="spacing" textLength="322" x="433" y="257.2139">endLocalidade,tlf,site,email,nomeG,função,tlfG, emailG)</text><polygon fill="#A80036" points="1145,288.4219,1155,292.4219,1145,296.4219,1149,292.4219" style="stroke:#A80036;stroke-width:1.0;"/><line style="stroke:#A80036;stroke-width:1.0;" x1="777" x2="1151" y1="292.4219" y2="292.4219"/><text fill="#000000" font-family="sans-serif" font-size="13" font-weight="bold" lengthAdjust="spacing" textLength="7" x="784" y="287.5654">5</text><text fill="#000000" font-family="sans-serif" font-size="13" lengthAdjust="spacing" textLength="350" x="795" y="287.5654">end = novoEndereco(endLocal,endCodPostal,endLocalidade)</text><polygon fill="#A80036" points="1495,318.7734,1505,322.7734,1495,326.7734,1499,322.7734" style="stroke:#A80036;stroke-width:1.0;"/><line style="stroke:#A80036;stroke-width:1.0;stroke-dasharray:2.0,2.0;" x1="1162" x2="1501" y1="322.7734" y2="322.7734"/><text fill="#000000" font-family="sans-serif" font-size="13" font-weight="bold" lengthAdjust="spacing" textLength="7" x="1169" y="317.917">6</text><text fill="#000000" font-family="sans-serif" font-size="13" lengthAdjust="spacing" textLength="305" x="1180" y="317.917">end = create(endLocal,endCodPostal,endLocalidade)</text><rect fill="#FEFECE" filter="url(#f10ssmpcyh9yen)" height="31.6094" style="stroke:#A80036;stroke-width:1.5;" width="142" x="1507" y="300.4219"/><text fill="#000000" font-family="sans-serif" font-size="14" lengthAdjust="spacing" textLength="128" x="1514" y="321.9551">end:EnderecoPostal</text><polygon fill="#A80036" points="1145,365.3828,1155,369.3828,1145,373.3828,1149,369.3828" style="stroke:#A80036;stroke-width:1.0;"/><line style="stroke:#A80036;stroke-width:1.0;" x1="777" x2="1151" y1="369.3828" y2="369.3828"/><text fill="#000000" font-family="sans-serif" font-size="13" font-weight="bold" lengthAdjust="spacing" textLength="7" x="784" y="364.5264">7</text><text fill="#000000" font-family="sans-serif" font-size="13" lengthAdjust="spacing" textLength="307" x="795" y="364.5264">colab = novoColaborador(nomeG,função,tlfG, emailG)</text><polygon fill="#A80036" points="1651,395.7344,1661,399.7344,1651,403.7344,1655,399.7344" style="stroke:#A80036;stroke-width:1.0;"/><line style="stroke:#A80036;stroke-width:1.0;stroke-dasharray:2.0,2.0;" x1="1162" x2="1657" y1="399.7344" y2="399.7344"/><text fill="#000000" font-family="sans-serif" font-size="13" font-weight="bold" lengthAdjust="spacing" textLength="7" x="1169" y="394.8779">8</text><text fill="#000000" font-family="sans-serif" font-size="13" lengthAdjust="spacing" textLength="248" x="1180" y="394.8779">colab = create(nomeG,função,tlfG, emailG)</text><rect fill="#FEFECE" filter="url(#f10ssmpcyh9yen)" height="31.6094" style="stroke:#A80036;stroke-width:1.5;" width="131" x="1663" y="377.3828"/><text fill="#000000" font-family="sans-serif" font-size="14" lengthAdjust="spacing" textLength="117" x="1670" y="398.916">colab:Colaborador</text><polygon fill="#A80036" points="1209,442.3438,1219,446.3438,1209,450.3438,1213,446.3438" style="stroke:#A80036;stroke-width:1.0;"/><line style="stroke:#A80036;stroke-width:1.0;stroke-dasharray:2.0,2.0;" x1="772" x2="1215" y1="446.3438" y2="446.3438"/><text fill="#000000" font-family="sans-serif" font-size="13" font-weight="bold" lengthAdjust="spacing" textLength="7" x="779" y="441.4873">9</text><text fill="#000000" font-family="sans-serif" font-size="13" lengthAdjust="spacing" textLength="268" x="790" y="441.4873">org = create(nome,NIF,end,tlf,site,email,colab)</text><rect fill="#FEFECE" filter="url(#f10ssmpcyh9yen)" height="31.6094" style="stroke:#A80036;stroke-width:1.5;" width="119" x="1221" y="423.9922"/><text fill="#000000" font-family="sans-serif" font-size="14" lengthAdjust="spacing" textLength="105" x="1228" y="445.5254">org:Organizacao</text><polygon fill="#A80036" points="101,488.9531,91,492.9531,101,496.9531,97,492.9531" style="stroke:#A80036;stroke-width:1.0;"/><line style="stroke:#A80036;stroke-width:1.0;stroke-dasharray:2.0,2.0;" x1="95" x2="409" y1="492.9531" y2="492.9531"/><text fill="#000000" font-family="sans-serif" font-size="13" font-weight="bold" lengthAdjust="spacing" textLength="14" x="107" y="488.0967">10</text><text fill="#000000" font-family="sans-serif" font-size="13" lengthAdjust="spacing" textLength="226" x="125" y="488.0967">apresenta dados e solicita confirmação</text><polygon fill="#A80036" points="393,519.3047,403,523.3047,393,527.3047,397,523.3047" style="stroke:#A80036;stroke-width:1.0;"/><line style="stroke:#A80036;stroke-width:1.0;" x1="90" x2="399" y1="523.3047" y2="523.3047"/><text fill="#000000" font-family="sans-serif" font-size="13" font-weight="bold" lengthAdjust="spacing" textLength="14" x="97" y="518.4482">11</text><text fill="#000000" font-family="sans-serif" font-size="13" lengthAdjust="spacing" textLength="49" x="115" y="518.4482">confirma</text><polygon fill="#A80036" points="755,549.6563,765,553.6563,755,557.6563,759,553.6563" style="stroke:#A80036;stroke-width:1.0;"/><line style="stroke:#A80036;stroke-width:1.0;" x1="415" x2="761" y1="553.6563" y2="553.6563"/><text fill="#000000" font-family="sans-serif" font-size="13" font-weight="bold" lengthAdjust="spacing" textLength="14" x="422" y="548.7998">12</text><text fill="#000000" font-family="sans-serif" font-size="13" lengthAdjust="spacing" textLength="124" x="440" y="548.7998">registarOrganizacao()</text><polygon fill="#A80036" points="1843.5,580.0078,1853.5,584.0078,1843.5,588.0078,1847.5,584.0078" style="stroke:#A80036;stroke-width:1.0;"/><line style="stroke:#A80036;stroke-width:1.0;" x1="777" x2="1849.5" y1="584.0078" y2="584.0078"/><text fill="#000000" font-family="sans-serif" font-size="13" font-weight="bold" lengthAdjust="spacing" textLength="14" x="784" y="579.1514">13</text><text fill="#000000" font-family="sans-serif" font-size="13" lengthAdjust="spacing" textLength="52" x="802" y="579.1514">save(org)</text><polygon fill="#A80036" points="96,640.3594,86,644.3594,96,648.3594,92,644.3594" style="stroke:#A80036;stroke-width:1.0;"/><line style="stroke:#A80036;stroke-width:1.0;stroke-dasharray:2.0,2.0;" x1="90" x2="409" y1="644.3594" y2="644.3594"/><text fill="#000000" font-family="sans-serif" font-size="13" font-weight="bold" lengthAdjust="spacing" textLength="14" x="102" y="639.5029">14</text><text fill="#000000" font-family="sans-serif" font-size="13" lengthAdjust="spacing" textLength="138" x="120" y="639.5029">operação bem sucedida</text><!--MD5=[9332a381e68770cd1ec9693ec6db1eda]
@startuml
autonumber

actor "Utilizador Não Registado" as UNR
participant ":Registar\nOrganizacaoUI" as UI
participant ":RegistarOrganizacao\nController" as CTRL
participant "Organizacao" as _ORG
participant "org:Organizacao" as ORG
participant "end:EnderecoPostal" as END
participant "colab:Colaborador" as COLAB
database OrganizacaoDB as orgDB

activate UNR
UNR -> UI : registar organização
activate UI
UNR <- UI : solicita dados organização \n(nome,NIF, endereço, telefone, website, email)\n e sobre o gestor (nome, função, telefone, email)
deactivate UI
UNR -> UI : introduz os dados solicitados
activate UI

UI -> CTRL : registarOrganizacao(nome,NIF,endLocal,endCodPostal,\nendLocalidade,tlf,site,email,nomeG,função,tlfG, emailG)
activate CTRL

CTRL -> _ORG: end = novoEndereco(endLocal,endCodPostal,endLocalidade)
activate _ORG
_ORG - -> END ** : end = create(endLocal,endCodPostal,endLocalidade)
deactivate _ORG

CTRL -> _ORG: colab = novoColaborador(nomeG,função,tlfG, emailG)
activate _ORG
_ORG - -> COLAB ** : colab = create(nomeG,função,tlfG, emailG)
deactivate _ORG

CTRL - -> ORG ** : org = create(nome,NIF,end,tlf,site,email,colab)


deactivate CTRL
UI - -> UNR : apresenta dados e solicita confirmação
deactivate UI

UNR -> UI : confirma
activate UI

UI -> CTRL: registarOrganizacao()
activate CTRL
CTRL -> orgDB : save(org)
activate orgDB
deactivate orgDB

deactivate CTRL
UI - -> UNR : operação bem sucedida
deactivate UI

deactivate UNR
@enduml

PlantUML version 1.2021.00(Sun Jan 10 10:25:05 WET 2021)
(GPL source distribution)
Java Runtime: Java(TM) SE Runtime Environment
JVM: Java HotSpot(TM) 64-Bit Server VM
Default Encoding: Cp1252
Language: pt
Country: PT
--></g></svg>