<?xml version="1.0" encoding="UTF-8" standalone="no"?><svg xmlns="http://www.w3.org/2000/svg" xmlns:xlink="http://www.w3.org/1999/xlink" contentScriptType="application/ecmascript" contentStyleType="text/css" height="775px" preserveAspectRatio="none" style="width:1077px;height:775px;" version="1.1" viewBox="0 0 1077 775" width="1077px" zoomAndPan="magnify"><defs><filter height="300%" id="fpo64k5xpsqzo" width="300%" x="-1" y="-1"><feGaussianBlur result="blurOut" stdDeviation="2.0"/><feColorMatrix in="blurOut" result="blurOut2" type="matrix" values="0 0 0 0 0 0 0 0 0 0 0 0 0 0 0 0 0 0 .4 0"/><feOffset dx="4.0" dy="4.0" in="blurOut2" result="blurOut3"/><feBlend in="SourceGraphic" in2="blurOut3" mode="normal"/></filter></defs><g><!--MD5=[ac8682ea5466d223e49472789fb200d2]
class Colaborador--><rect codeLine="3" fill="#FEFECE" filter="url(#fpo64k5xpsqzo)" height="103.3438" id="Colaborador" style="stroke:#A80036;stroke-width:1.5;" width="153" x="65.5" y="658"/><ellipse cx="103.9" cy="674" fill="#ADD1B2" rx="11" ry="11" style="stroke:#A80036;stroke-width:1.0;"/><path d="M106.6656,669.875 Q106.8219,669.6563 107.0094,669.5469 Q107.1969,669.4375 107.4156,669.4375 Q107.7906,669.4375 108.025,669.7031 Q108.2594,669.9531 108.2594,670.5625 L108.2594,672.0156 Q108.2594,672.625 108.025,672.8906 Q107.7906,673.1563 107.4156,673.1563 Q107.0719,673.1563 106.8688,672.9531 Q106.6656,672.7656 106.5563,672.25 Q106.5094,671.8906 106.3219,671.7031 Q105.9938,671.3281 105.3844,671.1094 Q104.775,670.8906 104.15,670.8906 Q103.3844,670.8906 102.7438,671.2188 Q102.1188,671.5469 101.6188,672.2969 Q101.1344,673.0469 101.1344,674.0781 L101.1344,675.1719 Q101.1344,676.4063 102.025,677.2344 Q102.9156,678.0469 104.5094,678.0469 Q105.4469,678.0469 106.1031,677.7969 Q106.4938,677.6406 106.9156,677.2031 Q107.1813,676.9375 107.3219,676.8594 Q107.4781,676.7813 107.6813,676.7813 Q108.0094,676.7813 108.2594,677.0469 Q108.525,677.2969 108.525,677.6406 Q108.525,677.9844 108.1813,678.3906 Q107.6813,678.9688 106.8844,679.2969 Q105.8063,679.75 104.5094,679.75 Q102.9938,679.75 101.7906,679.125 Q100.8063,678.625 100.1188,677.5625 Q99.4313,676.4844 99.4313,675.2031 L99.4313,674.0469 Q99.4313,672.7188 100.0406,671.5781 Q100.6656,670.4219 101.7594,669.8125 Q102.8531,669.1875 104.0875,669.1875 Q104.8219,669.1875 105.4625,669.3594 Q106.1188,669.5156 106.6656,669.875 Z " fill="#000000"/><text fill="#000000" font-family="sans-serif" font-size="12" lengthAdjust="spacing" textLength="69" x="123.1" y="678.9102">Colaborador</text><line style="stroke:#A80036;stroke-width:1.5;" x1="66.5" x2="217.5" y1="690" y2="690"/><text fill="#000000" font-family="sans-serif" font-size="11" lengthAdjust="spacing" textLength="61" x="71.5" y="705.4189">-String nome</text><text fill="#000000" font-family="sans-serif" font-size="11" lengthAdjust="spacing" textLength="74" x="71.5" y="719.2549">-String telefone</text><text fill="#000000" font-family="sans-serif" font-size="11" lengthAdjust="spacing" textLength="59" x="71.5" y="733.0908">-String email</text><line style="stroke:#A80036;stroke-width:1.5;" x1="66.5" x2="217.5" y1="739.5078" y2="739.5078"/><text fill="#000000" font-family="sans-serif" font-size="11" lengthAdjust="spacing" textLength="141" x="71.5" y="754.9268">+Colaborador(nome,tlf, email)</text><!--MD5=[dcda844062f930f807532403427d3023]
class EnderecoPostal--><rect codeLine="10" fill="#FEFECE" filter="url(#fpo64k5xpsqzo)" height="103.3438" id="EnderecoPostal" style="stroke:#A80036;stroke-width:1.5;" width="224" x="256" y="658"/><ellipse cx="319.75" cy="674" fill="#ADD1B2" rx="11" ry="11" style="stroke:#A80036;stroke-width:1.0;"/><path d="M322.5156,669.875 Q322.6719,669.6563 322.8594,669.5469 Q323.0469,669.4375 323.2656,669.4375 Q323.6406,669.4375 323.875,669.7031 Q324.1094,669.9531 324.1094,670.5625 L324.1094,672.0156 Q324.1094,672.625 323.875,672.8906 Q323.6406,673.1563 323.2656,673.1563 Q322.9219,673.1563 322.7188,672.9531 Q322.5156,672.7656 322.4063,672.25 Q322.3594,671.8906 322.1719,671.7031 Q321.8438,671.3281 321.2344,671.1094 Q320.625,670.8906 320,670.8906 Q319.2344,670.8906 318.5938,671.2188 Q317.9688,671.5469 317.4688,672.2969 Q316.9844,673.0469 316.9844,674.0781 L316.9844,675.1719 Q316.9844,676.4063 317.875,677.2344 Q318.7656,678.0469 320.3594,678.0469 Q321.2969,678.0469 321.9531,677.7969 Q322.3438,677.6406 322.7656,677.2031 Q323.0313,676.9375 323.1719,676.8594 Q323.3281,676.7813 323.5313,676.7813 Q323.8594,676.7813 324.1094,677.0469 Q324.375,677.2969 324.375,677.6406 Q324.375,677.9844 324.0313,678.3906 Q323.5313,678.9688 322.7344,679.2969 Q321.6563,679.75 320.3594,679.75 Q318.8438,679.75 317.6406,679.125 Q316.6563,678.625 315.9688,677.5625 Q315.2813,676.4844 315.2813,675.2031 L315.2813,674.0469 Q315.2813,672.7188 315.8906,671.5781 Q316.5156,670.4219 317.6094,669.8125 Q318.7031,669.1875 319.9375,669.1875 Q320.6719,669.1875 321.3125,669.3594 Q321.9688,669.5156 322.5156,669.875 Z " fill="#000000"/><text fill="#000000" font-family="sans-serif" font-size="12" lengthAdjust="spacing" textLength="88" x="340.25" y="678.9102">EnderecoPostal</text><line style="stroke:#A80036;stroke-width:1.5;" x1="257" x2="479" y1="690" y2="690"/><text fill="#000000" font-family="sans-serif" font-size="11" lengthAdjust="spacing" textLength="57" x="262" y="705.4189">-String local</text><text fill="#000000" font-family="sans-serif" font-size="11" lengthAdjust="spacing" textLength="82" x="262" y="719.2549">-String codPostal</text><text fill="#000000" font-family="sans-serif" font-size="11" lengthAdjust="spacing" textLength="83" x="262" y="733.0908">-String localidade</text><line style="stroke:#A80036;stroke-width:1.5;" x1="257" x2="479" y1="739.5078" y2="739.5078"/><text fill="#000000" font-family="sans-serif" font-size="11" lengthAdjust="spacing" textLength="212" x="262" y="754.9268">+EnderecoPostal(local,codPostal,localidade)</text><!--MD5=[807977ceb130c090ed5febfb6de2bdea]
class Organizacao--><rect codeLine="17" fill="#FEFECE" filter="url(#fpo64k5xpsqzo)" height="158.6875" id="Organizacao" style="stroke:#A80036;stroke-width:1.5;" width="392" x="7" y="421"/><ellipse cx="164.25" cy="437" fill="#ADD1B2" rx="11" ry="11" style="stroke:#A80036;stroke-width:1.0;"/><path d="M167.0156,432.875 Q167.1719,432.6563 167.3594,432.5469 Q167.5469,432.4375 167.7656,432.4375 Q168.1406,432.4375 168.375,432.7031 Q168.6094,432.9531 168.6094,433.5625 L168.6094,435.0156 Q168.6094,435.625 168.375,435.8906 Q168.1406,436.1563 167.7656,436.1563 Q167.4219,436.1563 167.2188,435.9531 Q167.0156,435.7656 166.9063,435.25 Q166.8594,434.8906 166.6719,434.7031 Q166.3438,434.3281 165.7344,434.1094 Q165.125,433.8906 164.5,433.8906 Q163.7344,433.8906 163.0938,434.2188 Q162.4688,434.5469 161.9688,435.2969 Q161.4844,436.0469 161.4844,437.0781 L161.4844,438.1719 Q161.4844,439.4063 162.375,440.2344 Q163.2656,441.0469 164.8594,441.0469 Q165.7969,441.0469 166.4531,440.7969 Q166.8438,440.6406 167.2656,440.2031 Q167.5313,439.9375 167.6719,439.8594 Q167.8281,439.7813 168.0313,439.7813 Q168.3594,439.7813 168.6094,440.0469 Q168.875,440.2969 168.875,440.6406 Q168.875,440.9844 168.5313,441.3906 Q168.0313,441.9688 167.2344,442.2969 Q166.1563,442.75 164.8594,442.75 Q163.3438,442.75 162.1406,442.125 Q161.1563,441.625 160.4688,440.5625 Q159.7813,439.4844 159.7813,438.2031 L159.7813,437.0469 Q159.7813,435.7188 160.3906,434.5781 Q161.0156,433.4219 162.1094,432.8125 Q163.2031,432.1875 164.4375,432.1875 Q165.1719,432.1875 165.8125,432.3594 Q166.4688,432.5156 167.0156,432.875 Z " fill="#000000"/><text fill="#000000" font-family="sans-serif" font-size="12" lengthAdjust="spacing" textLength="69" x="184.75" y="441.9102">Organizacao</text><line style="stroke:#A80036;stroke-width:1.5;" x1="8" x2="398" y1="453" y2="453"/><text fill="#000000" font-family="sans-serif" font-size="11" lengthAdjust="spacing" textLength="61" x="13" y="468.4189">-String nome</text><text fill="#000000" font-family="sans-serif" font-size="11" lengthAdjust="spacing" textLength="50" x="13" y="482.2549">-String NIF</text><text fill="#000000" font-family="sans-serif" font-size="11" lengthAdjust="spacing" textLength="74" x="13" y="496.0908">-String website</text><text fill="#000000" font-family="sans-serif" font-size="11" lengthAdjust="spacing" textLength="74" x="13" y="509.9268">-String telefone</text><text fill="#000000" font-family="sans-serif" font-size="11" lengthAdjust="spacing" textLength="59" x="13" y="523.7627">-String email</text><line style="stroke:#A80036;stroke-width:1.5;" x1="8" x2="398" y1="530.1797" y2="530.1797"/><text fill="#000000" font-family="sans-serif" font-size="11" lengthAdjust="spacing" textLength="380" x="13" y="545.5986">+Organizacao(nome, NIF,webSite,telefone, email,endereco,gestorColaborador)</text><text fill="#000000" font-family="sans-serif" font-size="11" lengthAdjust="spacing" text-decoration="underline" textLength="312" x="13" y="559.4346">+EnderecoPostal registarEndereco(morada,codPostal,localidade)</text><text fill="#000000" font-family="sans-serif" font-size="11" lengthAdjust="spacing" text-decoration="underline" textLength="277" x="13" y="573.2705">+Colaborador registarColaborador(nome,funcao,tlf, email)</text><!--MD5=[ecaed46f78f8cfe1e9ce18477649be18]
class Plataforma--><rect codeLine="28" fill="#FEFECE" filter="url(#fpo64k5xpsqzo)" height="75.6719" id="Plataforma" style="stroke:#A80036;stroke-width:1.5;" width="292" x="405" y="267"/><ellipse cx="516.75" cy="283" fill="#ADD1B2" rx="11" ry="11" style="stroke:#A80036;stroke-width:1.0;"/><path d="M519.5156,278.875 Q519.6719,278.6563 519.8594,278.5469 Q520.0469,278.4375 520.2656,278.4375 Q520.6406,278.4375 520.875,278.7031 Q521.1094,278.9531 521.1094,279.5625 L521.1094,281.0156 Q521.1094,281.625 520.875,281.8906 Q520.6406,282.1563 520.2656,282.1563 Q519.9219,282.1563 519.7188,281.9531 Q519.5156,281.7656 519.4063,281.25 Q519.3594,280.8906 519.1719,280.7031 Q518.8438,280.3281 518.2344,280.1094 Q517.625,279.8906 517,279.8906 Q516.2344,279.8906 515.5938,280.2188 Q514.9688,280.5469 514.4688,281.2969 Q513.9844,282.0469 513.9844,283.0781 L513.9844,284.1719 Q513.9844,285.4063 514.875,286.2344 Q515.7656,287.0469 517.3594,287.0469 Q518.2969,287.0469 518.9531,286.7969 Q519.3438,286.6406 519.7656,286.2031 Q520.0313,285.9375 520.1719,285.8594 Q520.3281,285.7813 520.5313,285.7813 Q520.8594,285.7813 521.1094,286.0469 Q521.375,286.2969 521.375,286.6406 Q521.375,286.9844 521.0313,287.3906 Q520.5313,287.9688 519.7344,288.2969 Q518.6563,288.75 517.3594,288.75 Q515.8438,288.75 514.6406,288.125 Q513.6563,287.625 512.9688,286.5625 Q512.2813,285.4844 512.2813,284.2031 L512.2813,283.0469 Q512.2813,281.7188 512.8906,280.5781 Q513.5156,279.4219 514.6094,278.8125 Q515.7031,278.1875 516.9375,278.1875 Q517.6719,278.1875 518.3125,278.3594 Q518.9688,278.5156 519.5156,278.875 Z " fill="#000000"/><text fill="#000000" font-family="sans-serif" font-size="12" lengthAdjust="spacing" textLength="60" x="537.25" y="287.9102">Plataforma</text><line style="stroke:#A80036;stroke-width:1.5;" x1="406" x2="696" y1="299" y2="299"/><line style="stroke:#A80036;stroke-width:1.5;" x1="406" x2="696" y1="307" y2="307"/><text fill="#000000" font-family="sans-serif" font-size="11" lengthAdjust="spacing" textLength="74" x="411" y="322.4189">+getUsersAPI()</text><text fill="#000000" font-family="sans-serif" font-size="11" lengthAdjust="spacing" textLength="280" x="411" y="336.2549">+AlgoritmoGeradorPasswords getAlgoritmoGeradorPwd()</text><!--MD5=[3099f5026b55da7b12711a527794beda]
class UserAPI--><rect codeLine="33" fill="#FEFECE" filter="url(#fpo64k5xpsqzo)" height="61.8359" id="UserAPI" style="stroke:#A80036;stroke-width:1.5;" width="331" x="434.5" y="469.5"/><ellipse cx="573.25" cy="485.5" fill="#ADD1B2" rx="11" ry="11" style="stroke:#A80036;stroke-width:1.0;"/><path d="M576.0156,481.375 Q576.1719,481.1563 576.3594,481.0469 Q576.5469,480.9375 576.7656,480.9375 Q577.1406,480.9375 577.375,481.2031 Q577.6094,481.4531 577.6094,482.0625 L577.6094,483.5156 Q577.6094,484.125 577.375,484.3906 Q577.1406,484.6563 576.7656,484.6563 Q576.4219,484.6563 576.2188,484.4531 Q576.0156,484.2656 575.9063,483.75 Q575.8594,483.3906 575.6719,483.2031 Q575.3438,482.8281 574.7344,482.6094 Q574.125,482.3906 573.5,482.3906 Q572.7344,482.3906 572.0938,482.7188 Q571.4688,483.0469 570.9688,483.7969 Q570.4844,484.5469 570.4844,485.5781 L570.4844,486.6719 Q570.4844,487.9063 571.375,488.7344 Q572.2656,489.5469 573.8594,489.5469 Q574.7969,489.5469 575.4531,489.2969 Q575.8438,489.1406 576.2656,488.7031 Q576.5313,488.4375 576.6719,488.3594 Q576.8281,488.2813 577.0313,488.2813 Q577.3594,488.2813 577.6094,488.5469 Q577.875,488.7969 577.875,489.1406 Q577.875,489.4844 577.5313,489.8906 Q577.0313,490.4688 576.2344,490.7969 Q575.1563,491.25 573.8594,491.25 Q572.3438,491.25 571.1406,490.625 Q570.1563,490.125 569.4688,489.0625 Q568.7813,487.9844 568.7813,486.7031 L568.7813,485.5469 Q568.7813,484.2188 569.3906,483.0781 Q570.0156,481.9219 571.1094,481.3125 Q572.2031,480.6875 573.4375,480.6875 Q574.1719,480.6875 574.8125,480.8594 Q575.4688,481.0156 576.0156,481.375 Z " fill="#000000"/><text fill="#000000" font-family="sans-serif" font-size="12" lengthAdjust="spacing" textLength="45" x="593.75" y="490.4102">UserAPI</text><line style="stroke:#A80036;stroke-width:1.5;" x1="435.5" x2="764.5" y1="501.5" y2="501.5"/><line style="stroke:#A80036;stroke-width:1.5;" x1="435.5" x2="764.5" y1="509.5" y2="509.5"/><text fill="#000000" font-family="sans-serif" font-size="11" lengthAdjust="spacing" textLength="319" x="440.5" y="524.9189">+registerUserWithRoles(nome, telefone, email, funcao, password)</text><!--MD5=[37bf6c08f758502d5d1a5531d651ab43]
class AlgoritmoGeradorPasswords--><rect codeLine="37" fill="#FEFECE" filter="url(#fpo64k5xpsqzo)" height="70.0234" id="AlgoritmoGeradorPasswords" style="stroke:#A80036;stroke-width:1.5;" width="263" x="800.5" y="465.5"/><ellipse cx="849.25" cy="485.5938" fill="#B4A7E5" rx="11" ry="11" style="stroke:#A80036;stroke-width:1.0;"/><path d="M850.2031,482.2344 L850.2031,488.8906 L851.9219,488.8906 Q852.5313,488.8906 852.7969,489.125 Q853.0625,489.3594 853.0625,489.75 Q853.0625,490.125 852.7969,490.3594 Q852.5313,490.5938 851.9219,490.5938 L846.7813,490.5938 Q846.1719,490.5938 845.9063,490.3594 Q845.6406,490.125 845.6406,489.7344 Q845.6406,489.3594 845.9063,489.125 Q846.1719,488.8906 846.7813,488.8906 L848.5,488.8906 L848.5,482.2344 L846.7813,482.2344 Q846.1719,482.2344 845.9063,482 Q845.6406,481.7656 845.6406,481.375 Q845.6406,481 845.9063,480.7656 Q846.1719,480.5313 846.7813,480.5313 L851.9219,480.5313 Q852.5313,480.5313 852.7969,480.7656 Q853.0625,481 853.0625,481.375 Q853.0625,481.7656 852.7969,482 Q852.5313,482.2344 851.9219,482.2344 L850.2031,482.2344 Z " fill="#000000"/><text fill="#000000" font-family="sans-serif" font-size="12" font-style="italic" lengthAdjust="spacing" textLength="61" x="917.75" y="482.957">«interface»</text><text fill="#000000" font-family="sans-serif" font-size="12" font-style="italic" lengthAdjust="spacing" textLength="157" x="869.75" y="498.0508">AlgoritmoGeradorPasswords</text><line style="stroke:#A80036;stroke-width:1.5;" x1="801.5" x2="1062.5" y1="505.6875" y2="505.6875"/><line style="stroke:#A80036;stroke-width:1.5;" x1="801.5" x2="1062.5" y1="513.6875" y2="513.6875"/><text fill="#000000" font-family="sans-serif" font-size="11" lengthAdjust="spacing" textLength="251" x="806.5" y="529.1064">+String geraPassword(String nomeG, String emailG)</text><!--MD5=[dd5ad71b12dabe0adbc098c60a8c9669]
class RegistarOrganizacaoController--><rect codeLine="41" fill="#FEFECE" filter="url(#fpo64k5xpsqzo)" height="89.5078" id="RegistarOrganizacaoController" style="stroke:#A80036;stroke-width:1.5;" width="597" x="252.5" y="116"/><ellipse cx="461.75" cy="132" fill="#ADD1B2" rx="11" ry="11" style="stroke:#A80036;stroke-width:1.0;"/><path d="M464.5156,127.875 Q464.6719,127.6563 464.8594,127.5469 Q465.0469,127.4375 465.2656,127.4375 Q465.6406,127.4375 465.875,127.7031 Q466.1094,127.9531 466.1094,128.5625 L466.1094,130.0156 Q466.1094,130.625 465.875,130.8906 Q465.6406,131.1563 465.2656,131.1563 Q464.9219,131.1563 464.7188,130.9531 Q464.5156,130.7656 464.4063,130.25 Q464.3594,129.8906 464.1719,129.7031 Q463.8438,129.3281 463.2344,129.1094 Q462.625,128.8906 462,128.8906 Q461.2344,128.8906 460.5938,129.2188 Q459.9688,129.5469 459.4688,130.2969 Q458.9844,131.0469 458.9844,132.0781 L458.9844,133.1719 Q458.9844,134.4063 459.875,135.2344 Q460.7656,136.0469 462.3594,136.0469 Q463.2969,136.0469 463.9531,135.7969 Q464.3438,135.6406 464.7656,135.2031 Q465.0313,134.9375 465.1719,134.8594 Q465.3281,134.7813 465.5313,134.7813 Q465.8594,134.7813 466.1094,135.0469 Q466.375,135.2969 466.375,135.6406 Q466.375,135.9844 466.0313,136.3906 Q465.5313,136.9688 464.7344,137.2969 Q463.6563,137.75 462.3594,137.75 Q460.8438,137.75 459.6406,137.125 Q458.6563,136.625 457.9688,135.5625 Q457.2813,134.4844 457.2813,133.2031 L457.2813,132.0469 Q457.2813,130.7188 457.8906,129.5781 Q458.5156,128.4219 459.6094,127.8125 Q460.7031,127.1875 461.9375,127.1875 Q462.6719,127.1875 463.3125,127.3594 Q463.9688,127.5156 464.5156,127.875 Z " fill="#000000"/><text fill="#000000" font-family="sans-serif" font-size="12" lengthAdjust="spacing" textLength="170" x="482.25" y="136.9102">RegistarOrganizacaoController</text><line style="stroke:#A80036;stroke-width:1.5;" x1="253.5" x2="848.5" y1="148" y2="148"/><line style="stroke:#A80036;stroke-width:1.5;" x1="253.5" x2="848.5" y1="156" y2="156"/><text fill="#000000" font-family="sans-serif" font-size="11" lengthAdjust="spacing" textLength="585" x="258.5" y="171.4189">+void registarOrganizacao(nome,NIF,endLocal,endCodPostal,endLocalidade,tlf,site,email,nomeG,função,tlfG, emailG,pwd)</text><text fill="#000000" font-family="sans-serif" font-size="11" lengthAdjust="spacing" textLength="280" x="258.5" y="185.2549">+void registarEndercoPostal(morada,codPostal,localidade)</text><text fill="#000000" font-family="sans-serif" font-size="11" lengthAdjust="spacing" textLength="234" x="258.5" y="199.0908">+void registarColaborador(nome,funcao,tlf, email</text><!--MD5=[26c5f3be5170126d62449270b7dc8f97]
class RegistarOrganizacaoUI--><rect codeLine="47" fill="#FEFECE" filter="url(#fpo64k5xpsqzo)" height="48" id="RegistarOrganizacaoUI" style="stroke:#A80036;stroke-width:1.5;" width="160" x="471" y="7"/><ellipse cx="486" cy="23" fill="#ADD1B2" rx="11" ry="11" style="stroke:#A80036;stroke-width:1.0;"/><path d="M488.7656,18.875 Q488.9219,18.6563 489.1094,18.5469 Q489.2969,18.4375 489.5156,18.4375 Q489.8906,18.4375 490.125,18.7031 Q490.3594,18.9531 490.3594,19.5625 L490.3594,21.0156 Q490.3594,21.625 490.125,21.8906 Q489.8906,22.1563 489.5156,22.1563 Q489.1719,22.1563 488.9688,21.9531 Q488.7656,21.7656 488.6563,21.25 Q488.6094,20.8906 488.4219,20.7031 Q488.0938,20.3281 487.4844,20.1094 Q486.875,19.8906 486.25,19.8906 Q485.4844,19.8906 484.8438,20.2188 Q484.2188,20.5469 483.7188,21.2969 Q483.2344,22.0469 483.2344,23.0781 L483.2344,24.1719 Q483.2344,25.4063 484.125,26.2344 Q485.0156,27.0469 486.6094,27.0469 Q487.5469,27.0469 488.2031,26.7969 Q488.5938,26.6406 489.0156,26.2031 Q489.2813,25.9375 489.4219,25.8594 Q489.5781,25.7813 489.7813,25.7813 Q490.1094,25.7813 490.3594,26.0469 Q490.625,26.2969 490.625,26.6406 Q490.625,26.9844 490.2813,27.3906 Q489.7813,27.9688 488.9844,28.2969 Q487.9063,28.75 486.6094,28.75 Q485.0938,28.75 483.8906,28.125 Q482.9063,27.625 482.2188,26.5625 Q481.5313,25.4844 481.5313,24.2031 L481.5313,23.0469 Q481.5313,21.7188 482.1406,20.5781 Q482.7656,19.4219 483.8594,18.8125 Q484.9531,18.1875 486.1875,18.1875 Q486.9219,18.1875 487.5625,18.3594 Q488.2188,18.5156 488.7656,18.875 Z " fill="#000000"/><text fill="#000000" font-family="sans-serif" font-size="12" lengthAdjust="spacing" textLength="128" x="500" y="27.9102">RegistarOrganizacaoUI</text><line style="stroke:#A80036;stroke-width:1.5;" x1="472" x2="630" y1="39" y2="39"/><line style="stroke:#A80036;stroke-width:1.5;" x1="472" x2="630" y1="47" y2="47"/><!--MD5=[a1b8f5bd771d81c902bdce3c0e7f83f5]
class RepositorioOrganizacaoDB--><rect codeLine="50" fill="#FEFECE" filter="url(#fpo64k5xpsqzo)" height="61.8359" id="RepositorioOrganizacaoDB" style="stroke:#A80036;stroke-width:1.5;" width="182" x="732" y="274"/><ellipse cx="747" cy="290" fill="#ADD1B2" rx="11" ry="11" style="stroke:#A80036;stroke-width:1.0;"/><path d="M749.7656,285.875 Q749.9219,285.6563 750.1094,285.5469 Q750.2969,285.4375 750.5156,285.4375 Q750.8906,285.4375 751.125,285.7031 Q751.3594,285.9531 751.3594,286.5625 L751.3594,288.0156 Q751.3594,288.625 751.125,288.8906 Q750.8906,289.1563 750.5156,289.1563 Q750.1719,289.1563 749.9688,288.9531 Q749.7656,288.7656 749.6563,288.25 Q749.6094,287.8906 749.4219,287.7031 Q749.0938,287.3281 748.4844,287.1094 Q747.875,286.8906 747.25,286.8906 Q746.4844,286.8906 745.8438,287.2188 Q745.2188,287.5469 744.7188,288.2969 Q744.2344,289.0469 744.2344,290.0781 L744.2344,291.1719 Q744.2344,292.4063 745.125,293.2344 Q746.0156,294.0469 747.6094,294.0469 Q748.5469,294.0469 749.2031,293.7969 Q749.5938,293.6406 750.0156,293.2031 Q750.2813,292.9375 750.4219,292.8594 Q750.5781,292.7813 750.7813,292.7813 Q751.1094,292.7813 751.3594,293.0469 Q751.625,293.2969 751.625,293.6406 Q751.625,293.9844 751.2813,294.3906 Q750.7813,294.9688 749.9844,295.2969 Q748.9063,295.75 747.6094,295.75 Q746.0938,295.75 744.8906,295.125 Q743.9063,294.625 743.2188,293.5625 Q742.5313,292.4844 742.5313,291.2031 L742.5313,290.0469 Q742.5313,288.7188 743.1406,287.5781 Q743.7656,286.4219 744.8594,285.8125 Q745.9531,285.1875 747.1875,285.1875 Q747.9219,285.1875 748.5625,285.3594 Q749.2188,285.5156 749.7656,285.875 Z " fill="#000000"/><text fill="#000000" font-family="sans-serif" font-size="12" lengthAdjust="spacing" textLength="150" x="761" y="294.9102">RepositorioOrganizacaoDB</text><line style="stroke:#A80036;stroke-width:1.5;" x1="733" x2="913" y1="306" y2="306"/><line style="stroke:#A80036;stroke-width:1.5;" x1="733" x2="913" y1="314" y2="314"/><text fill="#000000" font-family="sans-serif" font-size="11" lengthAdjust="spacing" textLength="119" x="738" y="329.4189">+save(Organizacao org)</text><!--MD5=[5968e6aa320025ed2619ac26e0f01233]
link RegistarOrganizacaoUI to RegistarOrganizacaoController--><path codeLine="54" d="M551,55.18 C551,70.59 551,91.42 551,110.45 " fill="none" id="RegistarOrganizacaoUI-to-RegistarOrganizacaoController" style="stroke:#A80036;stroke-width:1.0;stroke-dasharray:7.0,7.0;"/><polygon fill="#A80036" points="551,115.76,555,106.76,551,110.76,547,106.76,551,115.76" style="stroke:#A80036;stroke-width:1.0;"/><!--MD5=[070ebfe6f744f37053d6e1e171d02a8b]
link RegistarOrganizacaoController to Plataforma--><path codeLine="55" d="M551,206.15 C551,223.71 551,243.84 551,261.26 " fill="none" id="RegistarOrganizacaoController-to-Plataforma" style="stroke:#A80036;stroke-width:1.0;stroke-dasharray:7.0,7.0;"/><polygon fill="#A80036" points="551,266.57,555,257.57,551,261.57,547,257.57,551,266.57" style="stroke:#A80036;stroke-width:1.0;"/><!--MD5=[989fd8e1df01efc14a26ec70914d6dfa]
link RegistarOrganizacaoController to Organizacao--><path codeLine="56" d="M470.45,206.18 C442.58,223.34 412.07,244.32 387,267 C338.09,311.25 292.04,369.45 258.25,416.55 " fill="none" id="RegistarOrganizacaoController-to-Organizacao" style="stroke:#A80036;stroke-width:1.0;stroke-dasharray:7.0,7.0;"/><polygon fill="#A80036" points="255.22,420.78,263.7077,415.7842,258.1275,416.7123,257.1994,411.1321,255.22,420.78" style="stroke:#A80036;stroke-width:1.0;"/><!--MD5=[e90e8ce03809725bfd32b75faf2029b8]
link RegistarOrganizacaoController to RepositorioOrganizacaoDB--><path codeLine="57" d="M635.57,206.15 C676.03,227.27 723.62,252.12 760.71,271.48 " fill="none" id="RegistarOrganizacaoController-to-RepositorioOrganizacaoDB" style="stroke:#A80036;stroke-width:1.0;stroke-dasharray:7.0,7.0;"/><polygon fill="#A80036" points="765.19,273.82,759.0661,266.1065,760.7586,271.5042,755.3609,273.1967,765.19,273.82" style="stroke:#A80036;stroke-width:1.0;"/><!--MD5=[1c2ad462e362697fcdc859a6327d55c7]
link Plataforma to Organizacao--><path codeLine="59" d="M484.31,343.08 C445.88,364.45 396,392.19 348.93,418.36 " fill="none" id="Plataforma-to-Organizacao" style="stroke:#A80036;stroke-width:1.0;"/><polygon fill="#A80036" points="344.38,420.89,354.19,420.0158,348.7508,418.4618,350.3048,413.0226,344.38,420.89" style="stroke:#A80036;stroke-width:1.0;"/><text fill="#000000" font-family="sans-serif" font-size="13" lengthAdjust="spacing" textLength="86" x="430" y="387.4951">tem registadas</text><text fill="#000000" font-family="sans-serif" font-size="13" lengthAdjust="spacing" textLength="7" x="465.6848" y="364.2634">1</text><text fill="#000000" font-family="sans-serif" font-size="13" lengthAdjust="spacing" textLength="5" x="352.617" y="410.0664">*</text><!--MD5=[365c6bbccb796eaa0d1ece95d9dc7309]
link Plataforma to UserAPI--><path codeLine="60" d="M561.84,343.13 C564.59,352.83 567.47,363.29 570,373 C577.99,403.72 586.26,438.86 592.08,464.29 " fill="none" id="Plataforma-to-UserAPI" style="stroke:#A80036;stroke-width:1.0;stroke-dasharray:7.0,7.0;"/><polygon fill="#A80036" points="593.21,469.25,595.1025,459.5847,592.0951,464.3759,587.3039,461.3685,593.21,469.25" style="stroke:#A80036;stroke-width:1.0;"/><!--MD5=[49996cf4319f45f78007483382b2a228]
link Plataforma to AlgoritmoGeradorPasswords--><path codeLine="61" d="M626.99,343.08 C672.4,365.39 731.16,394.5 783,421 C809.35,434.47 838.15,449.56 863.35,462.88 " fill="none" id="Plataforma-to-AlgoritmoGeradorPasswords" style="stroke:#A80036;stroke-width:1.0;stroke-dasharray:7.0,7.0;"/><polygon fill="#A80036" points="868.01,465.34,861.9355,457.5875,863.5935,462.996,858.1851,464.6539,868.01,465.34" style="stroke:#A80036;stroke-width:1.0;"/><!--MD5=[567db691f9836c63f305bad1024cbc66]
link Organizacao to Colaborador--><path codeLine="62" d="M147.78,580.05 C142.98,589.79 138.87,599.88 136,610 C132.15,623.58 131.39,638.62 132.15,652.77 " fill="none" id="Organizacao-to-Colaborador" style="stroke:#A80036;stroke-width:1.0;"/><polygon fill="#A80036" points="132.49,657.94,135.8895,648.6964,132.1612,652.9508,127.9068,649.2225,132.49,657.94" style="stroke:#A80036;stroke-width:1.0;"/><text fill="#000000" font-family="sans-serif" font-size="13" lengthAdjust="spacing" textLength="22" x="137" y="624.4951">tem</text><text fill="#000000" font-family="sans-serif" font-size="13" lengthAdjust="spacing" textLength="7" x="135.7338" y="601.0975">1</text><text fill="#000000" font-family="sans-serif" font-size="13" lengthAdjust="spacing" textLength="20" x="109.7464" y="647.06">1..*</text><!--MD5=[567db691f9836c63f305bad1024cbc66]
link Organizacao to Colaborador--><path codeLine="63" d="M179.85,580.05 C172.71,604.3 164.99,630.48 158.4,652.85 " fill="none" id="Organizacao-to-Colaborador-1" style="stroke:#A80036;stroke-width:1.0;"/><polygon fill="#A80036" points="156.93,657.85,163.3106,650.3475,158.3431,653.0539,155.6368,648.0864,156.93,657.85" style="stroke:#A80036;stroke-width:1.0;"/><text fill="#000000" font-family="sans-serif" font-size="13" lengthAdjust="spacing" textLength="123" x="172" y="624.4951">gerida por/tem gestor</text><text fill="#000000" font-family="sans-serif" font-size="13" lengthAdjust="spacing" textLength="7" x="170.5598" y="601.0975">1</text><text fill="#000000" font-family="sans-serif" font-size="13" lengthAdjust="spacing" textLength="7" x="151.5373" y="646.9574">1</text><!--MD5=[ca49ec1e86bb5e8c049c02c54bfc3088]
link Organizacao to EnderecoPostal--><path codeLine="64" d="M279.09,580.1 C287.75,589.95 296.24,600.06 304,610 C314.63,623.62 325.24,639.02 334.67,653.52 " fill="none" id="Organizacao-to-EnderecoPostal" style="stroke:#A80036;stroke-width:1.0;"/><polygon fill="#A80036" points="337.56,657.99,336.0345,648.26,334.8461,653.7906,329.3155,652.6022,337.56,657.99" style="stroke:#A80036;stroke-width:1.0;"/><text fill="#000000" font-family="sans-serif" font-size="13" lengthAdjust="spacing" textLength="80" x="317" y="624.4951">localizada em</text><text fill="#000000" font-family="sans-serif" font-size="13" lengthAdjust="spacing" textLength="7" x="278.3282" y="601.1518">1</text><text fill="#000000" font-family="sans-serif" font-size="13" lengthAdjust="spacing" textLength="7" x="325.7872" y="647.1171">1</text><!--MD5=[6880e8e9c20572deb838dab01ec34730]
@startuml
skinparam classAttributeIconSize 0

class Colaborador {
  -String nome
  -String telefone
  -String email
  +Colaborador(nome,tlf, email)
}

class EnderecoPostal {
  -String local
  -String codPostal
  -String localidade
  +EnderecoPostal(local,codPostal,localidade)
}

class Organizacao {
  -String nome
  -String NIF
  -String website
  -String telefone
  -String email
  +Organizacao(nome, NIF,webSite,telefone, email,endereco,gestorColaborador)
  +{static} EnderecoPostal registarEndereco(morada,codPostal,localidade)
  +{static} Colaborador registarColaborador(nome,funcao,tlf, email)
}

class Plataforma {
  +getUsersAPI()
  +AlgoritmoGeradorPasswords getAlgoritmoGeradorPwd()
}

class UserAPI {
   +registerUserWithRoles(nome, telefone, email, funcao, password)
}

interface AlgoritmoGeradorPasswords <<interface>>{
   +String geraPassword(String nomeG, String emailG)
}

class RegistarOrganizacaoController {
    +void registarOrganizacao(nome,NIF,endLocal,endCodPostal,endLocalidade,tlf,site,email,nomeG,função,tlfG, emailG,pwd)
    +void registarEndercoPostal(morada,codPostal,localidade)
    +void registarColaborador(nome,funcao,tlf, email
}

class RegistarOrganizacaoUI {
}

class RepositorioOrganizacaoDB {
  +save(Organizacao org)
}

RegistarOrganizacaoUI ..> RegistarOrganizacaoController
RegistarOrganizacaoController ..> Plataforma
RegistarOrganizacaoController ..> Organizacao
RegistarOrganizacaoController ..> RepositorioOrganizacaoDB

Plataforma "1" - -> "*" Organizacao : tem registadas
Plataforma ..> UserAPI
Plataforma ..> AlgoritmoGeradorPasswords
Organizacao "1" - -> "1..*" Colaborador: tem
Organizacao "1" - -> "1" Colaborador: gerida por/tem gestor
Organizacao "1" - -> "1" EnderecoPostal: localizada em

@enduml

PlantUML version 1.2021.00(Sun Jan 10 10:25:05 WET 2021)
(GPL source distribution)
Java Runtime: Java(TM) SE Runtime Environment
JVM: Java HotSpot(TM) 64-Bit Server VM
Default Encoding: Cp1252
Language: pt
Country: PT
--></g></svg>